<svg xmlns="http://www.w3.org/2000/svg" xmlns:xlink="http://www.w3.org/1999/xlink" contentStyleType="text/css" data-diagram-type="CLASS" height="92px" preserveAspectRatio="none" style="width:1387px;height:92px;background:#FFFFFF;" version="1.1" viewBox="0 0 1387 92" width="1387px" zoomAndPan="magnify"><defs/><g><g class="entity" data-entity="User" data-source-line="3" data-uid="ent0002" id="entity_User"><rect fill="#FFFFFF" height="37.6094" rx="2.5" ry="2.5" style="stroke:#181818;stroke-width:0.5;" width="115.1514" x="7" y="32.3564"/><text fill="#000000" font-family="sans-serif" font-size="14" lengthAdjust="spacing" textLength="101.1514" x="14" y="48.8896">Registered User</text><line style="stroke:#181818;stroke-width:0.5;" x1="8" x2="121.1514" y1="53.9658" y2="53.9658"/></g><g class="entity" data-entity="App" data-source-line="4" data-uid="ent0003" id="entity_App"><rect fill="#FFFFFF" height="37.6094" rx="2.5" ry="2.5" style="stroke:#181818;stroke-width:0.5;" width="101.1582" x="404" y="32.3564"/><text fill="#000000" font-family="sans-serif" font-size="14" lengthAdjust="spacing" textLength="87.1582" x="411" y="48.8896">FalsoPay App</text><line style="stroke:#181818;stroke-width:0.5;" x1="405" x2="504.1582" y1="53.9658" y2="53.9658"/></g><g class="entity" data-entity="Gateway" data-source-line="5" data-uid="ent0004" id="entity_Gateway"><rect fill="#FFFFFF" height="37.6094" rx="2.5" ry="2.5" style="stroke:#181818;stroke-width:0.5;" width="95.7031" x="711.5" y="32.3564"/><text fill="#000000" font-family="sans-serif" font-size="14" lengthAdjust="spacing" textLength="81.7031" x="718.5" y="48.8896">API Gateway</text><line style="stroke:#181818;stroke-width:0.5;" x1="712.5" x2="806.2031" y1="53.9658" y2="53.9658"/></g><g class="entity" data-entity="AccountService" data-source-line="6" data-uid="ent0005" id="entity_AccountService"><rect fill="#FFFFFF" height="37.6094" rx="2.5" ry="2.5" style="stroke:#181818;stroke-width:0.5;" width="115.1582" x="1008" y="32.3564"/><text fill="#000000" font-family="sans-serif" font-size="14" lengthAdjust="spacing" textLength="101.1582" x="1015" y="48.8896">Account Service</text><line style="stroke:#181818;stroke-width:0.5;" x1="1009" x2="1122.1582" y1="53.9658" y2="53.9658"/></g><g class="entity" data-entity="DB" data-source-line="7" data-uid="ent0006" id="entity_DB"><rect fill="#FFFFFF" height="37.6094" rx="2.5" ry="2.5" style="stroke:#181818;stroke-width:0.5;" width="73.9307" x="1307.5" y="32.3564"/><text fill="#000000" font-family="sans-serif" font-size="14" lengthAdjust="spacing" textLength="59.9307" x="1314.5" y="48.8896">Database</text><line style="stroke:#181818;stroke-width:0.5;" x1="1308.5" x2="1380.4307" y1="53.9658" y2="53.9658"/></g><!--link User to App--><!--link User to App--><g class="link" data-entity-1="User" data-entity-2="App" data-source-line="16" data-uid="lnk11" id="link_User_App"><path codeLine="16" d="M122.31,33.4864 C128.07,32.2164 133.87,31.1264 139.5,30.3564 C193.88,22.8864 332.23,22.1664 386.5,30.3564 C392.12,31.2064 392.0991,30.9712 397.8191,32.4012" fill="none" id="User-to-App" style="stroke:#181818;stroke-width:1;"/><polygon fill="#181818" points="403.64,33.8564,395.8789,27.7931,398.7893,32.6438,393.9386,35.5542,403.64,33.8564" style="stroke:#181818;stroke-width:1;"/><text fill="#000000" font-family="sans-serif" font-size="13" lengthAdjust="spacing" textLength="156.0952" x="185" y="20.8516">1. Request to view balance</text></g><!--link App to User--><g class="link" data-entity-1="App" data-entity-2="User" data-source-line="24" data-uid="lnk18" id="link_App_User"><path codeLine="24" d="M403.86,51.3564 C331.33,51.3564 204.22,51.3564 128.05,51.3564" fill="none" id="App-to-User" style="stroke:#181818;stroke-width:1;"/><polygon fill="#181818" points="122.05,51.3564,131.05,55.3564,127.05,51.3564,131.05,47.3564,122.05,51.3564" style="stroke:#181818;stroke-width:1;"/><text fill="#000000" font-family="sans-serif" font-size="13" lengthAdjust="spacing" textLength="245.6733" x="140.5" y="44.8516">8a. Display error message and retry option</text></g><!--link App to User--><g class="link" data-entity-1="App" data-entity-2="User" data-source-line="28" data-uid="lnk21" id="link_App_User"><path codeLine="28" d="M403.76,62.9264 C384.67,66.7364 362.69,70.4764 342.5,72.3564 C272.14,78.8964 253.9,78.5164 183.5,72.3564 C163.33,70.5864 147.3612,68.2507 127.9312,64.6807" fill="none" id="App-to-User-1" style="stroke:#181818;stroke-width:1;"/><polygon fill="#181818" points="122.03,63.5964,130.159,69.157,126.9477,64.5,131.6047,61.2887,122.03,63.5964" style="stroke:#181818;stroke-width:1;"/><text fill="#000000" font-family="sans-serif" font-size="13" lengthAdjust="spacing" textLength="157.5298" x="184.5" y="68.8516">8b. Display current balance</text></g><!--link App to Gateway--><!--link App to Gateway--><g class="link" data-entity-1="App" data-entity-2="Gateway" data-source-line="17" data-uid="lnk12" id="link_App_Gateway"><path codeLine="17" d="M505.17,68.8564 C510.87,70.2864 516.65,71.5064 522.25,72.3564 C560.04,78.0764 656.49,78.2864 694.25,72.3564 C699.89,71.4664 699.9074,71.7029 705.6474,70.1929" fill="none" id="App-to-Gateway" style="stroke:#181818;stroke-width:1;"/><polygon fill="#181818" points="711.45,68.6664,701.7285,67.0878,706.6145,69.9385,703.7638,74.8245,711.45,68.6664" style="stroke:#181818;stroke-width:1;"/><text fill="#000000" font-family="sans-serif" font-size="13" lengthAdjust="spacing" textLength="170.5425" x="523.25" y="68.8516">2. GET /api/accounts/balance</text></g><!--link Gateway to App--><g class="link" data-entity-1="Gateway" data-entity-2="App" data-source-line="23" data-uid="lnk17" id="link_Gateway_App"><path codeLine="23" d="M711.45,34.0464 C705.71,32.5364 699.89,31.2364 694.25,30.3564 C656.49,24.4264 560.04,24.6364 522.25,30.3564 C516.65,31.2064 516.6897,30.9664 510.9897,32.3964" fill="none" id="Gateway-to-App" style="stroke:#181818;stroke-width:1;"/><polygon fill="#181818" points="505.17,33.8564,514.8728,35.5462,510.0197,32.6398,512.9261,27.7867,505.17,33.8564" style="stroke:#181818;stroke-width:1;"/><text fill="#000000" font-family="sans-serif" font-size="13" lengthAdjust="spacing" textLength="164.7471" x="526.25" y="20.8516">7a. 500 Internal Server Error</text></g><!--link Gateway to App--><g class="link" data-entity-1="Gateway" data-entity-2="App" data-source-line="27" data-uid="lnk20" id="link_Gateway_App"><path codeLine="27" d="M711.19,51.3564 C654.94,51.3564 568.46,51.3564 511.21,51.3564" fill="none" id="Gateway-to-App-1" style="stroke:#181818;stroke-width:1;"/><polygon fill="#181818" points="505.21,51.3564,514.21,55.3564,510.21,51.3564,514.21,47.3564,505.21,51.3564" style="stroke:#181818;stroke-width:1;"/><text fill="#000000" font-family="sans-serif" font-size="13" lengthAdjust="spacing" textLength="170.5615" x="523.25" y="44.8516">7b. 200 OK with balance data</text></g><!--link Gateway to AccountService--><!--link Gateway to AccountService--><g class="link" data-entity-1="Gateway" data-entity-2="AccountService" data-source-line="18" data-uid="lnk13" id="link_Gateway_AccountService"><path codeLine="18" d="M807.55,34.0464 C813.29,32.5364 819.11,31.2364 824.75,30.3564 C861.19,24.6364 954.21,25.3164 990.75,30.3564 C996.36,31.1264 996.2817,30.9203 1002.0217,32.1903" fill="none" id="Gateway-to-AccountService" style="stroke:#181818;stroke-width:1;"/><polygon fill="#181818" points="1007.88,33.4864,999.9566,27.6366,1002.9981,32.4063,998.2284,35.4477,1007.88,33.4864" style="stroke:#181818;stroke-width:1;"/><text fill="#000000" font-family="sans-serif" font-size="13" lengthAdjust="spacing" textLength="112.0107" x="851.75" y="20.8516">3. Retrieve balance</text></g><!--link AccountService to Gateway--><g class="link" data-entity-1="AccountService" data-entity-2="Gateway" data-source-line="22" data-uid="lnk16" id="link_AccountService_Gateway"><path codeLine="22" d="M1007.99,51.3564 C950.13,51.3564 867.93,51.3564 813.65,51.3564" fill="none" id="AccountService-to-Gateway" style="stroke:#181818;stroke-width:1;"/><polygon fill="#181818" points="807.65,51.3564,816.65,55.3564,812.65,51.3564,816.65,47.3564,807.65,51.3564" style="stroke:#181818;stroke-width:1;"/><text fill="#000000" font-family="sans-serif" font-size="13" lengthAdjust="spacing" textLength="164.7471" x="825.75" y="44.8516">6a. 500 Internal Server Error</text></g><!--link AccountService to Gateway--><g class="link" data-entity-1="AccountService" data-entity-2="Gateway" data-source-line="26" data-uid="lnk19" id="link_AccountService_Gateway"><path codeLine="26" d="M1007.6,67.0964 C997.39,69.2764 986.82,71.1764 976.75,72.3564 C915.83,79.4664 899.57,80.2764 838.75,72.3564 C828.59,71.0364 823.6905,70.253 813.5405,67.713" fill="none" id="AccountService-to-Gateway-1" style="stroke:#181818;stroke-width:1;"/><polygon fill="#181818" points="807.72,66.2564,815.4797,72.3216,812.5704,67.4702,817.4218,64.5609,807.72,66.2564" style="stroke:#181818;stroke-width:1;"/><text fill="#000000" font-family="sans-serif" font-size="13" lengthAdjust="spacing" textLength="136.5825" x="839.75" y="68.8516">6b. Balance information</text></g><!--link AccountService to DB--><!--link AccountService to DB--><g class="link" data-entity-1="AccountService" data-entity-2="DB" data-source-line="19" data-uid="lnk14" id="link_AccountService_DB"><path codeLine="19" d="M1123.31,51.3564 C1178.53,51.3564 1254.13,51.3564 1301.24,51.3564" fill="none" id="AccountService-to-DB" style="stroke:#181818;stroke-width:1;"/><polygon fill="#181818" points="1307.24,51.3564,1298.24,47.3564,1302.24,51.3564,1298.24,55.3564,1307.24,51.3564" style="stroke:#181818;stroke-width:1;"/><text fill="#000000" font-family="sans-serif" font-size="13" lengthAdjust="spacing" textLength="148.1479" x="1141.25" y="44.8516">4. Query account balance</text></g><!--link DB to AccountService--><g class="link" data-entity-1="DB" data-entity-2="AccountService" data-source-line="20" data-uid="lnk15" id="link_DB_AccountService"><path codeLine="20" d="M1307.16,62.8664 C1292.94,66.6964 1276.49,70.4664 1261.25,72.3564 C1220.67,77.3964 1209.94,76.4364 1169.25,72.3564 C1154.16,70.8464 1143.9135,69.3031 1128.9635,66.3131" fill="none" id="DB-to-AccountService" style="stroke:#181818;stroke-width:1;"/><polygon fill="#181818" points="1123.08,65.1364,1131.1208,70.8238,1127.9829,66.117,1132.6897,62.9792,1123.08,65.1364" style="stroke:#181818;stroke-width:1;"/><text fill="#000000" font-family="sans-serif" font-size="13" lengthAdjust="spacing" textLength="90.3462" x="1170.25" y="68.8516">5. Balance data</text></g><!--SRC=[XPD1RzGm48Nl-HMZSYWSDbiA1PJ3IbsbhIg4M4fxGXmcpdHtK687ZxEhvTTZEscscrIGInpxc_5xpyufvFJ8cg11wrXnWze9xDXjG9n5HsjMq1XXnqQpNeCpKBFcclyGi7PaXLHOayGKl_mGJkvyZVW5Ak51o9u0IXp0g-lu3E0rLc9Mk8VBfecKVq-WozKjt7WTEzn7fXzFEQLCgnry9xjbHLs_RgwVcfJawB10wTXyEQmdfx3g7KF7of5jPOr8oABomKaIlSr-RBWiIV-qlDwuMR2I13lZ-Lv-ycHZKdSaEHav6DFvCeZzGYAu9e7NRPHLTz-WsxhmvnEqiovP-It1s9Bicrxp8YQUmTiKxkXtI-82ksNQGO4LwY0WU5WCgMTmdiBDrJtCiU4vTkfa_aGFhXRZx3Du5pPnbcbBX-uZUujm31cyJ-5RItOF_GO3xrTdB_M-I67P8L3wGqqcZOyiVC0KBixEu3PSNurLl3C-ZojhZJru6EBv-4y-9kJP66a6dpoSipILRq4168u3TGdM9x07quIxzJ-LnS4KwqTZQunLB-ZpvBdNz_Lpz-CMpwCOooiEybHhBJrBzoy0]--></g></svg>