<svg xmlns="http://www.w3.org/2000/svg" xmlns:xlink="http://www.w3.org/1999/xlink" contentStyleType="text/css" data-diagram-type="CLASS" height="165px" preserveAspectRatio="none" style="width:1912px;height:165px;background:#FFFFFF;" version="1.1" viewBox="0 0 1912 165" width="1912px" zoomAndPan="magnify"><defs/><g><g class="entity" data-entity="User" data-source-line="3" data-uid="ent0002" id="entity_User"><rect fill="#FFFFFF" height="37.6094" rx="2.5" ry="2.5" style="stroke:#181818;stroke-width:0.5;" width="101.9307" x="7" y="63.87"/><text fill="#000000" font-family="sans-serif" font-size="14" lengthAdjust="spacing" textLength="87.9307" x="14" y="80.4032">Potential User</text><line style="stroke:#181818;stroke-width:0.5;" x1="8" x2="107.9307" y1="85.4794" y2="85.4794"/></g><g class="entity" data-entity="App" data-source-line="4" data-uid="ent0003" id="entity_App"><rect fill="#FFFFFF" height="37.6094" rx="2.5" ry="2.5" style="stroke:#181818;stroke-width:0.5;" width="101.1582" x="413.5" y="63.87"/><text fill="#000000" font-family="sans-serif" font-size="14" lengthAdjust="spacing" textLength="87.1582" x="420.5" y="80.4032">FalsoPay App</text><line style="stroke:#181818;stroke-width:0.5;" x1="414.5" x2="513.6582" y1="85.4794" y2="85.4794"/></g><g class="entity" data-entity="Gateway" data-source-line="5" data-uid="ent0004" id="entity_Gateway"><rect fill="#FFFFFF" height="37.6094" rx="2.5" ry="2.5" style="stroke:#181818;stroke-width:0.5;" width="95.7031" x="898" y="63.87"/><text fill="#000000" font-family="sans-serif" font-size="14" lengthAdjust="spacing" textLength="81.7031" x="905" y="80.4032">API Gateway</text><line style="stroke:#181818;stroke-width:0.5;" x1="899" x2="992.7031" y1="85.4794" y2="85.4794"/></g><g class="entity" data-entity="UserService" data-source-line="6" data-uid="ent0005" id="entity_UserService"><rect fill="#FFFFFF" height="37.6094" rx="2.5" ry="2.5" style="stroke:#181818;stroke-width:0.5;" width="94.1309" x="1207" y="63.87"/><text fill="#000000" font-family="sans-serif" font-size="14" lengthAdjust="spacing" textLength="80.1309" x="1214" y="80.4032">User Service</text><line style="stroke:#181818;stroke-width:0.5;" x1="1208" x2="1300.1309" y1="85.4794" y2="85.4794"/></g><g class="entity" data-entity="DB" data-source-line="7" data-uid="ent0006" id="entity_DB"><rect fill="#FFFFFF" height="37.6094" rx="2.5" ry="2.5" style="stroke:#181818;stroke-width:0.5;" width="73.9307" x="1664" y="63.87"/><text fill="#000000" font-family="sans-serif" font-size="14" lengthAdjust="spacing" textLength="59.9307" x="1671" y="80.4032">Database</text><line style="stroke:#181818;stroke-width:0.5;" x1="1665" x2="1736.9307" y1="85.4794" y2="85.4794"/></g><g class="entity" data-entity="NotifService" data-source-line="8" data-uid="ent0007" id="entity_NotifService"><rect fill="#FFFFFF" height="37.6094" rx="2.5" ry="2.5" style="stroke:#181818;stroke-width:0.5;" width="133.8271" x="1773" y="63.87"/><text fill="#000000" font-family="sans-serif" font-size="14" lengthAdjust="spacing" textLength="119.8271" x="1780" y="80.4032">Notification Service</text><line style="stroke:#181818;stroke-width:0.5;" x1="1774" x2="1905.8271" y1="85.4794" y2="85.4794"/></g><!--link User to App--><!--link User to App--><g class="link" data-entity-1="User" data-entity-2="App" data-source-line="18" data-uid="lnk13" id="link_User_App"><path codeLine="18" d="M109.05,65.38 C114.79,63.94 120.61,62.72 126.25,61.87 C155.92,57.41 366.59,57.38 396.25,61.87 C401.85,62.72 401.8128,62.4704 407.5128,63.9104" fill="none" id="User-to-App" style="stroke:#181818;stroke-width:1;"/><polygon fill="#181818" points="413.33,65.38,405.5839,59.2974,408.4823,64.1553,403.6244,67.0537,413.33,65.38" style="stroke:#181818;stroke-width:1;"/><text fill="#000000" font-family="sans-serif" font-size="13" lengthAdjust="spacing" textLength="181.3652" x="170.75" y="52.3651">1. Enter registration information</text></g><!--link App to User--><g class="link" data-entity-1="App" data-entity-2="User" data-source-line="28" data-uid="lnk22" id="link_App_User"><path codeLine="28" d="M444.46,102.08 C425.85,118.9 396.17,142.14 365.25,151.87 C343.21,158.81 179.3,158.79 157.25,151.87 C126.21,142.14 100.832,122.9113 82.122,106.0913" fill="none" id="App-to-User" style="stroke:#181818;stroke-width:1;"/><polygon fill="#181818" points="77.66,102.08,81.6788,111.0716,81.3783,105.4227,87.0272,105.1222,77.66,102.08" style="stroke:#181818;stroke-width:1;"/><text fill="#000000" font-family="sans-serif" font-size="13" lengthAdjust="spacing" textLength="158.958" x="182.25" y="148.3651">10a. Display error message</text></g><!--link App to User--><g class="link" data-entity-1="App" data-entity-2="User" data-source-line="32" data-uid="lnk25" id="link_App_User"><path codeLine="32" d="M431.41,102.01 C412.73,111.86 388.45,122.84 365.25,127.87 C342.67,132.78 179.84,132.76 157.25,127.87 C133.95,122.84 114.8535,114.6469 96.0735,104.7969" fill="none" id="App-to-User-1" style="stroke:#181818;stroke-width:1;"/><polygon fill="#181818" points="90.76,102.01,96.8723,109.7327,95.1879,104.3324,100.5882,102.648,90.76,102.01" style="stroke:#181818;stroke-width:1;"/><text fill="#000000" font-family="sans-serif" font-size="13" lengthAdjust="spacing" textLength="167.6353" x="177.75" y="124.3651">10b. Display validation errors</text></g><!--link App to User--><g class="link" data-entity-1="App" data-entity-2="User" data-source-line="40" data-uid="lnk32" id="link_App_User"><path codeLine="40" d="M413.2,82.87 C335.27,82.87 193.06,82.87 115.01,82.87" fill="none" id="App-to-User-2" style="stroke:#181818;stroke-width:1;"/><polygon fill="#181818" points="109.01,82.87,118.01,86.87,114.01,82.87,118.01,78.87,109.01,82.87" style="stroke:#181818;stroke-width:1;"/><text fill="#000000" font-family="sans-serif" font-size="13" lengthAdjust="spacing" textLength="268.7725" x="127.25" y="76.3651">14c. Display success &amp; verification instructions</text></g><!--link User to App--><g class="link" data-entity-1="User" data-entity-2="App" data-source-line="42" data-uid="lnk33" id="link_User_App"><path codeLine="42" d="M79.67,63.82 C92.32,53.99 109.12,43.01 126.25,37.87 C140.62,33.56 381.89,33.54 396.25,37.87 C413.28,43.02 425.2347,50.3026 437.7847,60.1226" fill="none" id="User-to-App-1" style="stroke:#181818;stroke-width:1;"/><polygon fill="#181818" points="442.51,63.82,437.8869,55.1236,438.5722,60.7388,432.957,61.4241,442.51,63.82" style="stroke:#181818;stroke-width:1;"/><text fill="#000000" font-family="sans-serif" font-size="13" lengthAdjust="spacing" textLength="166.1943" x="178.25" y="28.3651">15c. Submit verification code</text></g><!--link App to User--><g class="link" data-entity-1="App" data-entity-2="User" data-source-line="49" data-uid="lnk40" id="link_App_User"><path codeLine="49" d="M413.33,95.78 C397.99,99.1 381.03,102.22 365.25,103.87 C319.28,108.71 203.22,108.68 157.25,103.87 C141.48,102.22 130.4052,100.4047 115.0552,97.0947" fill="none" id="App-to-User-3" style="stroke:#181818;stroke-width:1;"/><polygon fill="#181818" points="109.19,95.83,117.1446,101.6372,114.0777,96.884,118.8309,93.817,109.19,95.83" style="stroke:#181818;stroke-width:1;"/><text fill="#000000" font-family="sans-serif" font-size="13" lengthAdjust="spacing" textLength="206.6479" x="158.25" y="100.3651">22. Display registration confirmation</text></g><!--link App to Gateway--><!--link App to Gateway--><g class="link" data-entity-1="App" data-entity-2="Gateway" data-source-line="20" data-uid="lnk15" id="link_App_Gateway"><path codeLine="20" d="M514.59,73.96 C543.4,69.34 580.23,64.19 613.25,61.87 C695.71,56.1 716.79,56 799.25,61.87 C832.37,64.23 863.4492,68.5781 892.0192,73.2681" fill="none" id="App-to-Gateway" style="stroke:#181818;stroke-width:1;"/><polygon fill="#181818" points="897.94,74.24,889.7068,68.8349,893.006,73.43,888.4109,76.7293,897.94,74.24" style="stroke:#181818;stroke-width:1;"/><text fill="#000000" font-family="sans-serif" font-size="13" lengthAdjust="spacing" textLength="121.3799" x="645.75" y="52.3651">3. POST /api/register</text></g><!--link Gateway to App--><g class="link" data-entity-1="Gateway" data-entity-2="App" data-source-line="27" data-uid="lnk21" id="link_Gateway_App"><path codeLine="27" d="M897.92,64.17 C869.67,54.18 832.98,42.93 799.25,37.87 C758.37,31.75 654.14,31.84 613.25,37.87 C579.38,42.87 548.2105,51.9591 519.6105,61.8491" fill="none" id="Gateway-to-App" style="stroke:#181818;stroke-width:1;"/><polygon fill="#181818" points="513.94,63.81,523.7531,64.649,518.6654,62.1759,521.1385,57.0883,513.94,63.81" style="stroke:#181818;stroke-width:1;"/><text fill="#000000" font-family="sans-serif" font-size="13" lengthAdjust="spacing" textLength="90.3335" x="661.25" y="28.3651">9a. 409 Conflict</text></g><!--link Gateway to App--><g class="link" data-entity-1="Gateway" data-entity-2="App" data-source-line="31" data-uid="lnk24" id="link_Gateway_App"><path codeLine="31" d="M897.85,90.12 C862.17,95.1 812.3,101.28 768.25,103.87 C713.23,107.11 699.27,107.07 644.25,103.87 C600.37,101.33 556.7344,96.1348 520.6944,91.1948" fill="none" id="Gateway-to-App-1" style="stroke:#181818;stroke-width:1;"/><polygon fill="#181818" points="514.75,90.38,523.1234,95.5651,519.7037,91.059,524.2098,87.6393,514.75,90.38" style="stroke:#181818;stroke-width:1;"/><text fill="#000000" font-family="sans-serif" font-size="13" lengthAdjust="spacing" textLength="122.1479" x="645.25" y="100.3651">9b. 400 Bad Request</text></g><!--link Gateway to App--><g class="link" data-entity-1="Gateway" data-entity-2="App" data-source-line="39" data-uid="lnk31" id="link_Gateway_App"><path codeLine="39" d="M897.8,82.87 C806.26,82.87 614.09,82.87 520.67,82.87" fill="none" id="Gateway-to-App-2" style="stroke:#181818;stroke-width:1;"/><polygon fill="#181818" points="514.67,82.87,523.67,86.87,519.67,82.87,523.67,78.87,514.67,82.87" style="stroke:#181818;stroke-width:1;"/><text fill="#000000" font-family="sans-serif" font-size="13" lengthAdjust="spacing" textLength="184.2788" x="614.25" y="76.3651">13c. 201 Created with user data</text></g><!--link App to Gateway--><g class="link" data-entity-1="App" data-entity-2="Gateway" data-source-line="43" data-uid="lnk34" id="link_App_Gateway"><path codeLine="43" d="M514.65,99.05 C550.44,109.61 599.75,122.4 644.25,127.87 C698.95,134.6 713.56,134.69 768.25,127.87 C812.95,122.3 856.7946,110.8691 892.2146,100.2091" fill="none" id="App-to-Gateway-1" style="stroke:#181818;stroke-width:1;"/><polygon fill="#181818" points="897.96,98.48,888.1891,97.2434,893.1721,99.921,890.4946,104.904,897.96,98.48" style="stroke:#181818;stroke-width:1;"/><text fill="#000000" font-family="sans-serif" font-size="13" lengthAdjust="spacing" textLength="116.3208" x="648.25" y="124.3651">16. POST /api/verify</text></g><!--link Gateway to App--><g class="link" data-entity-1="Gateway" data-entity-2="App" data-source-line="48" data-uid="lnk39" id="link_Gateway_App"><path codeLine="48" d="M909.06,101.88 C873.91,118.83 819.01,142.37 768.25,151.87 C741.17,156.95 671.35,156.88 644.25,151.87 C592.85,142.37 542.5793,121.4052 506.9093,104.4552" fill="none" id="Gateway-to-App-3" style="stroke:#181818;stroke-width:1;"/><polygon fill="#181818" points="501.49,101.88,507.9021,109.3556,506.0061,104.026,511.3357,102.1299,501.49,101.88" style="stroke:#181818;stroke-width:1;"/><text fill="#000000" font-family="sans-serif" font-size="13" lengthAdjust="spacing" textLength="65.7681" x="673.75" y="148.3651">21. 200 OK</text></g><!--link Gateway to UserService--><!--link Gateway to UserService--><g class="link" data-entity-1="Gateway" data-entity-2="UserService" data-source-line="21" data-uid="lnk16" id="link_Gateway_UserService"><path codeLine="21" d="M971.37,101.96 C986.06,111.8 1005.37,122.78 1024.5,127.87 C1040.82,132.22 1160.19,132.27 1176.5,127.87 C1195.43,122.78 1209.5363,115.1708 1224.0263,105.3308" fill="none" id="Gateway-to-UserService" style="stroke:#181818;stroke-width:1;"/><polygon fill="#181818" points="1228.99,101.96,1219.2973,103.707,1224.8536,104.769,1223.7917,110.3253,1228.99,101.96" style="stroke:#181818;stroke-width:1;"/><text fill="#000000" font-family="sans-serif" font-size="13" lengthAdjust="spacing" textLength="131.5171" x="1035" y="124.3651">4. Create user account</text></g><!--link UserService to Gateway--><g class="link" data-entity-1="UserService" data-entity-2="Gateway" data-source-line="26" data-uid="lnk20" id="link_UserService_Gateway"><path codeLine="26" d="M1206.86,65.66 C1201.08,64.11 1195.2,62.78 1189.5,61.87 C1150.43,55.67 1050.58,55.76 1011.5,61.87 C1005.84,62.76 1005.7907,62.5166 1000.0407,64.0366" fill="none" id="UserService-to-Gateway" style="stroke:#181818;stroke-width:1;"/><polygon fill="#181818" points="994.24,65.57,1003.9634,67.137,999.074,64.2922,1001.9188,59.4027,994.24,65.57" style="stroke:#181818;stroke-width:1;"/><text fill="#000000" font-family="sans-serif" font-size="13" lengthAdjust="spacing" textLength="141.6099" x="1030" y="52.3651">8a. Error: Account exists</text></g><!--link UserService to Gateway--><g class="link" data-entity-1="UserService" data-entity-2="Gateway" data-source-line="30" data-uid="lnk23" id="link_UserService_Gateway"><path codeLine="30" d="M1233.69,63.84 C1221.79,54.02 1205.91,43.03 1189.5,37.87 C1170.63,31.94 1030.39,32.01 1011.5,37.87 C994.9,43.03 983.4288,50.2291 971.3288,60.0491" fill="none" id="UserService-to-Gateway-1" style="stroke:#181818;stroke-width:1;"/><polygon fill="#181818" points="966.67,63.83,976.1788,61.2644,970.5523,60.6792,971.1376,55.0527,966.67,63.83" style="stroke:#181818;stroke-width:1;"/><text fill="#000000" font-family="sans-serif" font-size="13" lengthAdjust="spacing" textLength="124.2871" x="1038.5" y="28.3651">8b. Error: Invalid data</text></g><!--link UserService to Gateway--><g class="link" data-entity-1="UserService" data-entity-2="Gateway" data-source-line="38" data-uid="lnk30" id="link_UserService_Gateway"><path codeLine="38" d="M1206.97,82.87 C1149.35,82.87 1058.24,82.87 1000.12,82.87" fill="none" id="UserService-to-Gateway-2" style="stroke:#181818;stroke-width:1;"/><polygon fill="#181818" points="994.12,82.87,1003.12,86.87,999.12,82.87,1003.12,78.87,994.12,82.87" style="stroke:#181818;stroke-width:1;"/><text fill="#000000" font-family="sans-serif" font-size="13" lengthAdjust="spacing" textLength="176.2935" x="1012.5" y="76.3651">12c. User created successfully</text></g><!--link Gateway to UserService--><g class="link" data-entity-1="Gateway" data-entity-2="UserService" data-source-line="44" data-uid="lnk35" id="link_Gateway_UserService"><path codeLine="44" d="M960.73,101.99 C974.96,118.75 998.18,141.95 1024.5,151.87 C1040.3,157.83 1160.72,157.88 1176.5,151.87 C1202.6,141.94 1221.6519,123.3435 1235.6619,106.5835" fill="none" id="Gateway-to-UserService-1" style="stroke:#181818;stroke-width:1;"/><polygon fill="#181818" points="1239.51,101.98,1230.6688,106.3198,1236.3032,105.8162,1236.8068,111.4506,1239.51,101.98" style="stroke:#181818;stroke-width:1;"/><text fill="#000000" font-family="sans-serif" font-size="13" lengthAdjust="spacing" textLength="83.8145" x="1059" y="148.3651">17. Verify user</text></g><!--link UserService to Gateway--><g class="link" data-entity-1="UserService" data-entity-2="Gateway" data-source-line="47" data-uid="lnk38" id="link_UserService_Gateway"><path codeLine="47" d="M1206.86,97.77 C1196.93,100.31 1186.45,102.55 1176.5,103.87 C1143.02,108.33 1057.99,108.28 1024.5,103.87 C1014.57,102.57 1009.9298,101.8294 999.9998,99.3394" fill="none" id="UserService-to-Gateway-3" style="stroke:#181818;stroke-width:1;"/><polygon fill="#181818" points="994.18,97.88,1001.9368,103.9489,999.0298,99.0961,1003.8826,96.1891,994.18,97.88" style="stroke:#181818;stroke-width:1;"/><text fill="#000000" font-family="sans-serif" font-size="13" lengthAdjust="spacing" textLength="150.2935" x="1025.5" y="100.3651">20. Verification successful</text></g><!--link UserService to DB--><!--link UserService to DB--><g class="link" data-entity-1="UserService" data-entity-2="DB" data-source-line="23" data-uid="lnk18" id="link_UserService_DB"><path codeLine="23" d="M1301.3,91.67 C1328.7,96.33 1363.92,101.54 1395.5,103.87 C1472.62,109.57 1492.41,109.99 1569.5,103.87 C1601.53,101.33 1631.6533,96.4683 1657.8833,91.5383" fill="none" id="UserService-to-DB" style="stroke:#181818;stroke-width:1;"/><polygon fill="#181818" points="1663.78,90.43,1654.196,88.1613,1658.866,91.3536,1655.6737,96.0236,1663.78,90.43" style="stroke:#181818;stroke-width:1;"/><text fill="#000000" font-family="sans-serif" font-size="13" lengthAdjust="spacing" textLength="172.6943" x="1396.5" y="100.3651">6. Check if email/phone exists</text></g><!--link DB to UserService--><g class="link" data-entity-1="DB" data-entity-2="UserService" data-source-line="24" data-uid="lnk19" id="link_DB_UserService"><path codeLine="24" d="M1664,82.87 C1583.17,82.87 1396.95,82.87 1307.41,82.87" fill="none" id="DB-to-UserService" style="stroke:#181818;stroke-width:1;"/><polygon fill="#181818" points="1301.41,82.87,1310.41,86.87,1306.41,82.87,1310.41,78.87,1301.41,82.87" style="stroke:#181818;stroke-width:1;"/><text fill="#000000" font-family="sans-serif" font-size="13" lengthAdjust="spacing" textLength="177.0171" x="1394" y="76.3651">7. Response (exists/not exists)</text></g><!--link UserService to DB--><g class="link" data-entity-1="UserService" data-entity-2="DB" data-source-line="34" data-uid="lnk26" id="link_UserService_DB"><path codeLine="34" d="M1301.26,101.93 C1328.35,111.83 1363.28,122.87 1395.5,127.87 C1433.71,133.8 1531.36,134.22 1569.5,127.87 C1602.35,122.41 1632.4299,112.015 1658.3199,101.515" fill="none" id="UserService-to-DB-1" style="stroke:#181818;stroke-width:1;"/><polygon fill="#181818" points="1663.88,99.26,1654.0365,98.9357,1659.2466,101.1391,1657.0431,106.3492,1663.88,99.26" style="stroke:#181818;stroke-width:1;"/><text fill="#000000" font-family="sans-serif" font-size="13" lengthAdjust="spacing" textLength="129.3335" x="1418" y="124.3651">8c. Create user record</text></g><!--link DB to UserService--><g class="link" data-entity-1="DB" data-entity-2="UserService" data-source-line="35" data-uid="lnk27" id="link_DB_UserService"><path codeLine="35" d="M1673.86,102.16 C1648.32,119.03 1608.3,142.31 1569.5,151.87 C1550.73,156.5 1414.34,156.22 1395.5,151.87 C1354.09,142.32 1315.8985,122.0407 1288.2685,105.1407" fill="none" id="DB-to-UserService-1" style="stroke:#181818;stroke-width:1;"/><polygon fill="#181818" points="1283.15,102.01,1288.7405,110.1184,1287.4154,104.6189,1292.9148,103.2938,1283.15,102.01" style="stroke:#181818;stroke-width:1;"/><text fill="#000000" font-family="sans-serif" font-size="13" lengthAdjust="spacing" textLength="70.0845" x="1447.5" y="148.3651">9c. Success</text></g><!--link UserService to DB--><g class="link" data-entity-1="UserService" data-entity-2="DB" data-source-line="45" data-uid="lnk36" id="link_UserService_DB"><path codeLine="45" d="M1301.09,73.96 C1327.91,69.34 1362.21,64.19 1393,61.87 C1472.33,55.92 1492.7,55.46 1572,61.87 C1603.21,64.4 1632.3668,69.1732 1658.0468,74.0832" fill="none" id="UserService-to-DB-2" style="stroke:#181818;stroke-width:1;"/><polygon fill="#181818" points="1663.94,75.21,1655.8513,69.591,1659.029,74.271,1654.3489,77.4487,1663.94,75.21" style="stroke:#181818;stroke-width:1;"/><text fill="#000000" font-family="sans-serif" font-size="13" lengthAdjust="spacing" textLength="167.6479" x="1399" y="52.3651">18. Update verification status</text></g><!--link DB to UserService--><g class="link" data-entity-1="DB" data-entity-2="UserService" data-source-line="46" data-uid="lnk37" id="link_DB_UserService"><path codeLine="46" d="M1663.78,66.15 C1638.48,55.72 1603.92,43.28 1572,37.87 C1532.78,31.23 1432.29,31.67 1393,37.87 C1361.31,42.88 1332.6132,51.8272 1306.0132,61.7272" fill="none" id="DB-to-UserService-2" style="stroke:#181818;stroke-width:1;"/><polygon fill="#181818" points="1300.39,63.82,1310.22,64.4295,1305.076,62.076,1307.4295,56.932,1300.39,63.82" style="stroke:#181818;stroke-width:1;"/><text fill="#000000" font-family="sans-serif" font-size="13" lengthAdjust="spacing" textLength="70.8145" x="1447.5" y="28.3651">19. Success</text></g><!--link UserService to NotifService--><!--link UserService to NotifService--><g class="link" data-entity-1="UserService" data-entity-2="NotifService" data-source-line="36" data-uid="lnk28" id="link_UserService_NotifService"><path codeLine="36" d="M1301.03,70.61 C1358.55,56.3 1459.14,33.49 1547,24.87 C1589.46,20.71 1697.77,13.88 1739,24.87 C1767.13,32.38 1790.6724,46.324 1810.1724,60.124" fill="none" id="UserService-to-NotifService" style="stroke:#181818;stroke-width:1;"/><polygon fill="#181818" points="1815.07,63.59,1810.0342,55.1259,1810.9886,60.7017,1805.4129,61.6561,1815.07,63.59" style="stroke:#181818;stroke-width:1;"/><text fill="#000000" font-family="sans-serif" font-size="13" lengthAdjust="spacing" textLength="190.7534" x="1548" y="30.3651">10c. Send verification email/SMS</text></g><!--link NotifService to UserService--><g class="link" data-entity-1="NotifService" data-entity-2="UserService" data-source-line="37" data-uid="lnk29" id="link_NotifService_UserService"><path codeLine="37" d="M1815.07,63.59 C1795.57,49.79 1767.13,32.38 1739,24.87 C1697.77,13.88 1589.46,20.71 1547,24.87 C1459.14,33.49 1364.3725,54.8515 1306.8525,69.1615" fill="none" id="NotifService-to-UserService" style="stroke:#181818;stroke-width:1;"/><polygon fill="#181818" points="1301.03,70.61,1310.7295,72.3189,1305.8821,69.4029,1308.7981,64.5555,1301.03,70.61" style="stroke:#181818;stroke-width:1;"/><text fill="#000000" font-family="sans-serif" font-size="13" lengthAdjust="spacing" textLength="139.4834" x="1573.5" y="30.3651">11c. Notification queued</text></g><!--link App to App--><g class="link" data-entity-1="App" data-entity-2="App" data-source-line="19" data-uid="lnk14" id="link_App_App"><path codeLine="19" d="M514.91,75.76 C533.88,75.53 549.5,77.9 549.5,82.87 C549.5,87.85 539.8795,90.2959 520.9095,90.0559" fill="none" id="App-to-App" style="stroke:#181818;stroke-width:1;"/><polygon fill="#181818" points="514.91,89.98,523.8587,94.0935,519.9096,90.0433,523.9599,86.0942,514.91,89.98" style="stroke:#181818;stroke-width:1;"/><text fill="#000000" font-family="sans-serif" font-size="13" lengthAdjust="spacing" textLength="133.688" x="555.5" y="88.3651">2. Validate input format</text></g><!--link UserService to UserService--><g class="link" data-entity-1="UserService" data-entity-2="UserService" data-source-line="22" data-uid="lnk17" id="link_UserService_UserService"><path codeLine="22" d="M1301.19,75.79 C1320.11,75.39 1336,77.75 1336,82.87 C1336,88 1326.1087,90.4868 1307.1887,90.0868" fill="none" id="UserService-to-UserService" style="stroke:#181818;stroke-width:1;"/><polygon fill="#181818" points="1301.19,89.96,1310.1034,94.1493,1306.1889,90.0657,1310.2725,86.1511,1301.19,89.96" style="stroke:#181818;stroke-width:1;"/><text fill="#000000" font-family="sans-serif" font-size="13" lengthAdjust="spacing" textLength="119.2471" x="1342" y="88.3651">5. Validate user data</text></g><!--SRC=[VLHDSzem4BtxL-oaCqrouCFaeu53PfBGT3ATD4nfS-dq8EG5jhKbLv99wQ-l91k3R2TS4EZjxdjlTtKCKroIGCYPCiGfPy9eU26p1cqKCxWY3hdKP4WA4Yim4Z8IbD4_1186bKRkxdGa5x_i4Ovcqg0mn5Buhb4T0TF-0E_k_QV6tRDKondRmasUUvJzRe5kPW_moT9uOLkFgSujdAymHxKXZdN9wdSBF6M6BPWkWTFRrlqNQMX9d3bTGL9_qSmQ7SEiCWZA33fmYIkfjRCkjJxho3Fj_LXJag3ugMYrDZqdFNBoc_zNSgETxERzWSheK74JDxtjlaxaY-W5ifoSHzIQhL33IU69P-Ll44Msi0rtwaWapY04gH9KfvMgQz_32SHz-EXc0vIT7pz7pXmIIwaoVox5xk2ZFZopb1ANZqHU62Y1EzHE_GJE-Z1xcd-30SjfK2P7jNVdEcZx1CxxSAVGfIqSFyQvB8G9hMZ6N1oGyL7sn9eXTcWcS6cphv7_1be2PepIGRwMTfNmhwMb8ulfjR9_wCDNrBdT5uIJ4ZWGqbGnfr5OAD1-nQohIaarWPjIoAvIhRzsT6onvyCnt4cnJ8bNJbPiN8E65Z0bdQSs35tINPFVPB2e6Jo8ZJEfDAUZ_iBL7y8jIwpUFmNg3WgBFOLDwRYR4iz6HvsEN_6meGgvdRzkfySMEoyujxAQkO8rTamS54K26rJxnIzREd-SHm6-NIcERNpmPbZ11IPlE1cFR8WtWdiv2UYIwh98qss7eV6P3HWDuqf-KZxH-_bicdlEz-PMgU5zg8-4tSoYUhoR2tpXtLjaPC8WBXDihsLyURYNFc3x-bR6TWcUFSOBwEnqV6NzoVqI1lMrOQPuPRVYyIiT3xYEXbNrEcNjV8VlezZPFeIdpqsBHwEzmy4pn-tEqUwT-my0]--></g></svg>