<svg xmlns="http://www.w3.org/2000/svg" xmlns:xlink="http://www.w3.org/1999/xlink" contentStyleType="text/css" data-diagram-type="CLASS" height="570px" preserveAspectRatio="none" style="width:639px;height:570px;background:#FFFFFF;" version="1.1" viewBox="0 0 639 570" width="639px" zoomAndPan="magnify"><title>Collaboration Diagram: Notifications &amp; Balances</title><defs/><g><text fill="#000000" font-family="sans-serif" font-size="14" font-weight="bold" lengthAdjust="spacing" textLength="322.834" x="151.1452" y="24.5332">Collaboration Diagram: Notifications &amp; Balances</text><text fill="#000000" font-family="sans-serif" font-size="14" font-weight="bold" lengthAdjust="spacing" textLength="175.834" x="224.6452" y="42.1426">(UC15, UC17, UC24, UC31)</text><g class="entity" data-entity="User" data-source-line="5" data-uid="ent0002" id="entity_User"><rect fill="#F1F1F1" height="37.6094" rx="2.5" ry="2.5" style="stroke:#181818;stroke-width:0.5;" width="43.5586" x="144.66" y="63.2188"/><text fill="#000000" font-family="sans-serif" font-size="14" lengthAdjust="spacing" textLength="29.5586" x="151.66" y="79.752">User</text><line style="stroke:#181818;stroke-width:0.5;" x1="145.66" x2="187.2186" y1="84.8281" y2="84.8281"/></g><g class="entity" data-entity="App" data-source-line="6" data-uid="ent0003" id="entity_App"><rect fill="#F1F1F1" height="37.6094" rx="2.5" ry="2.5" style="stroke:#181818;stroke-width:0.5;" width="38.9102" x="147.16" y="179.2188"/><text fill="#000000" font-family="sans-serif" font-size="14" lengthAdjust="spacing" textLength="24.9102" x="154.16" y="195.752">App</text><line style="stroke:#181818;stroke-width:0.5;" x1="148.16" x2="185.0702" y1="200.8281" y2="200.8281"/></g><g class="entity" data-entity="Gateway" data-source-line="7" data-uid="ent0004" id="entity_Gateway"><rect fill="#F1F1F1" height="37.6094" rx="2.5" ry="2.5" style="stroke:#181818;stroke-width:0.5;" width="69.248" x="63.16" y="295.2188"/><text fill="#000000" font-family="sans-serif" font-size="14" lengthAdjust="spacing" textLength="55.248" x="70.16" y="311.752">Gateway</text><line style="stroke:#181818;stroke-width:0.5;" x1="64.16" x2="131.408" y1="316.8281" y2="316.8281"/></g><g class="entity" data-entity="NotifService" data-source-line="8" data-uid="ent0005" id="entity_NotifService"><rect fill="#F1F1F1" height="37.6094" rx="2.5" ry="2.5" style="stroke:#181818;stroke-width:0.5;" width="133.8271" x="169.66" y="411.2188"/><text fill="#000000" font-family="sans-serif" font-size="14" lengthAdjust="spacing" textLength="119.8271" x="176.66" y="427.752">Notification Service</text><line style="stroke:#181818;stroke-width:0.5;" x1="170.66" x2="302.4871" y1="432.8281" y2="432.8281"/></g><g class="entity" data-entity="AccountService" data-source-line="9" data-uid="ent0006" id="entity_AccountService"><rect fill="#F1F1F1" height="37.6094" rx="2.5" ry="2.5" style="stroke:#181818;stroke-width:0.5;" width="115.1582" x="363.16" y="295.2188"/><text fill="#000000" font-family="sans-serif" font-size="14" lengthAdjust="spacing" textLength="101.1582" x="370.16" y="311.752">Account Service</text><line style="stroke:#181818;stroke-width:0.5;" x1="364.16" x2="477.3182" y1="316.8281" y2="316.8281"/></g><g class="entity" data-entity="Database" data-source-line="10" data-uid="ent0007" id="entity_Database"><rect fill="#F1F1F1" height="37.6094" rx="2.5" ry="2.5" style="stroke:#181818;stroke-width:0.5;" width="73.9307" x="265.66" y="527.2188"/><text fill="#000000" font-family="sans-serif" font-size="14" lengthAdjust="spacing" textLength="59.9307" x="272.66" y="543.752">Database</text><line style="stroke:#181818;stroke-width:0.5;" x1="266.66" x2="338.5907" y1="548.8281" y2="548.8281"/></g><!--link AccountService to AccountService--><g class="link" data-entity-1="AccountService" data-entity-2="AccountService" data-source-line="13" data-uid="lnk8" id="link_AccountService_AccountService"><path codeLine="13" d="M478.47,303.3388 C497.74,303.3388 513.16,306.9688 513.16,314.2188 C513.16,321.4688 503.74,325.0988 484.47,325.0988" fill="none" id="AccountService-to-AccountService" style="stroke:#181818;stroke-width:1;"/><polygon fill="#181818" points="478.47,325.0988,487.47,329.0988,483.47,325.0988,487.47,321.0988,478.47,325.0988" style="stroke:#181818;stroke-width:1;"/><text fill="#000000" font-family="sans-serif" font-size="13" lengthAdjust="spacing" textLength="106.9644" x="519.16" y="319.7139">1. Balance Update</text></g><!--link AccountService to Database--><g class="link" data-entity-1="AccountService" data-entity-2="Database" data-source-line="14" data-uid="lnk9" id="link_AccountService_Database"><path codeLine="14" d="M420.43,333.2688 C419.13,368.1287 412.03,445.8088 375.66,497.2188 C366.55,510.0988 357.9578,517.3801 344.8378,525.1201" fill="none" id="AccountService-to-Database" style="stroke:#181818;stroke-width:1;"/><polygon fill="#181818" points="339.67,528.1688,349.4541,527.0409,343.9765,525.6282,345.3892,520.1506,339.67,528.1688" style="stroke:#181818;stroke-width:1;"/><text fill="#000000" font-family="sans-serif" font-size="13" lengthAdjust="spacing" textLength="104.7808" x="410.66" y="435.7139">2. adjustBalance()</text></g><!--link AccountService to NotifService--><g class="link" data-entity-1="AccountService" data-entity-2="NotifService" data-source-line="15" data-uid="lnk10" id="link_AccountService_NotifService"><path codeLine="15" d="M388.92,333.3588 C373.63,342.1988 355.09,353.0988 338.66,363.2188 C313.15,378.9188 289.57,394.2072 269.16,407.6572" fill="none" id="AccountService-to-NotifService" style="stroke:#181818;stroke-width:1;"/><polygon fill="#181818" points="264.15,410.9588,273.866,409.3464,268.325,408.2075,269.4639,402.6665,264.15,410.9588" style="stroke:#181818;stroke-width:1;"/><text fill="#000000" font-family="sans-serif" font-size="13" lengthAdjust="spacing" textLength="54.1836" x="339.66" y="377.7139">3. notify()</text></g><!--link NotifService to Database--><g class="link" data-entity-1="NotifService" data-entity-2="Database" data-source-line="16" data-uid="lnk11" id="link_NotifService_Database"><path codeLine="16" d="M208.27,449.2888 C191.48,462.3188 175.47,480.4888 186.66,497.2188 C204.1,523.3088 232.7393,534.0482 259.6093,539.4882" fill="none" id="NotifService-to-Database" style="stroke:#181818;stroke-width:1;"/><polygon fill="#181818" points="265.49,540.6788,257.4627,534.9724,260.5894,539.6866,255.8752,542.8133,265.49,540.6788" style="stroke:#181818;stroke-width:1;"/><text fill="#000000" font-family="sans-serif" font-size="13" lengthAdjust="spacing" textLength="71.5254" x="187.66" y="493.7139">4. getPrefs()</text></g><!--link NotifService to Database--><g class="link" data-entity-1="NotifService" data-entity-2="Database" data-source-line="24" data-uid="lnk17" id="link_NotifService_Database"><path codeLine="24" d="M247.12,449.2788 C259.4,470.4988 276.6628,500.3267 289.0228,521.6667" fill="none" id="NotifService-to-Database-1" style="stroke:#181818;stroke-width:1;"/><polygon fill="#181818" points="292.03,526.8588,290.9806,517.066,289.524,522.5321,284.0579,521.0755,292.03,526.8588" style="stroke:#181818;stroke-width:1;"/><text fill="#000000" font-family="sans-serif" font-size="13" lengthAdjust="spacing" textLength="93.9136" x="273.66" y="493.7139">10. storeTicket()</text></g><!--link NotifService to App--><g class="link" data-entity-1="NotifService" data-entity-2="App" data-source-line="17" data-uid="lnk12" id="link_NotifService_App"><path codeLine="17" d="M248.85,410.8988 C253.87,402.2788 259.11,391.6188 261.66,381.2188 C276.01,322.5988 273.15,297.4288 239.66,247.2188 C226.78,227.9088 208.6856,217.014 191.8156,209.374" fill="none" id="NotifService-to-App" style="stroke:#181818;stroke-width:1;"/><polygon fill="#181818" points="186.35,206.8988,192.8983,214.2554,190.9047,208.9615,196.1986,206.9679,186.35,206.8988" style="stroke:#181818;stroke-width:1;"/><text fill="#000000" font-family="sans-serif" font-size="13" lengthAdjust="spacing" textLength="42.6436" x="271.66" y="319.7139">5. push</text></g><!--link App to User--><g class="link" data-entity-1="App" data-entity-2="User" data-source-line="18" data-uid="lnk13" id="link_App_User"><path codeLine="18" d="M186.4,186.0888 C205.23,173.8888 229.37,153.1187 219.66,131.2188 C213.32,116.9187 205.2366,108.592 193.7266,100.242" fill="none" id="App-to-User" style="stroke:#181818;stroke-width:1;"/><polygon fill="#181818" points="188.87,96.7188,193.8061,105.2414,192.9172,99.6548,198.5038,98.7659,188.87,96.7188" style="stroke:#181818;stroke-width:1;"/><text fill="#000000" font-family="sans-serif" font-size="13" lengthAdjust="spacing" textLength="54.9199" x="223.66" y="145.7139">6. display</text></g><!--link User to App--><g class="link" data-entity-1="User" data-entity-2="App" data-source-line="21" data-uid="lnk14" id="link_User_App"><path codeLine="21" d="M144.37,86.9787 C120.68,92.2888 84.39,104.5088 67.66,131.2188 C46.66,164.7387 106.6292,183.6657 141.1292,191.7757" fill="none" id="User-to-App" style="stroke:#181818;stroke-width:1;"/><polygon fill="#181818" points="146.97,193.1488,139.1242,187.1954,142.1027,192.0046,137.2935,194.9831,146.97,193.1488" style="stroke:#181818;stroke-width:1;"/><text fill="#000000" font-family="sans-serif" font-size="13" lengthAdjust="spacing" textLength="142.3398" x="68.66" y="145.7139">7. Submit Support Ticket</text></g><!--link App to Gateway--><g class="link" data-entity-1="App" data-entity-2="Gateway" data-source-line="22" data-uid="lnk15" id="link_App_Gateway"><path codeLine="22" d="M147.06,199.0388 C114.68,199.9388 50.69,207.0188 21.66,247.2188 C6,268.8888 30.7363,285.7813 57.5763,297.8313" fill="none" id="App-to-Gateway" style="stroke:#181818;stroke-width:1;"/><polygon fill="#181818" points="63.05,300.2888,56.4778,292.9535,58.4886,298.2409,53.2012,300.2517,63.05,300.2888" style="stroke:#181818;stroke-width:1;"/><text fill="#000000" font-family="sans-serif" font-size="13" lengthAdjust="spacing" textLength="100.4326" x="22.66" y="261.7139">8. POST /support</text></g><!--link Gateway to App--><g class="link" data-entity-1="Gateway" data-entity-2="App" data-source-line="26" data-uid="lnk19" id="link_Gateway_App"><path codeLine="26" d="M109.16,295.0488 C114.79,286.0988 121.63,275.1288 127.66,265.2188 C137.4,249.1787 145.2217,235.9685 152.9917,222.6785" fill="none" id="Gateway-to-App" style="stroke:#181818;stroke-width:1;"/><polygon fill="#181818" points="156.02,217.4987,148.0244,223.2494,153.4964,221.8152,154.9307,227.2872,156.02,217.4987" style="stroke:#181818;stroke-width:1;"/><text fill="#000000" font-family="sans-serif" font-size="13" lengthAdjust="spacing" textLength="92.4917" x="138.66" y="261.7139">12. confirmation</text></g><!--link Gateway to NotifService--><g class="link" data-entity-1="Gateway" data-entity-2="NotifService" data-source-line="23" data-uid="lnk16" id="link_Gateway_NotifService"><path codeLine="23" d="M63.07,329.9688 C38.41,342.5888 12.15,361.7488 27.66,381.2188 C45.23,403.2788 109.2459,415.2982 163.4359,422.0382" fill="none" id="Gateway-to-NotifService" style="stroke:#181818;stroke-width:1;"/><polygon fill="#181818" points="169.39,422.7788,160.9525,417.6985,164.4282,422.1616,159.9651,425.6373,169.39,422.7788" style="stroke:#181818;stroke-width:1;"/><text fill="#000000" font-family="sans-serif" font-size="13" lengthAdjust="spacing" textLength="93.9136" x="28.66" y="377.7139">9. createTicket()</text></g><!--link NotifService to Gateway--><g class="link" data-entity-1="NotifService" data-entity-2="Gateway" data-source-line="25" data-uid="lnk18" id="link_NotifService_Gateway"><path codeLine="25" d="M205.37,411.0288 C191.77,402.5988 175.95,392.0588 162.66,381.2188 C144.59,366.4788 130.1613,351.7027 117.5613,337.8127" fill="none" id="NotifService-to-Gateway" style="stroke:#181818;stroke-width:1;"/><polygon fill="#181818" points="113.53,333.3688,116.6142,342.7222,116.8894,337.0721,122.5395,337.3472,113.53,333.3688" style="stroke:#181818;stroke-width:1;"/><text fill="#000000" font-family="sans-serif" font-size="13" lengthAdjust="spacing" textLength="93.2344" x="163.66" y="377.7139">11. 201 Created</text></g><!--SRC=[XLB1JiCm3BttAwmUO4WihDt6O0UaiKdSODAs6vSqJKT6cqI92zhVawmjMwiABbRoylpiPmS5vXp2fSfpcYX3KIW9Aq7tXXPpU5KeCi5Eg8KhUAOvbOpRTpdOBQFfBRWuyp6U-3YERi8Wk8OLpuJaO8yMUG6Q6XHCQ2hH1YevS8QmizmqvuNMpV658l-cn-OQNjQ73JTVWl4GgAqQgu5Vze8nLKfi4MkiGrrHf0crt3VhsuPXOmrsEdLDEA-NjOEs30o7Jnrbc4D4EY9zMKrbnuy9qFHGMgop1ZTz2PTENTAOWFJ8qR5RJntn2O4znxNXcUrZkfaxqfI0Bkr7u6yUzLjny3s1L5YTkqMSvXDFt7oMXlkvR4gjbK7O2lR9CJXbd0Ldn16IGc2NrrIe5-oe3mJMRvijtDcA6JHFFQOV2R1J-Khj7-lHY815PVvWdzk8tDRYKLJRIrjTL9uYjoUcP2PCKVs57m00]--></g></svg>