<svg xmlns="http://www.w3.org/2000/svg" xmlns:xlink="http://www.w3.org/1999/xlink" contentStyleType="text/css" data-diagram-type="CLASS" height="686px" preserveAspectRatio="none" style="width:848px;height:686px;background:#FFFFFF;" version="1.1" viewBox="0 0 848 686" width="848px" zoomAndPan="magnify"><title>Collaboration Diagram (with Flow Arrows): Financial Transactions Core</title><defs/><g><text fill="#000000" font-family="sans-serif" font-size="14" font-weight="bold" lengthAdjust="spacing" textLength="475.2822" x="179.4497" y="24.5332">Collaboration Diagram (with Flow Arrows): Financial Transactions Core</text><text fill="#000000" font-family="sans-serif" font-size="14" font-weight="bold" lengthAdjust="spacing" textLength="149.3584" x="342.4117" y="42.1426">(UC5, UC8-UC9, UC12)</text><g class="entity" data-entity="User" data-source-line="5" data-uid="ent0002" id="entity_User"><rect fill="#F1F1F1" height="37.6094" rx="2.5" ry="2.5" style="stroke:#181818;stroke-width:0.5;" width="43.5586" x="433.69" y="63.2188"/><text fill="#000000" font-family="sans-serif" font-size="14" lengthAdjust="spacing" textLength="29.5586" x="440.69" y="79.752">User</text><line style="stroke:#181818;stroke-width:0.5;" x1="434.69" x2="476.2486" y1="84.8281" y2="84.8281"/></g><g class="entity" data-entity="App" data-source-line="6" data-uid="ent0003" id="entity_App"><rect fill="#F1F1F1" height="37.6094" rx="2.5" ry="2.5" style="stroke:#181818;stroke-width:0.5;" width="38.9102" x="436.19" y="179.2188"/><text fill="#000000" font-family="sans-serif" font-size="14" lengthAdjust="spacing" textLength="24.9102" x="443.19" y="195.752">App</text><line style="stroke:#181818;stroke-width:0.5;" x1="437.19" x2="474.1002" y1="200.8281" y2="200.8281"/></g><g class="entity" data-entity="Gateway" data-source-line="7" data-uid="ent0004" id="entity_Gateway"><rect fill="#F1F1F1" height="37.6094" rx="2.5" ry="2.5" style="stroke:#181818;stroke-width:0.5;" width="69.248" x="421.19" y="295.2188"/><text fill="#000000" font-family="sans-serif" font-size="14" lengthAdjust="spacing" textLength="55.248" x="428.19" y="311.752">Gateway</text><line style="stroke:#181818;stroke-width:0.5;" x1="422.19" x2="489.438" y1="316.8281" y2="316.8281"/></g><g class="entity" data-entity="TxnService" data-source-line="8" data-uid="ent0005" id="entity_TxnService"><rect fill="#F1F1F1" height="37.6094" rx="2.5" ry="2.5" style="stroke:#181818;stroke-width:0.5;" width="137.7168" x="272.69" y="411.2188"/><text fill="#000000" font-family="sans-serif" font-size="14" lengthAdjust="spacing" textLength="123.7168" x="279.69" y="427.752">Transaction Service</text><line style="stroke:#181818;stroke-width:0.5;" x1="273.69" x2="409.4068" y1="432.8281" y2="432.8281"/></g><g class="entity" data-entity="BankService" data-source-line="9" data-uid="ent0006" id="entity_BankService"><rect fill="#F1F1F1" height="37.6094" rx="2.5" ry="2.5" style="stroke:#181818;stroke-width:0.5;" width="115.165" x="648.19" y="411.2188"/><text fill="#000000" font-family="sans-serif" font-size="14" lengthAdjust="spacing" textLength="101.165" x="655.19" y="427.752">Banking Service</text><line style="stroke:#181818;stroke-width:0.5;" x1="649.19" x2="762.355" y1="432.8281" y2="432.8281"/></g><g class="entity" data-entity="SecService" data-source-line="10" data-uid="ent0007" id="entity_SecService"><rect fill="#F1F1F1" height="37.6094" rx="2.5" ry="2.5" style="stroke:#181818;stroke-width:0.5;" width="115.1445" x="156.19" y="527.2188"/><text fill="#000000" font-family="sans-serif" font-size="14" lengthAdjust="spacing" textLength="101.1445" x="163.19" y="543.752">Security Service</text><line style="stroke:#181818;stroke-width:0.5;" x1="157.19" x2="270.3345" y1="548.8281" y2="548.8281"/></g><g class="entity" data-entity="Database" data-source-line="11" data-uid="ent0008" id="entity_Database"><rect fill="#F1F1F1" height="37.6094" rx="2.5" ry="2.5" style="stroke:#181818;stroke-width:0.5;" width="73.9307" x="402.69" y="643.2188"/><text fill="#000000" font-family="sans-serif" font-size="14" lengthAdjust="spacing" textLength="59.9307" x="409.69" y="659.752">Database</text><line style="stroke:#181818;stroke-width:0.5;" x1="403.69" x2="475.6207" y1="664.8281" y2="664.8281"/></g><!--link User to App--><g class="link" data-entity-1="User" data-entity-2="App" data-source-line="14" data-uid="lnk9" id="link_User_App"><path codeLine="14" d="M433.62,85.1988 C406.25,88.9688 360.64,99.8687 339.69,131.2188 C314.32,169.1688 390.7721,186.8097 430.0821,193.3797" fill="none" id="User-to-App" style="stroke:#181818;stroke-width:1;"/><polygon fill="#181818" points="436,194.3687,427.7825,188.9399,431.0684,193.5445,426.4637,196.8304,436,194.3687" style="stroke:#181818;stroke-width:1;"/><text fill="#000000" font-family="sans-serif" font-size="13" lengthAdjust="spacing" textLength="71.5444" x="340.69" y="145.7139">1. Link Bank</text></g><!--link User to App--><g class="link" data-entity-1="User" data-entity-2="App" data-source-line="22" data-uid="lnk15" id="link_User_App"><path codeLine="22" d="M454.28,101.4388 C453.66,110.3987 453,121.3687 452.69,131.2188 C452.18,147.3887 452.7019,159.7848 453.6719,173.0348" fill="none" id="User-to-App-1" style="stroke:#181818;stroke-width:1;"/><polygon fill="#181818" points="454.11,179.0188,457.4422,169.7507,453.7449,174.0321,449.4636,170.3348,454.11,179.0188" style="stroke:#181818;stroke-width:1;"/><text fill="#000000" font-family="sans-serif" font-size="13" lengthAdjust="spacing" textLength="87.4453" x="453.69" y="145.7139">7. Send Money</text></g><!--link User to App--><g class="link" data-entity-1="User" data-entity-2="App" data-source-line="32" data-uid="lnk23" id="link_User_App"><path codeLine="32" d="M478.01,88.1588 C499.6,94.2487 531.11,106.9188 545.69,131.2188 C564.43,162.4588 512.8863,181.7856 481.1063,190.7156" fill="none" id="User-to-App-2" style="stroke:#181818;stroke-width:1;"/><polygon fill="#181818" points="475.33,192.3388,485.0765,193.755,480.1436,190.9862,482.9124,186.0532,475.33,192.3388" style="stroke:#181818;stroke-width:1;"/><text fill="#000000" font-family="sans-serif" font-size="13" lengthAdjust="spacing" textLength="112.7344" x="550.69" y="145.7139">15. Request Money</text></g><!--link App to Gateway--><g class="link" data-entity-1="App" data-entity-2="Gateway" data-source-line="15" data-uid="lnk10" id="link_App_Gateway"><path codeLine="15" d="M435.96,200.0788 C358.91,203.6388 81.25,218.4088 55.69,247.2188 C6,303.2288 309.1604,311.6568 415.0404,312.9268" fill="none" id="App-to-Gateway" style="stroke:#181818;stroke-width:1;"/><polygon fill="#181818" points="421.04,312.9988,412.0886,308.8911,416.0404,312.9388,411.9927,316.8905,421.04,312.9988" style="stroke:#181818;stroke-width:1;"/><text fill="#000000" font-family="sans-serif" font-size="13" lengthAdjust="spacing" textLength="108.3799" x="56.69" y="261.7139">2. POST /bank/link</text></g><!--link Gateway to App--><g class="link" data-entity-1="Gateway" data-entity-2="App" data-source-line="19" data-uid="lnk14" id="link_Gateway_App"><path codeLine="19" d="M476.82,295.1088 C489.02,282.3488 500.83,264.5288 494.69,247.2188 C490.74,236.0888 487.0283,230.0872 479.4683,221.8172" fill="none" id="Gateway-to-App" style="stroke:#181818;stroke-width:1;"/><polygon fill="#181818" points="475.42,217.3888,478.5401,226.7303,478.7936,221.0791,484.4447,221.3326,475.42,217.3888" style="stroke:#181818;stroke-width:1;"/><text fill="#000000" font-family="sans-serif" font-size="13" lengthAdjust="spacing" textLength="126.4707" x="497.69" y="261.7139">6. verification pending</text></g><!--link App to Gateway--><g class="link" data-entity-1="App" data-entity-2="Gateway" data-source-line="23" data-uid="lnk16" id="link_App_Gateway"><path codeLine="23" d="M436.09,199.8988 C382.41,202.1988 235.03,211.6988 205.69,247.2188 C200.59,253.3888 200.59,259.0488 205.69,265.2188 C232.57,297.7588 352.5086,308.1371 414.7286,311.4771" fill="none" id="App-to-Gateway-1" style="stroke:#181818;stroke-width:1;"/><polygon fill="#181818" points="420.72,311.7988,411.9474,307.3221,415.7272,311.5307,411.5185,315.3106,420.72,311.7988" style="stroke:#181818;stroke-width:1;"/><text fill="#000000" font-family="sans-serif" font-size="13" lengthAdjust="spacing" textLength="127.1626" x="206.69" y="261.7139">8. POST /transactions</text></g><!--link Gateway to App--><g class="link" data-entity-1="Gateway" data-entity-2="App" data-source-line="29" data-uid="lnk22" id="link_Gateway_App"><path codeLine="29" d="M490.52,312.2888 C552.25,309.3488 670.94,297.2288 632.69,247.2188 C613.44,222.0587 523.1099,207.7823 481.1899,202.3323" fill="none" id="Gateway-to-App-1" style="stroke:#181818;stroke-width:1;"/><polygon fill="#181818" points="475.24,201.5587,483.6492,206.6857,480.1983,202.2034,484.6806,198.7525,475.24,201.5587" style="stroke:#181818;stroke-width:1;"/><text fill="#000000" font-family="sans-serif" font-size="13" lengthAdjust="spacing" textLength="94.6626" x="640.69" y="261.7139">14. show receipt</text></g><!--link App to Gateway--><g class="link" data-entity-1="App" data-entity-2="Gateway" data-source-line="33" data-uid="lnk24" id="link_App_Gateway"><path codeLine="33" d="M436.07,204.0587 C415.64,210.2688 384.7,223.2188 370.69,247.2188 C355.85,272.6288 385.8232,289.6758 415.4032,300.6258" fill="none" id="App-to-Gateway-2" style="stroke:#181818;stroke-width:1;"/><polygon fill="#181818" points="421.03,302.7088,413.9784,295.8331,416.341,300.973,411.2011,303.3355,421.03,302.7088" style="stroke:#181818;stroke-width:1;"/><text fill="#000000" font-family="sans-serif" font-size="13" lengthAdjust="spacing" textLength="114.1626" x="371.69" y="261.7139">16. POST /requests</text></g><!--link Gateway to App--><g class="link" data-entity-1="Gateway" data-entity-2="App" data-source-line="37" data-uid="lnk28" id="link_Gateway_App"><path codeLine="37" d="M490.44,312.7888 C559.82,311.1188 711.58,303.1188 743.69,265.2188 C748.86,259.1188 748.86,253.3188 743.69,247.2188 C708.96,206.2188 540.2394,200.2962 481.2094,199.4362" fill="none" id="Gateway-to-App-2" style="stroke:#181818;stroke-width:1;"/><polygon fill="#181818" points="475.21,199.3488,484.1508,203.4794,480.2095,199.4216,484.2673,195.4803,475.21,199.3488" style="stroke:#181818;stroke-width:1;"/><text fill="#000000" font-family="sans-serif" font-size="13" lengthAdjust="spacing" textLength="92.4917" x="747.69" y="261.7139">20. confirmation</text></g><!--link Gateway to BankService--><g class="link" data-entity-1="Gateway" data-entity-2="BankService" data-source-line="16" data-uid="lnk11" id="link_Gateway_BankService"><path codeLine="16" d="M490.47,325.3788 C518.6,334.0688 558.94,347.6288 592.69,363.2188 C623.01,377.2288 650.6945,393.6931 673.0945,407.9131" fill="none" id="Gateway-to-BankService" style="stroke:#181818;stroke-width:1;"/><polygon fill="#181818" points="678.16,411.1288,672.7055,402.9282,673.9387,408.449,668.4179,409.6822,678.16,411.1288" style="stroke:#181818;stroke-width:1;"/><text fill="#000000" font-family="sans-serif" font-size="13" lengthAdjust="spacing" textLength="101.1436" x="628.69" y="377.7139">3. verifyAccount()</text></g><!--link BankService to Gateway--><g class="link" data-entity-1="BankService" data-entity-2="Gateway" data-source-line="18" data-uid="lnk13" id="link_BankService_Gateway"><path codeLine="18" d="M725.42,411.0488 C738.33,396.9688 750.76,377.5088 738.69,363.2188 C707.25,326.0088 564.7877,317.8036 496.3677,315.9236" fill="none" id="BankService-to-Gateway" style="stroke:#181818;stroke-width:1;"/><polygon fill="#181818" points="490.37,315.7588,499.2567,320.0044,495.3681,315.8961,499.4765,312.0075,490.37,315.7588" style="stroke:#181818;stroke-width:1;"/><text fill="#000000" font-family="sans-serif" font-size="13" lengthAdjust="spacing" textLength="93.958" x="743.69" y="377.7139">5. 202 Accepted</text></g><!--link BankService to Database--><g class="link" data-entity-1="BankService" data-entity-2="Database" data-source-line="17" data-uid="lnk12" id="link_BankService_Database"><path codeLine="17" d="M696.29,449.6488 C681.4,477.4588 650.09,530.5688 611.69,565.2188 C571.06,601.8688 519.5331,627.818 482.4731,643.918" fill="none" id="BankService-to-Database" style="stroke:#181818;stroke-width:1;"/><polygon fill="#181818" points="476.97,646.3088,486.8185,646.3914,481.5559,644.3165,483.6309,639.0539,476.97,646.3088" style="stroke:#181818;stroke-width:1;"/><text fill="#000000" font-family="sans-serif" font-size="13" lengthAdjust="spacing" textLength="117.7808" x="645.69" y="551.7139">4. storeConnection()</text></g><!--link Gateway to TxnService--><g class="link" data-entity-1="Gateway" data-entity-2="TxnService" data-source-line="24" data-uid="lnk17" id="link_Gateway_TxnService"><path codeLine="24" d="M421.01,314.7388 C343.37,314.4688 159.32,318.6588 120.69,363.2188 C75.38,415.4888 185.8521,427.1101 266.4021,429.2401" fill="none" id="Gateway-to-TxnService" style="stroke:#181818;stroke-width:1;"/><polygon fill="#181818" points="272.4,429.3988,263.5089,425.1622,267.4017,429.2666,263.2974,433.1594,272.4,429.3988" style="stroke:#181818;stroke-width:1;"/><text fill="#000000" font-family="sans-serif" font-size="13" lengthAdjust="spacing" textLength="67.9199" x="121.69" y="377.7139">9. validate()</text></g><!--link TxnService to Gateway--><g class="link" data-entity-1="TxnService" data-entity-2="Gateway" data-source-line="28" data-uid="lnk21" id="link_TxnService_Gateway"><path codeLine="28" d="M351.25,411.0588 C359.24,396.9788 371.56,377.5288 385.69,363.2188 C396.87,351.8888 406.0197,344.8183 418.7097,336.6783" fill="none" id="TxnService-to-Gateway" style="stroke:#181818;stroke-width:1;"/><polygon fill="#181818" points="423.76,333.4388,414.0249,334.9312,419.5514,336.1383,418.3442,341.6649,423.76,333.4388" style="stroke:#181818;stroke-width:1;"/><text fill="#000000" font-family="sans-serif" font-size="13" lengthAdjust="spacing" textLength="93.2344" x="386.69" y="377.7139">13. 201 Created</text></g><!--link Gateway to TxnService--><g class="link" data-entity-1="Gateway" data-entity-2="TxnService" data-source-line="34" data-uid="lnk25" id="link_Gateway_TxnService"><path codeLine="34" d="M421.06,318.0988 C367.61,323.3388 268.97,336.4688 247.69,363.2188 C231.8,383.1888 249.7661,397.37 277.2361,408.88" fill="none" id="Gateway-to-TxnService-1" style="stroke:#181818;stroke-width:1;"/><polygon fill="#181818" points="282.77,411.1988,276.015,404.0315,278.1584,409.2665,272.9234,411.4099,282.77,411.1988" style="stroke:#181818;stroke-width:1;"/><text fill="#000000" font-family="sans-serif" font-size="13" lengthAdjust="spacing" textLength="114.8926" x="248.69" y="377.7139">17. createRequest()</text></g><!--link TxnService to Gateway--><g class="link" data-entity-1="TxnService" data-entity-2="Gateway" data-source-line="36" data-uid="lnk27" id="link_TxnService_Gateway"><path codeLine="36" d="M411.01,423.1788 C438.58,416.9788 467.72,404.8188 484.69,381.2188 C495.28,366.4888 488.3508,351.9277 477.0708,338.0277" fill="none" id="TxnService-to-Gateway-1" style="stroke:#181818;stroke-width:1;"/><polygon fill="#181818" points="473.29,333.3688,475.8552,342.8777,476.4406,337.2512,482.0671,337.8366,473.29,333.3688" style="stroke:#181818;stroke-width:1;"/><text fill="#000000" font-family="sans-serif" font-size="13" lengthAdjust="spacing" textLength="93.2344" x="490.69" y="377.7139">19. 201 Created</text></g><!--link TxnService to SecService--><g class="link" data-entity-1="TxnService" data-entity-2="SecService" data-source-line="25" data-uid="lnk18" id="link_TxnService_SecService"><path codeLine="25" d="M273.35,449.3388 C257.47,456.3887 241.94,466.0488 230.69,479.2188 C219.31,492.5288 215.9198,506.5313 214.6598,521.0213" fill="none" id="TxnService-to-SecService" style="stroke:#181818;stroke-width:1;"/><polygon fill="#181818" points="214.14,526.9988,218.9046,518.3791,214.5731,522.0175,210.9347,517.6861,214.14,526.9988" style="stroke:#181818;stroke-width:1;"/><text fill="#000000" font-family="sans-serif" font-size="13" lengthAdjust="spacing" textLength="83.8208" x="231.69" y="493.7139">10. authorize()</text></g><!--link SecService to Database--><g class="link" data-entity-1="SecService" data-entity-2="Database" data-source-line="26" data-uid="lnk19" id="link_SecService_Database"><path codeLine="26" d="M208.71,565.2987 C205.87,579.8988 204.75,600.0988 215.69,613.2188 C239.18,641.3988 339.1807,653.3906 396.5507,658.1706" fill="none" id="SecService-to-Database" style="stroke:#181818;stroke-width:1;"/><polygon fill="#181818" points="402.53,658.6688,393.8932,653.9353,397.5473,658.2536,393.229,661.9077,402.53,658.6688" style="stroke:#181818;stroke-width:1;"/><text fill="#000000" font-family="sans-serif" font-size="13" lengthAdjust="spacing" textLength="98.249" x="216.69" y="609.7139">11. checkLimits()</text></g><!--link TxnService to Database--><g class="link" data-entity-1="TxnService" data-entity-2="Database" data-source-line="27" data-uid="lnk20" id="link_TxnService_Database"><path codeLine="27" d="M342.83,449.3188 C345.05,475.7888 351.35,526.1788 368.69,565.2188 C381.98,595.1588 401.9024,620.2434 418.2724,638.4834" fill="none" id="TxnService-to-Database" style="stroke:#181818;stroke-width:1;"/><polygon fill="#181818" points="422.28,642.9488,419.2456,633.579,418.9404,639.2276,413.2917,638.9224,422.28,642.9488" style="stroke:#181818;stroke-width:1;"/><text fill="#000000" font-family="sans-serif" font-size="13" lengthAdjust="spacing" textLength="124.2744" x="369.69" y="551.7139">12. executeTransfer()</text></g><!--link TxnService to Database--><g class="link" data-entity-1="TxnService" data-entity-2="Database" data-source-line="35" data-uid="lnk26" id="link_TxnService_Database"><path codeLine="35" d="M397.65,449.2587 C433.51,464.0488 477.2,488.8988 498.69,527.2188 C520.94,566.9088 487.3367,612.2344 462.6367,638.5444" fill="none" id="TxnService-to-Database-1" style="stroke:#181818;stroke-width:1;"/><polygon fill="#181818" points="458.53,642.9188,467.6063,639.095,461.9522,639.2734,461.7738,633.6194,458.53,642.9188" style="stroke:#181818;stroke-width:1;"/><text fill="#000000" font-family="sans-serif" font-size="13" lengthAdjust="spacing" textLength="96.1099" x="506.69" y="551.7139">18. logRequest()</text></g><!--SRC=[XPD1Szem48Nl_XKxN0epjHCxJG8vT8QQII_fj5FWreiG2smnaYk94Fhhix9naO6a9sJjv_NRznP7ha3evBeen4mRuKWh695O6h61xexS2XuBlOEXCNfdUm_mI4eeIQA0YH7A2kdVi91hWxzKTvhVVeHfte-d-S0VqgpNYQ8FCC85AOHI64UIIg6S1M51ptwZT3QgVs5gqJJdOLasnw_2uKxicyTEy64OetacYHtVRVAY3e__q2z2hKajMvY_E-N6ABU6tBu5ykK9Dn9Ep8H5FnAF2Z4yaLfN7ICl7kBuirSE3v0cGSrV-T9X4Yvd2VpuFfx0rOphLmMJKLFqOA2HuPi4dj7GOZ-KKc-Lw_QY4F0lDCgO_fI0THn7hfN2ogKB_579RGBPTGRS6ak7yvQCUfIxm-T9rkjHefgpgRK9_NZ0Depv2hvfXVjJ7-wJi7XkHBynmWNhr19nZ9Nn0MiH1SsvpbC59KyU0_C1N2SWjcwb3VtrR50yCIpbhEGAvVg9DkJiUT-GvU3mXRV5ORM62pJd_76wzCQxcq9kK5msD_LnhVWVPb0YbQvsDStOr9_uPulMNVOrvTpQmBctwLrZhgd9TunDEIXPgJnqVTy6ZgtGopVHGCFWVmva79JKQa5cK-rNz0e0]--></g></svg>