<svg xmlns="http://www.w3.org/2000/svg" xmlns:xlink="http://www.w3.org/1999/xlink" contentStyleType="text/css" data-diagram-type="CLASS" height="570px" preserveAspectRatio="none" style="width:731px;height:570px;background:#FFFFFF;" version="1.1" viewBox="0 0 731 570" width="731px" zoomAndPan="magnify"><title>Collaboration Diagram: Contacts &amp; QR Payments</title><defs/><g><text fill="#000000" font-family="sans-serif" font-size="14" font-weight="bold" lengthAdjust="spacing" textLength="327.5029" x="195.1457" y="24.5332">Collaboration Diagram: Contacts &amp; QR Payments</text><text fill="#000000" font-family="sans-serif" font-size="14" font-weight="bold" lengthAdjust="spacing" textLength="272.3232" x="222.7356" y="42.1426">(UC6, UC11, UC13-14, UC20-21, UC25-27)</text><g class="entity" data-entity="User" data-source-line="5" data-uid="ent0002" id="entity_User"><rect fill="#F1F1F1" height="37.6094" rx="2.5" ry="2.5" style="stroke:#181818;stroke-width:0.5;" width="43.5586" x="373.29" y="63.2188"/><text fill="#000000" font-family="sans-serif" font-size="14" lengthAdjust="spacing" textLength="29.5586" x="380.29" y="79.752">User</text><line style="stroke:#181818;stroke-width:0.5;" x1="374.29" x2="415.8486" y1="84.8281" y2="84.8281"/></g><g class="entity" data-entity="App" data-source-line="6" data-uid="ent0003" id="entity_App"><rect fill="#F1F1F1" height="37.6094" rx="2.5" ry="2.5" style="stroke:#181818;stroke-width:0.5;" width="38.9102" x="375.79" y="179.2188"/><text fill="#000000" font-family="sans-serif" font-size="14" lengthAdjust="spacing" textLength="24.9102" x="382.79" y="195.752">App</text><line style="stroke:#181818;stroke-width:0.5;" x1="376.79" x2="413.7002" y1="200.8281" y2="200.8281"/></g><g class="entity" data-entity="Gateway" data-source-line="7" data-uid="ent0004" id="entity_Gateway"><rect fill="#F1F1F1" height="37.6094" rx="2.5" ry="2.5" style="stroke:#181818;stroke-width:0.5;" width="69.248" x="242.79" y="295.2188"/><text fill="#000000" font-family="sans-serif" font-size="14" lengthAdjust="spacing" textLength="55.248" x="249.79" y="311.752">Gateway</text><line style="stroke:#181818;stroke-width:0.5;" x1="243.79" x2="311.038" y1="316.8281" y2="316.8281"/></g><g class="entity" data-entity="ContactService" data-source-line="8" data-uid="ent0005" id="entity_ContactService"><rect fill="#F1F1F1" height="37.6094" rx="2.5" ry="2.5" style="stroke:#181818;stroke-width:0.5;" width="112.8203" x="158.79" y="411.2188"/><text fill="#000000" font-family="sans-serif" font-size="14" lengthAdjust="spacing" textLength="98.8203" x="165.79" y="427.752">Contact Service</text><line style="stroke:#181818;stroke-width:0.5;" x1="159.79" x2="270.6103" y1="432.8281" y2="432.8281"/></g><g class="entity" data-entity="QRService" data-source-line="9" data-uid="ent0006" id="entity_QRService"><rect fill="#F1F1F1" height="37.6094" rx="2.5" ry="2.5" style="stroke:#181818;stroke-width:0.5;" width="85.5723" x="403.29" y="411.2188"/><text fill="#000000" font-family="sans-serif" font-size="14" lengthAdjust="spacing" textLength="71.5723" x="410.29" y="427.752">QR Service</text><line style="stroke:#181818;stroke-width:0.5;" x1="404.29" x2="487.8623" y1="432.8281" y2="432.8281"/></g><g class="entity" data-entity="Database" data-source-line="10" data-uid="ent0007" id="entity_Database"><rect fill="#F1F1F1" height="37.6094" rx="2.5" ry="2.5" style="stroke:#181818;stroke-width:0.5;" width="73.9307" x="271.29" y="527.2188"/><text fill="#000000" font-family="sans-serif" font-size="14" lengthAdjust="spacing" textLength="59.9307" x="278.29" y="543.752">Database</text><line style="stroke:#181818;stroke-width:0.5;" x1="272.29" x2="344.2207" y1="548.8281" y2="548.8281"/></g><!--link User to App--><g class="link" data-entity-1="User" data-entity-2="App" data-source-line="13" data-uid="lnk8" id="link_User_App"><path codeLine="13" d="M373.13,92.1288 C357.18,99.8687 336.86,112.7387 327.29,131.2188 C313.97,156.9287 345.6223,176.0303 370.1423,186.9903" fill="none" id="User-to-App" style="stroke:#181818;stroke-width:1;"/><polygon fill="#181818" points="375.62,189.4388,369.0357,182.1143,371.0553,187.3984,365.7712,189.4179,375.62,189.4388" style="stroke:#181818;stroke-width:1;"/><text fill="#000000" font-family="sans-serif" font-size="13" lengthAdjust="spacing" textLength="88.1563" x="328.29" y="145.7139">1. Add Favorite</text></g><!--link User to App--><g class="link" data-entity-1="User" data-entity-2="App" data-source-line="21" data-uid="lnk14" id="link_User_App"><path codeLine="21" d="M407.96,101.4688 C413.19,110.0788 418.64,120.7487 421.29,131.2188 C425.53,147.9287 420.5652,161.0429 412.2952,174.0729" fill="none" id="User-to-App-1" style="stroke:#181818;stroke-width:1;"/><polygon fill="#181818" points="409.08,179.1388,417.28,173.6835,411.7593,174.9172,410.5256,169.3966,409.08,179.1388" style="stroke:#181818;stroke-width:1;"/><text fill="#000000" font-family="sans-serif" font-size="13" lengthAdjust="spacing" textLength="67.1963" x="424.29" y="145.7139">7. Scan QR</text></g><!--link App to Gateway--><g class="link" data-entity-1="App" data-entity-2="Gateway" data-source-line="14" data-uid="lnk9" id="link_App_Gateway"><path codeLine="14" d="M375.59,200.1787 C300.55,204.0487 35.69,219.5788 11.29,247.2188 C6,253.2188 6.16,259.0788 11.29,265.2188 C40.4,300.0588 171.4848,309.4087 236.6748,312.0187" fill="none" id="App-to-Gateway" style="stroke:#181818;stroke-width:1;"/><polygon fill="#181818" points="242.67,312.2587,233.8372,307.9019,237.674,312.0587,233.5172,315.8955,242.67,312.2587" style="stroke:#181818;stroke-width:1;"/><text fill="#000000" font-family="sans-serif" font-size="13" lengthAdjust="spacing" textLength="106.2026" x="12.29" y="261.7139">2. POST /favorites</text></g><!--link Gateway to App--><g class="link" data-entity-1="Gateway" data-entity-2="App" data-source-line="18" data-uid="lnk13" id="link_Gateway_App"><path codeLine="18" d="M292.09,295.1488 C303.61,281.4688 320.28,262.4988 336.29,247.2188 C348.8,235.2788 359.2174,226.6641 371.0374,217.5041" fill="none" id="Gateway-to-App" style="stroke:#181818;stroke-width:1;"/><polygon fill="#181818" points="375.78,213.8288,366.2159,216.18,371.8278,216.8915,371.1163,222.5034,375.78,213.8288" style="stroke:#181818;stroke-width:1;"/><text fill="#000000" font-family="sans-serif" font-size="13" lengthAdjust="spacing" textLength="70.8271" x="337.29" y="261.7139">6. update UI</text></g><!--link App to Gateway--><g class="link" data-entity-1="App" data-entity-2="Gateway" data-source-line="24" data-uid="lnk17" id="link_App_Gateway"><path codeLine="24" d="M375.48,200.4488 C326.07,203.9588 199.55,215.8888 174.29,247.2188 C151.63,275.3288 198.694,293.6574 236.764,303.8474" fill="none" id="App-to-Gateway-1" style="stroke:#181818;stroke-width:1;"/><polygon fill="#181818" points="242.56,305.3988,234.9003,299.2077,237.73,304.1059,232.8318,306.9357,242.56,305.3988" style="stroke:#181818;stroke-width:1;"/><text fill="#000000" font-family="sans-serif" font-size="13" lengthAdjust="spacing" textLength="135.8335" x="175.29" y="261.7139">10. POST /payments/qr</text></g><!--link Gateway to App--><g class="link" data-entity-1="Gateway" data-entity-2="App" data-source-line="28" data-uid="lnk21" id="link_Gateway_App"><path codeLine="28" d="M311.83,311.5888 C343.81,308.0188 389.7,297.2288 412.29,265.2188 C422.25,251.1088 418.2168,236.8731 410.4268,222.7431" fill="none" id="Gateway-to-App-1" style="stroke:#181818;stroke-width:1;"/><polygon fill="#181818" points="407.53,217.4887,408.3723,227.3015,409.944,221.8674,415.3781,223.4391,407.53,217.4887" style="stroke:#181818;stroke-width:1;"/><text fill="#000000" font-family="sans-serif" font-size="13" lengthAdjust="spacing" textLength="60.7026" x="418.29" y="261.7139">14. receipt</text></g><!--link Gateway to ContactService--><g class="link" data-entity-1="Gateway" data-entity-2="ContactService" data-source-line="15" data-uid="lnk10" id="link_Gateway_ContactService"><path codeLine="15" d="M242.63,318.5388 C191.37,324.2587 99.24,337.8488 79.29,363.2188 C53.82,395.6088 104.8364,412.0176 152.6764,420.6976" fill="none" id="Gateway-to-ContactService" style="stroke:#181818;stroke-width:1;"/><polygon fill="#181818" points="158.58,421.7688,150.4387,416.2263,153.6603,420.8761,149.0105,424.0978,158.58,421.7688" style="stroke:#181818;stroke-width:1;"/><text fill="#000000" font-family="sans-serif" font-size="13" lengthAdjust="spacing" textLength="91.7617" x="80.29" y="377.7139">3. addFavorite()</text></g><!--link ContactService to Gateway--><g class="link" data-entity-1="ContactService" data-entity-2="Gateway" data-source-line="17" data-uid="lnk12" id="link_ContactService_Gateway"><path codeLine="17" d="M209.86,411.1287 C206.75,397.2688 204.8,378.0688 212.29,363.2188 C218.86,350.1988 225.7858,343.0932 237.6758,335.3832" fill="none" id="ContactService-to-Gateway" style="stroke:#181818;stroke-width:1;"/><polygon fill="#181818" points="242.71,332.1188,232.9824,333.6592,238.5148,334.8391,237.3349,340.3715,242.71,332.1188" style="stroke:#181818;stroke-width:1;"/><text fill="#000000" font-family="sans-serif" font-size="13" lengthAdjust="spacing" textLength="86.0044" x="213.29" y="377.7139">5. 201 Created</text></g><!--link ContactService to Database--><g class="link" data-entity-1="ContactService" data-entity-2="Database" data-source-line="16" data-uid="lnk11" id="link_ContactService_Database"><path codeLine="16" d="M230.03,449.2788 C247.34,470.4988 272.1071,500.8697 289.5171,522.2097" fill="none" id="ContactService-to-Database" style="stroke:#181818;stroke-width:1;"/><polygon fill="#181818" points="293.31,526.8588,290.72,517.3565,290.1493,522.9845,284.5213,522.4137,293.31,526.8588" style="stroke:#181818;stroke-width:1;"/><text fill="#000000" font-family="sans-serif" font-size="13" lengthAdjust="spacing" textLength="96.8145" x="269.29" y="493.7139">4. storeContact()</text></g><!--link App to QRService--><g class="link" data-entity-1="App" data-entity-2="QRService" data-source-line="22" data-uid="lnk15" id="link_App_QRService"><path codeLine="22" d="M414.83,203.5388 C436.46,209.4388 470.5,222.2588 487.29,247.2188 C520.65,296.7988 522.26,326.4788 498.29,381.2188 C493.12,393.0388 488.0721,399.4252 478.4521,407.3452" fill="none" id="App-to-QRService" style="stroke:#181818;stroke-width:1;"/><polygon fill="#181818" points="473.82,411.1588,483.3106,408.5265,477.6801,407.9808,478.2258,402.3503,473.82,411.1588" style="stroke:#181818;stroke-width:1;"/><text fill="#000000" font-family="sans-serif" font-size="13" lengthAdjust="spacing" textLength="85.2617" x="516.29" y="319.7139">8. decodeQR()</text></g><!--link QRService to App--><g class="link" data-entity-1="QRService" data-entity-2="App" data-source-line="23" data-uid="lnk16" id="link_QRService_App"><path codeLine="23" d="M489.61,415.9588 C548.98,395.3588 644.56,352.0488 610.29,295.2188 C567.85,224.8588 465.4735,206.4694 420.8835,201.5294" fill="none" id="QRService-to-App" style="stroke:#181818;stroke-width:1;"/><polygon fill="#181818" points="414.92,200.8687,423.4248,205.8354,419.8896,201.4193,424.3057,197.8841,414.92,200.8687" style="stroke:#181818;stroke-width:1;"/><text fill="#000000" font-family="sans-serif" font-size="13" lengthAdjust="spacing" textLength="105.5044" x="618.29" y="319.7139">9. payment details</text></g><!--link Gateway to QRService--><g class="link" data-entity-1="Gateway" data-entity-2="QRService" data-source-line="25" data-uid="lnk18" id="link_Gateway_QRService"><path codeLine="25" d="M291.26,333.3088 C303.1,347.7188 321.17,367.6588 340.29,381.2188 C359.49,394.8388 377.5964,403.7523 397.7064,411.8723" fill="none" id="Gateway-to-QRService" style="stroke:#181818;stroke-width:1;"/><polygon fill="#181818" points="403.27,414.1188,396.4223,407.04,398.6337,412.2467,393.427,414.4581,403.27,414.1188" style="stroke:#181818;stroke-width:1;"/><text fill="#000000" font-family="sans-serif" font-size="13" lengthAdjust="spacing" textLength="61.4009" x="341.29" y="377.7139">11. verify()</text></g><!--link QRService to Gateway--><g class="link" data-entity-1="QRService" data-entity-2="Gateway" data-source-line="27" data-uid="lnk20" id="link_QRService_Gateway"><path codeLine="27" d="M439.53,410.9288 C433.23,396.1988 422.52,375.9288 407.29,363.2188 C379.77,340.2488 346.0902,329.0913 317.8602,322.6613" fill="none" id="QRService-to-Gateway" style="stroke:#181818;stroke-width:1;"/><polygon fill="#181818" points="312.01,321.3288,319.8969,327.2276,316.8851,322.4392,321.6736,319.4274,312.01,321.3288" style="stroke:#181818;stroke-width:1;"/><text fill="#000000" font-family="sans-serif" font-size="13" lengthAdjust="spacing" textLength="65.7681" x="424.29" y="377.7139">13. 201 OK</text></g><!--link QRService to Database--><g class="link" data-entity-1="QRService" data-entity-2="Database" data-source-line="26" data-uid="lnk19" id="link_QRService_Database"><path codeLine="26" d="M427.56,449.4688 C413.33,463.0788 393.06,481.8688 374.29,497.2188 C361.57,507.6188 351.7136,514.9771 339.3936,523.7171" fill="none" id="QRService-to-Database" style="stroke:#181818;stroke-width:1;"/><polygon fill="#181818" points="334.5,527.1888,344.1549,525.2437,338.578,524.2957,339.5261,518.7189,334.5,527.1888" style="stroke:#181818;stroke-width:1;"/><text fill="#000000" font-family="sans-serif" font-size="13" lengthAdjust="spacing" textLength="98.9917" x="396.29" y="493.7139">12. logPayment()</text></g><!--SRC=[RP5DRy8m38Rl_HLM3nj8Qo3bQ-Cm2HLjcdOO7-jjbz2wA5DfkYHZujyleGsqmALoxIVswzUQwnp1ZqIUiusGJ7DHm9ophMIxAKIYq2pH2kvWkO85E-omqEghwCJH-07YYDBZTn3GeGt2VX0UC-4e22TTt_FkOOuPBn0IiIj5OLzxOlEDYOPOeNJnh2nT-Ceq_h63-_Lh2R16kUS9-i2KarMdJgYHsAIMgmjWpZJRC8LMLgqQ0fYbARomlP1Se-liMN4G1CzM6Ko1aXRcsQojrc8D4H9OVAm_ePVLZF9SqO9jnOOV461fwXfskju5OHyvlGOV4b1QIAofs_nPpOX0sASGIJIfjAMaMcXCuBTCJHhYjygES6nEPknO9womnyw4T0U_T6D277KoukIrAJyII34HAIvNHkUvScxmHA2iMXjICvwh6uxIlhEqPbNlHxPMQGwbvaHxb3mxNCris4ZDcNAnhVUw8Xl31vM37-ytpAFc6X8JvANs_W40]--></g></svg>