<svg xmlns="http://www.w3.org/2000/svg" xmlns:xlink="http://www.w3.org/1999/xlink" contentStyleType="text/css" data-diagram-type="SEQUENCE" height="934px" preserveAspectRatio="none" style="width:1100px;height:934px;background:#FFFFFF;" version="1.1" viewBox="0 0 1100 934" width="1100px" zoomAndPan="magnify"><title>UC-10: Choose Transfer Method</title><defs/><g><text fill="#000000" font-family="sans-serif" font-size="14" font-weight="bold" lengthAdjust="spacing" textLength="213.9102" x="444.2939" y="29.5332">UC-10: Choose Transfer Method</text><g><title>Registered User</title><rect fill="#FFFFFF" height="674.2188" style="stroke:#181818;stroke-width:1;" width="10" x="68.5757" y="153.5703"/></g><g><title>FalsoPay App</title><rect fill="#FFFFFF" height="674.2188" style="stroke:#181818;stroke-width:1;" width="10" x="391.6162" y="153.5703"/></g><g><title>API Gateway</title><rect fill="#FFFFFF" height="195.1094" style="stroke:#181818;stroke-width:1;" width="10" x="623.6714" y="183.9219"/></g><g><title>API Gateway</title><rect fill="#FFFFFF" height="327.3516" style="stroke:#181818;stroke-width:1;" width="10" x="623.6714" y="470.0859"/></g><g><title>Transaction Service</title><rect fill="#FFFFFF" height="134.4063" style="stroke:#181818;stroke-width:1;" width="10" x="829.7075" y="214.2734"/></g><g><title>Transaction Service</title><rect fill="#FFFFFF" height="266.6484" style="stroke:#181818;stroke-width:1;" width="10" x="829.7075" y="500.4375"/></g><g><title>Database</title><rect fill="#FFFFFF" height="30.3516" style="stroke:#181818;stroke-width:1;" width="10" x="1041.5327" y="287.9766"/></g><g><title>Database</title><rect fill="#FFFFFF" height="30.3516" style="stroke:#181818;stroke-width:1;" width="10" x="1041.5327" y="663.0313"/></g><rect fill="none" height="320.3516" style="stroke:#000000;stroke-width:1.5;" width="1083.498" x="10" y="515.4375"/><g><title>Registered User</title><rect fill="#000000" fill-opacity="0.00000" height="731.5703" width="8" x="69.5757" y="121.2188"/><line style="stroke:#181818;stroke-width:0.5;stroke-dasharray:5.0,5.0;" x1="73" x2="73" y1="121.2188" y2="852.7891"/></g><g><title>FalsoPay App</title><rect fill="#000000" fill-opacity="0.00000" height="731.5703" width="8" x="392.6162" y="121.2188"/><line style="stroke:#181818;stroke-width:0.5;stroke-dasharray:5.0,5.0;" x1="396.0371" x2="396.0371" y1="121.2188" y2="852.7891"/></g><g><title>API Gateway</title><rect fill="#000000" fill-opacity="0.00000" height="731.5703" width="8" x="624.6714" y="121.2188"/><line style="stroke:#181818;stroke-width:0.5;stroke-dasharray:5.0,5.0;" x1="627.8198" x2="627.8198" y1="121.2188" y2="852.7891"/></g><g><title>Transaction Service</title><rect fill="#000000" fill-opacity="0.00000" height="731.5703" width="8" x="830.7075" y="121.2188"/><line style="stroke:#181818;stroke-width:0.5;stroke-dasharray:5.0,5.0;" x1="833.8491" x2="833.8491" y1="121.2188" y2="852.7891"/></g><g><title>Database</title><rect fill="#000000" fill-opacity="0.00000" height="731.5703" width="8" x="1042.5327" y="121.2188"/><line style="stroke:#181818;stroke-width:0.5;stroke-dasharray:5.0,5.0;" x1="1045.5674" x2="1045.5674" y1="121.2188" y2="852.7891"/></g><g class="participant participant-head" data-participant="User"><text fill="#000000" font-family="sans-serif" font-size="14" lengthAdjust="spacing" textLength="101.1514" x="20" y="118.1426">Registered User</text><ellipse cx="73.5757" cy="52.1094" fill="#E2E2F0" rx="8" ry="8" style="stroke:#181818;stroke-width:0.5;"/><path d="M73.5757,60.1094 L73.5757,87.1094 M60.5757,68.1094 L86.5757,68.1094 M73.5757,87.1094 L60.5757,102.1094 M73.5757,87.1094 L86.5757,102.1094" fill="none" style="stroke:#181818;stroke-width:0.5;"/></g><g class="participant participant-tail" data-participant="User"><text fill="#000000" font-family="sans-serif" font-size="14" lengthAdjust="spacing" textLength="101.1514" x="20" y="866.3223">Registered User</text><ellipse cx="73.5757" cy="877.8984" fill="#E2E2F0" rx="8" ry="8" style="stroke:#181818;stroke-width:0.5;"/><path d="M73.5757,885.8984 L73.5757,912.8984 M60.5757,893.8984 L86.5757,893.8984 M73.5757,912.8984 L60.5757,927.8984 M73.5757,912.8984 L86.5757,927.8984" fill="none" style="stroke:#181818;stroke-width:0.5;"/></g><g class="participant participant-head" data-participant="App"><rect fill="#E2E2F0" height="31.6094" rx="2.5" ry="2.5" style="stroke:#181818;stroke-width:0.5;" width="101.1582" x="346.0371" y="88.6094"/><text fill="#000000" font-family="sans-serif" font-size="14" lengthAdjust="spacing" textLength="87.1582" x="353.0371" y="110.1426">FalsoPay App</text></g><g class="participant participant-tail" data-participant="App"><rect fill="#E2E2F0" height="31.6094" rx="2.5" ry="2.5" style="stroke:#181818;stroke-width:0.5;" width="101.1582" x="346.0371" y="851.7891"/><text fill="#000000" font-family="sans-serif" font-size="14" lengthAdjust="spacing" textLength="87.1582" x="353.0371" y="873.3223">FalsoPay App</text></g><g class="participant participant-head" data-participant="Gateway"><rect fill="#E2E2F0" height="31.6094" rx="2.5" ry="2.5" style="stroke:#181818;stroke-width:0.5;" width="95.7031" x="580.8198" y="88.6094"/><text fill="#000000" font-family="sans-serif" font-size="14" lengthAdjust="spacing" textLength="81.7031" x="587.8198" y="110.1426">API Gateway</text></g><g class="participant participant-tail" data-participant="Gateway"><rect fill="#E2E2F0" height="31.6094" rx="2.5" ry="2.5" style="stroke:#181818;stroke-width:0.5;" width="95.7031" x="580.8198" y="851.7891"/><text fill="#000000" font-family="sans-serif" font-size="14" lengthAdjust="spacing" textLength="81.7031" x="587.8198" y="873.3223">API Gateway</text></g><g class="participant participant-head" data-participant="TransService"><rect fill="#E2E2F0" height="31.6094" rx="2.5" ry="2.5" style="stroke:#181818;stroke-width:0.5;" width="137.7168" x="765.8491" y="88.6094"/><text fill="#000000" font-family="sans-serif" font-size="14" lengthAdjust="spacing" textLength="123.7168" x="772.8491" y="110.1426">Transaction Service</text></g><g class="participant participant-tail" data-participant="TransService"><rect fill="#E2E2F0" height="31.6094" rx="2.5" ry="2.5" style="stroke:#181818;stroke-width:0.5;" width="137.7168" x="765.8491" y="851.7891"/><text fill="#000000" font-family="sans-serif" font-size="14" lengthAdjust="spacing" textLength="123.7168" x="772.8491" y="873.3223">Transaction Service</text></g><g class="participant participant-head" data-participant="DB"><rect fill="#E2E2F0" height="31.6094" rx="2.5" ry="2.5" style="stroke:#181818;stroke-width:0.5;" width="73.9307" x="1009.5674" y="88.6094"/><text fill="#000000" font-family="sans-serif" font-size="14" lengthAdjust="spacing" textLength="59.9307" x="1016.5674" y="110.1426">Database</text></g><g class="participant participant-tail" data-participant="DB"><rect fill="#E2E2F0" height="31.6094" rx="2.5" ry="2.5" style="stroke:#181818;stroke-width:0.5;" width="73.9307" x="1009.5674" y="851.7891"/><text fill="#000000" font-family="sans-serif" font-size="14" lengthAdjust="spacing" textLength="59.9307" x="1016.5674" y="873.3223">Database</text></g><g><title>Registered User</title><rect fill="#FFFFFF" height="674.2188" style="stroke:#181818;stroke-width:1;" width="10" x="68.5757" y="153.5703"/></g><g><title>FalsoPay App</title><rect fill="#FFFFFF" height="674.2188" style="stroke:#181818;stroke-width:1;" width="10" x="391.6162" y="153.5703"/></g><g><title>API Gateway</title><rect fill="#FFFFFF" height="195.1094" style="stroke:#181818;stroke-width:1;" width="10" x="623.6714" y="183.9219"/></g><g><title>API Gateway</title><rect fill="#FFFFFF" height="327.3516" style="stroke:#181818;stroke-width:1;" width="10" x="623.6714" y="470.0859"/></g><g><title>Transaction Service</title><rect fill="#FFFFFF" height="134.4063" style="stroke:#181818;stroke-width:1;" width="10" x="829.7075" y="214.2734"/></g><g><title>Transaction Service</title><rect fill="#FFFFFF" height="266.6484" style="stroke:#181818;stroke-width:1;" width="10" x="829.7075" y="500.4375"/></g><g><title>Database</title><rect fill="#FFFFFF" height="30.3516" style="stroke:#181818;stroke-width:1;" width="10" x="1041.5327" y="287.9766"/></g><g><title>Database</title><rect fill="#FFFFFF" height="30.3516" style="stroke:#181818;stroke-width:1;" width="10" x="1041.5327" y="663.0313"/></g><g class="message" data-participant-1="User" data-participant-2="App"><polygon fill="#181818" points="379.6162,149.5703,389.6162,153.5703,379.6162,157.5703,383.6162,153.5703" style="stroke:#181818;stroke-width:1;"/><line style="stroke:#181818;stroke-width:1;" x1="78.5757" x2="385.6162" y1="153.5703" y2="153.5703"/><text fill="#000000" font-family="sans-serif" font-size="13" lengthAdjust="spacing" textLength="166.207" x="85.5757" y="148.7139">In process of sending money</text></g><g class="message" data-participant-1="App" data-participant-2="Gateway"><polygon fill="#181818" points="611.6714,179.9219,621.6714,183.9219,611.6714,187.9219,615.6714,183.9219" style="stroke:#181818;stroke-width:1;"/><line style="stroke:#181818;stroke-width:1;" x1="401.6162" x2="617.6714" y1="183.9219" y2="183.9219"/><text fill="#000000" font-family="sans-serif" font-size="13" lengthAdjust="spacing" textLength="178.4707" x="408.6162" y="179.0654">GET /api/transactions/methods</text></g><g class="message" data-participant-1="Gateway" data-participant-2="TransService"><polygon fill="#181818" points="817.7075,210.2734,827.7075,214.2734,817.7075,218.2734,821.7075,214.2734" style="stroke:#181818;stroke-width:1;"/><line style="stroke:#181818;stroke-width:1;" x1="633.6714" x2="823.7075" y1="214.2734" y2="214.2734"/><text fill="#000000" font-family="sans-serif" font-size="13" lengthAdjust="spacing" textLength="177.0361" x="640.6714" y="209.417">Get available transfer methods</text></g><g class="message" data-participant-1="TransService" data-participant-2="TransService"><line style="stroke:#181818;stroke-width:1;" x1="839.7075" x2="881.7075" y1="244.625" y2="244.625"/><line style="stroke:#181818;stroke-width:1;" x1="881.7075" x2="881.7075" y1="244.625" y2="257.625"/><line style="stroke:#181818;stroke-width:1;" x1="840.7075" x2="881.7075" y1="257.625" y2="257.625"/><polygon fill="#181818" points="850.7075,253.625,840.7075,257.625,850.7075,261.625,846.7075,257.625" style="stroke:#181818;stroke-width:1;"/><text fill="#000000" font-family="sans-serif" font-size="13" lengthAdjust="spacing" textLength="168.3652" x="846.7075" y="239.7686">Determine available methods</text></g><g class="message" data-participant-1="TransService" data-participant-2="DB"><polygon fill="#181818" points="1029.5327,283.9766,1039.5327,287.9766,1029.5327,291.9766,1033.5327,287.9766" style="stroke:#181818;stroke-width:1;"/><line style="stroke:#181818;stroke-width:1;" x1="839.7075" x2="1035.5327" y1="287.9766" y2="287.9766"/><text fill="#000000" font-family="sans-serif" font-size="13" lengthAdjust="spacing" textLength="122.1162" x="846.7075" y="283.1201">Get user preferences</text></g><g class="message" data-participant-1="DB" data-participant-2="TransService"><polygon fill="#181818" points="850.7075,314.3281,840.7075,318.3281,850.7075,322.3281,846.7075,318.3281" style="stroke:#181818;stroke-width:1;"/><line style="stroke:#181818;stroke-width:1;stroke-dasharray:2.0,2.0;" x1="844.7075" x2="1045.5327" y1="318.3281" y2="318.3281"/><text fill="#000000" font-family="sans-serif" font-size="13" lengthAdjust="spacing" textLength="99.709" x="856.7075" y="313.4717">User preferences</text></g><g class="message" data-participant-1="TransService" data-participant-2="Gateway"><polygon fill="#181818" points="644.6714,344.6797,634.6714,348.6797,644.6714,352.6797,640.6714,348.6797" style="stroke:#181818;stroke-width:1;"/><line style="stroke:#181818;stroke-width:1;stroke-dasharray:2.0,2.0;" x1="638.6714" x2="833.7075" y1="348.6797" y2="348.6797"/><text fill="#000000" font-family="sans-serif" font-size="13" lengthAdjust="spacing" textLength="153.9116" x="650.6714" y="343.8232">Available transfer methods</text></g><g class="message" data-participant-1="Gateway" data-participant-2="App"><polygon fill="#181818" points="412.6162,375.0313,402.6162,379.0313,412.6162,383.0313,408.6162,379.0313" style="stroke:#181818;stroke-width:1;"/><line style="stroke:#181818;stroke-width:1;stroke-dasharray:2.0,2.0;" x1="406.6162" x2="627.6714" y1="379.0313" y2="379.0313"/><text fill="#000000" font-family="sans-serif" font-size="13" lengthAdjust="spacing" textLength="171.9707" x="418.6162" y="374.1748">200 OK with transfer methods</text></g><g class="message" data-participant-1="App" data-participant-2="User"><polygon fill="#181818" points="89.5757,405.3828,79.5757,409.3828,89.5757,413.3828,85.5757,409.3828" style="stroke:#181818;stroke-width:1;"/><line style="stroke:#181818;stroke-width:1;stroke-dasharray:2.0,2.0;" x1="83.5757" x2="390.6162" y1="409.3828" y2="409.3828"/><text fill="#000000" font-family="sans-serif" font-size="13" lengthAdjust="spacing" textLength="182.8125" x="95.5757" y="404.5264">Display transfer method options</text></g><g class="message" data-participant-1="User" data-participant-2="App"><polygon fill="#181818" points="379.6162,435.7344,389.6162,439.7344,379.6162,443.7344,383.6162,439.7344" style="stroke:#181818;stroke-width:1;"/><line style="stroke:#181818;stroke-width:1;stroke-dasharray:2.0,2.0;" x1="78.5757" x2="385.6162" y1="439.7344" y2="439.7344"/><text fill="#000000" font-family="sans-serif" font-size="13" lengthAdjust="spacing" textLength="129.3525" x="85.5757" y="434.8779">Select desired method</text></g><g class="message" data-participant-1="App" data-participant-2="Gateway"><polygon fill="#181818" points="611.6714,466.0859,621.6714,470.0859,611.6714,474.0859,615.6714,470.0859" style="stroke:#181818;stroke-width:1;"/><line style="stroke:#181818;stroke-width:1;" x1="401.6162" x2="617.6714" y1="470.0859" y2="470.0859"/><text fill="#000000" font-family="sans-serif" font-size="13" lengthAdjust="spacing" textLength="203.0552" x="408.6162" y="465.2295">POST /api/transactions/{id}/method</text></g><g class="message" data-participant-1="Gateway" data-participant-2="TransService"><polygon fill="#181818" points="817.7075,496.4375,827.7075,500.4375,817.7075,504.4375,821.7075,500.4375" style="stroke:#181818;stroke-width:1;"/><line style="stroke:#181818;stroke-width:1;" x1="633.6714" x2="823.7075" y1="500.4375" y2="500.4375"/><text fill="#000000" font-family="sans-serif" font-size="13" lengthAdjust="spacing" textLength="114.1689" x="640.6714" y="495.5811">Set transfer method</text></g><path d="M10,515.4375 L70.1709,515.4375 L70.1709,523.7891 L60.1709,533.7891 L10,533.7891 L10,515.4375" fill="#EEEEEE" style="stroke:#000000;stroke-width:1.5;"/><rect fill="none" height="320.3516" style="stroke:#000000;stroke-width:1.5;" width="1083.498" x="10" y="515.4375"/><text fill="#000000" font-family="sans-serif" font-size="13" font-weight="bold" lengthAdjust="spacing" textLength="15.1709" x="25" y="529.9326">alt</text><text fill="#000000" font-family="sans-serif" font-size="11" font-weight="bold" lengthAdjust="spacing" textLength="158.3184" x="85.1709" y="528.8564">[Selected method unavailable]</text><g class="message" data-participant-1="TransService" data-participant-2="Gateway"><polygon fill="#181818" points="644.6714,552.1406,634.6714,556.1406,644.6714,560.1406,640.6714,556.1406" style="stroke:#181818;stroke-width:1;"/><line style="stroke:#181818;stroke-width:1;stroke-dasharray:2.0,2.0;" x1="638.6714" x2="828.7075" y1="556.1406" y2="556.1406"/><text fill="#000000" font-family="sans-serif" font-size="13" lengthAdjust="spacing" textLength="100.4644" x="650.6714" y="551.2842">400 Bad Request</text></g><g class="message" data-participant-1="Gateway" data-participant-2="App"><polygon fill="#181818" points="412.6162,582.4922,402.6162,586.4922,412.6162,590.4922,408.6162,586.4922" style="stroke:#181818;stroke-width:1;"/><line style="stroke:#181818;stroke-width:1;stroke-dasharray:2.0,2.0;" x1="406.6162" x2="622.6714" y1="586.4922" y2="586.4922"/><text fill="#000000" font-family="sans-serif" font-size="13" lengthAdjust="spacing" textLength="100.4644" x="418.6162" y="581.6357">400 Bad Request</text></g><g class="message" data-participant-1="App" data-participant-2="User"><polygon fill="#181818" points="89.5757,612.8438,79.5757,616.8438,89.5757,620.8438,85.5757,616.8438" style="stroke:#181818;stroke-width:1;"/><line style="stroke:#181818;stroke-width:1;stroke-dasharray:2.0,2.0;" x1="83.5757" x2="390.6162" y1="616.8438" y2="616.8438"/><text fill="#000000" font-family="sans-serif" font-size="13" lengthAdjust="spacing" textLength="170.5044" x="95.5757" y="611.9873">Display error with alternatives</text></g><line style="stroke:#000000;stroke-width:1;stroke-dasharray:2.0,2.0;" x1="10" x2="1093.498" y1="625.8438" y2="625.8438"/><text fill="#000000" font-family="sans-serif" font-size="11" font-weight="bold" lengthAdjust="spacing" textLength="51.9707" x="15" y="637.2627">[Success]</text><g class="message" data-participant-1="TransService" data-participant-2="DB"><polygon fill="#181818" points="1029.5327,659.0313,1039.5327,663.0313,1029.5327,667.0313,1033.5327,663.0313" style="stroke:#181818;stroke-width:1;"/><line style="stroke:#181818;stroke-width:1;" x1="839.7075" x2="1035.5327" y1="663.0313" y2="663.0313"/><text fill="#000000" font-family="sans-serif" font-size="13" lengthAdjust="spacing" textLength="182.8252" x="846.7075" y="658.1748">Update transaction with method</text></g><g class="message" data-participant-1="DB" data-participant-2="TransService"><polygon fill="#181818" points="850.7075,689.3828,840.7075,693.3828,850.7075,697.3828,846.7075,693.3828" style="stroke:#181818;stroke-width:1;"/><line style="stroke:#181818;stroke-width:1;stroke-dasharray:2.0,2.0;" x1="844.7075" x2="1045.5327" y1="693.3828" y2="693.3828"/><text fill="#000000" font-family="sans-serif" font-size="13" lengthAdjust="spacing" textLength="49.1309" x="856.7075" y="688.5264">Success</text></g><g class="message" data-participant-1="TransService" data-participant-2="TransService"><line style="stroke:#181818;stroke-width:1;" x1="839.7075" x2="881.7075" y1="723.7344" y2="723.7344"/><line style="stroke:#181818;stroke-width:1;" x1="881.7075" x2="881.7075" y1="723.7344" y2="736.7344"/><line style="stroke:#181818;stroke-width:1;" x1="840.7075" x2="881.7075" y1="736.7344" y2="736.7344"/><polygon fill="#181818" points="850.7075,732.7344,840.7075,736.7344,850.7075,740.7344,846.7075,736.7344" style="stroke:#181818;stroke-width:1;"/><text fill="#000000" font-family="sans-serif" font-size="13" lengthAdjust="spacing" textLength="152.4644" x="846.7075" y="718.8779">Configure transfer settings</text></g><g class="message" data-participant-1="TransService" data-participant-2="Gateway"><polygon fill="#181818" points="644.6714,763.0859,634.6714,767.0859,644.6714,771.0859,640.6714,767.0859" style="stroke:#181818;stroke-width:1;"/><line style="stroke:#181818;stroke-width:1;stroke-dasharray:2.0,2.0;" x1="638.6714" x2="833.7075" y1="767.0859" y2="767.0859"/><text fill="#000000" font-family="sans-serif" font-size="13" lengthAdjust="spacing" textLength="44.0845" x="650.6714" y="762.2295">200 OK</text></g><g class="message" data-participant-1="Gateway" data-participant-2="App"><polygon fill="#181818" points="412.6162,793.4375,402.6162,797.4375,412.6162,801.4375,408.6162,797.4375" style="stroke:#181818;stroke-width:1;"/><line style="stroke:#181818;stroke-width:1;stroke-dasharray:2.0,2.0;" x1="406.6162" x2="627.6714" y1="797.4375" y2="797.4375"/><text fill="#000000" font-family="sans-serif" font-size="13" lengthAdjust="spacing" textLength="44.0845" x="418.6162" y="792.5811">200 OK</text></g><g class="message" data-participant-1="App" data-participant-2="User"><polygon fill="#181818" points="84.5757,823.7891,74.5757,827.7891,84.5757,831.7891,80.5757,827.7891" style="stroke:#181818;stroke-width:1;"/><line style="stroke:#181818;stroke-width:1;stroke-dasharray:2.0,2.0;" x1="78.5757" x2="395.6162" y1="827.7891" y2="827.7891"/><text fill="#000000" font-family="sans-serif" font-size="13" lengthAdjust="spacing" textLength="289.0405" x="90.5757" y="822.9326">Display confirmation and continue transaction flow</text></g><!--SRC=[bLJRZjem47ttLunuHz3LFl5G2KYxMbNLeito0RF909Q2dTeE25NzzuwT2yw5IkM5U3HpvioPOsFcj87PEnsbTMGeXxqbCmEquKEKQ9pCP8dAmUmx5bRly0RhiWmf_D_FMEzUuGKTNV4M4fhlVjA7GMKnSr8hICbSP4OXESIRGByYGOUVQEkqP2E4awuWs6_dNvOhs9wqjbIN7yZ0Jt8ddGlX1u3vLyzo1QyAIgCpiXRq0IofNAeZdBMYc_1SBimqpDCTmlo2GnwZ6MG5Bzy-O86bNBZx57Pn3YtjlRWTN3GV7YEUZu780LvG5lZ9exYM_0Yffug8JsFCX7Y7PwaeGcu1XvN9fkPGUPLAGzoS5Ejpxyn29nkOZxhiXnKvnJM3Jh5uwyVpHXZzYJi1sqq-BPVmzWEkqft-2TEj8AoGgprlraZQic2yGIdeCgoojKtRBQM2CWSvMUblnxdnriWNkxTqoXY_PVwdSSV_c2FbnGm8Fd845guXsT63IdNx5y2_nnjvPZ4tcCCx_Qh8kf0zKdmgQLfKCeQVax0QvaL68NDcXr315pIjCd__9XZLRjoNkHylqgz6QkRtPR7F_7dIdt6VlZLzPB9z7s2hrK4UAnFPr99p_63OHn2nfhL1X-rxM-jG7hXxMDmwfgkRbZ_pnCqPWtQeSXzWsbLVr4EXhyC6_kKRXCBxn- -a-0i0]--></g></svg>