<svg xmlns="http://www.w3.org/2000/svg" xmlns:xlink="http://www.w3.org/1999/xlink" contentStyleType="text/css" data-diagram-type="SEQUENCE" height="1102px" preserveAspectRatio="none" style="width:997px;height:1102px;background:#FFFFFF;" version="1.1" viewBox="0 0 997 1102" width="997px" zoomAndPan="magnify"><title>UC-11: View Transaction History</title><defs/><g><text fill="#000000" font-family="sans-serif" font-size="14" font-weight="bold" lengthAdjust="spacing" textLength="216.2754" x="391.7356" y="29.5332">UC-11: View Transaction History</text><g><title>Registered User</title><rect fill="#FFFFFF" height="841.8125" style="stroke:#181818;stroke-width:1;" width="10" x="68.5757" y="153.5703"/></g><g><title>FalsoPay App</title><rect fill="#FFFFFF" height="841.8125" style="stroke:#181818;stroke-width:1;" width="10" x="308.5063" y="153.5703"/></g><g><title>API Gateway</title><rect fill="#FFFFFF" height="494.9453" style="stroke:#181818;stroke-width:1;" width="10" x="583.1543" y="183.9219"/></g><g><title>API Gateway</title><rect fill="#FFFFFF" height="151.7578" style="stroke:#181818;stroke-width:1;" width="10" x="583.1543" y="813.2734"/></g><g><title>Transaction History Service</title><rect fill="#FFFFFF" height="434.2422" style="stroke:#181818;stroke-width:1;" width="10" x="760.2178" y="214.2734"/></g><g><title>Transaction History Service</title><rect fill="#FFFFFF" height="91.0547" style="stroke:#181818;stroke-width:1;" width="10" x="760.2178" y="843.625"/></g><g><title>Database</title><rect fill="#FFFFFF" height="330.1875" style="stroke:#181818;stroke-width:1;" width="10" x="938.7813" y="244.625"/></g><g><title>Database</title><rect fill="#FFFFFF" height="30.3516" style="stroke:#181818;stroke-width:1;" width="10" x="938.7813" y="873.9766"/></g><rect fill="none" height="743.7578" style="stroke:#000000;stroke-width:1.5;" width="980.7466" x="10" y="259.625"/><g><title>Registered User</title><rect fill="#000000" fill-opacity="0.00000" height="899.1641" width="8" x="69.5757" y="121.2188"/><line style="stroke:#181818;stroke-width:0.5;stroke-dasharray:5.0,5.0;" x1="73" x2="73" y1="121.2188" y2="1020.3828"/></g><g><title>FalsoPay App</title><rect fill="#000000" fill-opacity="0.00000" height="899.1641" width="8" x="309.5063" y="121.2188"/><line style="stroke:#181818;stroke-width:0.5;stroke-dasharray:5.0,5.0;" x1="312.9272" x2="312.9272" y1="121.2188" y2="1020.3828"/></g><g><title>API Gateway</title><rect fill="#000000" fill-opacity="0.00000" height="899.1641" width="8" x="584.1543" y="121.2188"/><line style="stroke:#181818;stroke-width:0.5;stroke-dasharray:5.0,5.0;" x1="587.3027" x2="587.3027" y1="121.2188" y2="1020.3828"/></g><g><title>Transaction History Service</title><rect fill="#000000" fill-opacity="0.00000" height="899.1641" width="8" x="761.2178" y="121.2188"/><line style="stroke:#181818;stroke-width:0.5;stroke-dasharray:5.0,5.0;" x1="764.6353" x2="764.6353" y1="121.2188" y2="1020.3828"/></g><g><title>Database</title><rect fill="#000000" fill-opacity="0.00000" height="899.1641" width="8" x="939.7813" y="121.2188"/><line style="stroke:#181818;stroke-width:0.5;stroke-dasharray:5.0,5.0;" x1="942.8159" x2="942.8159" y1="121.2188" y2="1020.3828"/></g><g class="participant participant-head" data-participant="User"><text fill="#000000" font-family="sans-serif" font-size="14" lengthAdjust="spacing" textLength="101.1514" x="20" y="118.1426">Registered User</text><ellipse cx="73.5757" cy="52.1094" fill="#E2E2F0" rx="8" ry="8" style="stroke:#181818;stroke-width:0.5;"/><path d="M73.5757,60.1094 L73.5757,87.1094 M60.5757,68.1094 L86.5757,68.1094 M73.5757,87.1094 L60.5757,102.1094 M73.5757,87.1094 L86.5757,102.1094" fill="none" style="stroke:#181818;stroke-width:0.5;"/></g><g class="participant participant-tail" data-participant="User"><text fill="#000000" font-family="sans-serif" font-size="14" lengthAdjust="spacing" textLength="101.1514" x="20" y="1033.916">Registered User</text><ellipse cx="73.5757" cy="1045.4922" fill="#E2E2F0" rx="8" ry="8" style="stroke:#181818;stroke-width:0.5;"/><path d="M73.5757,1053.4922 L73.5757,1080.4922 M60.5757,1061.4922 L86.5757,1061.4922 M73.5757,1080.4922 L60.5757,1095.4922 M73.5757,1080.4922 L86.5757,1095.4922" fill="none" style="stroke:#181818;stroke-width:0.5;"/></g><g class="participant participant-head" data-participant="App"><rect fill="#E2E2F0" height="31.6094" rx="2.5" ry="2.5" style="stroke:#181818;stroke-width:0.5;" width="101.1582" x="262.9272" y="88.6094"/><text fill="#000000" font-family="sans-serif" font-size="14" lengthAdjust="spacing" textLength="87.1582" x="269.9272" y="110.1426">FalsoPay App</text></g><g class="participant participant-tail" data-participant="App"><rect fill="#E2E2F0" height="31.6094" rx="2.5" ry="2.5" style="stroke:#181818;stroke-width:0.5;" width="101.1582" x="262.9272" y="1019.3828"/><text fill="#000000" font-family="sans-serif" font-size="14" lengthAdjust="spacing" textLength="87.1582" x="269.9272" y="1040.916">FalsoPay App</text></g><g class="participant participant-head" data-participant="Gateway"><rect fill="#E2E2F0" height="31.6094" rx="2.5" ry="2.5" style="stroke:#181818;stroke-width:0.5;" width="95.7031" x="540.3027" y="88.6094"/><text fill="#000000" font-family="sans-serif" font-size="14" lengthAdjust="spacing" textLength="81.7031" x="547.3027" y="110.1426">API Gateway</text></g><g class="participant participant-tail" data-participant="Gateway"><rect fill="#E2E2F0" height="31.6094" rx="2.5" ry="2.5" style="stroke:#181818;stroke-width:0.5;" width="95.7031" x="540.3027" y="1019.3828"/><text fill="#000000" font-family="sans-serif" font-size="14" lengthAdjust="spacing" textLength="81.7031" x="547.3027" y="1040.916">API Gateway</text></g><g class="participant participant-head" data-participant="HistoryService"><rect fill="#E2E2F0" height="31.6094" rx="2.5" ry="2.5" style="stroke:#181818;stroke-width:0.5;" width="185.165" x="672.6353" y="88.6094"/><text fill="#000000" font-family="sans-serif" font-size="14" lengthAdjust="spacing" textLength="171.165" x="679.6353" y="110.1426">Transaction History Service</text></g><g class="participant participant-tail" data-participant="HistoryService"><rect fill="#E2E2F0" height="31.6094" rx="2.5" ry="2.5" style="stroke:#181818;stroke-width:0.5;" width="185.165" x="672.6353" y="1019.3828"/><text fill="#000000" font-family="sans-serif" font-size="14" lengthAdjust="spacing" textLength="171.165" x="679.6353" y="1040.916">Transaction History Service</text></g><g class="participant participant-head" data-participant="DB"><rect fill="#E2E2F0" height="31.6094" rx="2.5" ry="2.5" style="stroke:#181818;stroke-width:0.5;" width="73.9307" x="906.8159" y="88.6094"/><text fill="#000000" font-family="sans-serif" font-size="14" lengthAdjust="spacing" textLength="59.9307" x="913.8159" y="110.1426">Database</text></g><g class="participant participant-tail" data-participant="DB"><rect fill="#E2E2F0" height="31.6094" rx="2.5" ry="2.5" style="stroke:#181818;stroke-width:0.5;" width="73.9307" x="906.8159" y="1019.3828"/><text fill="#000000" font-family="sans-serif" font-size="14" lengthAdjust="spacing" textLength="59.9307" x="913.8159" y="1040.916">Database</text></g><g><title>Registered User</title><rect fill="#FFFFFF" height="841.8125" style="stroke:#181818;stroke-width:1;" width="10" x="68.5757" y="153.5703"/></g><g><title>FalsoPay App</title><rect fill="#FFFFFF" height="841.8125" style="stroke:#181818;stroke-width:1;" width="10" x="308.5063" y="153.5703"/></g><g><title>API Gateway</title><rect fill="#FFFFFF" height="494.9453" style="stroke:#181818;stroke-width:1;" width="10" x="583.1543" y="183.9219"/></g><g><title>API Gateway</title><rect fill="#FFFFFF" height="151.7578" style="stroke:#181818;stroke-width:1;" width="10" x="583.1543" y="813.2734"/></g><g><title>Transaction History Service</title><rect fill="#FFFFFF" height="434.2422" style="stroke:#181818;stroke-width:1;" width="10" x="760.2178" y="214.2734"/></g><g><title>Transaction History Service</title><rect fill="#FFFFFF" height="91.0547" style="stroke:#181818;stroke-width:1;" width="10" x="760.2178" y="843.625"/></g><g><title>Database</title><rect fill="#FFFFFF" height="330.1875" style="stroke:#181818;stroke-width:1;" width="10" x="938.7813" y="244.625"/></g><g><title>Database</title><rect fill="#FFFFFF" height="30.3516" style="stroke:#181818;stroke-width:1;" width="10" x="938.7813" y="873.9766"/></g><g class="message" data-participant-1="User" data-participant-2="App"><polygon fill="#181818" points="296.5063,149.5703,306.5063,153.5703,296.5063,157.5703,300.5063,153.5703" style="stroke:#181818;stroke-width:1;"/><line style="stroke:#181818;stroke-width:1;" x1="78.5757" x2="302.5063" y1="153.5703" y2="153.5703"/><text fill="#000000" font-family="sans-serif" font-size="13" lengthAdjust="spacing" textLength="157.5234" x="85.5757" y="148.7139">Request transaction history</text></g><g class="message" data-participant-1="App" data-participant-2="Gateway"><polygon fill="#181818" points="571.1543,179.9219,581.1543,183.9219,571.1543,187.9219,575.1543,183.9219" style="stroke:#181818;stroke-width:1;"/><line style="stroke:#181818;stroke-width:1;" x1="318.5063" x2="577.1543" y1="183.9219" y2="183.9219"/><text fill="#000000" font-family="sans-serif" font-size="13" lengthAdjust="spacing" textLength="166.8989" x="325.5063" y="179.0654">GET /api/transactions/history</text></g><g class="message" data-participant-1="Gateway" data-participant-2="HistoryService"><polygon fill="#181818" points="748.2178,210.2734,758.2178,214.2734,748.2178,218.2734,752.2178,214.2734" style="stroke:#181818;stroke-width:1;"/><line style="stroke:#181818;stroke-width:1;" x1="593.1543" x2="754.2178" y1="214.2734" y2="214.2734"/><text fill="#000000" font-family="sans-serif" font-size="13" lengthAdjust="spacing" textLength="130.0571" x="600.1543" y="209.417">Get transaction history</text></g><g class="message" data-participant-1="HistoryService" data-participant-2="DB"><polygon fill="#181818" points="926.7813,240.625,936.7813,244.625,926.7813,248.625,930.7813,244.625" style="stroke:#181818;stroke-width:1;"/><line style="stroke:#181818;stroke-width:1;" x1="770.2178" x2="932.7813" y1="244.625" y2="244.625"/><text fill="#000000" font-family="sans-serif" font-size="13" lengthAdjust="spacing" textLength="149.5635" x="777.2178" y="239.7686">Query transaction records</text></g><path d="M10,259.625 L70.1709,259.625 L70.1709,267.9766 L60.1709,277.9766 L10,277.9766 L10,259.625" fill="#EEEEEE" style="stroke:#000000;stroke-width:1.5;"/><rect fill="none" height="743.7578" style="stroke:#000000;stroke-width:1.5;" width="980.7466" x="10" y="259.625"/><text fill="#000000" font-family="sans-serif" font-size="13" font-weight="bold" lengthAdjust="spacing" textLength="15.1709" x="25" y="274.1201">alt</text><text fill="#000000" font-family="sans-serif" font-size="11" font-weight="bold" lengthAdjust="spacing" textLength="82.5322" x="85.1709" y="273.0439">[Retrieval error]</text><g class="message" data-participant-1="DB" data-participant-2="HistoryService"><polygon fill="#181818" points="781.2178,296.3281,771.2178,300.3281,781.2178,304.3281,777.2178,300.3281" style="stroke:#181818;stroke-width:1;"/><line style="stroke:#181818;stroke-width:1;stroke-dasharray:2.0,2.0;" x1="775.2178" x2="937.7813" y1="300.3281" y2="300.3281"/><text fill="#000000" font-family="sans-serif" font-size="13" lengthAdjust="spacing" textLength="114.8799" x="787.2178" y="295.4717">Error retrieving data</text></g><g class="message" data-participant-1="HistoryService" data-participant-2="Gateway"><polygon fill="#181818" points="604.1543,326.6797,594.1543,330.6797,604.1543,334.6797,600.1543,330.6797" style="stroke:#181818;stroke-width:1;"/><line style="stroke:#181818;stroke-width:1;stroke-dasharray:2.0,2.0;" x1="598.1543" x2="759.2178" y1="330.6797" y2="330.6797"/><text fill="#000000" font-family="sans-serif" font-size="13" lengthAdjust="spacing" textLength="143.0635" x="610.1543" y="325.8232">500 Internal Server Error</text></g><g class="message" data-participant-1="Gateway" data-participant-2="App"><polygon fill="#181818" points="329.5063,357.0313,319.5063,361.0313,329.5063,365.0313,325.5063,361.0313" style="stroke:#181818;stroke-width:1;"/><line style="stroke:#181818;stroke-width:1;stroke-dasharray:2.0,2.0;" x1="323.5063" x2="582.1543" y1="361.0313" y2="361.0313"/><text fill="#000000" font-family="sans-serif" font-size="13" lengthAdjust="spacing" textLength="143.0635" x="335.5063" y="356.1748">500 Internal Server Error</text></g><g class="message" data-participant-1="App" data-participant-2="User"><polygon fill="#181818" points="89.5757,387.3828,79.5757,391.3828,89.5757,395.3828,85.5757,391.3828" style="stroke:#181818;stroke-width:1;"/><line style="stroke:#181818;stroke-width:1;stroke-dasharray:2.0,2.0;" x1="83.5757" x2="307.5063" y1="391.3828" y2="391.3828"/><text fill="#000000" font-family="sans-serif" font-size="13" lengthAdjust="spacing" textLength="167.6289" x="95.5757" y="386.5264">Display error and retry option</text></g><line style="stroke:#000000;stroke-width:1;stroke-dasharray:2.0,2.0;" x1="10" x2="990.7466" y1="400.3828" y2="400.3828"/><text fill="#000000" font-family="sans-serif" font-size="11" font-weight="bold" lengthAdjust="spacing" textLength="90.4546" x="15" y="411.8018">[No transactions]</text><g class="message" data-participant-1="DB" data-participant-2="HistoryService"><polygon fill="#181818" points="781.2178,433.5703,771.2178,437.5703,781.2178,441.5703,777.2178,437.5703" style="stroke:#181818;stroke-width:1;"/><line style="stroke:#181818;stroke-width:1;stroke-dasharray:2.0,2.0;" x1="775.2178" x2="937.7813" y1="437.5703" y2="437.5703"/><text fill="#000000" font-family="sans-serif" font-size="13" lengthAdjust="spacing" textLength="72.2427" x="787.2178" y="432.7139">Empty result</text></g><g class="message" data-participant-1="HistoryService" data-participant-2="Gateway"><polygon fill="#181818" points="604.1543,463.9219,594.1543,467.9219,604.1543,471.9219,600.1543,467.9219" style="stroke:#181818;stroke-width:1;"/><line style="stroke:#181818;stroke-width:1;stroke-dasharray:2.0,2.0;" x1="598.1543" x2="759.2178" y1="467.9219" y2="467.9219"/><text fill="#000000" font-family="sans-serif" font-size="13" lengthAdjust="spacing" textLength="123.5444" x="610.1543" y="463.0654">Empty transaction list</text></g><g class="message" data-participant-1="Gateway" data-participant-2="App"><polygon fill="#181818" points="329.5063,494.2734,319.5063,498.2734,329.5063,502.2734,325.5063,498.2734" style="stroke:#181818;stroke-width:1;"/><line style="stroke:#181818;stroke-width:1;stroke-dasharray:2.0,2.0;" x1="323.5063" x2="582.1543" y1="498.2734" y2="498.2734"/><text fill="#000000" font-family="sans-serif" font-size="13" lengthAdjust="spacing" textLength="129.3271" x="335.5063" y="493.417">200 OK with empty list</text></g><g class="message" data-participant-1="App" data-participant-2="User"><polygon fill="#181818" points="89.5757,524.625,79.5757,528.625,89.5757,532.625,85.5757,528.625" style="stroke:#181818;stroke-width:1;"/><line style="stroke:#181818;stroke-width:1;stroke-dasharray:2.0,2.0;" x1="83.5757" x2="307.5063" y1="528.625" y2="528.625"/><text fill="#000000" font-family="sans-serif" font-size="13" lengthAdjust="spacing" textLength="179.8989" x="95.5757" y="523.7686">Display empty history message</text></g><line style="stroke:#000000;stroke-width:1;stroke-dasharray:2.0,2.0;" x1="10" x2="990.7466" y1="537.625" y2="537.625"/><text fill="#000000" font-family="sans-serif" font-size="11" font-weight="bold" lengthAdjust="spacing" textLength="103.9199" x="15" y="549.0439">[Transactions exist]</text><g class="message" data-participant-1="DB" data-participant-2="HistoryService"><polygon fill="#181818" points="781.2178,570.8125,771.2178,574.8125,781.2178,578.8125,777.2178,574.8125" style="stroke:#181818;stroke-width:1;"/><line style="stroke:#181818;stroke-width:1;stroke-dasharray:2.0,2.0;" x1="775.2178" x2="942.7813" y1="574.8125" y2="574.8125"/><text fill="#000000" font-family="sans-serif" font-size="13" lengthAdjust="spacing" textLength="114.8799" x="787.2178" y="569.9561">Transaction records</text></g><g class="message" data-participant-1="HistoryService" data-participant-2="HistoryService"><line style="stroke:#181818;stroke-width:1;" x1="770.2178" x2="812.2178" y1="605.1641" y2="605.1641"/><line style="stroke:#181818;stroke-width:1;" x1="812.2178" x2="812.2178" y1="605.1641" y2="618.1641"/><line style="stroke:#181818;stroke-width:1;" x1="771.2178" x2="812.2178" y1="618.1641" y2="618.1641"/><polygon fill="#181818" points="781.2178,614.1641,771.2178,618.1641,781.2178,622.1641,777.2178,618.1641" style="stroke:#181818;stroke-width:1;"/><text fill="#000000" font-family="sans-serif" font-size="13" lengthAdjust="spacing" textLength="113.4453" x="777.2178" y="600.3076">Sort chronologically</text></g><g class="message" data-participant-1="HistoryService" data-participant-2="Gateway"><polygon fill="#181818" points="604.1543,644.5156,594.1543,648.5156,604.1543,652.5156,600.1543,648.5156" style="stroke:#181818;stroke-width:1;"/><line style="stroke:#181818;stroke-width:1;stroke-dasharray:2.0,2.0;" x1="598.1543" x2="764.2178" y1="648.5156" y2="648.5156"/><text fill="#000000" font-family="sans-serif" font-size="13" lengthAdjust="spacing" textLength="109.8208" x="610.1543" y="643.6592">Transaction history</text></g><g class="message" data-participant-1="Gateway" data-participant-2="App"><polygon fill="#181818" points="329.5063,674.8672,319.5063,678.8672,329.5063,682.8672,325.5063,678.8672" style="stroke:#181818;stroke-width:1;"/><line style="stroke:#181818;stroke-width:1;stroke-dasharray:2.0,2.0;" x1="323.5063" x2="587.1543" y1="678.8672" y2="678.8672"/><text fill="#000000" font-family="sans-serif" font-size="13" lengthAdjust="spacing" textLength="157.5171" x="335.5063" y="674.0107">200 OK with transaction list</text></g><g class="message" data-participant-1="App" data-participant-2="User"><polygon fill="#181818" points="89.5757,705.2188,79.5757,709.2188,89.5757,713.2188,85.5757,709.2188" style="stroke:#181818;stroke-width:1;"/><line style="stroke:#181818;stroke-width:1;stroke-dasharray:2.0,2.0;" x1="83.5757" x2="307.5063" y1="709.2188" y2="709.2188"/><text fill="#000000" font-family="sans-serif" font-size="13" lengthAdjust="spacing" textLength="205.9307" x="95.5757" y="704.3623">Display transactions chronologically</text></g><g class="message" data-participant-1="User" data-participant-2="App"><polygon fill="#181818" points="296.5063,735.5703,306.5063,739.5703,296.5063,743.5703,300.5063,739.5703" style="stroke:#181818;stroke-width:1;"/><line style="stroke:#181818;stroke-width:1;stroke-dasharray:2.0,2.0;" x1="78.5757" x2="302.5063" y1="739.5703" y2="739.5703"/><text fill="#000000" font-family="sans-serif" font-size="13" lengthAdjust="spacing" textLength="103.3335" x="85.5757" y="734.7139">Select filter option</text></g><g class="message" data-participant-1="App" data-participant-2="App"><line style="stroke:#181818;stroke-width:1;" x1="318.5063" x2="360.5063" y1="769.9219" y2="769.9219"/><line style="stroke:#181818;stroke-width:1;" x1="360.5063" x2="360.5063" y1="769.9219" y2="782.9219"/><line style="stroke:#181818;stroke-width:1;" x1="319.5063" x2="360.5063" y1="782.9219" y2="782.9219"/><polygon fill="#181818" points="329.5063,778.9219,319.5063,782.9219,329.5063,786.9219,325.5063,782.9219" style="stroke:#181818;stroke-width:1;"/><text fill="#000000" font-family="sans-serif" font-size="13" lengthAdjust="spacing" textLength="201.5952" x="325.5063" y="765.0654">Include Filter Transaction use case</text></g><g class="message" data-participant-1="App" data-participant-2="Gateway"><polygon fill="#181818" points="571.1543,809.2734,581.1543,813.2734,571.1543,817.2734,575.1543,813.2734" style="stroke:#181818;stroke-width:1;"/><line style="stroke:#181818;stroke-width:1;" x1="318.5063" x2="577.1543" y1="813.2734" y2="813.2734"/><text fill="#000000" font-family="sans-serif" font-size="13" lengthAdjust="spacing" textLength="245.6479" x="325.5063" y="808.417">GET /api/transactions/history/filter?params</text></g><g class="message" data-participant-1="Gateway" data-participant-2="HistoryService"><polygon fill="#181818" points="748.2178,839.625,758.2178,843.625,748.2178,847.625,752.2178,843.625" style="stroke:#181818;stroke-width:1;"/><line style="stroke:#181818;stroke-width:1;" x1="593.1543" x2="754.2178" y1="843.625" y2="843.625"/><text fill="#000000" font-family="sans-serif" font-size="13" lengthAdjust="spacing" textLength="137.2871" x="600.1543" y="838.7686">Get filtered transactions</text></g><g class="message" data-participant-1="HistoryService" data-participant-2="DB"><polygon fill="#181818" points="926.7813,869.9766,936.7813,873.9766,926.7813,877.9766,930.7813,873.9766" style="stroke:#181818;stroke-width:1;"/><line style="stroke:#181818;stroke-width:1;" x1="770.2178" x2="932.7813" y1="873.9766" y2="873.9766"/><text fill="#000000" font-family="sans-serif" font-size="13" lengthAdjust="spacing" textLength="96.8018" x="777.2178" y="869.1201">Query with filters</text></g><g class="message" data-participant-1="DB" data-participant-2="HistoryService"><polygon fill="#181818" points="781.2178,900.3281,771.2178,904.3281,781.2178,908.3281,777.2178,904.3281" style="stroke:#181818;stroke-width:1;"/><line style="stroke:#181818;stroke-width:1;stroke-dasharray:2.0,2.0;" x1="775.2178" x2="942.7813" y1="904.3281" y2="904.3281"/><text fill="#000000" font-family="sans-serif" font-size="13" lengthAdjust="spacing" textLength="90.3081" x="787.2178" y="899.4717">Filtered records</text></g><g class="message" data-participant-1="HistoryService" data-participant-2="Gateway"><polygon fill="#181818" points="604.1543,930.6797,594.1543,934.6797,604.1543,938.6797,600.1543,934.6797" style="stroke:#181818;stroke-width:1;"/><line style="stroke:#181818;stroke-width:1;stroke-dasharray:2.0,2.0;" x1="598.1543" x2="764.2178" y1="934.6797" y2="934.6797"/><text fill="#000000" font-family="sans-serif" font-size="13" lengthAdjust="spacing" textLength="117.0508" x="610.1543" y="929.8232">Filtered transactions</text></g><g class="message" data-participant-1="Gateway" data-participant-2="App"><polygon fill="#181818" points="329.5063,961.0313,319.5063,965.0313,329.5063,969.0313,325.5063,965.0313" style="stroke:#181818;stroke-width:1;"/><line style="stroke:#181818;stroke-width:1;stroke-dasharray:2.0,2.0;" x1="323.5063" x2="587.1543" y1="965.0313" y2="965.0313"/><text fill="#000000" font-family="sans-serif" font-size="13" lengthAdjust="spacing" textLength="155.3462" x="335.5063" y="960.1748">200 OK with filtered results</text></g><g class="message" data-participant-1="App" data-participant-2="User"><polygon fill="#181818" points="84.5757,991.3828,74.5757,995.3828,84.5757,999.3828,80.5757,995.3828" style="stroke:#181818;stroke-width:1;"/><line style="stroke:#181818;stroke-width:1;stroke-dasharray:2.0,2.0;" x1="78.5757" x2="312.5063" y1="995.3828" y2="995.3828"/><text fill="#000000" font-family="sans-serif" font-size="13" lengthAdjust="spacing" textLength="158.958" x="90.5757" y="990.5264">Display filtered transactions</text></g><!--SRC=[fLLDZzem4BtxLuou8tOhzP93gwM1NRHIkrtOtjra04icJcq3pR_lsFd02GbPRJc4n7f-dlVcPS8JgpHCNd4dZ4MDARmPr1FWnj-md6ih4f7ppC9aoQLHBxo0Xppt4Ffl8nvULl38BPvvuG7LVHkqqJmpFB52PV14nofTm1hrIIJeDrLhrL9xRymj_yrD2OpdZ5bX9SBRj-dzVGI_19wXXvun9mQcNrp54RpYdoCQ2pP0xYkaUpnHrLvRy-2zOBJaE2fH4JmkDZ3ZkPW5H6PsnLIRmAeRnz7MI5GuKax75DP-TfJnF8AVHoGpGoADYTAfkH0vqxYqP8BL0azS0cgjD0FwnNEOzXItS01YyXj4jeEKkk0tTAi8tVbyTmUhZ4ALqHaEGHrOD4SrNjHDkGttrXFKDIA2M9XSqcPVEV0izSKLe7AdcQ4q2DzLw8EvgU-Gsu8ep57QKLabEBHO4hfVqoVIzECPpiBk0Vs-1ZiWo8EgviC1ZU4xBFK4iJQ0VskU0KcRdWWuU8fX4DnAh-1hmhNI5fAzLfcIQYSIBcKnwjMc9z6TAZgvRYgwwMMl-m5f_SOrRFrkX_derUOlvUYeorYZnCJ2LaYAQXsu1divh8AliaGUKuHbYGyDEL9J4nfbLnlVDrzcPGbVQJpoGzdSOVqZawUaek5_zSQCzkdM7FAzAhaxR5Ns1iAxhClvG793_vQ3ilutWDjBXMvec0y6SFkU0js7gBFaFqUOfUmV]--></g></svg>