<svg xmlns="http://www.w3.org/2000/svg" xmlns:xlink="http://www.w3.org/1999/xlink" contentStyleType="text/css" data-diagram-type="SEQUENCE" height="1115px" preserveAspectRatio="none" style="width:1096px;height:1115px;background:#FFFFFF;" version="1.1" viewBox="0 0 1096 1115" width="1096px" zoomAndPan="magnify"><title>UC-12: Request Money</title><defs/><g><text fill="#000000" font-family="sans-serif" font-size="14" font-weight="bold" lengthAdjust="spacing" textLength="152.4688" x="472.9202" y="29.5332">UC-12: Request Money</text><g><title>FalsoPay App</title><rect fill="#FFFFFF" height="854.8125" style="stroke:#181818;stroke-width:1;" width="10" x="304.2554" y="153.5703"/></g><g><title>API Gateway</title><rect fill="#FFFFFF" height="677.0547" style="stroke:#181818;stroke-width:1;" width="10" x="490.0425" y="300.9766"/></g><g><title>Transaction Service</title><rect fill="#FFFFFF" height="616.3516" style="stroke:#181818;stroke-width:1;" width="10" x="647.665" y="331.3281"/></g><g><title>User Service</title><rect fill="#FFFFFF" height="253.6484" style="stroke:#181818;stroke-width:1;" width="10" x="799.4858" y="361.6797"/></g><g><title>Notification Service</title><rect fill="#FFFFFF" height="30.3516" style="stroke:#181818;stroke-width:1;" width="10" x="923.4648" y="886.9766"/></g><g><title>Database</title><rect fill="#FFFFFF" height="30.3516" style="stroke:#181818;stroke-width:1;" width="10" x="1037.3438" y="392.0313"/></g><g><title>Database</title><rect fill="#FFFFFF" height="30.3516" style="stroke:#181818;stroke-width:1;" width="10" x="1037.3438" y="826.2734"/></g><rect fill="none" height="579" style="stroke:#000000;stroke-width:1.5;" width="1079.3091" x="10" y="437.3828"/><g><title>Registered User</title><rect fill="#000000" fill-opacity="0.00000" height="912.1641" width="8" x="69.5757" y="121.2188"/><line style="stroke:#181818;stroke-width:0.5;stroke-dasharray:5.0,5.0;" x1="73" x2="73" y1="121.2188" y2="1033.3828"/></g><g><title>FalsoPay App</title><rect fill="#000000" fill-opacity="0.00000" height="912.1641" width="8" x="305.2554" y="121.2188"/><line style="stroke:#181818;stroke-width:0.5;stroke-dasharray:5.0,5.0;" x1="308.6763" x2="308.6763" y1="121.2188" y2="1033.3828"/></g><g><title>API Gateway</title><rect fill="#000000" fill-opacity="0.00000" height="912.1641" width="8" x="491.0425" y="121.2188"/><line style="stroke:#181818;stroke-width:0.5;stroke-dasharray:5.0,5.0;" x1="494.1909" x2="494.1909" y1="121.2188" y2="1033.3828"/></g><g><title>Transaction Service</title><rect fill="#000000" fill-opacity="0.00000" height="912.1641" width="8" x="648.665" y="121.2188"/><line style="stroke:#181818;stroke-width:0.5;stroke-dasharray:5.0,5.0;" x1="651.8066" x2="651.8066" y1="121.2188" y2="1033.3828"/></g><g><title>User Service</title><rect fill="#000000" fill-opacity="0.00000" height="912.1641" width="8" x="800.4858" y="121.2188"/><line style="stroke:#181818;stroke-width:0.5;stroke-dasharray:5.0,5.0;" x1="804.4204" x2="804.4204" y1="121.2188" y2="1033.3828"/></g><g><title>Notification Service</title><rect fill="#000000" fill-opacity="0.00000" height="912.1641" width="8" x="924.4648" y="121.2188"/><line style="stroke:#181818;stroke-width:0.5;stroke-dasharray:5.0,5.0;" x1="927.5513" x2="927.5513" y1="121.2188" y2="1033.3828"/></g><g><title>Database</title><rect fill="#000000" fill-opacity="0.00000" height="912.1641" width="8" x="1038.3438" y="121.2188"/><line style="stroke:#181818;stroke-width:0.5;stroke-dasharray:5.0,5.0;" x1="1041.3784" x2="1041.3784" y1="121.2188" y2="1033.3828"/></g><g class="participant participant-head" data-participant="User"><text fill="#000000" font-family="sans-serif" font-size="14" lengthAdjust="spacing" textLength="101.1514" x="20" y="118.1426">Registered User</text><ellipse cx="73.5757" cy="52.1094" fill="#E2E2F0" rx="8" ry="8" style="stroke:#181818;stroke-width:0.5;"/><path d="M73.5757,60.1094 L73.5757,87.1094 M60.5757,68.1094 L86.5757,68.1094 M73.5757,87.1094 L60.5757,102.1094 M73.5757,87.1094 L86.5757,102.1094" fill="none" style="stroke:#181818;stroke-width:0.5;"/></g><g class="participant participant-tail" data-participant="User"><text fill="#000000" font-family="sans-serif" font-size="14" lengthAdjust="spacing" textLength="101.1514" x="20" y="1046.916">Registered User</text><ellipse cx="73.5757" cy="1058.4922" fill="#E2E2F0" rx="8" ry="8" style="stroke:#181818;stroke-width:0.5;"/><path d="M73.5757,1066.4922 L73.5757,1093.4922 M60.5757,1074.4922 L86.5757,1074.4922 M73.5757,1093.4922 L60.5757,1108.4922 M73.5757,1093.4922 L86.5757,1108.4922" fill="none" style="stroke:#181818;stroke-width:0.5;"/></g><g class="participant participant-head" data-participant="App"><rect fill="#E2E2F0" height="31.6094" rx="2.5" ry="2.5" style="stroke:#181818;stroke-width:0.5;" width="101.1582" x="258.6763" y="88.6094"/><text fill="#000000" font-family="sans-serif" font-size="14" lengthAdjust="spacing" textLength="87.1582" x="265.6763" y="110.1426">FalsoPay App</text></g><g class="participant participant-tail" data-participant="App"><rect fill="#E2E2F0" height="31.6094" rx="2.5" ry="2.5" style="stroke:#181818;stroke-width:0.5;" width="101.1582" x="258.6763" y="1032.3828"/><text fill="#000000" font-family="sans-serif" font-size="14" lengthAdjust="spacing" textLength="87.1582" x="265.6763" y="1053.916">FalsoPay App</text></g><g class="participant participant-head" data-participant="Gateway"><rect fill="#E2E2F0" height="31.6094" rx="2.5" ry="2.5" style="stroke:#181818;stroke-width:0.5;" width="95.7031" x="447.1909" y="88.6094"/><text fill="#000000" font-family="sans-serif" font-size="14" lengthAdjust="spacing" textLength="81.7031" x="454.1909" y="110.1426">API Gateway</text></g><g class="participant participant-tail" data-participant="Gateway"><rect fill="#E2E2F0" height="31.6094" rx="2.5" ry="2.5" style="stroke:#181818;stroke-width:0.5;" width="95.7031" x="447.1909" y="1032.3828"/><text fill="#000000" font-family="sans-serif" font-size="14" lengthAdjust="spacing" textLength="81.7031" x="454.1909" y="1053.916">API Gateway</text></g><g class="participant participant-head" data-participant="TransService"><rect fill="#E2E2F0" height="31.6094" rx="2.5" ry="2.5" style="stroke:#181818;stroke-width:0.5;" width="137.7168" x="583.8066" y="88.6094"/><text fill="#000000" font-family="sans-serif" font-size="14" lengthAdjust="spacing" textLength="123.7168" x="590.8066" y="110.1426">Transaction Service</text></g><g class="participant participant-tail" data-participant="TransService"><rect fill="#E2E2F0" height="31.6094" rx="2.5" ry="2.5" style="stroke:#181818;stroke-width:0.5;" width="137.7168" x="583.8066" y="1032.3828"/><text fill="#000000" font-family="sans-serif" font-size="14" lengthAdjust="spacing" textLength="123.7168" x="590.8066" y="1053.916">Transaction Service</text></g><g class="participant participant-head" data-participant="UserService"><rect fill="#E2E2F0" height="31.6094" rx="2.5" ry="2.5" style="stroke:#181818;stroke-width:0.5;" width="94.1309" x="757.4204" y="88.6094"/><text fill="#000000" font-family="sans-serif" font-size="14" lengthAdjust="spacing" textLength="80.1309" x="764.4204" y="110.1426">User Service</text></g><g class="participant participant-tail" data-participant="UserService"><rect fill="#E2E2F0" height="31.6094" rx="2.5" ry="2.5" style="stroke:#181818;stroke-width:0.5;" width="94.1309" x="757.4204" y="1032.3828"/><text fill="#000000" font-family="sans-serif" font-size="14" lengthAdjust="spacing" textLength="80.1309" x="764.4204" y="1053.916">User Service</text></g><g class="participant participant-head" data-participant="NotifService"><rect fill="#E2E2F0" height="31.6094" rx="2.5" ry="2.5" style="stroke:#181818;stroke-width:0.5;" width="133.8271" x="861.5513" y="88.6094"/><text fill="#000000" font-family="sans-serif" font-size="14" lengthAdjust="spacing" textLength="119.8271" x="868.5513" y="110.1426">Notification Service</text></g><g class="participant participant-tail" data-participant="NotifService"><rect fill="#E2E2F0" height="31.6094" rx="2.5" ry="2.5" style="stroke:#181818;stroke-width:0.5;" width="133.8271" x="861.5513" y="1032.3828"/><text fill="#000000" font-family="sans-serif" font-size="14" lengthAdjust="spacing" textLength="119.8271" x="868.5513" y="1053.916">Notification Service</text></g><g class="participant participant-head" data-participant="DB"><rect fill="#E2E2F0" height="31.6094" rx="2.5" ry="2.5" style="stroke:#181818;stroke-width:0.5;" width="73.9307" x="1005.3784" y="88.6094"/><text fill="#000000" font-family="sans-serif" font-size="14" lengthAdjust="spacing" textLength="59.9307" x="1012.3784" y="110.1426">Database</text></g><g class="participant participant-tail" data-participant="DB"><rect fill="#E2E2F0" height="31.6094" rx="2.5" ry="2.5" style="stroke:#181818;stroke-width:0.5;" width="73.9307" x="1005.3784" y="1032.3828"/><text fill="#000000" font-family="sans-serif" font-size="14" lengthAdjust="spacing" textLength="59.9307" x="1012.3784" y="1053.916">Database</text></g><g><title>FalsoPay App</title><rect fill="#FFFFFF" height="854.8125" style="stroke:#181818;stroke-width:1;" width="10" x="304.2554" y="153.5703"/></g><g><title>API Gateway</title><rect fill="#FFFFFF" height="677.0547" style="stroke:#181818;stroke-width:1;" width="10" x="490.0425" y="300.9766"/></g><g><title>Transaction Service</title><rect fill="#FFFFFF" height="616.3516" style="stroke:#181818;stroke-width:1;" width="10" x="647.665" y="331.3281"/></g><g><title>User Service</title><rect fill="#FFFFFF" height="253.6484" style="stroke:#181818;stroke-width:1;" width="10" x="799.4858" y="361.6797"/></g><g><title>Notification Service</title><rect fill="#FFFFFF" height="30.3516" style="stroke:#181818;stroke-width:1;" width="10" x="923.4648" y="886.9766"/></g><g><title>Database</title><rect fill="#FFFFFF" height="30.3516" style="stroke:#181818;stroke-width:1;" width="10" x="1037.3438" y="392.0313"/></g><g><title>Database</title><rect fill="#FFFFFF" height="30.3516" style="stroke:#181818;stroke-width:1;" width="10" x="1037.3438" y="826.2734"/></g><g class="message" data-participant-1="User" data-participant-2="App"><polygon fill="#181818" points="292.2554,149.5703,302.2554,153.5703,292.2554,157.5703,296.2554,153.5703" style="stroke:#181818;stroke-width:1;"/><line style="stroke:#181818;stroke-width:1;" x1="73.5757" x2="298.2554" y1="153.5703" y2="153.5703"/><text fill="#000000" font-family="sans-serif" font-size="13" lengthAdjust="spacing" textLength="164.7661" x="80.5757" y="148.7139">Select request money option</text></g><g class="message" data-participant-1="App" data-participant-2="App"><line style="stroke:#181818;stroke-width:1;" x1="314.2554" x2="356.2554" y1="183.9219" y2="183.9219"/><line style="stroke:#181818;stroke-width:1;" x1="356.2554" x2="356.2554" y1="183.9219" y2="196.9219"/><line style="stroke:#181818;stroke-width:1;" x1="315.2554" x2="356.2554" y1="196.9219" y2="196.9219"/><polygon fill="#181818" points="325.2554,192.9219,315.2554,196.9219,325.2554,200.9219,321.2554,196.9219" style="stroke:#181818;stroke-width:1;"/><text fill="#000000" font-family="sans-serif" font-size="13" lengthAdjust="spacing" textLength="119.209" x="321.2554" y="179.0654">Display request form</text></g><g class="message" data-participant-1="User" data-participant-2="App"><polygon fill="#181818" points="292.2554,223.2734,302.2554,227.2734,292.2554,231.2734,296.2554,227.2734" style="stroke:#181818;stroke-width:1;"/><line style="stroke:#181818;stroke-width:1;" x1="73.5757" x2="298.2554" y1="227.2734" y2="227.2734"/><text fill="#000000" font-family="sans-serif" font-size="13" lengthAdjust="spacing" textLength="206.6797" x="80.5757" y="222.417">Enter recipient, amount, and reason</text></g><g class="message" data-participant-1="App" data-participant-2="App"><line style="stroke:#181818;stroke-width:1;" x1="314.2554" x2="356.2554" y1="257.625" y2="257.625"/><line style="stroke:#181818;stroke-width:1;" x1="356.2554" x2="356.2554" y1="257.625" y2="270.625"/><line style="stroke:#181818;stroke-width:1;" x1="315.2554" x2="356.2554" y1="270.625" y2="270.625"/><polygon fill="#181818" points="325.2554,266.625,315.2554,270.625,325.2554,274.625,321.2554,270.625" style="stroke:#181818;stroke-width:1;"/><text fill="#000000" font-family="sans-serif" font-size="13" lengthAdjust="spacing" textLength="119.2344" x="321.2554" y="252.7686">Validate input format</text></g><g class="message" data-participant-1="App" data-participant-2="Gateway"><polygon fill="#181818" points="478.0425,296.9766,488.0425,300.9766,478.0425,304.9766,482.0425,300.9766" style="stroke:#181818;stroke-width:1;"/><line style="stroke:#181818;stroke-width:1;" x1="314.2554" x2="484.0425" y1="300.9766" y2="300.9766"/><text fill="#000000" font-family="sans-serif" font-size="13" lengthAdjust="spacing" textLength="156.7871" x="321.2554" y="296.1201">POST /api/money-requests</text></g><g class="message" data-participant-1="Gateway" data-participant-2="TransService"><polygon fill="#181818" points="635.665,327.3281,645.665,331.3281,635.665,335.3281,639.665,331.3281" style="stroke:#181818;stroke-width:1;"/><line style="stroke:#181818;stroke-width:1;" x1="500.0425" x2="641.665" y1="331.3281" y2="331.3281"/><text fill="#000000" font-family="sans-serif" font-size="13" lengthAdjust="spacing" textLength="128.6226" x="507.0425" y="326.4717">Create money request</text></g><g class="message" data-participant-1="TransService" data-participant-2="UserService"><polygon fill="#181818" points="787.4858,357.6797,797.4858,361.6797,787.4858,365.6797,791.4858,361.6797" style="stroke:#181818;stroke-width:1;"/><line style="stroke:#181818;stroke-width:1;" x1="657.665" x2="793.4858" y1="361.6797" y2="361.6797"/><text fill="#000000" font-family="sans-serif" font-size="13" lengthAdjust="spacing" textLength="122.8208" x="664.665" y="356.8232">Verify recipient exists</text></g><g class="message" data-participant-1="UserService" data-participant-2="DB"><polygon fill="#181818" points="1025.3438,388.0313,1035.3438,392.0313,1025.3438,396.0313,1029.3438,392.0313" style="stroke:#181818;stroke-width:1;"/><line style="stroke:#181818;stroke-width:1;" x1="809.4858" x2="1031.3438" y1="392.0313" y2="392.0313"/><text fill="#000000" font-family="sans-serif" font-size="13" lengthAdjust="spacing" textLength="89.5972" x="816.4858" y="387.1748">Check recipient</text></g><g class="message" data-participant-1="DB" data-participant-2="UserService"><polygon fill="#181818" points="820.4858,418.3828,810.4858,422.3828,820.4858,426.3828,816.4858,422.3828" style="stroke:#181818;stroke-width:1;"/><line style="stroke:#181818;stroke-width:1;stroke-dasharray:2.0,2.0;" x1="814.4858" x2="1041.3438" y1="422.3828" y2="422.3828"/><text fill="#000000" font-family="sans-serif" font-size="13" lengthAdjust="spacing" textLength="83.1099" x="826.4858" y="417.5264">Recipient data</text></g><path d="M10,437.3828 L70.1709,437.3828 L70.1709,445.7344 L60.1709,455.7344 L10,455.7344 L10,437.3828" fill="#EEEEEE" style="stroke:#000000;stroke-width:1.5;"/><rect fill="none" height="579" style="stroke:#000000;stroke-width:1.5;" width="1079.3091" x="10" y="437.3828"/><text fill="#000000" font-family="sans-serif" font-size="13" font-weight="bold" lengthAdjust="spacing" textLength="15.1709" x="25" y="451.8779">alt</text><text fill="#000000" font-family="sans-serif" font-size="11" font-weight="bold" lengthAdjust="spacing" textLength="110.5908" x="85.1709" y="450.8018">[Recipient not found]</text><g class="message" data-participant-1="UserService" data-participant-2="TransService"><polygon fill="#181818" points="668.665,474.0859,658.665,478.0859,668.665,482.0859,664.665,478.0859" style="stroke:#181818;stroke-width:1;"/><line style="stroke:#181818;stroke-width:1;stroke-dasharray:2.0,2.0;" x1="662.665" x2="798.4858" y1="478.0859" y2="478.0859"/><text fill="#000000" font-family="sans-serif" font-size="13" lengthAdjust="spacing" textLength="112.0234" x="674.665" y="473.2295">Recipient not found</text></g><g class="message" data-participant-1="TransService" data-participant-2="Gateway"><polygon fill="#181818" points="511.0425,504.4375,501.0425,508.4375,511.0425,512.4375,507.0425,508.4375" style="stroke:#181818;stroke-width:1;"/><line style="stroke:#181818;stroke-width:1;stroke-dasharray:2.0,2.0;" x1="505.0425" x2="646.665" y1="508.4375" y2="508.4375"/><text fill="#000000" font-family="sans-serif" font-size="13" lengthAdjust="spacing" textLength="86.0044" x="517.0425" y="503.5811">404 Not Found</text></g><g class="message" data-participant-1="Gateway" data-participant-2="App"><polygon fill="#181818" points="325.2554,534.7891,315.2554,538.7891,325.2554,542.7891,321.2554,538.7891" style="stroke:#181818;stroke-width:1;"/><line style="stroke:#181818;stroke-width:1;stroke-dasharray:2.0,2.0;" x1="319.2554" x2="489.0425" y1="538.7891" y2="538.7891"/><text fill="#000000" font-family="sans-serif" font-size="13" lengthAdjust="spacing" textLength="86.0044" x="331.2554" y="533.9326">404 Not Found</text></g><g class="message" data-participant-1="App" data-participant-2="User"><polygon fill="#181818" points="84.5757,565.1406,74.5757,569.1406,84.5757,573.1406,80.5757,569.1406" style="stroke:#181818;stroke-width:1;"/><line style="stroke:#181818;stroke-width:1;stroke-dasharray:2.0,2.0;" x1="78.5757" x2="303.2554" y1="569.1406" y2="569.1406"/><text fill="#000000" font-family="sans-serif" font-size="13" lengthAdjust="spacing" textLength="143.0825" x="90.5757" y="564.2842">Recipient not found error</text></g><line style="stroke:#000000;stroke-width:1;stroke-dasharray:2.0,2.0;" x1="10" x2="1089.3091" y1="578.1406" y2="578.1406"/><text fill="#000000" font-family="sans-serif" font-size="11" font-weight="bold" lengthAdjust="spacing" textLength="84.9438" x="15" y="589.5596">[Invalid amount]</text><g class="message" data-participant-1="UserService" data-participant-2="TransService"><polygon fill="#181818" points="668.665,611.3281,658.665,615.3281,668.665,619.3281,664.665,615.3281" style="stroke:#181818;stroke-width:1;"/><line style="stroke:#181818;stroke-width:1;stroke-dasharray:2.0,2.0;" x1="662.665" x2="803.4858" y1="615.3281" y2="615.3281"/><text fill="#000000" font-family="sans-serif" font-size="13" lengthAdjust="spacing" textLength="91.0381" x="674.665" y="610.4717">Recipient exists</text></g><g class="message" data-participant-1="TransService" data-participant-2="TransService"><line style="stroke:#181818;stroke-width:1;" x1="657.665" x2="699.665" y1="645.6797" y2="645.6797"/><line style="stroke:#181818;stroke-width:1;" x1="699.665" x2="699.665" y1="645.6797" y2="658.6797"/><line style="stroke:#181818;stroke-width:1;" x1="658.665" x2="699.665" y1="658.6797" y2="658.6797"/><polygon fill="#181818" points="668.665,654.6797,658.665,658.6797,668.665,662.6797,664.665,658.6797" style="stroke:#181818;stroke-width:1;"/><text fill="#000000" font-family="sans-serif" font-size="13" lengthAdjust="spacing" textLength="93.9517" x="664.665" y="640.8232">Validate amount</text></g><g class="message" data-participant-1="TransService" data-participant-2="Gateway"><polygon fill="#181818" points="511.0425,685.0313,501.0425,689.0313,511.0425,693.0313,507.0425,689.0313" style="stroke:#181818;stroke-width:1;"/><line style="stroke:#181818;stroke-width:1;stroke-dasharray:2.0,2.0;" x1="505.0425" x2="646.665" y1="689.0313" y2="689.0313"/><text fill="#000000" font-family="sans-serif" font-size="13" lengthAdjust="spacing" textLength="100.4644" x="517.0425" y="684.1748">400 Bad Request</text></g><g class="message" data-participant-1="Gateway" data-participant-2="App"><polygon fill="#181818" points="325.2554,715.3828,315.2554,719.3828,325.2554,723.3828,321.2554,719.3828" style="stroke:#181818;stroke-width:1;"/><line style="stroke:#181818;stroke-width:1;stroke-dasharray:2.0,2.0;" x1="319.2554" x2="489.0425" y1="719.3828" y2="719.3828"/><text fill="#000000" font-family="sans-serif" font-size="13" lengthAdjust="spacing" textLength="100.4644" x="331.2554" y="714.5264">400 Bad Request</text></g><g class="message" data-participant-1="App" data-participant-2="User"><polygon fill="#181818" points="84.5757,745.7344,74.5757,749.7344,84.5757,753.7344,80.5757,749.7344" style="stroke:#181818;stroke-width:1;"/><line style="stroke:#181818;stroke-width:1;stroke-dasharray:2.0,2.0;" x1="78.5757" x2="303.2554" y1="749.7344" y2="749.7344"/><text fill="#000000" font-family="sans-serif" font-size="13" lengthAdjust="spacing" textLength="115.6099" x="90.5757" y="744.8779">Invalid amount error</text></g><line style="stroke:#000000;stroke-width:1;stroke-dasharray:2.0,2.0;" x1="10" x2="1089.3091" y1="758.7344" y2="758.7344"/><text fill="#000000" font-family="sans-serif" font-size="11" font-weight="bold" lengthAdjust="spacing" textLength="51.9707" x="15" y="770.1533">[Success]</text><g class="message" data-participant-1="UserService" data-participant-2="TransService"><polygon fill="#181818" points="668.665,791.9219,658.665,795.9219,668.665,799.9219,664.665,795.9219" style="stroke:#181818;stroke-width:1;"/><line style="stroke:#181818;stroke-width:1;stroke-dasharray:2.0,2.0;" x1="662.665" x2="803.4858" y1="795.9219" y2="795.9219"/><text fill="#000000" font-family="sans-serif" font-size="13" lengthAdjust="spacing" textLength="91.0381" x="674.665" y="791.0654">Recipient exists</text></g><g class="message" data-participant-1="TransService" data-participant-2="DB"><polygon fill="#181818" points="1025.3438,822.2734,1035.3438,826.2734,1025.3438,830.2734,1029.3438,826.2734" style="stroke:#181818;stroke-width:1;"/><line style="stroke:#181818;stroke-width:1;" x1="657.665" x2="1031.3438" y1="826.2734" y2="826.2734"/><text fill="#000000" font-family="sans-serif" font-size="13" lengthAdjust="spacing" textLength="169.0825" x="664.665" y="821.417">Create money request record</text></g><g class="message" data-participant-1="DB" data-participant-2="TransService"><polygon fill="#181818" points="668.665,852.625,658.665,856.625,668.665,860.625,664.665,856.625" style="stroke:#181818;stroke-width:1;"/><line style="stroke:#181818;stroke-width:1;stroke-dasharray:2.0,2.0;" x1="662.665" x2="1041.3438" y1="856.625" y2="856.625"/><text fill="#000000" font-family="sans-serif" font-size="13" lengthAdjust="spacing" textLength="49.1309" x="674.665" y="851.7686">Success</text></g><g class="message" data-participant-1="TransService" data-participant-2="NotifService"><polygon fill="#181818" points="911.4648,882.9766,921.4648,886.9766,911.4648,890.9766,915.4648,886.9766" style="stroke:#181818;stroke-width:1;"/><line style="stroke:#181818;stroke-width:1;" x1="657.665" x2="917.4648" y1="886.9766" y2="886.9766"/><text fill="#000000" font-family="sans-serif" font-size="13" lengthAdjust="spacing" textLength="210.2979" x="664.665" y="882.1201">Send request notification to recipient</text></g><g class="message" data-participant-1="NotifService" data-participant-2="TransService"><polygon fill="#181818" points="668.665,913.3281,658.665,917.3281,668.665,921.3281,664.665,917.3281" style="stroke:#181818;stroke-width:1;"/><line style="stroke:#181818;stroke-width:1;stroke-dasharray:2.0,2.0;" x1="662.665" x2="927.4648" y1="917.3281" y2="917.3281"/><text fill="#000000" font-family="sans-serif" font-size="13" lengthAdjust="spacing" textLength="111.2998" x="674.665" y="912.4717">Notification queued</text></g><g class="message" data-participant-1="TransService" data-participant-2="Gateway"><polygon fill="#181818" points="511.0425,943.6797,501.0425,947.6797,511.0425,951.6797,507.0425,947.6797" style="stroke:#181818;stroke-width:1;"/><line style="stroke:#181818;stroke-width:1;stroke-dasharray:2.0,2.0;" x1="505.0425" x2="651.665" y1="947.6797" y2="947.6797"/><text fill="#000000" font-family="sans-serif" font-size="13" lengthAdjust="spacing" textLength="95.3926" x="517.0425" y="942.8232">Request created</text></g><g class="message" data-participant-1="Gateway" data-participant-2="App"><polygon fill="#181818" points="325.2554,974.0313,315.2554,978.0313,325.2554,982.0313,321.2554,978.0313" style="stroke:#181818;stroke-width:1;"/><line style="stroke:#181818;stroke-width:1;stroke-dasharray:2.0,2.0;" x1="319.2554" x2="494.0425" y1="978.0313" y2="978.0313"/><text fill="#000000" font-family="sans-serif" font-size="13" lengthAdjust="spacing" textLength="71.5508" x="331.2554" y="973.1748">201 Created</text></g><g class="message" data-participant-1="App" data-participant-2="User"><polygon fill="#181818" points="84.5757,1004.3828,74.5757,1008.3828,84.5757,1012.3828,80.5757,1008.3828" style="stroke:#181818;stroke-width:1;"/><line style="stroke:#181818;stroke-width:1;stroke-dasharray:2.0,2.0;" x1="78.5757" x2="308.2554" y1="1008.3828" y2="1008.3828"/><text fill="#000000" font-family="sans-serif" font-size="13" lengthAdjust="spacing" textLength="117.0444" x="90.5757" y="1003.5264">Display confirmation</text></g><!--SRC=[lLJ1SjCm4BthAtPo9jEqqrCEp3GrPNe0CadBVP4teC6HZ2G7ylTe5TcHOWU62pd4jlpsxTjzwqNfZONPXhugvybI3Q-Ex0pGnHlHelLAgXQrXzaJDiwiyGWFRHiXuLeY7jRFy1uz_SHZ1AJx4lHYKJkKNXaDMx879Ic2utawA2DOIW7bWqdaH-FLJaaSaSSNao4LUlo2xWIhLa9uvHk2ryVvxTqIDlIZ8-VXWz5q528gcR_bofU1lo7fmIR8dY5WMiujkBv3g3xsI8I_8QfIhcr24_kmdR7xalUT3bQ4zq6X8ktV0EvD5w-w3iVe0d_E-1aRLNCkfTlkH8X-I9eyMCBwq_O5Rh1LDr7fF0bmPwszNIBTS7ZkoX8UG_e0F9MQ2CxnXOCYVsAcpBIWcQpQ7Sz50lrIXPRSOf4zC5Er2ag-aVn-ZZy71Wkh5Sml4sw6JA5LA6hA0mGsFaDemrtiT2qW_8haeuvSYoghptsuNzppECBJW1tQtJiwXaGpKqsJIO6iDLPGumYUzO578itDFnMHRE2Gh4Mv6Vngei9Boc4eCn5_wia2LbZtdzkrhen1PL_AmlEMR3ifoRd_rOiueHFV2W-iiITBym7avpIrfPfSTpcpLtFdguwNL5mQf-mwNu_UP9zF8QXOblmcFvWGMMpTaAcZ-bBmYF8l0z7lNHcREA8hDir0DvgOkyLjic74qE-w8RYSf7vBIwDtYlSfB_KB2bxjeRlYDm00]--></g></svg>