<svg xmlns="http://www.w3.org/2000/svg" xmlns:xlink="http://www.w3.org/1999/xlink" contentStyleType="text/css" data-diagram-type="SEQUENCE" height="1655px" preserveAspectRatio="none" style="width:988px;height:1655px;background:#FFFFFF;" version="1.1" viewBox="0 0 988 1655" width="988px" zoomAndPan="magnify"><title>UC-13/14: Add Recipients to Favorites and Delete Favorite</title><defs/><g><text fill="#000000" font-family="sans-serif" font-size="14" font-weight="bold" lengthAdjust="spacing" textLength="386.6543" x="301.9102" y="29.5332">UC-13/14: Add Recipients to Favorites and Delete Favorite</text><g><title>FalsoPay App</title><rect fill="#FFFFFF" height="1410.4922" style="stroke:#181818;stroke-width:1;" width="10" x="327.439" y="153.5703"/></g><g><title>FalsoPay App</title><rect fill="#FFFFFF" height="678.5703" style="stroke:#181818;stroke-width:1;" width="10" x="332.439" y="869.4922"/></g><g><title>API Gateway</title><rect fill="#FFFFFF" height="151.7578" style="stroke:#181818;stroke-width:1;" width="10" x="563.7642" y="183.9219"/></g><g><title>API Gateway</title><rect fill="#FFFFFF" height="344.7031" style="stroke:#181818;stroke-width:1;" width="10" x="563.7642" y="457.0859"/></g><g><title>API Gateway</title><rect fill="#FFFFFF" height="151.7578" style="stroke:#181818;stroke-width:1;" width="10" x="563.7642" y="899.8438"/></g><g><title>API Gateway</title><rect fill="#FFFFFF" height="344.7031" style="stroke:#181818;stroke-width:1;" width="10" x="563.7642" y="1173.0078"/></g><g><title>Contact Service</title><rect fill="#FFFFFF" height="91.0547" style="stroke:#181818;stroke-width:1;" width="10" x="740.8276" y="214.2734"/></g><g><title>Contact Service</title><rect fill="#FFFFFF" height="284" style="stroke:#181818;stroke-width:1;" width="10" x="740.8276" y="487.4375"/></g><g><title>Contact Service</title><rect fill="#FFFFFF" height="91.0547" style="stroke:#181818;stroke-width:1;" width="10" x="740.8276" y="930.1953"/></g><g><title>Contact Service</title><rect fill="#FFFFFF" height="284" style="stroke:#181818;stroke-width:1;" width="10" x="740.8276" y="1203.3594"/></g><g><title>Database</title><rect fill="#FFFFFF" height="30.3516" style="stroke:#181818;stroke-width:1;" width="10" x="929.5093" y="244.625"/></g><g><title>Database</title><rect fill="#FFFFFF" height="30.3516" style="stroke:#181818;stroke-width:1;" width="10" x="929.5093" y="517.7891"/></g><g><title>Database</title><rect fill="#FFFFFF" height="30.3516" style="stroke:#181818;stroke-width:1;" width="10" x="929.5093" y="710.7344"/></g><g><title>Database</title><rect fill="#FFFFFF" height="30.3516" style="stroke:#181818;stroke-width:1;" width="10" x="929.5093" y="960.5469"/></g><g><title>Database</title><rect fill="#FFFFFF" height="30.3516" style="stroke:#181818;stroke-width:1;" width="10" x="929.5093" y="1259.0625"/></g><g><title>Database</title><rect fill="#FFFFFF" height="30.3516" style="stroke:#181818;stroke-width:1;" width="10" x="929.5093" y="1426.6563"/></g><rect fill="none" height="277" style="stroke:#000000;stroke-width:1.5;" width="971.4746" x="10" y="563.1406"/><rect fill="none" height="337.7031" style="stroke:#000000;stroke-width:1.5;" width="971.4746" x="10" y="1218.3594"/><g><title>Registered User</title><rect fill="#000000" fill-opacity="0.00000" height="1451.8438" width="8" x="69.5757" y="121.2188"/><line style="stroke:#181818;stroke-width:0.5;stroke-dasharray:5.0,5.0;" x1="73" x2="73" y1="121.2188" y2="1573.0625"/></g><g><title>FalsoPay App</title><rect fill="#000000" fill-opacity="0.00000" height="1451.8438" width="8" x="328.439" y="121.2188"/><line style="stroke:#181818;stroke-width:0.5;stroke-dasharray:5.0,5.0;" x1="331.8599" x2="331.8599" y1="121.2188" y2="1573.0625"/></g><g><title>API Gateway</title><rect fill="#000000" fill-opacity="0.00000" height="1451.8438" width="8" x="564.7642" y="121.2188"/><line style="stroke:#181818;stroke-width:0.5;stroke-dasharray:5.0,5.0;" x1="567.9126" x2="567.9126" y1="121.2188" y2="1573.0625"/></g><g><title>Contact Service</title><rect fill="#000000" fill-opacity="0.00000" height="1451.8438" width="8" x="741.8276" y="121.2188"/><line style="stroke:#181818;stroke-width:0.5;stroke-dasharray:5.0,5.0;" x1="745.4175" x2="745.4175" y1="121.2188" y2="1573.0625"/></g><g><title>Database</title><rect fill="#000000" fill-opacity="0.00000" height="1451.8438" width="8" x="930.5093" y="121.2188"/><line style="stroke:#181818;stroke-width:0.5;stroke-dasharray:5.0,5.0;" x1="933.5439" x2="933.5439" y1="121.2188" y2="1573.0625"/></g><g class="participant participant-head" data-participant="User"><text fill="#000000" font-family="sans-serif" font-size="14" lengthAdjust="spacing" textLength="101.1514" x="20" y="118.1426">Registered User</text><ellipse cx="73.5757" cy="52.1094" fill="#E2E2F0" rx="8" ry="8" style="stroke:#181818;stroke-width:0.5;"/><path d="M73.5757,60.1094 L73.5757,87.1094 M60.5757,68.1094 L86.5757,68.1094 M73.5757,87.1094 L60.5757,102.1094 M73.5757,87.1094 L86.5757,102.1094" fill="none" style="stroke:#181818;stroke-width:0.5;"/></g><g class="participant participant-tail" data-participant="User"><text fill="#000000" font-family="sans-serif" font-size="14" lengthAdjust="spacing" textLength="101.1514" x="20" y="1586.5957">Registered User</text><ellipse cx="73.5757" cy="1598.1719" fill="#E2E2F0" rx="8" ry="8" style="stroke:#181818;stroke-width:0.5;"/><path d="M73.5757,1606.1719 L73.5757,1633.1719 M60.5757,1614.1719 L86.5757,1614.1719 M73.5757,1633.1719 L60.5757,1648.1719 M73.5757,1633.1719 L86.5757,1648.1719" fill="none" style="stroke:#181818;stroke-width:0.5;"/></g><g class="participant participant-head" data-participant="App"><rect fill="#E2E2F0" height="31.6094" rx="2.5" ry="2.5" style="stroke:#181818;stroke-width:0.5;" width="101.1582" x="281.8599" y="88.6094"/><text fill="#000000" font-family="sans-serif" font-size="14" lengthAdjust="spacing" textLength="87.1582" x="288.8599" y="110.1426">FalsoPay App</text></g><g class="participant participant-tail" data-participant="App"><rect fill="#E2E2F0" height="31.6094" rx="2.5" ry="2.5" style="stroke:#181818;stroke-width:0.5;" width="101.1582" x="281.8599" y="1572.0625"/><text fill="#000000" font-family="sans-serif" font-size="14" lengthAdjust="spacing" textLength="87.1582" x="288.8599" y="1593.5957">FalsoPay App</text></g><g class="participant participant-head" data-participant="Gateway"><rect fill="#E2E2F0" height="31.6094" rx="2.5" ry="2.5" style="stroke:#181818;stroke-width:0.5;" width="95.7031" x="520.9126" y="88.6094"/><text fill="#000000" font-family="sans-serif" font-size="14" lengthAdjust="spacing" textLength="81.7031" x="527.9126" y="110.1426">API Gateway</text></g><g class="participant participant-tail" data-participant="Gateway"><rect fill="#E2E2F0" height="31.6094" rx="2.5" ry="2.5" style="stroke:#181818;stroke-width:0.5;" width="95.7031" x="520.9126" y="1572.0625"/><text fill="#000000" font-family="sans-serif" font-size="14" lengthAdjust="spacing" textLength="81.7031" x="527.9126" y="1593.5957">API Gateway</text></g><g class="participant participant-head" data-participant="ContactService"><rect fill="#E2E2F0" height="31.6094" rx="2.5" ry="2.5" style="stroke:#181818;stroke-width:0.5;" width="112.8203" x="689.4175" y="88.6094"/><text fill="#000000" font-family="sans-serif" font-size="14" lengthAdjust="spacing" textLength="98.8203" x="696.4175" y="110.1426">Contact Service</text></g><g class="participant participant-tail" data-participant="ContactService"><rect fill="#E2E2F0" height="31.6094" rx="2.5" ry="2.5" style="stroke:#181818;stroke-width:0.5;" width="112.8203" x="689.4175" y="1572.0625"/><text fill="#000000" font-family="sans-serif" font-size="14" lengthAdjust="spacing" textLength="98.8203" x="696.4175" y="1593.5957">Contact Service</text></g><g class="participant participant-head" data-participant="DB"><rect fill="#E2E2F0" height="31.6094" rx="2.5" ry="2.5" style="stroke:#181818;stroke-width:0.5;" width="73.9307" x="897.5439" y="88.6094"/><text fill="#000000" font-family="sans-serif" font-size="14" lengthAdjust="spacing" textLength="59.9307" x="904.5439" y="110.1426">Database</text></g><g class="participant participant-tail" data-participant="DB"><rect fill="#E2E2F0" height="31.6094" rx="2.5" ry="2.5" style="stroke:#181818;stroke-width:0.5;" width="73.9307" x="897.5439" y="1572.0625"/><text fill="#000000" font-family="sans-serif" font-size="14" lengthAdjust="spacing" textLength="59.9307" x="904.5439" y="1593.5957">Database</text></g><g><title>FalsoPay App</title><rect fill="#FFFFFF" height="1410.4922" style="stroke:#181818;stroke-width:1;" width="10" x="327.439" y="153.5703"/></g><g><title>FalsoPay App</title><rect fill="#FFFFFF" height="678.5703" style="stroke:#181818;stroke-width:1;" width="10" x="332.439" y="869.4922"/></g><g><title>API Gateway</title><rect fill="#FFFFFF" height="151.7578" style="stroke:#181818;stroke-width:1;" width="10" x="563.7642" y="183.9219"/></g><g><title>API Gateway</title><rect fill="#FFFFFF" height="344.7031" style="stroke:#181818;stroke-width:1;" width="10" x="563.7642" y="457.0859"/></g><g><title>API Gateway</title><rect fill="#FFFFFF" height="151.7578" style="stroke:#181818;stroke-width:1;" width="10" x="563.7642" y="899.8438"/></g><g><title>API Gateway</title><rect fill="#FFFFFF" height="344.7031" style="stroke:#181818;stroke-width:1;" width="10" x="563.7642" y="1173.0078"/></g><g><title>Contact Service</title><rect fill="#FFFFFF" height="91.0547" style="stroke:#181818;stroke-width:1;" width="10" x="740.8276" y="214.2734"/></g><g><title>Contact Service</title><rect fill="#FFFFFF" height="284" style="stroke:#181818;stroke-width:1;" width="10" x="740.8276" y="487.4375"/></g><g><title>Contact Service</title><rect fill="#FFFFFF" height="91.0547" style="stroke:#181818;stroke-width:1;" width="10" x="740.8276" y="930.1953"/></g><g><title>Contact Service</title><rect fill="#FFFFFF" height="284" style="stroke:#181818;stroke-width:1;" width="10" x="740.8276" y="1203.3594"/></g><g><title>Database</title><rect fill="#FFFFFF" height="30.3516" style="stroke:#181818;stroke-width:1;" width="10" x="929.5093" y="244.625"/></g><g><title>Database</title><rect fill="#FFFFFF" height="30.3516" style="stroke:#181818;stroke-width:1;" width="10" x="929.5093" y="517.7891"/></g><g><title>Database</title><rect fill="#FFFFFF" height="30.3516" style="stroke:#181818;stroke-width:1;" width="10" x="929.5093" y="710.7344"/></g><g><title>Database</title><rect fill="#FFFFFF" height="30.3516" style="stroke:#181818;stroke-width:1;" width="10" x="929.5093" y="960.5469"/></g><g><title>Database</title><rect fill="#FFFFFF" height="30.3516" style="stroke:#181818;stroke-width:1;" width="10" x="929.5093" y="1259.0625"/></g><g><title>Database</title><rect fill="#FFFFFF" height="30.3516" style="stroke:#181818;stroke-width:1;" width="10" x="929.5093" y="1426.6563"/></g><g class="message" data-participant-1="User" data-participant-2="App"><polygon fill="#181818" points="315.439,149.5703,325.439,153.5703,315.439,157.5703,319.439,153.5703" style="stroke:#181818;stroke-width:1;"/><line style="stroke:#181818;stroke-width:1;" x1="73.5757" x2="321.439" y1="153.5703" y2="153.5703"/><text fill="#000000" font-family="sans-serif" font-size="13" lengthAdjust="spacing" textLength="234.8633" x="80.5757" y="148.7139">Select option to add recipient to favorites</text></g><g class="message" data-participant-1="App" data-participant-2="Gateway"><polygon fill="#181818" points="551.7642,179.9219,561.7642,183.9219,551.7642,187.9219,555.7642,183.9219" style="stroke:#181818;stroke-width:1;"/><line style="stroke:#181818;stroke-width:1;" x1="337.439" x2="557.7642" y1="183.9219" y2="183.9219"/><text fill="#000000" font-family="sans-serif" font-size="13" lengthAdjust="spacing" textLength="103.3208" x="344.439" y="179.0654">GET /api/contacts</text></g><g class="message" data-participant-1="Gateway" data-participant-2="ContactService"><polygon fill="#181818" points="728.8276,210.2734,738.8276,214.2734,728.8276,218.2734,732.8276,214.2734" style="stroke:#181818;stroke-width:1;"/><line style="stroke:#181818;stroke-width:1;" x1="573.7642" x2="734.8276" y1="214.2734" y2="214.2734"/><text fill="#000000" font-family="sans-serif" font-size="13" lengthAdjust="spacing" textLength="114.8799" x="580.7642" y="209.417">Get contacts/history</text></g><g class="message" data-participant-1="ContactService" data-participant-2="DB"><polygon fill="#181818" points="917.5093,240.625,927.5093,244.625,917.5093,248.625,921.5093,244.625" style="stroke:#181818;stroke-width:1;"/><line style="stroke:#181818;stroke-width:1;" x1="750.8276" x2="923.5093" y1="244.625" y2="244.625"/><text fill="#000000" font-family="sans-serif" font-size="13" lengthAdjust="spacing" textLength="127.1689" x="757.8276" y="239.7686">Query recent contacts</text></g><g class="message" data-participant-1="DB" data-participant-2="ContactService"><polygon fill="#181818" points="761.8276,270.9766,751.8276,274.9766,761.8276,278.9766,757.8276,274.9766" style="stroke:#181818;stroke-width:1;"/><line style="stroke:#181818;stroke-width:1;stroke-dasharray:2.0,2.0;" x1="755.8276" x2="933.5093" y1="274.9766" y2="274.9766"/><text fill="#000000" font-family="sans-serif" font-size="13" lengthAdjust="spacing" textLength="64.3018" x="767.8276" y="270.1201">Contact list</text></g><g class="message" data-participant-1="ContactService" data-participant-2="Gateway"><polygon fill="#181818" points="584.7642,301.3281,574.7642,305.3281,584.7642,309.3281,580.7642,305.3281" style="stroke:#181818;stroke-width:1;"/><line style="stroke:#181818;stroke-width:1;stroke-dasharray:2.0,2.0;" x1="578.7642" x2="744.8276" y1="305.3281" y2="305.3281"/><text fill="#000000" font-family="sans-serif" font-size="13" lengthAdjust="spacing" textLength="64.3018" x="590.7642" y="300.4717">Contact list</text></g><g class="message" data-participant-1="Gateway" data-participant-2="App"><polygon fill="#181818" points="348.439,331.6797,338.439,335.6797,348.439,339.6797,344.439,335.6797" style="stroke:#181818;stroke-width:1;"/><line style="stroke:#181818;stroke-width:1;stroke-dasharray:2.0,2.0;" x1="342.439" x2="567.7642" y1="335.6797" y2="335.6797"/><text fill="#000000" font-family="sans-serif" font-size="13" lengthAdjust="spacing" textLength="122.8398" x="354.439" y="330.8232">200 OK with contacts</text></g><g class="message" data-participant-1="App" data-participant-2="User"><polygon fill="#181818" points="84.5757,362.0313,74.5757,366.0313,84.5757,370.0313,80.5757,366.0313" style="stroke:#181818;stroke-width:1;"/><line style="stroke:#181818;stroke-width:1;stroke-dasharray:2.0,2.0;" x1="78.5757" x2="326.439" y1="366.0313" y2="366.0313"/><text fill="#000000" font-family="sans-serif" font-size="13" lengthAdjust="spacing" textLength="114.1499" x="90.5757" y="361.1748">Display contacts list</text></g><g class="message" data-participant-1="User" data-participant-2="App"><polygon fill="#181818" points="315.439,392.3828,325.439,396.3828,315.439,400.3828,319.439,396.3828" style="stroke:#181818;stroke-width:1;"/><line style="stroke:#181818;stroke-width:1;" x1="73.5757" x2="321.439" y1="396.3828" y2="396.3828"/><text fill="#000000" font-family="sans-serif" font-size="13" lengthAdjust="spacing" textLength="88.8799" x="80.5757" y="391.5264">Select recipient</text></g><g class="message" data-participant-1="User" data-participant-2="App"><polygon fill="#181818" points="315.439,422.7344,325.439,426.7344,315.439,430.7344,319.439,426.7344" style="stroke:#181818;stroke-width:1;"/><line style="stroke:#181818;stroke-width:1;" x1="73.5757" x2="321.439" y1="426.7344" y2="426.7344"/><text fill="#000000" font-family="sans-serif" font-size="13" lengthAdjust="spacing" textLength="150.2998" x="80.5757" y="421.8779">Optionally enter nickname</text></g><g class="message" data-participant-1="App" data-participant-2="Gateway"><polygon fill="#181818" points="551.7642,453.0859,561.7642,457.0859,551.7642,461.0859,555.7642,457.0859" style="stroke:#181818;stroke-width:1;"/><line style="stroke:#181818;stroke-width:1;" x1="337.439" x2="557.7642" y1="457.0859" y2="457.0859"/><text fill="#000000" font-family="sans-serif" font-size="13" lengthAdjust="spacing" textLength="164.7344" x="344.439" y="452.2295">POST /api/contacts/favorites</text></g><g class="message" data-participant-1="Gateway" data-participant-2="ContactService"><polygon fill="#181818" points="728.8276,483.4375,738.8276,487.4375,728.8276,491.4375,732.8276,487.4375" style="stroke:#181818;stroke-width:1;"/><line style="stroke:#181818;stroke-width:1;" x1="573.7642" x2="734.8276" y1="487.4375" y2="487.4375"/><text fill="#000000" font-family="sans-serif" font-size="13" lengthAdjust="spacing" textLength="90.3271" x="580.7642" y="482.5811">Add to favorites</text></g><g class="message" data-participant-1="ContactService" data-participant-2="DB"><polygon fill="#181818" points="917.5093,513.7891,927.5093,517.7891,917.5093,521.7891,921.5093,517.7891" style="stroke:#181818;stroke-width:1;"/><line style="stroke:#181818;stroke-width:1;" x1="750.8276" x2="923.5093" y1="517.7891" y2="517.7891"/><text fill="#000000" font-family="sans-serif" font-size="13" lengthAdjust="spacing" textLength="159.6816" x="757.8276" y="512.9326">Check if already in favorites</text></g><g class="message" data-participant-1="DB" data-participant-2="ContactService"><polygon fill="#181818" points="761.8276,544.1406,751.8276,548.1406,761.8276,552.1406,757.8276,548.1406" style="stroke:#181818;stroke-width:1;"/><line style="stroke:#181818;stroke-width:1;stroke-dasharray:2.0,2.0;" x1="755.8276" x2="933.5093" y1="548.1406" y2="548.1406"/><text fill="#000000" font-family="sans-serif" font-size="13" lengthAdjust="spacing" textLength="95.3545" x="767.8276" y="543.2842">Exists/Not exists</text></g><path d="M10,563.1406 L70.1709,563.1406 L70.1709,571.4922 L60.1709,581.4922 L10,581.4922 L10,563.1406" fill="#EEEEEE" style="stroke:#000000;stroke-width:1.5;"/><rect fill="none" height="277" style="stroke:#000000;stroke-width:1.5;" width="971.4746" x="10" y="563.1406"/><text fill="#000000" font-family="sans-serif" font-size="13" font-weight="bold" lengthAdjust="spacing" textLength="15.1709" x="25" y="577.6357">alt</text><text fill="#000000" font-family="sans-serif" font-size="11" font-weight="bold" lengthAdjust="spacing" textLength="109.4199" x="85.1709" y="576.5596">[Already in favorites]</text><g class="message" data-participant-1="ContactService" data-participant-2="Gateway"><polygon fill="#181818" points="584.7642,599.8438,574.7642,603.8438,584.7642,607.8438,580.7642,603.8438" style="stroke:#181818;stroke-width:1;"/><line style="stroke:#181818;stroke-width:1;stroke-dasharray:2.0,2.0;" x1="578.7642" x2="739.8276" y1="603.8438" y2="603.8438"/><text fill="#000000" font-family="sans-serif" font-size="13" lengthAdjust="spacing" textLength="68.6499" x="590.7642" y="598.9873">409 Conflict</text></g><g class="message" data-participant-1="Gateway" data-participant-2="App"><polygon fill="#181818" points="348.439,630.1953,338.439,634.1953,348.439,638.1953,344.439,634.1953" style="stroke:#181818;stroke-width:1;"/><line style="stroke:#181818;stroke-width:1;stroke-dasharray:2.0,2.0;" x1="342.439" x2="562.7642" y1="634.1953" y2="634.1953"/><text fill="#000000" font-family="sans-serif" font-size="13" lengthAdjust="spacing" textLength="68.6499" x="354.439" y="629.3389">409 Conflict</text></g><g class="message" data-participant-1="App" data-participant-2="User"><polygon fill="#181818" points="84.5757,660.5469,74.5757,664.5469,84.5757,668.5469,80.5757,664.5469" style="stroke:#181818;stroke-width:1;"/><line style="stroke:#181818;stroke-width:1;stroke-dasharray:2.0,2.0;" x1="78.5757" x2="326.439" y1="664.5469" y2="664.5469"/><text fill="#000000" font-family="sans-serif" font-size="13" lengthAdjust="spacing" textLength="222.3774" x="90.5757" y="659.6904">Display "Already in favorites" message</text></g><line style="stroke:#000000;stroke-width:1;stroke-dasharray:2.0,2.0;" x1="10" x2="981.4746" y1="673.5469" y2="673.5469"/><text fill="#000000" font-family="sans-serif" font-size="11" font-weight="bold" lengthAdjust="spacing" textLength="51.9707" x="15" y="684.9658">[Success]</text><g class="message" data-participant-1="ContactService" data-participant-2="DB"><polygon fill="#181818" points="917.5093,706.7344,927.5093,710.7344,917.5093,714.7344,921.5093,710.7344" style="stroke:#181818;stroke-width:1;"/><line style="stroke:#181818;stroke-width:1;" x1="750.8276" x2="923.5093" y1="710.7344" y2="710.7344"/><text fill="#000000" font-family="sans-serif" font-size="13" lengthAdjust="spacing" textLength="96.8271" x="757.8276" y="705.8779">Save to favorites</text></g><g class="message" data-participant-1="DB" data-participant-2="ContactService"><polygon fill="#181818" points="761.8276,737.0859,751.8276,741.0859,761.8276,745.0859,757.8276,741.0859" style="stroke:#181818;stroke-width:1;"/><line style="stroke:#181818;stroke-width:1;stroke-dasharray:2.0,2.0;" x1="755.8276" x2="933.5093" y1="741.0859" y2="741.0859"/><text fill="#000000" font-family="sans-serif" font-size="13" lengthAdjust="spacing" textLength="49.1309" x="767.8276" y="736.2295">Success</text></g><g class="message" data-participant-1="ContactService" data-participant-2="Gateway"><polygon fill="#181818" points="584.7642,767.4375,574.7642,771.4375,584.7642,775.4375,580.7642,771.4375" style="stroke:#181818;stroke-width:1;"/><line style="stroke:#181818;stroke-width:1;stroke-dasharray:2.0,2.0;" x1="578.7642" x2="744.8276" y1="771.4375" y2="771.4375"/><text fill="#000000" font-family="sans-serif" font-size="13" lengthAdjust="spacing" textLength="71.5508" x="590.7642" y="766.5811">201 Created</text></g><g class="message" data-participant-1="Gateway" data-participant-2="App"><polygon fill="#181818" points="348.439,797.7891,338.439,801.7891,348.439,805.7891,344.439,801.7891" style="stroke:#181818;stroke-width:1;"/><line style="stroke:#181818;stroke-width:1;stroke-dasharray:2.0,2.0;" x1="342.439" x2="567.7642" y1="801.7891" y2="801.7891"/><text fill="#000000" font-family="sans-serif" font-size="13" lengthAdjust="spacing" textLength="71.5508" x="354.439" y="796.9326">201 Created</text></g><g class="message" data-participant-1="App" data-participant-2="User"><polygon fill="#181818" points="84.5757,828.1406,74.5757,832.1406,84.5757,836.1406,80.5757,832.1406" style="stroke:#181818;stroke-width:1;"/><line style="stroke:#181818;stroke-width:1;stroke-dasharray:2.0,2.0;" x1="78.5757" x2="326.439" y1="832.1406" y2="832.1406"/><text fill="#000000" font-family="sans-serif" font-size="13" lengthAdjust="spacing" textLength="117.0444" x="90.5757" y="827.2842">Display confirmation</text></g><g class="message" data-participant-1="User" data-participant-2="App"><polygon fill="#181818" points="320.439,865.4922,330.439,869.4922,320.439,873.4922,324.439,869.4922" style="stroke:#181818;stroke-width:1;"/><line style="stroke:#181818;stroke-width:1;" x1="73.5757" x2="326.439" y1="869.4922" y2="869.4922"/><text fill="#000000" font-family="sans-serif" font-size="13" lengthAdjust="spacing" textLength="114.1436" x="80.5757" y="864.6357">Access favorites list</text></g><g class="message" data-participant-1="App" data-participant-2="Gateway"><polygon fill="#181818" points="551.7642,895.8438,561.7642,899.8438,551.7642,903.8438,555.7642,899.8438" style="stroke:#181818;stroke-width:1;"/><line style="stroke:#181818;stroke-width:1;" x1="342.439" x2="557.7642" y1="899.8438" y2="899.8438"/><text fill="#000000" font-family="sans-serif" font-size="13" lengthAdjust="spacing" textLength="156.0635" x="349.439" y="894.9873">GET /api/contacts/favorites</text></g><g class="message" data-participant-1="Gateway" data-participant-2="ContactService"><polygon fill="#181818" points="728.8276,926.1953,738.8276,930.1953,728.8276,934.1953,732.8276,930.1953" style="stroke:#181818;stroke-width:1;"/><line style="stroke:#181818;stroke-width:1;" x1="573.7642" x2="734.8276" y1="930.1953" y2="930.1953"/><text fill="#000000" font-family="sans-serif" font-size="13" lengthAdjust="spacing" textLength="73.6963" x="580.7642" y="925.3389">Get favorites</text></g><g class="message" data-participant-1="ContactService" data-participant-2="DB"><polygon fill="#181818" points="917.5093,956.5469,927.5093,960.5469,917.5093,964.5469,921.5093,960.5469" style="stroke:#181818;stroke-width:1;"/><line style="stroke:#181818;stroke-width:1;" x1="750.8276" x2="923.5093" y1="960.5469" y2="960.5469"/><text fill="#000000" font-family="sans-serif" font-size="13" lengthAdjust="spacing" textLength="88.1436" x="757.8276" y="955.6904">Query favorites</text></g><g class="message" data-participant-1="DB" data-participant-2="ContactService"><polygon fill="#181818" points="761.8276,986.8984,751.8276,990.8984,761.8276,994.8984,757.8276,990.8984" style="stroke:#181818;stroke-width:1;"/><line style="stroke:#181818;stroke-width:1;stroke-dasharray:2.0,2.0;" x1="755.8276" x2="933.5093" y1="990.8984" y2="990.8984"/><text fill="#000000" font-family="sans-serif" font-size="13" lengthAdjust="spacing" textLength="72.96" x="767.8276" y="986.042">Favorites list</text></g><g class="message" data-participant-1="ContactService" data-participant-2="Gateway"><polygon fill="#181818" points="584.7642,1017.25,574.7642,1021.25,584.7642,1025.25,580.7642,1021.25" style="stroke:#181818;stroke-width:1;"/><line style="stroke:#181818;stroke-width:1;stroke-dasharray:2.0,2.0;" x1="578.7642" x2="744.8276" y1="1021.25" y2="1021.25"/><text fill="#000000" font-family="sans-serif" font-size="13" lengthAdjust="spacing" textLength="72.96" x="590.7642" y="1016.3936">Favorites list</text></g><g class="message" data-participant-1="Gateway" data-participant-2="App"><polygon fill="#181818" points="353.439,1047.6016,343.439,1051.6016,353.439,1055.6016,349.439,1051.6016" style="stroke:#181818;stroke-width:1;"/><line style="stroke:#181818;stroke-width:1;stroke-dasharray:2.0,2.0;" x1="347.439" x2="567.7642" y1="1051.6016" y2="1051.6016"/><text fill="#000000" font-family="sans-serif" font-size="13" lengthAdjust="spacing" textLength="123.5571" x="359.439" y="1046.7451">200 OK with favorites</text></g><g class="message" data-participant-1="App" data-participant-2="User"><polygon fill="#181818" points="84.5757,1077.9531,74.5757,1081.9531,84.5757,1085.9531,80.5757,1081.9531" style="stroke:#181818;stroke-width:1;"/><line style="stroke:#181818;stroke-width:1;stroke-dasharray:2.0,2.0;" x1="78.5757" x2="331.439" y1="1081.9531" y2="1081.9531"/><text fill="#000000" font-family="sans-serif" font-size="13" lengthAdjust="spacing" textLength="95.3672" x="90.5757" y="1077.0967">Display favorites</text></g><g class="message" data-participant-1="User" data-participant-2="App"><polygon fill="#181818" points="320.439,1108.3047,330.439,1112.3047,320.439,1116.3047,324.439,1112.3047" style="stroke:#181818;stroke-width:1;"/><line style="stroke:#181818;stroke-width:1;" x1="73.5757" x2="326.439" y1="1112.3047" y2="1112.3047"/><text fill="#000000" font-family="sans-serif" font-size="13" lengthAdjust="spacing" textLength="150.2935" x="80.5757" y="1107.4482">Select recipient to remove</text></g><g class="message" data-participant-1="User" data-participant-2="App"><polygon fill="#181818" points="320.439,1138.6563,330.439,1142.6563,320.439,1146.6563,324.439,1142.6563" style="stroke:#181818;stroke-width:1;"/><line style="stroke:#181818;stroke-width:1;" x1="73.5757" x2="326.439" y1="1142.6563" y2="1142.6563"/><text fill="#000000" font-family="sans-serif" font-size="13" lengthAdjust="spacing" textLength="94.6563" x="80.5757" y="1137.7998">Confirm deletion</text></g><g class="message" data-participant-1="App" data-participant-2="Gateway"><polygon fill="#181818" points="551.7642,1169.0078,561.7642,1173.0078,551.7642,1177.0078,555.7642,1173.0078" style="stroke:#181818;stroke-width:1;"/><line style="stroke:#181818;stroke-width:1;" x1="342.439" x2="557.7642" y1="1173.0078" y2="1173.0078"/><text fill="#000000" font-family="sans-serif" font-size="13" lengthAdjust="spacing" textLength="202.3252" x="349.439" y="1168.1514">DELETE /api/contacts/favorites/{id}</text></g><g class="message" data-participant-1="Gateway" data-participant-2="ContactService"><polygon fill="#181818" points="728.8276,1199.3594,738.8276,1203.3594,728.8276,1207.3594,732.8276,1203.3594" style="stroke:#181818;stroke-width:1;"/><line style="stroke:#181818;stroke-width:1;" x1="573.7642" x2="734.8276" y1="1203.3594" y2="1203.3594"/><text fill="#000000" font-family="sans-serif" font-size="13" lengthAdjust="spacing" textLength="130.7617" x="580.7642" y="1198.5029">Remove from favorites</text></g><path d="M10,1218.3594 L70.1709,1218.3594 L70.1709,1226.7109 L60.1709,1236.7109 L10,1236.7109 L10,1218.3594" fill="#EEEEEE" style="stroke:#000000;stroke-width:1.5;"/><rect fill="none" height="337.7031" style="stroke:#000000;stroke-width:1.5;" width="971.4746" x="10" y="1218.3594"/><text fill="#000000" font-family="sans-serif" font-size="13" font-weight="bold" lengthAdjust="spacing" textLength="15.1709" x="25" y="1232.8545">alt</text><text fill="#000000" font-family="sans-serif" font-size="11" font-weight="bold" lengthAdjust="spacing" textLength="79.4546" x="85.1709" y="1231.7783">[Deletion error]</text><g class="message" data-participant-1="ContactService" data-participant-2="DB"><polygon fill="#181818" points="917.5093,1255.0625,927.5093,1259.0625,917.5093,1263.0625,921.5093,1259.0625" style="stroke:#181818;stroke-width:1;"/><line style="stroke:#181818;stroke-width:1;" x1="750.8276" x2="923.5093" y1="1259.0625" y2="1259.0625"/><text fill="#000000" font-family="sans-serif" font-size="13" lengthAdjust="spacing" textLength="94.6499" x="757.8276" y="1254.2061">Remove favorite</text></g><g class="message" data-participant-1="DB" data-participant-2="ContactService"><polygon fill="#181818" points="761.8276,1285.4141,751.8276,1289.4141,761.8276,1293.4141,757.8276,1289.4141" style="stroke:#181818;stroke-width:1;"/><line style="stroke:#181818;stroke-width:1;stroke-dasharray:2.0,2.0;" x1="755.8276" x2="933.5093" y1="1289.4141" y2="1289.4141"/><text fill="#000000" font-family="sans-serif" font-size="13" lengthAdjust="spacing" textLength="28.8882" x="767.8276" y="1284.5576">Error</text></g><g class="message" data-participant-1="ContactService" data-participant-2="Gateway"><polygon fill="#181818" points="584.7642,1315.7656,574.7642,1319.7656,584.7642,1323.7656,580.7642,1319.7656" style="stroke:#181818;stroke-width:1;"/><line style="stroke:#181818;stroke-width:1;stroke-dasharray:2.0,2.0;" x1="578.7642" x2="739.8276" y1="1319.7656" y2="1319.7656"/><text fill="#000000" font-family="sans-serif" font-size="13" lengthAdjust="spacing" textLength="143.0635" x="590.7642" y="1314.9092">500 Internal Server Error</text></g><g class="message" data-participant-1="Gateway" data-participant-2="App"><polygon fill="#181818" points="353.439,1346.1172,343.439,1350.1172,353.439,1354.1172,349.439,1350.1172" style="stroke:#181818;stroke-width:1;"/><line style="stroke:#181818;stroke-width:1;stroke-dasharray:2.0,2.0;" x1="347.439" x2="562.7642" y1="1350.1172" y2="1350.1172"/><text fill="#000000" font-family="sans-serif" font-size="13" lengthAdjust="spacing" textLength="143.0635" x="359.439" y="1345.2607">500 Internal Server Error</text></g><g class="message" data-participant-1="App" data-participant-2="User"><polygon fill="#181818" points="84.5757,1376.4688,74.5757,1380.4688,84.5757,1384.4688,80.5757,1380.4688" style="stroke:#181818;stroke-width:1;"/><line style="stroke:#181818;stroke-width:1;stroke-dasharray:2.0,2.0;" x1="78.5757" x2="331.439" y1="1380.4688" y2="1380.4688"/><text fill="#000000" font-family="sans-serif" font-size="13" lengthAdjust="spacing" textLength="167.6289" x="90.5757" y="1375.6123">Display error and retry option</text></g><line style="stroke:#000000;stroke-width:1;stroke-dasharray:2.0,2.0;" x1="10" x2="981.4746" y1="1389.4688" y2="1389.4688"/><text fill="#000000" font-family="sans-serif" font-size="11" font-weight="bold" lengthAdjust="spacing" textLength="51.9707" x="15" y="1400.8877">[Success]</text><g class="message" data-participant-1="ContactService" data-participant-2="DB"><polygon fill="#181818" points="917.5093,1422.6563,927.5093,1426.6563,917.5093,1430.6563,921.5093,1426.6563" style="stroke:#181818;stroke-width:1;"/><line style="stroke:#181818;stroke-width:1;" x1="750.8276" x2="923.5093" y1="1426.6563" y2="1426.6563"/><text fill="#000000" font-family="sans-serif" font-size="13" lengthAdjust="spacing" textLength="94.6499" x="757.8276" y="1421.7998">Remove favorite</text></g><g class="message" data-participant-1="DB" data-participant-2="ContactService"><polygon fill="#181818" points="761.8276,1453.0078,751.8276,1457.0078,761.8276,1461.0078,757.8276,1457.0078" style="stroke:#181818;stroke-width:1;"/><line style="stroke:#181818;stroke-width:1;stroke-dasharray:2.0,2.0;" x1="755.8276" x2="933.5093" y1="1457.0078" y2="1457.0078"/><text fill="#000000" font-family="sans-serif" font-size="13" lengthAdjust="spacing" textLength="49.1309" x="767.8276" y="1452.1514">Success</text></g><g class="message" data-participant-1="ContactService" data-participant-2="Gateway"><polygon fill="#181818" points="584.7642,1483.3594,574.7642,1487.3594,584.7642,1491.3594,580.7642,1487.3594" style="stroke:#181818;stroke-width:1;"/><line style="stroke:#181818;stroke-width:1;stroke-dasharray:2.0,2.0;" x1="578.7642" x2="744.8276" y1="1487.3594" y2="1487.3594"/><text fill="#000000" font-family="sans-serif" font-size="13" lengthAdjust="spacing" textLength="44.0845" x="590.7642" y="1482.5029">200 OK</text></g><g class="message" data-participant-1="Gateway" data-participant-2="App"><polygon fill="#181818" points="353.439,1513.7109,343.439,1517.7109,353.439,1521.7109,349.439,1517.7109" style="stroke:#181818;stroke-width:1;"/><line style="stroke:#181818;stroke-width:1;stroke-dasharray:2.0,2.0;" x1="347.439" x2="567.7642" y1="1517.7109" y2="1517.7109"/><text fill="#000000" font-family="sans-serif" font-size="13" lengthAdjust="spacing" textLength="44.0845" x="359.439" y="1512.8545">200 OK</text></g><g class="message" data-participant-1="App" data-participant-2="User"><polygon fill="#181818" points="84.5757,1544.0625,74.5757,1548.0625,84.5757,1552.0625,80.5757,1548.0625" style="stroke:#181818;stroke-width:1;"/><line style="stroke:#181818;stroke-width:1;stroke-dasharray:2.0,2.0;" x1="78.5757" x2="326.439" y1="1548.0625" y2="1548.0625"/><text fill="#000000" font-family="sans-serif" font-size="13" lengthAdjust="spacing" textLength="117.0444" x="90.5757" y="1543.2061">Display confirmation</text></g><!--SRC=[fLPDRzim3BthLn2vR3iKJhhki1m69B5J51kMB6b_W6OpZL37DcGrhJ7ilu-Ilx-oEEaXbQL7YdoFfCrT5KeORV1Pn0ebUl0Kenm1Zys2HLmguOg81mf6I-x7uPedC8iY0w7_TSHi_G3tNE4RJmmWMzT1Yp1Gt5MmHNaKBXfWjfTjrV4sL_mtZrEWFMTC2UKZF2rk9f-joTqKPfu76oIum435e49OycCeXS8OUE21ZJugB3OP-s1CgZYciuMRRpgbAKNc8mKOHag4WSPnWily1hsnAmmfQd6aD0qPZ7wqboplATmxZs3nI5Xkcc05dtF3ieMsgzD0vgWWjxJs954eaz93WpHMVzR-xFaKVhsYJ7JqElHs64IeFOURZijpdNowbtbOjMXTLSsvpwuPRf5tJlljU0ohx_0crBuCjEAWOComJ5PQj2dO8evyyfERf1TtAbfeM3zT6Q6vxoT0PtGG2FSbu0TiwRbURHk2MXsbS8wqMGLsM9ydwsAFxWk87N1V8lSI446NitvvdNUYARP-XWhGB9iQSr_1hCivqD-f0hWRVzNdEr-uoe1RIhSGtOgEkguVmG7Zc3yZGpz6sBwwBZrt1fKojUL7h5EjiTLKzNCFIrNtTNxqpd-fk1rFO44vAFIQBXeo5-uwsgBNHrveXN5lP-o4F71TvGm3Jq_0nb24Z_Ykw0YzJ_NUc9dyI_BIxXeuzIvj4Zt_BkwGTF0DwebbFSi1Gw_VSj3OAwCzV-wLDgTddku1YOVmY7NS8gqEgYkg25qXJJbjvuVpwFGfQlqHtjzXicvC5B2JuU4SUVKWihFW0AKCvObkpttdB_i1lUuKhY_ez2-aueD-UT1xn7pQ4CEbmvRef-7TGflKpHUDH4MbdNwVd3i6ho3cwY6e2_oA-TTbVideQxZGiqjFmty0]--></g></svg>