<svg xmlns="http://www.w3.org/2000/svg" xmlns:xlink="http://www.w3.org/1999/xlink" contentStyleType="text/css" data-diagram-type="SEQUENCE" height="1178px" preserveAspectRatio="none" style="width:866px;height:1178px;background:#FFFFFF;" version="1.1" viewBox="0 0 866 1178" width="866px" zoomAndPan="magnify"><title>UC-16: Change PIN</title><defs/><g><text fill="#000000" font-family="sans-serif" font-size="14" font-weight="bold" lengthAdjust="spacing" textLength="127.5723" x="370.624" y="29.5332">UC-16: Change PIN</text><g><title>FalsoPay App</title><rect fill="#FFFFFF" height="910.5156" style="stroke:#181818;stroke-width:1;" width="10" x="293.2764" y="153.5703"/></g><g><title>API Gateway</title><rect fill="#FFFFFF" height="327.3516" style="stroke:#181818;stroke-width:1;" width="10" x="486.9917" y="244.625"/></g><g><title>API Gateway</title><rect fill="#FFFFFF" height="195.1094" style="stroke:#181818;stroke-width:1;" width="10" x="486.9917" y="838.625"/></g><g><title>Security Service</title><rect fill="#FFFFFF" height="266.6484" style="stroke:#181818;stroke-width:1;" width="10" x="623.6206" y="274.9766"/></g><g><title>Security Service</title><rect fill="#FFFFFF" height="134.4063" style="stroke:#181818;stroke-width:1;" width="10" x="623.6206" y="868.9766"/></g><g><title>Database</title><rect fill="#FFFFFF" height="30.3516" style="stroke:#181818;stroke-width:1;" width="10" x="797.855" y="305.3281"/></g><g><title>Database</title><rect fill="#FFFFFF" height="30.3516" style="stroke:#181818;stroke-width:1;" width="10" x="797.855" y="942.6797"/></g><rect fill="none" height="685.0547" style="stroke:#000000;stroke-width:1.5;" width="849.8203" x="10" y="394.0313"/><rect fill="none" height="320.3516" style="stroke:#000000;stroke-width:1.5;" width="829.8203" x="20" y="751.7344"/><g><title>Registered User</title><rect fill="#000000" fill-opacity="0.00000" height="974.8672" width="8" x="79.5757" y="121.2188"/><line style="stroke:#181818;stroke-width:0.5;stroke-dasharray:5.0,5.0;" x1="83" x2="83" y1="121.2188" y2="1096.0859"/></g><g><title>FalsoPay App</title><rect fill="#000000" fill-opacity="0.00000" height="974.8672" width="8" x="294.2764" y="121.2188"/><line style="stroke:#181818;stroke-width:0.5;stroke-dasharray:5.0,5.0;" x1="297.6973" x2="297.6973" y1="121.2188" y2="1096.0859"/></g><g><title>API Gateway</title><rect fill="#000000" fill-opacity="0.00000" height="974.8672" width="8" x="487.9917" y="121.2188"/><line style="stroke:#181818;stroke-width:0.5;stroke-dasharray:5.0,5.0;" x1="491.1401" x2="491.1401" y1="121.2188" y2="1096.0859"/></g><g><title>Security Service</title><rect fill="#000000" fill-opacity="0.00000" height="974.8672" width="8" x="624.6206" y="121.2188"/><line style="stroke:#181818;stroke-width:0.5;stroke-dasharray:5.0,5.0;" x1="628.0483" x2="628.0483" y1="121.2188" y2="1096.0859"/></g><g><title>Database</title><rect fill="#000000" fill-opacity="0.00000" height="974.8672" width="8" x="798.855" y="121.2188"/><line style="stroke:#181818;stroke-width:0.5;stroke-dasharray:5.0,5.0;" x1="801.8896" x2="801.8896" y1="121.2188" y2="1096.0859"/></g><g class="participant participant-head" data-participant="User"><text fill="#000000" font-family="sans-serif" font-size="14" lengthAdjust="spacing" textLength="101.1514" x="30" y="118.1426">Registered User</text><ellipse cx="83.5757" cy="52.1094" fill="#E2E2F0" rx="8" ry="8" style="stroke:#181818;stroke-width:0.5;"/><path d="M83.5757,60.1094 L83.5757,87.1094 M70.5757,68.1094 L96.5757,68.1094 M83.5757,87.1094 L70.5757,102.1094 M83.5757,87.1094 L96.5757,102.1094" fill="none" style="stroke:#181818;stroke-width:0.5;"/></g><g class="participant participant-tail" data-participant="User"><text fill="#000000" font-family="sans-serif" font-size="14" lengthAdjust="spacing" textLength="101.1514" x="30" y="1109.6191">Registered User</text><ellipse cx="83.5757" cy="1121.1953" fill="#E2E2F0" rx="8" ry="8" style="stroke:#181818;stroke-width:0.5;"/><path d="M83.5757,1129.1953 L83.5757,1156.1953 M70.5757,1137.1953 L96.5757,1137.1953 M83.5757,1156.1953 L70.5757,1171.1953 M83.5757,1156.1953 L96.5757,1171.1953" fill="none" style="stroke:#181818;stroke-width:0.5;"/></g><g class="participant participant-head" data-participant="App"><rect fill="#E2E2F0" height="31.6094" rx="2.5" ry="2.5" style="stroke:#181818;stroke-width:0.5;" width="101.1582" x="247.6973" y="88.6094"/><text fill="#000000" font-family="sans-serif" font-size="14" lengthAdjust="spacing" textLength="87.1582" x="254.6973" y="110.1426">FalsoPay App</text></g><g class="participant participant-tail" data-participant="App"><rect fill="#E2E2F0" height="31.6094" rx="2.5" ry="2.5" style="stroke:#181818;stroke-width:0.5;" width="101.1582" x="247.6973" y="1095.0859"/><text fill="#000000" font-family="sans-serif" font-size="14" lengthAdjust="spacing" textLength="87.1582" x="254.6973" y="1116.6191">FalsoPay App</text></g><g class="participant participant-head" data-participant="Gateway"><rect fill="#E2E2F0" height="31.6094" rx="2.5" ry="2.5" style="stroke:#181818;stroke-width:0.5;" width="95.7031" x="444.1401" y="88.6094"/><text fill="#000000" font-family="sans-serif" font-size="14" lengthAdjust="spacing" textLength="81.7031" x="451.1401" y="110.1426">API Gateway</text></g><g class="participant participant-tail" data-participant="Gateway"><rect fill="#E2E2F0" height="31.6094" rx="2.5" ry="2.5" style="stroke:#181818;stroke-width:0.5;" width="95.7031" x="444.1401" y="1095.0859"/><text fill="#000000" font-family="sans-serif" font-size="14" lengthAdjust="spacing" textLength="81.7031" x="451.1401" y="1116.6191">API Gateway</text></g><g class="participant participant-head" data-participant="SecService"><rect fill="#E2E2F0" height="31.6094" rx="2.5" ry="2.5" style="stroke:#181818;stroke-width:0.5;" width="115.1445" x="571.0483" y="88.6094"/><text fill="#000000" font-family="sans-serif" font-size="14" lengthAdjust="spacing" textLength="101.1445" x="578.0483" y="110.1426">Security Service</text></g><g class="participant participant-tail" data-participant="SecService"><rect fill="#E2E2F0" height="31.6094" rx="2.5" ry="2.5" style="stroke:#181818;stroke-width:0.5;" width="115.1445" x="571.0483" y="1095.0859"/><text fill="#000000" font-family="sans-serif" font-size="14" lengthAdjust="spacing" textLength="101.1445" x="578.0483" y="1116.6191">Security Service</text></g><g class="participant participant-head" data-participant="DB"><rect fill="#E2E2F0" height="31.6094" rx="2.5" ry="2.5" style="stroke:#181818;stroke-width:0.5;" width="73.9307" x="765.8896" y="88.6094"/><text fill="#000000" font-family="sans-serif" font-size="14" lengthAdjust="spacing" textLength="59.9307" x="772.8896" y="110.1426">Database</text></g><g class="participant participant-tail" data-participant="DB"><rect fill="#E2E2F0" height="31.6094" rx="2.5" ry="2.5" style="stroke:#181818;stroke-width:0.5;" width="73.9307" x="765.8896" y="1095.0859"/><text fill="#000000" font-family="sans-serif" font-size="14" lengthAdjust="spacing" textLength="59.9307" x="772.8896" y="1116.6191">Database</text></g><g><title>FalsoPay App</title><rect fill="#FFFFFF" height="910.5156" style="stroke:#181818;stroke-width:1;" width="10" x="293.2764" y="153.5703"/></g><g><title>API Gateway</title><rect fill="#FFFFFF" height="327.3516" style="stroke:#181818;stroke-width:1;" width="10" x="486.9917" y="244.625"/></g><g><title>API Gateway</title><rect fill="#FFFFFF" height="195.1094" style="stroke:#181818;stroke-width:1;" width="10" x="486.9917" y="838.625"/></g><g><title>Security Service</title><rect fill="#FFFFFF" height="266.6484" style="stroke:#181818;stroke-width:1;" width="10" x="623.6206" y="274.9766"/></g><g><title>Security Service</title><rect fill="#FFFFFF" height="134.4063" style="stroke:#181818;stroke-width:1;" width="10" x="623.6206" y="868.9766"/></g><g><title>Database</title><rect fill="#FFFFFF" height="30.3516" style="stroke:#181818;stroke-width:1;" width="10" x="797.855" y="305.3281"/></g><g><title>Database</title><rect fill="#FFFFFF" height="30.3516" style="stroke:#181818;stroke-width:1;" width="10" x="797.855" y="942.6797"/></g><g class="message" data-participant-1="User" data-participant-2="App"><polygon fill="#181818" points="281.2764,149.5703,291.2764,153.5703,281.2764,157.5703,285.2764,153.5703" style="stroke:#181818;stroke-width:1;"/><line style="stroke:#181818;stroke-width:1;" x1="83.5757" x2="287.2764" y1="153.5703" y2="153.5703"/><text fill="#000000" font-family="sans-serif" font-size="13" lengthAdjust="spacing" textLength="146.707" x="90.5757" y="148.7139">Select change PIN option</text></g><g class="message" data-participant-1="App" data-participant-2="User"><polygon fill="#181818" points="94.5757,179.9219,84.5757,183.9219,94.5757,187.9219,90.5757,183.9219" style="stroke:#181818;stroke-width:1;"/><line style="stroke:#181818;stroke-width:1;" x1="88.5757" x2="292.2764" y1="183.9219" y2="183.9219"/><text fill="#000000" font-family="sans-serif" font-size="13" lengthAdjust="spacing" textLength="117.7744" x="100.5757" y="179.0654">Request current PIN</text></g><g class="message" data-participant-1="User" data-participant-2="App"><polygon fill="#181818" points="281.2764,210.2734,291.2764,214.2734,281.2764,218.2734,285.2764,214.2734" style="stroke:#181818;stroke-width:1;"/><line style="stroke:#181818;stroke-width:1;" x1="83.5757" x2="287.2764" y1="214.2734" y2="214.2734"/><text fill="#000000" font-family="sans-serif" font-size="13" lengthAdjust="spacing" textLength="100.4263" x="90.5757" y="209.417">Enter current PIN</text></g><g class="message" data-participant-1="App" data-participant-2="Gateway"><polygon fill="#181818" points="474.9917,240.625,484.9917,244.625,474.9917,248.625,478.9917,244.625" style="stroke:#181818;stroke-width:1;"/><line style="stroke:#181818;stroke-width:1;" x1="303.2764" x2="480.9917" y1="244.625" y2="244.625"/><text fill="#000000" font-family="sans-serif" font-size="13" lengthAdjust="spacing" textLength="164.7153" x="310.2764" y="239.7686">POST /api/security/verify-pin</text></g><g class="message" data-participant-1="Gateway" data-participant-2="SecService"><polygon fill="#181818" points="611.6206,270.9766,621.6206,274.9766,611.6206,278.9766,615.6206,274.9766" style="stroke:#181818;stroke-width:1;"/><line style="stroke:#181818;stroke-width:1;" x1="496.9917" x2="617.6206" y1="274.9766" y2="274.9766"/><text fill="#000000" font-family="sans-serif" font-size="13" lengthAdjust="spacing" textLength="102.5845" x="503.9917" y="270.1201">Verify current PIN</text></g><g class="message" data-participant-1="SecService" data-participant-2="DB"><polygon fill="#181818" points="785.855,301.3281,795.855,305.3281,785.855,309.3281,789.855,305.3281" style="stroke:#181818;stroke-width:1;"/><line style="stroke:#181818;stroke-width:1;" x1="633.6206" x2="791.855" y1="305.3281" y2="305.3281"/><text fill="#000000" font-family="sans-serif" font-size="13" lengthAdjust="spacing" textLength="145.2344" x="640.6206" y="300.4717">Retrieve stored PIN hash</text></g><g class="message" data-participant-1="DB" data-participant-2="SecService"><polygon fill="#181818" points="644.6206,331.6797,634.6206,335.6797,644.6206,339.6797,640.6206,335.6797" style="stroke:#181818;stroke-width:1;"/><line style="stroke:#181818;stroke-width:1;stroke-dasharray:2.0,2.0;" x1="638.6206" x2="801.855" y1="335.6797" y2="335.6797"/><text fill="#000000" font-family="sans-serif" font-size="13" lengthAdjust="spacing" textLength="53.4727" x="650.6206" y="330.8232">PIN hash</text></g><g class="message" data-participant-1="SecService" data-participant-2="SecService"><line style="stroke:#181818;stroke-width:1;" x1="633.6206" x2="675.6206" y1="366.0313" y2="366.0313"/><line style="stroke:#181818;stroke-width:1;" x1="675.6206" x2="675.6206" y1="366.0313" y2="379.0313"/><line style="stroke:#181818;stroke-width:1;" x1="634.6206" x2="675.6206" y1="379.0313" y2="379.0313"/><polygon fill="#181818" points="644.6206,375.0313,634.6206,379.0313,644.6206,383.0313,640.6206,379.0313" style="stroke:#181818;stroke-width:1;"/><text fill="#000000" font-family="sans-serif" font-size="13" lengthAdjust="spacing" textLength="72.2617" x="640.6206" y="361.1748">Validate PIN</text></g><path d="M10,394.0313 L70.1709,394.0313 L70.1709,402.3828 L60.1709,412.3828 L10,412.3828 L10,394.0313" fill="#EEEEEE" style="stroke:#000000;stroke-width:1.5;"/><rect fill="none" height="685.0547" style="stroke:#000000;stroke-width:1.5;" width="849.8203" x="10" y="394.0313"/><text fill="#000000" font-family="sans-serif" font-size="13" font-weight="bold" lengthAdjust="spacing" textLength="15.1709" x="25" y="408.5264">alt</text><text fill="#000000" font-family="sans-serif" font-size="11" font-weight="bold" lengthAdjust="spacing" textLength="118.5723" x="85.1709" y="407.4502">[Current PIN incorrect]</text><g class="message" data-participant-1="SecService" data-participant-2="Gateway"><polygon fill="#181818" points="507.9917,430.7344,497.9917,434.7344,507.9917,438.7344,503.9917,434.7344" style="stroke:#181818;stroke-width:1;"/><line style="stroke:#181818;stroke-width:1;stroke-dasharray:2.0,2.0;" x1="501.9917" x2="622.6206" y1="434.7344" y2="434.7344"/><text fill="#000000" font-family="sans-serif" font-size="13" lengthAdjust="spacing" textLength="102.6289" x="513.9917" y="429.8779">401 Unauthorized</text></g><g class="message" data-participant-1="Gateway" data-participant-2="App"><polygon fill="#181818" points="314.2764,461.0859,304.2764,465.0859,314.2764,469.0859,310.2764,465.0859" style="stroke:#181818;stroke-width:1;"/><line style="stroke:#181818;stroke-width:1;stroke-dasharray:2.0,2.0;" x1="308.2764" x2="485.9917" y1="465.0859" y2="465.0859"/><text fill="#000000" font-family="sans-serif" font-size="13" lengthAdjust="spacing" textLength="102.6289" x="320.2764" y="460.2295">401 Unauthorized</text></g><g class="message" data-participant-1="App" data-participant-2="User"><polygon fill="#181818" points="94.5757,491.4375,84.5757,495.4375,94.5757,499.4375,90.5757,495.4375" style="stroke:#181818;stroke-width:1;"/><line style="stroke:#181818;stroke-width:1;stroke-dasharray:2.0,2.0;" x1="88.5757" x2="292.2764" y1="495.4375" y2="495.4375"/><text fill="#000000" font-family="sans-serif" font-size="13" lengthAdjust="spacing" textLength="151.728" x="100.5757" y="490.5811">Show error and allow retry</text></g><line style="stroke:#000000;stroke-width:1;stroke-dasharray:2.0,2.0;" x1="10" x2="859.8203" y1="504.4375" y2="504.4375"/><text fill="#000000" font-family="sans-serif" font-size="11" font-weight="bold" lengthAdjust="spacing" textLength="108.7969" x="15" y="515.8564">[Current PIN correct]</text><g class="message" data-participant-1="SecService" data-participant-2="Gateway"><polygon fill="#181818" points="507.9917,537.625,497.9917,541.625,507.9917,545.625,503.9917,541.625" style="stroke:#181818;stroke-width:1;"/><line style="stroke:#181818;stroke-width:1;stroke-dasharray:2.0,2.0;" x1="501.9917" x2="627.6206" y1="541.625" y2="541.625"/><text fill="#000000" font-family="sans-serif" font-size="13" lengthAdjust="spacing" textLength="44.0845" x="513.9917" y="536.7686">200 OK</text></g><g class="message" data-participant-1="Gateway" data-participant-2="App"><polygon fill="#181818" points="314.2764,567.9766,304.2764,571.9766,314.2764,575.9766,310.2764,571.9766" style="stroke:#181818;stroke-width:1;"/><line style="stroke:#181818;stroke-width:1;stroke-dasharray:2.0,2.0;" x1="308.2764" x2="490.9917" y1="571.9766" y2="571.9766"/><text fill="#000000" font-family="sans-serif" font-size="13" lengthAdjust="spacing" textLength="44.0845" x="320.2764" y="567.1201">200 OK</text></g><g class="message" data-participant-1="App" data-participant-2="User"><polygon fill="#181818" points="94.5757,598.3281,84.5757,602.3281,94.5757,606.3281,90.5757,602.3281" style="stroke:#181818;stroke-width:1;"/><line style="stroke:#181818;stroke-width:1;" x1="88.5757" x2="292.2764" y1="602.3281" y2="602.3281"/><text fill="#000000" font-family="sans-serif" font-size="13" lengthAdjust="spacing" textLength="101.1626" x="100.5757" y="597.4717">Request new PIN</text></g><g class="message" data-participant-1="User" data-participant-2="App"><polygon fill="#181818" points="281.2764,628.6797,291.2764,632.6797,281.2764,636.6797,285.2764,632.6797" style="stroke:#181818;stroke-width:1;"/><line style="stroke:#181818;stroke-width:1;" x1="83.5757" x2="287.2764" y1="632.6797" y2="632.6797"/><text fill="#000000" font-family="sans-serif" font-size="13" lengthAdjust="spacing" textLength="83.8145" x="90.5757" y="627.8232">Enter new PIN</text></g><g class="message" data-participant-1="App" data-participant-2="User"><polygon fill="#181818" points="94.5757,659.0313,84.5757,663.0313,94.5757,667.0313,90.5757,663.0313" style="stroke:#181818;stroke-width:1;"/><line style="stroke:#181818;stroke-width:1;" x1="88.5757" x2="292.2764" y1="663.0313" y2="663.0313"/><text fill="#000000" font-family="sans-serif" font-size="13" lengthAdjust="spacing" textLength="148.1226" x="100.5757" y="658.1748">Request PIN confirmation</text></g><g class="message" data-participant-1="User" data-participant-2="App"><polygon fill="#181818" points="281.2764,689.3828,291.2764,693.3828,281.2764,697.3828,285.2764,693.3828" style="stroke:#181818;stroke-width:1;"/><line style="stroke:#181818;stroke-width:1;" x1="83.5757" x2="287.2764" y1="693.3828" y2="693.3828"/><text fill="#000000" font-family="sans-serif" font-size="13" lengthAdjust="spacing" textLength="98.249" x="90.5757" y="688.5264">Confirm new PIN</text></g><g class="message" data-participant-1="App" data-participant-2="App"><line style="stroke:#181818;stroke-width:1;" x1="303.2764" x2="345.2764" y1="723.7344" y2="723.7344"/><line style="stroke:#181818;stroke-width:1;" x1="345.2764" x2="345.2764" y1="723.7344" y2="736.7344"/><line style="stroke:#181818;stroke-width:1;" x1="304.2764" x2="345.2764" y1="736.7344" y2="736.7344"/><polygon fill="#181818" points="314.2764,732.7344,304.2764,736.7344,314.2764,740.7344,310.2764,736.7344" style="stroke:#181818;stroke-width:1;"/><text fill="#000000" font-family="sans-serif" font-size="13" lengthAdjust="spacing" textLength="151.7407" x="310.2764" y="718.8779">Validate PIN requirements</text></g><path d="M20,751.7344 L80.1709,751.7344 L80.1709,760.0859 L70.1709,770.0859 L20,770.0859 L20,751.7344" fill="#EEEEEE" style="stroke:#000000;stroke-width:1.5;"/><rect fill="none" height="320.3516" style="stroke:#000000;stroke-width:1.5;" width="829.8203" x="20" y="751.7344"/><text fill="#000000" font-family="sans-serif" font-size="13" font-weight="bold" lengthAdjust="spacing" textLength="15.1709" x="35" y="766.2295">alt</text><text fill="#000000" font-family="sans-serif" font-size="11" font-weight="bold" lengthAdjust="spacing" textLength="194.5464" x="95.1709" y="765.1533">[New PIN doesn't meet requirements]</text><g class="message" data-participant-1="App" data-participant-2="User"><polygon fill="#181818" points="94.5757,788.4375,84.5757,792.4375,94.5757,796.4375,90.5757,792.4375" style="stroke:#181818;stroke-width:1;"/><line style="stroke:#181818;stroke-width:1;stroke-dasharray:2.0,2.0;" x1="88.5757" x2="292.2764" y1="792.4375" y2="792.4375"/><text fill="#000000" font-family="sans-serif" font-size="13" lengthAdjust="spacing" textLength="137.2808" x="100.5757" y="787.5811">Show PIN requirements</text></g><line style="stroke:#000000;stroke-width:1;stroke-dasharray:2.0,2.0;" x1="20" x2="849.8203" y1="801.4375" y2="801.4375"/><text fill="#000000" font-family="sans-serif" font-size="11" font-weight="bold" lengthAdjust="spacing" textLength="146.0991" x="25" y="812.8564">[New PIN passes validation]</text><g class="message" data-participant-1="App" data-participant-2="Gateway"><polygon fill="#181818" points="474.9917,834.625,484.9917,838.625,474.9917,842.625,478.9917,838.625" style="stroke:#181818;stroke-width:1;"/><line style="stroke:#181818;stroke-width:1;" x1="303.2764" x2="480.9917" y1="838.625" y2="838.625"/><text fill="#000000" font-family="sans-serif" font-size="13" lengthAdjust="spacing" textLength="119.9326" x="310.2764" y="833.7686">PUT /api/security/pin</text></g><g class="message" data-participant-1="Gateway" data-participant-2="SecService"><polygon fill="#181818" points="611.6206,864.9766,621.6206,868.9766,611.6206,872.9766,615.6206,868.9766" style="stroke:#181818;stroke-width:1;"/><line style="stroke:#181818;stroke-width:1;" x1="496.9917" x2="617.6206" y1="868.9766" y2="868.9766"/><text fill="#000000" font-family="sans-serif" font-size="13" lengthAdjust="spacing" textLength="67.2026" x="503.9917" y="864.1201">Update PIN</text></g><g class="message" data-participant-1="SecService" data-participant-2="SecService"><line style="stroke:#181818;stroke-width:1;" x1="633.6206" x2="675.6206" y1="899.3281" y2="899.3281"/><line style="stroke:#181818;stroke-width:1;" x1="675.6206" x2="675.6206" y1="899.3281" y2="912.3281"/><line style="stroke:#181818;stroke-width:1;" x1="634.6206" x2="675.6206" y1="912.3281" y2="912.3281"/><polygon fill="#181818" points="644.6206,908.3281,634.6206,912.3281,644.6206,916.3281,640.6206,912.3281" style="stroke:#181818;stroke-width:1;"/><text fill="#000000" font-family="sans-serif" font-size="13" lengthAdjust="spacing" textLength="83.0908" x="640.6206" y="894.4717">Hash new PIN</text></g><g class="message" data-participant-1="SecService" data-participant-2="DB"><polygon fill="#181818" points="785.855,938.6797,795.855,942.6797,785.855,946.6797,789.855,942.6797" style="stroke:#181818;stroke-width:1;"/><line style="stroke:#181818;stroke-width:1;" x1="633.6206" x2="791.855" y1="942.6797" y2="942.6797"/><text fill="#000000" font-family="sans-serif" font-size="13" lengthAdjust="spacing" textLength="115.6162" x="640.6206" y="937.8232">Store new PIN hash</text></g><g class="message" data-participant-1="DB" data-participant-2="SecService"><polygon fill="#181818" points="644.6206,969.0313,634.6206,973.0313,644.6206,977.0313,640.6206,973.0313" style="stroke:#181818;stroke-width:1;"/><line style="stroke:#181818;stroke-width:1;stroke-dasharray:2.0,2.0;" x1="638.6206" x2="801.855" y1="973.0313" y2="973.0313"/><text fill="#000000" font-family="sans-serif" font-size="13" lengthAdjust="spacing" textLength="49.1309" x="650.6206" y="968.1748">Success</text></g><g class="message" data-participant-1="SecService" data-participant-2="Gateway"><polygon fill="#181818" points="507.9917,999.3828,497.9917,1003.3828,507.9917,1007.3828,503.9917,1003.3828" style="stroke:#181818;stroke-width:1;"/><line style="stroke:#181818;stroke-width:1;stroke-dasharray:2.0,2.0;" x1="501.9917" x2="627.6206" y1="1003.3828" y2="1003.3828"/><text fill="#000000" font-family="sans-serif" font-size="13" lengthAdjust="spacing" textLength="44.0845" x="513.9917" y="998.5264">200 OK</text></g><g class="message" data-participant-1="Gateway" data-participant-2="App"><polygon fill="#181818" points="314.2764,1029.7344,304.2764,1033.7344,314.2764,1037.7344,310.2764,1033.7344" style="stroke:#181818;stroke-width:1;"/><line style="stroke:#181818;stroke-width:1;stroke-dasharray:2.0,2.0;" x1="308.2764" x2="490.9917" y1="1033.7344" y2="1033.7344"/><text fill="#000000" font-family="sans-serif" font-size="13" lengthAdjust="spacing" textLength="44.0845" x="320.2764" y="1028.8779">200 OK</text></g><g class="message" data-participant-1="App" data-participant-2="User"><polygon fill="#181818" points="94.5757,1060.0859,84.5757,1064.0859,94.5757,1068.0859,90.5757,1064.0859" style="stroke:#181818;stroke-width:1;"/><line style="stroke:#181818;stroke-width:1;stroke-dasharray:2.0,2.0;" x1="88.5757" x2="297.2764" y1="1064.0859" y2="1064.0859"/><text fill="#000000" font-family="sans-serif" font-size="13" lengthAdjust="spacing" textLength="185.7007" x="100.5757" y="1059.2295">Display PIN update confirmation</text></g><!--SRC=[ZLHDZzem4BtxLuoux0d1hgeUE5HQI3zMbNRHflG-TMONIy79sWw8_lhQpfTD32eIOCTldcVUp0joKocOlTAxq8OK5R3Jf6Q0sYzOZSe8BcgK1cRViDJL5i_mMDSUOlzZnEFs2RwZeHEUFQ1Rnw2SUAE4EKDEwYWuUQHzs6rZS8O6_w1kGTcQCIDCIR3RpEy_hs2pH_bEi7rwPipb2_ClBgcLfIk96-33ELIr4PLao8qusgnyxip-k10Nke9N-cX8sw16AR9tEzQ8zAkq4aN7NNnNvWgsB_alM60j5hehSd4a9TxEyre4T_Uoi6xXE4O1Ll3RnqGt3R61K6nSEuPixMemIj2HGDk-scwwolUezsEyrJ1Rm_pYnW5NK8Yyk27A4KjHE9WN7qi3cp5T499NTiSD0_i9MKAvFYtlOIUnCVjAYRzKUF2WIIzx4kML7rgNxwiJa59sbb4MW6LfzyfgSMPKQefI-v_47fPBUFdf8O4WWVJk99rjEhJl-12Nd3n99o-d0oGcBpnEnhVboJUX3kYdVKAqQKyZgf3FWyBMMXK_6g7eOENJ8zpr-xdbWA8YBUyC78ZC57wbMKbgtwkUjaQjISEnJQQl9iXrTDtkqdJERJqwsOEXaAY7yOJlwc6-9rmNen3HNVVC3-kmIFeft9auTzxjSQqj9mbOS_RF4dRE6yv9Zms8NNqpuoisk6s5j9m9IzomHSGHJqmcT5rQHYT7qtPbCkONpExrxaTA5inz_m40]--></g></svg>