<svg xmlns="http://www.w3.org/2000/svg" xmlns:xlink="http://www.w3.org/1999/xlink" contentStyleType="text/css" data-diagram-type="SEQUENCE" height="1030px" preserveAspectRatio="none" style="width:887px;height:1030px;background:#FFFFFF;" version="1.1" viewBox="0 0 887 1030" width="887px" zoomAndPan="magnify"><title>UC-17: Change Default IPA Address</title><defs/><g><text fill="#000000" font-family="sans-serif" font-size="14" font-weight="bold" lengthAdjust="spacing" textLength="238.8203" x="325.2817" y="29.5332">UC-17: Change Default IPA Address</text><g><title>FalsoPay App</title><rect fill="#FFFFFF" height="769.625" style="stroke:#181818;stroke-width:1;" width="10" x="285.4536" y="153.5703"/></g><g><title>API Gateway</title><rect fill="#FFFFFF" height="151.7578" style="stroke:#181818;stroke-width:1;" width="10" x="524.7451" y="183.9219"/></g><g><title>API Gateway</title><rect fill="#FFFFFF" height="151.7578" style="stroke:#181818;stroke-width:1;" width="10" x="524.7451" y="482.4375"/></g><g><title>API Gateway</title><rect fill="#FFFFFF" height="151.7578" style="stroke:#181818;stroke-width:1;" width="10" x="524.7451" y="741.0859"/></g><g><title>Account Service</title><rect fill="#FFFFFF" height="91.0547" style="stroke:#181818;stroke-width:1;" width="10" x="662.855" y="214.2734"/></g><g><title>Account Service</title><rect fill="#FFFFFF" height="91.0547" style="stroke:#181818;stroke-width:1;" width="10" x="662.855" y="512.7891"/></g><g><title>Account Service</title><rect fill="#FFFFFF" height="91.0547" style="stroke:#181818;stroke-width:1;" width="10" x="662.855" y="771.4375"/></g><g><title>Database</title><rect fill="#FFFFFF" height="30.3516" style="stroke:#181818;stroke-width:1;" width="10" x="828.4185" y="244.625"/></g><g><title>Database</title><rect fill="#FFFFFF" height="30.3516" style="stroke:#181818;stroke-width:1;" width="10" x="828.4185" y="543.1406"/></g><g><title>Database</title><rect fill="#FFFFFF" height="30.3516" style="stroke:#181818;stroke-width:1;" width="10" x="828.4185" y="801.7891"/></g><rect fill="none" height="550.1641" style="stroke:#000000;stroke-width:1.5;" width="870.3838" x="10" y="381.0313"/><g><title>Registered User</title><rect fill="#000000" fill-opacity="0.00000" height="826.9766" width="8" x="69.5757" y="121.2188"/><line style="stroke:#181818;stroke-width:0.5;stroke-dasharray:5.0,5.0;" x1="73" x2="73" y1="121.2188" y2="948.1953"/></g><g><title>FalsoPay App</title><rect fill="#000000" fill-opacity="0.00000" height="826.9766" width="8" x="286.4536" y="121.2188"/><line style="stroke:#181818;stroke-width:0.5;stroke-dasharray:5.0,5.0;" x1="289.8745" x2="289.8745" y1="121.2188" y2="948.1953"/></g><g><title>API Gateway</title><rect fill="#000000" fill-opacity="0.00000" height="826.9766" width="8" x="525.7451" y="121.2188"/><line style="stroke:#181818;stroke-width:0.5;stroke-dasharray:5.0,5.0;" x1="528.8936" x2="528.8936" y1="121.2188" y2="948.1953"/></g><g><title>Account Service</title><rect fill="#000000" fill-opacity="0.00000" height="826.9766" width="8" x="663.855" y="121.2188"/><line style="stroke:#181818;stroke-width:0.5;stroke-dasharray:5.0,5.0;" x1="667.2759" x2="667.2759" y1="121.2188" y2="948.1953"/></g><g><title>Database</title><rect fill="#000000" fill-opacity="0.00000" height="826.9766" width="8" x="829.4185" y="121.2188"/><line style="stroke:#181818;stroke-width:0.5;stroke-dasharray:5.0,5.0;" x1="832.4531" x2="832.4531" y1="121.2188" y2="948.1953"/></g><g class="participant participant-head" data-participant="User"><text fill="#000000" font-family="sans-serif" font-size="14" lengthAdjust="spacing" textLength="101.1514" x="20" y="118.1426">Registered User</text><ellipse cx="73.5757" cy="52.1094" fill="#E2E2F0" rx="8" ry="8" style="stroke:#181818;stroke-width:0.5;"/><path d="M73.5757,60.1094 L73.5757,87.1094 M60.5757,68.1094 L86.5757,68.1094 M73.5757,87.1094 L60.5757,102.1094 M73.5757,87.1094 L86.5757,102.1094" fill="none" style="stroke:#181818;stroke-width:0.5;"/></g><g class="participant participant-tail" data-participant="User"><text fill="#000000" font-family="sans-serif" font-size="14" lengthAdjust="spacing" textLength="101.1514" x="20" y="961.7285">Registered User</text><ellipse cx="73.5757" cy="973.3047" fill="#E2E2F0" rx="8" ry="8" style="stroke:#181818;stroke-width:0.5;"/><path d="M73.5757,981.3047 L73.5757,1008.3047 M60.5757,989.3047 L86.5757,989.3047 M73.5757,1008.3047 L60.5757,1023.3047 M73.5757,1008.3047 L86.5757,1023.3047" fill="none" style="stroke:#181818;stroke-width:0.5;"/></g><g class="participant participant-head" data-participant="App"><rect fill="#E2E2F0" height="31.6094" rx="2.5" ry="2.5" style="stroke:#181818;stroke-width:0.5;" width="101.1582" x="239.8745" y="88.6094"/><text fill="#000000" font-family="sans-serif" font-size="14" lengthAdjust="spacing" textLength="87.1582" x="246.8745" y="110.1426">FalsoPay App</text></g><g class="participant participant-tail" data-participant="App"><rect fill="#E2E2F0" height="31.6094" rx="2.5" ry="2.5" style="stroke:#181818;stroke-width:0.5;" width="101.1582" x="239.8745" y="947.1953"/><text fill="#000000" font-family="sans-serif" font-size="14" lengthAdjust="spacing" textLength="87.1582" x="246.8745" y="968.7285">FalsoPay App</text></g><g class="participant participant-head" data-participant="Gateway"><rect fill="#E2E2F0" height="31.6094" rx="2.5" ry="2.5" style="stroke:#181818;stroke-width:0.5;" width="95.7031" x="481.8936" y="88.6094"/><text fill="#000000" font-family="sans-serif" font-size="14" lengthAdjust="spacing" textLength="81.7031" x="488.8936" y="110.1426">API Gateway</text></g><g class="participant participant-tail" data-participant="Gateway"><rect fill="#E2E2F0" height="31.6094" rx="2.5" ry="2.5" style="stroke:#181818;stroke-width:0.5;" width="95.7031" x="481.8936" y="947.1953"/><text fill="#000000" font-family="sans-serif" font-size="14" lengthAdjust="spacing" textLength="81.7031" x="488.8936" y="968.7285">API Gateway</text></g><g class="participant participant-head" data-participant="AccountService"><rect fill="#E2E2F0" height="31.6094" rx="2.5" ry="2.5" style="stroke:#181818;stroke-width:0.5;" width="115.1582" x="610.2759" y="88.6094"/><text fill="#000000" font-family="sans-serif" font-size="14" lengthAdjust="spacing" textLength="101.1582" x="617.2759" y="110.1426">Account Service</text></g><g class="participant participant-tail" data-participant="AccountService"><rect fill="#E2E2F0" height="31.6094" rx="2.5" ry="2.5" style="stroke:#181818;stroke-width:0.5;" width="115.1582" x="610.2759" y="947.1953"/><text fill="#000000" font-family="sans-serif" font-size="14" lengthAdjust="spacing" textLength="101.1582" x="617.2759" y="968.7285">Account Service</text></g><g class="participant participant-head" data-participant="DB"><rect fill="#E2E2F0" height="31.6094" rx="2.5" ry="2.5" style="stroke:#181818;stroke-width:0.5;" width="73.9307" x="796.4531" y="88.6094"/><text fill="#000000" font-family="sans-serif" font-size="14" lengthAdjust="spacing" textLength="59.9307" x="803.4531" y="110.1426">Database</text></g><g class="participant participant-tail" data-participant="DB"><rect fill="#E2E2F0" height="31.6094" rx="2.5" ry="2.5" style="stroke:#181818;stroke-width:0.5;" width="73.9307" x="796.4531" y="947.1953"/><text fill="#000000" font-family="sans-serif" font-size="14" lengthAdjust="spacing" textLength="59.9307" x="803.4531" y="968.7285">Database</text></g><g><title>FalsoPay App</title><rect fill="#FFFFFF" height="769.625" style="stroke:#181818;stroke-width:1;" width="10" x="285.4536" y="153.5703"/></g><g><title>API Gateway</title><rect fill="#FFFFFF" height="151.7578" style="stroke:#181818;stroke-width:1;" width="10" x="524.7451" y="183.9219"/></g><g><title>API Gateway</title><rect fill="#FFFFFF" height="151.7578" style="stroke:#181818;stroke-width:1;" width="10" x="524.7451" y="482.4375"/></g><g><title>API Gateway</title><rect fill="#FFFFFF" height="151.7578" style="stroke:#181818;stroke-width:1;" width="10" x="524.7451" y="741.0859"/></g><g><title>Account Service</title><rect fill="#FFFFFF" height="91.0547" style="stroke:#181818;stroke-width:1;" width="10" x="662.855" y="214.2734"/></g><g><title>Account Service</title><rect fill="#FFFFFF" height="91.0547" style="stroke:#181818;stroke-width:1;" width="10" x="662.855" y="512.7891"/></g><g><title>Account Service</title><rect fill="#FFFFFF" height="91.0547" style="stroke:#181818;stroke-width:1;" width="10" x="662.855" y="771.4375"/></g><g><title>Database</title><rect fill="#FFFFFF" height="30.3516" style="stroke:#181818;stroke-width:1;" width="10" x="828.4185" y="244.625"/></g><g><title>Database</title><rect fill="#FFFFFF" height="30.3516" style="stroke:#181818;stroke-width:1;" width="10" x="828.4185" y="543.1406"/></g><g><title>Database</title><rect fill="#FFFFFF" height="30.3516" style="stroke:#181818;stroke-width:1;" width="10" x="828.4185" y="801.7891"/></g><g class="message" data-participant-1="User" data-participant-2="App"><polygon fill="#181818" points="273.4536,149.5703,283.4536,153.5703,273.4536,157.5703,277.4536,153.5703" style="stroke:#181818;stroke-width:1;"/><line style="stroke:#181818;stroke-width:1;" x1="73.5757" x2="279.4536" y1="153.5703" y2="153.5703"/><text fill="#000000" font-family="sans-serif" font-size="13" lengthAdjust="spacing" textLength="114.8799" x="80.5757" y="148.7139">Access IPA settings</text></g><g class="message" data-participant-1="App" data-participant-2="Gateway"><polygon fill="#181818" points="512.7451,179.9219,522.7451,183.9219,512.7451,187.9219,516.7451,183.9219" style="stroke:#181818;stroke-width:1;"/><line style="stroke:#181818;stroke-width:1;" x1="295.4536" x2="518.7451" y1="183.9219" y2="183.9219"/><text fill="#000000" font-family="sans-serif" font-size="13" lengthAdjust="spacing" textLength="127.8989" x="302.4536" y="179.0654">GET /api/accounts/ipa</text></g><g class="message" data-participant-1="Gateway" data-participant-2="AccountService"><polygon fill="#181818" points="650.855,210.2734,660.855,214.2734,650.855,218.2734,654.855,214.2734" style="stroke:#181818;stroke-width:1;"/><line style="stroke:#181818;stroke-width:1;" x1="534.7451" x2="656.855" y1="214.2734" y2="214.2734"/><text fill="#000000" font-family="sans-serif" font-size="13" lengthAdjust="spacing" textLength="109.1099" x="541.7451" y="209.417">Get IPA addresses</text></g><g class="message" data-participant-1="AccountService" data-participant-2="DB"><polygon fill="#181818" points="816.4185,240.625,826.4185,244.625,816.4185,248.625,820.4185,244.625" style="stroke:#181818;stroke-width:1;"/><line style="stroke:#181818;stroke-width:1;" x1="672.855" x2="822.4185" y1="244.625" y2="244.625"/><text fill="#000000" font-family="sans-serif" font-size="13" lengthAdjust="spacing" textLength="136.5635" x="679.855" y="239.7686">Retrieve IPA addresses</text></g><g class="message" data-participant-1="DB" data-participant-2="AccountService"><polygon fill="#181818" points="683.855,270.9766,673.855,274.9766,683.855,278.9766,679.855,274.9766" style="stroke:#181818;stroke-width:1;"/><line style="stroke:#181818;stroke-width:1;stroke-dasharray:2.0,2.0;" x1="677.855" x2="832.4185" y1="274.9766" y2="274.9766"/><text fill="#000000" font-family="sans-serif" font-size="13" lengthAdjust="spacing" textLength="84.5444" x="689.855" y="270.1201">IPA addresses</text></g><g class="message" data-participant-1="AccountService" data-participant-2="Gateway"><polygon fill="#181818" points="545.7451,301.3281,535.7451,305.3281,545.7451,309.3281,541.7451,305.3281" style="stroke:#181818;stroke-width:1;"/><line style="stroke:#181818;stroke-width:1;stroke-dasharray:2.0,2.0;" x1="539.7451" x2="666.855" y1="305.3281" y2="305.3281"/><text fill="#000000" font-family="sans-serif" font-size="13" lengthAdjust="spacing" textLength="104.0444" x="551.7451" y="300.4717">IPA addresses list</text></g><g class="message" data-participant-1="Gateway" data-participant-2="App"><polygon fill="#181818" points="306.4536,331.6797,296.4536,335.6797,306.4536,339.6797,302.4536,335.6797" style="stroke:#181818;stroke-width:1;"/><line style="stroke:#181818;stroke-width:1;stroke-dasharray:2.0,2.0;" x1="300.4536" x2="528.7451" y1="335.6797" y2="335.6797"/><text fill="#000000" font-family="sans-serif" font-size="13" lengthAdjust="spacing" textLength="114.8799" x="312.4536" y="330.8232">200 OK with IPA list</text></g><g class="message" data-participant-1="App" data-participant-2="User"><polygon fill="#181818" points="84.5757,362.0313,74.5757,366.0313,84.5757,370.0313,80.5757,366.0313" style="stroke:#181818;stroke-width:1;"/><line style="stroke:#181818;stroke-width:1;stroke-dasharray:2.0,2.0;" x1="78.5757" x2="284.4536" y1="366.0313" y2="366.0313"/><text fill="#000000" font-family="sans-serif" font-size="13" lengthAdjust="spacing" textLength="130.7808" x="90.5757" y="361.1748">Display IPA addresses</text></g><path d="M10,381.0313 L70.1709,381.0313 L70.1709,389.3828 L60.1709,399.3828 L10,399.3828 L10,381.0313" fill="#EEEEEE" style="stroke:#000000;stroke-width:1.5;"/><rect fill="none" height="550.1641" style="stroke:#000000;stroke-width:1.5;" width="870.3838" x="10" y="381.0313"/><text fill="#000000" font-family="sans-serif" font-size="13" font-weight="bold" lengthAdjust="spacing" textLength="15.1709" x="25" y="395.5264">alt</text><text fill="#000000" font-family="sans-serif" font-size="11" font-weight="bold" lengthAdjust="spacing" textLength="157.1152" x="85.1709" y="394.4502">[No alternative IPAs available]</text><g class="message" data-participant-1="App" data-participant-2="User"><polygon fill="#181818" points="84.5757,417.7344,74.5757,421.7344,84.5757,425.7344,80.5757,421.7344" style="stroke:#181818;stroke-width:1;"/><line style="stroke:#181818;stroke-width:1;stroke-dasharray:2.0,2.0;" x1="78.5757" x2="284.4536" y1="421.7344" y2="421.7344"/><text fill="#000000" font-family="sans-serif" font-size="13" lengthAdjust="spacing" textLength="187.8779" x="90.5757" y="416.8779">Display option to create new IPA</text></g><g class="message" data-participant-1="User" data-participant-2="App"><polygon fill="#181818" points="273.4536,448.0859,283.4536,452.0859,273.4536,456.0859,277.4536,452.0859" style="stroke:#181818;stroke-width:1;"/><line style="stroke:#181818;stroke-width:1;" x1="73.5757" x2="279.4536" y1="452.0859" y2="452.0859"/><text fill="#000000" font-family="sans-serif" font-size="13" lengthAdjust="spacing" textLength="127.8989" x="80.5757" y="447.2295">Select create new IPA</text></g><g class="message" data-participant-1="App" data-participant-2="Gateway"><polygon fill="#181818" points="512.7451,478.4375,522.7451,482.4375,512.7451,486.4375,516.7451,482.4375" style="stroke:#181818;stroke-width:1;"/><line style="stroke:#181818;stroke-width:1;" x1="295.4536" x2="518.7451" y1="482.4375" y2="482.4375"/><text fill="#000000" font-family="sans-serif" font-size="13" lengthAdjust="spacing" textLength="136.5698" x="302.4536" y="477.5811">POST /api/accounts/ipa</text></g><g class="message" data-participant-1="Gateway" data-participant-2="AccountService"><polygon fill="#181818" points="650.855,508.7891,660.855,512.7891,650.855,516.7891,654.855,512.7891" style="stroke:#181818;stroke-width:1;"/><line style="stroke:#181818;stroke-width:1;" x1="534.7451" x2="656.855" y1="512.7891" y2="512.7891"/><text fill="#000000" font-family="sans-serif" font-size="13" lengthAdjust="spacing" textLength="91.0444" x="541.7451" y="507.9326">Create new IPA</text></g><g class="message" data-participant-1="AccountService" data-participant-2="DB"><polygon fill="#181818" points="816.4185,539.1406,826.4185,543.1406,816.4185,547.1406,820.4185,543.1406" style="stroke:#181818;stroke-width:1;"/><line style="stroke:#181818;stroke-width:1;" x1="672.855" x2="822.4185" y1="543.1406" y2="543.1406"/><text fill="#000000" font-family="sans-serif" font-size="13" lengthAdjust="spacing" textLength="104.0444" x="679.855" y="538.2842">Create IPA record</text></g><g class="message" data-participant-1="DB" data-participant-2="AccountService"><polygon fill="#181818" points="683.855,569.4922,673.855,573.4922,683.855,577.4922,679.855,573.4922" style="stroke:#181818;stroke-width:1;"/><line style="stroke:#181818;stroke-width:1;stroke-dasharray:2.0,2.0;" x1="677.855" x2="832.4185" y1="573.4922" y2="573.4922"/><text fill="#000000" font-family="sans-serif" font-size="13" lengthAdjust="spacing" textLength="49.1309" x="689.855" y="568.6357">Success</text></g><g class="message" data-participant-1="AccountService" data-participant-2="Gateway"><polygon fill="#181818" points="545.7451,599.8438,535.7451,603.8438,545.7451,607.8438,541.7451,603.8438" style="stroke:#181818;stroke-width:1;"/><line style="stroke:#181818;stroke-width:1;stroke-dasharray:2.0,2.0;" x1="539.7451" x2="666.855" y1="603.8438" y2="603.8438"/><text fill="#000000" font-family="sans-serif" font-size="13" lengthAdjust="spacing" textLength="71.5508" x="551.7451" y="598.9873">201 Created</text></g><g class="message" data-participant-1="Gateway" data-participant-2="App"><polygon fill="#181818" points="306.4536,630.1953,296.4536,634.1953,306.4536,638.1953,302.4536,634.1953" style="stroke:#181818;stroke-width:1;"/><line style="stroke:#181818;stroke-width:1;stroke-dasharray:2.0,2.0;" x1="300.4536" x2="528.7451" y1="634.1953" y2="634.1953"/><text fill="#000000" font-family="sans-serif" font-size="13" lengthAdjust="spacing" textLength="150.3062" x="312.4536" y="629.3389">201 Created with new IPA</text></g><g class="message" data-participant-1="App" data-participant-2="User"><polygon fill="#181818" points="84.5757,660.5469,74.5757,664.5469,84.5757,668.5469,80.5757,664.5469" style="stroke:#181818;stroke-width:1;"/><line style="stroke:#181818;stroke-width:1;stroke-dasharray:2.0,2.0;" x1="78.5757" x2="284.4536" y1="664.5469" y2="664.5469"/><text fill="#000000" font-family="sans-serif" font-size="13" lengthAdjust="spacing" textLength="94.6499" x="90.5757" y="659.6904">Display new IPA</text></g><line style="stroke:#000000;stroke-width:1;stroke-dasharray:2.0,2.0;" x1="10" x2="880.3838" y1="673.5469" y2="673.5469"/><text fill="#000000" font-family="sans-serif" font-size="11" font-weight="bold" lengthAdjust="spacing" textLength="104.5161" x="15" y="684.9658">[Multiple IPAs exist]</text><g class="message" data-participant-1="User" data-participant-2="App"><polygon fill="#181818" points="273.4536,706.7344,283.4536,710.7344,273.4536,714.7344,277.4536,710.7344" style="stroke:#181818;stroke-width:1;"/><line style="stroke:#181818;stroke-width:1;" x1="73.5757" x2="279.4536" y1="710.7344" y2="710.7344"/><text fill="#000000" font-family="sans-serif" font-size="13" lengthAdjust="spacing" textLength="130.7998" x="80.5757" y="705.8779">Select new default IPA</text></g><g class="message" data-participant-1="App" data-participant-2="Gateway"><polygon fill="#181818" points="512.7451,737.0859,522.7451,741.0859,512.7451,745.0859,516.7451,741.0859" style="stroke:#181818;stroke-width:1;"/><line style="stroke:#181818;stroke-width:1;" x1="295.4536" x2="518.7451" y1="741.0859" y2="741.0859"/><text fill="#000000" font-family="sans-serif" font-size="13" lengthAdjust="spacing" textLength="210.2915" x="302.4536" y="736.2295">PATCH /api/accounts/ipa/default/{id}</text></g><g class="message" data-participant-1="Gateway" data-participant-2="AccountService"><polygon fill="#181818" points="650.855,767.4375,660.855,771.4375,650.855,775.4375,654.855,771.4375" style="stroke:#181818;stroke-width:1;"/><line style="stroke:#181818;stroke-width:1;" x1="534.7451" x2="656.855" y1="771.4375" y2="771.4375"/><text fill="#000000" font-family="sans-serif" font-size="13" lengthAdjust="spacing" textLength="86.7217" x="541.7451" y="766.5811">Set default IPA</text></g><g class="message" data-participant-1="AccountService" data-participant-2="DB"><polygon fill="#181818" points="816.4185,797.7891,826.4185,801.7891,816.4185,805.7891,820.4185,801.7891" style="stroke:#181818;stroke-width:1;"/><line style="stroke:#181818;stroke-width:1;" x1="672.855" x2="822.4185" y1="801.7891" y2="801.7891"/><text fill="#000000" font-family="sans-serif" font-size="13" lengthAdjust="spacing" textLength="109.1289" x="679.855" y="796.9326">Update default IPA</text></g><g class="message" data-participant-1="DB" data-participant-2="AccountService"><polygon fill="#181818" points="683.855,828.1406,673.855,832.1406,683.855,836.1406,679.855,832.1406" style="stroke:#181818;stroke-width:1;"/><line style="stroke:#181818;stroke-width:1;stroke-dasharray:2.0,2.0;" x1="677.855" x2="832.4185" y1="832.1406" y2="832.1406"/><text fill="#000000" font-family="sans-serif" font-size="13" lengthAdjust="spacing" textLength="49.1309" x="689.855" y="827.2842">Success</text></g><g class="message" data-participant-1="AccountService" data-participant-2="Gateway"><polygon fill="#181818" points="545.7451,858.4922,535.7451,862.4922,545.7451,866.4922,541.7451,862.4922" style="stroke:#181818;stroke-width:1;"/><line style="stroke:#181818;stroke-width:1;stroke-dasharray:2.0,2.0;" x1="539.7451" x2="666.855" y1="862.4922" y2="862.4922"/><text fill="#000000" font-family="sans-serif" font-size="13" lengthAdjust="spacing" textLength="44.0845" x="551.7451" y="857.6357">200 OK</text></g><g class="message" data-participant-1="Gateway" data-participant-2="App"><polygon fill="#181818" points="306.4536,888.8438,296.4536,892.8438,306.4536,896.8438,302.4536,892.8438" style="stroke:#181818;stroke-width:1;"/><line style="stroke:#181818;stroke-width:1;stroke-dasharray:2.0,2.0;" x1="300.4536" x2="528.7451" y1="892.8438" y2="892.8438"/><text fill="#000000" font-family="sans-serif" font-size="13" lengthAdjust="spacing" textLength="44.0845" x="312.4536" y="887.9873">200 OK</text></g><g class="message" data-participant-1="App" data-participant-2="User"><polygon fill="#181818" points="84.5757,919.1953,74.5757,923.1953,84.5757,927.1953,80.5757,923.1953" style="stroke:#181818;stroke-width:1;"/><line style="stroke:#181818;stroke-width:1;stroke-dasharray:2.0,2.0;" x1="78.5757" x2="289.4536" y1="923.1953" y2="923.1953"/><text fill="#000000" font-family="sans-serif" font-size="13" lengthAdjust="spacing" textLength="117.0444" x="90.5757" y="918.3389">Display confirmation</text></g><!--SRC=[jLJ1Rjim3BthAuZS0wUz3F1XW1DtRJ5i3Phc0rY9JGLejY4foOfX_pv9TXBBbeUXGtEmPO7lyP5y8N9RQvWzqauQIve4R0tf6Q091zQWjfBB1YiBio-eJBt6DoYQ9eIuTnnHhE_X5YqTyIq4TET14EVrtXqsf0-IKylKtdLNSNo95f_Hj87baZ4hhIBOhkPNdt9OlMAr8oZf1VVAmlswW488JSOmvak0-MUlC_Sft6K8C6Ijh7Q68RVou3I6IfXx-EXET0wtDq-GOICpRDMPp2cwO4x5iUuGCaLrE0fg9M4hYVefuv9P_Et9ocKEZsIrf0DDiRX-b4kO9rB7045zo2XPl-m82CePeuyUoZuNV-hpzM813r_XAErhe1eIdDiMskrGVaevbD8qol74iXcwcNwlmRr8L-WeGYSCu06bmcT53DmlJLKtLjOLs1gu9f-wegD71qZaZGqfuZOLDlJ4-c6JCeKF7LNeByFZBmPPZLDEjVfCbtPAn-JxfudNMiHaRkh-Uy8icttuTuIGs2gJMVjTkLvSTVd5a6AgY8HlpXojUVezIVZd8Ymv_1EQb27uvbQ3R5Jd7VhfBJbb0WyKbssITa7njBeRso3hSDalANw_tnCRjpI62jvfYcqZF6YIxODTuJV1VnWY1V_7yVEwUf7w1_eDC5BWbZrLWlq1]--></g></svg>