<svg xmlns="http://www.w3.org/2000/svg" xmlns:xlink="http://www.w3.org/1999/xlink" contentStyleType="text/css" data-diagram-type="SEQUENCE" height="921px" preserveAspectRatio="none" style="width:963px;height:921px;background:#FFFFFF;" version="1.1" viewBox="0 0 963 921" width="963px" zoomAndPan="magnify"><title>UC-19: Enable/Disable Notifications</title><defs/><g><text fill="#000000" font-family="sans-serif" font-size="14" font-weight="bold" lengthAdjust="spacing" textLength="237.2686" x="363.9321" y="29.5332">UC-19: Enable/Disable Notifications</text><g><title>FalsoPay App</title><rect fill="#FFFFFF" height="677.2188" style="stroke:#181818;stroke-width:1;" width="10" x="284.019" y="153.5703"/></g><g><title>FalsoPay App</title><rect fill="#FFFFFF" height="388.0547" style="stroke:#181818;stroke-width:1;" width="10" x="289.019" y="426.7344"/></g><g><title>API Gateway</title><rect fill="#FFFFFF" height="151.7578" style="stroke:#181818;stroke-width:1;" width="10" x="489.2661" y="183.9219"/></g><g><title>API Gateway</title><rect fill="#FFFFFF" height="327.3516" style="stroke:#181818;stroke-width:1;" width="10" x="489.2661" y="457.0859"/></g><g><title>Notification Service</title><rect fill="#FFFFFF" height="91.0547" style="stroke:#181818;stroke-width:1;" width="10" x="677.2432" y="214.2734"/></g><g><title>Notification Service</title><rect fill="#FFFFFF" height="266.6484" style="stroke:#181818;stroke-width:1;" width="10" x="677.2432" y="487.4375"/></g><g><title>Database</title><rect fill="#FFFFFF" height="30.3516" style="stroke:#181818;stroke-width:1;" width="10" x="904.1675" y="244.625"/></g><g><title>Database</title><rect fill="#FFFFFF" height="30.3516" style="stroke:#181818;stroke-width:1;" width="10" x="904.1675" y="693.3828"/></g><rect fill="none" height="320.3516" style="stroke:#000000;stroke-width:1.5;" width="946.1328" x="10" y="502.4375"/><g><title>Registered User</title><rect fill="#000000" fill-opacity="0.00000" height="718.5703" width="8" x="69.5757" y="121.2188"/><line style="stroke:#181818;stroke-width:0.5;stroke-dasharray:5.0,5.0;" x1="73" x2="73" y1="121.2188" y2="839.7891"/></g><g><title>FalsoPay App</title><rect fill="#000000" fill-opacity="0.00000" height="718.5703" width="8" x="285.019" y="121.2188"/><line style="stroke:#181818;stroke-width:0.5;stroke-dasharray:5.0,5.0;" x1="288.4399" x2="288.4399" y1="121.2188" y2="839.7891"/></g><g><title>API Gateway</title><rect fill="#000000" fill-opacity="0.00000" height="718.5703" width="8" x="490.2661" y="121.2188"/><line style="stroke:#181818;stroke-width:0.5;stroke-dasharray:5.0,5.0;" x1="493.4146" x2="493.4146" y1="121.2188" y2="839.7891"/></g><g><title>Notification Service</title><rect fill="#000000" fill-opacity="0.00000" height="718.5703" width="8" x="678.2432" y="121.2188"/><line style="stroke:#181818;stroke-width:0.5;stroke-dasharray:5.0,5.0;" x1="681.3296" x2="681.3296" y1="121.2188" y2="839.7891"/></g><g><title>Database</title><rect fill="#000000" fill-opacity="0.00000" height="718.5703" width="8" x="905.1675" y="121.2188"/><line style="stroke:#181818;stroke-width:0.5;stroke-dasharray:5.0,5.0;" x1="908.2021" x2="908.2021" y1="121.2188" y2="839.7891"/></g><g class="participant participant-head" data-participant="User"><text fill="#000000" font-family="sans-serif" font-size="14" lengthAdjust="spacing" textLength="101.1514" x="20" y="118.1426">Registered User</text><ellipse cx="73.5757" cy="52.1094" fill="#E2E2F0" rx="8" ry="8" style="stroke:#181818;stroke-width:0.5;"/><path d="M73.5757,60.1094 L73.5757,87.1094 M60.5757,68.1094 L86.5757,68.1094 M73.5757,87.1094 L60.5757,102.1094 M73.5757,87.1094 L86.5757,102.1094" fill="none" style="stroke:#181818;stroke-width:0.5;"/></g><g class="participant participant-tail" data-participant="User"><text fill="#000000" font-family="sans-serif" font-size="14" lengthAdjust="spacing" textLength="101.1514" x="20" y="853.3223">Registered User</text><ellipse cx="73.5757" cy="864.8984" fill="#E2E2F0" rx="8" ry="8" style="stroke:#181818;stroke-width:0.5;"/><path d="M73.5757,872.8984 L73.5757,899.8984 M60.5757,880.8984 L86.5757,880.8984 M73.5757,899.8984 L60.5757,914.8984 M73.5757,899.8984 L86.5757,914.8984" fill="none" style="stroke:#181818;stroke-width:0.5;"/></g><g class="participant participant-head" data-participant="App"><rect fill="#E2E2F0" height="31.6094" rx="2.5" ry="2.5" style="stroke:#181818;stroke-width:0.5;" width="101.1582" x="238.4399" y="88.6094"/><text fill="#000000" font-family="sans-serif" font-size="14" lengthAdjust="spacing" textLength="87.1582" x="245.4399" y="110.1426">FalsoPay App</text></g><g class="participant participant-tail" data-participant="App"><rect fill="#E2E2F0" height="31.6094" rx="2.5" ry="2.5" style="stroke:#181818;stroke-width:0.5;" width="101.1582" x="238.4399" y="838.7891"/><text fill="#000000" font-family="sans-serif" font-size="14" lengthAdjust="spacing" textLength="87.1582" x="245.4399" y="860.3223">FalsoPay App</text></g><g class="participant participant-head" data-participant="Gateway"><rect fill="#E2E2F0" height="31.6094" rx="2.5" ry="2.5" style="stroke:#181818;stroke-width:0.5;" width="95.7031" x="446.4146" y="88.6094"/><text fill="#000000" font-family="sans-serif" font-size="14" lengthAdjust="spacing" textLength="81.7031" x="453.4146" y="110.1426">API Gateway</text></g><g class="participant participant-tail" data-participant="Gateway"><rect fill="#E2E2F0" height="31.6094" rx="2.5" ry="2.5" style="stroke:#181818;stroke-width:0.5;" width="95.7031" x="446.4146" y="838.7891"/><text fill="#000000" font-family="sans-serif" font-size="14" lengthAdjust="spacing" textLength="81.7031" x="453.4146" y="860.3223">API Gateway</text></g><g class="participant participant-head" data-participant="NotifService"><rect fill="#E2E2F0" height="31.6094" rx="2.5" ry="2.5" style="stroke:#181818;stroke-width:0.5;" width="133.8271" x="615.3296" y="88.6094"/><text fill="#000000" font-family="sans-serif" font-size="14" lengthAdjust="spacing" textLength="119.8271" x="622.3296" y="110.1426">Notification Service</text></g><g class="participant participant-tail" data-participant="NotifService"><rect fill="#E2E2F0" height="31.6094" rx="2.5" ry="2.5" style="stroke:#181818;stroke-width:0.5;" width="133.8271" x="615.3296" y="838.7891"/><text fill="#000000" font-family="sans-serif" font-size="14" lengthAdjust="spacing" textLength="119.8271" x="622.3296" y="860.3223">Notification Service</text></g><g class="participant participant-head" data-participant="DB"><rect fill="#E2E2F0" height="31.6094" rx="2.5" ry="2.5" style="stroke:#181818;stroke-width:0.5;" width="73.9307" x="872.2021" y="88.6094"/><text fill="#000000" font-family="sans-serif" font-size="14" lengthAdjust="spacing" textLength="59.9307" x="879.2021" y="110.1426">Database</text></g><g class="participant participant-tail" data-participant="DB"><rect fill="#E2E2F0" height="31.6094" rx="2.5" ry="2.5" style="stroke:#181818;stroke-width:0.5;" width="73.9307" x="872.2021" y="838.7891"/><text fill="#000000" font-family="sans-serif" font-size="14" lengthAdjust="spacing" textLength="59.9307" x="879.2021" y="860.3223">Database</text></g><g><title>FalsoPay App</title><rect fill="#FFFFFF" height="677.2188" style="stroke:#181818;stroke-width:1;" width="10" x="284.019" y="153.5703"/></g><g><title>FalsoPay App</title><rect fill="#FFFFFF" height="388.0547" style="stroke:#181818;stroke-width:1;" width="10" x="289.019" y="426.7344"/></g><g><title>API Gateway</title><rect fill="#FFFFFF" height="151.7578" style="stroke:#181818;stroke-width:1;" width="10" x="489.2661" y="183.9219"/></g><g><title>API Gateway</title><rect fill="#FFFFFF" height="327.3516" style="stroke:#181818;stroke-width:1;" width="10" x="489.2661" y="457.0859"/></g><g><title>Notification Service</title><rect fill="#FFFFFF" height="91.0547" style="stroke:#181818;stroke-width:1;" width="10" x="677.2432" y="214.2734"/></g><g><title>Notification Service</title><rect fill="#FFFFFF" height="266.6484" style="stroke:#181818;stroke-width:1;" width="10" x="677.2432" y="487.4375"/></g><g><title>Database</title><rect fill="#FFFFFF" height="30.3516" style="stroke:#181818;stroke-width:1;" width="10" x="904.1675" y="244.625"/></g><g><title>Database</title><rect fill="#FFFFFF" height="30.3516" style="stroke:#181818;stroke-width:1;" width="10" x="904.1675" y="693.3828"/></g><g class="message" data-participant-1="User" data-participant-2="App"><polygon fill="#181818" points="272.019,149.5703,282.019,153.5703,272.019,157.5703,276.019,153.5703" style="stroke:#181818;stroke-width:1;"/><line style="stroke:#181818;stroke-width:1;" x1="73.5757" x2="278.019" y1="153.5703" y2="153.5703"/><text fill="#000000" font-family="sans-serif" font-size="13" lengthAdjust="spacing" textLength="156.0762" x="80.5757" y="148.7139">Access notification settings</text></g><g class="message" data-participant-1="App" data-participant-2="Gateway"><polygon fill="#181818" points="477.2661,179.9219,487.2661,183.9219,477.2661,187.9219,481.2661,183.9219" style="stroke:#181818;stroke-width:1;"/><line style="stroke:#181818;stroke-width:1;" x1="294.019" x2="483.2661" y1="183.9219" y2="183.9219"/><text fill="#000000" font-family="sans-serif" font-size="13" lengthAdjust="spacing" textLength="171.9707" x="301.019" y="179.0654">GET /api/notifications/settings</text></g><g class="message" data-participant-1="Gateway" data-participant-2="NotifService"><polygon fill="#181818" points="665.2432,210.2734,675.2432,214.2734,665.2432,218.2734,669.2432,214.2734" style="stroke:#181818;stroke-width:1;"/><line style="stroke:#181818;stroke-width:1;" x1="499.2661" x2="671.2432" y1="214.2734" y2="214.2734"/><text fill="#000000" font-family="sans-serif" font-size="13" lengthAdjust="spacing" textLength="158.9771" x="506.2661" y="209.417">Get notification preferences</text></g><g class="message" data-participant-1="NotifService" data-participant-2="DB"><polygon fill="#181818" points="892.1675,240.625,902.1675,244.625,892.1675,248.625,896.1675,244.625" style="stroke:#181818;stroke-width:1;"/><line style="stroke:#181818;stroke-width:1;" x1="687.2432" x2="898.1675" y1="244.625" y2="244.625"/><text fill="#000000" font-family="sans-serif" font-size="13" lengthAdjust="spacing" textLength="120.6689" x="694.2432" y="239.7686">Retrieve preferences</text></g><g class="message" data-participant-1="DB" data-participant-2="NotifService"><polygon fill="#181818" points="698.2432,270.9766,688.2432,274.9766,698.2432,278.9766,694.2432,274.9766" style="stroke:#181818;stroke-width:1;"/><line style="stroke:#181818;stroke-width:1;stroke-dasharray:2.0,2.0;" x1="692.2432" x2="908.1675" y1="274.9766" y2="274.9766"/><text fill="#000000" font-family="sans-serif" font-size="13" lengthAdjust="spacing" textLength="136.5698" x="704.2432" y="270.1201">Notification preferences</text></g><g class="message" data-participant-1="NotifService" data-participant-2="Gateway"><polygon fill="#181818" points="510.2661,301.3281,500.2661,305.3281,510.2661,309.3281,506.2661,305.3281" style="stroke:#181818;stroke-width:1;"/><line style="stroke:#181818;stroke-width:1;stroke-dasharray:2.0,2.0;" x1="504.2661" x2="681.2432" y1="305.3281" y2="305.3281"/><text fill="#000000" font-family="sans-serif" font-size="13" lengthAdjust="spacing" textLength="112.7217" x="516.2661" y="300.4717">Notification settings</text></g><g class="message" data-participant-1="Gateway" data-participant-2="App"><polygon fill="#181818" points="305.019,331.6797,295.019,335.6797,305.019,339.6797,301.019,335.6797" style="stroke:#181818;stroke-width:1;"/><line style="stroke:#181818;stroke-width:1;stroke-dasharray:2.0,2.0;" x1="299.019" x2="493.2661" y1="335.6797" y2="335.6797"/><text fill="#000000" font-family="sans-serif" font-size="13" lengthAdjust="spacing" textLength="119.228" x="311.019" y="330.8232">200 OK with settings</text></g><g class="message" data-participant-1="App" data-participant-2="User"><polygon fill="#181818" points="84.5757,362.0313,74.5757,366.0313,84.5757,370.0313,80.5757,366.0313" style="stroke:#181818;stroke-width:1;"/><line style="stroke:#181818;stroke-width:1;stroke-dasharray:2.0,2.0;" x1="78.5757" x2="283.019" y1="366.0313" y2="366.0313"/><text fill="#000000" font-family="sans-serif" font-size="13" lengthAdjust="spacing" textLength="156.7998" x="90.5757" y="361.1748">Display notification settings</text></g><g class="message" data-participant-1="User" data-participant-2="App"><polygon fill="#181818" points="272.019,392.3828,282.019,396.3828,272.019,400.3828,276.019,396.3828" style="stroke:#181818;stroke-width:1;"/><line style="stroke:#181818;stroke-width:1;" x1="73.5757" x2="278.019" y1="396.3828" y2="396.3828"/><text fill="#000000" font-family="sans-serif" font-size="13" lengthAdjust="spacing" textLength="186.4434" x="80.5757" y="391.5264">Toggle desired notification types</text></g><g class="message" data-participant-1="User" data-participant-2="App"><polygon fill="#181818" points="277.019,422.7344,287.019,426.7344,277.019,430.7344,281.019,426.7344" style="stroke:#181818;stroke-width:1;"/><line style="stroke:#181818;stroke-width:1;" x1="73.5757" x2="283.019" y1="426.7344" y2="426.7344"/><text fill="#000000" font-family="sans-serif" font-size="13" lengthAdjust="spacing" textLength="101.8926" x="80.5757" y="421.8779">Save preferences</text></g><g class="message" data-participant-1="App" data-participant-2="Gateway"><polygon fill="#181818" points="477.2661,453.0859,487.2661,457.0859,477.2661,461.0859,481.2661,457.0859" style="stroke:#181818;stroke-width:1;"/><line style="stroke:#181818;stroke-width:1;" x1="299.019" x2="483.2661" y1="457.0859" y2="457.0859"/><text fill="#000000" font-family="sans-serif" font-size="13" lengthAdjust="spacing" textLength="171.2471" x="306.019" y="452.2295">PUT /api/notifications/settings</text></g><g class="message" data-participant-1="Gateway" data-participant-2="NotifService"><polygon fill="#181818" points="665.2432,483.4375,675.2432,487.4375,665.2432,491.4375,669.2432,487.4375" style="stroke:#181818;stroke-width:1;"/><line style="stroke:#181818;stroke-width:1;" x1="499.2661" x2="671.2432" y1="487.4375" y2="487.4375"/><text fill="#000000" font-family="sans-serif" font-size="13" lengthAdjust="spacing" textLength="156.0952" x="506.2661" y="482.5811">Update notification settings</text></g><path d="M10,502.4375 L70.1709,502.4375 L70.1709,510.7891 L60.1709,520.7891 L10,520.7891 L10,502.4375" fill="#EEEEEE" style="stroke:#000000;stroke-width:1.5;"/><rect fill="none" height="320.3516" style="stroke:#000000;stroke-width:1.5;" width="946.1328" x="10" y="502.4375"/><text fill="#000000" font-family="sans-serif" font-size="13" font-weight="bold" lengthAdjust="spacing" textLength="15.1709" x="25" y="516.9326">alt</text><text fill="#000000" font-family="sans-serif" font-size="11" font-weight="bold" lengthAdjust="spacing" textLength="179.0669" x="85.1709" y="515.8564">[Mandatory notifications disabled]</text><g class="message" data-participant-1="NotifService" data-participant-2="NotifService"><line style="stroke:#181818;stroke-width:1;" x1="687.2432" x2="729.2432" y1="543.1406" y2="543.1406"/><line style="stroke:#181818;stroke-width:1;" x1="729.2432" x2="729.2432" y1="543.1406" y2="556.1406"/><line style="stroke:#181818;stroke-width:1;" x1="688.2432" x2="729.2432" y1="556.1406" y2="556.1406"/><polygon fill="#181818" points="698.2432,552.1406,688.2432,556.1406,698.2432,560.1406,694.2432,556.1406" style="stroke:#181818;stroke-width:1;"/><text fill="#000000" font-family="sans-serif" font-size="13" lengthAdjust="spacing" textLength="192.9243" x="694.2432" y="538.2842">Check for mandatory notifications</text></g><g class="message" data-participant-1="NotifService" data-participant-2="Gateway"><polygon fill="#181818" points="510.2661,582.4922,500.2661,586.4922,510.2661,590.4922,506.2661,586.4922" style="stroke:#181818;stroke-width:1;"/><line style="stroke:#181818;stroke-width:1;stroke-dasharray:2.0,2.0;" x1="504.2661" x2="676.2432" y1="586.4922" y2="586.4922"/><text fill="#000000" font-family="sans-serif" font-size="13" lengthAdjust="spacing" textLength="100.4644" x="516.2661" y="581.6357">400 Bad Request</text></g><g class="message" data-participant-1="Gateway" data-participant-2="App"><polygon fill="#181818" points="310.019,612.8438,300.019,616.8438,310.019,620.8438,306.019,616.8438" style="stroke:#181818;stroke-width:1;"/><line style="stroke:#181818;stroke-width:1;stroke-dasharray:2.0,2.0;" x1="304.019" x2="488.2661" y1="616.8438" y2="616.8438"/><text fill="#000000" font-family="sans-serif" font-size="13" lengthAdjust="spacing" textLength="100.4644" x="316.019" y="611.9873">400 Bad Request</text></g><g class="message" data-participant-1="App" data-participant-2="User"><polygon fill="#181818" points="84.5757,643.1953,74.5757,647.1953,84.5757,651.1953,80.5757,647.1953" style="stroke:#181818;stroke-width:1;"/><line style="stroke:#181818;stroke-width:1;stroke-dasharray:2.0,2.0;" x1="78.5757" x2="288.019" y1="647.1953" y2="647.1953"/><text fill="#000000" font-family="sans-serif" font-size="13" lengthAdjust="spacing" textLength="182.8252" x="90.5757" y="642.3389">Indicate mandatory notifications</text></g><line style="stroke:#000000;stroke-width:1;stroke-dasharray:2.0,2.0;" x1="10" x2="956.1328" y1="656.1953" y2="656.1953"/><text fill="#000000" font-family="sans-serif" font-size="11" font-weight="bold" lengthAdjust="spacing" textLength="97.1899" x="15" y="667.6143">[All valid changes]</text><g class="message" data-participant-1="NotifService" data-participant-2="DB"><polygon fill="#181818" points="892.1675,689.3828,902.1675,693.3828,892.1675,697.3828,896.1675,693.3828" style="stroke:#181818;stroke-width:1;"/><line style="stroke:#181818;stroke-width:1;" x1="687.2432" x2="898.1675" y1="693.3828" y2="693.3828"/><text fill="#000000" font-family="sans-serif" font-size="13" lengthAdjust="spacing" textLength="114.1816" x="694.2432" y="688.5264">Update preferences</text></g><g class="message" data-participant-1="DB" data-participant-2="NotifService"><polygon fill="#181818" points="698.2432,719.7344,688.2432,723.7344,698.2432,727.7344,694.2432,723.7344" style="stroke:#181818;stroke-width:1;"/><line style="stroke:#181818;stroke-width:1;stroke-dasharray:2.0,2.0;" x1="692.2432" x2="908.1675" y1="723.7344" y2="723.7344"/><text fill="#000000" font-family="sans-serif" font-size="13" lengthAdjust="spacing" textLength="49.1309" x="704.2432" y="718.8779">Success</text></g><g class="message" data-participant-1="NotifService" data-participant-2="Gateway"><polygon fill="#181818" points="510.2661,750.0859,500.2661,754.0859,510.2661,758.0859,506.2661,754.0859" style="stroke:#181818;stroke-width:1;"/><line style="stroke:#181818;stroke-width:1;stroke-dasharray:2.0,2.0;" x1="504.2661" x2="681.2432" y1="754.0859" y2="754.0859"/><text fill="#000000" font-family="sans-serif" font-size="13" lengthAdjust="spacing" textLength="44.0845" x="516.2661" y="749.2295">200 OK</text></g><g class="message" data-participant-1="Gateway" data-participant-2="App"><polygon fill="#181818" points="310.019,780.4375,300.019,784.4375,310.019,788.4375,306.019,784.4375" style="stroke:#181818;stroke-width:1;"/><line style="stroke:#181818;stroke-width:1;stroke-dasharray:2.0,2.0;" x1="304.019" x2="493.2661" y1="784.4375" y2="784.4375"/><text fill="#000000" font-family="sans-serif" font-size="13" lengthAdjust="spacing" textLength="44.0845" x="316.019" y="779.5811">200 OK</text></g><g class="message" data-participant-1="App" data-participant-2="User"><polygon fill="#181818" points="84.5757,810.7891,74.5757,814.7891,84.5757,818.7891,80.5757,814.7891" style="stroke:#181818;stroke-width:1;"/><line style="stroke:#181818;stroke-width:1;stroke-dasharray:2.0,2.0;" x1="78.5757" x2="283.019" y1="814.7891" y2="814.7891"/><text fill="#000000" font-family="sans-serif" font-size="13" lengthAdjust="spacing" textLength="117.0444" x="90.5757" y="809.9326">Display confirmation</text></g><!--SRC=[hLJBRjim4BppAnQ-6qwBNAf30JjAWo2eQyJn1sp8jKoKeLHnuy1_NvAMNLAcaKjza2XvPXypkqB9RG-JPsgqO-f9mSPHFm5qyI0wx5bBtQ5bcFn0uzeL7c3UTH7YxpbYldg41sJwm4C43ESSj6nPRxL4rgs5DVLxBIcYun_3YvnI8-ChkYEiNWZ1cWt1vcxwvLi5znPV3SrgxS8TqlXEYD07JB-7OYkOIqdEWKrBSCIiRUC4IjPxNt7iI_XBe0qjLF1m_m8pxFGi9RlP9VlKj1WE8KhQcWz5d9VGzRJrwbjVtByucHmYVGeHwqK5pyIzfZsL-LwdUW7JY-pBQvaLfTnHnbIAPL6-X9wNVjRXvCBNcnluzGGVcdT5-bd1w85d1Gyhy0PtniSfkvSR_T8sZPy5HKw7gSueVEXyjnbyZTTKBCx2QlFVPc7JgG3yP29pGT4m_4JhYMsVo-507RT02V2_yT3agUzs97_3rdy0tih12Z5I5MwzZGjKVWp_l9FZYBxmkWJARNsqAYIagrMGSTu7Os2FHYkGExGDkMA3OIi6HLCt0pITxV1St8trU_n0H42-3k7D9teSnthCpQmxHxco4sFoQNxElF96oDPkTVyMzHg720DCLec_]--></g></svg>