<svg xmlns="http://www.w3.org/2000/svg" xmlns:xlink="http://www.w3.org/1999/xlink" contentStyleType="text/css" data-diagram-type="SEQUENCE" height="982px" preserveAspectRatio="none" style="width:938px;height:982px;background:#FFFFFF;" version="1.1" viewBox="0 0 938 982" width="938px" zoomAndPan="magnify"><title>UC-20: Filter Transaction</title><defs/><g><text fill="#000000" font-family="sans-serif" font-size="14" font-weight="bold" lengthAdjust="spacing" textLength="166.4756" x="384.9255" y="29.5332">UC-20: Filter Transaction</text><g><title>FalsoPay App</title><rect fill="#FFFFFF" height="737.9219" style="stroke:#181818;stroke-width:1;" width="10" x="336.0063" y="153.5703"/></g><g><title>FalsoPay App</title><rect fill="#FFFFFF" height="479.1094" style="stroke:#181818;stroke-width:1;" width="10" x="341.0063" y="396.3828"/></g><g><title>API Gateway</title><rect fill="#FFFFFF" height="151.7578" style="stroke:#181818;stroke-width:1;" width="10" x="575.1943" y="183.9219"/></g><g><title>API Gateway</title><rect fill="#FFFFFF" height="284" style="stroke:#181818;stroke-width:1;" width="10" x="575.1943" y="561.1406"/></g><g><title>Transaction History Service</title><rect fill="#FFFFFF" height="91.0547" style="stroke:#181818;stroke-width:1;" width="10" x="741.4814" y="214.2734"/></g><g><title>Transaction History Service</title><rect fill="#FFFFFF" height="223.2969" style="stroke:#181818;stroke-width:1;" width="10" x="741.4814" y="591.4922"/></g><g><title>Database</title><rect fill="#FFFFFF" height="30.3516" style="stroke:#181818;stroke-width:1;" width="10" x="890.3613" y="244.625"/></g><g><title>Database</title><rect fill="#FFFFFF" height="30.3516" style="stroke:#181818;stroke-width:1;" width="10" x="890.3613" y="621.8438"/></g><rect fill="none" height="216.2969" style="stroke:#000000;stroke-width:1.5;" width="839.064" x="10" y="667.1953"/><g><title>Registered User</title><rect fill="#000000" fill-opacity="0.00000" height="779.2734" width="8" x="69.5757" y="121.2188"/><line style="stroke:#181818;stroke-width:0.5;stroke-dasharray:5.0,5.0;" x1="73" x2="73" y1="121.2188" y2="900.4922"/></g><g><title>FalsoPay App</title><rect fill="#000000" fill-opacity="0.00000" height="779.2734" width="8" x="337.0063" y="121.2188"/><line style="stroke:#181818;stroke-width:0.5;stroke-dasharray:5.0,5.0;" x1="340.4272" x2="340.4272" y1="121.2188" y2="900.4922"/></g><g><title>API Gateway</title><rect fill="#000000" fill-opacity="0.00000" height="779.2734" width="8" x="576.1943" y="121.2188"/><line style="stroke:#181818;stroke-width:0.5;stroke-dasharray:5.0,5.0;" x1="579.3428" x2="579.3428" y1="121.2188" y2="900.4922"/></g><g><title>Transaction History Service</title><rect fill="#000000" fill-opacity="0.00000" height="779.2734" width="8" x="742.4814" y="121.2188"/><line style="stroke:#181818;stroke-width:0.5;stroke-dasharray:5.0,5.0;" x1="745.8989" x2="745.8989" y1="121.2188" y2="900.4922"/></g><g><title>Database</title><rect fill="#000000" fill-opacity="0.00000" height="779.2734" width="8" x="891.3613" y="121.2188"/><line style="stroke:#181818;stroke-width:0.5;stroke-dasharray:5.0,5.0;" x1="894.396" x2="894.396" y1="121.2188" y2="900.4922"/></g><g class="participant participant-head" data-participant="User"><text fill="#000000" font-family="sans-serif" font-size="14" lengthAdjust="spacing" textLength="101.1514" x="20" y="118.1426">Registered User</text><ellipse cx="73.5757" cy="52.1094" fill="#E2E2F0" rx="8" ry="8" style="stroke:#181818;stroke-width:0.5;"/><path d="M73.5757,60.1094 L73.5757,87.1094 M60.5757,68.1094 L86.5757,68.1094 M73.5757,87.1094 L60.5757,102.1094 M73.5757,87.1094 L86.5757,102.1094" fill="none" style="stroke:#181818;stroke-width:0.5;"/></g><g class="participant participant-tail" data-participant="User"><text fill="#000000" font-family="sans-serif" font-size="14" lengthAdjust="spacing" textLength="101.1514" x="20" y="914.0254">Registered User</text><ellipse cx="73.5757" cy="925.6016" fill="#E2E2F0" rx="8" ry="8" style="stroke:#181818;stroke-width:0.5;"/><path d="M73.5757,933.6016 L73.5757,960.6016 M60.5757,941.6016 L86.5757,941.6016 M73.5757,960.6016 L60.5757,975.6016 M73.5757,960.6016 L86.5757,975.6016" fill="none" style="stroke:#181818;stroke-width:0.5;"/></g><g class="participant participant-head" data-participant="App"><rect fill="#E2E2F0" height="31.6094" rx="2.5" ry="2.5" style="stroke:#181818;stroke-width:0.5;" width="101.1582" x="290.4272" y="88.6094"/><text fill="#000000" font-family="sans-serif" font-size="14" lengthAdjust="spacing" textLength="87.1582" x="297.4272" y="110.1426">FalsoPay App</text></g><g class="participant participant-tail" data-participant="App"><rect fill="#E2E2F0" height="31.6094" rx="2.5" ry="2.5" style="stroke:#181818;stroke-width:0.5;" width="101.1582" x="290.4272" y="899.4922"/><text fill="#000000" font-family="sans-serif" font-size="14" lengthAdjust="spacing" textLength="87.1582" x="297.4272" y="921.0254">FalsoPay App</text></g><g class="participant participant-head" data-participant="Gateway"><rect fill="#E2E2F0" height="31.6094" rx="2.5" ry="2.5" style="stroke:#181818;stroke-width:0.5;" width="95.7031" x="532.3428" y="88.6094"/><text fill="#000000" font-family="sans-serif" font-size="14" lengthAdjust="spacing" textLength="81.7031" x="539.3428" y="110.1426">API Gateway</text></g><g class="participant participant-tail" data-participant="Gateway"><rect fill="#E2E2F0" height="31.6094" rx="2.5" ry="2.5" style="stroke:#181818;stroke-width:0.5;" width="95.7031" x="532.3428" y="899.4922"/><text fill="#000000" font-family="sans-serif" font-size="14" lengthAdjust="spacing" textLength="81.7031" x="539.3428" y="921.0254">API Gateway</text></g><g class="participant participant-head" data-participant="HistoryService"><rect fill="#E2E2F0" height="31.6094" rx="2.5" ry="2.5" style="stroke:#181818;stroke-width:0.5;" width="185.165" x="653.8989" y="88.6094"/><text fill="#000000" font-family="sans-serif" font-size="14" lengthAdjust="spacing" textLength="171.165" x="660.8989" y="110.1426">Transaction History Service</text></g><g class="participant participant-tail" data-participant="HistoryService"><rect fill="#E2E2F0" height="31.6094" rx="2.5" ry="2.5" style="stroke:#181818;stroke-width:0.5;" width="185.165" x="653.8989" y="899.4922"/><text fill="#000000" font-family="sans-serif" font-size="14" lengthAdjust="spacing" textLength="171.165" x="660.8989" y="921.0254">Transaction History Service</text></g><g class="participant participant-head" data-participant="DB"><rect fill="#E2E2F0" height="31.6094" rx="2.5" ry="2.5" style="stroke:#181818;stroke-width:0.5;" width="73.9307" x="858.396" y="88.6094"/><text fill="#000000" font-family="sans-serif" font-size="14" lengthAdjust="spacing" textLength="59.9307" x="865.396" y="110.1426">Database</text></g><g class="participant participant-tail" data-participant="DB"><rect fill="#E2E2F0" height="31.6094" rx="2.5" ry="2.5" style="stroke:#181818;stroke-width:0.5;" width="73.9307" x="858.396" y="899.4922"/><text fill="#000000" font-family="sans-serif" font-size="14" lengthAdjust="spacing" textLength="59.9307" x="865.396" y="921.0254">Database</text></g><g><title>FalsoPay App</title><rect fill="#FFFFFF" height="737.9219" style="stroke:#181818;stroke-width:1;" width="10" x="336.0063" y="153.5703"/></g><g><title>FalsoPay App</title><rect fill="#FFFFFF" height="479.1094" style="stroke:#181818;stroke-width:1;" width="10" x="341.0063" y="396.3828"/></g><g><title>API Gateway</title><rect fill="#FFFFFF" height="151.7578" style="stroke:#181818;stroke-width:1;" width="10" x="575.1943" y="183.9219"/></g><g><title>API Gateway</title><rect fill="#FFFFFF" height="284" style="stroke:#181818;stroke-width:1;" width="10" x="575.1943" y="561.1406"/></g><g><title>Transaction History Service</title><rect fill="#FFFFFF" height="91.0547" style="stroke:#181818;stroke-width:1;" width="10" x="741.4814" y="214.2734"/></g><g><title>Transaction History Service</title><rect fill="#FFFFFF" height="223.2969" style="stroke:#181818;stroke-width:1;" width="10" x="741.4814" y="591.4922"/></g><g><title>Database</title><rect fill="#FFFFFF" height="30.3516" style="stroke:#181818;stroke-width:1;" width="10" x="890.3613" y="244.625"/></g><g><title>Database</title><rect fill="#FFFFFF" height="30.3516" style="stroke:#181818;stroke-width:1;" width="10" x="890.3613" y="621.8438"/></g><g class="message" data-participant-1="User" data-participant-2="App"><polygon fill="#181818" points="324.0063,149.5703,334.0063,153.5703,324.0063,157.5703,328.0063,153.5703" style="stroke:#181818;stroke-width:1;"/><line style="stroke:#181818;stroke-width:1;" x1="73.5757" x2="330.0063" y1="153.5703" y2="153.5703"/><text fill="#000000" font-family="sans-serif" font-size="13" lengthAdjust="spacing" textLength="137.2808" x="80.5757" y="148.7139">View transaction history</text></g><g class="message" data-participant-1="App" data-participant-2="Gateway"><polygon fill="#181818" points="563.1943,179.9219,573.1943,183.9219,563.1943,187.9219,567.1943,183.9219" style="stroke:#181818;stroke-width:1;"/><line style="stroke:#181818;stroke-width:1;" x1="346.0063" x2="569.1943" y1="183.9219" y2="183.9219"/><text fill="#000000" font-family="sans-serif" font-size="13" lengthAdjust="spacing" textLength="166.8989" x="353.0063" y="179.0654">GET /api/transactions/history</text></g><g class="message" data-participant-1="Gateway" data-participant-2="HistoryService"><polygon fill="#181818" points="729.4814,210.2734,739.4814,214.2734,729.4814,218.2734,733.4814,214.2734" style="stroke:#181818;stroke-width:1;"/><line style="stroke:#181818;stroke-width:1;" x1="585.1943" x2="735.4814" y1="214.2734" y2="214.2734"/><text fill="#000000" font-family="sans-serif" font-size="13" lengthAdjust="spacing" textLength="130.0571" x="592.1943" y="209.417">Get transaction history</text></g><g class="message" data-participant-1="HistoryService" data-participant-2="DB"><polygon fill="#181818" points="878.3613,240.625,888.3613,244.625,878.3613,248.625,882.3613,244.625" style="stroke:#181818;stroke-width:1;"/><line style="stroke:#181818;stroke-width:1;" x1="751.4814" x2="884.3613" y1="244.625" y2="244.625"/><text fill="#000000" font-family="sans-serif" font-size="13" lengthAdjust="spacing" textLength="109.1035" x="758.4814" y="239.7686">Query transactions</text></g><g class="message" data-participant-1="DB" data-participant-2="HistoryService"><polygon fill="#181818" points="762.4814,270.9766,752.4814,274.9766,762.4814,278.9766,758.4814,274.9766" style="stroke:#181818;stroke-width:1;"/><line style="stroke:#181818;stroke-width:1;stroke-dasharray:2.0,2.0;" x1="756.4814" x2="894.3613" y1="274.9766" y2="274.9766"/><text fill="#000000" font-family="sans-serif" font-size="13" lengthAdjust="spacing" textLength="114.8799" x="768.4814" y="270.1201">Transaction records</text></g><g class="message" data-participant-1="HistoryService" data-participant-2="Gateway"><polygon fill="#181818" points="596.1943,301.3281,586.1943,305.3281,596.1943,309.3281,592.1943,305.3281" style="stroke:#181818;stroke-width:1;"/><line style="stroke:#181818;stroke-width:1;stroke-dasharray:2.0,2.0;" x1="590.1943" x2="745.4814" y1="305.3281" y2="305.3281"/><text fill="#000000" font-family="sans-serif" font-size="13" lengthAdjust="spacing" textLength="109.8208" x="602.1943" y="300.4717">Transaction history</text></g><g class="message" data-participant-1="Gateway" data-participant-2="App"><polygon fill="#181818" points="357.0063,331.6797,347.0063,335.6797,357.0063,339.6797,353.0063,335.6797" style="stroke:#181818;stroke-width:1;"/><line style="stroke:#181818;stroke-width:1;stroke-dasharray:2.0,2.0;" x1="351.0063" x2="579.1943" y1="335.6797" y2="335.6797"/><text fill="#000000" font-family="sans-serif" font-size="13" lengthAdjust="spacing" textLength="144.5171" x="363.0063" y="330.8232">200 OK with transactions</text></g><g class="message" data-participant-1="App" data-participant-2="User"><polygon fill="#181818" points="84.5757,362.0313,74.5757,366.0313,84.5757,370.0313,80.5757,366.0313" style="stroke:#181818;stroke-width:1;"/><line style="stroke:#181818;stroke-width:1;stroke-dasharray:2.0,2.0;" x1="78.5757" x2="335.0063" y1="366.0313" y2="366.0313"/><text fill="#000000" font-family="sans-serif" font-size="13" lengthAdjust="spacing" textLength="151.728" x="90.5757" y="361.1748">Display transaction history</text></g><g class="message" data-participant-1="User" data-participant-2="App"><polygon fill="#181818" points="329.0063,392.3828,339.0063,396.3828,329.0063,400.3828,333.0063,396.3828" style="stroke:#181818;stroke-width:1;"/><line style="stroke:#181818;stroke-width:1;" x1="73.5757" x2="335.0063" y1="396.3828" y2="396.3828"/><text fill="#000000" font-family="sans-serif" font-size="13" lengthAdjust="spacing" textLength="103.3335" x="80.5757" y="391.5264">Select filter option</text></g><g class="message" data-participant-1="App" data-participant-2="App"><line style="stroke:#181818;stroke-width:1;" x1="351.0063" x2="393.0063" y1="426.7344" y2="426.7344"/><line style="stroke:#181818;stroke-width:1;" x1="393.0063" x2="393.0063" y1="426.7344" y2="439.7344"/><line style="stroke:#181818;stroke-width:1;" x1="352.0063" x2="393.0063" y1="439.7344" y2="439.7344"/><polygon fill="#181818" points="362.0063,435.7344,352.0063,439.7344,362.0063,443.7344,358.0063,439.7344" style="stroke:#181818;stroke-width:1;"/><text fill="#000000" font-family="sans-serif" font-size="13" lengthAdjust="spacing" textLength="158.9453" x="358.0063" y="421.8779">Display filter criteria options</text></g><g class="message" data-participant-1="App" data-participant-2="User"><polygon fill="#181818" points="84.5757,466.0859,74.5757,470.0859,84.5757,474.0859,80.5757,470.0859" style="stroke:#181818;stroke-width:1;"/><line style="stroke:#181818;stroke-width:1;" x1="78.5757" x2="340.0063" y1="470.0859" y2="470.0859"/><text fill="#000000" font-family="sans-serif" font-size="13" lengthAdjust="spacing" textLength="238.4307" x="90.5757" y="465.2295">Show filter form (date, amount, type, etc.)</text></g><g class="message" data-participant-1="User" data-participant-2="App"><polygon fill="#181818" points="329.0063,496.4375,339.0063,500.4375,329.0063,504.4375,333.0063,500.4375" style="stroke:#181818;stroke-width:1;"/><line style="stroke:#181818;stroke-width:1;" x1="73.5757" x2="335.0063" y1="500.4375" y2="500.4375"/><text fill="#000000" font-family="sans-serif" font-size="13" lengthAdjust="spacing" textLength="90.3018" x="80.5757" y="495.5811">Set filter criteria</text></g><g class="message" data-participant-1="User" data-participant-2="App"><polygon fill="#181818" points="329.0063,526.7891,339.0063,530.7891,329.0063,534.7891,333.0063,530.7891" style="stroke:#181818;stroke-width:1;"/><line style="stroke:#181818;stroke-width:1;" x1="73.5757" x2="335.0063" y1="530.7891" y2="530.7891"/><text fill="#000000" font-family="sans-serif" font-size="13" lengthAdjust="spacing" textLength="67.1899" x="80.5757" y="525.9326">Apply filters</text></g><g class="message" data-participant-1="App" data-participant-2="Gateway"><polygon fill="#181818" points="563.1943,557.1406,573.1943,561.1406,563.1943,565.1406,567.1943,561.1406" style="stroke:#181818;stroke-width:1;"/><line style="stroke:#181818;stroke-width:1;" x1="351.0063" x2="569.1943" y1="561.1406" y2="561.1406"/><text fill="#000000" font-family="sans-serif" font-size="13" lengthAdjust="spacing" textLength="205.188" x="358.0063" y="556.2842">GET /api/transactions/history?filters</text></g><g class="message" data-participant-1="Gateway" data-participant-2="HistoryService"><polygon fill="#181818" points="729.4814,587.4922,739.4814,591.4922,729.4814,595.4922,733.4814,591.4922" style="stroke:#181818;stroke-width:1;"/><line style="stroke:#181818;stroke-width:1;" x1="585.1943" x2="735.4814" y1="591.4922" y2="591.4922"/><text fill="#000000" font-family="sans-serif" font-size="13" lengthAdjust="spacing" textLength="137.2871" x="592.1943" y="586.6357">Get filtered transactions</text></g><g class="message" data-participant-1="HistoryService" data-participant-2="DB"><polygon fill="#181818" points="878.3613,617.8438,888.3613,621.8438,878.3613,625.8438,882.3613,621.8438" style="stroke:#181818;stroke-width:1;"/><line style="stroke:#181818;stroke-width:1;" x1="751.4814" x2="884.3613" y1="621.8438" y2="621.8438"/><text fill="#000000" font-family="sans-serif" font-size="13" lengthAdjust="spacing" textLength="96.8018" x="758.4814" y="616.9873">Query with filters</text></g><g class="message" data-participant-1="DB" data-participant-2="HistoryService"><polygon fill="#181818" points="762.4814,648.1953,752.4814,652.1953,762.4814,656.1953,758.4814,652.1953" style="stroke:#181818;stroke-width:1;"/><line style="stroke:#181818;stroke-width:1;stroke-dasharray:2.0,2.0;" x1="756.4814" x2="894.3613" y1="652.1953" y2="652.1953"/><text fill="#000000" font-family="sans-serif" font-size="13" lengthAdjust="spacing" textLength="90.3081" x="768.4814" y="647.3389">Filtered records</text></g><path d="M10,667.1953 L70.1709,667.1953 L70.1709,675.5469 L60.1709,685.5469 L10,685.5469 L10,667.1953" fill="#EEEEEE" style="stroke:#000000;stroke-width:1.5;"/><rect fill="none" height="216.2969" style="stroke:#000000;stroke-width:1.5;" width="839.064" x="10" y="667.1953"/><text fill="#000000" font-family="sans-serif" font-size="13" font-weight="bold" lengthAdjust="spacing" textLength="15.1709" x="25" y="681.6904">alt</text><text fill="#000000" font-family="sans-serif" font-size="11" font-weight="bold" lengthAdjust="spacing" textLength="142.4038" x="85.1709" y="680.6143">[No matching transactions]</text><g class="message" data-participant-1="HistoryService" data-participant-2="Gateway"><polygon fill="#181818" points="596.1943,703.8984,586.1943,707.8984,596.1943,711.8984,592.1943,707.8984" style="stroke:#181818;stroke-width:1;"/><line style="stroke:#181818;stroke-width:1;stroke-dasharray:2.0,2.0;" x1="590.1943" x2="740.4814" y1="707.8984" y2="707.8984"/><text fill="#000000" font-family="sans-serif" font-size="13" lengthAdjust="spacing" textLength="72.2427" x="602.1943" y="703.042">Empty result</text></g><g class="message" data-participant-1="Gateway" data-participant-2="App"><polygon fill="#181818" points="362.0063,734.25,352.0063,738.25,362.0063,742.25,358.0063,738.25" style="stroke:#181818;stroke-width:1;"/><line style="stroke:#181818;stroke-width:1;stroke-dasharray:2.0,2.0;" x1="356.0063" x2="574.1943" y1="738.25" y2="738.25"/><text fill="#000000" font-family="sans-serif" font-size="13" lengthAdjust="spacing" textLength="129.3271" x="368.0063" y="733.3936">200 OK with empty list</text></g><g class="message" data-participant-1="App" data-participant-2="User"><polygon fill="#181818" points="84.5757,764.6016,74.5757,768.6016,84.5757,772.6016,80.5757,768.6016" style="stroke:#181818;stroke-width:1;"/><line style="stroke:#181818;stroke-width:1;stroke-dasharray:2.0,2.0;" x1="78.5757" x2="340.0063" y1="768.6016" y2="768.6016"/><text fill="#000000" font-family="sans-serif" font-size="13" lengthAdjust="spacing" textLength="173.3989" x="90.5757" y="763.7451">Display empty result message</text></g><line style="stroke:#000000;stroke-width:1;stroke-dasharray:2.0,2.0;" x1="10" x2="849.064" y1="777.6016" y2="777.6016"/><text fill="#000000" font-family="sans-serif" font-size="11" font-weight="bold" lengthAdjust="spacing" textLength="124.0669" x="15" y="789.0205">[Matching transactions]</text><g class="message" data-participant-1="HistoryService" data-participant-2="Gateway"><polygon fill="#181818" points="596.1943,810.7891,586.1943,814.7891,596.1943,818.7891,592.1943,814.7891" style="stroke:#181818;stroke-width:1;"/><line style="stroke:#181818;stroke-width:1;stroke-dasharray:2.0,2.0;" x1="590.1943" x2="745.4814" y1="814.7891" y2="814.7891"/><text fill="#000000" font-family="sans-serif" font-size="13" lengthAdjust="spacing" textLength="117.0508" x="602.1943" y="809.9326">Filtered transactions</text></g><g class="message" data-participant-1="Gateway" data-participant-2="App"><polygon fill="#181818" points="362.0063,841.1406,352.0063,845.1406,362.0063,849.1406,358.0063,845.1406" style="stroke:#181818;stroke-width:1;"/><line style="stroke:#181818;stroke-width:1;stroke-dasharray:2.0,2.0;" x1="356.0063" x2="579.1943" y1="845.1406" y2="845.1406"/><text fill="#000000" font-family="sans-serif" font-size="13" lengthAdjust="spacing" textLength="155.3462" x="368.0063" y="840.2842">200 OK with filtered results</text></g><g class="message" data-participant-1="App" data-participant-2="User"><polygon fill="#181818" points="84.5757,871.4922,74.5757,875.4922,84.5757,879.4922,80.5757,875.4922" style="stroke:#181818;stroke-width:1;"/><line style="stroke:#181818;stroke-width:1;stroke-dasharray:2.0,2.0;" x1="78.5757" x2="335.0063" y1="875.4922" y2="875.4922"/><text fill="#000000" font-family="sans-serif" font-size="13" lengthAdjust="spacing" textLength="158.958" x="90.5757" y="870.6357">Display filtered transactions</text></g><!--SRC=[dLF1Sjem4BthAtOujJCXC3dwq4weGzh9f4qBwNrZBw0PsV98InZ_VINP9Z8O6iB1binxRz-kdZ1ZRM3qXzRICXdAuTcI6G7Qi10L6fQPhB1a6CrHMVs4DTnMLO2uTnzn-_G3xf5fXtK0jEi-Q6cmj9Ynr2LyTsMrgM51vbLc54Zjj_PJdviYumlQ1fZEX639Yk3vs_Xcci1SAjS4H0M4y6t0-8ltci1VIJlWgFwcgINyzjMP3Iq9z_2Krdq2ztTBc60b9n7LJewuNRUYNNYDVZDEYlYyWOFkHN_l9TDP0h-tvAOMstbJS6D9Pp0UA1vFtb2cJMv5JZ7ng5myXkM0xuX-w7m_XMxwDzCf_7g0dUHDtteaifzXE0F7zEUNG2fjfR0U75t_Y1UaA6DODL7GLKZ1uF46U2VSuZCZtKjYIxGTjd6nsEXTXrnfKy2dt8bU0HPwM_8LS5sv7N5s_VdG51zMw0FSGtKcx8K1_DhHBWvYGtINVZX8bqGn7EgHaTDHd7UbJ-GG5SDF3GLojf7bkkyGtEzSKE-AYckdRBUA0_Xi52cWbTCBsE7WKIG91LcBQnAaBC7ZXopE1qVlMQTlbF_t_-sitYRhpHw9Tk7Ogmqtl7gFGN-TgCp5Fm00]--></g></svg>