<svg xmlns="http://www.w3.org/2000/svg" xmlns:xlink="http://www.w3.org/1999/xlink" contentStyleType="text/css" data-diagram-type="SEQUENCE" height="1345px" preserveAspectRatio="none" style="width:1348px;height:1345px;background:#FFFFFF;" version="1.1" viewBox="0 0 1348 1345" width="1348px" zoomAndPan="magnify"><title>UC-22: Delete Account</title><defs/><g><text fill="#000000" font-family="sans-serif" font-size="14" font-weight="bold" lengthAdjust="spacing" textLength="150.917" x="599.561" y="29.5332">UC-22: Delete Account</text><g><title>FalsoPay App</title><rect fill="#FFFFFF" height="1084.625" style="stroke:#181818;stroke-width:1;" width="10" x="338.9136" y="153.5703"/></g><g><title>API Gateway</title><rect fill="#FFFFFF" height="876.5156" style="stroke:#181818;stroke-width:1;" width="10" x="599.1123" y="331.3281"/></g><g><title>User Service</title><rect fill="#FFFFFF" height="815.8125" style="stroke:#181818;stroke-width:1;" width="10" x="714.834" y="361.6797"/></g><g><title>Transaction Service</title><rect fill="#FFFFFF" height="253.6484" style="stroke:#181818;stroke-width:1;" width="10" x="904.2646" y="392.0313"/></g><g><title>Account Service</title><rect fill="#FFFFFF" height="91.0547" style="stroke:#181818;stroke-width:1;" width="10" x="1040.7021" y="676.0313"/></g><g><title>Account Service</title><rect fill="#FFFFFF" height="91.0547" style="stroke:#181818;stroke-width:1;" width="10" x="1040.7021" y="934.6797"/></g><g><title>Notification Service</title><rect fill="#FFFFFF" height="30.3516" style="stroke:#181818;stroke-width:1;" width="10" x="1175.1948" y="1116.7891"/></g><g><title>Database</title><rect fill="#FFFFFF" height="30.3516" style="stroke:#181818;stroke-width:1;" width="10" x="1289.0737" y="422.3828"/></g><g><title>Database</title><rect fill="#FFFFFF" height="30.3516" style="stroke:#181818;stroke-width:1;" width="10" x="1289.0737" y="706.3828"/></g><g><title>Database</title><rect fill="#FFFFFF" height="30.3516" style="stroke:#181818;stroke-width:1;" width="10" x="1289.0737" y="965.0313"/></g><g><title>Database</title><rect fill="#FFFFFF" height="30.3516" style="stroke:#181818;stroke-width:1;" width="10" x="1289.0737" y="1056.0859"/></g><rect fill="none" height="778.4609" style="stroke:#000000;stroke-width:1.5;" width="1331.0391" x="10" y="467.7344"/><g><title>Registered User</title><rect fill="#000000" fill-opacity="0.00000" height="1141.9766" width="8" x="69.5757" y="121.2188"/><line style="stroke:#181818;stroke-width:0.5;stroke-dasharray:5.0,5.0;" x1="73" x2="73" y1="121.2188" y2="1263.1953"/></g><g><title>FalsoPay App</title><rect fill="#000000" fill-opacity="0.00000" height="1141.9766" width="8" x="339.9136" y="121.2188"/><line style="stroke:#181818;stroke-width:0.5;stroke-dasharray:5.0,5.0;" x1="343.3345" x2="343.3345" y1="121.2188" y2="1263.1953"/></g><g><title>API Gateway</title><rect fill="#000000" fill-opacity="0.00000" height="1141.9766" width="8" x="600.1123" y="121.2188"/><line style="stroke:#181818;stroke-width:0.5;stroke-dasharray:5.0,5.0;" x1="603.2607" x2="603.2607" y1="121.2188" y2="1263.1953"/></g><g><title>User Service</title><rect fill="#000000" fill-opacity="0.00000" height="1141.9766" width="8" x="715.834" y="121.2188"/><line style="stroke:#181818;stroke-width:0.5;stroke-dasharray:5.0,5.0;" x1="719.7686" x2="719.7686" y1="121.2188" y2="1263.1953"/></g><g><title>Transaction Service</title><rect fill="#000000" fill-opacity="0.00000" height="1141.9766" width="8" x="905.2646" y="121.2188"/><line style="stroke:#181818;stroke-width:0.5;stroke-dasharray:5.0,5.0;" x1="908.4063" x2="908.4063" y1="121.2188" y2="1263.1953"/></g><g><title>Account Service</title><rect fill="#000000" fill-opacity="0.00000" height="1141.9766" width="8" x="1041.7021" y="121.2188"/><line style="stroke:#181818;stroke-width:0.5;stroke-dasharray:5.0,5.0;" x1="1045.123" x2="1045.123" y1="121.2188" y2="1263.1953"/></g><g><title>Notification Service</title><rect fill="#000000" fill-opacity="0.00000" height="1141.9766" width="8" x="1176.1948" y="121.2188"/><line style="stroke:#181818;stroke-width:0.5;stroke-dasharray:5.0,5.0;" x1="1179.2813" x2="1179.2813" y1="121.2188" y2="1263.1953"/></g><g><title>Database</title><rect fill="#000000" fill-opacity="0.00000" height="1141.9766" width="8" x="1290.0737" y="121.2188"/><line style="stroke:#181818;stroke-width:0.5;stroke-dasharray:5.0,5.0;" x1="1293.1084" x2="1293.1084" y1="121.2188" y2="1263.1953"/></g><g class="participant participant-head" data-participant="User"><text fill="#000000" font-family="sans-serif" font-size="14" lengthAdjust="spacing" textLength="101.1514" x="20" y="118.1426">Registered User</text><ellipse cx="73.5757" cy="52.1094" fill="#E2E2F0" rx="8" ry="8" style="stroke:#181818;stroke-width:0.5;"/><path d="M73.5757,60.1094 L73.5757,87.1094 M60.5757,68.1094 L86.5757,68.1094 M73.5757,87.1094 L60.5757,102.1094 M73.5757,87.1094 L86.5757,102.1094" fill="none" style="stroke:#181818;stroke-width:0.5;"/></g><g class="participant participant-tail" data-participant="User"><text fill="#000000" font-family="sans-serif" font-size="14" lengthAdjust="spacing" textLength="101.1514" x="20" y="1276.7285">Registered User</text><ellipse cx="73.5757" cy="1288.3047" fill="#E2E2F0" rx="8" ry="8" style="stroke:#181818;stroke-width:0.5;"/><path d="M73.5757,1296.3047 L73.5757,1323.3047 M60.5757,1304.3047 L86.5757,1304.3047 M73.5757,1323.3047 L60.5757,1338.3047 M73.5757,1323.3047 L86.5757,1338.3047" fill="none" style="stroke:#181818;stroke-width:0.5;"/></g><g class="participant participant-head" data-participant="App"><rect fill="#E2E2F0" height="31.6094" rx="2.5" ry="2.5" style="stroke:#181818;stroke-width:0.5;" width="101.1582" x="293.3345" y="88.6094"/><text fill="#000000" font-family="sans-serif" font-size="14" lengthAdjust="spacing" textLength="87.1582" x="300.3345" y="110.1426">FalsoPay App</text></g><g class="participant participant-tail" data-participant="App"><rect fill="#E2E2F0" height="31.6094" rx="2.5" ry="2.5" style="stroke:#181818;stroke-width:0.5;" width="101.1582" x="293.3345" y="1262.1953"/><text fill="#000000" font-family="sans-serif" font-size="14" lengthAdjust="spacing" textLength="87.1582" x="300.3345" y="1283.7285">FalsoPay App</text></g><g class="participant participant-head" data-participant="Gateway"><rect fill="#E2E2F0" height="31.6094" rx="2.5" ry="2.5" style="stroke:#181818;stroke-width:0.5;" width="95.7031" x="556.2607" y="88.6094"/><text fill="#000000" font-family="sans-serif" font-size="14" lengthAdjust="spacing" textLength="81.7031" x="563.2607" y="110.1426">API Gateway</text></g><g class="participant participant-tail" data-participant="Gateway"><rect fill="#E2E2F0" height="31.6094" rx="2.5" ry="2.5" style="stroke:#181818;stroke-width:0.5;" width="95.7031" x="556.2607" y="1262.1953"/><text fill="#000000" font-family="sans-serif" font-size="14" lengthAdjust="spacing" textLength="81.7031" x="563.2607" y="1283.7285">API Gateway</text></g><g class="participant participant-head" data-participant="UserService"><rect fill="#E2E2F0" height="31.6094" rx="2.5" ry="2.5" style="stroke:#181818;stroke-width:0.5;" width="94.1309" x="672.7686" y="88.6094"/><text fill="#000000" font-family="sans-serif" font-size="14" lengthAdjust="spacing" textLength="80.1309" x="679.7686" y="110.1426">User Service</text></g><g class="participant participant-tail" data-participant="UserService"><rect fill="#E2E2F0" height="31.6094" rx="2.5" ry="2.5" style="stroke:#181818;stroke-width:0.5;" width="94.1309" x="672.7686" y="1262.1953"/><text fill="#000000" font-family="sans-serif" font-size="14" lengthAdjust="spacing" textLength="80.1309" x="679.7686" y="1283.7285">User Service</text></g><g class="participant participant-head" data-participant="TransService"><rect fill="#E2E2F0" height="31.6094" rx="2.5" ry="2.5" style="stroke:#181818;stroke-width:0.5;" width="137.7168" x="840.4063" y="88.6094"/><text fill="#000000" font-family="sans-serif" font-size="14" lengthAdjust="spacing" textLength="123.7168" x="847.4063" y="110.1426">Transaction Service</text></g><g class="participant participant-tail" data-participant="TransService"><rect fill="#E2E2F0" height="31.6094" rx="2.5" ry="2.5" style="stroke:#181818;stroke-width:0.5;" width="137.7168" x="840.4063" y="1262.1953"/><text fill="#000000" font-family="sans-serif" font-size="14" lengthAdjust="spacing" textLength="123.7168" x="847.4063" y="1283.7285">Transaction Service</text></g><g class="participant participant-head" data-participant="AccountService"><rect fill="#E2E2F0" height="31.6094" rx="2.5" ry="2.5" style="stroke:#181818;stroke-width:0.5;" width="115.1582" x="988.123" y="88.6094"/><text fill="#000000" font-family="sans-serif" font-size="14" lengthAdjust="spacing" textLength="101.1582" x="995.123" y="110.1426">Account Service</text></g><g class="participant participant-tail" data-participant="AccountService"><rect fill="#E2E2F0" height="31.6094" rx="2.5" ry="2.5" style="stroke:#181818;stroke-width:0.5;" width="115.1582" x="988.123" y="1262.1953"/><text fill="#000000" font-family="sans-serif" font-size="14" lengthAdjust="spacing" textLength="101.1582" x="995.123" y="1283.7285">Account Service</text></g><g class="participant participant-head" data-participant="NotifService"><rect fill="#E2E2F0" height="31.6094" rx="2.5" ry="2.5" style="stroke:#181818;stroke-width:0.5;" width="133.8271" x="1113.2813" y="88.6094"/><text fill="#000000" font-family="sans-serif" font-size="14" lengthAdjust="spacing" textLength="119.8271" x="1120.2813" y="110.1426">Notification Service</text></g><g class="participant participant-tail" data-participant="NotifService"><rect fill="#E2E2F0" height="31.6094" rx="2.5" ry="2.5" style="stroke:#181818;stroke-width:0.5;" width="133.8271" x="1113.2813" y="1262.1953"/><text fill="#000000" font-family="sans-serif" font-size="14" lengthAdjust="spacing" textLength="119.8271" x="1120.2813" y="1283.7285">Notification Service</text></g><g class="participant participant-head" data-participant="DB"><rect fill="#E2E2F0" height="31.6094" rx="2.5" ry="2.5" style="stroke:#181818;stroke-width:0.5;" width="73.9307" x="1257.1084" y="88.6094"/><text fill="#000000" font-family="sans-serif" font-size="14" lengthAdjust="spacing" textLength="59.9307" x="1264.1084" y="110.1426">Database</text></g><g class="participant participant-tail" data-participant="DB"><rect fill="#E2E2F0" height="31.6094" rx="2.5" ry="2.5" style="stroke:#181818;stroke-width:0.5;" width="73.9307" x="1257.1084" y="1262.1953"/><text fill="#000000" font-family="sans-serif" font-size="14" lengthAdjust="spacing" textLength="59.9307" x="1264.1084" y="1283.7285">Database</text></g><g><title>FalsoPay App</title><rect fill="#FFFFFF" height="1084.625" style="stroke:#181818;stroke-width:1;" width="10" x="338.9136" y="153.5703"/></g><g><title>API Gateway</title><rect fill="#FFFFFF" height="876.5156" style="stroke:#181818;stroke-width:1;" width="10" x="599.1123" y="331.3281"/></g><g><title>User Service</title><rect fill="#FFFFFF" height="815.8125" style="stroke:#181818;stroke-width:1;" width="10" x="714.834" y="361.6797"/></g><g><title>Transaction Service</title><rect fill="#FFFFFF" height="253.6484" style="stroke:#181818;stroke-width:1;" width="10" x="904.2646" y="392.0313"/></g><g><title>Account Service</title><rect fill="#FFFFFF" height="91.0547" style="stroke:#181818;stroke-width:1;" width="10" x="1040.7021" y="676.0313"/></g><g><title>Account Service</title><rect fill="#FFFFFF" height="91.0547" style="stroke:#181818;stroke-width:1;" width="10" x="1040.7021" y="934.6797"/></g><g><title>Notification Service</title><rect fill="#FFFFFF" height="30.3516" style="stroke:#181818;stroke-width:1;" width="10" x="1175.1948" y="1116.7891"/></g><g><title>Database</title><rect fill="#FFFFFF" height="30.3516" style="stroke:#181818;stroke-width:1;" width="10" x="1289.0737" y="422.3828"/></g><g><title>Database</title><rect fill="#FFFFFF" height="30.3516" style="stroke:#181818;stroke-width:1;" width="10" x="1289.0737" y="706.3828"/></g><g><title>Database</title><rect fill="#FFFFFF" height="30.3516" style="stroke:#181818;stroke-width:1;" width="10" x="1289.0737" y="965.0313"/></g><g><title>Database</title><rect fill="#FFFFFF" height="30.3516" style="stroke:#181818;stroke-width:1;" width="10" x="1289.0737" y="1056.0859"/></g><g class="message" data-participant-1="User" data-participant-2="App"><polygon fill="#181818" points="326.9136,149.5703,336.9136,153.5703,326.9136,157.5703,330.9136,153.5703" style="stroke:#181818;stroke-width:1;"/><line style="stroke:#181818;stroke-width:1;" x1="73.5757" x2="332.9136" y1="153.5703" y2="153.5703"/><text fill="#000000" font-family="sans-serif" font-size="13" lengthAdjust="spacing" textLength="173.4561" x="80.5757" y="148.7139">Select account deletion option</text></g><g class="message" data-participant-1="App" data-participant-2="App"><line style="stroke:#181818;stroke-width:1;" x1="348.9136" x2="390.9136" y1="183.9219" y2="183.9219"/><line style="stroke:#181818;stroke-width:1;" x1="390.9136" x2="390.9136" y1="183.9219" y2="196.9219"/><line style="stroke:#181818;stroke-width:1;" x1="349.9136" x2="390.9136" y1="196.9219" y2="196.9219"/><polygon fill="#181818" points="359.9136,192.9219,349.9136,196.9219,359.9136,200.9219,355.9136,196.9219" style="stroke:#181818;stroke-width:1;"/><text fill="#000000" font-family="sans-serif" font-size="13" lengthAdjust="spacing" textLength="226.1987" x="355.9136" y="179.0654">Display warning about account deletion</text></g><g class="message" data-participant-1="User" data-participant-2="App"><polygon fill="#181818" points="326.9136,223.2734,336.9136,227.2734,326.9136,231.2734,330.9136,227.2734" style="stroke:#181818;stroke-width:1;"/><line style="stroke:#181818;stroke-width:1;" x1="73.5757" x2="332.9136" y1="227.2734" y2="227.2734"/><text fill="#000000" font-family="sans-serif" font-size="13" lengthAdjust="spacing" textLength="146.7134" x="80.5757" y="222.417">Request account deletion</text></g><g class="message" data-participant-1="App" data-participant-2="App"><line style="stroke:#181818;stroke-width:1;" x1="348.9136" x2="390.9136" y1="257.625" y2="257.625"/><line style="stroke:#181818;stroke-width:1;" x1="390.9136" x2="390.9136" y1="257.625" y2="270.625"/><line style="stroke:#181818;stroke-width:1;" x1="349.9136" x2="390.9136" y1="270.625" y2="270.625"/><polygon fill="#181818" points="359.9136,266.625,349.9136,270.625,359.9136,274.625,355.9136,270.625" style="stroke:#181818;stroke-width:1;"/><text fill="#000000" font-family="sans-serif" font-size="13" lengthAdjust="spacing" textLength="122.8398" x="355.9136" y="252.7686">Request confirmation</text></g><g class="message" data-participant-1="User" data-participant-2="App"><polygon fill="#181818" points="326.9136,296.9766,336.9136,300.9766,326.9136,304.9766,330.9136,300.9766" style="stroke:#181818;stroke-width:1;"/><line style="stroke:#181818;stroke-width:1;" x1="73.5757" x2="332.9136" y1="300.9766" y2="300.9766"/><text fill="#000000" font-family="sans-serif" font-size="13" lengthAdjust="spacing" textLength="94.6563" x="80.5757" y="296.1201">Confirm deletion</text></g><g class="message" data-participant-1="App" data-participant-2="Gateway"><polygon fill="#181818" points="587.1123,327.3281,597.1123,331.3281,587.1123,335.3281,591.1123,331.3281" style="stroke:#181818;stroke-width:1;"/><line style="stroke:#181818;stroke-width:1;" x1="348.9136" x2="593.1123" y1="331.3281" y2="331.3281"/><text fill="#000000" font-family="sans-serif" font-size="13" lengthAdjust="spacing" textLength="159.688" x="355.9136" y="326.4717">DELETE /api/users/account</text></g><g class="message" data-participant-1="Gateway" data-participant-2="UserService"><polygon fill="#181818" points="702.834,357.6797,712.834,361.6797,702.834,365.6797,706.834,361.6797" style="stroke:#181818;stroke-width:1;"/><line style="stroke:#181818;stroke-width:1;" x1="609.1123" x2="708.834" y1="361.6797" y2="361.6797"/><text fill="#000000" font-family="sans-serif" font-size="13" lengthAdjust="spacing" textLength="86.7217" x="616.1123" y="356.8232">Delete account</text></g><g class="message" data-participant-1="UserService" data-participant-2="TransService"><polygon fill="#181818" points="892.2646,388.0313,902.2646,392.0313,892.2646,396.0313,896.2646,392.0313" style="stroke:#181818;stroke-width:1;"/><line style="stroke:#181818;stroke-width:1;" x1="724.834" x2="898.2646" y1="392.0313" y2="392.0313"/><text fill="#000000" font-family="sans-serif" font-size="13" lengthAdjust="spacing" textLength="160.4307" x="731.834" y="387.1748">Check pending transactions</text></g><g class="message" data-participant-1="TransService" data-participant-2="DB"><polygon fill="#181818" points="1277.0737,418.3828,1287.0737,422.3828,1277.0737,426.3828,1281.0737,422.3828" style="stroke:#181818;stroke-width:1;"/><line style="stroke:#181818;stroke-width:1;" x1="914.2646" x2="1283.0737" y1="422.3828" y2="422.3828"/><text fill="#000000" font-family="sans-serif" font-size="13" lengthAdjust="spacing" textLength="158.9834" x="921.2646" y="417.5264">Query pending transactions</text></g><g class="message" data-participant-1="DB" data-participant-2="TransService"><polygon fill="#181818" points="925.2646,448.7344,915.2646,452.7344,925.2646,456.7344,921.2646,452.7344" style="stroke:#181818;stroke-width:1;"/><line style="stroke:#181818;stroke-width:1;stroke-dasharray:2.0,2.0;" x1="919.2646" x2="1293.0737" y1="452.7344" y2="452.7344"/><text fill="#000000" font-family="sans-serif" font-size="13" lengthAdjust="spacing" textLength="121.4116" x="931.2646" y="447.8779">Pending transactions</text></g><path d="M10,467.7344 L70.1709,467.7344 L70.1709,476.0859 L60.1709,486.0859 L10,486.0859 L10,467.7344" fill="#EEEEEE" style="stroke:#000000;stroke-width:1.5;"/><rect fill="none" height="778.4609" style="stroke:#000000;stroke-width:1.5;" width="1331.0391" x="10" y="467.7344"/><text fill="#000000" font-family="sans-serif" font-size="13" font-weight="bold" lengthAdjust="spacing" textLength="15.1709" x="25" y="482.2295">alt</text><text fill="#000000" font-family="sans-serif" font-size="11" font-weight="bold" lengthAdjust="spacing" textLength="147.3076" x="85.1709" y="481.1533">[Pending transactions exist]</text><g class="message" data-participant-1="TransService" data-participant-2="UserService"><polygon fill="#181818" points="735.834,504.4375,725.834,508.4375,735.834,512.4375,731.834,508.4375" style="stroke:#181818;stroke-width:1;"/><line style="stroke:#181818;stroke-width:1;stroke-dasharray:2.0,2.0;" x1="729.834" x2="903.2646" y1="508.4375" y2="508.4375"/><text fill="#000000" font-family="sans-serif" font-size="13" lengthAdjust="spacing" textLength="151.7534" x="741.834" y="503.5811">Pending transactions exist</text></g><g class="message" data-participant-1="UserService" data-participant-2="Gateway"><polygon fill="#181818" points="620.1123,534.7891,610.1123,538.7891,620.1123,542.7891,616.1123,538.7891" style="stroke:#181818;stroke-width:1;"/><line style="stroke:#181818;stroke-width:1;stroke-dasharray:2.0,2.0;" x1="614.1123" x2="713.834" y1="538.7891" y2="538.7891"/><text fill="#000000" font-family="sans-serif" font-size="13" lengthAdjust="spacing" textLength="68.6499" x="626.1123" y="533.9326">409 Conflict</text></g><g class="message" data-participant-1="Gateway" data-participant-2="App"><polygon fill="#181818" points="359.9136,565.1406,349.9136,569.1406,359.9136,573.1406,355.9136,569.1406" style="stroke:#181818;stroke-width:1;"/><line style="stroke:#181818;stroke-width:1;stroke-dasharray:2.0,2.0;" x1="353.9136" x2="598.1123" y1="569.1406" y2="569.1406"/><text fill="#000000" font-family="sans-serif" font-size="13" lengthAdjust="spacing" textLength="68.6499" x="365.9136" y="564.2842">409 Conflict</text></g><g class="message" data-participant-1="App" data-participant-2="User"><polygon fill="#181818" points="84.5757,595.4922,74.5757,599.4922,84.5757,603.4922,80.5757,599.4922" style="stroke:#181818;stroke-width:1;"/><line style="stroke:#181818;stroke-width:1;stroke-dasharray:2.0,2.0;" x1="78.5757" x2="337.9136" y1="599.4922" y2="599.4922"/><text fill="#000000" font-family="sans-serif" font-size="13" lengthAdjust="spacing" textLength="241.3379" x="90.5757" y="594.6357">Notify to resolve pending transactions first</text></g><line style="stroke:#000000;stroke-width:1;stroke-dasharray:2.0,2.0;" x1="10" x2="1341.0391" y1="608.4922" y2="608.4922"/><text fill="#000000" font-family="sans-serif" font-size="11" font-weight="bold" lengthAdjust="spacing" textLength="117.3584" x="15" y="619.9111">[Account has balance]</text><g class="message" data-participant-1="TransService" data-participant-2="UserService"><polygon fill="#181818" points="735.834,641.6797,725.834,645.6797,735.834,649.6797,731.834,645.6797" style="stroke:#181818;stroke-width:1;"/><line style="stroke:#181818;stroke-width:1;stroke-dasharray:2.0,2.0;" x1="729.834" x2="908.2646" y1="645.6797" y2="645.6797"/><text fill="#000000" font-family="sans-serif" font-size="13" lengthAdjust="spacing" textLength="140.2007" x="741.834" y="640.8232">No pending transactions</text></g><g class="message" data-participant-1="UserService" data-participant-2="AccountService"><polygon fill="#181818" points="1028.7021,672.0313,1038.7021,676.0313,1028.7021,680.0313,1032.7021,676.0313" style="stroke:#181818;stroke-width:1;"/><line style="stroke:#181818;stroke-width:1;" x1="724.834" x2="1034.7021" y1="676.0313" y2="676.0313"/><text fill="#000000" font-family="sans-serif" font-size="13" lengthAdjust="spacing" textLength="85.998" x="731.834" y="671.1748">Check balance</text></g><g class="message" data-participant-1="AccountService" data-participant-2="DB"><polygon fill="#181818" points="1277.0737,702.3828,1287.0737,706.3828,1277.0737,710.3828,1281.0737,706.3828" style="stroke:#181818;stroke-width:1;"/><line style="stroke:#181818;stroke-width:1;" x1="1050.7021" x2="1283.0737" y1="706.3828" y2="706.3828"/><text fill="#000000" font-family="sans-serif" font-size="13" lengthAdjust="spacing" textLength="133.6943" x="1057.7021" y="701.5264">Query account balance</text></g><g class="message" data-participant-1="DB" data-participant-2="AccountService"><polygon fill="#181818" points="1061.7021,732.7344,1051.7021,736.7344,1061.7021,740.7344,1057.7021,736.7344" style="stroke:#181818;stroke-width:1;"/><line style="stroke:#181818;stroke-width:1;stroke-dasharray:2.0,2.0;" x1="1055.7021" x2="1293.0737" y1="736.7344" y2="736.7344"/><text fill="#000000" font-family="sans-serif" font-size="13" lengthAdjust="spacing" textLength="46.979" x="1067.7021" y="731.8779">Balance</text></g><g class="message" data-participant-1="AccountService" data-participant-2="UserService"><polygon fill="#181818" points="735.834,763.0859,725.834,767.0859,735.834,771.0859,731.834,767.0859" style="stroke:#181818;stroke-width:1;"/><line style="stroke:#181818;stroke-width:1;stroke-dasharray:2.0,2.0;" x1="729.834" x2="1044.7021" y1="767.0859" y2="767.0859"/><text fill="#000000" font-family="sans-serif" font-size="13" lengthAdjust="spacing" textLength="120.6943" x="741.834" y="762.2295">Account has balance</text></g><g class="message" data-participant-1="UserService" data-participant-2="Gateway"><polygon fill="#181818" points="620.1123,793.4375,610.1123,797.4375,620.1123,801.4375,616.1123,797.4375" style="stroke:#181818;stroke-width:1;"/><line style="stroke:#181818;stroke-width:1;stroke-dasharray:2.0,2.0;" x1="614.1123" x2="713.834" y1="797.4375" y2="797.4375"/><text fill="#000000" font-family="sans-serif" font-size="13" lengthAdjust="spacing" textLength="68.6499" x="626.1123" y="792.5811">409 Conflict</text></g><g class="message" data-participant-1="Gateway" data-participant-2="App"><polygon fill="#181818" points="359.9136,823.7891,349.9136,827.7891,359.9136,831.7891,355.9136,827.7891" style="stroke:#181818;stroke-width:1;"/><line style="stroke:#181818;stroke-width:1;stroke-dasharray:2.0,2.0;" x1="353.9136" x2="598.1123" y1="827.7891" y2="827.7891"/><text fill="#000000" font-family="sans-serif" font-size="13" lengthAdjust="spacing" textLength="68.6499" x="365.9136" y="822.9326">409 Conflict</text></g><g class="message" data-participant-1="App" data-participant-2="User"><polygon fill="#181818" points="84.5757,854.1406,74.5757,858.1406,84.5757,862.1406,80.5757,858.1406" style="stroke:#181818;stroke-width:1;"/><line style="stroke:#181818;stroke-width:1;stroke-dasharray:2.0,2.0;" x1="78.5757" x2="337.9136" y1="858.1406" y2="858.1406"/><text fill="#000000" font-family="sans-serif" font-size="13" lengthAdjust="spacing" textLength="171.228" x="90.5757" y="853.2842">Prompt to withdraw funds first</text></g><line style="stroke:#000000;stroke-width:1;stroke-dasharray:2.0,2.0;" x1="10" x2="1341.0391" y1="867.1406" y2="867.1406"/><text fill="#000000" font-family="sans-serif" font-size="11" font-weight="bold" lengthAdjust="spacing" textLength="130.7969" x="15" y="878.5596">[Account can be deleted]</text><g class="message" data-participant-1="TransService" data-participant-2="UserService"><polygon fill="#181818" points="735.834,900.3281,725.834,904.3281,735.834,908.3281,731.834,904.3281" style="stroke:#181818;stroke-width:1;"/><line style="stroke:#181818;stroke-width:1;stroke-dasharray:2.0,2.0;" x1="729.834" x2="908.2646" y1="904.3281" y2="904.3281"/><text fill="#000000" font-family="sans-serif" font-size="13" lengthAdjust="spacing" textLength="140.2007" x="741.834" y="899.4717">No pending transactions</text></g><g class="message" data-participant-1="UserService" data-participant-2="AccountService"><polygon fill="#181818" points="1028.7021,930.6797,1038.7021,934.6797,1028.7021,938.6797,1032.7021,934.6797" style="stroke:#181818;stroke-width:1;"/><line style="stroke:#181818;stroke-width:1;" x1="724.834" x2="1034.7021" y1="934.6797" y2="934.6797"/><text fill="#000000" font-family="sans-serif" font-size="13" lengthAdjust="spacing" textLength="85.998" x="731.834" y="929.8232">Check balance</text></g><g class="message" data-participant-1="AccountService" data-participant-2="DB"><polygon fill="#181818" points="1277.0737,961.0313,1287.0737,965.0313,1277.0737,969.0313,1281.0737,965.0313" style="stroke:#181818;stroke-width:1;"/><line style="stroke:#181818;stroke-width:1;" x1="1050.7021" x2="1283.0737" y1="965.0313" y2="965.0313"/><text fill="#000000" font-family="sans-serif" font-size="13" lengthAdjust="spacing" textLength="133.6943" x="1057.7021" y="960.1748">Query account balance</text></g><g class="message" data-participant-1="DB" data-participant-2="AccountService"><polygon fill="#181818" points="1061.7021,991.3828,1051.7021,995.3828,1061.7021,999.3828,1057.7021,995.3828" style="stroke:#181818;stroke-width:1;"/><line style="stroke:#181818;stroke-width:1;stroke-dasharray:2.0,2.0;" x1="1055.7021" x2="1293.0737" y1="995.3828" y2="995.3828"/><text fill="#000000" font-family="sans-serif" font-size="13" lengthAdjust="spacing" textLength="75.8799" x="1067.7021" y="990.5264">Zero balance</text></g><g class="message" data-participant-1="AccountService" data-participant-2="UserService"><polygon fill="#181818" points="735.834,1021.7344,725.834,1025.7344,735.834,1029.7344,731.834,1025.7344" style="stroke:#181818;stroke-width:1;"/><line style="stroke:#181818;stroke-width:1;stroke-dasharray:2.0,2.0;" x1="729.834" x2="1044.7021" y1="1025.7344" y2="1025.7344"/><text fill="#000000" font-family="sans-serif" font-size="13" lengthAdjust="spacing" textLength="65.7681" x="741.834" y="1020.8779">No balance</text></g><g class="message" data-participant-1="UserService" data-participant-2="DB"><polygon fill="#181818" points="1277.0737,1052.0859,1287.0737,1056.0859,1277.0737,1060.0859,1281.0737,1056.0859" style="stroke:#181818;stroke-width:1;"/><line style="stroke:#181818;stroke-width:1;" x1="724.834" x2="1283.0737" y1="1056.0859" y2="1056.0859"/><text fill="#000000" font-family="sans-serif" font-size="13" lengthAdjust="spacing" textLength="145.9644" x="731.834" y="1051.2295">Mark account for deletion</text></g><g class="message" data-participant-1="DB" data-participant-2="UserService"><polygon fill="#181818" points="735.834,1082.4375,725.834,1086.4375,735.834,1090.4375,731.834,1086.4375" style="stroke:#181818;stroke-width:1;"/><line style="stroke:#181818;stroke-width:1;stroke-dasharray:2.0,2.0;" x1="729.834" x2="1293.0737" y1="1086.4375" y2="1086.4375"/><text fill="#000000" font-family="sans-serif" font-size="13" lengthAdjust="spacing" textLength="49.1309" x="741.834" y="1081.5811">Success</text></g><g class="message" data-participant-1="UserService" data-participant-2="NotifService"><polygon fill="#181818" points="1163.1948,1112.7891,1173.1948,1116.7891,1163.1948,1120.7891,1167.1948,1116.7891" style="stroke:#181818;stroke-width:1;"/><line style="stroke:#181818;stroke-width:1;" x1="724.834" x2="1169.1948" y1="1116.7891" y2="1116.7891"/><text fill="#000000" font-family="sans-serif" font-size="13" lengthAdjust="spacing" textLength="153.9307" x="731.834" y="1111.9326">Send deletion confirmation</text></g><g class="message" data-participant-1="NotifService" data-participant-2="UserService"><polygon fill="#181818" points="735.834,1143.1406,725.834,1147.1406,735.834,1151.1406,731.834,1147.1406" style="stroke:#181818;stroke-width:1;"/><line style="stroke:#181818;stroke-width:1;stroke-dasharray:2.0,2.0;" x1="729.834" x2="1179.1948" y1="1147.1406" y2="1147.1406"/><text fill="#000000" font-family="sans-serif" font-size="13" lengthAdjust="spacing" textLength="111.2998" x="741.834" y="1142.2842">Notification queued</text></g><g class="message" data-participant-1="UserService" data-participant-2="Gateway"><polygon fill="#181818" points="620.1123,1173.4922,610.1123,1177.4922,620.1123,1181.4922,616.1123,1177.4922" style="stroke:#181818;stroke-width:1;"/><line style="stroke:#181818;stroke-width:1;stroke-dasharray:2.0,2.0;" x1="614.1123" x2="718.834" y1="1177.4922" y2="1177.4922"/><text fill="#000000" font-family="sans-serif" font-size="13" lengthAdjust="spacing" textLength="44.0845" x="626.1123" y="1172.6357">200 OK</text></g><g class="message" data-participant-1="Gateway" data-participant-2="App"><polygon fill="#181818" points="359.9136,1203.8438,349.9136,1207.8438,359.9136,1211.8438,355.9136,1207.8438" style="stroke:#181818;stroke-width:1;"/><line style="stroke:#181818;stroke-width:1;stroke-dasharray:2.0,2.0;" x1="353.9136" x2="603.1123" y1="1207.8438" y2="1207.8438"/><text fill="#000000" font-family="sans-serif" font-size="13" lengthAdjust="spacing" textLength="44.0845" x="365.9136" y="1202.9873">200 OK</text></g><g class="message" data-participant-1="App" data-participant-2="User"><polygon fill="#181818" points="84.5757,1234.1953,74.5757,1238.1953,84.5757,1242.1953,80.5757,1238.1953" style="stroke:#181818;stroke-width:1;"/><line style="stroke:#181818;stroke-width:1;stroke-dasharray:2.0,2.0;" x1="78.5757" x2="342.9136" y1="1238.1953" y2="1238.1953"/><text fill="#000000" font-family="sans-serif" font-size="13" lengthAdjust="spacing" textLength="166.1943" x="90.5757" y="1233.3389">Display deletion confirmation</text></g><!--SRC=[xLPBZzem4BxxLuou8n3gfHnMWeLMLLjAzt7fRN26nTfidDeEb7zVEqyxCQ2gwgqSY1_p_EQRJ90RgM3qG2z26rAKmBCcDGBKvOBbg8pW8iVCmEW3fbfkyGoBF2z5x3EKM6m_mKSqTC9pAL2lGo5d61v97GMdrbEz3oMV56OQkH4o2nJAywZ6WdDPs8KlNPz5vJVIYBtWE71HNaHLLcXmXxeIMoqPCyAa1C_tuzbi3YjAoL3Zax4osV6TWsfk7QJ43M0TPE9adMEPkmTpcHxHQLjScVrh5LT2vwa5_eGg4zaBu4uMGpkXimVwMP2EIFc66o4kixrGRoKElQ3lgwk1VbrR6zpwo_ff3HFCnQImcdfIk-mIQdZ0weNJzwhUmZPGzAd1l8qpuBF0XdaW_WevPOa3o7JCqPsrW3VCtpbxg-KSlXUapZUis9glbZ0UHB2DQINawp5CJLGEw9TjG0Rs5uRL1-g6SW2HNwHtq_Tb9LF1Aycs4asT1n9bdMl_yweXpc0aAD8oFL8K9R1KiQ5GgjiUW8Fjanscc5dGRoUuaN7udQO7Pb1ATpTC_wxN-Gr7_5YwbWjV4gt5y3oaITDPKOEsscvVCwKVoT9J2IboqNCVg4lmUkOk9VNlMB9LyYqtZYKdOGw9mXFiYoo9ye9Z1ZkgtYkK_AT67SaFKl9IGV-47nlvLxIeilcAwhLDPcy_5TefS2MZ88p7WdFI-becFR_-w7KpCqkwIHdCgI24O62x6_yWXeut-EqCB6e6UY4EB5xldTbq2jy-zutu0worCUYgk6upDRkI1xtMV1HS1iUlkVsai4Yotm00]--></g></svg>