<svg xmlns="http://www.w3.org/2000/svg" xmlns:xlink="http://www.w3.org/1999/xlink" contentStyleType="text/css" data-diagram-type="SEQUENCE" height="1130px" preserveAspectRatio="none" style="width:964px;height:1130px;background:#FFFFFF;" version="1.1" viewBox="0 0 964 1130" width="964px" zoomAndPan="magnify"><title>UC-23: PIN For Transaction</title><defs/><g><text fill="#000000" font-family="sans-serif" font-size="14" font-weight="bold" lengthAdjust="spacing" textLength="182.0273" x="392.1582" y="29.5332">UC-23: PIN For Transaction</text><g><title>FalsoPay App</title><rect fill="#FFFFFF" height="869.8125" style="stroke:#181818;stroke-width:1;" width="10" x="300.4873" y="153.5703"/></g><g><title>API Gateway</title><rect fill="#FFFFFF" height="692.0547" style="stroke:#181818;stroke-width:1;" width="10" x="521.6543" y="257.625"/></g><g><title>Security Service</title><rect fill="#FFFFFF" height="631.3516" style="stroke:#181818;stroke-width:1;" width="10" x="697.2896" y="287.9766"/></g><g><title>Database</title><rect fill="#FFFFFF" height="30.3516" style="stroke:#181818;stroke-width:1;" width="10" x="895.3784" y="318.3281"/></g><g><title>Database</title><rect fill="#FFFFFF" height="30.3516" style="stroke:#181818;stroke-width:1;" width="10" x="895.3784" y="447.7344"/></g><g><title>Database</title><rect fill="#FFFFFF" height="30.3516" style="stroke:#181818;stroke-width:1;" width="10" x="895.3784" y="577.1406"/></g><g><title>Database</title><rect fill="#FFFFFF" height="30.3516" style="stroke:#181818;stroke-width:1;" width="10" x="895.3784" y="858.625"/></g><rect fill="none" height="624.3516" style="stroke:#000000;stroke-width:1.5;" width="947.3438" x="10" y="407.0313"/><rect fill="none" height="277" style="stroke:#000000;stroke-width:1.5;" width="927.3438" x="20" y="536.4375"/><g><title>Registered User</title><rect fill="#000000" fill-opacity="0.00000" height="927.1641" width="8" x="79.5757" y="121.2188"/><line style="stroke:#181818;stroke-width:0.5;stroke-dasharray:5.0,5.0;" x1="83" x2="83" y1="121.2188" y2="1048.3828"/></g><g><title>FalsoPay App</title><rect fill="#000000" fill-opacity="0.00000" height="927.1641" width="8" x="301.4873" y="121.2188"/><line style="stroke:#181818;stroke-width:0.5;stroke-dasharray:5.0,5.0;" x1="304.9082" x2="304.9082" y1="121.2188" y2="1048.3828"/></g><g><title>API Gateway</title><rect fill="#000000" fill-opacity="0.00000" height="927.1641" width="8" x="522.6543" y="121.2188"/><line style="stroke:#181818;stroke-width:0.5;stroke-dasharray:5.0,5.0;" x1="525.8027" x2="525.8027" y1="121.2188" y2="1048.3828"/></g><g><title>Security Service</title><rect fill="#000000" fill-opacity="0.00000" height="927.1641" width="8" x="698.2896" y="121.2188"/><line style="stroke:#181818;stroke-width:0.5;stroke-dasharray:5.0,5.0;" x1="701.7173" x2="701.7173" y1="121.2188" y2="1048.3828"/></g><g><title>Database</title><rect fill="#000000" fill-opacity="0.00000" height="927.1641" width="8" x="896.3784" y="121.2188"/><line style="stroke:#181818;stroke-width:0.5;stroke-dasharray:5.0,5.0;" x1="899.4131" x2="899.4131" y1="121.2188" y2="1048.3828"/></g><g class="participant participant-head" data-participant="User"><text fill="#000000" font-family="sans-serif" font-size="14" lengthAdjust="spacing" textLength="101.1514" x="30" y="118.1426">Registered User</text><ellipse cx="83.5757" cy="52.1094" fill="#E2E2F0" rx="8" ry="8" style="stroke:#181818;stroke-width:0.5;"/><path d="M83.5757,60.1094 L83.5757,87.1094 M70.5757,68.1094 L96.5757,68.1094 M83.5757,87.1094 L70.5757,102.1094 M83.5757,87.1094 L96.5757,102.1094" fill="none" style="stroke:#181818;stroke-width:0.5;"/></g><g class="participant participant-tail" data-participant="User"><text fill="#000000" font-family="sans-serif" font-size="14" lengthAdjust="spacing" textLength="101.1514" x="30" y="1061.916">Registered User</text><ellipse cx="83.5757" cy="1073.4922" fill="#E2E2F0" rx="8" ry="8" style="stroke:#181818;stroke-width:0.5;"/><path d="M83.5757,1081.4922 L83.5757,1108.4922 M70.5757,1089.4922 L96.5757,1089.4922 M83.5757,1108.4922 L70.5757,1123.4922 M83.5757,1108.4922 L96.5757,1123.4922" fill="none" style="stroke:#181818;stroke-width:0.5;"/></g><g class="participant participant-head" data-participant="App"><rect fill="#E2E2F0" height="31.6094" rx="2.5" ry="2.5" style="stroke:#181818;stroke-width:0.5;" width="101.1582" x="254.9082" y="88.6094"/><text fill="#000000" font-family="sans-serif" font-size="14" lengthAdjust="spacing" textLength="87.1582" x="261.9082" y="110.1426">FalsoPay App</text></g><g class="participant participant-tail" data-participant="App"><rect fill="#E2E2F0" height="31.6094" rx="2.5" ry="2.5" style="stroke:#181818;stroke-width:0.5;" width="101.1582" x="254.9082" y="1047.3828"/><text fill="#000000" font-family="sans-serif" font-size="14" lengthAdjust="spacing" textLength="87.1582" x="261.9082" y="1068.916">FalsoPay App</text></g><g class="participant participant-head" data-participant="Gateway"><rect fill="#E2E2F0" height="31.6094" rx="2.5" ry="2.5" style="stroke:#181818;stroke-width:0.5;" width="95.7031" x="478.8027" y="88.6094"/><text fill="#000000" font-family="sans-serif" font-size="14" lengthAdjust="spacing" textLength="81.7031" x="485.8027" y="110.1426">API Gateway</text></g><g class="participant participant-tail" data-participant="Gateway"><rect fill="#E2E2F0" height="31.6094" rx="2.5" ry="2.5" style="stroke:#181818;stroke-width:0.5;" width="95.7031" x="478.8027" y="1047.3828"/><text fill="#000000" font-family="sans-serif" font-size="14" lengthAdjust="spacing" textLength="81.7031" x="485.8027" y="1068.916">API Gateway</text></g><g class="participant participant-head" data-participant="SecService"><rect fill="#E2E2F0" height="31.6094" rx="2.5" ry="2.5" style="stroke:#181818;stroke-width:0.5;" width="115.1445" x="644.7173" y="88.6094"/><text fill="#000000" font-family="sans-serif" font-size="14" lengthAdjust="spacing" textLength="101.1445" x="651.7173" y="110.1426">Security Service</text></g><g class="participant participant-tail" data-participant="SecService"><rect fill="#E2E2F0" height="31.6094" rx="2.5" ry="2.5" style="stroke:#181818;stroke-width:0.5;" width="115.1445" x="644.7173" y="1047.3828"/><text fill="#000000" font-family="sans-serif" font-size="14" lengthAdjust="spacing" textLength="101.1445" x="651.7173" y="1068.916">Security Service</text></g><g class="participant participant-head" data-participant="DB"><rect fill="#E2E2F0" height="31.6094" rx="2.5" ry="2.5" style="stroke:#181818;stroke-width:0.5;" width="73.9307" x="863.4131" y="88.6094"/><text fill="#000000" font-family="sans-serif" font-size="14" lengthAdjust="spacing" textLength="59.9307" x="870.4131" y="110.1426">Database</text></g><g class="participant participant-tail" data-participant="DB"><rect fill="#E2E2F0" height="31.6094" rx="2.5" ry="2.5" style="stroke:#181818;stroke-width:0.5;" width="73.9307" x="863.4131" y="1047.3828"/><text fill="#000000" font-family="sans-serif" font-size="14" lengthAdjust="spacing" textLength="59.9307" x="870.4131" y="1068.916">Database</text></g><g><title>FalsoPay App</title><rect fill="#FFFFFF" height="869.8125" style="stroke:#181818;stroke-width:1;" width="10" x="300.4873" y="153.5703"/></g><g><title>API Gateway</title><rect fill="#FFFFFF" height="692.0547" style="stroke:#181818;stroke-width:1;" width="10" x="521.6543" y="257.625"/></g><g><title>Security Service</title><rect fill="#FFFFFF" height="631.3516" style="stroke:#181818;stroke-width:1;" width="10" x="697.2896" y="287.9766"/></g><g><title>Database</title><rect fill="#FFFFFF" height="30.3516" style="stroke:#181818;stroke-width:1;" width="10" x="895.3784" y="318.3281"/></g><g><title>Database</title><rect fill="#FFFFFF" height="30.3516" style="stroke:#181818;stroke-width:1;" width="10" x="895.3784" y="447.7344"/></g><g><title>Database</title><rect fill="#FFFFFF" height="30.3516" style="stroke:#181818;stroke-width:1;" width="10" x="895.3784" y="577.1406"/></g><g><title>Database</title><rect fill="#FFFFFF" height="30.3516" style="stroke:#181818;stroke-width:1;" width="10" x="895.3784" y="858.625"/></g><g class="message" data-participant-1="User" data-participant-2="App"><polygon fill="#181818" points="288.4873,149.5703,298.4873,153.5703,288.4873,157.5703,292.4873,153.5703" style="stroke:#181818;stroke-width:1;"/><line style="stroke:#181818;stroke-width:1;" x1="83.5757" x2="294.4873" y1="153.5703" y2="153.5703"/><text fill="#000000" font-family="sans-serif" font-size="13" lengthAdjust="spacing" textLength="184.9834" x="90.5757" y="148.7139">Initiate transaction requiring PIN</text></g><g class="message" data-participant-1="App" data-participant-2="App"><line style="stroke:#181818;stroke-width:1;" x1="310.4873" x2="352.4873" y1="183.9219" y2="183.9219"/><line style="stroke:#181818;stroke-width:1;" x1="352.4873" x2="352.4873" y1="183.9219" y2="196.9219"/><line style="stroke:#181818;stroke-width:1;" x1="311.4873" x2="352.4873" y1="196.9219" y2="196.9219"/><polygon fill="#181818" points="321.4873,192.9219,311.4873,196.9219,321.4873,200.9219,317.4873,196.9219" style="stroke:#181818;stroke-width:1;"/><text fill="#000000" font-family="sans-serif" font-size="13" lengthAdjust="spacing" textLength="106.2153" x="317.4873" y="179.0654">Request PIN entry</text></g><g class="message" data-participant-1="User" data-participant-2="App"><polygon fill="#181818" points="288.4873,223.2734,298.4873,227.2734,288.4873,231.2734,292.4873,227.2734" style="stroke:#181818;stroke-width:1;"/><line style="stroke:#181818;stroke-width:1;" x1="83.5757" x2="294.4873" y1="227.2734" y2="227.2734"/><text fill="#000000" font-family="sans-serif" font-size="13" lengthAdjust="spacing" textLength="56.3545" x="90.5757" y="222.417">Enter PIN</text></g><g class="message" data-participant-1="App" data-participant-2="Gateway"><polygon fill="#181818" points="509.6543,253.625,519.6543,257.625,509.6543,261.625,513.6543,257.625" style="stroke:#181818;stroke-width:1;"/><line style="stroke:#181818;stroke-width:1;" x1="310.4873" x2="515.6543" y1="257.625" y2="257.625"/><text fill="#000000" font-family="sans-serif" font-size="13" lengthAdjust="spacing" textLength="164.7153" x="317.4873" y="252.7686">POST /api/security/verify-pin</text></g><g class="message" data-participant-1="Gateway" data-participant-2="SecService"><polygon fill="#181818" points="685.2896,283.9766,695.2896,287.9766,685.2896,291.9766,689.2896,287.9766" style="stroke:#181818;stroke-width:1;"/><line style="stroke:#181818;stroke-width:1;" x1="531.6543" x2="691.2896" y1="287.9766" y2="287.9766"/><text fill="#000000" font-family="sans-serif" font-size="13" lengthAdjust="spacing" textLength="58.5127" x="538.6543" y="283.1201">Verify PIN</text></g><g class="message" data-participant-1="SecService" data-participant-2="DB"><polygon fill="#181818" points="883.3784,314.3281,893.3784,318.3281,883.3784,322.3281,887.3784,318.3281" style="stroke:#181818;stroke-width:1;"/><line style="stroke:#181818;stroke-width:1;" x1="707.2896" x2="889.3784" y1="318.3281" y2="318.3281"/><text fill="#000000" font-family="sans-serif" font-size="13" lengthAdjust="spacing" textLength="117.7808" x="714.2896" y="313.4717">Get stored PIN hash</text></g><g class="message" data-participant-1="DB" data-participant-2="SecService"><polygon fill="#181818" points="718.2896,344.6797,708.2896,348.6797,718.2896,352.6797,714.2896,348.6797" style="stroke:#181818;stroke-width:1;"/><line style="stroke:#181818;stroke-width:1;stroke-dasharray:2.0,2.0;" x1="712.2896" x2="899.3784" y1="348.6797" y2="348.6797"/><text fill="#000000" font-family="sans-serif" font-size="13" lengthAdjust="spacing" textLength="53.4727" x="724.2896" y="343.8232">PIN hash</text></g><g class="message" data-participant-1="SecService" data-participant-2="SecService"><line style="stroke:#181818;stroke-width:1;" x1="707.2896" x2="749.2896" y1="379.0313" y2="379.0313"/><line style="stroke:#181818;stroke-width:1;" x1="749.2896" x2="749.2896" y1="379.0313" y2="392.0313"/><line style="stroke:#181818;stroke-width:1;" x1="708.2896" x2="749.2896" y1="392.0313" y2="392.0313"/><polygon fill="#181818" points="718.2896,388.0313,708.2896,392.0313,718.2896,396.0313,714.2896,392.0313" style="stroke:#181818;stroke-width:1;"/><text fill="#000000" font-family="sans-serif" font-size="13" lengthAdjust="spacing" textLength="72.2617" x="714.2896" y="374.1748">Validate PIN</text></g><path d="M10,407.0313 L70.1709,407.0313 L70.1709,415.3828 L60.1709,425.3828 L10,425.3828 L10,407.0313" fill="#EEEEEE" style="stroke:#000000;stroke-width:1.5;"/><rect fill="none" height="624.3516" style="stroke:#000000;stroke-width:1.5;" width="947.3438" x="10" y="407.0313"/><text fill="#000000" font-family="sans-serif" font-size="13" font-weight="bold" lengthAdjust="spacing" textLength="15.1709" x="25" y="421.5264">alt</text><text fill="#000000" font-family="sans-serif" font-size="11" font-weight="bold" lengthAdjust="spacing" textLength="75.7915" x="85.1709" y="420.4502">[Incorrect PIN]</text><g class="message" data-participant-1="SecService" data-participant-2="DB"><polygon fill="#181818" points="883.3784,443.7344,893.3784,447.7344,883.3784,451.7344,887.3784,447.7344" style="stroke:#181818;stroke-width:1;"/><line style="stroke:#181818;stroke-width:1;" x1="707.2896" x2="889.3784" y1="447.7344" y2="447.7344"/><text fill="#000000" font-family="sans-serif" font-size="13" lengthAdjust="spacing" textLength="103.3462" x="714.2896" y="442.8779">Log failed attempt</text></g><g class="message" data-participant-1="DB" data-participant-2="SecService"><polygon fill="#181818" points="718.2896,474.0859,708.2896,478.0859,718.2896,482.0859,714.2896,478.0859" style="stroke:#181818;stroke-width:1;"/><line style="stroke:#181818;stroke-width:1;stroke-dasharray:2.0,2.0;" x1="712.2896" x2="899.3784" y1="478.0859" y2="478.0859"/><text fill="#000000" font-family="sans-serif" font-size="13" lengthAdjust="spacing" textLength="49.1309" x="724.2896" y="473.2295">Success</text></g><g class="message" data-participant-1="SecService" data-participant-2="SecService"><line style="stroke:#181818;stroke-width:1;" x1="707.2896" x2="749.2896" y1="508.4375" y2="508.4375"/><line style="stroke:#181818;stroke-width:1;" x1="749.2896" x2="749.2896" y1="508.4375" y2="521.4375"/><line style="stroke:#181818;stroke-width:1;" x1="708.2896" x2="749.2896" y1="521.4375" y2="521.4375"/><polygon fill="#181818" points="718.2896,517.4375,708.2896,521.4375,718.2896,525.4375,714.2896,521.4375" style="stroke:#181818;stroke-width:1;"/><text fill="#000000" font-family="sans-serif" font-size="13" lengthAdjust="spacing" textLength="160.418" x="714.2896" y="503.5811">Check failed attempts count</text></g><path d="M20,536.4375 L80.1709,536.4375 L80.1709,544.7891 L70.1709,554.7891 L20,554.7891 L20,536.4375" fill="#EEEEEE" style="stroke:#000000;stroke-width:1.5;"/><rect fill="none" height="277" style="stroke:#000000;stroke-width:1.5;" width="927.3438" x="20" y="536.4375"/><text fill="#000000" font-family="sans-serif" font-size="13" font-weight="bold" lengthAdjust="spacing" textLength="15.1709" x="35" y="550.9326">alt</text><text fill="#000000" font-family="sans-serif" font-size="11" font-weight="bold" lengthAdjust="spacing" textLength="139.96" x="95.1709" y="549.8564">[Too many failed attempts]</text><g class="message" data-participant-1="SecService" data-participant-2="DB"><polygon fill="#181818" points="883.3784,573.1406,893.3784,577.1406,883.3784,581.1406,887.3784,577.1406" style="stroke:#181818;stroke-width:1;"/><line style="stroke:#181818;stroke-width:1;" x1="707.2896" x2="889.3784" y1="577.1406" y2="577.1406"/><text fill="#000000" font-family="sans-serif" font-size="13" lengthAdjust="spacing" textLength="169.0571" x="714.2896" y="572.2842">Temporarily lock transactions</text></g><g class="message" data-participant-1="DB" data-participant-2="SecService"><polygon fill="#181818" points="718.2896,603.4922,708.2896,607.4922,718.2896,611.4922,714.2896,607.4922" style="stroke:#181818;stroke-width:1;"/><line style="stroke:#181818;stroke-width:1;stroke-dasharray:2.0,2.0;" x1="712.2896" x2="899.3784" y1="607.4922" y2="607.4922"/><text fill="#000000" font-family="sans-serif" font-size="13" lengthAdjust="spacing" textLength="49.1309" x="724.2896" y="602.6357">Success</text></g><g class="message" data-participant-1="SecService" data-participant-2="Gateway"><polygon fill="#181818" points="542.6543,633.8438,532.6543,637.8438,542.6543,641.8438,538.6543,637.8438" style="stroke:#181818;stroke-width:1;"/><line style="stroke:#181818;stroke-width:1;stroke-dasharray:2.0,2.0;" x1="536.6543" x2="696.2896" y1="637.8438" y2="637.8438"/><text fill="#000000" font-family="sans-serif" font-size="13" lengthAdjust="spacing" textLength="141.6353" x="548.6543" y="632.9873">429 Too Many Requests</text></g><g class="message" data-participant-1="Gateway" data-participant-2="App"><polygon fill="#181818" points="321.4873,664.1953,311.4873,668.1953,321.4873,672.1953,317.4873,668.1953" style="stroke:#181818;stroke-width:1;"/><line style="stroke:#181818;stroke-width:1;stroke-dasharray:2.0,2.0;" x1="315.4873" x2="520.6543" y1="668.1953" y2="668.1953"/><text fill="#000000" font-family="sans-serif" font-size="13" lengthAdjust="spacing" textLength="141.6353" x="327.4873" y="663.3389">429 Too Many Requests</text></g><g class="message" data-participant-1="App" data-participant-2="User"><polygon fill="#181818" points="94.5757,694.5469,84.5757,698.5469,94.5757,702.5469,90.5757,698.5469" style="stroke:#181818;stroke-width:1;"/><line style="stroke:#181818;stroke-width:1;stroke-dasharray:2.0,2.0;" x1="88.5757" x2="299.4873" y1="698.5469" y2="698.5469"/><text fill="#000000" font-family="sans-serif" font-size="13" lengthAdjust="spacing" textLength="187.8462" x="100.5757" y="693.6904">Display temporary lock message</text></g><line style="stroke:#000000;stroke-width:1;stroke-dasharray:2.0,2.0;" x1="20" x2="947.3438" y1="707.5469" y2="707.5469"/><text fill="#000000" font-family="sans-serif" font-size="11" font-weight="bold" lengthAdjust="spacing" textLength="107.5562" x="25" y="718.9658">[Under attempt limit]</text><g class="message" data-participant-1="SecService" data-participant-2="Gateway"><polygon fill="#181818" points="542.6543,740.7344,532.6543,744.7344,542.6543,748.7344,538.6543,744.7344" style="stroke:#181818;stroke-width:1;"/><line style="stroke:#181818;stroke-width:1;stroke-dasharray:2.0,2.0;" x1="536.6543" x2="696.2896" y1="744.7344" y2="744.7344"/><text fill="#000000" font-family="sans-serif" font-size="13" lengthAdjust="spacing" textLength="102.6289" x="548.6543" y="739.8779">401 Unauthorized</text></g><g class="message" data-participant-1="Gateway" data-participant-2="App"><polygon fill="#181818" points="321.4873,771.0859,311.4873,775.0859,321.4873,779.0859,317.4873,775.0859" style="stroke:#181818;stroke-width:1;"/><line style="stroke:#181818;stroke-width:1;stroke-dasharray:2.0,2.0;" x1="315.4873" x2="520.6543" y1="775.0859" y2="775.0859"/><text fill="#000000" font-family="sans-serif" font-size="13" lengthAdjust="spacing" textLength="102.6289" x="327.4873" y="770.2295">401 Unauthorized</text></g><g class="message" data-participant-1="App" data-participant-2="User"><polygon fill="#181818" points="94.5757,801.4375,84.5757,805.4375,94.5757,809.4375,90.5757,805.4375" style="stroke:#181818;stroke-width:1;"/><line style="stroke:#181818;stroke-width:1;stroke-dasharray:2.0,2.0;" x1="88.5757" x2="299.4873" y1="805.4375" y2="805.4375"/><text fill="#000000" font-family="sans-serif" font-size="13" lengthAdjust="spacing" textLength="192.9116" x="100.5757" y="800.5811">Display PIN error and retry option</text></g><line style="stroke:#000000;stroke-width:1;stroke-dasharray:2.0,2.0;" x1="10" x2="957.3438" y1="821.4375" y2="821.4375"/><text fill="#000000" font-family="sans-serif" font-size="11" font-weight="bold" lengthAdjust="spacing" textLength="53.7861" x="15" y="832.8564">[PIN valid]</text><g class="message" data-participant-1="SecService" data-participant-2="DB"><polygon fill="#181818" points="883.3784,854.625,893.3784,858.625,883.3784,862.625,887.3784,858.625" style="stroke:#181818;stroke-width:1;"/><line style="stroke:#181818;stroke-width:1;" x1="707.2896" x2="889.3784" y1="858.625" y2="858.625"/><text fill="#000000" font-family="sans-serif" font-size="13" lengthAdjust="spacing" textLength="169.0889" x="714.2896" y="853.7686">Reset failed attempts counter</text></g><g class="message" data-participant-1="DB" data-participant-2="SecService"><polygon fill="#181818" points="718.2896,884.9766,708.2896,888.9766,718.2896,892.9766,714.2896,888.9766" style="stroke:#181818;stroke-width:1;"/><line style="stroke:#181818;stroke-width:1;stroke-dasharray:2.0,2.0;" x1="712.2896" x2="899.3784" y1="888.9766" y2="888.9766"/><text fill="#000000" font-family="sans-serif" font-size="13" lengthAdjust="spacing" textLength="49.1309" x="724.2896" y="884.1201">Success</text></g><g class="message" data-participant-1="SecService" data-participant-2="Gateway"><polygon fill="#181818" points="542.6543,915.3281,532.6543,919.3281,542.6543,923.3281,538.6543,919.3281" style="stroke:#181818;stroke-width:1;"/><line style="stroke:#181818;stroke-width:1;stroke-dasharray:2.0,2.0;" x1="536.6543" x2="701.2896" y1="919.3281" y2="919.3281"/><text fill="#000000" font-family="sans-serif" font-size="13" lengthAdjust="spacing" textLength="44.0845" x="548.6543" y="914.4717">200 OK</text></g><g class="message" data-participant-1="Gateway" data-participant-2="App"><polygon fill="#181818" points="321.4873,945.6797,311.4873,949.6797,321.4873,953.6797,317.4873,949.6797" style="stroke:#181818;stroke-width:1;"/><line style="stroke:#181818;stroke-width:1;stroke-dasharray:2.0,2.0;" x1="315.4873" x2="525.6543" y1="949.6797" y2="949.6797"/><text fill="#000000" font-family="sans-serif" font-size="13" lengthAdjust="spacing" textLength="44.0845" x="327.4873" y="944.8232">200 OK</text></g><g class="message" data-participant-1="App" data-participant-2="App"><line style="stroke:#181818;stroke-width:1;" x1="310.4873" x2="352.4873" y1="980.0313" y2="980.0313"/><line style="stroke:#181818;stroke-width:1;" x1="352.4873" x2="352.4873" y1="980.0313" y2="993.0313"/><line style="stroke:#181818;stroke-width:1;" x1="311.4873" x2="352.4873" y1="993.0313" y2="993.0313"/><polygon fill="#181818" points="321.4873,989.0313,311.4873,993.0313,321.4873,997.0313,317.4873,993.0313" style="stroke:#181818;stroke-width:1;"/><text fill="#000000" font-family="sans-serif" font-size="13" lengthAdjust="spacing" textLength="187.167" x="317.4873" y="975.1748">Authorize transaction to proceed</text></g><g class="message" data-participant-1="App" data-participant-2="User"><polygon fill="#181818" points="94.5757,1019.3828,84.5757,1023.3828,94.5757,1027.3828,90.5757,1023.3828" style="stroke:#181818;stroke-width:1;"/><line style="stroke:#181818;stroke-width:1;stroke-dasharray:2.0,2.0;" x1="88.5757" x2="304.4873" y1="1023.3828" y2="1023.3828"/><text fill="#000000" font-family="sans-serif" font-size="13" lengthAdjust="spacing" textLength="145.9707" x="100.5757" y="1018.5264">Continue with transaction</text></g><!--SRC=[jLHDSzf03BtxLsYuCr3QIpbqXeyam_GZ393UrRK2EpMxxgvCnltrrMwDl-AalOG3h9VtfATdIQZOEXZjwAWzawCK7Zov4Q2FXoH7nrhf70t3w1OpRxTOmYBF8qH-kuZ5TWDtoFI4PGHKvoveJwfmcalOaxjeHH4fbzLZ5xn6nX_e_uBMooHXpHd1mseyUp-7xUORt4e11uV6es9jJP84uJ3-5DJDOMCqQr41t430qQz2EssE8K0IBYy14if9vAicxmH7dcCQCkpARkmR8vR545TMLQy8kzyVO8AvdlYgsic5d7uinxasJSQhFqbr234Q9-RmFNAwAbjE9SqvCDVBETmHWvTtAcyog3wXFpLKyM-zX74lIOrBgOti1U_8maod0HPhnup5PcMT8nMzIa0-pwLziKTuH9s9D6IcSyuHsCuPdWSKxWkboFluTrTak1b8roQlJgH-zX9xKBOmtD133GThuOocx6CZOBYaWm2iGwUp4Z8hQLfTrl3wWl-Zok5AQxbzDUtM-p3x64lv6agfEhW9MZVQjObVXyU-5cZe-pcijSyp8NDLTbNqMLJZaIA9CY_JQL8PZCe_oFHPyxzbJzy93mi-MQT_K_gAufUGmsBZy3edMm9DAgClOmmsZwiY2ZPf4aK7t2KqzWljkoClipNOHx8etwQJsmRDfbEu_zndjhP17U6POyFKw_AfUUtLjxZQsrcSR25tLb5bUjVmbJMiJK7mfFdKflKJXpqRRFy3]--></g></svg>