<svg xmlns="http://www.w3.org/2000/svg" xmlns:xlink="http://www.w3.org/1999/xlink" contentStyleType="text/css" data-diagram-type="SEQUENCE" height="1361px" preserveAspectRatio="none" style="width:1280px;height:1361px;background:#FFFFFF;" version="1.1" viewBox="0 0 1280 1361" width="1280px" zoomAndPan="magnify"><title>UC-24: Contact Customer Support</title><defs/><g><text fill="#000000" font-family="sans-serif" font-size="14" font-weight="bold" lengthAdjust="spacing" textLength="227.8965" x="527.1726" y="29.5332">UC-24: Contact Customer Support</text><g><title>FalsoPay App</title><rect fill="#FFFFFF" height="1117.1406" style="stroke:#181818;stroke-width:1;" width="10" x="347.5718" y="153.5703"/></g><g><title>FalsoPay App</title><rect fill="#FFFFFF" height="804.625" style="stroke:#181818;stroke-width:1;" width="10" x="352.5718" y="457.0859"/></g><g><title>API Gateway</title><rect fill="#FFFFFF" height="151.7578" style="stroke:#181818;stroke-width:1;" width="10" x="580.1943" y="183.9219"/></g><g><title>API Gateway</title><rect fill="#FFFFFF" height="783.2734" style="stroke:#181818;stroke-width:1;" width="10" x="580.1943" y="487.4375"/></g><g><title>API Gateway</title><rect fill="#FFFFFF" height="354.3516" style="stroke:#181818;stroke-width:1;" width="10" x="585.1943" y="877.0078"/></g><g><title>Support Service</title><rect fill="#FFFFFF" height="91.0547" style="stroke:#181818;stroke-width:1;" width="10" x="809.9604" y="214.2734"/></g><g><title>Support Service</title><rect fill="#FFFFFF" height="683.2188" style="stroke:#181818;stroke-width:1;" width="10" x="809.9604" y="517.7891"/></g><g><title>User Service</title><rect fill="#FFFFFF" height="91.0547" style="stroke:#181818;stroke-width:1;" width="10" x="983.4185" y="548.1406"/></g><g><title>Notification Service</title><rect fill="#FFFFFF" height="30.3516" style="stroke:#181818;stroke-width:1;" width="10" x="1107.3975" y="1140.3047"/></g><g><title>Database</title><rect fill="#FFFFFF" height="30.3516" style="stroke:#181818;stroke-width:1;" width="10" x="1221.2764" y="244.625"/></g><g><title>Database</title><rect fill="#FFFFFF" height="30.3516" style="stroke:#181818;stroke-width:1;" width="10" x="1221.2764" y="578.4922"/></g><g><title>Database</title><rect fill="#FFFFFF" height="30.3516" style="stroke:#181818;stroke-width:1;" width="10" x="1221.2764" y="694.8984"/></g><g><title>Database</title><rect fill="#FFFFFF" height="30.3516" style="stroke:#181818;stroke-width:1;" width="10" x="1221.2764" y="1003.8984"/></g><rect fill="none" height="320.3516" style="stroke:#000000;stroke-width:1.5;" width="1263.2417" x="10" y="654.1953"/><rect fill="none" height="61.7031" style="stroke:#000000;stroke-width:1.5;" width="240.2612" x="748.1572" y="1049.25"/><g><title>Registered User</title><rect fill="#000000" fill-opacity="0.00000" height="1158.4922" width="8" x="69.5757" y="121.2188"/><line style="stroke:#181818;stroke-width:0.5;stroke-dasharray:5.0,5.0;" x1="73" x2="73" y1="121.2188" y2="1279.7109"/></g><g><title>FalsoPay App</title><rect fill="#000000" fill-opacity="0.00000" height="1158.4922" width="8" x="348.5718" y="121.2188"/><line style="stroke:#181818;stroke-width:0.5;stroke-dasharray:5.0,5.0;" x1="351.9927" x2="351.9927" y1="121.2188" y2="1279.7109"/></g><g><title>API Gateway</title><rect fill="#000000" fill-opacity="0.00000" height="1158.4922" width="8" x="581.1943" y="121.2188"/><line style="stroke:#181818;stroke-width:0.5;stroke-dasharray:5.0,5.0;" x1="584.3428" x2="584.3428" y1="121.2188" y2="1279.7109"/></g><g><title>Support Service</title><rect fill="#000000" fill-opacity="0.00000" height="1158.4922" width="8" x="810.9604" y="121.2188"/><line style="stroke:#181818;stroke-width:0.5;stroke-dasharray:5.0,5.0;" x1="814.1572" x2="814.1572" y1="121.2188" y2="1279.7109"/></g><g><title>User Service</title><rect fill="#000000" fill-opacity="0.00000" height="1158.4922" width="8" x="984.4185" y="121.2188"/><line style="stroke:#181818;stroke-width:0.5;stroke-dasharray:5.0,5.0;" x1="988.353" x2="988.353" y1="121.2188" y2="1279.7109"/></g><g><title>Notification Service</title><rect fill="#000000" fill-opacity="0.00000" height="1158.4922" width="8" x="1108.3975" y="121.2188"/><line style="stroke:#181818;stroke-width:0.5;stroke-dasharray:5.0,5.0;" x1="1111.4839" x2="1111.4839" y1="121.2188" y2="1279.7109"/></g><g><title>Database</title><rect fill="#000000" fill-opacity="0.00000" height="1158.4922" width="8" x="1222.2764" y="121.2188"/><line style="stroke:#181818;stroke-width:0.5;stroke-dasharray:5.0,5.0;" x1="1225.311" x2="1225.311" y1="121.2188" y2="1279.7109"/></g><g class="participant participant-head" data-participant="User"><text fill="#000000" font-family="sans-serif" font-size="14" lengthAdjust="spacing" textLength="101.1514" x="20" y="118.1426">Registered User</text><ellipse cx="73.5757" cy="52.1094" fill="#E2E2F0" rx="8" ry="8" style="stroke:#181818;stroke-width:0.5;"/><path d="M73.5757,60.1094 L73.5757,87.1094 M60.5757,68.1094 L86.5757,68.1094 M73.5757,87.1094 L60.5757,102.1094 M73.5757,87.1094 L86.5757,102.1094" fill="none" style="stroke:#181818;stroke-width:0.5;"/></g><g class="participant participant-tail" data-participant="User"><text fill="#000000" font-family="sans-serif" font-size="14" lengthAdjust="spacing" textLength="101.1514" x="20" y="1293.2441">Registered User</text><ellipse cx="73.5757" cy="1304.8203" fill="#E2E2F0" rx="8" ry="8" style="stroke:#181818;stroke-width:0.5;"/><path d="M73.5757,1312.8203 L73.5757,1339.8203 M60.5757,1320.8203 L86.5757,1320.8203 M73.5757,1339.8203 L60.5757,1354.8203 M73.5757,1339.8203 L86.5757,1354.8203" fill="none" style="stroke:#181818;stroke-width:0.5;"/></g><g class="participant participant-head" data-participant="App"><rect fill="#E2E2F0" height="31.6094" rx="2.5" ry="2.5" style="stroke:#181818;stroke-width:0.5;" width="101.1582" x="301.9927" y="88.6094"/><text fill="#000000" font-family="sans-serif" font-size="14" lengthAdjust="spacing" textLength="87.1582" x="308.9927" y="110.1426">FalsoPay App</text></g><g class="participant participant-tail" data-participant="App"><rect fill="#E2E2F0" height="31.6094" rx="2.5" ry="2.5" style="stroke:#181818;stroke-width:0.5;" width="101.1582" x="301.9927" y="1278.7109"/><text fill="#000000" font-family="sans-serif" font-size="14" lengthAdjust="spacing" textLength="87.1582" x="308.9927" y="1300.2441">FalsoPay App</text></g><g class="participant participant-head" data-participant="Gateway"><rect fill="#E2E2F0" height="31.6094" rx="2.5" ry="2.5" style="stroke:#181818;stroke-width:0.5;" width="95.7031" x="537.3428" y="88.6094"/><text fill="#000000" font-family="sans-serif" font-size="14" lengthAdjust="spacing" textLength="81.7031" x="544.3428" y="110.1426">API Gateway</text></g><g class="participant participant-tail" data-participant="Gateway"><rect fill="#E2E2F0" height="31.6094" rx="2.5" ry="2.5" style="stroke:#181818;stroke-width:0.5;" width="95.7031" x="537.3428" y="1278.7109"/><text fill="#000000" font-family="sans-serif" font-size="14" lengthAdjust="spacing" textLength="81.7031" x="544.3428" y="1300.2441">API Gateway</text></g><g class="participant participant-head" data-participant="SupportService"><rect fill="#E2E2F0" height="31.6094" rx="2.5" ry="2.5" style="stroke:#181818;stroke-width:0.5;" width="113.6064" x="758.1572" y="88.6094"/><text fill="#000000" font-family="sans-serif" font-size="14" lengthAdjust="spacing" textLength="99.6064" x="765.1572" y="110.1426">Support Service</text></g><g class="participant participant-tail" data-participant="SupportService"><rect fill="#E2E2F0" height="31.6094" rx="2.5" ry="2.5" style="stroke:#181818;stroke-width:0.5;" width="113.6064" x="758.1572" y="1278.7109"/><text fill="#000000" font-family="sans-serif" font-size="14" lengthAdjust="spacing" textLength="99.6064" x="765.1572" y="1300.2441">Support Service</text></g><g class="participant participant-head" data-participant="UserService"><rect fill="#E2E2F0" height="31.6094" rx="2.5" ry="2.5" style="stroke:#181818;stroke-width:0.5;" width="94.1309" x="941.353" y="88.6094"/><text fill="#000000" font-family="sans-serif" font-size="14" lengthAdjust="spacing" textLength="80.1309" x="948.353" y="110.1426">User Service</text></g><g class="participant participant-tail" data-participant="UserService"><rect fill="#E2E2F0" height="31.6094" rx="2.5" ry="2.5" style="stroke:#181818;stroke-width:0.5;" width="94.1309" x="941.353" y="1278.7109"/><text fill="#000000" font-family="sans-serif" font-size="14" lengthAdjust="spacing" textLength="80.1309" x="948.353" y="1300.2441">User Service</text></g><g class="participant participant-head" data-participant="NotifService"><rect fill="#E2E2F0" height="31.6094" rx="2.5" ry="2.5" style="stroke:#181818;stroke-width:0.5;" width="133.8271" x="1045.4839" y="88.6094"/><text fill="#000000" font-family="sans-serif" font-size="14" lengthAdjust="spacing" textLength="119.8271" x="1052.4839" y="110.1426">Notification Service</text></g><g class="participant participant-tail" data-participant="NotifService"><rect fill="#E2E2F0" height="31.6094" rx="2.5" ry="2.5" style="stroke:#181818;stroke-width:0.5;" width="133.8271" x="1045.4839" y="1278.7109"/><text fill="#000000" font-family="sans-serif" font-size="14" lengthAdjust="spacing" textLength="119.8271" x="1052.4839" y="1300.2441">Notification Service</text></g><g class="participant participant-head" data-participant="DB"><rect fill="#E2E2F0" height="31.6094" rx="2.5" ry="2.5" style="stroke:#181818;stroke-width:0.5;" width="73.9307" x="1189.311" y="88.6094"/><text fill="#000000" font-family="sans-serif" font-size="14" lengthAdjust="spacing" textLength="59.9307" x="1196.311" y="110.1426">Database</text></g><g class="participant participant-tail" data-participant="DB"><rect fill="#E2E2F0" height="31.6094" rx="2.5" ry="2.5" style="stroke:#181818;stroke-width:0.5;" width="73.9307" x="1189.311" y="1278.7109"/><text fill="#000000" font-family="sans-serif" font-size="14" lengthAdjust="spacing" textLength="59.9307" x="1196.311" y="1300.2441">Database</text></g><g><title>FalsoPay App</title><rect fill="#FFFFFF" height="1117.1406" style="stroke:#181818;stroke-width:1;" width="10" x="347.5718" y="153.5703"/></g><g><title>FalsoPay App</title><rect fill="#FFFFFF" height="804.625" style="stroke:#181818;stroke-width:1;" width="10" x="352.5718" y="457.0859"/></g><g><title>API Gateway</title><rect fill="#FFFFFF" height="151.7578" style="stroke:#181818;stroke-width:1;" width="10" x="580.1943" y="183.9219"/></g><g><title>API Gateway</title><rect fill="#FFFFFF" height="783.2734" style="stroke:#181818;stroke-width:1;" width="10" x="580.1943" y="487.4375"/></g><g><title>API Gateway</title><rect fill="#FFFFFF" height="354.3516" style="stroke:#181818;stroke-width:1;" width="10" x="585.1943" y="877.0078"/></g><g><title>Support Service</title><rect fill="#FFFFFF" height="91.0547" style="stroke:#181818;stroke-width:1;" width="10" x="809.9604" y="214.2734"/></g><g><title>Support Service</title><rect fill="#FFFFFF" height="683.2188" style="stroke:#181818;stroke-width:1;" width="10" x="809.9604" y="517.7891"/></g><g><title>User Service</title><rect fill="#FFFFFF" height="91.0547" style="stroke:#181818;stroke-width:1;" width="10" x="983.4185" y="548.1406"/></g><g><title>Notification Service</title><rect fill="#FFFFFF" height="30.3516" style="stroke:#181818;stroke-width:1;" width="10" x="1107.3975" y="1140.3047"/></g><g><title>Database</title><rect fill="#FFFFFF" height="30.3516" style="stroke:#181818;stroke-width:1;" width="10" x="1221.2764" y="244.625"/></g><g><title>Database</title><rect fill="#FFFFFF" height="30.3516" style="stroke:#181818;stroke-width:1;" width="10" x="1221.2764" y="578.4922"/></g><g><title>Database</title><rect fill="#FFFFFF" height="30.3516" style="stroke:#181818;stroke-width:1;" width="10" x="1221.2764" y="694.8984"/></g><g><title>Database</title><rect fill="#FFFFFF" height="30.3516" style="stroke:#181818;stroke-width:1;" width="10" x="1221.2764" y="1003.8984"/></g><g class="message" data-participant-1="User" data-participant-2="App"><polygon fill="#181818" points="335.5718,149.5703,345.5718,153.5703,335.5718,157.5703,339.5718,153.5703" style="stroke:#181818;stroke-width:1;"/><line style="stroke:#181818;stroke-width:1;" x1="73.5757" x2="341.5718" y1="153.5703" y2="153.5703"/><text fill="#000000" font-family="sans-serif" font-size="13" lengthAdjust="spacing" textLength="167.6606" x="80.5757" y="148.7139">Select contact support option</text></g><g class="message" data-participant-1="App" data-participant-2="Gateway"><polygon fill="#181818" points="568.1943,179.9219,578.1943,183.9219,568.1943,187.9219,572.1943,183.9219" style="stroke:#181818;stroke-width:1;"/><line style="stroke:#181818;stroke-width:1;" x1="357.5718" x2="574.1943" y1="183.9219" y2="183.9219"/><text fill="#000000" font-family="sans-serif" font-size="13" lengthAdjust="spacing" textLength="161.8589" x="364.5718" y="179.0654">GET /api/support/categories</text></g><g class="message" data-participant-1="Gateway" data-participant-2="SupportService"><polygon fill="#181818" points="797.9604,210.2734,807.9604,214.2734,797.9604,218.2734,801.9604,214.2734" style="stroke:#181818;stroke-width:1;"/><line style="stroke:#181818;stroke-width:1;" x1="590.1943" x2="803.9604" y1="214.2734" y2="214.2734"/><text fill="#000000" font-family="sans-serif" font-size="13" lengthAdjust="spacing" textLength="118.5044" x="597.1943" y="209.417">Get issue categories</text></g><g class="message" data-participant-1="SupportService" data-participant-2="DB"><polygon fill="#181818" points="1209.2764,240.625,1219.2764,244.625,1209.2764,248.625,1213.2764,244.625" style="stroke:#181818;stroke-width:1;"/><line style="stroke:#181818;stroke-width:1;" x1="819.9604" x2="1215.2764" y1="244.625" y2="244.625"/><text fill="#000000" font-family="sans-serif" font-size="13" lengthAdjust="spacing" textLength="111.998" x="826.9604" y="239.7686">Retrieve categories</text></g><g class="message" data-participant-1="DB" data-participant-2="SupportService"><polygon fill="#181818" points="830.9604,270.9766,820.9604,274.9766,830.9604,278.9766,826.9604,274.9766" style="stroke:#181818;stroke-width:1;"/><line style="stroke:#181818;stroke-width:1;stroke-dasharray:2.0,2.0;" x1="824.9604" x2="1225.2764" y1="274.9766" y2="274.9766"/><text fill="#000000" font-family="sans-serif" font-size="13" lengthAdjust="spacing" textLength="82.3672" x="836.9604" y="270.1201">Categories list</text></g><g class="message" data-participant-1="SupportService" data-participant-2="Gateway"><polygon fill="#181818" points="601.1943,301.3281,591.1943,305.3281,601.1943,309.3281,597.1943,305.3281" style="stroke:#181818;stroke-width:1;"/><line style="stroke:#181818;stroke-width:1;stroke-dasharray:2.0,2.0;" x1="595.1943" x2="813.9604" y1="305.3281" y2="305.3281"/><text fill="#000000" font-family="sans-serif" font-size="13" lengthAdjust="spacing" textLength="94.6626" x="607.1943" y="300.4717">Issue categories</text></g><g class="message" data-participant-1="Gateway" data-participant-2="App"><polygon fill="#181818" points="368.5718,331.6797,358.5718,335.6797,368.5718,339.6797,364.5718,335.6797" style="stroke:#181818;stroke-width:1;"/><line style="stroke:#181818;stroke-width:1;stroke-dasharray:2.0,2.0;" x1="362.5718" x2="584.1943" y1="335.6797" y2="335.6797"/><text fill="#000000" font-family="sans-serif" font-size="13" lengthAdjust="spacing" textLength="134.4053" x="374.5718" y="330.8232">200 OK with categories</text></g><g class="message" data-participant-1="App" data-participant-2="User"><polygon fill="#181818" points="84.5757,362.0313,74.5757,366.0313,84.5757,370.0313,80.5757,366.0313" style="stroke:#181818;stroke-width:1;"/><line style="stroke:#181818;stroke-width:1;stroke-dasharray:2.0,2.0;" x1="78.5757" x2="346.5718" y1="366.0313" y2="366.0313"/><text fill="#000000" font-family="sans-serif" font-size="13" lengthAdjust="spacing" textLength="140.1753" x="90.5757" y="361.1748">Display issue categories</text></g><g class="message" data-participant-1="User" data-participant-2="App"><polygon fill="#181818" points="335.5718,392.3828,345.5718,396.3828,335.5718,400.3828,339.5718,396.3828" style="stroke:#181818;stroke-width:1;"/><line style="stroke:#181818;stroke-width:1;" x1="73.5757" x2="341.5718" y1="396.3828" y2="396.3828"/><text fill="#000000" font-family="sans-serif" font-size="13" lengthAdjust="spacing" textLength="123.5635" x="80.5757" y="391.5264">Select issue category</text></g><g class="message" data-participant-1="User" data-participant-2="App"><polygon fill="#181818" points="335.5718,422.7344,345.5718,426.7344,335.5718,430.7344,339.5718,426.7344" style="stroke:#181818;stroke-width:1;"/><line style="stroke:#181818;stroke-width:1;" x1="73.5757" x2="341.5718" y1="426.7344" y2="426.7344"/><text fill="#000000" font-family="sans-serif" font-size="13" lengthAdjust="spacing" textLength="131.5107" x="80.5757" y="421.8779">Enter issue description</text></g><g class="message" data-participant-1="User" data-participant-2="App"><polygon fill="#181818" points="340.5718,453.0859,350.5718,457.0859,340.5718,461.0859,344.5718,457.0859" style="stroke:#181818;stroke-width:1;"/><line style="stroke:#181818;stroke-width:1;" x1="73.5757" x2="346.5718" y1="457.0859" y2="457.0859"/><text fill="#000000" font-family="sans-serif" font-size="13" lengthAdjust="spacing" textLength="134.4053" x="80.5757" y="452.2295">Submit support request</text></g><g class="message" data-participant-1="App" data-participant-2="Gateway"><polygon fill="#181818" points="568.1943,483.4375,578.1943,487.4375,568.1943,491.4375,572.1943,487.4375" style="stroke:#181818;stroke-width:1;"/><line style="stroke:#181818;stroke-width:1;" x1="362.5718" x2="574.1943" y1="487.4375" y2="487.4375"/><text fill="#000000" font-family="sans-serif" font-size="13" lengthAdjust="spacing" textLength="147.3926" x="369.5718" y="482.5811">POST /api/support/tickets</text></g><g class="message" data-participant-1="Gateway" data-participant-2="SupportService"><polygon fill="#181818" points="797.9604,513.7891,807.9604,517.7891,797.9604,521.7891,801.9604,517.7891" style="stroke:#181818;stroke-width:1;"/><line style="stroke:#181818;stroke-width:1;" x1="590.1943" x2="803.9604" y1="517.7891" y2="517.7891"/><text fill="#000000" font-family="sans-serif" font-size="13" lengthAdjust="spacing" textLength="119.9453" x="597.1943" y="512.9326">Create support ticket</text></g><g class="message" data-participant-1="SupportService" data-participant-2="UserService"><polygon fill="#181818" points="971.4185,544.1406,981.4185,548.1406,971.4185,552.1406,975.4185,548.1406" style="stroke:#181818;stroke-width:1;"/><line style="stroke:#181818;stroke-width:1;" x1="819.9604" x2="977.4185" y1="548.1406" y2="548.1406"/><text fill="#000000" font-family="sans-serif" font-size="13" lengthAdjust="spacing" textLength="91.0444" x="826.9604" y="543.2842">Get user details</text></g><g class="message" data-participant-1="UserService" data-participant-2="DB"><polygon fill="#181818" points="1209.2764,574.4922,1219.2764,578.4922,1209.2764,582.4922,1213.2764,578.4922" style="stroke:#181818;stroke-width:1;"/><line style="stroke:#181818;stroke-width:1;" x1="993.4185" x2="1215.2764" y1="578.4922" y2="578.4922"/><text fill="#000000" font-family="sans-serif" font-size="13" lengthAdjust="spacing" textLength="101.8799" x="1000.4185" y="573.6357">Retrieve user info</text></g><g class="message" data-participant-1="DB" data-participant-2="UserService"><polygon fill="#181818" points="1004.4185,604.8438,994.4185,608.8438,1004.4185,612.8438,1000.4185,608.8438" style="stroke:#181818;stroke-width:1;"/><line style="stroke:#181818;stroke-width:1;stroke-dasharray:2.0,2.0;" x1="998.4185" x2="1225.2764" y1="608.8438" y2="608.8438"/><text fill="#000000" font-family="sans-serif" font-size="13" lengthAdjust="spacing" textLength="56.3608" x="1010.4185" y="603.9873">User data</text></g><g class="message" data-participant-1="UserService" data-participant-2="SupportService"><polygon fill="#181818" points="830.9604,635.1953,820.9604,639.1953,830.9604,643.1953,826.9604,639.1953" style="stroke:#181818;stroke-width:1;"/><line style="stroke:#181818;stroke-width:1;stroke-dasharray:2.0,2.0;" x1="824.9604" x2="987.4185" y1="639.1953" y2="639.1953"/><text fill="#000000" font-family="sans-serif" font-size="13" lengthAdjust="spacing" textLength="68.6372" x="836.9604" y="634.3389">User details</text></g><path d="M10,654.1953 L70.1709,654.1953 L70.1709,662.5469 L60.1709,672.5469 L10,672.5469 L10,654.1953" fill="#EEEEEE" style="stroke:#000000;stroke-width:1.5;"/><rect fill="none" height="320.3516" style="stroke:#000000;stroke-width:1.5;" width="1263.2417" x="10" y="654.1953"/><text fill="#000000" font-family="sans-serif" font-size="13" font-weight="bold" lengthAdjust="spacing" textLength="15.1709" x="25" y="668.6904">alt</text><text fill="#000000" font-family="sans-serif" font-size="11" font-weight="bold" lengthAdjust="spacing" textLength="158.2969" x="85.1709" y="667.6143">[System offers FAQ solutions]</text><g class="message" data-participant-1="SupportService" data-participant-2="DB"><polygon fill="#181818" points="1209.2764,690.8984,1219.2764,694.8984,1209.2764,698.8984,1213.2764,694.8984" style="stroke:#181818;stroke-width:1;"/><line style="stroke:#181818;stroke-width:1;" x1="819.9604" x2="1215.2764" y1="694.8984" y2="694.8984"/><text fill="#000000" font-family="sans-serif" font-size="13" lengthAdjust="spacing" textLength="171.9326" x="826.9604" y="690.042">Search FAQ for similar issues</text></g><g class="message" data-participant-1="DB" data-participant-2="SupportService"><polygon fill="#181818" points="830.9604,721.25,820.9604,725.25,830.9604,729.25,826.9604,725.25" style="stroke:#181818;stroke-width:1;"/><line style="stroke:#181818;stroke-width:1;stroke-dasharray:2.0,2.0;" x1="824.9604" x2="1225.2764" y1="725.25" y2="725.25"/><text fill="#000000" font-family="sans-serif" font-size="13" lengthAdjust="spacing" textLength="89.5845" x="836.9604" y="720.3936">Matching FAQs</text></g><g class="message" data-participant-1="SupportService" data-participant-2="Gateway"><polygon fill="#181818" points="601.1943,751.6016,591.1943,755.6016,601.1943,759.6016,597.1943,755.6016" style="stroke:#181818;stroke-width:1;"/><line style="stroke:#181818;stroke-width:1;stroke-dasharray:2.0,2.0;" x1="595.1943" x2="808.9604" y1="755.6016" y2="755.6016"/><text fill="#000000" font-family="sans-serif" font-size="13" lengthAdjust="spacing" textLength="174.1416" x="607.1943" y="750.7451">200 OK with FAQ suggestions</text></g><g class="message" data-participant-1="Gateway" data-participant-2="App"><polygon fill="#181818" points="373.5718,781.9531,363.5718,785.9531,373.5718,789.9531,369.5718,785.9531" style="stroke:#181818;stroke-width:1;"/><line style="stroke:#181818;stroke-width:1;stroke-dasharray:2.0,2.0;" x1="367.5718" x2="579.1943" y1="785.9531" y2="785.9531"/><text fill="#000000" font-family="sans-serif" font-size="13" lengthAdjust="spacing" textLength="174.1416" x="379.5718" y="781.0967">200 OK with FAQ suggestions</text></g><g class="message" data-participant-1="App" data-participant-2="User"><polygon fill="#181818" points="84.5757,812.3047,74.5757,816.3047,84.5757,820.3047,80.5757,816.3047" style="stroke:#181818;stroke-width:1;"/><line style="stroke:#181818;stroke-width:1;stroke-dasharray:2.0,2.0;" x1="78.5757" x2="351.5718" y1="816.3047" y2="816.3047"/><text fill="#000000" font-family="sans-serif" font-size="13" lengthAdjust="spacing" textLength="152.4326" x="90.5757" y="811.4482">Display FAQ solutions first</text></g><g class="message" data-participant-1="User" data-participant-2="App"><polygon fill="#181818" points="340.5718,842.6563,350.5718,846.6563,340.5718,850.6563,344.5718,846.6563" style="stroke:#181818;stroke-width:1;"/><line style="stroke:#181818;stroke-width:1;" x1="73.5757" x2="346.5718" y1="846.6563" y2="846.6563"/><text fill="#000000" font-family="sans-serif" font-size="13" lengthAdjust="spacing" textLength="172.707" x="80.5757" y="841.7998">Choose to continue with ticket</text></g><g class="message" data-participant-1="App" data-participant-2="Gateway"><polygon fill="#181818" points="573.1943,873.0078,583.1943,877.0078,573.1943,881.0078,577.1943,877.0078" style="stroke:#181818;stroke-width:1;"/><line style="stroke:#181818;stroke-width:1;" x1="362.5718" x2="579.1943" y1="877.0078" y2="877.0078"/><text fill="#000000" font-family="sans-serif" font-size="13" lengthAdjust="spacing" textLength="193.6226" x="369.5718" y="872.1514">POST /api/support/tickets/confirm</text></g><g class="message" data-participant-1="Gateway" data-participant-2="SupportService"><polygon fill="#181818" points="797.9604,903.3594,807.9604,907.3594,797.9604,911.3594,801.9604,907.3594" style="stroke:#181818;stroke-width:1;"/><line style="stroke:#181818;stroke-width:1;" x1="595.1943" x2="803.9604" y1="907.3594" y2="907.3594"/><text fill="#000000" font-family="sans-serif" font-size="13" lengthAdjust="spacing" textLength="129.3208" x="602.1943" y="902.5029">Confirm ticket creation</text></g><line style="stroke:#000000;stroke-width:1;stroke-dasharray:2.0,2.0;" x1="10" x2="1273.2417" y1="916.3594" y2="916.3594"/><text fill="#000000" font-family="sans-serif" font-size="11" font-weight="bold" lengthAdjust="spacing" textLength="116.1445" x="15" y="927.7783">[Direct ticket creation]</text><g class="message" data-participant-1="SupportService" data-participant-2="SupportService"><line style="stroke:#181818;stroke-width:1;" x1="819.9604" x2="861.9604" y1="953.5469" y2="953.5469"/><line style="stroke:#181818;stroke-width:1;" x1="861.9604" x2="861.9604" y1="953.5469" y2="966.5469"/><line style="stroke:#181818;stroke-width:1;" x1="820.9604" x2="861.9604" y1="966.5469" y2="966.5469"/><polygon fill="#181818" points="830.9604,962.5469,820.9604,966.5469,830.9604,970.5469,826.9604,966.5469" style="stroke:#181818;stroke-width:1;"/><text fill="#000000" font-family="sans-serif" font-size="13" lengthAdjust="spacing" textLength="136.5381" x="826.9604" y="948.6904">Determine ticket priority</text></g><g class="message" data-participant-1="SupportService" data-participant-2="DB"><polygon fill="#181818" points="1209.2764,999.8984,1219.2764,1003.8984,1209.2764,1007.8984,1213.2764,1003.8984" style="stroke:#181818;stroke-width:1;"/><line style="stroke:#181818;stroke-width:1;" x1="819.9604" x2="1215.2764" y1="1003.8984" y2="1003.8984"/><text fill="#000000" font-family="sans-serif" font-size="13" lengthAdjust="spacing" textLength="119.9453" x="826.9604" y="999.042">Create support ticket</text></g><g class="message" data-participant-1="DB" data-participant-2="SupportService"><polygon fill="#181818" points="830.9604,1030.25,820.9604,1034.25,830.9604,1038.25,826.9604,1034.25" style="stroke:#181818;stroke-width:1;"/><line style="stroke:#181818;stroke-width:1;stroke-dasharray:2.0,2.0;" x1="824.9604" x2="1225.2764" y1="1034.25" y2="1034.25"/><text fill="#000000" font-family="sans-serif" font-size="13" lengthAdjust="spacing" textLength="214.5952" x="836.9604" y="1029.3936">Ticket created with reference number</text></g><path d="M748.1572,1049.25 L808.3281,1049.25 L808.3281,1057.6016 L798.3281,1067.6016 L748.1572,1067.6016 L748.1572,1049.25" fill="#EEEEEE" style="stroke:#000000;stroke-width:1.5;"/><rect fill="none" height="61.7031" style="stroke:#000000;stroke-width:1.5;" width="240.2612" x="748.1572" y="1049.25"/><text fill="#000000" font-family="sans-serif" font-size="13" font-weight="bold" lengthAdjust="spacing" textLength="15.1709" x="763.1572" y="1063.7451">alt</text><text fill="#000000" font-family="sans-serif" font-size="11" font-weight="bold" lengthAdjust="spacing" textLength="75.8022" x="823.3281" y="1062.6689">[Critical issue]</text><g class="message" data-participant-1="SupportService" data-participant-2="SupportService"><line style="stroke:#181818;stroke-width:1;" x1="819.9604" x2="861.9604" y1="1089.9531" y2="1089.9531"/><line style="stroke:#181818;stroke-width:1;" x1="861.9604" x2="861.9604" y1="1089.9531" y2="1102.9531"/><line style="stroke:#181818;stroke-width:1;" x1="820.9604" x2="861.9604" y1="1102.9531" y2="1102.9531"/><polygon fill="#181818" points="830.9604,1098.9531,820.9604,1102.9531,830.9604,1106.9531,826.9604,1102.9531" style="stroke:#181818;stroke-width:1;"/><text fill="#000000" font-family="sans-serif" font-size="13" lengthAdjust="spacing" textLength="139.458" x="826.9604" y="1085.0967">Flag for priority handling</text></g><g class="message" data-participant-1="SupportService" data-participant-2="NotifService"><polygon fill="#181818" points="1095.3975,1136.3047,1105.3975,1140.3047,1095.3975,1144.3047,1099.3975,1140.3047" style="stroke:#181818;stroke-width:1;"/><line style="stroke:#181818;stroke-width:1;" x1="819.9604" x2="1101.3975" y1="1140.3047" y2="1140.3047"/><text fill="#000000" font-family="sans-serif" font-size="13" lengthAdjust="spacing" textLength="138.7344" x="826.9604" y="1135.4482">Send ticket confirmation</text></g><g class="message" data-participant-1="NotifService" data-participant-2="SupportService"><polygon fill="#181818" points="830.9604,1166.6563,820.9604,1170.6563,830.9604,1174.6563,826.9604,1170.6563" style="stroke:#181818;stroke-width:1;"/><line style="stroke:#181818;stroke-width:1;stroke-dasharray:2.0,2.0;" x1="824.9604" x2="1111.3975" y1="1170.6563" y2="1170.6563"/><text fill="#000000" font-family="sans-serif" font-size="13" lengthAdjust="spacing" textLength="111.2998" x="836.9604" y="1165.7998">Notification queued</text></g><g class="message" data-participant-1="SupportService" data-participant-2="Gateway"><polygon fill="#181818" points="606.1943,1197.0078,596.1943,1201.0078,606.1943,1205.0078,602.1943,1201.0078" style="stroke:#181818;stroke-width:1;"/><line style="stroke:#181818;stroke-width:1;stroke-dasharray:2.0,2.0;" x1="600.1943" x2="813.9604" y1="1201.0078" y2="1201.0078"/><text fill="#000000" font-family="sans-serif" font-size="13" lengthAdjust="spacing" textLength="190.7661" x="612.1943" y="1196.1514">201 Created with ticket reference</text></g><g class="message" data-participant-1="Gateway" data-participant-2="App"><polygon fill="#181818" points="373.5718,1227.3594,363.5718,1231.3594,373.5718,1235.3594,369.5718,1231.3594" style="stroke:#181818;stroke-width:1;"/><line style="stroke:#181818;stroke-width:1;stroke-dasharray:2.0,2.0;" x1="367.5718" x2="579.1943" y1="1231.3594" y2="1231.3594"/><text fill="#000000" font-family="sans-serif" font-size="13" lengthAdjust="spacing" textLength="190.7661" x="379.5718" y="1226.5029">201 Created with ticket reference</text></g><g class="message" data-participant-1="App" data-participant-2="User"><polygon fill="#181818" points="84.5757,1257.7109,74.5757,1261.7109,84.5757,1265.7109,80.5757,1261.7109" style="stroke:#181818;stroke-width:1;"/><line style="stroke:#181818;stroke-width:1;stroke-dasharray:2.0,2.0;" x1="78.5757" x2="346.5718" y1="1261.7109" y2="1261.7109"/><text fill="#000000" font-family="sans-serif" font-size="13" lengthAdjust="spacing" textLength="249.9961" x="90.5757" y="1256.8545">Display confirmation with reference number</text></g><!--SRC=[bLLDKzim4BthL-nmPqAPddBe3DZ0C9qMIk0727kJQ2fBhYJ3vDzt9Ij6CWgG719RsS-dztPvuxI1amVS2ElGO0jF5iq9S1iUMC-D4utekN9mSisbrVTy1nTz7qpeDxUukB-56-xmbU-2GNpEZLP3tslZO8NcHJGO3EDPFChjVI6PiJyeMlxMJgn5mvtGAlC8VnHTQkxuCxUZMNt9c1DE8ZnLf-VVbr1fvNZZe1giqvqlOwoJiL3KwGyFmP9IIIIh9bhRsA3kVI6CZiGB0H7WOlJb_I8oIxYvUeG5xyKYUYseVDne8z2-UUvnPF71HyWXeq3eG5Wx89GYp01c-RkFLrykuG4TkRsKGn0wzIMS5b9NapL8uX5hCNLwbojj_tPUSU8xhtbgVe_x-TaPtFs4L-6s1q9Cm0NOoS_Vsn9gONj9aTxXLRpNp6gNcrmfaasqQD4sHeoNdiSPdZlnnWk3_mOac3ucnltTQiOCOkrVT4VIeZBeJVUvnnZ7y29HsqYomRVMekD29hMaecJ9opjg1NUXrhh4h2nPmB0bWSu9bOKlzFoKLfZuPZLoIIDeHrEl0xrUex5mVV47h9Q3lq3BW3vbbQoGcsORpDSqFQteXEIH1ADVMgr_Fw2RNzmrMw4sFjJec3VgJufrf3n9HH0w63OROjVKmuUgAJcKfPA10sjXYC1JVHdRgwtM5i7fC1258cM4N95wKuglS7r18IXNbwEwvttMNe7weszC38rNWjScIYgl5iPhU_vV-TRdaMiarNT2uTw_Du86YDinLEsXuVg94W-FryUaHjhG0Ko3H5bK55qDtJDjwfb4FBihgeYseHoP-SNMhYNV15hlMu8jLwqabXxgBLskNXogdL0TBu3dQp1RnkbBiVbifzFS7B1DUys2iOzryYrUGPloyGt98rVF4T4-sK8fJ9_VhbyM_m40]--></g></svg>