<svg xmlns="http://www.w3.org/2000/svg" xmlns:xlink="http://www.w3.org/1999/xlink" contentStyleType="text/css" data-diagram-type="SEQUENCE" height="1433px" preserveAspectRatio="none" style="width:1122px;height:1433px;background:#FFFFFF;" version="1.1" viewBox="0 0 1122 1433" width="1122px" zoomAndPan="magnify"><title>UC-25: Search</title><defs/><g><rect fill="#FFFFCC" height="28.0566" rx="2.5" ry="2.5" style="stroke:#FFDD88;stroke-width:3;" width="1111.1826" x="5" y="5"/><text fill="#000000" font-family="monospace" font-size="10" lengthAdjust="spacing" textLength="354.0576" x="10" y="20">Please&#160;use&#160;'!option&#160;handwritten&#160;true'&#160;to&#160;enable&#160;handwritten</text><text fill="#000000" font-family="sans-serif" font-size="14" font-weight="bold" lengthAdjust="spacing" textLength="95.7031" x="501.7397" y="67.5898">UC-25: Search</text><g><title>User</title><rect fill="#000000" fill-opacity="0.00000" height="1191.6563" width="8" x="18.7793" y="159.2754"/><line style="stroke:#181818;stroke-width:0.5;stroke-dasharray:5.0,5.0;" x1="22" x2="22" y1="159.2754" y2="1350.9316"/></g><g><title>FalsoPay App</title><rect fill="#000000" fill-opacity="0.00000" height="1191.6563" width="8" x="232.8154" y="159.2754"/><line style="stroke:#181818;stroke-width:0.5;stroke-dasharray:5.0,5.0;" x1="236.2363" x2="236.2363" y1="159.2754" y2="1350.9316"/></g><g><title>API Gateway</title><rect fill="#000000" fill-opacity="0.00000" height="1191.6563" width="8" x="400.7017" y="159.2754"/><line style="stroke:#181818;stroke-width:0.5;stroke-dasharray:5.0,5.0;" x1="403.8501" x2="403.8501" y1="159.2754" y2="1350.9316"/></g><g><title>Search</title><rect fill="#000000" fill-opacity="0.00000" height="1191.6563" width="8" x="623.415" y="159.2754"/><line style="stroke:#181818;stroke-width:0.5;stroke-dasharray:5.0,5.0;" x1="627.0737" x2="627.0737" y1="159.2754" y2="1350.9316"/></g><g><title>Transaction</title><rect fill="#000000" fill-opacity="0.00000" height="1191.6563" width="8" x="793.5103" y="159.2754"/><line style="stroke:#181818;stroke-width:0.5;stroke-dasharray:5.0,5.0;" x1="796.938" x2="796.938" y1="159.2754" y2="1350.9316"/></g><g><title>User</title><rect fill="#000000" fill-opacity="0.00000" height="1191.6563" width="8" x="877.4238" y="159.2754"/><line style="stroke:#181818;stroke-width:0.5;stroke-dasharray:5.0,5.0;" x1="881.0825" x2="881.0825" y1="159.2754" y2="1350.9316"/></g><g><title>Database</title><rect fill="#000000" fill-opacity="0.00000" height="1191.6563" width="8" x="1058.2173" y="159.2754"/><line style="stroke:#181818;stroke-width:0.5;stroke-dasharray:5.0,5.0;" x1="1061.252" x2="1061.252" y1="159.2754" y2="1350.9316"/></g><g class="participant participant-head" data-participant="user"><text fill="#000000" font-family="sans-serif" font-size="14" lengthAdjust="spacing" textLength="29.5586" x="5" y="156.1992">User</text><ellipse cx="22.7793" cy="90.166" fill="#E2E2F0" rx="8" ry="8" style="stroke:#181818;stroke-width:0.5;"/><path d="M22.7793,98.166 L22.7793,125.166 M9.7793,106.166 L35.7793,106.166 M22.7793,125.166 L9.7793,140.166 M22.7793,125.166 L35.7793,140.166" fill="none" style="stroke:#181818;stroke-width:0.5;"/></g><g class="participant participant-tail" data-participant="user"><text fill="#000000" font-family="sans-serif" font-size="14" lengthAdjust="spacing" textLength="29.5586" x="5" y="1364.4648">User</text><ellipse cx="22.7793" cy="1376.041" fill="#E2E2F0" rx="8" ry="8" style="stroke:#181818;stroke-width:0.5;"/><path d="M22.7793,1384.041 L22.7793,1411.041 M9.7793,1392.041 L35.7793,1392.041 M22.7793,1411.041 L9.7793,1426.041 M22.7793,1411.041 L35.7793,1426.041" fill="none" style="stroke:#181818;stroke-width:0.5;"/></g><g class="participant participant-head" data-participant="app"><rect fill="#E2E2F0" height="31.6094" rx="2.5" ry="2.5" style="stroke:#181818;stroke-width:0.5;" width="101.1582" x="186.2363" y="126.666"/><text fill="#000000" font-family="sans-serif" font-size="14" lengthAdjust="spacing" textLength="87.1582" x="193.2363" y="148.1992">FalsoPay App</text></g><g class="participant participant-tail" data-participant="app"><rect fill="#E2E2F0" height="31.6094" rx="2.5" ry="2.5" style="stroke:#181818;stroke-width:0.5;" width="101.1582" x="186.2363" y="1349.9316"/><text fill="#000000" font-family="sans-serif" font-size="14" lengthAdjust="spacing" textLength="87.1582" x="193.2363" y="1371.4648">FalsoPay App</text></g><g class="participant participant-head" data-participant="gateway"><rect fill="#E2E2F0" height="31.6094" rx="2.5" ry="2.5" style="stroke:#181818;stroke-width:0.5;" width="95.7031" x="356.8501" y="126.666"/><text fill="#000000" font-family="sans-serif" font-size="14" lengthAdjust="spacing" textLength="81.7031" x="363.8501" y="148.1992">API Gateway</text></g><g class="participant participant-tail" data-participant="gateway"><rect fill="#E2E2F0" height="31.6094" rx="2.5" ry="2.5" style="stroke:#181818;stroke-width:0.5;" width="95.7031" x="356.8501" y="1349.9316"/><text fill="#000000" font-family="sans-serif" font-size="14" lengthAdjust="spacing" textLength="81.7031" x="363.8501" y="1371.4648">API Gateway</text></g><g class="participant participant-head" data-participant="searchService"><rect fill="#E2E2F0" height="49.2188" rx="2.5" ry="2.5" style="stroke:#181818;stroke-width:0.5;" width="60.6826" x="597.0737" y="109.0566"/><text fill="#000000" font-family="sans-serif" font-size="14" lengthAdjust="spacing" textLength="44.3584" x="605.2358" y="130.5898">Search</text><text fill="#000000" font-family="sans-serif" font-size="14" lengthAdjust="spacing" textLength="46.6826" x="604.0737" y="148.1992">Service</text></g><g class="participant participant-tail" data-participant="searchService"><rect fill="#E2E2F0" height="49.2188" rx="2.5" ry="2.5" style="stroke:#181818;stroke-width:0.5;" width="60.6826" x="597.0737" y="1349.9316"/><text fill="#000000" font-family="sans-serif" font-size="14" lengthAdjust="spacing" textLength="44.3584" x="605.2358" y="1371.4648">Search</text><text fill="#000000" font-family="sans-serif" font-size="14" lengthAdjust="spacing" textLength="46.6826" x="604.0737" y="1389.0742">Service</text></g><g class="participant participant-head" data-participant="txnService"><rect fill="#E2E2F0" height="49.2188" rx="2.5" ry="2.5" style="stroke:#181818;stroke-width:0.5;" width="87.1445" x="753.938" y="109.0566"/><text fill="#000000" font-family="sans-serif" font-size="14" lengthAdjust="spacing" textLength="73.1445" x="760.938" y="130.5898">Transaction</text><text fill="#000000" font-family="sans-serif" font-size="14" lengthAdjust="spacing" textLength="46.6826" x="774.1689" y="148.1992">Service</text></g><g class="participant participant-tail" data-participant="txnService"><rect fill="#E2E2F0" height="49.2188" rx="2.5" ry="2.5" style="stroke:#181818;stroke-width:0.5;" width="87.1445" x="753.938" y="1349.9316"/><text fill="#000000" font-family="sans-serif" font-size="14" lengthAdjust="spacing" textLength="73.1445" x="760.938" y="1371.4648">Transaction</text><text fill="#000000" font-family="sans-serif" font-size="14" lengthAdjust="spacing" textLength="46.6826" x="774.1689" y="1389.0742">Service</text></g><g class="participant participant-head" data-participant="userService"><rect fill="#E2E2F0" height="49.2188" rx="2.5" ry="2.5" style="stroke:#181818;stroke-width:0.5;" width="60.6826" x="851.0825" y="109.0566"/><text fill="#000000" font-family="sans-serif" font-size="14" lengthAdjust="spacing" textLength="29.5586" x="866.6445" y="130.5898">User</text><text fill="#000000" font-family="sans-serif" font-size="14" lengthAdjust="spacing" textLength="46.6826" x="858.0825" y="148.1992">Service</text></g><g class="participant participant-tail" data-participant="userService"><rect fill="#E2E2F0" height="49.2188" rx="2.5" ry="2.5" style="stroke:#181818;stroke-width:0.5;" width="60.6826" x="851.0825" y="1349.9316"/><text fill="#000000" font-family="sans-serif" font-size="14" lengthAdjust="spacing" textLength="29.5586" x="866.6445" y="1371.4648">User</text><text fill="#000000" font-family="sans-serif" font-size="14" lengthAdjust="spacing" textLength="46.6826" x="858.0825" y="1389.0742">Service</text></g><g class="participant participant-head" data-participant="db"><text fill="#000000" font-family="sans-serif" font-size="14" lengthAdjust="spacing" textLength="59.9307" x="1029.252" y="156.1992">Database</text><path d="M1044.2173,105.666 C1044.2173,95.666 1062.2173,95.666 1062.2173,95.666 C1062.2173,95.666 1080.2173,95.666 1080.2173,105.666 L1080.2173,131.666 C1080.2173,141.666 1062.2173,141.666 1062.2173,141.666 C1062.2173,141.666 1044.2173,141.666 1044.2173,131.666 L1044.2173,105.666" fill="#E2E2F0" style="stroke:#181818;stroke-width:1.5;"/><path d="M1044.2173,105.666 C1044.2173,115.666 1062.2173,115.666 1062.2173,115.666 C1062.2173,115.666 1080.2173,115.666 1080.2173,105.666" fill="none" style="stroke:#181818;stroke-width:1.5;"/></g><g class="participant participant-tail" data-participant="db"><text fill="#000000" font-family="sans-serif" font-size="14" lengthAdjust="spacing" textLength="59.9307" x="1029.252" y="1364.4648">Database</text><path d="M1044.2173,1377.541 C1044.2173,1367.541 1062.2173,1367.541 1062.2173,1367.541 C1062.2173,1367.541 1080.2173,1367.541 1080.2173,1377.541 L1080.2173,1403.541 C1080.2173,1413.541 1062.2173,1413.541 1062.2173,1413.541 C1062.2173,1413.541 1044.2173,1413.541 1044.2173,1403.541 L1044.2173,1377.541" fill="#E2E2F0" style="stroke:#181818;stroke-width:1.5;"/><path d="M1044.2173,1377.541 C1044.2173,1387.541 1062.2173,1387.541 1062.2173,1387.541 C1062.2173,1387.541 1080.2173,1387.541 1080.2173,1377.541" fill="none" style="stroke:#181818;stroke-width:1.5;"/></g><rect fill="#EEEEEE" height="3" style="stroke:#EEEEEE;stroke-width:1;" width="1100.1826" x="0" y="190.4512"/><line style="stroke:#000000;stroke-width:1;" x1="0" x2="1100.1826" y1="190.4512" y2="190.4512"/><line style="stroke:#000000;stroke-width:1;" x1="0" x2="1100.1826" y1="193.4512" y2="193.4512"/><rect fill="#EEEEEE" height="24.3516" style="stroke:#000000;stroke-width:2;" width="162.1226" x="469.03" y="179.2754"/><text fill="#000000" font-family="sans-serif" font-size="13" font-weight="bold" lengthAdjust="spacing" textLength="144.5107" x="475.03" y="196.7705">Main Success Scenario</text><g class="message" data-participant-1="user" data-participant-2="app"><polygon fill="#181818" points="224.8154,231.9785,234.8154,235.9785,224.8154,239.9785,228.8154,235.9785" style="stroke:#181818;stroke-width:1;"/><line style="stroke:#181818;stroke-width:1;" x1="22.7793" x2="230.8154" y1="235.9785" y2="235.9785"/><text fill="#000000" font-family="sans-serif" font-size="13" lengthAdjust="spacing" textLength="103.3145" x="78.1401" y="231.1221">Enter search term</text></g><g class="message" data-participant-1="app" data-participant-2="app"><line style="stroke:#181818;stroke-width:1;" x1="236.8154" x2="278.8154" y1="266.3301" y2="266.3301"/><line style="stroke:#181818;stroke-width:1;" x1="278.8154" x2="278.8154" y1="266.3301" y2="279.3301"/><line style="stroke:#181818;stroke-width:1;" x1="237.8154" x2="278.8154" y1="279.3301" y2="279.3301"/><polygon fill="#181818" points="247.8154,275.3301,237.8154,279.3301,247.8154,283.3301,243.8154,279.3301" style="stroke:#181818;stroke-width:1;"/><text fill="#000000" font-family="sans-serif" font-size="13" lengthAdjust="spacing" textLength="121.4116" x="243.8154" y="261.4736">Validate search input</text></g><g class="message" data-participant-1="app" data-participant-2="gateway"><polygon fill="#181818" points="392.7017,305.6816,402.7017,309.6816,392.7017,313.6816,396.7017,309.6816" style="stroke:#181818;stroke-width:1;"/><line style="stroke:#181818;stroke-width:1;" x1="236.8154" x2="398.7017" y1="309.6816" y2="309.6816"/><text fill="#000000" font-family="sans-serif" font-size="13" lengthAdjust="spacing" textLength="119.9644" x="260.7764" y="304.8252">Send search request</text></g><g class="message" data-participant-1="gateway" data-participant-2="searchService"><polygon fill="#181818" points="615.415,336.0332,625.415,340.0332,615.415,344.0332,619.415,340.0332" style="stroke:#181818;stroke-width:1;"/><line style="stroke:#181818;stroke-width:1;" x1="404.7017" x2="621.415" y1="340.0332" y2="340.0332"/><text fill="#000000" font-family="sans-serif" font-size="13" lengthAdjust="spacing" textLength="137.2808" x="447.418" y="335.1768">Forward search request</text></g><g class="message" data-participant-1="searchService" data-participant-2="txnService"><polygon fill="#181818" points="785.5103,366.3848,795.5103,370.3848,785.5103,374.3848,789.5103,370.3848" style="stroke:#181818;stroke-width:1;"/><line style="stroke:#181818;stroke-width:1;" x1="627.415" x2="791.5103" y1="370.3848" y2="370.3848"/><text fill="#000000" font-family="sans-serif" font-size="13" lengthAdjust="spacing" textLength="109.1035" x="657.9109" y="365.5283">Query transactions</text></g><g class="message" data-participant-1="txnService" data-participant-2="db"><polygon fill="#181818" points="1050.2173,396.7363,1060.2173,400.7363,1050.2173,404.7363,1054.2173,400.7363" style="stroke:#181818;stroke-width:1;"/><line style="stroke:#181818;stroke-width:1;" x1="797.5103" x2="1056.2173" y1="400.7363" y2="400.7363"/><text fill="#000000" font-family="sans-serif" font-size="13" lengthAdjust="spacing" textLength="178.4707" x="840.6284" y="395.8799">Retrieve matching transactions</text></g><g class="message" data-participant-1="db" data-participant-2="txnService"><polygon fill="#181818" points="808.5103,427.0879,798.5103,431.0879,808.5103,435.0879,804.5103,431.0879" style="stroke:#181818;stroke-width:1;"/><line style="stroke:#181818;stroke-width:1;stroke-dasharray:2.0,2.0;" x1="802.5103" x2="1061.2173" y1="431.0879" y2="431.0879"/><text fill="#000000" font-family="sans-serif" font-size="13" lengthAdjust="spacing" textLength="109.8208" x="874.9534" y="426.2314">Transaction results</text></g><g class="message" data-participant-1="txnService" data-participant-2="searchService"><polygon fill="#181818" points="638.415,457.4395,628.415,461.4395,638.415,465.4395,634.415,461.4395" style="stroke:#181818;stroke-width:1;"/><line style="stroke:#181818;stroke-width:1;stroke-dasharray:2.0,2.0;" x1="632.415" x2="796.5103" y1="461.4395" y2="461.4395"/><text fill="#000000" font-family="sans-serif" font-size="13" lengthAdjust="spacing" textLength="109.8208" x="657.5522" y="456.583">Transaction results</text></g><g class="message" data-participant-1="searchService" data-participant-2="userService"><polygon fill="#181818" points="869.4238,487.791,879.4238,491.791,869.4238,495.791,873.4238,491.791" style="stroke:#181818;stroke-width:1;"/><line style="stroke:#181818;stroke-width:1;" x1="627.415" x2="875.4238" y1="491.791" y2="491.791"/><text fill="#000000" font-family="sans-serif" font-size="13" lengthAdjust="spacing" textLength="87.4263" x="710.7063" y="486.9346">Query contacts</text></g><g class="message" data-participant-1="userService" data-participant-2="db"><polygon fill="#181818" points="1050.2173,518.1426,1060.2173,522.1426,1050.2173,526.1426,1054.2173,522.1426" style="stroke:#181818;stroke-width:1;"/><line style="stroke:#181818;stroke-width:1;" x1="881.4238" x2="1056.2173" y1="522.1426" y2="522.1426"/><text fill="#000000" font-family="sans-serif" font-size="13" lengthAdjust="spacing" textLength="156.7935" x="893.4238" y="517.2861">Retrieve matching contacts</text></g><g class="message" data-participant-1="db" data-participant-2="userService"><polygon fill="#181818" points="892.4238,548.4941,882.4238,552.4941,892.4238,556.4941,888.4238,552.4941" style="stroke:#181818;stroke-width:1;"/><line style="stroke:#181818;stroke-width:1;stroke-dasharray:2.0,2.0;" x1="886.4238" x2="1061.2173" y1="552.4941" y2="552.4941"/><text fill="#000000" font-family="sans-serif" font-size="13" lengthAdjust="spacing" textLength="86.7026" x="928.4692" y="547.6377">Contact results</text></g><g class="message" data-participant-1="userService" data-participant-2="searchService"><polygon fill="#181818" points="638.415,578.8457,628.415,582.8457,638.415,586.8457,634.415,582.8457" style="stroke:#181818;stroke-width:1;"/><line style="stroke:#181818;stroke-width:1;stroke-dasharray:2.0,2.0;" x1="632.415" x2="880.4238" y1="582.8457" y2="582.8457"/><text fill="#000000" font-family="sans-serif" font-size="13" lengthAdjust="spacing" textLength="86.7026" x="711.0681" y="577.9893">Contact results</text></g><g class="message" data-participant-1="searchService" data-participant-2="searchService"><line style="stroke:#181818;stroke-width:1;" x1="627.415" x2="669.415" y1="613.1973" y2="613.1973"/><line style="stroke:#181818;stroke-width:1;" x1="669.415" x2="669.415" y1="613.1973" y2="626.1973"/><line style="stroke:#181818;stroke-width:1;" x1="628.415" x2="669.415" y1="626.1973" y2="626.1973"/><polygon fill="#181818" points="638.415,622.1973,628.415,626.1973,638.415,630.1973,634.415,626.1973" style="stroke:#181818;stroke-width:1;"/><text fill="#000000" font-family="sans-serif" font-size="13" lengthAdjust="spacing" textLength="156.0952" x="634.415" y="608.3408">Aggregate and rank results</text></g><g class="message" data-participant-1="searchService" data-participant-2="gateway"><polygon fill="#181818" points="415.7017,652.5488,405.7017,656.5488,415.7017,660.5488,411.7017,656.5488" style="stroke:#181818;stroke-width:1;"/><line style="stroke:#181818;stroke-width:1;" x1="409.7017" x2="626.415" y1="656.5488" y2="656.5488"/><text fill="#000000" font-family="sans-serif" font-size="13" lengthAdjust="spacing" textLength="123.5508" x="454.283" y="651.6924">Return search results</text></g><g class="message" data-participant-1="gateway" data-participant-2="app"><polygon fill="#181818" points="247.8154,682.9004,237.8154,686.9004,247.8154,690.9004,243.8154,686.9004" style="stroke:#181818;stroke-width:1;"/><line style="stroke:#181818;stroke-width:1;" x1="241.8154" x2="403.7017" y1="686.9004" y2="686.9004"/><text fill="#000000" font-family="sans-serif" font-size="13" lengthAdjust="spacing" textLength="132.209" x="254.6541" y="682.0439">Forward search results</text></g><g class="message" data-participant-1="app" data-participant-2="app"><line style="stroke:#181818;stroke-width:1;" x1="236.8154" x2="278.8154" y1="717.252" y2="717.252"/><line style="stroke:#181818;stroke-width:1;" x1="278.8154" x2="278.8154" y1="717.252" y2="730.252"/><line style="stroke:#181818;stroke-width:1;" x1="237.8154" x2="278.8154" y1="730.252" y2="730.252"/><polygon fill="#181818" points="247.8154,726.252,237.8154,730.252,247.8154,734.252,243.8154,730.252" style="stroke:#181818;stroke-width:1;"/><text fill="#000000" font-family="sans-serif" font-size="13" lengthAdjust="spacing" textLength="153.8862" x="243.8154" y="712.3955">Format results by category</text></g><g class="message" data-participant-1="app" data-participant-2="user"><polygon fill="#181818" points="33.7793,756.6035,23.7793,760.6035,33.7793,764.6035,29.7793,760.6035" style="stroke:#181818;stroke-width:1;"/><line style="stroke:#181818;stroke-width:1;" x1="27.7793" x2="235.8154" y1="760.6035" y2="760.6035"/><text fill="#000000" font-family="sans-serif" font-size="13" lengthAdjust="spacing" textLength="155.3462" x="52.1243" y="755.7471">Display categorized results</text></g><rect fill="#EEEEEE" height="3" style="stroke:#EEEEEE;stroke-width:1;" width="1100.1826" x="0" y="789.7793"/><line style="stroke:#000000;stroke-width:1;" x1="0" x2="1100.1826" y1="789.7793" y2="789.7793"/><line style="stroke:#000000;stroke-width:1;" x1="0" x2="1100.1826" y1="792.7793" y2="792.7793"/><rect fill="#EEEEEE" height="24.3516" style="stroke:#000000;stroke-width:2;" width="262.4854" x="418.8486" y="778.6035"/><text fill="#000000" font-family="sans-serif" font-size="13" font-weight="bold" lengthAdjust="spacing" textLength="244.8735" x="424.8486" y="796.0986">Alternative Scenario: No Results Found</text><g class="message" data-participant-1="user" data-participant-2="app"><polygon fill="#181818" points="224.8154,831.3066,234.8154,835.3066,224.8154,839.3066,228.8154,835.3066" style="stroke:#181818;stroke-width:1;"/><line style="stroke:#181818;stroke-width:1;" x1="22.7793" x2="230.8154" y1="835.3066" y2="835.3066"/><text fill="#000000" font-family="sans-serif" font-size="13" lengthAdjust="spacing" textLength="103.3145" x="78.1401" y="830.4502">Enter search term</text></g><g class="message" data-participant-1="app" data-participant-2="app"><line style="stroke:#181818;stroke-width:1;" x1="236.8154" x2="278.8154" y1="865.6582" y2="865.6582"/><line style="stroke:#181818;stroke-width:1;" x1="278.8154" x2="278.8154" y1="865.6582" y2="878.6582"/><line style="stroke:#181818;stroke-width:1;" x1="237.8154" x2="278.8154" y1="878.6582" y2="878.6582"/><polygon fill="#181818" points="247.8154,874.6582,237.8154,878.6582,247.8154,882.6582,243.8154,878.6582" style="stroke:#181818;stroke-width:1;"/><text fill="#000000" font-family="sans-serif" font-size="13" lengthAdjust="spacing" textLength="121.4116" x="243.8154" y="860.8018">Validate search input</text></g><g class="message" data-participant-1="app" data-participant-2="gateway"><polygon fill="#181818" points="392.7017,905.0098,402.7017,909.0098,392.7017,913.0098,396.7017,909.0098" style="stroke:#181818;stroke-width:1;"/><line style="stroke:#181818;stroke-width:1;" x1="236.8154" x2="398.7017" y1="909.0098" y2="909.0098"/><text fill="#000000" font-family="sans-serif" font-size="13" lengthAdjust="spacing" textLength="119.9644" x="260.7764" y="904.1533">Send search request</text></g><g class="message" data-participant-1="gateway" data-participant-2="searchService"><polygon fill="#181818" points="615.415,935.3613,625.415,939.3613,615.415,943.3613,619.415,939.3613" style="stroke:#181818;stroke-width:1;"/><line style="stroke:#181818;stroke-width:1;" x1="404.7017" x2="621.415" y1="939.3613" y2="939.3613"/><text fill="#000000" font-family="sans-serif" font-size="13" lengthAdjust="spacing" textLength="137.2808" x="447.418" y="934.5049">Forward search request</text></g><g class="message" data-participant-1="searchService" data-participant-2="txnService"><polygon fill="#181818" points="785.5103,965.7129,795.5103,969.7129,785.5103,973.7129,789.5103,969.7129" style="stroke:#181818;stroke-width:1;"/><line style="stroke:#181818;stroke-width:1;" x1="627.415" x2="791.5103" y1="969.7129" y2="969.7129"/><text fill="#000000" font-family="sans-serif" font-size="13" lengthAdjust="spacing" textLength="109.1035" x="657.9109" y="964.8564">Query transactions</text></g><g class="message" data-participant-1="txnService" data-participant-2="db"><polygon fill="#181818" points="1050.2173,996.0645,1060.2173,1000.0645,1050.2173,1004.0645,1054.2173,1000.0645" style="stroke:#181818;stroke-width:1;"/><line style="stroke:#181818;stroke-width:1;" x1="797.5103" x2="1056.2173" y1="1000.0645" y2="1000.0645"/><text fill="#000000" font-family="sans-serif" font-size="13" lengthAdjust="spacing" textLength="178.4707" x="840.6284" y="995.208">Retrieve matching transactions</text></g><g class="message" data-participant-1="db" data-participant-2="txnService"><polygon fill="#181818" points="808.5103,1026.416,798.5103,1030.416,808.5103,1034.416,804.5103,1030.416" style="stroke:#181818;stroke-width:1;"/><line style="stroke:#181818;stroke-width:1;stroke-dasharray:2.0,2.0;" x1="802.5103" x2="1061.2173" y1="1030.416" y2="1030.416"/><text fill="#000000" font-family="sans-serif" font-size="13" lengthAdjust="spacing" textLength="58.519" x="900.6042" y="1025.5596">No results</text></g><g class="message" data-participant-1="txnService" data-participant-2="searchService"><polygon fill="#181818" points="638.415,1056.7676,628.415,1060.7676,638.415,1064.7676,634.415,1060.7676" style="stroke:#181818;stroke-width:1;"/><line style="stroke:#181818;stroke-width:1;stroke-dasharray:2.0,2.0;" x1="632.415" x2="796.5103" y1="1060.7676" y2="1060.7676"/><text fill="#000000" font-family="sans-serif" font-size="13" lengthAdjust="spacing" textLength="58.519" x="683.2031" y="1055.9111">No results</text></g><g class="message" data-participant-1="searchService" data-participant-2="userService"><polygon fill="#181818" points="869.4238,1087.1191,879.4238,1091.1191,869.4238,1095.1191,873.4238,1091.1191" style="stroke:#181818;stroke-width:1;"/><line style="stroke:#181818;stroke-width:1;" x1="627.415" x2="875.4238" y1="1091.1191" y2="1091.1191"/><text fill="#000000" font-family="sans-serif" font-size="13" lengthAdjust="spacing" textLength="87.4263" x="710.7063" y="1086.2627">Query contacts</text></g><g class="message" data-participant-1="userService" data-participant-2="db"><polygon fill="#181818" points="1050.2173,1117.4707,1060.2173,1121.4707,1050.2173,1125.4707,1054.2173,1121.4707" style="stroke:#181818;stroke-width:1;"/><line style="stroke:#181818;stroke-width:1;" x1="881.4238" x2="1056.2173" y1="1121.4707" y2="1121.4707"/><text fill="#000000" font-family="sans-serif" font-size="13" lengthAdjust="spacing" textLength="156.7935" x="893.4238" y="1116.6143">Retrieve matching contacts</text></g><g class="message" data-participant-1="db" data-participant-2="userService"><polygon fill="#181818" points="892.4238,1147.8223,882.4238,1151.8223,892.4238,1155.8223,888.4238,1151.8223" style="stroke:#181818;stroke-width:1;"/><line style="stroke:#181818;stroke-width:1;stroke-dasharray:2.0,2.0;" x1="886.4238" x2="1061.2173" y1="1151.8223" y2="1151.8223"/><text fill="#000000" font-family="sans-serif" font-size="13" lengthAdjust="spacing" textLength="58.519" x="942.561" y="1146.9658">No results</text></g><g class="message" data-participant-1="userService" data-participant-2="searchService"><polygon fill="#181818" points="638.415,1178.1738,628.415,1182.1738,638.415,1186.1738,634.415,1182.1738" style="stroke:#181818;stroke-width:1;"/><line style="stroke:#181818;stroke-width:1;stroke-dasharray:2.0,2.0;" x1="632.415" x2="880.4238" y1="1182.1738" y2="1182.1738"/><text fill="#000000" font-family="sans-serif" font-size="13" lengthAdjust="spacing" textLength="58.519" x="725.1599" y="1177.3174">No results</text></g><g class="message" data-participant-1="searchService" data-participant-2="searchService"><line style="stroke:#181818;stroke-width:1;" x1="627.415" x2="669.415" y1="1212.5254" y2="1212.5254"/><line style="stroke:#181818;stroke-width:1;" x1="669.415" x2="669.415" y1="1212.5254" y2="1225.5254"/><line style="stroke:#181818;stroke-width:1;" x1="628.415" x2="669.415" y1="1225.5254" y2="1225.5254"/><polygon fill="#181818" points="638.415,1221.5254,628.415,1225.5254,638.415,1229.5254,634.415,1225.5254" style="stroke:#181818;stroke-width:1;"/><text fill="#000000" font-family="sans-serif" font-size="13" lengthAdjust="spacing" textLength="127.1943" x="634.415" y="1207.6689">Generate suggestions</text></g><g class="message" data-participant-1="searchService" data-participant-2="gateway"><polygon fill="#181818" points="415.7017,1251.877,405.7017,1255.877,415.7017,1259.877,411.7017,1255.877" style="stroke:#181818;stroke-width:1;"/><line style="stroke:#181818;stroke-width:1;" x1="409.7017" x2="626.415" y1="1255.877" y2="1255.877"/><text fill="#000000" font-family="sans-serif" font-size="13" lengthAdjust="spacing" textLength="198.7134" x="416.7017" y="1251.0205">Return no results with suggestions</text></g><g class="message" data-participant-1="gateway" data-participant-2="app"><polygon fill="#181818" points="247.8154,1282.2285,237.8154,1286.2285,247.8154,1290.2285,243.8154,1286.2285" style="stroke:#181818;stroke-width:1;"/><line style="stroke:#181818;stroke-width:1;" x1="241.8154" x2="403.7017" y1="1286.2285" y2="1286.2285"/><text fill="#000000" font-family="sans-serif" font-size="13" lengthAdjust="spacing" textLength="104.7681" x="268.3745" y="1281.3721">Forward response</text></g><g class="message" data-participant-1="app" data-participant-2="user"><polygon fill="#181818" points="33.7793,1328.9316,23.7793,1332.9316,33.7793,1336.9316,29.7793,1332.9316" style="stroke:#181818;stroke-width:1;"/><line style="stroke:#181818;stroke-width:1;" x1="27.7793" x2="235.8154" y1="1332.9316" y2="1332.9316"/><text fill="#000000" font-family="sans-serif" font-size="13" lengthAdjust="spacing" textLength="150.1284" x="54.7332" y="1311.7236">Display "No results found"</text><text fill="#000000" font-family="sans-serif" font-size="13" lengthAdjust="spacing" textLength="190.0361" x="34.7793" y="1328.0752">Suggest alternative search terms</text></g><!--SRC=[xLKzRzim4DtvAmxQlHJe8i053AS9EgH8wwPJbnDraGdBb4gUuhg_laTzqtAIJfsw4RhtZk_UFTh-O6oD3e_WwMT3LjCzUOy5RKfJMD1acPpo8of3VIXSrTXyMvMLWzFUCCtgUxJvoHbcil24fIUbs719a3nkL-_Ufx0ZT7gVA8MQXPyyUd89e8T63agQiD6cHikGt0g_Ui0pREgwXM1TnuZDmoUuGwOJdbj0qPrZK7VZ3xiZzsmqjK3VVkk_nF1l3gqNSQQoCOT_sQk4C46C3ACCq1mPC_HYm4r_QY5vfjHw3VTeBEmQhSLqs8dRw4m5wxLIeGUiFeIPK_WOjj2B1ZaUbNmUgz-nD78D3G3PHSC3ehSa66_p0U72hZshlXXmaICft5RkX6v1K14iy2PNKlZIa3i3JmPwDPK3ECzI-4hi33qJ797rtjWY9kGPh2xQpZOYGdnJSjntgVuQOobzjgP1kwui2y-hMUrbuIEw5nqrt7R5yVweurBo9NmfzuAmAGf7OO4WJmvauCF8NL374CWCZRFJLZlyB0Pje1RBxs3pp0b4R1XAa8brqgIet7c0XNbJk36-Bd6icj-KJoFA0zYK4cUBRCJN8VyfVAv4QTVvDlpM_7yHSLlnv-yUmWpuh_C_k_gDwBygyW9xHvPSkzccACJ_rg4tysx76-1aU1-HNmg_46gfq_Ky9vDeU0eHJUGleEiAEClqBA5U_G40]--></g></svg>