<svg xmlns="http://www.w3.org/2000/svg" xmlns:xlink="http://www.w3.org/1999/xlink" contentStyleType="text/css" data-diagram-type="SEQUENCE" height="605px" preserveAspectRatio="none" style="width:894px;height:605px;background:#FFFFFF;" version="1.1" viewBox="0 0 894 605" width="894px" zoomAndPan="magnify"><title>UC-3: Check Balance</title><defs/><g><text fill="#000000" font-family="sans-serif" font-size="14" font-weight="bold" lengthAdjust="spacing" textLength="140.8271" x="375.7751" y="29.5332">UC-3: Check Balance</text><g><title>FalsoPay App</title><rect fill="#FFFFFF" height="344.7031" style="stroke:#181818;stroke-width:1;" width="10" x="321.5654" y="153.5703"/></g><g><title>API Gateway</title><rect fill="#FFFFFF" height="284" style="stroke:#181818;stroke-width:1;" width="10" x="506.6543" y="183.9219"/></g><g><title>Account Service</title><rect fill="#FFFFFF" height="223.2969" style="stroke:#181818;stroke-width:1;" width="10" x="683.7178" y="214.2734"/></g><g><title>Database</title><rect fill="#FFFFFF" height="30.3516" style="stroke:#181818;stroke-width:1;" width="10" x="846.4121" y="244.625"/></g><rect fill="none" height="216.2969" style="stroke:#000000;stroke-width:1.5;" width="746.2969" x="10" y="289.9766"/><g><title>Registered User</title><rect fill="#000000" fill-opacity="0.00000" height="402.0547" width="8" x="69.5757" y="121.2188"/><line style="stroke:#181818;stroke-width:0.5;stroke-dasharray:5.0,5.0;" x1="73" x2="73" y1="121.2188" y2="523.2734"/></g><g><title>FalsoPay App</title><rect fill="#000000" fill-opacity="0.00000" height="402.0547" width="8" x="322.5654" y="121.2188"/><line style="stroke:#181818;stroke-width:0.5;stroke-dasharray:5.0,5.0;" x1="325.9863" x2="325.9863" y1="121.2188" y2="523.2734"/></g><g><title>API Gateway</title><rect fill="#000000" fill-opacity="0.00000" height="402.0547" width="8" x="507.6543" y="121.2188"/><line style="stroke:#181818;stroke-width:0.5;stroke-dasharray:5.0,5.0;" x1="510.8027" x2="510.8027" y1="121.2188" y2="523.2734"/></g><g><title>Account Service</title><rect fill="#000000" fill-opacity="0.00000" height="402.0547" width="8" x="684.7178" y="121.2188"/><line style="stroke:#181818;stroke-width:0.5;stroke-dasharray:5.0,5.0;" x1="688.1387" x2="688.1387" y1="121.2188" y2="523.2734"/></g><g><title>Database</title><rect fill="#000000" fill-opacity="0.00000" height="402.0547" width="8" x="847.4121" y="121.2188"/><line style="stroke:#181818;stroke-width:0.5;stroke-dasharray:5.0,5.0;" x1="850.4468" x2="850.4468" y1="121.2188" y2="523.2734"/></g><g class="participant participant-head" data-participant="User"><text fill="#000000" font-family="sans-serif" font-size="14" lengthAdjust="spacing" textLength="101.1514" x="20" y="118.1426">Registered User</text><ellipse cx="73.5757" cy="52.1094" fill="#E2E2F0" rx="8" ry="8" style="stroke:#181818;stroke-width:0.5;"/><path d="M73.5757,60.1094 L73.5757,87.1094 M60.5757,68.1094 L86.5757,68.1094 M73.5757,87.1094 L60.5757,102.1094 M73.5757,87.1094 L86.5757,102.1094" fill="none" style="stroke:#181818;stroke-width:0.5;"/></g><g class="participant participant-tail" data-participant="User"><text fill="#000000" font-family="sans-serif" font-size="14" lengthAdjust="spacing" textLength="101.1514" x="20" y="536.8066">Registered User</text><ellipse cx="73.5757" cy="548.3828" fill="#E2E2F0" rx="8" ry="8" style="stroke:#181818;stroke-width:0.5;"/><path d="M73.5757,556.3828 L73.5757,583.3828 M60.5757,564.3828 L86.5757,564.3828 M73.5757,583.3828 L60.5757,598.3828 M73.5757,583.3828 L86.5757,598.3828" fill="none" style="stroke:#181818;stroke-width:0.5;"/></g><g class="participant participant-head" data-participant="App"><rect fill="#E2E2F0" height="31.6094" rx="2.5" ry="2.5" style="stroke:#181818;stroke-width:0.5;" width="101.1582" x="275.9863" y="88.6094"/><text fill="#000000" font-family="sans-serif" font-size="14" lengthAdjust="spacing" textLength="87.1582" x="282.9863" y="110.1426">FalsoPay App</text></g><g class="participant participant-tail" data-participant="App"><rect fill="#E2E2F0" height="31.6094" rx="2.5" ry="2.5" style="stroke:#181818;stroke-width:0.5;" width="101.1582" x="275.9863" y="522.2734"/><text fill="#000000" font-family="sans-serif" font-size="14" lengthAdjust="spacing" textLength="87.1582" x="282.9863" y="543.8066">FalsoPay App</text></g><g class="participant participant-head" data-participant="Gateway"><rect fill="#E2E2F0" height="31.6094" rx="2.5" ry="2.5" style="stroke:#181818;stroke-width:0.5;" width="95.7031" x="463.8027" y="88.6094"/><text fill="#000000" font-family="sans-serif" font-size="14" lengthAdjust="spacing" textLength="81.7031" x="470.8027" y="110.1426">API Gateway</text></g><g class="participant participant-tail" data-participant="Gateway"><rect fill="#E2E2F0" height="31.6094" rx="2.5" ry="2.5" style="stroke:#181818;stroke-width:0.5;" width="95.7031" x="463.8027" y="522.2734"/><text fill="#000000" font-family="sans-serif" font-size="14" lengthAdjust="spacing" textLength="81.7031" x="470.8027" y="543.8066">API Gateway</text></g><g class="participant participant-head" data-participant="AccountService"><rect fill="#E2E2F0" height="31.6094" rx="2.5" ry="2.5" style="stroke:#181818;stroke-width:0.5;" width="115.1582" x="631.1387" y="88.6094"/><text fill="#000000" font-family="sans-serif" font-size="14" lengthAdjust="spacing" textLength="101.1582" x="638.1387" y="110.1426">Account Service</text></g><g class="participant participant-tail" data-participant="AccountService"><rect fill="#E2E2F0" height="31.6094" rx="2.5" ry="2.5" style="stroke:#181818;stroke-width:0.5;" width="115.1582" x="631.1387" y="522.2734"/><text fill="#000000" font-family="sans-serif" font-size="14" lengthAdjust="spacing" textLength="101.1582" x="638.1387" y="543.8066">Account Service</text></g><g class="participant participant-head" data-participant="DB"><rect fill="#E2E2F0" height="31.6094" rx="2.5" ry="2.5" style="stroke:#181818;stroke-width:0.5;" width="73.9307" x="814.4468" y="88.6094"/><text fill="#000000" font-family="sans-serif" font-size="14" lengthAdjust="spacing" textLength="59.9307" x="821.4468" y="110.1426">Database</text></g><g class="participant participant-tail" data-participant="DB"><rect fill="#E2E2F0" height="31.6094" rx="2.5" ry="2.5" style="stroke:#181818;stroke-width:0.5;" width="73.9307" x="814.4468" y="522.2734"/><text fill="#000000" font-family="sans-serif" font-size="14" lengthAdjust="spacing" textLength="59.9307" x="821.4468" y="543.8066">Database</text></g><g><title>FalsoPay App</title><rect fill="#FFFFFF" height="344.7031" style="stroke:#181818;stroke-width:1;" width="10" x="321.5654" y="153.5703"/></g><g><title>API Gateway</title><rect fill="#FFFFFF" height="284" style="stroke:#181818;stroke-width:1;" width="10" x="506.6543" y="183.9219"/></g><g><title>Account Service</title><rect fill="#FFFFFF" height="223.2969" style="stroke:#181818;stroke-width:1;" width="10" x="683.7178" y="214.2734"/></g><g><title>Database</title><rect fill="#FFFFFF" height="30.3516" style="stroke:#181818;stroke-width:1;" width="10" x="846.4121" y="244.625"/></g><g class="message" data-participant-1="User" data-participant-2="App"><polygon fill="#181818" points="309.5654,149.5703,319.5654,153.5703,309.5654,157.5703,313.5654,153.5703" style="stroke:#181818;stroke-width:1;"/><line style="stroke:#181818;stroke-width:1;" x1="73.5757" x2="315.5654" y1="153.5703" y2="153.5703"/><text fill="#000000" font-family="sans-serif" font-size="13" lengthAdjust="spacing" textLength="141.6416" x="80.5757" y="148.7139">Request to view balance</text></g><g class="message" data-participant-1="App" data-participant-2="Gateway"><polygon fill="#181818" points="494.6543,179.9219,504.6543,183.9219,494.6543,187.9219,498.6543,183.9219" style="stroke:#181818;stroke-width:1;"/><line style="stroke:#181818;stroke-width:1;" x1="331.5654" x2="500.6543" y1="183.9219" y2="183.9219"/><text fill="#000000" font-family="sans-serif" font-size="13" lengthAdjust="spacing" textLength="156.0889" x="338.5654" y="179.0654">GET /api/accounts/balance</text></g><g class="message" data-participant-1="Gateway" data-participant-2="AccountService"><polygon fill="#181818" points="671.7178,210.2734,681.7178,214.2734,671.7178,218.2734,675.7178,214.2734" style="stroke:#181818;stroke-width:1;"/><line style="stroke:#181818;stroke-width:1;" x1="516.6543" x2="677.7178" y1="214.2734" y2="214.2734"/><text fill="#000000" font-family="sans-serif" font-size="13" lengthAdjust="spacing" textLength="97.5571" x="523.6543" y="209.417">Retrieve balance</text></g><g class="message" data-participant-1="AccountService" data-participant-2="DB"><polygon fill="#181818" points="834.4121,240.625,844.4121,244.625,834.4121,248.625,838.4121,244.625" style="stroke:#181818;stroke-width:1;"/><line style="stroke:#181818;stroke-width:1;" x1="693.7178" x2="840.4121" y1="244.625" y2="244.625"/><text fill="#000000" font-family="sans-serif" font-size="13" lengthAdjust="spacing" textLength="133.6943" x="700.7178" y="239.7686">Query account balance</text></g><g class="message" data-participant-1="DB" data-participant-2="AccountService"><polygon fill="#181818" points="704.7178,270.9766,694.7178,274.9766,704.7178,278.9766,700.7178,274.9766" style="stroke:#181818;stroke-width:1;"/><line style="stroke:#181818;stroke-width:1;stroke-dasharray:2.0,2.0;" x1="698.7178" x2="850.4121" y1="274.9766" y2="274.9766"/><text fill="#000000" font-family="sans-serif" font-size="13" lengthAdjust="spacing" textLength="75.8926" x="710.7178" y="270.1201">Balance data</text></g><path d="M10,289.9766 L70.1709,289.9766 L70.1709,298.3281 L60.1709,308.3281 L10,308.3281 L10,289.9766" fill="#EEEEEE" style="stroke:#000000;stroke-width:1.5;"/><rect fill="none" height="216.2969" style="stroke:#000000;stroke-width:1.5;" width="746.2969" x="10" y="289.9766"/><text fill="#000000" font-family="sans-serif" font-size="13" font-weight="bold" lengthAdjust="spacing" textLength="15.1709" x="25" y="304.4717">alt</text><text fill="#000000" font-family="sans-serif" font-size="11" font-weight="bold" lengthAdjust="spacing" textLength="96.5562" x="85.1709" y="303.3955">[Connection error]</text><g class="message" data-participant-1="AccountService" data-participant-2="Gateway"><polygon fill="#181818" points="527.6543,326.6797,517.6543,330.6797,527.6543,334.6797,523.6543,330.6797" style="stroke:#181818;stroke-width:1;"/><line style="stroke:#181818;stroke-width:1;stroke-dasharray:2.0,2.0;" x1="521.6543" x2="682.7178" y1="330.6797" y2="330.6797"/><text fill="#000000" font-family="sans-serif" font-size="13" lengthAdjust="spacing" textLength="143.0635" x="533.6543" y="325.8232">500 Internal Server Error</text></g><g class="message" data-participant-1="Gateway" data-participant-2="App"><polygon fill="#181818" points="342.5654,357.0313,332.5654,361.0313,342.5654,365.0313,338.5654,361.0313" style="stroke:#181818;stroke-width:1;"/><line style="stroke:#181818;stroke-width:1;stroke-dasharray:2.0,2.0;" x1="336.5654" x2="505.6543" y1="361.0313" y2="361.0313"/><text fill="#000000" font-family="sans-serif" font-size="13" lengthAdjust="spacing" textLength="143.0635" x="348.5654" y="356.1748">500 Internal Server Error</text></g><g class="message" data-participant-1="App" data-participant-2="User"><polygon fill="#181818" points="84.5757,387.3828,74.5757,391.3828,84.5757,395.3828,80.5757,391.3828" style="stroke:#181818;stroke-width:1;"/><line style="stroke:#181818;stroke-width:1;stroke-dasharray:2.0,2.0;" x1="78.5757" x2="320.5654" y1="391.3828" y2="391.3828"/><text fill="#000000" font-family="sans-serif" font-size="13" lengthAdjust="spacing" textLength="223.9897" x="90.5757" y="386.5264">Display error message and retry option</text></g><line style="stroke:#000000;stroke-width:1;stroke-dasharray:2.0,2.0;" x1="10" x2="756.2969" y1="400.3828" y2="400.3828"/><text fill="#000000" font-family="sans-serif" font-size="11" font-weight="bold" lengthAdjust="spacing" textLength="51.9707" x="15" y="411.8018">[Success]</text><g class="message" data-participant-1="AccountService" data-participant-2="Gateway"><polygon fill="#181818" points="527.6543,433.5703,517.6543,437.5703,527.6543,441.5703,523.6543,437.5703" style="stroke:#181818;stroke-width:1;"/><line style="stroke:#181818;stroke-width:1;stroke-dasharray:2.0,2.0;" x1="521.6543" x2="687.7178" y1="437.5703" y2="437.5703"/><text fill="#000000" font-family="sans-serif" font-size="13" lengthAdjust="spacing" textLength="114.8989" x="533.6543" y="432.7139">Balance information</text></g><g class="message" data-participant-1="Gateway" data-participant-2="App"><polygon fill="#181818" points="342.5654,463.9219,332.5654,467.9219,342.5654,471.9219,338.5654,467.9219" style="stroke:#181818;stroke-width:1;"/><line style="stroke:#181818;stroke-width:1;stroke-dasharray:2.0,2.0;" x1="336.5654" x2="510.6543" y1="467.9219" y2="467.9219"/><text fill="#000000" font-family="sans-serif" font-size="13" lengthAdjust="spacing" textLength="148.8779" x="348.5654" y="463.0654">200 OK with balance data</text></g><g class="message" data-participant-1="App" data-participant-2="User"><polygon fill="#181818" points="84.5757,494.2734,74.5757,498.2734,84.5757,502.2734,80.5757,498.2734" style="stroke:#181818;stroke-width:1;"/><line style="stroke:#181818;stroke-width:1;stroke-dasharray:2.0,2.0;" x1="78.5757" x2="325.5654" y1="498.2734" y2="498.2734"/><text fill="#000000" font-family="sans-serif" font-size="13" lengthAdjust="spacing" textLength="135.8462" x="90.5757" y="493.417">Display current balance</text></g><!--SRC=[XL91Ri8m4Bpx5Ilk2DIgbnmg4K8Hwg4KoWCMPmjMWvtQ3YY_xzf944bHoo5id9dTcLcZzCR2Q4C7vJnPoc7do8u0NIn4YTOhgKhK7aOlM3YpnXfcPHaX_Dz7pDOhMAAd2zOHqDO3a9Icuc9BzgmaDPsQi_QeZy_GunvT0ynI8Rpo1S5kFdvCO7ua-GKf5gYP9u9e63y7PGbiwBiYvy4RE2kwmBv5eVJgpCgYVi6Fm6Yb9h1SVC04IpN1HfER_E9rjaHRn8az1s6ujuhET6TgtwleluTUMPh0UqMsXbR3xoQSGvR2-CxWDWl8EJQHqor3OE5XRhGcFZGQo5fZ1V1lgE4saAVf55QQRuV68YwD8rvScTS8kjJ_XiUq6HeMbK2cN5amEGg14pc71mBKELYEhmPJ1fs22aUmhQHamBzoE_zAVnfxmjWWS6wY66mWVBtlvO6zlBt2HVbZju8crq73xa9SEzstAIjhwMQRGrby7KdduWS0]--></g></svg>