<svg xmlns="http://www.w3.org/2000/svg" xmlns:xlink="http://www.w3.org/1999/xlink" contentStyleType="text/css" data-diagram-type="SEQUENCE" height="2056px" preserveAspectRatio="none" style="width:983px;height:2056px;background:#FFFFFF;" version="1.1" viewBox="0 0 983 2056" width="983px" zoomAndPan="magnify"><title>UC-32: Authorize Real-Time Transactions</title><defs/><g><rect fill="#FFFFCC" height="28.0566" rx="2.5" ry="2.5" style="stroke:#FFDD88;stroke-width:3;" width="972.5488" x="5" y="5"/><text fill="#000000" font-family="monospace" font-size="10" lengthAdjust="spacing" textLength="354.0576" x="10" y="20">Please&#160;use&#160;'!option&#160;handwritten&#160;true'&#160;to&#160;enable&#160;handwritten</text><text fill="#000000" font-family="sans-serif" font-size="14" font-weight="bold" lengthAdjust="spacing" textLength="275.3857" x="342.5815" y="67.5898">UC-32: Authorize Real-Time Transactions</text><g><title>API Gateway</title><rect fill="#000000" fill-opacity="0.00000" height="1831.6328" width="8" x="94.8516" y="145.2754"/><line style="stroke:#181818;stroke-width:0.5;stroke-dasharray:5.0,5.0;" x1="98" x2="98" y1="145.2754" y2="1976.9082"/></g><g><title>Transaction</title><rect fill="#000000" fill-opacity="0.00000" height="1831.6328" width="8" x="362.3667" y="145.2754"/><line style="stroke:#181818;stroke-width:0.5;stroke-dasharray:5.0,5.0;" x1="365.7944" x2="365.7944" y1="145.2754" y2="1976.9082"/></g><g><title>Account</title><rect fill="#000000" fill-opacity="0.00000" height="1831.6328" width="8" x="535.9429" y="145.2754"/><line style="stroke:#181818;stroke-width:0.5;stroke-dasharray:5.0,5.0;" x1="539.6499" x2="539.6499" y1="145.2754" y2="1976.9082"/></g><g><title>Security</title><rect fill="#000000" fill-opacity="0.00000" height="1831.6328" width="8" x="610.522" y="145.2754"/><line style="stroke:#181818;stroke-width:0.5;stroke-dasharray:5.0,5.0;" x1="614.2358" x2="614.2358" y1="145.2754" y2="1976.9082"/></g><g><title>Fraud Detection</title><rect fill="#000000" fill-opacity="0.00000" height="1831.6328" width="8" x="741.5474" y="145.2754"/><line style="stroke:#181818;stroke-width:0.5;stroke-dasharray:5.0,5.0;" x1="744.7441" x2="744.7441" y1="145.2754" y2="1976.9082"/></g><g><title>Database</title><rect fill="#000000" fill-opacity="0.00000" height="1831.6328" width="8" x="919.5835" y="145.2754"/><line style="stroke:#181818;stroke-width:0.5;stroke-dasharray:5.0,5.0;" x1="922.6182" x2="922.6182" y1="145.2754" y2="1976.9082"/></g><g class="participant participant-head" data-participant="gateway"><rect fill="#E2E2F0" height="31.6094" rx="2.5" ry="2.5" style="stroke:#181818;stroke-width:0.5;" width="95.7031" x="51" y="112.666"/><text fill="#000000" font-family="sans-serif" font-size="14" lengthAdjust="spacing" textLength="81.7031" x="58" y="134.1992">API Gateway</text></g><g class="participant participant-tail" data-participant="gateway"><rect fill="#E2E2F0" height="31.6094" rx="2.5" ry="2.5" style="stroke:#181818;stroke-width:0.5;" width="95.7031" x="51" y="1975.9082"/><text fill="#000000" font-family="sans-serif" font-size="14" lengthAdjust="spacing" textLength="81.7031" x="58" y="1997.4414">API Gateway</text></g><g class="participant participant-head" data-participant="txnService"><rect fill="#E2E2F0" height="49.2188" rx="2.5" ry="2.5" style="stroke:#181818;stroke-width:0.5;" width="87.1445" x="322.7944" y="95.0566"/><text fill="#000000" font-family="sans-serif" font-size="14" lengthAdjust="spacing" textLength="73.1445" x="329.7944" y="116.5898">Transaction</text><text fill="#000000" font-family="sans-serif" font-size="14" lengthAdjust="spacing" textLength="46.6826" x="343.0254" y="134.1992">Service</text></g><g class="participant participant-tail" data-participant="txnService"><rect fill="#E2E2F0" height="49.2188" rx="2.5" ry="2.5" style="stroke:#181818;stroke-width:0.5;" width="87.1445" x="322.7944" y="1975.9082"/><text fill="#000000" font-family="sans-serif" font-size="14" lengthAdjust="spacing" textLength="73.1445" x="329.7944" y="1997.4414">Transaction</text><text fill="#000000" font-family="sans-serif" font-size="14" lengthAdjust="spacing" textLength="46.6826" x="343.0254" y="2015.0508">Service</text></g><g class="participant participant-head" data-participant="accountService"><rect fill="#E2E2F0" height="49.2188" rx="2.5" ry="2.5" style="stroke:#181818;stroke-width:0.5;" width="64.5859" x="507.6499" y="95.0566"/><text fill="#000000" font-family="sans-serif" font-size="14" lengthAdjust="spacing" textLength="50.5859" x="514.6499" y="116.5898">Account</text><text fill="#000000" font-family="sans-serif" font-size="14" lengthAdjust="spacing" textLength="46.6826" x="516.6016" y="134.1992">Service</text></g><g class="participant participant-tail" data-participant="accountService"><rect fill="#E2E2F0" height="49.2188" rx="2.5" ry="2.5" style="stroke:#181818;stroke-width:0.5;" width="64.5859" x="507.6499" y="1975.9082"/><text fill="#000000" font-family="sans-serif" font-size="14" lengthAdjust="spacing" textLength="50.5859" x="514.6499" y="1997.4414">Account</text><text fill="#000000" font-family="sans-serif" font-size="14" lengthAdjust="spacing" textLength="46.6826" x="516.6016" y="2015.0508">Service</text></g><g class="participant participant-head" data-participant="securityService"><rect fill="#E2E2F0" height="49.2188" rx="2.5" ry="2.5" style="stroke:#181818;stroke-width:0.5;" width="64.5723" x="582.2358" y="95.0566"/><text fill="#000000" font-family="sans-serif" font-size="14" lengthAdjust="spacing" textLength="50.5723" x="589.2358" y="116.5898">Security</text><text fill="#000000" font-family="sans-serif" font-size="14" lengthAdjust="spacing" textLength="46.6826" x="591.1807" y="134.1992">Service</text></g><g class="participant participant-tail" data-participant="securityService"><rect fill="#E2E2F0" height="49.2188" rx="2.5" ry="2.5" style="stroke:#181818;stroke-width:0.5;" width="64.5723" x="582.2358" y="1975.9082"/><text fill="#000000" font-family="sans-serif" font-size="14" lengthAdjust="spacing" textLength="50.5723" x="589.2358" y="1997.4414">Security</text><text fill="#000000" font-family="sans-serif" font-size="14" lengthAdjust="spacing" textLength="46.6826" x="591.1807" y="2015.0508">Service</text></g><g class="participant participant-head" data-participant="fraudService"><rect fill="#E2E2F0" height="49.2188" rx="2.5" ry="2.5" style="stroke:#181818;stroke-width:0.5;" width="113.6064" x="688.7441" y="95.0566"/><text fill="#000000" font-family="sans-serif" font-size="14" lengthAdjust="spacing" textLength="99.6064" x="695.7441" y="116.5898">Fraud Detection</text><text fill="#000000" font-family="sans-serif" font-size="14" lengthAdjust="spacing" textLength="46.6826" x="722.2061" y="134.1992">Service</text></g><g class="participant participant-tail" data-participant="fraudService"><rect fill="#E2E2F0" height="49.2188" rx="2.5" ry="2.5" style="stroke:#181818;stroke-width:0.5;" width="113.6064" x="688.7441" y="1975.9082"/><text fill="#000000" font-family="sans-serif" font-size="14" lengthAdjust="spacing" textLength="99.6064" x="695.7441" y="1997.4414">Fraud Detection</text><text fill="#000000" font-family="sans-serif" font-size="14" lengthAdjust="spacing" textLength="46.6826" x="722.2061" y="2015.0508">Service</text></g><g class="participant participant-head" data-participant="db"><text fill="#000000" font-family="sans-serif" font-size="14" lengthAdjust="spacing" textLength="59.9307" x="890.6182" y="142.1992">Database</text><path d="M905.5835,91.666 C905.5835,81.666 923.5835,81.666 923.5835,81.666 C923.5835,81.666 941.5835,81.666 941.5835,91.666 L941.5835,117.666 C941.5835,127.666 923.5835,127.666 923.5835,127.666 C923.5835,127.666 905.5835,127.666 905.5835,117.666 L905.5835,91.666" fill="#E2E2F0" style="stroke:#181818;stroke-width:1.5;"/><path d="M905.5835,91.666 C905.5835,101.666 923.5835,101.666 923.5835,101.666 C923.5835,101.666 941.5835,101.666 941.5835,91.666" fill="none" style="stroke:#181818;stroke-width:1.5;"/></g><g class="participant participant-tail" data-participant="db"><text fill="#000000" font-family="sans-serif" font-size="14" lengthAdjust="spacing" textLength="59.9307" x="890.6182" y="1990.4414">Database</text><path d="M905.5835,2003.5176 C905.5835,1993.5176 923.5835,1993.5176 923.5835,1993.5176 C923.5835,1993.5176 941.5835,1993.5176 941.5835,2003.5176 L941.5835,2029.5176 C941.5835,2039.5176 923.5835,2039.5176 923.5835,2039.5176 C923.5835,2039.5176 905.5835,2039.5176 905.5835,2029.5176 L905.5835,2003.5176" fill="#E2E2F0" style="stroke:#181818;stroke-width:1.5;"/><path d="M905.5835,2003.5176 C905.5835,2013.5176 923.5835,2013.5176 923.5835,2013.5176 C923.5835,2013.5176 941.5835,2013.5176 941.5835,2003.5176" fill="none" style="stroke:#181818;stroke-width:1.5;"/></g><rect fill="#EEEEEE" height="3" style="stroke:#EEEEEE;stroke-width:1;" width="961.5488" x="0" y="176.4512"/><line style="stroke:#000000;stroke-width:1;" x1="0" x2="961.5488" y1="176.4512" y2="176.4512"/><line style="stroke:#000000;stroke-width:1;" x1="0" x2="961.5488" y1="179.4512" y2="179.4512"/><rect fill="#EEEEEE" height="24.3516" style="stroke:#000000;stroke-width:2;" width="162.1226" x="399.7131" y="165.2754"/><text fill="#000000" font-family="sans-serif" font-size="13" font-weight="bold" lengthAdjust="spacing" textLength="144.5107" x="405.7131" y="182.7705">Main Success Scenario</text><path d="M5,204.627 L5,230.627 L193,230.627 L193,214.627 L183,204.627 L5,204.627" fill="#FEFFDD" style="stroke:#181818;stroke-width:0.5;"/><path d="M183,204.627 L183,214.627 L193,214.627 L183,204.627" fill="#FEFFDD" style="stroke:#181818;stroke-width:0.5;"/><text fill="#000000" font-family="sans-serif" font-size="13" lengthAdjust="spacing" textLength="167.6416" x="11" y="223.1221">Transaction request received</text><g class="message" data-participant-1="gateway" data-participant-2="txnService"><polygon fill="#181818" points="354.3667,254.3301,364.3667,258.3301,354.3667,262.3301,358.3667,258.3301" style="stroke:#181818;stroke-width:1;"/><line style="stroke:#181818;stroke-width:1;" x1="98.8516" x2="360.3667" y1="258.3301" y2="258.3301"/><text fill="#000000" font-family="sans-serif" font-size="13" lengthAdjust="spacing" textLength="161.8525" x="151.6829" y="253.4736">Forward transaction request</text></g><g class="message" data-participant-1="txnService" data-participant-2="txnService"><line style="stroke:#181818;stroke-width:1;" x1="366.3667" x2="408.3667" y1="288.6816" y2="288.6816"/><line style="stroke:#181818;stroke-width:1;" x1="408.3667" x2="408.3667" y1="288.6816" y2="301.6816"/><line style="stroke:#181818;stroke-width:1;" x1="367.3667" x2="408.3667" y1="301.6816" y2="301.6816"/><polygon fill="#181818" points="377.3667,297.6816,367.3667,301.6816,377.3667,305.6816,373.3667,301.6816" style="stroke:#181818;stroke-width:1;"/><text fill="#000000" font-family="sans-serif" font-size="13" lengthAdjust="spacing" textLength="155.3716" x="373.3667" y="283.8252">Validate transaction details</text></g><g class="message" data-participant-1="txnService" data-participant-2="accountService"><polygon fill="#181818" points="527.9429,328.0332,537.9429,332.0332,527.9429,336.0332,531.9429,332.0332" style="stroke:#181818;stroke-width:1;"/><line style="stroke:#181818;stroke-width:1;" x1="366.3667" x2="533.9429" y1="332.0332" y2="332.0332"/><text fill="#000000" font-family="sans-serif" font-size="13" lengthAdjust="spacing" textLength="127.1753" x="389.5671" y="327.1768">Check sufficient funds</text></g><g class="message" data-participant-1="accountService" data-participant-2="db"><polygon fill="#181818" points="911.5835,358.3848,921.5835,362.3848,911.5835,366.3848,915.5835,362.3848" style="stroke:#181818;stroke-width:1;"/><line style="stroke:#181818;stroke-width:1;" x1="539.9429" x2="917.5835" y1="362.3848" y2="362.3848"/><text fill="#000000" font-family="sans-serif" font-size="13" lengthAdjust="spacing" textLength="133.6943" x="664.916" y="357.5283">Query account balance</text></g><g class="message" data-participant-1="db" data-participant-2="accountService"><polygon fill="#181818" points="550.9429,388.7363,540.9429,392.7363,550.9429,396.7363,546.9429,392.7363" style="stroke:#181818;stroke-width:1;"/><line style="stroke:#181818;stroke-width:1;stroke-dasharray:2.0,2.0;" x1="544.9429" x2="922.5835" y1="392.7363" y2="392.7363"/><text fill="#000000" font-family="sans-serif" font-size="13" lengthAdjust="spacing" textLength="88.1689" x="687.6787" y="387.8799">Return balance</text></g><g class="message" data-participant-1="accountService" data-participant-2="txnService"><polygon fill="#181818" points="377.3667,419.0879,367.3667,423.0879,377.3667,427.0879,373.3667,423.0879" style="stroke:#181818;stroke-width:1;"/><line style="stroke:#181818;stroke-width:1;stroke-dasharray:2.0,2.0;" x1="371.3667" x2="538.9429" y1="423.0879" y2="423.0879"/><text fill="#000000" font-family="sans-serif" font-size="13" lengthAdjust="spacing" textLength="149.5762" x="378.3667" y="418.2314">Sufficient funds confirmed</text></g><g class="message" data-participant-1="txnService" data-participant-2="securityService"><polygon fill="#181818" points="602.522,449.4395,612.522,453.4395,602.522,457.4395,606.522,453.4395" style="stroke:#181818;stroke-width:1;"/><line style="stroke:#181818;stroke-width:1;" x1="366.3667" x2="608.522" y1="453.4395" y2="453.4395"/><text fill="#000000" font-family="sans-serif" font-size="13" lengthAdjust="spacing" textLength="133.6499" x="423.6194" y="448.583">Verify transaction limits</text></g><g class="message" data-participant-1="securityService" data-participant-2="db"><polygon fill="#181818" points="911.5835,479.791,921.5835,483.791,911.5835,487.791,915.5835,483.791" style="stroke:#181818;stroke-width:1;"/><line style="stroke:#181818;stroke-width:1;" x1="614.522" x2="917.5835" y1="483.791" y2="483.791"/><text fill="#000000" font-family="sans-serif" font-size="13" lengthAdjust="spacing" textLength="177.728" x="680.1887" y="478.9346">Retrieve user transaction limits</text></g><g class="message" data-participant-1="db" data-participant-2="securityService"><polygon fill="#181818" points="625.522,510.1426,615.522,514.1426,625.522,518.1426,621.522,514.1426" style="stroke:#181818;stroke-width:1;"/><line style="stroke:#181818;stroke-width:1;stroke-dasharray:2.0,2.0;" x1="619.522" x2="922.5835" y1="514.1426" y2="514.1426"/><text fill="#000000" font-family="sans-serif" font-size="13" lengthAdjust="spacing" textLength="101.1372" x="718.4841" y="509.2861">Transaction limits</text></g><g class="message" data-participant-1="securityService" data-participant-2="securityService"><line style="stroke:#181818;stroke-width:1;" x1="614.522" x2="656.522" y1="544.4941" y2="544.4941"/><line style="stroke:#181818;stroke-width:1;" x1="656.522" x2="656.522" y1="544.4941" y2="557.4941"/><line style="stroke:#181818;stroke-width:1;" x1="615.522" x2="656.522" y1="557.4941" y2="557.4941"/><polygon fill="#181818" points="625.522,553.4941,615.522,557.4941,625.522,561.4941,621.522,557.4941" style="stroke:#181818;stroke-width:1;"/><text fill="#000000" font-family="sans-serif" font-size="13" lengthAdjust="spacing" textLength="117.0254" x="621.522" y="539.6377">Check if within limits</text></g><g class="message" data-participant-1="securityService" data-participant-2="txnService"><polygon fill="#181818" points="377.3667,583.8457,367.3667,587.8457,377.3667,591.8457,373.3667,587.8457" style="stroke:#181818;stroke-width:1;"/><line style="stroke:#181818;stroke-width:1;stroke-dasharray:2.0,2.0;" x1="371.3667" x2="613.522" y1="587.8457" y2="587.8457"/><text fill="#000000" font-family="sans-serif" font-size="13" lengthAdjust="spacing" textLength="69.3354" x="455.7766" y="582.9893">Within limits</text></g><g class="message" data-participant-1="txnService" data-participant-2="fraudService"><polygon fill="#181818" points="733.5474,614.1973,743.5474,618.1973,733.5474,622.1973,737.5474,618.1973" style="stroke:#181818;stroke-width:1;"/><line style="stroke:#181818;stroke-width:1;" x1="366.3667" x2="739.5474" y1="618.1973" y2="618.1973"/><text fill="#000000" font-family="sans-serif" font-size="13" lengthAdjust="spacing" textLength="145.2217" x="483.3462" y="613.3408">Request risk assessment</text></g><g class="message" data-participant-1="fraudService" data-participant-2="fraudService"><line style="stroke:#181818;stroke-width:1;" x1="745.5474" x2="787.5474" y1="648.5488" y2="648.5488"/><line style="stroke:#181818;stroke-width:1;" x1="787.5474" x2="787.5474" y1="648.5488" y2="661.5488"/><line style="stroke:#181818;stroke-width:1;" x1="746.5474" x2="787.5474" y1="661.5488" y2="661.5488"/><polygon fill="#181818" points="756.5474,657.5488,746.5474,661.5488,756.5474,665.5488,752.5474,661.5488" style="stroke:#181818;stroke-width:1;"/><text fill="#000000" font-family="sans-serif" font-size="13" lengthAdjust="spacing" textLength="164.0361" x="752.5474" y="643.6924">Analyze transaction patterns</text></g><g class="message" data-participant-1="fraudService" data-participant-2="db"><polygon fill="#181818" points="911.5835,687.9004,921.5835,691.9004,911.5835,695.9004,915.5835,691.9004" style="stroke:#181818;stroke-width:1;"/><line style="stroke:#181818;stroke-width:1;" x1="745.5474" x2="917.5835" y1="691.9004" y2="691.9004"/><text fill="#000000" font-family="sans-serif" font-size="13" lengthAdjust="spacing" textLength="145.9517" x="761.5896" y="687.0439">Check transaction history</text></g><g class="message" data-participant-1="db" data-participant-2="fraudService"><polygon fill="#181818" points="756.5474,718.252,746.5474,722.252,756.5474,726.252,752.5474,722.252" style="stroke:#181818;stroke-width:1;"/><line style="stroke:#181818;stroke-width:1;stroke-dasharray:2.0,2.0;" x1="750.5474" x2="922.5835" y1="722.252" y2="722.252"/><text fill="#000000" font-family="sans-serif" font-size="13" lengthAdjust="spacing" textLength="109.8208" x="779.655" y="717.3955">Transaction history</text></g><g class="message" data-participant-1="fraudService" data-participant-2="fraudService"><line style="stroke:#181818;stroke-width:1;" x1="745.5474" x2="787.5474" y1="752.6035" y2="752.6035"/><line style="stroke:#181818;stroke-width:1;" x1="787.5474" x2="787.5474" y1="752.6035" y2="765.6035"/><line style="stroke:#181818;stroke-width:1;" x1="746.5474" x2="787.5474" y1="765.6035" y2="765.6035"/><polygon fill="#181818" points="756.5474,761.6035,746.5474,765.6035,756.5474,769.6035,752.5474,765.6035" style="stroke:#181818;stroke-width:1;"/><text fill="#000000" font-family="sans-serif" font-size="13" lengthAdjust="spacing" textLength="109.8208" x="752.5474" y="747.7471">Evaluate risk score</text></g><g class="message" data-participant-1="fraudService" data-participant-2="txnService"><polygon fill="#181818" points="377.3667,791.9551,367.3667,795.9551,377.3667,799.9551,373.3667,795.9551" style="stroke:#181818;stroke-width:1;"/><line style="stroke:#181818;stroke-width:1;stroke-dasharray:2.0,2.0;" x1="371.3667" x2="744.5474" y1="795.9551" y2="795.9551"/><text fill="#000000" font-family="sans-serif" font-size="13" lengthAdjust="spacing" textLength="120.6499" x="495.6321" y="791.0986">Low risk assessment</text></g><g class="message" data-participant-1="txnService" data-participant-2="db"><polygon fill="#181818" points="911.5835,822.3066,921.5835,826.3066,911.5835,830.3066,915.5835,826.3066" style="stroke:#181818;stroke-width:1;"/><line style="stroke:#181818;stroke-width:1;" x1="366.3667" x2="917.5835" y1="826.3066" y2="826.3066"/><text fill="#000000" font-family="sans-serif" font-size="13" lengthAdjust="spacing" textLength="119.958" x="584.9961" y="821.4502">Record authorization</text></g><g class="message" data-participant-1="db" data-participant-2="txnService"><polygon fill="#181818" points="377.3667,852.6582,367.3667,856.6582,377.3667,860.6582,373.3667,856.6582" style="stroke:#181818;stroke-width:1;"/><line style="stroke:#181818;stroke-width:1;stroke-dasharray:2.0,2.0;" x1="371.3667" x2="922.5835" y1="856.6582" y2="856.6582"/><text fill="#000000" font-family="sans-serif" font-size="13" lengthAdjust="spacing" textLength="130.7998" x="579.5752" y="851.8018">Authorization recorded</text></g><g class="message" data-participant-1="txnService" data-participant-2="gateway"><polygon fill="#181818" points="109.8516,883.0098,99.8516,887.0098,109.8516,891.0098,105.8516,887.0098" style="stroke:#181818;stroke-width:1;"/><line style="stroke:#181818;stroke-width:1;" x1="103.8516" x2="365.3667" y1="887.0098" y2="887.0098"/><text fill="#000000" font-family="sans-serif" font-size="13" lengthAdjust="spacing" textLength="132.2407" x="166.4888" y="882.1533">Transaction authorized</text></g><rect fill="#EEEEEE" height="3" style="stroke:#EEEEEE;stroke-width:1;" width="961.5488" x="0" y="916.1855"/><line style="stroke:#000000;stroke-width:1;" x1="0" x2="961.5488" y1="916.1855" y2="916.1855"/><line style="stroke:#000000;stroke-width:1;" x1="0" x2="961.5488" y1="919.1855" y2="919.1855"/><rect fill="#EEEEEE" height="24.3516" style="stroke:#000000;stroke-width:2;" width="329.707" x="315.9209" y="905.0098"/><text fill="#000000" font-family="sans-serif" font-size="13" font-weight="bold" lengthAdjust="spacing" textLength="312.0952" x="321.9209" y="922.5049">Alternative Scenario: Suspicious Activity Detected</text><path d="M5,944.3613 L5,970.3613 L193,970.3613 L193,954.3613 L183,944.3613 L5,944.3613" fill="#FEFFDD" style="stroke:#181818;stroke-width:0.5;"/><path d="M183,944.3613 L183,954.3613 L193,954.3613 L183,944.3613" fill="#FEFFDD" style="stroke:#181818;stroke-width:0.5;"/><text fill="#000000" font-family="sans-serif" font-size="13" lengthAdjust="spacing" textLength="167.6416" x="11" y="962.8564">Transaction request received</text><g class="message" data-participant-1="gateway" data-participant-2="txnService"><polygon fill="#181818" points="354.3667,994.0645,364.3667,998.0645,354.3667,1002.0645,358.3667,998.0645" style="stroke:#181818;stroke-width:1;"/><line style="stroke:#181818;stroke-width:1;" x1="98.8516" x2="360.3667" y1="998.0645" y2="998.0645"/><text fill="#000000" font-family="sans-serif" font-size="13" lengthAdjust="spacing" textLength="161.8525" x="151.6829" y="993.208">Forward transaction request</text></g><g class="message" data-participant-1="txnService" data-participant-2="txnService"><line style="stroke:#181818;stroke-width:1;" x1="366.3667" x2="408.3667" y1="1028.416" y2="1028.416"/><line style="stroke:#181818;stroke-width:1;" x1="408.3667" x2="408.3667" y1="1028.416" y2="1041.416"/><line style="stroke:#181818;stroke-width:1;" x1="367.3667" x2="408.3667" y1="1041.416" y2="1041.416"/><polygon fill="#181818" points="377.3667,1037.416,367.3667,1041.416,377.3667,1045.416,373.3667,1041.416" style="stroke:#181818;stroke-width:1;"/><text fill="#000000" font-family="sans-serif" font-size="13" lengthAdjust="spacing" textLength="155.3716" x="373.3667" y="1023.5596">Validate transaction details</text></g><g class="message" data-participant-1="txnService" data-participant-2="accountService"><polygon fill="#181818" points="527.9429,1067.7676,537.9429,1071.7676,527.9429,1075.7676,531.9429,1071.7676" style="stroke:#181818;stroke-width:1;"/><line style="stroke:#181818;stroke-width:1;" x1="366.3667" x2="533.9429" y1="1071.7676" y2="1071.7676"/><text fill="#000000" font-family="sans-serif" font-size="13" lengthAdjust="spacing" textLength="127.1753" x="389.5671" y="1066.9111">Check sufficient funds</text></g><g class="message" data-participant-1="accountService" data-participant-2="db"><polygon fill="#181818" points="911.5835,1098.1191,921.5835,1102.1191,911.5835,1106.1191,915.5835,1102.1191" style="stroke:#181818;stroke-width:1;"/><line style="stroke:#181818;stroke-width:1;" x1="539.9429" x2="917.5835" y1="1102.1191" y2="1102.1191"/><text fill="#000000" font-family="sans-serif" font-size="13" lengthAdjust="spacing" textLength="133.6943" x="664.916" y="1097.2627">Query account balance</text></g><g class="message" data-participant-1="db" data-participant-2="accountService"><polygon fill="#181818" points="550.9429,1128.4707,540.9429,1132.4707,550.9429,1136.4707,546.9429,1132.4707" style="stroke:#181818;stroke-width:1;"/><line style="stroke:#181818;stroke-width:1;stroke-dasharray:2.0,2.0;" x1="544.9429" x2="922.5835" y1="1132.4707" y2="1132.4707"/><text fill="#000000" font-family="sans-serif" font-size="13" lengthAdjust="spacing" textLength="88.1689" x="687.6787" y="1127.6143">Return balance</text></g><g class="message" data-participant-1="accountService" data-participant-2="txnService"><polygon fill="#181818" points="377.3667,1158.8223,367.3667,1162.8223,377.3667,1166.8223,373.3667,1162.8223" style="stroke:#181818;stroke-width:1;"/><line style="stroke:#181818;stroke-width:1;stroke-dasharray:2.0,2.0;" x1="371.3667" x2="538.9429" y1="1162.8223" y2="1162.8223"/><text fill="#000000" font-family="sans-serif" font-size="13" lengthAdjust="spacing" textLength="149.5762" x="378.3667" y="1157.9658">Sufficient funds confirmed</text></g><g class="message" data-participant-1="txnService" data-participant-2="securityService"><polygon fill="#181818" points="602.522,1189.1738,612.522,1193.1738,602.522,1197.1738,606.522,1193.1738" style="stroke:#181818;stroke-width:1;"/><line style="stroke:#181818;stroke-width:1;" x1="366.3667" x2="608.522" y1="1193.1738" y2="1193.1738"/><text fill="#000000" font-family="sans-serif" font-size="13" lengthAdjust="spacing" textLength="133.6499" x="423.6194" y="1188.3174">Verify transaction limits</text></g><g class="message" data-participant-1="securityService" data-participant-2="db"><polygon fill="#181818" points="911.5835,1219.5254,921.5835,1223.5254,911.5835,1227.5254,915.5835,1223.5254" style="stroke:#181818;stroke-width:1;"/><line style="stroke:#181818;stroke-width:1;" x1="614.522" x2="917.5835" y1="1223.5254" y2="1223.5254"/><text fill="#000000" font-family="sans-serif" font-size="13" lengthAdjust="spacing" textLength="177.728" x="680.1887" y="1218.6689">Retrieve user transaction limits</text></g><g class="message" data-participant-1="db" data-participant-2="securityService"><polygon fill="#181818" points="625.522,1249.877,615.522,1253.877,625.522,1257.877,621.522,1253.877" style="stroke:#181818;stroke-width:1;"/><line style="stroke:#181818;stroke-width:1;stroke-dasharray:2.0,2.0;" x1="619.522" x2="922.5835" y1="1253.877" y2="1253.877"/><text fill="#000000" font-family="sans-serif" font-size="13" lengthAdjust="spacing" textLength="101.1372" x="718.4841" y="1249.0205">Transaction limits</text></g><g class="message" data-participant-1="securityService" data-participant-2="securityService"><line style="stroke:#181818;stroke-width:1;" x1="614.522" x2="656.522" y1="1284.2285" y2="1284.2285"/><line style="stroke:#181818;stroke-width:1;" x1="656.522" x2="656.522" y1="1284.2285" y2="1297.2285"/><line style="stroke:#181818;stroke-width:1;" x1="615.522" x2="656.522" y1="1297.2285" y2="1297.2285"/><polygon fill="#181818" points="625.522,1293.2285,615.522,1297.2285,625.522,1301.2285,621.522,1297.2285" style="stroke:#181818;stroke-width:1;"/><text fill="#000000" font-family="sans-serif" font-size="13" lengthAdjust="spacing" textLength="117.0254" x="621.522" y="1279.3721">Check if within limits</text></g><g class="message" data-participant-1="securityService" data-participant-2="txnService"><polygon fill="#181818" points="377.3667,1323.5801,367.3667,1327.5801,377.3667,1331.5801,373.3667,1327.5801" style="stroke:#181818;stroke-width:1;"/><line style="stroke:#181818;stroke-width:1;stroke-dasharray:2.0,2.0;" x1="371.3667" x2="613.522" y1="1327.5801" y2="1327.5801"/><text fill="#000000" font-family="sans-serif" font-size="13" lengthAdjust="spacing" textLength="69.3354" x="455.7766" y="1322.7236">Within limits</text></g><g class="message" data-participant-1="txnService" data-participant-2="fraudService"><polygon fill="#181818" points="733.5474,1353.9316,743.5474,1357.9316,733.5474,1361.9316,737.5474,1357.9316" style="stroke:#181818;stroke-width:1;"/><line style="stroke:#181818;stroke-width:1;" x1="366.3667" x2="739.5474" y1="1357.9316" y2="1357.9316"/><text fill="#000000" font-family="sans-serif" font-size="13" lengthAdjust="spacing" textLength="145.2217" x="483.3462" y="1353.0752">Request risk assessment</text></g><g class="message" data-participant-1="fraudService" data-participant-2="fraudService"><line style="stroke:#181818;stroke-width:1;" x1="745.5474" x2="787.5474" y1="1388.2832" y2="1388.2832"/><line style="stroke:#181818;stroke-width:1;" x1="787.5474" x2="787.5474" y1="1388.2832" y2="1401.2832"/><line style="stroke:#181818;stroke-width:1;" x1="746.5474" x2="787.5474" y1="1401.2832" y2="1401.2832"/><polygon fill="#181818" points="756.5474,1397.2832,746.5474,1401.2832,756.5474,1405.2832,752.5474,1401.2832" style="stroke:#181818;stroke-width:1;"/><text fill="#000000" font-family="sans-serif" font-size="13" lengthAdjust="spacing" textLength="164.0361" x="752.5474" y="1383.4268">Analyze transaction patterns</text></g><g class="message" data-participant-1="fraudService" data-participant-2="db"><polygon fill="#181818" points="911.5835,1427.6348,921.5835,1431.6348,911.5835,1435.6348,915.5835,1431.6348" style="stroke:#181818;stroke-width:1;"/><line style="stroke:#181818;stroke-width:1;" x1="745.5474" x2="917.5835" y1="1431.6348" y2="1431.6348"/><text fill="#000000" font-family="sans-serif" font-size="13" lengthAdjust="spacing" textLength="145.9517" x="761.5896" y="1426.7783">Check transaction history</text></g><g class="message" data-participant-1="db" data-participant-2="fraudService"><polygon fill="#181818" points="756.5474,1457.9863,746.5474,1461.9863,756.5474,1465.9863,752.5474,1461.9863" style="stroke:#181818;stroke-width:1;"/><line style="stroke:#181818;stroke-width:1;stroke-dasharray:2.0,2.0;" x1="750.5474" x2="922.5835" y1="1461.9863" y2="1461.9863"/><text fill="#000000" font-family="sans-serif" font-size="13" lengthAdjust="spacing" textLength="109.8208" x="779.655" y="1457.1299">Transaction history</text></g><g class="message" data-participant-1="fraudService" data-participant-2="fraudService"><line style="stroke:#181818;stroke-width:1;" x1="745.5474" x2="787.5474" y1="1492.3379" y2="1492.3379"/><line style="stroke:#181818;stroke-width:1;" x1="787.5474" x2="787.5474" y1="1492.3379" y2="1505.3379"/><line style="stroke:#181818;stroke-width:1;" x1="746.5474" x2="787.5474" y1="1505.3379" y2="1505.3379"/><polygon fill="#181818" points="756.5474,1501.3379,746.5474,1505.3379,756.5474,1509.3379,752.5474,1505.3379" style="stroke:#181818;stroke-width:1;"/><text fill="#000000" font-family="sans-serif" font-size="13" lengthAdjust="spacing" textLength="109.8208" x="752.5474" y="1487.4814">Evaluate risk score</text></g><g class="message" data-participant-1="fraudService" data-participant-2="fraudService"><line style="stroke:#181818;stroke-width:1;" x1="745.5474" x2="787.5474" y1="1535.6895" y2="1535.6895"/><line style="stroke:#181818;stroke-width:1;" x1="787.5474" x2="787.5474" y1="1535.6895" y2="1548.6895"/><line style="stroke:#181818;stroke-width:1;" x1="746.5474" x2="787.5474" y1="1548.6895" y2="1548.6895"/><polygon fill="#181818" points="756.5474,1544.6895,746.5474,1548.6895,756.5474,1552.6895,752.5474,1548.6895" style="stroke:#181818;stroke-width:1;"/><text fill="#000000" font-family="sans-serif" font-size="13" lengthAdjust="spacing" textLength="145.9644" x="752.5474" y="1530.833">Detect suspicious pattern</text></g><g class="message" data-participant-1="fraudService" data-participant-2="txnService"><polygon fill="#181818" points="377.3667,1575.041,367.3667,1579.041,377.3667,1583.041,373.3667,1579.041" style="stroke:#181818;stroke-width:1;"/><line style="stroke:#181818;stroke-width:1;stroke-dasharray:2.0,2.0;" x1="371.3667" x2="744.5474" y1="1579.041" y2="1579.041"/><text fill="#000000" font-family="sans-serif" font-size="13" lengthAdjust="spacing" textLength="123.5381" x="494.188" y="1574.1846">High risk assessment</text></g><g class="message" data-participant-1="txnService" data-participant-2="db"><polygon fill="#181818" points="911.5835,1605.3926,921.5835,1609.3926,911.5835,1613.3926,915.5835,1609.3926" style="stroke:#181818;stroke-width:1;"/><line style="stroke:#181818;stroke-width:1;" x1="366.3667" x2="917.5835" y1="1609.3926" y2="1609.3926"/><text fill="#000000" font-family="sans-serif" font-size="13" lengthAdjust="spacing" textLength="152.4517" x="568.7493" y="1604.5361">Flag transaction for review</text></g><g class="message" data-participant-1="db" data-participant-2="txnService"><polygon fill="#181818" points="377.3667,1635.7441,367.3667,1639.7441,377.3667,1643.7441,373.3667,1639.7441" style="stroke:#181818;stroke-width:1;"/><line style="stroke:#181818;stroke-width:1;stroke-dasharray:2.0,2.0;" x1="371.3667" x2="922.5835" y1="1639.7441" y2="1639.7441"/><text fill="#000000" font-family="sans-serif" font-size="13" lengthAdjust="spacing" textLength="114.1816" x="587.8843" y="1634.8877">Transaction flagged</text></g><g class="message" data-participant-1="txnService" data-participant-2="gateway"><polygon fill="#181818" points="109.8516,1666.0957,99.8516,1670.0957,109.8516,1674.0957,105.8516,1670.0957" style="stroke:#181818;stroke-width:1;"/><line style="stroke:#181818;stroke-width:1;" x1="103.8516" x2="365.3667" y1="1670.0957" y2="1670.0957"/><text fill="#000000" font-family="sans-serif" font-size="13" lengthAdjust="spacing" textLength="243.5151" x="110.8516" y="1665.2393">Transaction requires additional verification</text></g><rect fill="#EEEEEE" height="3" style="stroke:#EEEEEE;stroke-width:1;" width="961.5488" x="0" y="1699.2715"/><line style="stroke:#000000;stroke-width:1;" x1="0" x2="961.5488" y1="1699.2715" y2="1699.2715"/><line style="stroke:#000000;stroke-width:1;" x1="0" x2="961.5488" y1="1702.2715" y2="1702.2715"/><rect fill="#EEEEEE" height="24.3516" style="stroke:#000000;stroke-width:2;" width="351.4097" x="305.0696" y="1688.0957"/><text fill="#000000" font-family="sans-serif" font-size="13" font-weight="bold" lengthAdjust="spacing" textLength="333.7979" x="311.0696" y="1705.5908">Alternative Scenario: System Temporarily Unavailable</text><path d="M5,1727.4473 L5,1753.4473 L193,1753.4473 L193,1737.4473 L183,1727.4473 L5,1727.4473" fill="#FEFFDD" style="stroke:#181818;stroke-width:0.5;"/><path d="M183,1727.4473 L183,1737.4473 L193,1737.4473 L183,1727.4473" fill="#FEFFDD" style="stroke:#181818;stroke-width:0.5;"/><text fill="#000000" font-family="sans-serif" font-size="13" lengthAdjust="spacing" textLength="167.6416" x="11" y="1745.9424">Transaction request received</text><g class="message" data-participant-1="gateway" data-participant-2="txnService"><polygon fill="#181818" points="354.3667,1777.1504,364.3667,1781.1504,354.3667,1785.1504,358.3667,1781.1504" style="stroke:#181818;stroke-width:1;"/><line style="stroke:#181818;stroke-width:1;" x1="98.8516" x2="360.3667" y1="1781.1504" y2="1781.1504"/><text fill="#000000" font-family="sans-serif" font-size="13" lengthAdjust="spacing" textLength="161.8525" x="151.6829" y="1776.2939">Forward transaction request</text></g><g class="message" data-participant-1="txnService" data-participant-2="txnService"><line style="stroke:#181818;stroke-width:1;" x1="366.3667" x2="408.3667" y1="1811.502" y2="1811.502"/><line style="stroke:#181818;stroke-width:1;" x1="408.3667" x2="408.3667" y1="1811.502" y2="1824.502"/><line style="stroke:#181818;stroke-width:1;" x1="367.3667" x2="408.3667" y1="1824.502" y2="1824.502"/><polygon fill="#181818" points="377.3667,1820.502,367.3667,1824.502,377.3667,1828.502,373.3667,1824.502" style="stroke:#181818;stroke-width:1;"/><text fill="#000000" font-family="sans-serif" font-size="13" lengthAdjust="spacing" textLength="150.3062" x="373.3667" y="1806.6455">System overload detected</text></g><g class="message" data-participant-1="txnService" data-participant-2="db"><polygon fill="#181818" points="911.5835,1850.8535,921.5835,1854.8535,911.5835,1858.8535,915.5835,1854.8535" style="stroke:#181818;stroke-width:1;"/><line style="stroke:#181818;stroke-width:1;" x1="366.3667" x2="917.5835" y1="1854.8535" y2="1854.8535"/><text fill="#000000" font-family="sans-serif" font-size="13" lengthAdjust="spacing" textLength="220.397" x="534.7766" y="1849.9971">Queue transaction for later processing</text></g><g class="message" data-participant-1="db" data-participant-2="txnService"><polygon fill="#181818" points="377.3667,1881.2051,367.3667,1885.2051,377.3667,1889.2051,373.3667,1885.2051" style="stroke:#181818;stroke-width:1;"/><line style="stroke:#181818;stroke-width:1;stroke-dasharray:2.0,2.0;" x1="371.3667" x2="922.5835" y1="1885.2051" y2="1885.2051"/><text fill="#000000" font-family="sans-serif" font-size="13" lengthAdjust="spacing" textLength="114.9116" x="587.5193" y="1880.3486">Transaction queued</text></g><g class="message" data-participant-1="txnService" data-participant-2="gateway"><polygon fill="#181818" points="109.8516,1911.5566,99.8516,1915.5566,109.8516,1919.5566,105.8516,1915.5566" style="stroke:#181818;stroke-width:1;"/><line style="stroke:#181818;stroke-width:1;" x1="103.8516" x2="365.3667" y1="1915.5566" y2="1915.5566"/><text fill="#000000" font-family="sans-serif" font-size="13" lengthAdjust="spacing" textLength="200.1733" x="132.5225" y="1910.7002">Transaction queued for processing</text></g><g class="message" data-participant-1="gateway" data-participant-2="gateway"><line style="stroke:#181818;stroke-width:1;" x1="98.8516" x2="140.8516" y1="1945.9082" y2="1945.9082"/><line style="stroke:#181818;stroke-width:1;" x1="140.8516" x2="140.8516" y1="1945.9082" y2="1958.9082"/><line style="stroke:#181818;stroke-width:1;" x1="99.8516" x2="140.8516" y1="1958.9082" y2="1958.9082"/><polygon fill="#181818" points="109.8516,1954.9082,99.8516,1958.9082,109.8516,1962.9082,105.8516,1958.9082" style="stroke:#181818;stroke-width:1;"/><text fill="#000000" font-family="sans-serif" font-size="13" lengthAdjust="spacing" textLength="184.9644" x="105.8516" y="1941.0518">Return temporary transaction ID</text></g><!--SRC=[xLOzRzim4DtvAmxPlRIR0HSmagODq01jxBHBbpDraW-cIOUavAg_laTRSlNLD5ExPB8itJlUUtnyODYnFQ37FGHwAibgkgSGiA2buSA29Xl9gt2fsg3U5TwLDhjsndauRZbIv_iMRNRq72DPoD44KYfoD0HNZzUpjs_ci2pZrdd-IV10Q6PhtXEiFTg0EhApuKefwHHPym5jXAlbvpluW96EM5y11YZEp_sYJeFlTaM-OasdwlYZ_JleghLmYFrYFB-S1An8bqAhxYD2ytOISkknpE268aqCbgUFBIp3Y1iC8j9DytIgoJPABHPmZsnXLMej6mChsH7qx62nKCgwIE0gygqgywwKuDEEXYY_chYYJAcc36RlEihCuTRv8_eCuXYiVjSDKL_Hi4nEFLX64Ta4DS3rfPt3zPRq3aAPvoANU0noSLHG_R84p3Pp-5AIhziMua23DecsWTb4vmUAfRUNgc770OVLO0BGpkRizqciFeF1LWjzyfpNFVA6zno36fIsD6GoprGHb45sR0BNC1gjj7xH4YFOMMFEuSXnot-63YJvrgiUgD2rRMBK68p3JWmRnA1xaL9rgyQefKLJ_-pRve2I6Dw64JG9ToRIBTzoYCxNhMBz_kk9mkSdUb-XAPEJJqI2Tfu6Y856dznnH7gWr7d7fLK6s4GUff7QcRljbjs2T5m59GxiDvmyucthv5U9YgL9AaeRSLcR5CdauI0cTsM0fS0gsVmcbYXxpP7N77dDaN-M8qF4-HYAWIydj67mVFvyv6BxaW2wDLZq2EToPVDKCHsdSgZBE1TeyR8GIaUSFSa5AiiulK43LN8rwtFaFHDDTOYqXpNj3yxBArF3eyLAZZvkvDBu_yEf6J2jRnncAPTEkJcbjkHBIIEvZOpZuU1Tkh-nBVuc_5FgCke_oVrSUbgbqx_3_u9gqYmsElVZvkv6_G80]--></g></svg>