<svg xmlns="http://www.w3.org/2000/svg" xmlns:xlink="http://www.w3.org/1999/xlink" contentStyleType="text/css" data-diagram-type="SEQUENCE" height="1698px" preserveAspectRatio="none" style="width:1118px;height:1698px;background:#FFFFFF;" version="1.1" viewBox="0 0 1118 1698" width="1118px" zoomAndPan="magnify"><title>UC-33: View User Reports</title><defs/><g><rect fill="#FFFFCC" height="28.0566" rx="2.5" ry="2.5" style="stroke:#FFDD88;stroke-width:3;" width="1107.4517" x="5" y="5"/><text fill="#000000" font-family="monospace" font-size="10" lengthAdjust="spacing" textLength="354.0576" x="10" y="20">Please&#160;use&#160;'!option&#160;handwritten&#160;true'&#160;to&#160;enable&#160;handwritten</text><text fill="#000000" font-family="sans-serif" font-size="14" font-weight="bold" lengthAdjust="spacing" textLength="172.7168" x="461.3674" y="67.5898">UC-33: View User Reports</text><g><title>Admin</title><rect fill="#000000" fill-opacity="0.00000" height="1457.1172" width="8" x="23.8413" y="159.2754"/><line style="stroke:#181818;stroke-width:0.5;stroke-dasharray:5.0,5.0;" x1="27" x2="27" y1="159.2754" y2="1616.3926"/></g><g><title>Admin Portal</title><rect fill="#000000" fill-opacity="0.00000" height="1457.1172" width="8" x="289.1665" y="159.2754"/><line style="stroke:#181818;stroke-width:0.5;stroke-dasharray:5.0,5.0;" x1="293.0942" x2="293.0942" y1="159.2754" y2="1616.3926"/></g><g><title>API Gateway</title><rect fill="#000000" fill-opacity="0.00000" height="1457.1172" width="8" x="464.209" y="159.2754"/><line style="stroke:#181818;stroke-width:0.5;stroke-dasharray:5.0,5.0;" x1="467.3574" x2="467.3574" y1="159.2754" y2="1616.3926"/></g><g><title>Reporting</title><rect fill="#000000" fill-opacity="0.00000" height="1457.1172" width="8" x="703.5342" y="159.2754"/><line style="stroke:#181818;stroke-width:0.5;stroke-dasharray:5.0,5.0;" x1="707.1826" x2="707.1826" y1="159.2754" y2="1616.3926"/></g><g><title>Analytics</title><rect fill="#000000" fill-opacity="0.00000" height="1457.1172" width="8" x="877.1484" y="159.2754"/><line style="stroke:#181818;stroke-width:0.5;stroke-dasharray:5.0,5.0;" x1="881.1382" x2="881.1382" y1="159.2754" y2="1616.3926"/></g><g><title>Database</title><rect fill="#000000" fill-opacity="0.00000" height="1457.1172" width="8" x="1054.4863" y="159.2754"/><line style="stroke:#181818;stroke-width:0.5;stroke-dasharray:5.0,5.0;" x1="1057.521" x2="1057.521" y1="159.2754" y2="1616.3926"/></g><g class="participant participant-head" data-participant="admin"><text fill="#000000" font-family="sans-serif" font-size="14" lengthAdjust="spacing" textLength="39.6826" x="5" y="156.1992">Admin</text><ellipse cx="27.8413" cy="90.166" fill="#E2E2F0" rx="8" ry="8" style="stroke:#181818;stroke-width:0.5;"/><path d="M27.8413,98.166 L27.8413,125.166 M14.8413,106.166 L40.8413,106.166 M27.8413,125.166 L14.8413,140.166 M27.8413,125.166 L40.8413,140.166" fill="none" style="stroke:#181818;stroke-width:0.5;"/></g><g class="participant participant-tail" data-participant="admin"><text fill="#000000" font-family="sans-serif" font-size="14" lengthAdjust="spacing" textLength="39.6826" x="5" y="1629.9258">Admin</text><ellipse cx="27.8413" cy="1641.502" fill="#E2E2F0" rx="8" ry="8" style="stroke:#181818;stroke-width:0.5;"/><path d="M27.8413,1649.502 L27.8413,1676.502 M14.8413,1657.502 L40.8413,1657.502 M27.8413,1676.502 L14.8413,1691.502 M27.8413,1676.502 L40.8413,1691.502" fill="none" style="stroke:#181818;stroke-width:0.5;"/></g><g class="participant participant-head" data-participant="portal"><rect fill="#E2E2F0" height="31.6094" rx="2.5" ry="2.5" style="stroke:#181818;stroke-width:0.5;" width="94.1445" x="246.0942" y="126.666"/><text fill="#000000" font-family="sans-serif" font-size="14" lengthAdjust="spacing" textLength="80.1445" x="253.0942" y="148.1992">Admin Portal</text></g><g class="participant participant-tail" data-participant="portal"><rect fill="#E2E2F0" height="31.6094" rx="2.5" ry="2.5" style="stroke:#181818;stroke-width:0.5;" width="94.1445" x="246.0942" y="1615.3926"/><text fill="#000000" font-family="sans-serif" font-size="14" lengthAdjust="spacing" textLength="80.1445" x="253.0942" y="1636.9258">Admin Portal</text></g><g class="participant participant-head" data-participant="gateway"><rect fill="#E2E2F0" height="31.6094" rx="2.5" ry="2.5" style="stroke:#181818;stroke-width:0.5;" width="95.7031" x="420.3574" y="126.666"/><text fill="#000000" font-family="sans-serif" font-size="14" lengthAdjust="spacing" textLength="81.7031" x="427.3574" y="148.1992">API Gateway</text></g><g class="participant participant-tail" data-participant="gateway"><rect fill="#E2E2F0" height="31.6094" rx="2.5" ry="2.5" style="stroke:#181818;stroke-width:0.5;" width="95.7031" x="420.3574" y="1615.3926"/><text fill="#000000" font-family="sans-serif" font-size="14" lengthAdjust="spacing" textLength="81.7031" x="427.3574" y="1636.9258">API Gateway</text></g><g class="participant participant-head" data-participant="reportService"><rect fill="#E2E2F0" height="49.2188" rx="2.5" ry="2.5" style="stroke:#181818;stroke-width:0.5;" width="74.7031" x="670.1826" y="109.0566"/><text fill="#000000" font-family="sans-serif" font-size="14" lengthAdjust="spacing" textLength="60.7031" x="677.1826" y="130.5898">Reporting</text><text fill="#000000" font-family="sans-serif" font-size="14" lengthAdjust="spacing" textLength="46.6826" x="684.1929" y="148.1992">Service</text></g><g class="participant participant-tail" data-participant="reportService"><rect fill="#E2E2F0" height="49.2188" rx="2.5" ry="2.5" style="stroke:#181818;stroke-width:0.5;" width="74.7031" x="670.1826" y="1615.3926"/><text fill="#000000" font-family="sans-serif" font-size="14" lengthAdjust="spacing" textLength="60.7031" x="677.1826" y="1636.9258">Reporting</text><text fill="#000000" font-family="sans-serif" font-size="14" lengthAdjust="spacing" textLength="46.6826" x="684.1929" y="1654.5352">Service</text></g><g class="participant participant-head" data-participant="analyticsService"><rect fill="#E2E2F0" height="49.2188" rx="2.5" ry="2.5" style="stroke:#181818;stroke-width:0.5;" width="70.0205" x="846.1382" y="109.0566"/><text fill="#000000" font-family="sans-serif" font-size="14" lengthAdjust="spacing" textLength="56.0205" x="853.1382" y="130.5898">Analytics</text><text fill="#000000" font-family="sans-serif" font-size="14" lengthAdjust="spacing" textLength="46.6826" x="857.8071" y="148.1992">Service</text></g><g class="participant participant-tail" data-participant="analyticsService"><rect fill="#E2E2F0" height="49.2188" rx="2.5" ry="2.5" style="stroke:#181818;stroke-width:0.5;" width="70.0205" x="846.1382" y="1615.3926"/><text fill="#000000" font-family="sans-serif" font-size="14" lengthAdjust="spacing" textLength="56.0205" x="853.1382" y="1636.9258">Analytics</text><text fill="#000000" font-family="sans-serif" font-size="14" lengthAdjust="spacing" textLength="46.6826" x="857.8071" y="1654.5352">Service</text></g><g class="participant participant-head" data-participant="db"><text fill="#000000" font-family="sans-serif" font-size="14" lengthAdjust="spacing" textLength="59.9307" x="1025.521" y="156.1992">Database</text><path d="M1040.4863,105.666 C1040.4863,95.666 1058.4863,95.666 1058.4863,95.666 C1058.4863,95.666 1076.4863,95.666 1076.4863,105.666 L1076.4863,131.666 C1076.4863,141.666 1058.4863,141.666 1058.4863,141.666 C1058.4863,141.666 1040.4863,141.666 1040.4863,131.666 L1040.4863,105.666" fill="#E2E2F0" style="stroke:#181818;stroke-width:1.5;"/><path d="M1040.4863,105.666 C1040.4863,115.666 1058.4863,115.666 1058.4863,115.666 C1058.4863,115.666 1076.4863,115.666 1076.4863,105.666" fill="none" style="stroke:#181818;stroke-width:1.5;"/></g><g class="participant participant-tail" data-participant="db"><text fill="#000000" font-family="sans-serif" font-size="14" lengthAdjust="spacing" textLength="59.9307" x="1025.521" y="1629.9258">Database</text><path d="M1040.4863,1643.002 C1040.4863,1633.002 1058.4863,1633.002 1058.4863,1633.002 C1058.4863,1633.002 1076.4863,1633.002 1076.4863,1643.002 L1076.4863,1669.002 C1076.4863,1679.002 1058.4863,1679.002 1058.4863,1679.002 C1058.4863,1679.002 1040.4863,1679.002 1040.4863,1669.002 L1040.4863,1643.002" fill="#E2E2F0" style="stroke:#181818;stroke-width:1.5;"/><path d="M1040.4863,1643.002 C1040.4863,1653.002 1058.4863,1653.002 1058.4863,1653.002 C1058.4863,1653.002 1076.4863,1653.002 1076.4863,1643.002" fill="none" style="stroke:#181818;stroke-width:1.5;"/></g><rect fill="#EEEEEE" height="3" style="stroke:#EEEEEE;stroke-width:1;" width="1096.4517" x="0" y="190.4512"/><line style="stroke:#000000;stroke-width:1;" x1="0" x2="1096.4517" y1="190.4512" y2="190.4512"/><line style="stroke:#000000;stroke-width:1;" x1="0" x2="1096.4517" y1="193.4512" y2="193.4512"/><rect fill="#EEEEEE" height="24.3516" style="stroke:#000000;stroke-width:2;" width="162.1226" x="467.1646" y="179.2754"/><text fill="#000000" font-family="sans-serif" font-size="13" font-weight="bold" lengthAdjust="spacing" textLength="144.5107" x="473.1646" y="196.7705">Main Success Scenario</text><g class="message" data-participant-1="admin" data-participant-2="portal"><polygon fill="#181818" points="281.1665,231.9785,291.1665,235.9785,281.1665,239.9785,285.1665,235.9785" style="stroke:#181818;stroke-width:1;"/><line style="stroke:#181818;stroke-width:1;" x1="27.8413" x2="287.1665" y1="235.9785" y2="235.9785"/><text fill="#000000" font-family="sans-serif" font-size="13" lengthAdjust="spacing" textLength="141.6226" x="89.6926" y="231.1221">Access reporting section</text></g><g class="message" data-participant-1="portal" data-participant-2="admin"><polygon fill="#181818" points="38.8413,262.3301,28.8413,266.3301,38.8413,270.3301,34.8413,266.3301" style="stroke:#181818;stroke-width:1;"/><line style="stroke:#181818;stroke-width:1;" x1="32.8413" x2="292.1665" y1="266.3301" y2="266.3301"/><text fill="#000000" font-family="sans-serif" font-size="13" lengthAdjust="spacing" textLength="125.728" x="97.6399" y="261.4736">Display report options</text></g><g class="message" data-participant-1="admin" data-participant-2="portal"><polygon fill="#181818" points="281.1665,292.6816,291.1665,296.6816,281.1665,300.6816,285.1665,296.6816" style="stroke:#181818;stroke-width:1;"/><line style="stroke:#181818;stroke-width:1;" x1="27.8413" x2="287.1665" y1="296.6816" y2="296.6816"/><text fill="#000000" font-family="sans-serif" font-size="13" lengthAdjust="spacing" textLength="196.5488" x="62.2295" y="291.8252">Select report type and parameters</text></g><g class="message" data-participant-1="portal" data-participant-2="gateway"><polygon fill="#181818" points="456.209,323.0332,466.209,327.0332,456.209,331.0332,460.209,327.0332" style="stroke:#181818;stroke-width:1;"/><line style="stroke:#181818;stroke-width:1;" x1="293.1665" x2="462.209" y1="327.0332" y2="327.0332"/><text fill="#000000" font-family="sans-serif" font-size="13" lengthAdjust="spacing" textLength="151.0425" x="305.1665" y="322.1768">Request report generation</text></g><g class="message" data-participant-1="gateway" data-participant-2="reportService"><polygon fill="#181818" points="695.5342,353.3848,705.5342,357.3848,695.5342,361.3848,699.5342,357.3848" style="stroke:#181818;stroke-width:1;"/><line style="stroke:#181818;stroke-width:1;" x1="468.209" x2="701.5342" y1="357.3848" y2="357.3848"/><text fill="#000000" font-family="sans-serif" font-size="13" lengthAdjust="spacing" textLength="132.2217" x="521.7607" y="352.5283">Forward report request</text></g><g class="message" data-participant-1="reportService" data-participant-2="reportService"><line style="stroke:#181818;stroke-width:1;" x1="707.5342" x2="749.5342" y1="387.7363" y2="387.7363"/><line style="stroke:#181818;stroke-width:1;" x1="749.5342" x2="749.5342" y1="387.7363" y2="400.7363"/><line style="stroke:#181818;stroke-width:1;" x1="708.5342" x2="749.5342" y1="400.7363" y2="400.7363"/><polygon fill="#181818" points="718.5342,396.7363,708.5342,400.7363,718.5342,404.7363,714.5342,400.7363" style="stroke:#181818;stroke-width:1;"/><text fill="#000000" font-family="sans-serif" font-size="13" lengthAdjust="spacing" textLength="153.9116" x="714.5342" y="382.8799">Validate report parameters</text></g><g class="message" data-participant-1="reportService" data-participant-2="analyticsService"><polygon fill="#181818" points="869.1484,427.0879,879.1484,431.0879,869.1484,435.0879,873.1484,431.0879" style="stroke:#181818;stroke-width:1;"/><line style="stroke:#181818;stroke-width:1;" x1="707.5342" x2="875.1484" y1="431.0879" y2="431.0879"/><text fill="#000000" font-family="sans-serif" font-size="13" lengthAdjust="spacing" textLength="149.6143" x="719.5342" y="426.2314">Request data aggregation</text></g><g class="message" data-participant-1="analyticsService" data-participant-2="db"><polygon fill="#181818" points="1046.4863,457.4395,1056.4863,461.4395,1046.4863,465.4395,1050.4863,461.4395" style="stroke:#181818;stroke-width:1;"/><line style="stroke:#181818;stroke-width:1;" x1="881.1484" x2="1052.4863" y1="461.4395" y2="461.4395"/><text fill="#000000" font-family="sans-serif" font-size="13" lengthAdjust="spacing" textLength="136.5571" x="901.5388" y="456.583">Query user activity data</text></g><g class="message" data-participant-1="db" data-participant-2="analyticsService"><polygon fill="#181818" points="892.1484,487.791,882.1484,491.791,892.1484,495.791,888.1484,491.791" style="stroke:#181818;stroke-width:1;"/><line style="stroke:#181818;stroke-width:1;stroke-dasharray:2.0,2.0;" x1="886.1484" x2="1057.4863" y1="491.791" y2="491.791"/><text fill="#000000" font-family="sans-serif" font-size="13" lengthAdjust="spacing" textLength="85.2744" x="927.1802" y="486.9346">Return dataset</text></g><g class="message" data-participant-1="analyticsService" data-participant-2="analyticsService"><line style="stroke:#181818;stroke-width:1;" x1="881.1484" x2="923.1484" y1="522.1426" y2="522.1426"/><line style="stroke:#181818;stroke-width:1;" x1="923.1484" x2="923.1484" y1="522.1426" y2="535.1426"/><line style="stroke:#181818;stroke-width:1;" x1="882.1484" x2="923.1484" y1="535.1426" y2="535.1426"/><polygon fill="#181818" points="892.1484,531.1426,882.1484,535.1426,892.1484,539.1426,888.1484,535.1426" style="stroke:#181818;stroke-width:1;"/><text fill="#000000" font-family="sans-serif" font-size="13" lengthAdjust="spacing" textLength="163.3379" x="888.1484" y="517.2861">Process and aggregate data</text></g><g class="message" data-participant-1="analyticsService" data-participant-2="reportService"><polygon fill="#181818" points="718.5342,561.4941,708.5342,565.4941,718.5342,569.4941,714.5342,565.4941" style="stroke:#181818;stroke-width:1;"/><line style="stroke:#181818;stroke-width:1;" x1="712.5342" x2="880.1484" y1="565.4941" y2="565.4941"/><text fill="#000000" font-family="sans-serif" font-size="13" lengthAdjust="spacing" textLength="131.5234" x="728.5796" y="560.6377">Return processed data</text></g><g class="message" data-participant-1="reportService" data-participant-2="reportService"><line style="stroke:#181818;stroke-width:1;" x1="707.5342" x2="749.5342" y1="595.8457" y2="595.8457"/><line style="stroke:#181818;stroke-width:1;" x1="749.5342" x2="749.5342" y1="595.8457" y2="608.8457"/><line style="stroke:#181818;stroke-width:1;" x1="708.5342" x2="749.5342" y1="608.8457" y2="608.8457"/><polygon fill="#181818" points="718.5342,604.8457,708.5342,608.8457,718.5342,612.8457,714.5342,608.8457" style="stroke:#181818;stroke-width:1;"/><text fill="#000000" font-family="sans-serif" font-size="13" lengthAdjust="spacing" textLength="78.7427" x="714.5342" y="590.9893">Format report</text></g><g class="message" data-participant-1="reportService" data-participant-2="reportService"><line style="stroke:#181818;stroke-width:1;" x1="707.5342" x2="749.5342" y1="639.1973" y2="639.1973"/><line style="stroke:#181818;stroke-width:1;" x1="749.5342" x2="749.5342" y1="639.1973" y2="652.1973"/><line style="stroke:#181818;stroke-width:1;" x1="708.5342" x2="749.5342" y1="652.1973" y2="652.1973"/><polygon fill="#181818" points="718.5342,648.1973,708.5342,652.1973,718.5342,656.1973,714.5342,652.1973" style="stroke:#181818;stroke-width:1;"/><text fill="#000000" font-family="sans-serif" font-size="13" lengthAdjust="spacing" textLength="135.1289" x="714.5342" y="634.3408">Generate visualizations</text></g><g class="message" data-participant-1="reportService" data-participant-2="gateway"><polygon fill="#181818" points="479.209,678.5488,469.209,682.5488,479.209,686.5488,475.209,682.5488" style="stroke:#181818;stroke-width:1;"/><line style="stroke:#181818;stroke-width:1;" x1="473.209" x2="706.5342" y1="682.5488" y2="682.5488"/><text fill="#000000" font-family="sans-serif" font-size="13" lengthAdjust="spacing" textLength="140.1816" x="517.7808" y="677.6924">Return completed report</text></g><g class="message" data-participant-1="gateway" data-participant-2="portal"><polygon fill="#181818" points="304.1665,708.9004,294.1665,712.9004,304.1665,716.9004,300.1665,712.9004" style="stroke:#181818;stroke-width:1;"/><line style="stroke:#181818;stroke-width:1;" x1="298.1665" x2="467.209" y1="712.9004" y2="712.9004"/><text fill="#000000" font-family="sans-serif" font-size="13" lengthAdjust="spacing" textLength="114.1626" x="323.6064" y="708.0439">Forward report data</text></g><g class="message" data-participant-1="portal" data-participant-2="portal"><line style="stroke:#181818;stroke-width:1;" x1="293.1665" x2="335.1665" y1="743.252" y2="743.252"/><line style="stroke:#181818;stroke-width:1;" x1="335.1665" x2="335.1665" y1="743.252" y2="756.252"/><line style="stroke:#181818;stroke-width:1;" x1="294.1665" x2="335.1665" y1="756.252" y2="756.252"/><polygon fill="#181818" points="304.1665,752.252,294.1665,756.252,304.1665,760.252,300.1665,756.252" style="stroke:#181818;stroke-width:1;"/><text fill="#000000" font-family="sans-serif" font-size="13" lengthAdjust="spacing" textLength="133.6816" x="300.1665" y="738.3955">Render report interface</text></g><g class="message" data-participant-1="portal" data-participant-2="admin"><polygon fill="#181818" points="38.8413,782.6035,28.8413,786.6035,38.8413,790.6035,34.8413,786.6035" style="stroke:#181818;stroke-width:1;"/><line style="stroke:#181818;stroke-width:1;" x1="32.8413" x2="292.1665" y1="786.6035" y2="786.6035"/><text fill="#000000" font-family="sans-serif" font-size="13" lengthAdjust="spacing" textLength="215.3379" x="52.835" y="781.7471">Display report data and visualizations</text></g><g class="message" data-participant-1="admin" data-participant-2="portal"><polygon fill="#181818" points="281.1665,812.9551,291.1665,816.9551,281.1665,820.9551,285.1665,816.9551" style="stroke:#181818;stroke-width:1;"/><line style="stroke:#181818;stroke-width:1;" x1="27.8413" x2="287.1665" y1="816.9551" y2="816.9551"/><text fill="#000000" font-family="sans-serif" font-size="13" lengthAdjust="spacing" textLength="233.4097" x="43.7991" y="812.0986">Request drill-down on specific data point</text></g><g class="message" data-participant-1="portal" data-participant-2="gateway"><polygon fill="#181818" points="456.209,843.3066,466.209,847.3066,456.209,851.3066,460.209,847.3066" style="stroke:#181818;stroke-width:1;"/><line style="stroke:#181818;stroke-width:1;" x1="293.1665" x2="462.209" y1="847.3066" y2="847.3066"/><text fill="#000000" font-family="sans-serif" font-size="13" lengthAdjust="spacing" textLength="126.4834" x="317.446" y="842.4502">Request detailed data</text></g><g class="message" data-participant-1="gateway" data-participant-2="reportService"><polygon fill="#181818" points="695.5342,873.6582,705.5342,877.6582,695.5342,881.6582,699.5342,877.6582" style="stroke:#181818;stroke-width:1;"/><line style="stroke:#181818;stroke-width:1;" x1="468.209" x2="701.5342" y1="877.6582" y2="877.6582"/><text fill="#000000" font-family="sans-serif" font-size="13" lengthAdjust="spacing" textLength="136.5762" x="519.5835" y="872.8018">Request data drill-down</text></g><g class="message" data-participant-1="reportService" data-participant-2="db"><polygon fill="#181818" points="1046.4863,904.0098,1056.4863,908.0098,1046.4863,912.0098,1050.4863,908.0098" style="stroke:#181818;stroke-width:1;"/><line style="stroke:#181818;stroke-width:1;" x1="707.5342" x2="1052.4863" y1="908.0098" y2="908.0098"/><text fill="#000000" font-family="sans-serif" font-size="13" lengthAdjust="spacing" textLength="184.2661" x="790.8772" y="903.1533">Query specific data point details</text></g><g class="message" data-participant-1="db" data-participant-2="reportService"><polygon fill="#181818" points="718.5342,934.3613,708.5342,938.3613,718.5342,942.3613,714.5342,938.3613" style="stroke:#181818;stroke-width:1;"/><line style="stroke:#181818;stroke-width:1;stroke-dasharray:2.0,2.0;" x1="712.5342" x2="1057.4863" y1="938.3613" y2="938.3613"/><text fill="#000000" font-family="sans-serif" font-size="13" lengthAdjust="spacing" textLength="117.0825" x="824.469" y="933.5049">Return detailed data</text></g><g class="message" data-participant-1="reportService" data-participant-2="gateway"><polygon fill="#181818" points="479.209,964.7129,469.209,968.7129,479.209,972.7129,475.209,968.7129" style="stroke:#181818;stroke-width:1;"/><line style="stroke:#181818;stroke-width:1;" x1="473.209" x2="706.5342" y1="968.7129" y2="968.7129"/><text fill="#000000" font-family="sans-serif" font-size="13" lengthAdjust="spacing" textLength="156.0889" x="509.8271" y="963.8564">Return detailed information</text></g><g class="message" data-participant-1="gateway" data-participant-2="portal"><polygon fill="#181818" points="304.1665,995.0645,294.1665,999.0645,304.1665,1003.0645,300.1665,999.0645" style="stroke:#181818;stroke-width:1;"/><line style="stroke:#181818;stroke-width:1;" x1="298.1665" x2="467.209" y1="999.0645" y2="999.0645"/><text fill="#000000" font-family="sans-serif" font-size="13" lengthAdjust="spacing" textLength="125.7407" x="317.8174" y="994.208">Forward detailed data</text></g><g class="message" data-participant-1="portal" data-participant-2="admin"><polygon fill="#181818" points="38.8413,1025.416,28.8413,1029.416,38.8413,1033.416,34.8413,1029.416" style="stroke:#181818;stroke-width:1;"/><line style="stroke:#181818;stroke-width:1;" x1="32.8413" x2="292.1665" y1="1029.416" y2="1029.416"/><text fill="#000000" font-family="sans-serif" font-size="13" lengthAdjust="spacing" textLength="150.3062" x="85.3508" y="1024.5596">Display detailed data view</text></g><rect fill="#EEEEEE" height="3" style="stroke:#EEEEEE;stroke-width:1;" width="1096.4517" x="0" y="1058.5918"/><line style="stroke:#000000;stroke-width:1;" x1="0" x2="1096.4517" y1="1058.5918" y2="1058.5918"/><line style="stroke:#000000;stroke-width:1;" x1="0" x2="1096.4517" y1="1061.5918" y2="1061.5918"/><rect fill="#EEEEEE" height="24.3516" style="stroke:#000000;stroke-width:2;" width="352.8506" x="371.8005" y="1047.416"/><text fill="#000000" font-family="sans-serif" font-size="13" font-weight="bold" lengthAdjust="spacing" textLength="335.2388" x="377.8005" y="1064.9111">Alternative Scenario: No Data for Selected Parameters</text><g class="message" data-participant-1="admin" data-participant-2="portal"><polygon fill="#181818" points="281.1665,1100.1191,291.1665,1104.1191,281.1665,1108.1191,285.1665,1104.1191" style="stroke:#181818;stroke-width:1;"/><line style="stroke:#181818;stroke-width:1;" x1="27.8413" x2="287.1665" y1="1104.1191" y2="1104.1191"/><text fill="#000000" font-family="sans-serif" font-size="13" lengthAdjust="spacing" textLength="141.6226" x="89.6926" y="1099.2627">Access reporting section</text></g><g class="message" data-participant-1="portal" data-participant-2="admin"><polygon fill="#181818" points="38.8413,1130.4707,28.8413,1134.4707,38.8413,1138.4707,34.8413,1134.4707" style="stroke:#181818;stroke-width:1;"/><line style="stroke:#181818;stroke-width:1;" x1="32.8413" x2="292.1665" y1="1134.4707" y2="1134.4707"/><text fill="#000000" font-family="sans-serif" font-size="13" lengthAdjust="spacing" textLength="125.728" x="97.6399" y="1129.6143">Display report options</text></g><g class="message" data-participant-1="admin" data-participant-2="portal"><polygon fill="#181818" points="281.1665,1160.8223,291.1665,1164.8223,281.1665,1168.8223,285.1665,1164.8223" style="stroke:#181818;stroke-width:1;"/><line style="stroke:#181818;stroke-width:1;" x1="27.8413" x2="287.1665" y1="1164.8223" y2="1164.8223"/><text fill="#000000" font-family="sans-serif" font-size="13" lengthAdjust="spacing" textLength="241.3252" x="39.8413" y="1159.9658">Select report type with narrow parameters</text></g><g class="message" data-participant-1="portal" data-participant-2="gateway"><polygon fill="#181818" points="456.209,1191.1738,466.209,1195.1738,456.209,1199.1738,460.209,1195.1738" style="stroke:#181818;stroke-width:1;"/><line style="stroke:#181818;stroke-width:1;" x1="293.1665" x2="462.209" y1="1195.1738" y2="1195.1738"/><text fill="#000000" font-family="sans-serif" font-size="13" lengthAdjust="spacing" textLength="151.0425" x="305.1665" y="1190.3174">Request report generation</text></g><g class="message" data-participant-1="gateway" data-participant-2="reportService"><polygon fill="#181818" points="695.5342,1221.5254,705.5342,1225.5254,695.5342,1229.5254,699.5342,1225.5254" style="stroke:#181818;stroke-width:1;"/><line style="stroke:#181818;stroke-width:1;" x1="468.209" x2="701.5342" y1="1225.5254" y2="1225.5254"/><text fill="#000000" font-family="sans-serif" font-size="13" lengthAdjust="spacing" textLength="132.2217" x="521.7607" y="1220.6689">Forward report request</text></g><g class="message" data-participant-1="reportService" data-participant-2="reportService"><line style="stroke:#181818;stroke-width:1;" x1="707.5342" x2="749.5342" y1="1255.877" y2="1255.877"/><line style="stroke:#181818;stroke-width:1;" x1="749.5342" x2="749.5342" y1="1255.877" y2="1268.877"/><line style="stroke:#181818;stroke-width:1;" x1="708.5342" x2="749.5342" y1="1268.877" y2="1268.877"/><polygon fill="#181818" points="718.5342,1264.877,708.5342,1268.877,718.5342,1272.877,714.5342,1268.877" style="stroke:#181818;stroke-width:1;"/><text fill="#000000" font-family="sans-serif" font-size="13" lengthAdjust="spacing" textLength="153.9116" x="714.5342" y="1251.0205">Validate report parameters</text></g><g class="message" data-participant-1="reportService" data-participant-2="analyticsService"><polygon fill="#181818" points="869.1484,1295.2285,879.1484,1299.2285,869.1484,1303.2285,873.1484,1299.2285" style="stroke:#181818;stroke-width:1;"/><line style="stroke:#181818;stroke-width:1;" x1="707.5342" x2="875.1484" y1="1299.2285" y2="1299.2285"/><text fill="#000000" font-family="sans-serif" font-size="13" lengthAdjust="spacing" textLength="149.6143" x="719.5342" y="1294.3721">Request data aggregation</text></g><g class="message" data-participant-1="analyticsService" data-participant-2="db"><polygon fill="#181818" points="1046.4863,1325.5801,1056.4863,1329.5801,1046.4863,1333.5801,1050.4863,1329.5801" style="stroke:#181818;stroke-width:1;"/><line style="stroke:#181818;stroke-width:1;" x1="881.1484" x2="1052.4863" y1="1329.5801" y2="1329.5801"/><text fill="#000000" font-family="sans-serif" font-size="13" lengthAdjust="spacing" textLength="136.5571" x="901.5388" y="1324.7236">Query user activity data</text></g><g class="message" data-participant-1="db" data-participant-2="analyticsService"><polygon fill="#181818" points="892.1484,1355.9316,882.1484,1359.9316,892.1484,1363.9316,888.1484,1359.9316" style="stroke:#181818;stroke-width:1;"/><line style="stroke:#181818;stroke-width:1;stroke-dasharray:2.0,2.0;" x1="886.1484" x2="1057.4863" y1="1359.9316" y2="1359.9316"/><text fill="#000000" font-family="sans-serif" font-size="13" lengthAdjust="spacing" textLength="124.2871" x="907.6738" y="1355.0752">Return empty dataset</text></g><g class="message" data-participant-1="analyticsService" data-participant-2="reportService"><polygon fill="#181818" points="718.5342,1386.2832,708.5342,1390.2832,718.5342,1394.2832,714.5342,1390.2832" style="stroke:#181818;stroke-width:1;"/><line style="stroke:#181818;stroke-width:1;" x1="712.5342" x2="880.1484" y1="1390.2832" y2="1390.2832"/><text fill="#000000" font-family="sans-serif" font-size="13" lengthAdjust="spacing" textLength="113.4326" x="737.625" y="1385.4268">Return empty result</text></g><g class="message" data-participant-1="reportService" data-participant-2="reportService"><line style="stroke:#181818;stroke-width:1;" x1="707.5342" x2="749.5342" y1="1420.6348" y2="1420.6348"/><line style="stroke:#181818;stroke-width:1;" x1="749.5342" x2="749.5342" y1="1420.6348" y2="1433.6348"/><line style="stroke:#181818;stroke-width:1;" x1="708.5342" x2="749.5342" y1="1433.6348" y2="1433.6348"/><polygon fill="#181818" points="718.5342,1429.6348,708.5342,1433.6348,718.5342,1437.6348,714.5342,1433.6348" style="stroke:#181818;stroke-width:1;"/><text fill="#000000" font-family="sans-serif" font-size="13" lengthAdjust="spacing" textLength="130.7871" x="714.5342" y="1415.7783">Generate empty report</text></g><g class="message" data-participant-1="reportService" data-participant-2="reportService"><line style="stroke:#181818;stroke-width:1;" x1="707.5342" x2="749.5342" y1="1463.9863" y2="1463.9863"/><line style="stroke:#181818;stroke-width:1;" x1="749.5342" x2="749.5342" y1="1463.9863" y2="1476.9863"/><line style="stroke:#181818;stroke-width:1;" x1="708.5342" x2="749.5342" y1="1476.9863" y2="1476.9863"/><polygon fill="#181818" points="718.5342,1472.9863,708.5342,1476.9863,718.5342,1480.9863,714.5342,1476.9863" style="stroke:#181818;stroke-width:1;"/><text fill="#000000" font-family="sans-serif" font-size="13" lengthAdjust="spacing" textLength="158.9834" x="714.5342" y="1459.1299">Add parameter suggestions</text></g><g class="message" data-participant-1="reportService" data-participant-2="gateway"><polygon fill="#181818" points="479.209,1503.3379,469.209,1507.3379,479.209,1511.3379,475.209,1507.3379" style="stroke:#181818;stroke-width:1;"/><line style="stroke:#181818;stroke-width:1;" x1="473.209" x2="706.5342" y1="1507.3379" y2="1507.3379"/><text fill="#000000" font-family="sans-serif" font-size="13" lengthAdjust="spacing" textLength="215.3252" x="480.209" y="1502.4814">Return empty report with suggestions</text></g><g class="message" data-participant-1="gateway" data-participant-2="portal"><polygon fill="#181818" points="304.1665,1533.6895,294.1665,1537.6895,304.1665,1541.6895,300.1665,1537.6895" style="stroke:#181818;stroke-width:1;"/><line style="stroke:#181818;stroke-width:1;" x1="298.1665" x2="467.209" y1="1537.6895" y2="1537.6895"/><text fill="#000000" font-family="sans-serif" font-size="13" lengthAdjust="spacing" textLength="124.2617" x="318.5569" y="1532.833">Forward empty report</text></g><g class="message" data-participant-1="portal" data-participant-2="admin"><polygon fill="#181818" points="38.8413,1564.041,28.8413,1568.041,38.8413,1572.041,34.8413,1568.041" style="stroke:#181818;stroke-width:1;"/><line style="stroke:#181818;stroke-width:1;" x1="32.8413" x2="292.1665" y1="1568.041" y2="1568.041"/><text fill="#000000" font-family="sans-serif" font-size="13" lengthAdjust="spacing" textLength="193.502" x="63.7529" y="1563.1846">Display "No data found" message</text></g><g class="message" data-participant-1="portal" data-participant-2="admin"><polygon fill="#181818" points="38.8413,1594.3926,28.8413,1598.3926,38.8413,1602.3926,34.8413,1598.3926" style="stroke:#181818;stroke-width:1;"/><line style="stroke:#181818;stroke-width:1;" x1="32.8413" x2="292.1665" y1="1598.3926" y2="1598.3926"/><text fill="#000000" font-family="sans-serif" font-size="13" lengthAdjust="spacing" textLength="231.9624" x="44.5227" y="1593.5361">Show alternative parameter suggestions</text></g><!--SRC=[xLQnRjim4Dtr5GVldh89S04ZGOCEATmOoTJbB9vb8ZIfafG5z-jx8aLRakKucR9qewNtxexttftbtgIkqE8U7FsfIHVqHCvXIKibImq5QKysSoVK1ektqffQYtkZZ8Lc9ptrtkzGYyPAxqd35fMZBFFIAuBPo_tyxYw7LqaDl3Yoy4oLiTxDiWmBpw5cIx6NUWRe0DjJnX6zB6I5sdSlOSKCL05JXUC8jFe1Z-YfmMF0bF4y1CMyKfU_zPhiGHOKi3OyxfwCmcfKH_xfXWnCZnD9eCSDEhxiGtSAEB79iiK2df0liAwBWXiCQ-uiMcbWiU3xXxlDltLtoc4PGJPLok8KNXfkIG2qqC39uK6wIk6nWuAfMfYR2BacnJ4IpXyhule51DM8DNQzs5tRSfQ8FU5Eh98qMGo5T90MFMXS3j-DRT2AnB4nH9ODO1EyLrII6qY9sAliWZhk_BdILWB0ihHKnaB7q9OkDZdygiaUeMwDoFQJ1-cFWPo93SolfF2rrG7aY2yq5VcIjR8cQDasEzL5CTDKW55JkfnL348Y4c_saZNOOvBj9lenoafmaAvc5VvYDD45h-UBK5PXzfLYYPBOVLSatuti4Ei_Mot1daaBbg93oNRhRB6Tmnk6ZtfpRqUrNmx0oI5MAZKNfj5WDBYA2hcLHGnK6SxytY08yYXLqk7w40piUCvusTAp5ISgwTAvvCbfSmnhkYdQ2IxrDjXaDCvZuORXh-enWB4Qr8IbjrIifEOa1phjl1n-6cWt9701tM9Yukeqy5-v51lfTy1bMjFyNuwVNewqhpherHKvRU98jEHgzOc5bLWVMdDBqVkx0rUN9VVaOukkdoSwf4z_PtW61Lutwem7GiI1u2-h6UpZDzWbORrZMs9lfgOlz0y0]--></g></svg>