<svg xmlns="http://www.w3.org/2000/svg" xmlns:xlink="http://www.w3.org/1999/xlink" contentStyleType="text/css" data-diagram-type="SEQUENCE" height="2154px" preserveAspectRatio="none" style="width:911px;height:2154px;background:#FFFFFF;" version="1.1" viewBox="0 0 911 2154" width="911px" zoomAndPan="magnify"><title>UC-34: Set Transfer Limit</title><defs/><g><rect fill="#FFFFCC" height="28.0566" rx="2.5" ry="2.5" style="stroke:#FFDD88;stroke-width:3;" width="900.3081" x="5" y="5"/><text fill="#000000" font-family="monospace" font-size="10" lengthAdjust="spacing" textLength="354.0576" x="10" y="20">Please&#160;use&#160;'!option&#160;handwritten&#160;true'&#160;to&#160;enable&#160;handwritten</text><text fill="#000000" font-family="sans-serif" font-size="14" font-weight="bold" lengthAdjust="spacing" textLength="168.0342" x="360.137" y="67.5898">UC-34: Set Transfer Limit</text><g><title>User</title><rect fill="#000000" fill-opacity="0.00000" height="1913.3906" width="8" x="18.7793" y="159.2754"/><line style="stroke:#181818;stroke-width:0.5;stroke-dasharray:5.0,5.0;" x1="22" x2="22" y1="159.2754" y2="2072.666"/></g><g><title>FalsoPay App</title><rect fill="#000000" fill-opacity="0.00000" height="1913.3906" width="8" x="242.9082" y="159.2754"/><line style="stroke:#181818;stroke-width:0.5;stroke-dasharray:5.0,5.0;" x1="246.3291" x2="246.3291" y1="159.2754" y2="2072.666"/></g><g><title>API Gateway</title><rect fill="#000000" fill-opacity="0.00000" height="1913.3906" width="8" x="441.168" y="159.2754"/><line style="stroke:#181818;stroke-width:0.5;stroke-dasharray:5.0,5.0;" x1="444.3164" x2="444.3164" y1="159.2754" y2="2072.666"/></g><g><title>Security</title><rect fill="#000000" fill-opacity="0.00000" height="1913.3906" width="8" x="582.936" y="159.2754"/><line style="stroke:#181818;stroke-width:0.5;stroke-dasharray:5.0,5.0;" x1="586.6499" x2="586.6499" y1="159.2754" y2="2072.666"/></g><g><title>Authentication</title><rect fill="#000000" fill-opacity="0.00000" height="1913.3906" width="8" x="753.0122" y="159.2754"/><line style="stroke:#181818;stroke-width:0.5;stroke-dasharray:5.0,5.0;" x1="756.647" x2="756.647" y1="159.2754" y2="2072.666"/></g><g><title>Database</title><rect fill="#000000" fill-opacity="0.00000" height="1913.3906" width="8" x="847.3428" y="159.2754"/><line style="stroke:#181818;stroke-width:0.5;stroke-dasharray:5.0,5.0;" x1="850.3774" x2="850.3774" y1="159.2754" y2="2072.666"/></g><g class="participant participant-head" data-participant="user"><text fill="#000000" font-family="sans-serif" font-size="14" lengthAdjust="spacing" textLength="29.5586" x="5" y="156.1992">User</text><ellipse cx="22.7793" cy="90.166" fill="#E2E2F0" rx="8" ry="8" style="stroke:#181818;stroke-width:0.5;"/><path d="M22.7793,98.166 L22.7793,125.166 M9.7793,106.166 L35.7793,106.166 M22.7793,125.166 L9.7793,140.166 M22.7793,125.166 L35.7793,140.166" fill="none" style="stroke:#181818;stroke-width:0.5;"/></g><g class="participant participant-tail" data-participant="user"><text fill="#000000" font-family="sans-serif" font-size="14" lengthAdjust="spacing" textLength="29.5586" x="5" y="2086.1992">User</text><ellipse cx="22.7793" cy="2097.7754" fill="#E2E2F0" rx="8" ry="8" style="stroke:#181818;stroke-width:0.5;"/><path d="M22.7793,2105.7754 L22.7793,2132.7754 M9.7793,2113.7754 L35.7793,2113.7754 M22.7793,2132.7754 L9.7793,2147.7754 M22.7793,2132.7754 L35.7793,2147.7754" fill="none" style="stroke:#181818;stroke-width:0.5;"/></g><g class="participant participant-head" data-participant="app"><rect fill="#E2E2F0" height="31.6094" rx="2.5" ry="2.5" style="stroke:#181818;stroke-width:0.5;" width="101.1582" x="196.3291" y="126.666"/><text fill="#000000" font-family="sans-serif" font-size="14" lengthAdjust="spacing" textLength="87.1582" x="203.3291" y="148.1992">FalsoPay App</text></g><g class="participant participant-tail" data-participant="app"><rect fill="#E2E2F0" height="31.6094" rx="2.5" ry="2.5" style="stroke:#181818;stroke-width:0.5;" width="101.1582" x="196.3291" y="2071.666"/><text fill="#000000" font-family="sans-serif" font-size="14" lengthAdjust="spacing" textLength="87.1582" x="203.3291" y="2093.1992">FalsoPay App</text></g><g class="participant participant-head" data-participant="gateway"><rect fill="#E2E2F0" height="31.6094" rx="2.5" ry="2.5" style="stroke:#181818;stroke-width:0.5;" width="95.7031" x="397.3164" y="126.666"/><text fill="#000000" font-family="sans-serif" font-size="14" lengthAdjust="spacing" textLength="81.7031" x="404.3164" y="148.1992">API Gateway</text></g><g class="participant participant-tail" data-participant="gateway"><rect fill="#E2E2F0" height="31.6094" rx="2.5" ry="2.5" style="stroke:#181818;stroke-width:0.5;" width="95.7031" x="397.3164" y="2071.666"/><text fill="#000000" font-family="sans-serif" font-size="14" lengthAdjust="spacing" textLength="81.7031" x="404.3164" y="2093.1992">API Gateway</text></g><g class="participant participant-head" data-participant="securityService"><rect fill="#E2E2F0" height="49.2188" rx="2.5" ry="2.5" style="stroke:#181818;stroke-width:0.5;" width="64.5723" x="554.6499" y="109.0566"/><text fill="#000000" font-family="sans-serif" font-size="14" lengthAdjust="spacing" textLength="50.5723" x="561.6499" y="130.5898">Security</text><text fill="#000000" font-family="sans-serif" font-size="14" lengthAdjust="spacing" textLength="46.6826" x="563.5947" y="148.1992">Service</text></g><g class="participant participant-tail" data-participant="securityService"><rect fill="#E2E2F0" height="49.2188" rx="2.5" ry="2.5" style="stroke:#181818;stroke-width:0.5;" width="64.5723" x="554.6499" y="2071.666"/><text fill="#000000" font-family="sans-serif" font-size="14" lengthAdjust="spacing" textLength="50.5723" x="561.6499" y="2093.1992">Security</text><text fill="#000000" font-family="sans-serif" font-size="14" lengthAdjust="spacing" textLength="46.6826" x="563.5947" y="2110.8086">Service</text></g><g class="participant participant-head" data-participant="authService"><rect fill="#E2E2F0" height="49.2188" rx="2.5" ry="2.5" style="stroke:#181818;stroke-width:0.5;" width="102.7305" x="705.647" y="109.0566"/><text fill="#000000" font-family="sans-serif" font-size="14" lengthAdjust="spacing" textLength="88.7305" x="712.647" y="130.5898">Authentication</text><text fill="#000000" font-family="sans-serif" font-size="14" lengthAdjust="spacing" textLength="46.6826" x="733.6709" y="148.1992">Service</text></g><g class="participant participant-tail" data-participant="authService"><rect fill="#E2E2F0" height="49.2188" rx="2.5" ry="2.5" style="stroke:#181818;stroke-width:0.5;" width="102.7305" x="705.647" y="2071.666"/><text fill="#000000" font-family="sans-serif" font-size="14" lengthAdjust="spacing" textLength="88.7305" x="712.647" y="2093.1992">Authentication</text><text fill="#000000" font-family="sans-serif" font-size="14" lengthAdjust="spacing" textLength="46.6826" x="733.6709" y="2110.8086">Service</text></g><g class="participant participant-head" data-participant="db"><text fill="#000000" font-family="sans-serif" font-size="14" lengthAdjust="spacing" textLength="59.9307" x="818.3774" y="156.1992">Database</text><path d="M833.3428,105.666 C833.3428,95.666 851.3428,95.666 851.3428,95.666 C851.3428,95.666 869.3428,95.666 869.3428,105.666 L869.3428,131.666 C869.3428,141.666 851.3428,141.666 851.3428,141.666 C851.3428,141.666 833.3428,141.666 833.3428,131.666 L833.3428,105.666" fill="#E2E2F0" style="stroke:#181818;stroke-width:1.5;"/><path d="M833.3428,105.666 C833.3428,115.666 851.3428,115.666 851.3428,115.666 C851.3428,115.666 869.3428,115.666 869.3428,105.666" fill="none" style="stroke:#181818;stroke-width:1.5;"/></g><g class="participant participant-tail" data-participant="db"><text fill="#000000" font-family="sans-serif" font-size="14" lengthAdjust="spacing" textLength="59.9307" x="818.3774" y="2086.1992">Database</text><path d="M833.3428,2099.2754 C833.3428,2089.2754 851.3428,2089.2754 851.3428,2089.2754 C851.3428,2089.2754 869.3428,2089.2754 869.3428,2099.2754 L869.3428,2125.2754 C869.3428,2135.2754 851.3428,2135.2754 851.3428,2135.2754 C851.3428,2135.2754 833.3428,2135.2754 833.3428,2125.2754 L833.3428,2099.2754" fill="#E2E2F0" style="stroke:#181818;stroke-width:1.5;"/><path d="M833.3428,2099.2754 C833.3428,2109.2754 851.3428,2109.2754 851.3428,2109.2754 C851.3428,2109.2754 869.3428,2109.2754 869.3428,2099.2754" fill="none" style="stroke:#181818;stroke-width:1.5;"/></g><rect fill="#EEEEEE" height="3" style="stroke:#EEEEEE;stroke-width:1;" width="889.3081" x="0" y="190.4512"/><line style="stroke:#000000;stroke-width:1;" x1="0" x2="889.3081" y1="190.4512" y2="190.4512"/><line style="stroke:#000000;stroke-width:1;" x1="0" x2="889.3081" y1="193.4512" y2="193.4512"/><rect fill="#EEEEEE" height="24.3516" style="stroke:#000000;stroke-width:2;" width="162.1226" x="363.5928" y="179.2754"/><text fill="#000000" font-family="sans-serif" font-size="13" font-weight="bold" lengthAdjust="spacing" textLength="144.5107" x="369.5928" y="196.7705">Main Success Scenario</text><g class="message" data-participant-1="user" data-participant-2="app"><polygon fill="#181818" points="234.9082,231.9785,244.9082,235.9785,234.9082,239.9785,238.9082,235.9785" style="stroke:#181818;stroke-width:1;"/><line style="stroke:#181818;stroke-width:1;" x1="22.7793" x2="240.9082" y1="235.9785" y2="235.9785"/><text fill="#000000" font-family="sans-serif" font-size="13" lengthAdjust="spacing" textLength="138.7153" x="65.4861" y="231.1221">Access security settings</text></g><g class="message" data-participant-1="app" data-participant-2="user"><polygon fill="#181818" points="33.7793,262.3301,23.7793,266.3301,33.7793,270.3301,29.7793,266.3301" style="stroke:#181818;stroke-width:1;"/><line style="stroke:#181818;stroke-width:1;" x1="27.7793" x2="245.9082" y1="266.3301" y2="266.3301"/><text fill="#000000" font-family="sans-serif" font-size="13" lengthAdjust="spacing" textLength="136.5571" x="66.5652" y="261.4736">Display security options</text></g><g class="message" data-participant-1="user" data-participant-2="app"><polygon fill="#181818" points="234.9082,292.6816,244.9082,296.6816,234.9082,300.6816,238.9082,296.6816" style="stroke:#181818;stroke-width:1;"/><line style="stroke:#181818;stroke-width:1;" x1="22.7793" x2="240.9082" y1="296.6816" y2="296.6816"/><text fill="#000000" font-family="sans-serif" font-size="13" lengthAdjust="spacing" textLength="149.5635" x="60.062" y="291.8252">Select transfer limit option</text></g><g class="message" data-participant-1="app" data-participant-2="app"><line style="stroke:#181818;stroke-width:1;" x1="246.9082" x2="288.9082" y1="327.0332" y2="327.0332"/><line style="stroke:#181818;stroke-width:1;" x1="288.9082" x2="288.9082" y1="327.0332" y2="340.0332"/><line style="stroke:#181818;stroke-width:1;" x1="247.9082" x2="288.9082" y1="340.0332" y2="340.0332"/><polygon fill="#181818" points="257.9082,336.0332,247.9082,340.0332,257.9082,344.0332,253.9082,340.0332" style="stroke:#181818;stroke-width:1;"/><text fill="#000000" font-family="sans-serif" font-size="13" lengthAdjust="spacing" textLength="179.8545" x="253.9082" y="322.1768">Retrieve system maximum limit</text></g><g class="message" data-participant-1="app" data-participant-2="user"><polygon fill="#181818" points="33.7793,366.3848,23.7793,370.3848,33.7793,374.3848,29.7793,370.3848" style="stroke:#181818;stroke-width:1;"/><line style="stroke:#181818;stroke-width:1;" x1="27.7793" x2="245.9082" y1="370.3848" y2="370.3848"/><text fill="#000000" font-family="sans-serif" font-size="13" lengthAdjust="spacing" textLength="200.1289" x="34.7793" y="365.5283">Display current limit and input form</text></g><g class="message" data-participant-1="user" data-participant-2="app"><polygon fill="#181818" points="234.9082,396.7363,244.9082,400.7363,234.9082,404.7363,238.9082,400.7363" style="stroke:#181818;stroke-width:1;"/><line style="stroke:#181818;stroke-width:1;" x1="22.7793" x2="240.9082" y1="400.7363" y2="400.7363"/><text fill="#000000" font-family="sans-serif" font-size="13" lengthAdjust="spacing" textLength="85.249" x="92.2192" y="395.8799">Enter new limit</text></g><g class="message" data-participant-1="app" data-participant-2="app"><line style="stroke:#181818;stroke-width:1;" x1="246.9082" x2="288.9082" y1="431.0879" y2="431.0879"/><line style="stroke:#181818;stroke-width:1;" x1="288.9082" x2="288.9082" y1="431.0879" y2="444.0879"/><line style="stroke:#181818;stroke-width:1;" x1="247.9082" x2="288.9082" y1="444.0879" y2="444.0879"/><polygon fill="#181818" points="257.9082,440.0879,247.9082,444.0879,257.9082,448.0879,253.9082,444.0879" style="stroke:#181818;stroke-width:1;"/><text fill="#000000" font-family="sans-serif" font-size="13" lengthAdjust="spacing" textLength="119.2344" x="253.9082" y="426.2314">Validate input format</text></g><g class="message" data-participant-1="app" data-participant-2="gateway"><polygon fill="#181818" points="433.168,470.4395,443.168,474.4395,433.168,478.4395,437.168,474.4395" style="stroke:#181818;stroke-width:1;"/><line style="stroke:#181818;stroke-width:1;" x1="246.9082" x2="439.168" y1="474.4395" y2="474.4395"/><text fill="#000000" font-family="sans-serif" font-size="13" lengthAdjust="spacing" textLength="118.5107" x="286.7827" y="469.583">Request limit update</text></g><g class="message" data-participant-1="gateway" data-participant-2="securityService"><polygon fill="#181818" points="574.936,500.791,584.936,504.791,574.936,508.791,578.936,504.791" style="stroke:#181818;stroke-width:1;"/><line style="stroke:#181818;stroke-width:1;" x1="445.168" x2="580.936" y1="504.791" y2="504.791"/><text fill="#000000" font-family="sans-serif" font-size="13" lengthAdjust="spacing" textLength="117.7681" x="457.168" y="499.9346">Forward limit update</text></g><g class="message" data-participant-1="securityService" data-participant-2="authService"><polygon fill="#181818" points="745.0122,531.1426,755.0122,535.1426,745.0122,539.1426,749.0122,535.1426" style="stroke:#181818;stroke-width:1;"/><line style="stroke:#181818;stroke-width:1;" x1="586.936" x2="751.0122" y1="535.1426" y2="535.1426"/><text fill="#000000" font-family="sans-serif" font-size="13" lengthAdjust="spacing" textLength="114.1689" x="614.8896" y="530.2861">Request verification</text></g><g class="message" data-participant-1="authService" data-participant-2="app"><polygon fill="#181818" points="257.9082,561.4941,247.9082,565.4941,257.9082,569.4941,253.9082,565.4941" style="stroke:#181818;stroke-width:1;"/><line style="stroke:#181818;stroke-width:1;" x1="251.9082" x2="756.0122" y1="565.4941" y2="565.4941"/><text fill="#000000" font-family="sans-serif" font-size="13" lengthAdjust="spacing" textLength="139.4517" x="432.2344" y="560.6377">Request PIN verification</text></g><g class="message" data-participant-1="app" data-participant-2="user"><polygon fill="#181818" points="33.7793,591.8457,23.7793,595.8457,33.7793,599.8457,29.7793,595.8457" style="stroke:#181818;stroke-width:1;"/><line style="stroke:#181818;stroke-width:1;" x1="27.7793" x2="245.9082" y1="595.8457" y2="595.8457"/><text fill="#000000" font-family="sans-serif" font-size="13" lengthAdjust="spacing" textLength="85.9663" x="91.8606" y="590.9893">Prompt for PIN</text></g><g class="message" data-participant-1="user" data-participant-2="app"><polygon fill="#181818" points="234.9082,622.1973,244.9082,626.1973,234.9082,630.1973,238.9082,626.1973" style="stroke:#181818;stroke-width:1;"/><line style="stroke:#181818;stroke-width:1;" x1="22.7793" x2="240.9082" y1="626.1973" y2="626.1973"/><text fill="#000000" font-family="sans-serif" font-size="13" lengthAdjust="spacing" textLength="56.3545" x="106.6665" y="621.3408">Enter PIN</text></g><g class="message" data-participant-1="app" data-participant-2="gateway"><polygon fill="#181818" points="433.168,652.5488,443.168,656.5488,433.168,660.5488,437.168,656.5488" style="stroke:#181818;stroke-width:1;"/><line style="stroke:#181818;stroke-width:1;" x1="246.9082" x2="439.168" y1="656.5488" y2="656.5488"/><text fill="#000000" font-family="sans-serif" font-size="13" lengthAdjust="spacing" textLength="55.6436" x="318.2163" y="651.6924">Send PIN</text></g><g class="message" data-participant-1="gateway" data-participant-2="authService"><polygon fill="#181818" points="745.0122,682.9004,755.0122,686.9004,745.0122,690.9004,749.0122,686.9004" style="stroke:#181818;stroke-width:1;"/><line style="stroke:#181818;stroke-width:1;" x1="445.168" x2="751.0122" y1="686.9004" y2="686.9004"/><text fill="#000000" font-family="sans-serif" font-size="13" lengthAdjust="spacing" textLength="58.5127" x="571.8337" y="682.0439">Verify PIN</text></g><g class="message" data-participant-1="authService" data-participant-2="db"><polygon fill="#181818" points="839.3428,713.252,849.3428,717.252,839.3428,721.252,843.3428,717.252" style="stroke:#181818;stroke-width:1;"/><line style="stroke:#181818;stroke-width:1;" x1="757.0122" x2="845.3428" y1="717.252" y2="717.252"/><text fill="#000000" font-family="sans-serif" font-size="13" lengthAdjust="spacing" textLength="62.1309" x="773.1121" y="712.3955">Check PIN</text></g><g class="message" data-participant-1="db" data-participant-2="authService"><polygon fill="#181818" points="768.0122,743.6035,758.0122,747.6035,768.0122,751.6035,764.0122,747.6035" style="stroke:#181818;stroke-width:1;"/><line style="stroke:#181818;stroke-width:1;stroke-dasharray:2.0,2.0;" x1="762.0122" x2="850.3428" y1="747.6035" y2="747.6035"/><text fill="#000000" font-family="sans-serif" font-size="13" lengthAdjust="spacing" textLength="52.019" x="778.168" y="742.7471">PIN valid</text></g><g class="message" data-participant-1="authService" data-participant-2="securityService"><polygon fill="#181818" points="597.936,773.9551,587.936,777.9551,597.936,781.9551,593.936,777.9551" style="stroke:#181818;stroke-width:1;"/><line style="stroke:#181818;stroke-width:1;stroke-dasharray:2.0,2.0;" x1="591.936" x2="756.0122" y1="777.9551" y2="777.9551"/><text fill="#000000" font-family="sans-serif" font-size="13" lengthAdjust="spacing" textLength="128.6099" x="607.6692" y="773.0986">Verification successful</text></g><g class="message" data-participant-1="securityService" data-participant-2="securityService"><line style="stroke:#181818;stroke-width:1;" x1="586.936" x2="628.936" y1="808.3066" y2="808.3066"/><line style="stroke:#181818;stroke-width:1;" x1="628.936" x2="628.936" y1="808.3066" y2="821.3066"/><line style="stroke:#181818;stroke-width:1;" x1="587.936" x2="628.936" y1="821.3066" y2="821.3066"/><polygon fill="#181818" points="597.936,817.3066,587.936,821.3066,597.936,825.3066,593.936,821.3066" style="stroke:#181818;stroke-width:1;"/><text fill="#000000" font-family="sans-serif" font-size="13" lengthAdjust="spacing" textLength="156.0762" x="593.936" y="803.4502">Validate limit against policy</text></g><g class="message" data-participant-1="securityService" data-participant-2="db"><polygon fill="#181818" points="839.3428,847.6582,849.3428,851.6582,839.3428,855.6582,843.3428,851.6582" style="stroke:#181818;stroke-width:1;"/><line style="stroke:#181818;stroke-width:1;" x1="586.936" x2="845.3428" y1="851.6582" y2="851.6582"/><text fill="#000000" font-family="sans-serif" font-size="13" lengthAdjust="spacing" textLength="116.3208" x="660.979" y="846.8018">Update transfer limit</text></g><g class="message" data-participant-1="db" data-participant-2="securityService"><polygon fill="#181818" points="597.936,878.0098,587.936,882.0098,597.936,886.0098,593.936,882.0098" style="stroke:#181818;stroke-width:1;"/><line style="stroke:#181818;stroke-width:1;stroke-dasharray:2.0,2.0;" x1="591.936" x2="850.3428" y1="882.0098" y2="882.0098"/><text fill="#000000" font-family="sans-serif" font-size="13" lengthAdjust="spacing" textLength="78.0508" x="680.114" y="877.1533">Limit updated</text></g><g class="message" data-participant-1="securityService" data-participant-2="gateway"><polygon fill="#181818" points="456.168,908.3613,446.168,912.3613,456.168,916.3613,452.168,912.3613" style="stroke:#181818;stroke-width:1;"/><line style="stroke:#181818;stroke-width:1;" x1="450.168" x2="585.936" y1="912.3613" y2="912.3613"/><text fill="#000000" font-family="sans-serif" font-size="13" lengthAdjust="spacing" textLength="106.2217" x="462.9412" y="907.5049">Update successful</text></g><g class="message" data-participant-1="gateway" data-participant-2="app"><polygon fill="#181818" points="257.9082,938.7129,247.9082,942.7129,257.9082,946.7129,253.9082,942.7129" style="stroke:#181818;stroke-width:1;"/><line style="stroke:#181818;stroke-width:1;" x1="251.9082" x2="444.168" y1="942.7129" y2="942.7129"/><text fill="#000000" font-family="sans-serif" font-size="13" lengthAdjust="spacing" textLength="115.5972" x="288.2395" y="937.8564">Confirm limit update</text></g><g class="message" data-participant-1="app" data-participant-2="user"><polygon fill="#181818" points="33.7793,969.0645,23.7793,973.0645,33.7793,977.0645,29.7793,973.0645" style="stroke:#181818;stroke-width:1;"/><line style="stroke:#181818;stroke-width:1;" x1="27.7793" x2="245.9082" y1="973.0645" y2="973.0645"/><text fill="#000000" font-family="sans-serif" font-size="13" lengthAdjust="spacing" textLength="117.0444" x="76.3215" y="968.208">Display confirmation</text></g><rect fill="#EEEEEE" height="3" style="stroke:#EEEEEE;stroke-width:1;" width="889.3081" x="0" y="1002.2402"/><line style="stroke:#000000;stroke-width:1;" x1="0" x2="889.3081" y1="1002.2402" y2="1002.2402"/><line style="stroke:#000000;stroke-width:1;" x1="0" x2="889.3081" y1="1005.2402" y2="1005.2402"/><rect fill="#EEEEEE" height="24.3516" style="stroke:#000000;stroke-width:2;" width="352.127" x="268.5906" y="991.0645"/><text fill="#000000" font-family="sans-serif" font-size="13" font-weight="bold" lengthAdjust="spacing" textLength="334.5151" x="274.5906" y="1008.5596">Alternative Scenario: Limit Exceeds System Maximum</text><g class="message" data-participant-1="user" data-participant-2="app"><polygon fill="#181818" points="234.9082,1043.7676,244.9082,1047.7676,234.9082,1051.7676,238.9082,1047.7676" style="stroke:#181818;stroke-width:1;"/><line style="stroke:#181818;stroke-width:1;" x1="22.7793" x2="240.9082" y1="1047.7676" y2="1047.7676"/><text fill="#000000" font-family="sans-serif" font-size="13" lengthAdjust="spacing" textLength="138.7153" x="65.4861" y="1042.9111">Access security settings</text></g><g class="message" data-participant-1="app" data-participant-2="user"><polygon fill="#181818" points="33.7793,1074.1191,23.7793,1078.1191,33.7793,1082.1191,29.7793,1078.1191" style="stroke:#181818;stroke-width:1;"/><line style="stroke:#181818;stroke-width:1;" x1="27.7793" x2="245.9082" y1="1078.1191" y2="1078.1191"/><text fill="#000000" font-family="sans-serif" font-size="13" lengthAdjust="spacing" textLength="136.5571" x="66.5652" y="1073.2627">Display security options</text></g><g class="message" data-participant-1="user" data-participant-2="app"><polygon fill="#181818" points="234.9082,1104.4707,244.9082,1108.4707,234.9082,1112.4707,238.9082,1108.4707" style="stroke:#181818;stroke-width:1;"/><line style="stroke:#181818;stroke-width:1;" x1="22.7793" x2="240.9082" y1="1108.4707" y2="1108.4707"/><text fill="#000000" font-family="sans-serif" font-size="13" lengthAdjust="spacing" textLength="149.5635" x="60.062" y="1103.6143">Select transfer limit option</text></g><g class="message" data-participant-1="app" data-participant-2="app"><line style="stroke:#181818;stroke-width:1;" x1="246.9082" x2="288.9082" y1="1138.8223" y2="1138.8223"/><line style="stroke:#181818;stroke-width:1;" x1="288.9082" x2="288.9082" y1="1138.8223" y2="1151.8223"/><line style="stroke:#181818;stroke-width:1;" x1="247.9082" x2="288.9082" y1="1151.8223" y2="1151.8223"/><polygon fill="#181818" points="257.9082,1147.8223,247.9082,1151.8223,257.9082,1155.8223,253.9082,1151.8223" style="stroke:#181818;stroke-width:1;"/><text fill="#000000" font-family="sans-serif" font-size="13" lengthAdjust="spacing" textLength="179.8545" x="253.9082" y="1133.9658">Retrieve system maximum limit</text></g><g class="message" data-participant-1="app" data-participant-2="user"><polygon fill="#181818" points="33.7793,1178.1738,23.7793,1182.1738,33.7793,1186.1738,29.7793,1182.1738" style="stroke:#181818;stroke-width:1;"/><line style="stroke:#181818;stroke-width:1;" x1="27.7793" x2="245.9082" y1="1182.1738" y2="1182.1738"/><text fill="#000000" font-family="sans-serif" font-size="13" lengthAdjust="spacing" textLength="200.1289" x="34.7793" y="1177.3174">Display current limit and input form</text></g><g class="message" data-participant-1="user" data-participant-2="app"><polygon fill="#181818" points="234.9082,1208.5254,244.9082,1212.5254,234.9082,1216.5254,238.9082,1212.5254" style="stroke:#181818;stroke-width:1;"/><line style="stroke:#181818;stroke-width:1;" x1="22.7793" x2="240.9082" y1="1212.5254" y2="1212.5254"/><text fill="#000000" font-family="sans-serif" font-size="13" lengthAdjust="spacing" textLength="180.6162" x="44.5356" y="1207.6689">Enter limit exceeding maximum</text></g><g class="message" data-participant-1="app" data-participant-2="app"><line style="stroke:#181818;stroke-width:1;" x1="246.9082" x2="288.9082" y1="1242.877" y2="1242.877"/><line style="stroke:#181818;stroke-width:1;" x1="288.9082" x2="288.9082" y1="1242.877" y2="1255.877"/><line style="stroke:#181818;stroke-width:1;" x1="247.9082" x2="288.9082" y1="1255.877" y2="1255.877"/><polygon fill="#181818" points="257.9082,1251.877,247.9082,1255.877,257.9082,1259.877,253.9082,1255.877" style="stroke:#181818;stroke-width:1;"/><text fill="#000000" font-family="sans-serif" font-size="13" lengthAdjust="spacing" textLength="184.2598" x="253.9082" y="1238.0205">Validate input against maximum</text></g><g class="message" data-participant-1="app" data-participant-2="user"><polygon fill="#181818" points="33.7793,1282.2285,23.7793,1286.2285,33.7793,1290.2285,29.7793,1286.2285" style="stroke:#181818;stroke-width:1;"/><line style="stroke:#181818;stroke-width:1;" x1="27.7793" x2="245.9082" y1="1286.2285" y2="1286.2285"/><text fill="#000000" font-family="sans-serif" font-size="13" lengthAdjust="spacing" textLength="119.939" x="74.8743" y="1281.3721">Show error message</text></g><g class="message" data-participant-1="app" data-participant-2="user"><polygon fill="#181818" points="33.7793,1312.5801,23.7793,1316.5801,33.7793,1320.5801,29.7793,1316.5801" style="stroke:#181818;stroke-width:1;"/><line style="stroke:#181818;stroke-width:1;" x1="27.7793" x2="245.9082" y1="1316.5801" y2="1316.5801"/><text fill="#000000" font-family="sans-serif" font-size="13" lengthAdjust="spacing" textLength="190.0361" x="39.8257" y="1311.7236">Suggest maximum allowed value</text></g><rect fill="#EEEEEE" height="3" style="stroke:#EEEEEE;stroke-width:1;" width="889.3081" x="0" y="1345.7559"/><line style="stroke:#000000;stroke-width:1;" x1="0" x2="889.3081" y1="1345.7559" y2="1345.7559"/><line style="stroke:#000000;stroke-width:1;" x1="0" x2="889.3081" y1="1348.7559" y2="1348.7559"/><rect fill="#EEEEEE" height="24.3516" style="stroke:#000000;stroke-width:2;" width="255.2998" x="317.0042" y="1334.5801"/><text fill="#000000" font-family="sans-serif" font-size="13" font-weight="bold" lengthAdjust="spacing" textLength="237.688" x="323.0042" y="1352.0752">Alternative Scenario: Verification Fails</text><g class="message" data-participant-1="user" data-participant-2="app"><polygon fill="#181818" points="234.9082,1387.2832,244.9082,1391.2832,234.9082,1395.2832,238.9082,1391.2832" style="stroke:#181818;stroke-width:1;"/><line style="stroke:#181818;stroke-width:1;" x1="22.7793" x2="240.9082" y1="1391.2832" y2="1391.2832"/><text fill="#000000" font-family="sans-serif" font-size="13" lengthAdjust="spacing" textLength="138.7153" x="65.4861" y="1386.4268">Access security settings</text></g><g class="message" data-participant-1="app" data-participant-2="user"><polygon fill="#181818" points="33.7793,1417.6348,23.7793,1421.6348,33.7793,1425.6348,29.7793,1421.6348" style="stroke:#181818;stroke-width:1;"/><line style="stroke:#181818;stroke-width:1;" x1="27.7793" x2="245.9082" y1="1421.6348" y2="1421.6348"/><text fill="#000000" font-family="sans-serif" font-size="13" lengthAdjust="spacing" textLength="136.5571" x="66.5652" y="1416.7783">Display security options</text></g><g class="message" data-participant-1="user" data-participant-2="app"><polygon fill="#181818" points="234.9082,1447.9863,244.9082,1451.9863,234.9082,1455.9863,238.9082,1451.9863" style="stroke:#181818;stroke-width:1;"/><line style="stroke:#181818;stroke-width:1;" x1="22.7793" x2="240.9082" y1="1451.9863" y2="1451.9863"/><text fill="#000000" font-family="sans-serif" font-size="13" lengthAdjust="spacing" textLength="149.5635" x="60.062" y="1447.1299">Select transfer limit option</text></g><g class="message" data-participant-1="app" data-participant-2="app"><line style="stroke:#181818;stroke-width:1;" x1="246.9082" x2="288.9082" y1="1482.3379" y2="1482.3379"/><line style="stroke:#181818;stroke-width:1;" x1="288.9082" x2="288.9082" y1="1482.3379" y2="1495.3379"/><line style="stroke:#181818;stroke-width:1;" x1="247.9082" x2="288.9082" y1="1495.3379" y2="1495.3379"/><polygon fill="#181818" points="257.9082,1491.3379,247.9082,1495.3379,257.9082,1499.3379,253.9082,1495.3379" style="stroke:#181818;stroke-width:1;"/><text fill="#000000" font-family="sans-serif" font-size="13" lengthAdjust="spacing" textLength="179.8545" x="253.9082" y="1477.4814">Retrieve system maximum limit</text></g><g class="message" data-participant-1="app" data-participant-2="user"><polygon fill="#181818" points="33.7793,1521.6895,23.7793,1525.6895,33.7793,1529.6895,29.7793,1525.6895" style="stroke:#181818;stroke-width:1;"/><line style="stroke:#181818;stroke-width:1;" x1="27.7793" x2="245.9082" y1="1525.6895" y2="1525.6895"/><text fill="#000000" font-family="sans-serif" font-size="13" lengthAdjust="spacing" textLength="200.1289" x="34.7793" y="1520.833">Display current limit and input form</text></g><g class="message" data-participant-1="user" data-participant-2="app"><polygon fill="#181818" points="234.9082,1552.041,244.9082,1556.041,234.9082,1560.041,238.9082,1556.041" style="stroke:#181818;stroke-width:1;"/><line style="stroke:#181818;stroke-width:1;" x1="22.7793" x2="240.9082" y1="1556.041" y2="1556.041"/><text fill="#000000" font-family="sans-serif" font-size="13" lengthAdjust="spacing" textLength="85.249" x="92.2192" y="1551.1846">Enter new limit</text></g><g class="message" data-participant-1="app" data-participant-2="app"><line style="stroke:#181818;stroke-width:1;" x1="246.9082" x2="288.9082" y1="1586.3926" y2="1586.3926"/><line style="stroke:#181818;stroke-width:1;" x1="288.9082" x2="288.9082" y1="1586.3926" y2="1599.3926"/><line style="stroke:#181818;stroke-width:1;" x1="247.9082" x2="288.9082" y1="1599.3926" y2="1599.3926"/><polygon fill="#181818" points="257.9082,1595.3926,247.9082,1599.3926,257.9082,1603.3926,253.9082,1599.3926" style="stroke:#181818;stroke-width:1;"/><text fill="#000000" font-family="sans-serif" font-size="13" lengthAdjust="spacing" textLength="119.2344" x="253.9082" y="1581.5361">Validate input format</text></g><g class="message" data-participant-1="app" data-participant-2="gateway"><polygon fill="#181818" points="433.168,1625.7441,443.168,1629.7441,433.168,1633.7441,437.168,1629.7441" style="stroke:#181818;stroke-width:1;"/><line style="stroke:#181818;stroke-width:1;" x1="246.9082" x2="439.168" y1="1629.7441" y2="1629.7441"/><text fill="#000000" font-family="sans-serif" font-size="13" lengthAdjust="spacing" textLength="118.5107" x="286.7827" y="1624.8877">Request limit update</text></g><g class="message" data-participant-1="gateway" data-participant-2="securityService"><polygon fill="#181818" points="574.936,1656.0957,584.936,1660.0957,574.936,1664.0957,578.936,1660.0957" style="stroke:#181818;stroke-width:1;"/><line style="stroke:#181818;stroke-width:1;" x1="445.168" x2="580.936" y1="1660.0957" y2="1660.0957"/><text fill="#000000" font-family="sans-serif" font-size="13" lengthAdjust="spacing" textLength="117.7681" x="457.168" y="1655.2393">Forward limit update</text></g><g class="message" data-participant-1="securityService" data-participant-2="authService"><polygon fill="#181818" points="745.0122,1686.4473,755.0122,1690.4473,745.0122,1694.4473,749.0122,1690.4473" style="stroke:#181818;stroke-width:1;"/><line style="stroke:#181818;stroke-width:1;" x1="586.936" x2="751.0122" y1="1690.4473" y2="1690.4473"/><text fill="#000000" font-family="sans-serif" font-size="13" lengthAdjust="spacing" textLength="114.1689" x="614.8896" y="1685.5908">Request verification</text></g><g class="message" data-participant-1="authService" data-participant-2="app"><polygon fill="#181818" points="257.9082,1716.7988,247.9082,1720.7988,257.9082,1724.7988,253.9082,1720.7988" style="stroke:#181818;stroke-width:1;"/><line style="stroke:#181818;stroke-width:1;" x1="251.9082" x2="756.0122" y1="1720.7988" y2="1720.7988"/><text fill="#000000" font-family="sans-serif" font-size="13" lengthAdjust="spacing" textLength="139.4517" x="432.2344" y="1715.9424">Request PIN verification</text></g><g class="message" data-participant-1="app" data-participant-2="user"><polygon fill="#181818" points="33.7793,1747.1504,23.7793,1751.1504,33.7793,1755.1504,29.7793,1751.1504" style="stroke:#181818;stroke-width:1;"/><line style="stroke:#181818;stroke-width:1;" x1="27.7793" x2="245.9082" y1="1751.1504" y2="1751.1504"/><text fill="#000000" font-family="sans-serif" font-size="13" lengthAdjust="spacing" textLength="85.9663" x="91.8606" y="1746.2939">Prompt for PIN</text></g><g class="message" data-participant-1="user" data-participant-2="app"><polygon fill="#181818" points="234.9082,1777.502,244.9082,1781.502,234.9082,1785.502,238.9082,1781.502" style="stroke:#181818;stroke-width:1;"/><line style="stroke:#181818;stroke-width:1;" x1="22.7793" x2="240.9082" y1="1781.502" y2="1781.502"/><text fill="#000000" font-family="sans-serif" font-size="13" lengthAdjust="spacing" textLength="109.8145" x="79.9365" y="1776.6455">Enter incorrect PIN</text></g><g class="message" data-participant-1="app" data-participant-2="gateway"><polygon fill="#181818" points="433.168,1807.8535,443.168,1811.8535,433.168,1815.8535,437.168,1811.8535" style="stroke:#181818;stroke-width:1;"/><line style="stroke:#181818;stroke-width:1;" x1="246.9082" x2="439.168" y1="1811.8535" y2="1811.8535"/><text fill="#000000" font-family="sans-serif" font-size="13" lengthAdjust="spacing" textLength="55.6436" x="318.2163" y="1806.9971">Send PIN</text></g><g class="message" data-participant-1="gateway" data-participant-2="authService"><polygon fill="#181818" points="745.0122,1838.2051,755.0122,1842.2051,745.0122,1846.2051,749.0122,1842.2051" style="stroke:#181818;stroke-width:1;"/><line style="stroke:#181818;stroke-width:1;" x1="445.168" x2="751.0122" y1="1842.2051" y2="1842.2051"/><text fill="#000000" font-family="sans-serif" font-size="13" lengthAdjust="spacing" textLength="58.5127" x="571.8337" y="1837.3486">Verify PIN</text></g><g class="message" data-participant-1="authService" data-participant-2="db"><polygon fill="#181818" points="839.3428,1868.5566,849.3428,1872.5566,839.3428,1876.5566,843.3428,1872.5566" style="stroke:#181818;stroke-width:1;"/><line style="stroke:#181818;stroke-width:1;" x1="757.0122" x2="845.3428" y1="1872.5566" y2="1872.5566"/><text fill="#000000" font-family="sans-serif" font-size="13" lengthAdjust="spacing" textLength="62.1309" x="773.1121" y="1867.7002">Check PIN</text></g><g class="message" data-participant-1="db" data-participant-2="authService"><polygon fill="#181818" points="768.0122,1898.9082,758.0122,1902.9082,768.0122,1906.9082,764.0122,1902.9082" style="stroke:#181818;stroke-width:1;"/><line style="stroke:#181818;stroke-width:1;stroke-dasharray:2.0,2.0;" x1="762.0122" x2="850.3428" y1="1902.9082" y2="1902.9082"/><text fill="#000000" font-family="sans-serif" font-size="13" lengthAdjust="spacing" textLength="62.1372" x="773.1089" y="1898.0518">PIN invalid</text></g><g class="message" data-participant-1="authService" data-participant-2="securityService"><polygon fill="#181818" points="597.936,1929.2598,587.936,1933.2598,597.936,1937.2598,593.936,1933.2598" style="stroke:#181818;stroke-width:1;"/><line style="stroke:#181818;stroke-width:1;stroke-dasharray:2.0,2.0;" x1="591.936" x2="756.0122" y1="1933.2598" y2="1933.2598"/><text fill="#000000" font-family="sans-serif" font-size="13" lengthAdjust="spacing" textLength="98.998" x="622.4751" y="1928.4033">Verification failed</text></g><g class="message" data-participant-1="securityService" data-participant-2="gateway"><polygon fill="#181818" points="456.168,1959.6113,446.168,1963.6113,456.168,1967.6113,452.168,1963.6113" style="stroke:#181818;stroke-width:1;"/><line style="stroke:#181818;stroke-width:1;" x1="450.168" x2="585.936" y1="1963.6113" y2="1963.6113"/><text fill="#000000" font-family="sans-serif" font-size="13" lengthAdjust="spacing" textLength="115.6162" x="458.2439" y="1958.7549">Verification required</text></g><g class="message" data-participant-1="gateway" data-participant-2="app"><polygon fill="#181818" points="257.9082,1989.9629,247.9082,1993.9629,257.9082,1997.9629,253.9082,1993.9629" style="stroke:#181818;stroke-width:1;"/><line style="stroke:#181818;stroke-width:1;" x1="251.9082" x2="444.168" y1="1993.9629" y2="1993.9629"/><text fill="#000000" font-family="sans-serif" font-size="13" lengthAdjust="spacing" textLength="98.998" x="296.5391" y="1989.1064">Verification failed</text></g><g class="message" data-participant-1="app" data-participant-2="user"><polygon fill="#181818" points="33.7793,2020.3145,23.7793,2024.3145,33.7793,2028.3145,29.7793,2024.3145" style="stroke:#181818;stroke-width:1;"/><line style="stroke:#181818;stroke-width:1;" x1="27.7793" x2="245.9082" y1="2024.3145" y2="2024.3145"/><text fill="#000000" font-family="sans-serif" font-size="13" lengthAdjust="spacing" textLength="130.0444" x="69.8215" y="2019.458">Display error message</text></g><g class="message" data-participant-1="app" data-participant-2="user"><polygon fill="#181818" points="33.7793,2050.666,23.7793,2054.666,33.7793,2058.666,29.7793,2054.666" style="stroke:#181818;stroke-width:1;"/><line style="stroke:#181818;stroke-width:1;" x1="27.7793" x2="245.9082" y1="2054.666" y2="2054.666"/><text fill="#000000" font-family="sans-serif" font-size="13" lengthAdjust="spacing" textLength="85.9663" x="91.8606" y="2049.8096">Prompt to retry</text></g><!--SRC=[xLKzRzim4DtvAmxUFRMJ0HSmdAG8a1H6rMJgSgPECX6AL4dAYlvzZ_g89KLmWIuTqetMlVjwz-xiNvGfqM41ddvLP2GzalUOqqwht80a4yW9_uOwedp9dQrCkhVQEgXFAj38VaAJraw5G0Oor9w422feWjNJVltfymOI2l33eV4PENXGXGeh8L06ZhLwykHMW1ugVWWE69HK9Pe0gpkEPG_OmAuiMmYMvHInEzp3LmnKOzC2ykuz1IKaAwwk-MaIScSbgONw_cl_RHQt2YTcGKaCofgf8x9jS4enu14zTthJlrf8UXHYkuL7L0QIIafc5nAc5PsoiDqA4Nk5zPVOq0Ps7M0eY1yXA9DxmTO8Yk0Dt2XVQcmkC5l6slmiM4AQP80miAqZsprs2DW2lrDmYiu4ll612YZmLHLLqJaif-R4ZbdfO_BGWHLG1SYiAsPbt4O9WQ5w6g-rFQDMJ1oDlF4DqKymriVIz4EogemUehT6u6n-6xYphaQNJXt43DOMSHdW9SsPdChwUOiHOiHN1ppSVvk1nrGTd2tAjgS8N2GbVfytcn2J6GsZ1YTbFiUCJUSxBIuzRc1_8ldI6jCZhEU-RSMHywdh4eVFeyR0TyhDAhr8utldOQwzFdAMFnDMMgrainGXblxKpcccrw6DToaUHhDD5wjwexGFF6fYp6qSnzwQJBbYAfXbuNV8RjvnitUQ9sduD-_FiDX3TRUlaYZbXU_swh7Vgm-qzXsGMXwueo77jICmY6K6xGf9JhO6SewNgkZ-g6RsAi_fuWoejQqfZQAlwCgy9cg_GwNz_-FymO-pCj8oZpBycpEjpDySweob-wTpE75mJ9Tox38_YKjX5zLsPHjxbeFbDC4ruZS0]--></g></svg>