<svg xmlns="http://www.w3.org/2000/svg" xmlns:xlink="http://www.w3.org/1999/xlink" contentStyleType="text/css" data-diagram-type="SEQUENCE" height="1558px" preserveAspectRatio="none" style="width:1301px;height:1558px;background:#FFFFFF;" version="1.1" viewBox="0 0 1301 1558" width="1301px" zoomAndPan="magnify"><title>UC-35: Check System Status</title><defs/><g><rect fill="#FFFFCC" height="28.0566" rx="2.5" ry="2.5" style="stroke:#FFDD88;stroke-width:3;" width="1290.25" x="5" y="5"/><text fill="#000000" font-family="monospace" font-size="10" lengthAdjust="spacing" textLength="354.0576" x="10" y="20">Please&#160;use&#160;'!option&#160;handwritten&#160;true'&#160;to&#160;enable&#160;handwritten</text><text fill="#000000" font-family="sans-serif" font-size="14" font-weight="bold" lengthAdjust="spacing" textLength="191.3994" x="543.4253" y="67.5898">UC-35: Check System Status</text><g><title>Admin</title><rect fill="#000000" fill-opacity="0.00000" height="1298.3594" width="8" x="23.8413" y="162.8848"/><line style="stroke:#181818;stroke-width:0.5;stroke-dasharray:5.0,5.0;" x1="27" x2="27" y1="162.8848" y2="1461.2441"/></g><g><title>Admin Portal</title><rect fill="#000000" fill-opacity="0.00000" height="1298.3594" width="8" x="448.8735" y="162.8848"/><line style="stroke:#181818;stroke-width:0.5;stroke-dasharray:5.0,5.0;" x1="452.8013" x2="452.8013" y1="162.8848" y2="1461.2441"/></g><g><title>API Gateway</title><rect fill="#000000" fill-opacity="0.00000" height="1298.3594" width="8" x="691.2241" y="162.8848"/><line style="stroke:#181818;stroke-width:0.5;stroke-dasharray:5.0,5.0;" x1="694.3726" x2="694.3726" y1="162.8848" y2="1461.2441"/></g><g><title>Monitoring</title><rect fill="#000000" fill-opacity="0.00000" height="1298.3594" width="8" x="912.4966" y="162.8848"/><line style="stroke:#181818;stroke-width:0.5;stroke-dasharray:5.0,5.0;" x1="915.814" x2="915.814" y1="162.8848" y2="1461.2441"/></g><g><title>System</title><rect fill="#000000" fill-opacity="0.00000" height="1298.3594" width="8" x="1147.6299" y="162.8848"/><line style="stroke:#181818;stroke-width:0.5;stroke-dasharray:5.0,5.0;" x1="1150.9404" x2="1150.9404" y1="162.8848" y2="1461.2441"/></g><g><title>Metrics</title><rect fill="#000000" fill-opacity="0.00000" height="1298.3594" width="8" x="1237.2847" y="162.8848"/><line style="stroke:#181818;stroke-width:0.5;stroke-dasharray:5.0,5.0;" x1="1240.3193" x2="1240.3193" y1="162.8848" y2="1461.2441"/></g><g class="participant participant-head" data-participant="admin"><text fill="#000000" font-family="sans-serif" font-size="14" lengthAdjust="spacing" textLength="39.6826" x="5" y="159.8086">Admin</text><ellipse cx="27.8413" cy="93.7754" fill="#E2E2F0" rx="8" ry="8" style="stroke:#181818;stroke-width:0.5;"/><path d="M27.8413,101.7754 L27.8413,128.7754 M14.8413,109.7754 L40.8413,109.7754 M27.8413,128.7754 L14.8413,143.7754 M27.8413,128.7754 L40.8413,143.7754" fill="none" style="stroke:#181818;stroke-width:0.5;"/></g><g class="participant participant-tail" data-participant="admin"><text fill="#000000" font-family="sans-serif" font-size="14" lengthAdjust="spacing" textLength="39.6826" x="5" y="1474.7773">Admin</text><ellipse cx="27.8413" cy="1486.3535" fill="#E2E2F0" rx="8" ry="8" style="stroke:#181818;stroke-width:0.5;"/><path d="M27.8413,1494.3535 L27.8413,1521.3535 M14.8413,1502.3535 L40.8413,1502.3535 M27.8413,1521.3535 L14.8413,1536.3535 M27.8413,1521.3535 L40.8413,1536.3535" fill="none" style="stroke:#181818;stroke-width:0.5;"/></g><g class="participant participant-head" data-participant="portal"><rect fill="#E2E2F0" height="31.6094" rx="2.5" ry="2.5" style="stroke:#181818;stroke-width:0.5;" width="94.1445" x="405.8013" y="130.2754"/><text fill="#000000" font-family="sans-serif" font-size="14" lengthAdjust="spacing" textLength="80.1445" x="412.8013" y="151.8086">Admin Portal</text></g><g class="participant participant-tail" data-participant="portal"><rect fill="#E2E2F0" height="31.6094" rx="2.5" ry="2.5" style="stroke:#181818;stroke-width:0.5;" width="94.1445" x="405.8013" y="1460.2441"/><text fill="#000000" font-family="sans-serif" font-size="14" lengthAdjust="spacing" textLength="80.1445" x="412.8013" y="1481.7773">Admin Portal</text></g><g class="participant participant-head" data-participant="gateway"><rect fill="#E2E2F0" height="31.6094" rx="2.5" ry="2.5" style="stroke:#181818;stroke-width:0.5;" width="95.7031" x="647.3726" y="130.2754"/><text fill="#000000" font-family="sans-serif" font-size="14" lengthAdjust="spacing" textLength="81.7031" x="654.3726" y="151.8086">API Gateway</text></g><g class="participant participant-tail" data-participant="gateway"><rect fill="#E2E2F0" height="31.6094" rx="2.5" ry="2.5" style="stroke:#181818;stroke-width:0.5;" width="95.7031" x="647.3726" y="1460.2441"/><text fill="#000000" font-family="sans-serif" font-size="14" lengthAdjust="spacing" textLength="81.7031" x="654.3726" y="1481.7773">API Gateway</text></g><g class="participant participant-head" data-participant="monitorService"><rect fill="#E2E2F0" height="49.2188" rx="2.5" ry="2.5" style="stroke:#181818;stroke-width:0.5;" width="79.3652" x="876.814" y="112.666"/><text fill="#000000" font-family="sans-serif" font-size="14" lengthAdjust="spacing" textLength="65.3652" x="883.814" y="134.1992">Monitoring</text><text fill="#000000" font-family="sans-serif" font-size="14" lengthAdjust="spacing" textLength="46.6826" x="893.1553" y="151.8086">Service</text></g><g class="participant participant-tail" data-participant="monitorService"><rect fill="#E2E2F0" height="49.2188" rx="2.5" ry="2.5" style="stroke:#181818;stroke-width:0.5;" width="79.3652" x="876.814" y="1460.2441"/><text fill="#000000" font-family="sans-serif" font-size="14" lengthAdjust="spacing" textLength="65.3652" x="883.814" y="1481.7773">Monitoring</text><text fill="#000000" font-family="sans-serif" font-size="14" lengthAdjust="spacing" textLength="46.6826" x="893.1553" y="1499.3867">Service</text></g><g class="participant participant-head" data-participant="components"><rect fill="#E2E2F0" height="49.2188" rx="2.5" ry="2.5" style="stroke:#181818;stroke-width:0.5;" width="93.3789" x="1104.9404" y="112.666"/><text fill="#000000" font-family="sans-serif" font-size="14" lengthAdjust="spacing" textLength="46.6758" x="1128.292" y="134.1992">System</text><text fill="#000000" font-family="sans-serif" font-size="14" lengthAdjust="spacing" textLength="79.3789" x="1111.9404" y="151.8086">Components</text></g><g class="participant participant-tail" data-participant="components"><rect fill="#E2E2F0" height="49.2188" rx="2.5" ry="2.5" style="stroke:#181818;stroke-width:0.5;" width="93.3789" x="1104.9404" y="1460.2441"/><text fill="#000000" font-family="sans-serif" font-size="14" lengthAdjust="spacing" textLength="46.6758" x="1128.292" y="1481.7773">System</text><text fill="#000000" font-family="sans-serif" font-size="14" lengthAdjust="spacing" textLength="79.3789" x="1111.9404" y="1499.3867">Components</text></g><g class="participant participant-head" data-participant="metricsDB"><text fill="#000000" font-family="sans-serif" font-size="14" lengthAdjust="spacing" textLength="45.1104" x="1215.7295" y="142.1992">Metrics</text><text fill="#000000" font-family="sans-serif" font-size="14" lengthAdjust="spacing" textLength="59.9307" x="1208.3193" y="159.8086">Database</text><path d="M1223.2847,91.666 C1223.2847,81.666 1241.2847,81.666 1241.2847,81.666 C1241.2847,81.666 1259.2847,81.666 1259.2847,91.666 L1259.2847,117.666 C1259.2847,127.666 1241.2847,127.666 1241.2847,127.666 C1241.2847,127.666 1223.2847,127.666 1223.2847,117.666 L1223.2847,91.666" fill="#E2E2F0" style="stroke:#181818;stroke-width:1.5;"/><path d="M1223.2847,91.666 C1223.2847,101.666 1241.2847,101.666 1241.2847,101.666 C1241.2847,101.666 1259.2847,101.666 1259.2847,91.666" fill="none" style="stroke:#181818;stroke-width:1.5;"/></g><g class="participant participant-tail" data-participant="metricsDB"><text fill="#000000" font-family="sans-serif" font-size="14" lengthAdjust="spacing" textLength="45.1104" x="1215.7295" y="1474.7773">Metrics</text><text fill="#000000" font-family="sans-serif" font-size="14" lengthAdjust="spacing" textLength="59.9307" x="1208.3193" y="1492.3867">Database</text><path d="M1223.2847,1505.4629 C1223.2847,1495.4629 1241.2847,1495.4629 1241.2847,1495.4629 C1241.2847,1495.4629 1259.2847,1495.4629 1259.2847,1505.4629 L1259.2847,1531.4629 C1259.2847,1541.4629 1241.2847,1541.4629 1241.2847,1541.4629 C1241.2847,1541.4629 1223.2847,1541.4629 1223.2847,1531.4629 L1223.2847,1505.4629" fill="#E2E2F0" style="stroke:#181818;stroke-width:1.5;"/><path d="M1223.2847,1505.4629 C1223.2847,1515.4629 1241.2847,1515.4629 1241.2847,1515.4629 C1241.2847,1515.4629 1259.2847,1515.4629 1259.2847,1505.4629" fill="none" style="stroke:#181818;stroke-width:1.5;"/></g><rect fill="#EEEEEE" height="3" style="stroke:#EEEEEE;stroke-width:1;" width="1279.25" x="0" y="194.0605"/><line style="stroke:#000000;stroke-width:1;" x1="0" x2="1279.25" y1="194.0605" y2="194.0605"/><line style="stroke:#000000;stroke-width:1;" x1="0" x2="1279.25" y1="197.0605" y2="197.0605"/><rect fill="#EEEEEE" height="24.3516" style="stroke:#000000;stroke-width:2;" width="162.1226" x="558.5637" y="182.8848"/><text fill="#000000" font-family="sans-serif" font-size="13" font-weight="bold" lengthAdjust="spacing" textLength="144.5107" x="564.5637" y="200.3799">Main Success Scenario</text><g class="message" data-participant-1="admin" data-participant-2="portal"><polygon fill="#181818" points="440.8735,235.5879,450.8735,239.5879,440.8735,243.5879,444.8735,239.5879" style="stroke:#181818;stroke-width:1;"/><line style="stroke:#181818;stroke-width:1;" x1="27.8413" x2="446.8735" y1="239.5879" y2="239.5879"/><text fill="#000000" font-family="sans-serif" font-size="13" lengthAdjust="spacing" textLength="151.7344" x="164.4902" y="234.7314">Access system dashboard</text></g><g class="message" data-participant-1="portal" data-participant-2="gateway"><polygon fill="#181818" points="683.2241,265.9395,693.2241,269.9395,683.2241,273.9395,687.2241,269.9395" style="stroke:#181818;stroke-width:1;"/><line style="stroke:#181818;stroke-width:1;" x1="452.8735" x2="689.2241" y1="269.9395" y2="269.9395"/><text fill="#000000" font-family="sans-serif" font-size="13" lengthAdjust="spacing" textLength="131.498" x="508.2998" y="265.083">Request system status</text></g><g class="message" data-participant-1="gateway" data-participant-2="monitorService"><polygon fill="#181818" points="904.4966,296.291,914.4966,300.291,904.4966,304.291,908.4966,300.291" style="stroke:#181818;stroke-width:1;"/><line style="stroke:#181818;stroke-width:1;" x1="695.2241" x2="910.4966" y1="300.291" y2="300.291"/><text fill="#000000" font-family="sans-serif" font-size="13" lengthAdjust="spacing" textLength="132.9453" x="739.3877" y="295.4346">Forward status request</text></g><g class="message" data-participant-1="monitorService" data-participant-2="components"><polygon fill="#181818" points="1139.6299,326.6426,1149.6299,330.6426,1139.6299,334.6426,1143.6299,330.6426" style="stroke:#181818;stroke-width:1;"/><line style="stroke:#181818;stroke-width:1;" x1="916.4966" x2="1145.6299" y1="330.6426" y2="330.6426"/><text fill="#000000" font-family="sans-serif" font-size="13" lengthAdjust="spacing" textLength="165.4771" x="951.3247" y="325.7861">Poll status of all components</text></g><g class="message" data-participant-1="components" data-participant-2="monitorService"><polygon fill="#181818" points="927.4966,356.9941,917.4966,360.9941,927.4966,364.9941,923.4966,360.9941" style="stroke:#181818;stroke-width:1;"/><line style="stroke:#181818;stroke-width:1;stroke-dasharray:2.0,2.0;" x1="921.4966" x2="1150.6299" y1="360.9941" y2="360.9941"/><text fill="#000000" font-family="sans-serif" font-size="13" lengthAdjust="spacing" textLength="100.4453" x="983.8406" y="356.1377">Status responses</text></g><g class="message" data-participant-1="monitorService" data-participant-2="metricsDB"><polygon fill="#181818" points="1229.2847,387.3457,1239.2847,391.3457,1229.2847,395.3457,1233.2847,391.3457" style="stroke:#181818;stroke-width:1;"/><line style="stroke:#181818;stroke-width:1;" x1="916.4966" x2="1235.2847" y1="391.3457" y2="391.3457"/><text fill="#000000" font-family="sans-serif" font-size="13" lengthAdjust="spacing" textLength="197.2344" x="980.2734" y="386.4893">Query recent performance metrics</text></g><g class="message" data-participant-1="metricsDB" data-participant-2="monitorService"><polygon fill="#181818" points="927.4966,417.6973,917.4966,421.6973,927.4966,425.6973,923.4966,421.6973" style="stroke:#181818;stroke-width:1;"/><line style="stroke:#181818;stroke-width:1;stroke-dasharray:2.0,2.0;" x1="921.4966" x2="1240.2847" y1="421.6973" y2="421.6973"/><text fill="#000000" font-family="sans-serif" font-size="13" lengthAdjust="spacing" textLength="144.5234" x="1006.6289" y="416.8408">Return performance data</text></g><g class="message" data-participant-1="monitorService" data-participant-2="monitorService"><line style="stroke:#181818;stroke-width:1;" x1="916.4966" x2="958.4966" y1="452.0488" y2="452.0488"/><line style="stroke:#181818;stroke-width:1;" x1="958.4966" x2="958.4966" y1="452.0488" y2="465.0488"/><line style="stroke:#181818;stroke-width:1;" x1="917.4966" x2="958.4966" y1="465.0488" y2="465.0488"/><polygon fill="#181818" points="927.4966,461.0488,917.4966,465.0488,927.4966,469.0488,923.4966,465.0488" style="stroke:#181818;stroke-width:1;"/><text fill="#000000" font-family="sans-serif" font-size="13" lengthAdjust="spacing" textLength="166.207" x="923.4966" y="447.1924">Aggregate status information</text></g><g class="message" data-participant-1="monitorService" data-participant-2="monitorService"><line style="stroke:#181818;stroke-width:1;" x1="916.4966" x2="958.4966" y1="495.4004" y2="495.4004"/><line style="stroke:#181818;stroke-width:1;" x1="958.4966" x2="958.4966" y1="495.4004" y2="508.4004"/><line style="stroke:#181818;stroke-width:1;" x1="917.4966" x2="958.4966" y1="508.4004" y2="508.4004"/><polygon fill="#181818" points="927.4966,504.4004,917.4966,508.4004,927.4966,512.4004,923.4966,508.4004" style="stroke:#181818;stroke-width:1;"/><text fill="#000000" font-family="sans-serif" font-size="13" lengthAdjust="spacing" textLength="152.4771" x="923.4966" y="490.5439">Calculate health indicators</text></g><g class="message" data-participant-1="monitorService" data-participant-2="gateway"><polygon fill="#181818" points="706.2241,534.752,696.2241,538.752,706.2241,542.752,702.2241,538.752" style="stroke:#181818;stroke-width:1;"/><line style="stroke:#181818;stroke-width:1;" x1="700.2241" x2="915.4966" y1="538.752" y2="538.752"/><text fill="#000000" font-family="sans-serif" font-size="13" lengthAdjust="spacing" textLength="177.0044" x="717.3582" y="533.8955">Return system status overview</text></g><g class="message" data-participant-1="gateway" data-participant-2="portal"><polygon fill="#181818" points="463.8735,565.1035,453.8735,569.1035,463.8735,573.1035,459.8735,569.1035" style="stroke:#181818;stroke-width:1;"/><line style="stroke:#181818;stroke-width:1;" x1="457.8735" x2="694.2241" y1="569.1035" y2="569.1035"/><text fill="#000000" font-family="sans-serif" font-size="13" lengthAdjust="spacing" textLength="153.8926" x="497.1025" y="564.2471">Forward status information</text></g><g class="message" data-participant-1="portal" data-participant-2="portal"><line style="stroke:#181818;stroke-width:1;" x1="452.8735" x2="494.8735" y1="599.4551" y2="599.4551"/><line style="stroke:#181818;stroke-width:1;" x1="494.8735" x2="494.8735" y1="599.4551" y2="612.4551"/><line style="stroke:#181818;stroke-width:1;" x1="453.8735" x2="494.8735" y1="612.4551" y2="612.4551"/><polygon fill="#181818" points="463.8735,608.4551,453.8735,612.4551,463.8735,616.4551,459.8735,612.4551" style="stroke:#181818;stroke-width:1;"/><text fill="#000000" font-family="sans-serif" font-size="13" lengthAdjust="spacing" textLength="145.9834" x="459.8735" y="594.5986">Render status dashboard</text></g><g class="message" data-participant-1="portal" data-participant-2="admin"><polygon fill="#181818" points="38.8413,638.8066,28.8413,642.8066,38.8413,646.8066,34.8413,642.8066" style="stroke:#181818;stroke-width:1;"/><line style="stroke:#181818;stroke-width:1;" x1="32.8413" x2="451.8735" y1="642.8066" y2="642.8066"/><text fill="#000000" font-family="sans-serif" font-size="13" lengthAdjust="spacing" textLength="135.8271" x="172.4438" y="637.9502">Display status overview</text></g><g class="message" data-participant-1="admin" data-participant-2="portal"><polygon fill="#181818" points="440.8735,669.1582,450.8735,673.1582,440.8735,677.1582,444.8735,673.1582" style="stroke:#181818;stroke-width:1;"/><line style="stroke:#181818;stroke-width:1;" x1="27.8413" x2="446.8735" y1="673.1582" y2="673.1582"/><text fill="#000000" font-family="sans-serif" font-size="13" lengthAdjust="spacing" textLength="201.6143" x="139.5503" y="668.3018">Select component for detailed view</text></g><g class="message" data-participant-1="portal" data-participant-2="gateway"><polygon fill="#181818" points="683.2241,699.5098,693.2241,703.5098,683.2241,707.5098,687.2241,703.5098" style="stroke:#181818;stroke-width:1;"/><line style="stroke:#181818;stroke-width:1;" x1="452.8735" x2="689.2241" y1="703.5098" y2="703.5098"/><text fill="#000000" font-family="sans-serif" font-size="13" lengthAdjust="spacing" textLength="157.5425" x="495.2776" y="698.6533">Request component details</text></g><g class="message" data-participant-1="gateway" data-participant-2="monitorService"><polygon fill="#181818" points="904.4966,729.8613,914.4966,733.8613,904.4966,737.8613,908.4966,733.8613" style="stroke:#181818;stroke-width:1;"/><line style="stroke:#181818;stroke-width:1;" x1="695.2241" x2="910.4966" y1="733.8613" y2="733.8613"/><text fill="#000000" font-family="sans-serif" font-size="13" lengthAdjust="spacing" textLength="197.2725" x="707.2241" y="729.0049">Forward component detail request</text></g><g class="message" data-participant-1="monitorService" data-participant-2="metricsDB"><polygon fill="#181818" points="1229.2847,760.2129,1239.2847,764.2129,1229.2847,768.2129,1233.2847,764.2129" style="stroke:#181818;stroke-width:1;"/><line style="stroke:#181818;stroke-width:1;" x1="916.4966" x2="1235.2847" y1="764.2129" y2="764.2129"/><text fill="#000000" font-family="sans-serif" font-size="13" lengthAdjust="spacing" textLength="197.9834" x="979.8989" y="759.3564">Query detailed component metrics</text></g><g class="message" data-participant-1="metricsDB" data-participant-2="monitorService"><polygon fill="#181818" points="927.4966,790.5645,917.4966,794.5645,927.4966,798.5645,923.4966,794.5645" style="stroke:#181818;stroke-width:1;"/><line style="stroke:#181818;stroke-width:1;stroke-dasharray:2.0,2.0;" x1="921.4966" x2="1240.2847" y1="794.5645" y2="794.5645"/><text fill="#000000" font-family="sans-serif" font-size="13" lengthAdjust="spacing" textLength="133.6689" x="1012.0562" y="789.708">Return detailed metrics</text></g><g class="message" data-participant-1="monitorService" data-participant-2="gateway"><polygon fill="#181818" points="706.2241,820.916,696.2241,824.916,706.2241,828.916,702.2241,824.916" style="stroke:#181818;stroke-width:1;"/><line style="stroke:#181818;stroke-width:1;" x1="700.2241" x2="915.4966" y1="824.916" y2="824.916"/><text fill="#000000" font-family="sans-serif" font-size="13" lengthAdjust="spacing" textLength="148.1416" x="731.7896" y="820.0596">Return component details</text></g><g class="message" data-participant-1="gateway" data-participant-2="portal"><polygon fill="#181818" points="463.8735,851.2676,453.8735,855.2676,463.8735,859.2676,459.8735,855.2676" style="stroke:#181818;stroke-width:1;"/><line style="stroke:#181818;stroke-width:1;" x1="457.8735" x2="694.2241" y1="855.2676" y2="855.2676"/><text fill="#000000" font-family="sans-serif" font-size="13" lengthAdjust="spacing" textLength="156.7998" x="495.6489" y="850.4111">Forward component details</text></g><g class="message" data-participant-1="portal" data-participant-2="portal"><line style="stroke:#181818;stroke-width:1;" x1="452.8735" x2="494.8735" y1="885.6191" y2="885.6191"/><line style="stroke:#181818;stroke-width:1;" x1="494.8735" x2="494.8735" y1="885.6191" y2="898.6191"/><line style="stroke:#181818;stroke-width:1;" x1="453.8735" x2="494.8735" y1="898.6191" y2="898.6191"/><polygon fill="#181818" points="463.8735,894.6191,453.8735,898.6191,463.8735,902.6191,459.8735,898.6191" style="stroke:#181818;stroke-width:1;"/><text fill="#000000" font-family="sans-serif" font-size="13" lengthAdjust="spacing" textLength="189.3379" x="459.8735" y="880.7627">Render detailed component view</text></g><g class="message" data-participant-1="portal" data-participant-2="admin"><polygon fill="#181818" points="38.8413,924.9707,28.8413,928.9707,38.8413,932.9707,34.8413,928.9707" style="stroke:#181818;stroke-width:1;"/><line style="stroke:#181818;stroke-width:1;" x1="32.8413" x2="451.8735" y1="928.9707" y2="928.9707"/><text fill="#000000" font-family="sans-serif" font-size="13" lengthAdjust="spacing" textLength="151.7471" x="164.4839" y="924.1143">Display component details</text></g><rect fill="#EEEEEE" height="3" style="stroke:#EEEEEE;stroke-width:1;" width="1279.25" x="0" y="958.1465"/><line style="stroke:#000000;stroke-width:1;" x1="0" x2="1279.25" y1="958.1465" y2="958.1465"/><line style="stroke:#000000;stroke-width:1;" x1="0" x2="1279.25" y1="961.1465" y2="961.1465"/><rect fill="#EEEEEE" height="24.3516" style="stroke:#000000;stroke-width:2;" width="362.2134" x="458.5183" y="946.9707"/><text fill="#000000" font-family="sans-serif" font-size="13" font-weight="bold" lengthAdjust="spacing" textLength="344.6016" x="464.5183" y="964.4658">Alternative Scenario: System Components Unreachable</text><g class="message" data-participant-1="admin" data-participant-2="portal"><polygon fill="#181818" points="440.8735,999.6738,450.8735,1003.6738,440.8735,1007.6738,444.8735,1003.6738" style="stroke:#181818;stroke-width:1;"/><line style="stroke:#181818;stroke-width:1;" x1="27.8413" x2="446.8735" y1="1003.6738" y2="1003.6738"/><text fill="#000000" font-family="sans-serif" font-size="13" lengthAdjust="spacing" textLength="151.7344" x="164.4902" y="998.8174">Access system dashboard</text></g><g class="message" data-participant-1="portal" data-participant-2="gateway"><polygon fill="#181818" points="683.2241,1030.0254,693.2241,1034.0254,683.2241,1038.0254,687.2241,1034.0254" style="stroke:#181818;stroke-width:1;"/><line style="stroke:#181818;stroke-width:1;" x1="452.8735" x2="689.2241" y1="1034.0254" y2="1034.0254"/><text fill="#000000" font-family="sans-serif" font-size="13" lengthAdjust="spacing" textLength="131.498" x="508.2998" y="1029.1689">Request system status</text></g><g class="message" data-participant-1="gateway" data-participant-2="monitorService"><polygon fill="#181818" points="904.4966,1060.377,914.4966,1064.377,904.4966,1068.377,908.4966,1064.377" style="stroke:#181818;stroke-width:1;"/><line style="stroke:#181818;stroke-width:1;" x1="695.2241" x2="910.4966" y1="1064.377" y2="1064.377"/><text fill="#000000" font-family="sans-serif" font-size="13" lengthAdjust="spacing" textLength="132.9453" x="739.3877" y="1059.5205">Forward status request</text></g><g class="message" data-participant-1="monitorService" data-participant-2="components"><polygon fill="#181818" points="1139.6299,1090.7285,1149.6299,1094.7285,1139.6299,1098.7285,1143.6299,1094.7285" style="stroke:#181818;stroke-width:1;"/><line style="stroke:#181818;stroke-width:1;" x1="916.4966" x2="1145.6299" y1="1094.7285" y2="1094.7285"/><text fill="#000000" font-family="sans-serif" font-size="13" lengthAdjust="spacing" textLength="165.4771" x="951.3247" y="1089.8721">Poll status of all components</text></g><path d="M875,1107.7285 L875,1133.7285 L1191,1133.7285 L1191,1117.7285 L1181,1107.7285 L875,1107.7285" fill="#FEFFDD" style="stroke:#181818;stroke-width:0.5;"/><path d="M1181,1107.7285 L1181,1117.7285 L1191,1117.7285 L1181,1107.7285" fill="#FEFFDD" style="stroke:#181818;stroke-width:0.5;"/><text fill="#000000" font-family="sans-serif" font-size="13" lengthAdjust="spacing" textLength="183.5615" x="936.9719" y="1126.2236">Some components unreachable</text><g class="message" data-participant-1="monitorService" data-participant-2="metricsDB"><polygon fill="#181818" points="1229.2847,1157.4316,1239.2847,1161.4316,1229.2847,1165.4316,1233.2847,1161.4316" style="stroke:#181818;stroke-width:1;"/><line style="stroke:#181818;stroke-width:1;" x1="916.4966" x2="1235.2847" y1="1161.4316" y2="1161.4316"/><text fill="#000000" font-family="sans-serif" font-size="13" lengthAdjust="spacing" textLength="138.728" x="1009.5266" y="1156.5752">Query last known status</text></g><g class="message" data-participant-1="metricsDB" data-participant-2="monitorService"><polygon fill="#181818" points="927.4966,1187.7832,917.4966,1191.7832,927.4966,1195.7832,923.4966,1191.7832" style="stroke:#181818;stroke-width:1;"/><line style="stroke:#181818;stroke-width:1;stroke-dasharray:2.0,2.0;" x1="921.4966" x2="1240.2847" y1="1191.7832" y2="1191.7832"/><text fill="#000000" font-family="sans-serif" font-size="13" lengthAdjust="spacing" textLength="229.7661" x="964.0076" y="1186.9268">Return last known data with timestamps</text></g><g class="message" data-participant-1="monitorService" data-participant-2="monitorService"><line style="stroke:#181818;stroke-width:1;" x1="916.4966" x2="958.4966" y1="1222.1348" y2="1222.1348"/><line style="stroke:#181818;stroke-width:1;" x1="958.4966" x2="958.4966" y1="1222.1348" y2="1235.1348"/><line style="stroke:#181818;stroke-width:1;" x1="917.4966" x2="958.4966" y1="1235.1348" y2="1235.1348"/><polygon fill="#181818" points="927.4966,1231.1348,917.4966,1235.1348,927.4966,1239.1348,923.4966,1235.1348" style="stroke:#181818;stroke-width:1;"/><text fill="#000000" font-family="sans-serif" font-size="13" lengthAdjust="spacing" textLength="221.1333" x="923.4966" y="1217.2783">Aggregate available status information</text></g><g class="message" data-participant-1="monitorService" data-participant-2="monitorService"><line style="stroke:#181818;stroke-width:1;" x1="916.4966" x2="958.4966" y1="1265.4863" y2="1265.4863"/><line style="stroke:#181818;stroke-width:1;" x1="958.4966" x2="958.4966" y1="1265.4863" y2="1278.4863"/><line style="stroke:#181818;stroke-width:1;" x1="917.4966" x2="958.4966" y1="1278.4863" y2="1278.4863"/><polygon fill="#181818" points="927.4966,1274.4863,917.4966,1278.4863,927.4966,1282.4863,923.4966,1278.4863" style="stroke:#181818;stroke-width:1;"/><text fill="#000000" font-family="sans-serif" font-size="13" lengthAdjust="spacing" textLength="178.4897" x="923.4966" y="1260.6299">Mark unreachable components</text></g><g class="message" data-participant-1="monitorService" data-participant-2="gateway"><polygon fill="#181818" points="706.2241,1304.8379,696.2241,1308.8379,706.2241,1312.8379,702.2241,1308.8379" style="stroke:#181818;stroke-width:1;"/><line style="stroke:#181818;stroke-width:1;" x1="700.2241" x2="915.4966" y1="1308.8379" y2="1308.8379"/><text fill="#000000" font-family="sans-serif" font-size="13" lengthAdjust="spacing" textLength="161.1162" x="725.3022" y="1303.9814">Return partial system status</text></g><g class="message" data-participant-1="gateway" data-participant-2="portal"><polygon fill="#181818" points="463.8735,1335.1895,453.8735,1339.1895,463.8735,1343.1895,459.8735,1339.1895" style="stroke:#181818;stroke-width:1;"/><line style="stroke:#181818;stroke-width:1;" x1="457.8735" x2="694.2241" y1="1339.1895" y2="1339.1895"/><text fill="#000000" font-family="sans-serif" font-size="13" lengthAdjust="spacing" textLength="153.8926" x="497.1025" y="1334.333">Forward status information</text></g><g class="message" data-participant-1="portal" data-participant-2="portal"><line style="stroke:#181818;stroke-width:1;" x1="452.8735" x2="494.8735" y1="1369.541" y2="1369.541"/><line style="stroke:#181818;stroke-width:1;" x1="494.8735" x2="494.8735" y1="1369.541" y2="1382.541"/><line style="stroke:#181818;stroke-width:1;" x1="453.8735" x2="494.8735" y1="1382.541" y2="1382.541"/><polygon fill="#181818" points="463.8735,1378.541,453.8735,1382.541,463.8735,1386.541,459.8735,1382.541" style="stroke:#181818;stroke-width:1;"/><text fill="#000000" font-family="sans-serif" font-size="13" lengthAdjust="spacing" textLength="228.3506" x="459.8735" y="1364.6846">Render status dashboard with warnings</text></g><g class="message" data-participant-1="portal" data-participant-2="admin"><polygon fill="#181818" points="38.8413,1408.8926,28.8413,1412.8926,38.8413,1416.8926,34.8413,1412.8926" style="stroke:#181818;stroke-width:1;"/><line style="stroke:#181818;stroke-width:1;" x1="32.8413" x2="451.8735" y1="1412.8926" y2="1412.8926"/><text fill="#000000" font-family="sans-serif" font-size="13" lengthAdjust="spacing" textLength="366.3423" x="57.1863" y="1408.0361">Display status overview with alerts for unreachable components</text></g><g class="message" data-participant-1="portal" data-participant-2="admin"><polygon fill="#181818" points="38.8413,1439.2441,28.8413,1443.2441,38.8413,1447.2441,34.8413,1443.2441" style="stroke:#181818;stroke-width:1;"/><line style="stroke:#181818;stroke-width:1;" x1="32.8413" x2="451.8735" y1="1443.2441" y2="1443.2441"/><text fill="#000000" font-family="sans-serif" font-size="13" lengthAdjust="spacing" textLength="401.0322" x="39.8413" y="1438.3877">Show last known status with timestamps for unreachable components</text></g><!--SRC=[tLNBRjim4BppAnO-rwUY5m4ku3feqOE1D49kkQofZKIO8bMIif2_x-hzi98uHK-zqUJCahip7lcpCWKwpC7JxvACf2DvZodjjKeDI3A1dF03weJod3fRckHWjNLGPIhGv3n3arHEXK06db5x4YAee0asZuVjvoyH73AIPuXVVA0Sue2Xz1iXK0OkjjadkJ8RG0zOhmJN34gg0ate3k7Uke2wmHJDSW6w_ma_C525BmqcRTTpqD4QnVSfapwPcDn5IMh0URlVRSqvxOkVpC7cXJKy5jzGvF1J91ZmX9vRFL9mIledSzTjjTNRtRjlGknsS4Hk9Ywbv753p7D6fopiTZoBfi_jrww_2FOjoBSpIz1d9uik4UrvZUowZE2X5j677kkR-Ohkk4REMupWktKLr-gGu5g-47DSpHmxZLW4hNkAVGRaNvD1Z4lOhbmPzrTvHddoQvSDiuhWLqdkXT6r5Q4WzsnTZkpJ7YC6xEfj3nHAPsR4MgZLInVKVPewgcVNjwfCKoCeQswW7r3BKjVqZ527ZEc9aiWGlyAUIDWyUAOWs4kDf6egPM-FXOJJHquiqgCVo2JaUl2QcHh_HN2dVA7vfkKBhlqPaoOPHWS0Fm0I2gWq9T2Gth3gI6ifDzbrIHgCUuELXfUDHJvafO4_iDuLyyqUbpfUWr-NSQMNnRmNQguKvp3QQqvvmvwvq915KH_IO-B1et64CiCJ1_f_4LN6yj-pjlRYja-p6h7DQR81vJY6cy9B8_TvDhOoVPit6Mr2goCBAiKX4bJENMDU-8z565vOxKQulmgp8xhpjE_f4D_tV_CbPVrVrVgVPbaxAAvZ-0llRqwsbeQQ74jSHzWhxLxLYpDRNMkybEkjady0]--></g></svg>