<svg xmlns="http://www.w3.org/2000/svg" xmlns:xlink="http://www.w3.org/1999/xlink" contentStyleType="text/css" data-diagram-type="SEQUENCE" height="2283px" preserveAspectRatio="none" style="width:1180px;height:2283px;background:#FFFFFF;" version="1.1" viewBox="0 0 1180 2283" width="1180px" zoomAndPan="magnify"><title>UC-37: Manage Roles</title><defs/><g><rect fill="#FFFFCC" height="28.0566" rx="2.5" ry="2.5" style="stroke:#FFDD88;stroke-width:3;" width="1169.0718" x="5" y="5"/><text fill="#000000" font-family="monospace" font-size="10" lengthAdjust="spacing" textLength="354.0576" x="10" y="20">Please&#160;use&#160;'!option&#160;handwritten&#160;true'&#160;to&#160;enable&#160;handwritten</text><text fill="#000000" font-family="sans-serif" font-size="14" font-weight="bold" lengthAdjust="spacing" textLength="143.1445" x="506.9636" y="67.5898">UC-37: Manage Roles</text><g><title>Admin</title><rect fill="#000000" fill-opacity="0.00000" height="2042.5" width="8" x="23.8413" y="159.2754"/><line style="stroke:#181818;stroke-width:0.5;stroke-dasharray:5.0,5.0;" x1="27" x2="27" y1="159.2754" y2="2201.7754"/></g><g><title>Admin Portal</title><rect fill="#000000" fill-opacity="0.00000" height="2042.5" width="8" x="294.9556" y="159.2754"/><line style="stroke:#181818;stroke-width:0.5;stroke-dasharray:5.0,5.0;" x1="298.8833" x2="298.8833" y1="159.2754" y2="2201.7754"/></g><g><title>API Gateway</title><rect fill="#000000" fill-opacity="0.00000" height="2042.5" width="8" x="497.5317" y="159.2754"/><line style="stroke:#181818;stroke-width:0.5;stroke-dasharray:5.0,5.0;" x1="500.6802" x2="500.6802" y1="159.2754" y2="2201.7754"/></g><g><title>User Management</title><rect fill="#000000" fill-opacity="0.00000" height="2042.5" width="8" x="687.7324" y="159.2754"/><line style="stroke:#181818;stroke-width:0.5;stroke-dasharray:5.0,5.0;" x1="691.1499" x2="691.1499" y1="159.2754" y2="2201.7754"/></g><g><title>Authorization</title><rect fill="#000000" fill-opacity="0.00000" height="2042.5" width="8" x="836.7622" y="159.2754"/><line style="stroke:#181818;stroke-width:0.5;stroke-dasharray:5.0,5.0;" x1="839.9038" x2="839.9038" y1="159.2754" y2="2201.7754"/></g><g><title>Audit</title><rect fill="#000000" fill-opacity="0.00000" height="2042.5" width="8" x="996.7202" y="159.2754"/><line style="stroke:#181818;stroke-width:0.5;stroke-dasharray:5.0,5.0;" x1="1000.3789" x2="1000.3789" y1="159.2754" y2="2201.7754"/></g><g><title>Database</title><rect fill="#000000" fill-opacity="0.00000" height="2042.5" width="8" x="1116.1064" y="159.2754"/><line style="stroke:#181818;stroke-width:0.5;stroke-dasharray:5.0,5.0;" x1="1119.1411" x2="1119.1411" y1="159.2754" y2="2201.7754"/></g><g class="participant participant-head" data-participant="admin"><text fill="#000000" font-family="sans-serif" font-size="14" lengthAdjust="spacing" textLength="39.6826" x="5" y="156.1992">Admin</text><ellipse cx="27.8413" cy="90.166" fill="#E2E2F0" rx="8" ry="8" style="stroke:#181818;stroke-width:0.5;"/><path d="M27.8413,98.166 L27.8413,125.166 M14.8413,106.166 L40.8413,106.166 M27.8413,125.166 L14.8413,140.166 M27.8413,125.166 L40.8413,140.166" fill="none" style="stroke:#181818;stroke-width:0.5;"/></g><g class="participant participant-tail" data-participant="admin"><text fill="#000000" font-family="sans-serif" font-size="14" lengthAdjust="spacing" textLength="39.6826" x="5" y="2215.3086">Admin</text><ellipse cx="27.8413" cy="2226.8848" fill="#E2E2F0" rx="8" ry="8" style="stroke:#181818;stroke-width:0.5;"/><path d="M27.8413,2234.8848 L27.8413,2261.8848 M14.8413,2242.8848 L40.8413,2242.8848 M27.8413,2261.8848 L14.8413,2276.8848 M27.8413,2261.8848 L40.8413,2276.8848" fill="none" style="stroke:#181818;stroke-width:0.5;"/></g><g class="participant participant-head" data-participant="portal"><rect fill="#E2E2F0" height="31.6094" rx="2.5" ry="2.5" style="stroke:#181818;stroke-width:0.5;" width="94.1445" x="251.8833" y="126.666"/><text fill="#000000" font-family="sans-serif" font-size="14" lengthAdjust="spacing" textLength="80.1445" x="258.8833" y="148.1992">Admin Portal</text></g><g class="participant participant-tail" data-participant="portal"><rect fill="#E2E2F0" height="31.6094" rx="2.5" ry="2.5" style="stroke:#181818;stroke-width:0.5;" width="94.1445" x="251.8833" y="2200.7754"/><text fill="#000000" font-family="sans-serif" font-size="14" lengthAdjust="spacing" textLength="80.1445" x="258.8833" y="2222.3086">Admin Portal</text></g><g class="participant participant-head" data-participant="gateway"><rect fill="#E2E2F0" height="31.6094" rx="2.5" ry="2.5" style="stroke:#181818;stroke-width:0.5;" width="95.7031" x="453.6802" y="126.666"/><text fill="#000000" font-family="sans-serif" font-size="14" lengthAdjust="spacing" textLength="81.7031" x="460.6802" y="148.1992">API Gateway</text></g><g class="participant participant-tail" data-participant="gateway"><rect fill="#E2E2F0" height="31.6094" rx="2.5" ry="2.5" style="stroke:#181818;stroke-width:0.5;" width="95.7031" x="453.6802" y="2200.7754"/><text fill="#000000" font-family="sans-serif" font-size="14" lengthAdjust="spacing" textLength="81.7031" x="460.6802" y="2222.3086">API Gateway</text></g><g class="participant participant-head" data-participant="userMgmtService"><rect fill="#E2E2F0" height="49.2188" rx="2.5" ry="2.5" style="stroke:#181818;stroke-width:0.5;" width="129.165" x="627.1499" y="109.0566"/><text fill="#000000" font-family="sans-serif" font-size="14" lengthAdjust="spacing" textLength="115.165" x="634.1499" y="130.5898">User Management</text><text fill="#000000" font-family="sans-serif" font-size="14" lengthAdjust="spacing" textLength="46.6826" x="668.3911" y="148.1992">Service</text></g><g class="participant participant-tail" data-participant="userMgmtService"><rect fill="#E2E2F0" height="49.2188" rx="2.5" ry="2.5" style="stroke:#181818;stroke-width:0.5;" width="129.165" x="627.1499" y="2200.7754"/><text fill="#000000" font-family="sans-serif" font-size="14" lengthAdjust="spacing" textLength="115.165" x="634.1499" y="2222.3086">User Management</text><text fill="#000000" font-family="sans-serif" font-size="14" lengthAdjust="spacing" textLength="46.6826" x="668.3911" y="2239.918">Service</text></g><g class="participant participant-head" data-participant="authzService"><rect fill="#E2E2F0" height="49.2188" rx="2.5" ry="2.5" style="stroke:#181818;stroke-width:0.5;" width="95.7168" x="792.9038" y="109.0566"/><text fill="#000000" font-family="sans-serif" font-size="14" lengthAdjust="spacing" textLength="81.7168" x="799.9038" y="130.5898">Authorization</text><text fill="#000000" font-family="sans-serif" font-size="14" lengthAdjust="spacing" textLength="46.6826" x="817.4209" y="148.1992">Service</text></g><g class="participant participant-tail" data-participant="authzService"><rect fill="#E2E2F0" height="49.2188" rx="2.5" ry="2.5" style="stroke:#181818;stroke-width:0.5;" width="95.7168" x="792.9038" y="2200.7754"/><text fill="#000000" font-family="sans-serif" font-size="14" lengthAdjust="spacing" textLength="81.7168" x="799.9038" y="2222.3086">Authorization</text><text fill="#000000" font-family="sans-serif" font-size="14" lengthAdjust="spacing" textLength="46.6826" x="817.4209" y="2239.918">Service</text></g><g class="participant participant-head" data-participant="auditService"><rect fill="#E2E2F0" height="49.2188" rx="2.5" ry="2.5" style="stroke:#181818;stroke-width:0.5;" width="60.6826" x="970.3789" y="109.0566"/><text fill="#000000" font-family="sans-serif" font-size="14" lengthAdjust="spacing" textLength="31.9102" x="984.7651" y="130.5898">Audit</text><text fill="#000000" font-family="sans-serif" font-size="14" lengthAdjust="spacing" textLength="46.6826" x="977.3789" y="148.1992">Service</text></g><g class="participant participant-tail" data-participant="auditService"><rect fill="#E2E2F0" height="49.2188" rx="2.5" ry="2.5" style="stroke:#181818;stroke-width:0.5;" width="60.6826" x="970.3789" y="2200.7754"/><text fill="#000000" font-family="sans-serif" font-size="14" lengthAdjust="spacing" textLength="31.9102" x="984.7651" y="2222.3086">Audit</text><text fill="#000000" font-family="sans-serif" font-size="14" lengthAdjust="spacing" textLength="46.6826" x="977.3789" y="2239.918">Service</text></g><g class="participant participant-head" data-participant="db"><text fill="#000000" font-family="sans-serif" font-size="14" lengthAdjust="spacing" textLength="59.9307" x="1087.1411" y="156.1992">Database</text><path d="M1102.1064,105.666 C1102.1064,95.666 1120.1064,95.666 1120.1064,95.666 C1120.1064,95.666 1138.1064,95.666 1138.1064,105.666 L1138.1064,131.666 C1138.1064,141.666 1120.1064,141.666 1120.1064,141.666 C1120.1064,141.666 1102.1064,141.666 1102.1064,131.666 L1102.1064,105.666" fill="#E2E2F0" style="stroke:#181818;stroke-width:1.5;"/><path d="M1102.1064,105.666 C1102.1064,115.666 1120.1064,115.666 1120.1064,115.666 C1120.1064,115.666 1138.1064,115.666 1138.1064,105.666" fill="none" style="stroke:#181818;stroke-width:1.5;"/></g><g class="participant participant-tail" data-participant="db"><text fill="#000000" font-family="sans-serif" font-size="14" lengthAdjust="spacing" textLength="59.9307" x="1087.1411" y="2215.3086">Database</text><path d="M1102.1064,2228.3848 C1102.1064,2218.3848 1120.1064,2218.3848 1120.1064,2218.3848 C1120.1064,2218.3848 1138.1064,2218.3848 1138.1064,2228.3848 L1138.1064,2254.3848 C1138.1064,2264.3848 1120.1064,2264.3848 1120.1064,2264.3848 C1120.1064,2264.3848 1102.1064,2264.3848 1102.1064,2254.3848 L1102.1064,2228.3848" fill="#E2E2F0" style="stroke:#181818;stroke-width:1.5;"/><path d="M1102.1064,2228.3848 C1102.1064,2238.3848 1120.1064,2238.3848 1120.1064,2238.3848 C1120.1064,2238.3848 1138.1064,2238.3848 1138.1064,2228.3848" fill="none" style="stroke:#181818;stroke-width:1.5;"/></g><rect fill="#EEEEEE" height="3" style="stroke:#EEEEEE;stroke-width:1;" width="1158.0718" x="0" y="190.4512"/><line style="stroke:#000000;stroke-width:1;" x1="0" x2="1158.0718" y1="190.4512" y2="190.4512"/><line style="stroke:#000000;stroke-width:1;" x1="0" x2="1158.0718" y1="193.4512" y2="193.4512"/><rect fill="#EEEEEE" height="24.3516" style="stroke:#000000;stroke-width:2;" width="162.1226" x="497.9746" y="179.2754"/><text fill="#000000" font-family="sans-serif" font-size="13" font-weight="bold" lengthAdjust="spacing" textLength="144.5107" x="503.9746" y="196.7705">Main Success Scenario</text><g class="message" data-participant-1="admin" data-participant-2="portal"><polygon fill="#181818" points="286.9556,231.9785,296.9556,235.9785,286.9556,239.9785,290.9556,235.9785" style="stroke:#181818;stroke-width:1;"/><line style="stroke:#181818;stroke-width:1;" x1="27.8413" x2="292.9556" y1="235.9785" y2="235.9785"/><text fill="#000000" font-family="sans-serif" font-size="13" lengthAdjust="spacing" textLength="146.6816" x="90.0576" y="231.1221">Access role management</text></g><g class="message" data-participant-1="portal" data-participant-2="gateway"><polygon fill="#181818" points="489.5317,262.3301,499.5317,266.3301,489.5317,270.3301,493.5317,266.3301" style="stroke:#181818;stroke-width:1;"/><line style="stroke:#181818;stroke-width:1;" x1="298.9556" x2="495.5317" y1="266.3301" y2="266.3301"/><text fill="#000000" font-family="sans-serif" font-size="13" lengthAdjust="spacing" textLength="96.8208" x="351.8333" y="261.4736">Request user list</text></g><g class="message" data-participant-1="gateway" data-participant-2="userMgmtService"><polygon fill="#181818" points="679.7324,292.6816,689.7324,296.6816,679.7324,300.6816,683.7324,296.6816" style="stroke:#181818;stroke-width:1;"/><line style="stroke:#181818;stroke-width:1;" x1="501.5317" x2="685.7324" y1="296.6816" y2="296.6816"/><text fill="#000000" font-family="sans-serif" font-size="13" lengthAdjust="spacing" textLength="143.0508" x="525.1067" y="291.8252">Forward user list request</text></g><g class="message" data-participant-1="userMgmtService" data-participant-2="db"><polygon fill="#181818" points="1108.1064,323.0332,1118.1064,327.0332,1108.1064,331.0332,1112.1064,327.0332" style="stroke:#181818;stroke-width:1;"/><line style="stroke:#181818;stroke-width:1;" x1="691.7324" x2="1114.1064" y1="327.0332" y2="327.0332"/><text fill="#000000" font-family="sans-serif" font-size="13" lengthAdjust="spacing" textLength="119.9453" x="845.9468" y="322.1768">Query user accounts</text></g><g class="message" data-participant-1="db" data-participant-2="userMgmtService"><polygon fill="#181818" points="702.7324,353.3848,692.7324,357.3848,702.7324,361.3848,698.7324,357.3848" style="stroke:#181818;stroke-width:1;"/><line style="stroke:#181818;stroke-width:1;stroke-dasharray:2.0,2.0;" x1="696.7324" x2="1119.1064" y1="357.3848" y2="357.3848"/><text fill="#000000" font-family="sans-serif" font-size="13" lengthAdjust="spacing" textLength="87.4199" x="862.2095" y="352.5283">Return user list</text></g><g class="message" data-participant-1="userMgmtService" data-participant-2="gateway"><polygon fill="#181818" points="512.5317,383.7363,502.5317,387.7363,512.5317,391.7363,508.5317,387.7363" style="stroke:#181818;stroke-width:1;"/><line style="stroke:#181818;stroke-width:1;" x1="506.5317" x2="690.7324" y1="387.7363" y2="387.7363"/><text fill="#000000" font-family="sans-serif" font-size="13" lengthAdjust="spacing" textLength="87.4199" x="552.9221" y="382.8799">Return user list</text></g><g class="message" data-participant-1="gateway" data-participant-2="portal"><polygon fill="#181818" points="309.9556,414.0879,299.9556,418.0879,309.9556,422.0879,305.9556,418.0879" style="stroke:#181818;stroke-width:1;"/><line style="stroke:#181818;stroke-width:1;" x1="303.9556" x2="500.5317" y1="418.0879" y2="418.0879"/><text fill="#000000" font-family="sans-serif" font-size="13" lengthAdjust="spacing" textLength="96.0781" x="352.2046" y="413.2314">Forward user list</text></g><g class="message" data-participant-1="portal" data-participant-2="admin"><polygon fill="#181818" points="38.8413,444.4395,28.8413,448.4395,38.8413,452.4395,34.8413,448.4395" style="stroke:#181818;stroke-width:1;"/><line style="stroke:#181818;stroke-width:1;" x1="32.8413" x2="297.9556" y1="448.4395" y2="448.4395"/><text fill="#000000" font-family="sans-serif" font-size="13" lengthAdjust="spacing" textLength="91.0254" x="117.8857" y="443.583">Display user list</text></g><g class="message" data-participant-1="admin" data-participant-2="portal"><polygon fill="#181818" points="286.9556,474.791,296.9556,478.791,286.9556,482.791,290.9556,478.791" style="stroke:#181818;stroke-width:1;"/><line style="stroke:#181818;stroke-width:1;" x1="27.8413" x2="292.9556" y1="478.791" y2="478.791"/><text fill="#000000" font-family="sans-serif" font-size="13" lengthAdjust="spacing" textLength="65.0317" x="130.8826" y="473.9346">Select user</text></g><g class="message" data-participant-1="portal" data-participant-2="gateway"><polygon fill="#181818" points="489.5317,505.1426,499.5317,509.1426,489.5317,513.1426,493.5317,509.1426" style="stroke:#181818;stroke-width:1;"/><line style="stroke:#181818;stroke-width:1;" x1="298.9556" x2="495.5317" y1="509.1426" y2="509.1426"/><text fill="#000000" font-family="sans-serif" font-size="13" lengthAdjust="spacing" textLength="118.5107" x="340.9883" y="504.2861">Request user details</text></g><g class="message" data-participant-1="gateway" data-participant-2="userMgmtService"><polygon fill="#181818" points="679.7324,535.4941,689.7324,539.4941,679.7324,543.4941,683.7324,539.4941" style="stroke:#181818;stroke-width:1;"/><line style="stroke:#181818;stroke-width:1;" x1="501.5317" x2="685.7324" y1="539.4941" y2="539.4941"/><text fill="#000000" font-family="sans-serif" font-size="13" lengthAdjust="spacing" textLength="164.7407" x="514.2617" y="534.6377">Forward user details request</text></g><g class="message" data-participant-1="userMgmtService" data-participant-2="db"><polygon fill="#181818" points="1108.1064,565.8457,1118.1064,569.8457,1108.1064,573.8457,1112.1064,569.8457" style="stroke:#181818;stroke-width:1;"/><line style="stroke:#181818;stroke-width:1;" x1="691.7324" x2="1114.1064" y1="569.8457" y2="569.8457"/><text fill="#000000" font-family="sans-serif" font-size="13" lengthAdjust="spacing" textLength="96.0908" x="857.874" y="564.9893">Query user roles</text></g><g class="message" data-participant-1="db" data-participant-2="userMgmtService"><polygon fill="#181818" points="702.7324,596.1973,692.7324,600.1973,702.7324,604.1973,698.7324,600.1973" style="stroke:#181818;stroke-width:1;"/><line style="stroke:#181818;stroke-width:1;stroke-dasharray:2.0,2.0;" x1="696.7324" x2="1119.1064" y1="600.1973" y2="600.1973"/><text fill="#000000" font-family="sans-serif" font-size="13" lengthAdjust="spacing" textLength="99.709" x="856.0649" y="595.3408">Return user roles</text></g><g class="message" data-participant-1="userMgmtService" data-participant-2="gateway"><polygon fill="#181818" points="512.5317,626.5488,502.5317,630.5488,512.5317,634.5488,508.5317,630.5488" style="stroke:#181818;stroke-width:1;"/><line style="stroke:#181818;stroke-width:1;" x1="506.5317" x2="690.7324" y1="630.5488" y2="630.5488"/><text fill="#000000" font-family="sans-serif" font-size="13" lengthAdjust="spacing" textLength="99.709" x="546.7776" y="625.6924">Return user roles</text></g><g class="message" data-participant-1="gateway" data-participant-2="portal"><polygon fill="#181818" points="309.9556,656.9004,299.9556,660.9004,309.9556,664.9004,305.9556,660.9004" style="stroke:#181818;stroke-width:1;"/><line style="stroke:#181818;stroke-width:1;" x1="303.9556" x2="500.5317" y1="660.9004" y2="660.9004"/><text fill="#000000" font-family="sans-serif" font-size="13" lengthAdjust="spacing" textLength="108.3672" x="346.0601" y="656.0439">Forward user roles</text></g><g class="message" data-participant-1="portal" data-participant-2="portal"><line style="stroke:#181818;stroke-width:1;" x1="298.9556" x2="340.9556" y1="691.252" y2="691.252"/><line style="stroke:#181818;stroke-width:1;" x1="340.9556" x2="340.9556" y1="691.252" y2="704.252"/><line style="stroke:#181818;stroke-width:1;" x1="299.9556" x2="340.9556" y1="704.252" y2="704.252"/><polygon fill="#181818" points="309.9556,700.252,299.9556,704.252,309.9556,708.252,305.9556,704.252" style="stroke:#181818;stroke-width:1;"/><text fill="#000000" font-family="sans-serif" font-size="13" lengthAdjust="spacing" textLength="188.5762" x="305.9556" y="686.3955">Display current role assignments</text></g><g class="message" data-participant-1="portal" data-participant-2="admin"><polygon fill="#181818" points="38.8413,730.6035,28.8413,734.6035,38.8413,738.6035,34.8413,734.6035" style="stroke:#181818;stroke-width:1;"/><line style="stroke:#181818;stroke-width:1;" x1="32.8413" x2="297.9556" y1="734.6035" y2="734.6035"/><text fill="#000000" font-family="sans-serif" font-size="13" lengthAdjust="spacing" textLength="184.2598" x="71.2686" y="729.7471">Show role modification interface</text></g><g class="message" data-participant-1="admin" data-participant-2="portal"><polygon fill="#181818" points="286.9556,760.9551,296.9556,764.9551,286.9556,768.9551,290.9556,764.9551" style="stroke:#181818;stroke-width:1;"/><line style="stroke:#181818;stroke-width:1;" x1="27.8413" x2="292.9556" y1="764.9551" y2="764.9551"/><text fill="#000000" font-family="sans-serif" font-size="13" lengthAdjust="spacing" textLength="140.1689" x="93.314" y="760.0986">Modify role assignments</text></g><g class="message" data-participant-1="portal" data-participant-2="gateway"><polygon fill="#181818" points="489.5317,791.3066,499.5317,795.3066,489.5317,799.3066,493.5317,795.3066" style="stroke:#181818;stroke-width:1;"/><line style="stroke:#181818;stroke-width:1;" x1="298.9556" x2="495.5317" y1="795.3066" y2="795.3066"/><text fill="#000000" font-family="sans-serif" font-size="13" lengthAdjust="spacing" textLength="118.5107" x="340.9883" y="790.4502">Submit role changes</text></g><g class="message" data-participant-1="gateway" data-participant-2="userMgmtService"><polygon fill="#181818" points="679.7324,821.6582,689.7324,825.6582,679.7324,829.6582,683.7324,825.6582" style="stroke:#181818;stroke-width:1;"/><line style="stroke:#181818;stroke-width:1;" x1="501.5317" x2="685.7324" y1="825.6582" y2="825.6582"/><text fill="#000000" font-family="sans-serif" font-size="13" lengthAdjust="spacing" textLength="166.2007" x="513.5317" y="820.8018">Forward role change request</text></g><g class="message" data-participant-1="userMgmtService" data-participant-2="authzService"><polygon fill="#181818" points="828.7622,852.0098,838.7622,856.0098,828.7622,860.0098,832.7622,856.0098" style="stroke:#181818;stroke-width:1;"/><line style="stroke:#181818;stroke-width:1;" x1="691.7324" x2="834.7622" y1="856.0098" y2="856.0098"/><text fill="#000000" font-family="sans-serif" font-size="13" lengthAdjust="spacing" textLength="125.0298" x="703.7324" y="851.1533">Validate role changes</text></g><g class="message" data-participant-1="authzService" data-participant-2="db"><polygon fill="#181818" points="1108.1064,882.3613,1118.1064,886.3613,1108.1064,890.3613,1112.1064,886.3613" style="stroke:#181818;stroke-width:1;"/><line style="stroke:#181818;stroke-width:1;" x1="840.7622" x2="1114.1064" y1="886.3613" y2="886.3613"/><text fill="#000000" font-family="sans-serif" font-size="13" lengthAdjust="spacing" textLength="137.2744" x="911.7971" y="881.5049">Check role compatibility</text></g><g class="message" data-participant-1="db" data-participant-2="authzService"><polygon fill="#181818" points="851.7622,912.7129,841.7622,916.7129,851.7622,920.7129,847.7622,916.7129" style="stroke:#181818;stroke-width:1;"/><line style="stroke:#181818;stroke-width:1;stroke-dasharray:2.0,2.0;" x1="845.7622" x2="1119.1064" y1="916.7129" y2="916.7129"/><text fill="#000000" font-family="sans-serif" font-size="13" lengthAdjust="spacing" textLength="88.8862" x="935.9912" y="911.8564">Role definitions</text></g><g class="message" data-participant-1="authzService" data-participant-2="authzService"><line style="stroke:#181818;stroke-width:1;" x1="840.7622" x2="882.7622" y1="947.0645" y2="947.0645"/><line style="stroke:#181818;stroke-width:1;" x1="882.7622" x2="882.7622" y1="947.0645" y2="960.0645"/><line style="stroke:#181818;stroke-width:1;" x1="841.7622" x2="882.7622" y1="960.0645" y2="960.0645"/><polygon fill="#181818" points="851.7622,956.0645,841.7622,960.0645,851.7622,964.0645,847.7622,960.0645" style="stroke:#181818;stroke-width:1;"/><text fill="#000000" font-family="sans-serif" font-size="13" lengthAdjust="spacing" textLength="143.7871" x="847.7622" y="942.208">Verify combinations valid</text></g><g class="message" data-participant-1="authzService" data-participant-2="userMgmtService"><polygon fill="#181818" points="702.7324,986.416,692.7324,990.416,702.7324,994.416,698.7324,990.416" style="stroke:#181818;stroke-width:1;"/><line style="stroke:#181818;stroke-width:1;stroke-dasharray:2.0,2.0;" x1="696.7324" x2="839.7622" y1="990.416" y2="990.416"/><text fill="#000000" font-family="sans-serif" font-size="13" lengthAdjust="spacing" textLength="109.8462" x="711.3242" y="985.5596">Role changes valid</text></g><g class="message" data-participant-1="userMgmtService" data-participant-2="db"><polygon fill="#181818" points="1108.1064,1016.7676,1118.1064,1020.7676,1108.1064,1024.7676,1112.1064,1020.7676" style="stroke:#181818;stroke-width:1;"/><line style="stroke:#181818;stroke-width:1;" x1="691.7324" x2="1114.1064" y1="1020.7676" y2="1020.7676"/><text fill="#000000" font-family="sans-serif" font-size="13" lengthAdjust="spacing" textLength="102.6099" x="854.6145" y="1015.9111">Update user roles</text></g><g class="message" data-participant-1="db" data-participant-2="userMgmtService"><polygon fill="#181818" points="702.7324,1047.1191,692.7324,1051.1191,702.7324,1055.1191,698.7324,1051.1191" style="stroke:#181818;stroke-width:1;"/><line style="stroke:#181818;stroke-width:1;stroke-dasharray:2.0,2.0;" x1="696.7324" x2="1119.1064" y1="1051.1191" y2="1051.1191"/><text fill="#000000" font-family="sans-serif" font-size="13" lengthAdjust="spacing" textLength="83.8398" x="863.9995" y="1046.2627">Roles updated</text></g><g class="message" data-participant-1="userMgmtService" data-participant-2="auditService"><polygon fill="#181818" points="988.7202,1077.4707,998.7202,1081.4707,988.7202,1085.4707,992.7202,1081.4707" style="stroke:#181818;stroke-width:1;"/><line style="stroke:#181818;stroke-width:1;" x1="691.7324" x2="994.7202" y1="1081.4707" y2="1081.4707"/><text fill="#000000" font-family="sans-serif" font-size="13" lengthAdjust="spacing" textLength="99.7407" x="796.356" y="1076.6143">Log role changes</text></g><g class="message" data-participant-1="auditService" data-participant-2="db"><polygon fill="#181818" points="1108.1064,1107.8223,1118.1064,1111.8223,1108.1064,1115.8223,1112.1064,1111.8223" style="stroke:#181818;stroke-width:1;"/><line style="stroke:#181818;stroke-width:1;" x1="1000.7202" x2="1114.1064" y1="1111.8223" y2="1111.8223"/><text fill="#000000" font-family="sans-serif" font-size="13" lengthAdjust="spacing" textLength="95.3862" x="1012.7202" y="1106.9658">Store audit entry</text></g><g class="message" data-participant-1="db" data-participant-2="auditService"><polygon fill="#181818" points="1011.7202,1138.1738,1001.7202,1142.1738,1011.7202,1146.1738,1007.7202,1142.1738" style="stroke:#181818;stroke-width:1;"/><line style="stroke:#181818;stroke-width:1;stroke-dasharray:2.0,2.0;" x1="1005.7202" x2="1119.1064" y1="1142.1738" y2="1142.1738"/><text fill="#000000" font-family="sans-serif" font-size="13" lengthAdjust="spacing" textLength="84.5508" x="1018.1379" y="1137.3174">Audit recorded</text></g><g class="message" data-participant-1="userMgmtService" data-participant-2="gateway"><polygon fill="#181818" points="512.5317,1168.5254,502.5317,1172.5254,512.5317,1176.5254,508.5317,1172.5254" style="stroke:#181818;stroke-width:1;"/><line style="stroke:#181818;stroke-width:1;" x1="506.5317" x2="690.7324" y1="1172.5254" y2="1172.5254"/><text fill="#000000" font-family="sans-serif" font-size="13" lengthAdjust="spacing" textLength="134.4116" x="529.4263" y="1167.6689">Role update successful</text></g><g class="message" data-participant-1="gateway" data-participant-2="portal"><polygon fill="#181818" points="309.9556,1198.877,299.9556,1202.877,309.9556,1206.877,305.9556,1202.877" style="stroke:#181818;stroke-width:1;"/><line style="stroke:#181818;stroke-width:1;" x1="303.9556" x2="500.5317" y1="1202.877" y2="1202.877"/><text fill="#000000" font-family="sans-serif" font-size="13" lengthAdjust="spacing" textLength="155.3398" x="322.5737" y="1198.0205">Forward success response</text></g><g class="message" data-participant-1="portal" data-participant-2="admin"><polygon fill="#181818" points="38.8413,1229.2285,28.8413,1233.2285,38.8413,1237.2285,34.8413,1233.2285" style="stroke:#181818;stroke-width:1;"/><line style="stroke:#181818;stroke-width:1;" x1="32.8413" x2="297.9556" y1="1233.2285" y2="1233.2285"/><text fill="#000000" font-family="sans-serif" font-size="13" lengthAdjust="spacing" textLength="167.6162" x="79.5903" y="1228.3721">Display success confirmation</text></g><rect fill="#EEEEEE" height="3" style="stroke:#EEEEEE;stroke-width:1;" width="1158.0718" x="0" y="1262.4043"/><line style="stroke:#000000;stroke-width:1;" x1="0" x2="1158.0718" y1="1262.4043" y2="1262.4043"/><line style="stroke:#000000;stroke-width:1;" x1="0" x2="1158.0718" y1="1265.4043" y2="1265.4043"/><rect fill="#EEEEEE" height="24.3516" style="stroke:#000000;stroke-width:2;" width="307.2744" x="425.3987" y="1251.2285"/><text fill="#000000" font-family="sans-serif" font-size="13" font-weight="bold" lengthAdjust="spacing" textLength="289.6626" x="431.3987" y="1268.7236">Alternative Scenario: Invalid Role Combination</text><g class="message" data-participant-1="admin" data-participant-2="portal"><polygon fill="#181818" points="286.9556,1303.9316,296.9556,1307.9316,286.9556,1311.9316,290.9556,1307.9316" style="stroke:#181818;stroke-width:1;"/><line style="stroke:#181818;stroke-width:1;" x1="27.8413" x2="292.9556" y1="1307.9316" y2="1307.9316"/><text fill="#000000" font-family="sans-serif" font-size="13" lengthAdjust="spacing" textLength="146.6816" x="90.0576" y="1303.0752">Access role management</text></g><g class="message" data-participant-1="portal" data-participant-2="gateway"><polygon fill="#181818" points="489.5317,1334.2832,499.5317,1338.2832,489.5317,1342.2832,493.5317,1338.2832" style="stroke:#181818;stroke-width:1;"/><line style="stroke:#181818;stroke-width:1;" x1="298.9556" x2="495.5317" y1="1338.2832" y2="1338.2832"/><text fill="#000000" font-family="sans-serif" font-size="13" lengthAdjust="spacing" textLength="96.8208" x="351.8333" y="1333.4268">Request user list</text></g><g class="message" data-participant-1="gateway" data-participant-2="userMgmtService"><polygon fill="#181818" points="679.7324,1364.6348,689.7324,1368.6348,679.7324,1372.6348,683.7324,1368.6348" style="stroke:#181818;stroke-width:1;"/><line style="stroke:#181818;stroke-width:1;" x1="501.5317" x2="685.7324" y1="1368.6348" y2="1368.6348"/><text fill="#000000" font-family="sans-serif" font-size="13" lengthAdjust="spacing" textLength="143.0508" x="525.1067" y="1363.7783">Forward user list request</text></g><g class="message" data-participant-1="userMgmtService" data-participant-2="db"><polygon fill="#181818" points="1108.1064,1394.9863,1118.1064,1398.9863,1108.1064,1402.9863,1112.1064,1398.9863" style="stroke:#181818;stroke-width:1;"/><line style="stroke:#181818;stroke-width:1;" x1="691.7324" x2="1114.1064" y1="1398.9863" y2="1398.9863"/><text fill="#000000" font-family="sans-serif" font-size="13" lengthAdjust="spacing" textLength="119.9453" x="845.9468" y="1394.1299">Query user accounts</text></g><g class="message" data-participant-1="db" data-participant-2="userMgmtService"><polygon fill="#181818" points="702.7324,1425.3379,692.7324,1429.3379,702.7324,1433.3379,698.7324,1429.3379" style="stroke:#181818;stroke-width:1;"/><line style="stroke:#181818;stroke-width:1;stroke-dasharray:2.0,2.0;" x1="696.7324" x2="1119.1064" y1="1429.3379" y2="1429.3379"/><text fill="#000000" font-family="sans-serif" font-size="13" lengthAdjust="spacing" textLength="87.4199" x="862.2095" y="1424.4814">Return user list</text></g><g class="message" data-participant-1="userMgmtService" data-participant-2="gateway"><polygon fill="#181818" points="512.5317,1455.6895,502.5317,1459.6895,512.5317,1463.6895,508.5317,1459.6895" style="stroke:#181818;stroke-width:1;"/><line style="stroke:#181818;stroke-width:1;" x1="506.5317" x2="690.7324" y1="1459.6895" y2="1459.6895"/><text fill="#000000" font-family="sans-serif" font-size="13" lengthAdjust="spacing" textLength="87.4199" x="552.9221" y="1454.833">Return user list</text></g><g class="message" data-participant-1="gateway" data-participant-2="portal"><polygon fill="#181818" points="309.9556,1486.041,299.9556,1490.041,309.9556,1494.041,305.9556,1490.041" style="stroke:#181818;stroke-width:1;"/><line style="stroke:#181818;stroke-width:1;" x1="303.9556" x2="500.5317" y1="1490.041" y2="1490.041"/><text fill="#000000" font-family="sans-serif" font-size="13" lengthAdjust="spacing" textLength="96.0781" x="352.2046" y="1485.1846">Forward user list</text></g><g class="message" data-participant-1="portal" data-participant-2="admin"><polygon fill="#181818" points="38.8413,1516.3926,28.8413,1520.3926,38.8413,1524.3926,34.8413,1520.3926" style="stroke:#181818;stroke-width:1;"/><line style="stroke:#181818;stroke-width:1;" x1="32.8413" x2="297.9556" y1="1520.3926" y2="1520.3926"/><text fill="#000000" font-family="sans-serif" font-size="13" lengthAdjust="spacing" textLength="91.0254" x="117.8857" y="1515.5361">Display user list</text></g><g class="message" data-participant-1="admin" data-participant-2="portal"><polygon fill="#181818" points="286.9556,1546.7441,296.9556,1550.7441,286.9556,1554.7441,290.9556,1550.7441" style="stroke:#181818;stroke-width:1;"/><line style="stroke:#181818;stroke-width:1;" x1="27.8413" x2="292.9556" y1="1550.7441" y2="1550.7441"/><text fill="#000000" font-family="sans-serif" font-size="13" lengthAdjust="spacing" textLength="65.0317" x="130.8826" y="1545.8877">Select user</text></g><g class="message" data-participant-1="portal" data-participant-2="gateway"><polygon fill="#181818" points="489.5317,1577.0957,499.5317,1581.0957,489.5317,1585.0957,493.5317,1581.0957" style="stroke:#181818;stroke-width:1;"/><line style="stroke:#181818;stroke-width:1;" x1="298.9556" x2="495.5317" y1="1581.0957" y2="1581.0957"/><text fill="#000000" font-family="sans-serif" font-size="13" lengthAdjust="spacing" textLength="118.5107" x="340.9883" y="1576.2393">Request user details</text></g><g class="message" data-participant-1="gateway" data-participant-2="userMgmtService"><polygon fill="#181818" points="679.7324,1607.4473,689.7324,1611.4473,679.7324,1615.4473,683.7324,1611.4473" style="stroke:#181818;stroke-width:1;"/><line style="stroke:#181818;stroke-width:1;" x1="501.5317" x2="685.7324" y1="1611.4473" y2="1611.4473"/><text fill="#000000" font-family="sans-serif" font-size="13" lengthAdjust="spacing" textLength="164.7407" x="514.2617" y="1606.5908">Forward user details request</text></g><g class="message" data-participant-1="userMgmtService" data-participant-2="db"><polygon fill="#181818" points="1108.1064,1637.7988,1118.1064,1641.7988,1108.1064,1645.7988,1112.1064,1641.7988" style="stroke:#181818;stroke-width:1;"/><line style="stroke:#181818;stroke-width:1;" x1="691.7324" x2="1114.1064" y1="1641.7988" y2="1641.7988"/><text fill="#000000" font-family="sans-serif" font-size="13" lengthAdjust="spacing" textLength="96.0908" x="857.874" y="1636.9424">Query user roles</text></g><g class="message" data-participant-1="db" data-participant-2="userMgmtService"><polygon fill="#181818" points="702.7324,1668.1504,692.7324,1672.1504,702.7324,1676.1504,698.7324,1672.1504" style="stroke:#181818;stroke-width:1;"/><line style="stroke:#181818;stroke-width:1;stroke-dasharray:2.0,2.0;" x1="696.7324" x2="1119.1064" y1="1672.1504" y2="1672.1504"/><text fill="#000000" font-family="sans-serif" font-size="13" lengthAdjust="spacing" textLength="99.709" x="856.0649" y="1667.2939">Return user roles</text></g><g class="message" data-participant-1="userMgmtService" data-participant-2="gateway"><polygon fill="#181818" points="512.5317,1698.502,502.5317,1702.502,512.5317,1706.502,508.5317,1702.502" style="stroke:#181818;stroke-width:1;"/><line style="stroke:#181818;stroke-width:1;" x1="506.5317" x2="690.7324" y1="1702.502" y2="1702.502"/><text fill="#000000" font-family="sans-serif" font-size="13" lengthAdjust="spacing" textLength="99.709" x="546.7776" y="1697.6455">Return user roles</text></g><g class="message" data-participant-1="gateway" data-participant-2="portal"><polygon fill="#181818" points="309.9556,1728.8535,299.9556,1732.8535,309.9556,1736.8535,305.9556,1732.8535" style="stroke:#181818;stroke-width:1;"/><line style="stroke:#181818;stroke-width:1;" x1="303.9556" x2="500.5317" y1="1732.8535" y2="1732.8535"/><text fill="#000000" font-family="sans-serif" font-size="13" lengthAdjust="spacing" textLength="108.3672" x="346.0601" y="1727.9971">Forward user roles</text></g><g class="message" data-participant-1="portal" data-participant-2="portal"><line style="stroke:#181818;stroke-width:1;" x1="298.9556" x2="340.9556" y1="1763.2051" y2="1763.2051"/><line style="stroke:#181818;stroke-width:1;" x1="340.9556" x2="340.9556" y1="1763.2051" y2="1776.2051"/><line style="stroke:#181818;stroke-width:1;" x1="299.9556" x2="340.9556" y1="1776.2051" y2="1776.2051"/><polygon fill="#181818" points="309.9556,1772.2051,299.9556,1776.2051,309.9556,1780.2051,305.9556,1776.2051" style="stroke:#181818;stroke-width:1;"/><text fill="#000000" font-family="sans-serif" font-size="13" lengthAdjust="spacing" textLength="188.5762" x="305.9556" y="1758.3486">Display current role assignments</text></g><g class="message" data-participant-1="portal" data-participant-2="admin"><polygon fill="#181818" points="38.8413,1802.5566,28.8413,1806.5566,38.8413,1810.5566,34.8413,1806.5566" style="stroke:#181818;stroke-width:1;"/><line style="stroke:#181818;stroke-width:1;" x1="32.8413" x2="297.9556" y1="1806.5566" y2="1806.5566"/><text fill="#000000" font-family="sans-serif" font-size="13" lengthAdjust="spacing" textLength="184.2598" x="71.2686" y="1801.7002">Show role modification interface</text></g><g class="message" data-participant-1="admin" data-participant-2="portal"><polygon fill="#181818" points="286.9556,1832.9082,296.9556,1836.9082,286.9556,1840.9082,290.9556,1836.9082" style="stroke:#181818;stroke-width:1;"/><line style="stroke:#181818;stroke-width:1;" x1="27.8413" x2="292.9556" y1="1836.9082" y2="1836.9082"/><text fill="#000000" font-family="sans-serif" font-size="13" lengthAdjust="spacing" textLength="247.1143" x="39.8413" y="1832.0518">Modify roles with incompatible combination</text></g><g class="message" data-participant-1="portal" data-participant-2="gateway"><polygon fill="#181818" points="489.5317,1863.2598,499.5317,1867.2598,489.5317,1871.2598,493.5317,1867.2598" style="stroke:#181818;stroke-width:1;"/><line style="stroke:#181818;stroke-width:1;" x1="298.9556" x2="495.5317" y1="1867.2598" y2="1867.2598"/><text fill="#000000" font-family="sans-serif" font-size="13" lengthAdjust="spacing" textLength="118.5107" x="340.9883" y="1862.4033">Submit role changes</text></g><g class="message" data-participant-1="gateway" data-participant-2="userMgmtService"><polygon fill="#181818" points="679.7324,1893.6113,689.7324,1897.6113,679.7324,1901.6113,683.7324,1897.6113" style="stroke:#181818;stroke-width:1;"/><line style="stroke:#181818;stroke-width:1;" x1="501.5317" x2="685.7324" y1="1897.6113" y2="1897.6113"/><text fill="#000000" font-family="sans-serif" font-size="13" lengthAdjust="spacing" textLength="166.2007" x="513.5317" y="1892.7549">Forward role change request</text></g><g class="message" data-participant-1="userMgmtService" data-participant-2="authzService"><polygon fill="#181818" points="828.7622,1923.9629,838.7622,1927.9629,828.7622,1931.9629,832.7622,1927.9629" style="stroke:#181818;stroke-width:1;"/><line style="stroke:#181818;stroke-width:1;" x1="691.7324" x2="834.7622" y1="1927.9629" y2="1927.9629"/><text fill="#000000" font-family="sans-serif" font-size="13" lengthAdjust="spacing" textLength="125.0298" x="703.7324" y="1923.1064">Validate role changes</text></g><g class="message" data-participant-1="authzService" data-participant-2="db"><polygon fill="#181818" points="1108.1064,1954.3145,1118.1064,1958.3145,1108.1064,1962.3145,1112.1064,1958.3145" style="stroke:#181818;stroke-width:1;"/><line style="stroke:#181818;stroke-width:1;" x1="840.7622" x2="1114.1064" y1="1958.3145" y2="1958.3145"/><text fill="#000000" font-family="sans-serif" font-size="13" lengthAdjust="spacing" textLength="137.2744" x="911.7971" y="1953.458">Check role compatibility</text></g><g class="message" data-participant-1="db" data-participant-2="authzService"><polygon fill="#181818" points="851.7622,1984.666,841.7622,1988.666,851.7622,1992.666,847.7622,1988.666" style="stroke:#181818;stroke-width:1;"/><line style="stroke:#181818;stroke-width:1;stroke-dasharray:2.0,2.0;" x1="845.7622" x2="1119.1064" y1="1988.666" y2="1988.666"/><text fill="#000000" font-family="sans-serif" font-size="13" lengthAdjust="spacing" textLength="88.8862" x="935.9912" y="1983.8096">Role definitions</text></g><g class="message" data-participant-1="authzService" data-participant-2="authzService"><line style="stroke:#181818;stroke-width:1;" x1="840.7622" x2="882.7622" y1="2019.0176" y2="2019.0176"/><line style="stroke:#181818;stroke-width:1;" x1="882.7622" x2="882.7622" y1="2019.0176" y2="2032.0176"/><line style="stroke:#181818;stroke-width:1;" x1="841.7622" x2="882.7622" y1="2032.0176" y2="2032.0176"/><polygon fill="#181818" points="851.7622,2028.0176,841.7622,2032.0176,851.7622,2036.0176,847.7622,2032.0176" style="stroke:#181818;stroke-width:1;"/><text fill="#000000" font-family="sans-serif" font-size="13" lengthAdjust="spacing" textLength="145.958" x="847.7622" y="2014.1611">Detect incompatible roles</text></g><g class="message" data-participant-1="authzService" data-participant-2="userMgmtService"><polygon fill="#181818" points="702.7324,2058.3691,692.7324,2062.3691,702.7324,2066.3691,698.7324,2062.3691" style="stroke:#181818;stroke-width:1;"/><line style="stroke:#181818;stroke-width:1;stroke-dasharray:2.0,2.0;" x1="696.7324" x2="839.7622" y1="2062.3691" y2="2062.3691"/><text fill="#000000" font-family="sans-serif" font-size="13" lengthAdjust="spacing" textLength="119.9644" x="706.2651" y="2057.5127">Role changes invalid</text></g><g class="message" data-participant-1="userMgmtService" data-participant-2="gateway"><polygon fill="#181818" points="512.5317,2088.7207,502.5317,2092.7207,512.5317,2096.7207,508.5317,2092.7207" style="stroke:#181818;stroke-width:1;"/><line style="stroke:#181818;stroke-width:1;" x1="506.5317" x2="690.7324" y1="2092.7207" y2="2092.7207"/><text fill="#000000" font-family="sans-serif" font-size="13" lengthAdjust="spacing" textLength="110.5762" x="541.344" y="2087.8643">Role update invalid</text></g><g class="message" data-participant-1="gateway" data-participant-2="portal"><polygon fill="#181818" points="309.9556,2119.0723,299.9556,2123.0723,309.9556,2127.0723,305.9556,2123.0723" style="stroke:#181818;stroke-width:1;"/><line style="stroke:#181818;stroke-width:1;" x1="303.9556" x2="500.5317" y1="2123.0723" y2="2123.0723"/><text fill="#000000" font-family="sans-serif" font-size="13" lengthAdjust="spacing" textLength="135.8271" x="332.3301" y="2118.2158">Forward error response</text></g><g class="message" data-participant-1="portal" data-participant-2="admin"><polygon fill="#181818" points="38.8413,2149.4238,28.8413,2153.4238,38.8413,2157.4238,34.8413,2153.4238" style="stroke:#181818;stroke-width:1;"/><line style="stroke:#181818;stroke-width:1;" x1="32.8413" x2="297.9556" y1="2153.4238" y2="2153.4238"/><text fill="#000000" font-family="sans-serif" font-size="13" lengthAdjust="spacing" textLength="130.0444" x="98.3762" y="2148.5674">Display error message</text></g><g class="message" data-participant-1="portal" data-participant-2="admin"><polygon fill="#181818" points="38.8413,2179.7754,28.8413,2183.7754,38.8413,2187.7754,34.8413,2183.7754" style="stroke:#181818;stroke-width:1;"/><line style="stroke:#181818;stroke-width:1;" x1="32.8413" x2="297.9556" y1="2183.7754" y2="2183.7754"/><text fill="#000000" font-family="sans-serif" font-size="13" lengthAdjust="spacing" textLength="158.9707" x="83.9131" y="2178.9189">Highlight incompatible roles</text></g><!--SRC=[xLV1Rjim3BtxAuZSUzfXW84C259iAx00NOFkj8iiCpPHMV8akK7wzQCaEt6Sf4tFxSqm7odoFUebTa-aMs550mx_TQWbhj0vKU52KQL1elPeCxT75K8-LTPqkbmQPIniQ_8uYjT2brjBtgE6ZL0EiyoJLmYpn-NDbwyvh8Jcwl1W5BfPbWdfkSfiKJQaPo0SYF2KSJ5FabgXVH-4UsEzK17JniS9wFuEVWYFMx6Bc2ez7uCU7Tg-WuOd-wlNQ9z9OipeEBYg6j-_cvJlV6qilGXFHX_d2GwzN4WgoK_1_6e0byABGZWcvxP_YfYooBBvdFlagTUTb2m8h5a9OSd0VCwaHK9kllL4vB188CkaGhCVBqlX0EpPoE4XgEny71OKEP_reO2QC933TsEtmfO7DDYKdqsW8RiiSlZTeTqbk92IryIxh2pWvbpn1_ITrQDEpjGSzJq1ZzeUM3ZfDXin43dBuPPSgyHkZ3bXSuqAPQBeJGfBz8AKkvx5Fk4TH0PLhsCn8Q-bCQ7VuZ6XHZmCg859sLdBovQMJpZ7jX6MpvrolwxDjjzHKzA6PBnCGC5YDeBlmwaKgm3SlLPxFzgwAnhgsv1iGnLUfyeeOI_AEGx7rpo7Fq8HNryyFc-C6PHSrYYVUfXfMfwv84L-DoXwN3Vu8k_8XZG5SavBJjf06_ZXmWNfIAU3vz3Q9E_ivemwxvCkRUDZ6sUzPXr35Bg8Bo_mU73077wPQahX8JmSl-RV24o9mFBR4NVZMj5kMKDfR7dXyCD526UcDi4bZzrqwhNRqAEulckPPhpiBGDI6hqXsqHPegCl56zwaEaPzuQUmvsEvAUMbWSbFwt-q-e_fjKxs9Al6JqOPlBEuM9ykdyFlqKVjlU8foJYEzsVz6N_FskPGy8hAuNMyZ_xjzqouPhqrN4A-qbLpPyYzTan_mC0]--></g></svg>