<svg xmlns="http://www.w3.org/2000/svg" xmlns:xlink="http://www.w3.org/1999/xlink" contentStyleType="text/css" data-diagram-type="SEQUENCE" height="965px" preserveAspectRatio="none" style="width:758px;height:965px;background:#FFFFFF;" version="1.1" viewBox="0 0 758 965" width="758px" zoomAndPan="magnify"><title>UC-4: Edit Personal Info</title><defs/><g><text fill="#000000" font-family="sans-serif" font-size="14" font-weight="bold" lengthAdjust="spacing" textLength="160.2344" x="300.2075" y="29.5332">UC-4: Edit Personal Info</text><g><title>FalsoPay App</title><rect fill="#FFFFFF" height="704.5703" style="stroke:#181818;stroke-width:1;" width="10" x="252.1919" y="153.5703"/></g><g><title>API Gateway</title><rect fill="#FFFFFF" height="151.7578" style="stroke:#181818;stroke-width:1;" width="10" x="424.939" y="183.9219"/></g><g><title>API Gateway</title><rect fill="#FFFFFF" height="327.3516" style="stroke:#181818;stroke-width:1;" width="10" x="424.939" y="500.4375"/></g><g><title>User Service</title><rect fill="#FFFFFF" height="91.0547" style="stroke:#181818;stroke-width:1;" width="10" x="559.4033" y="214.2734"/></g><g><title>User Service</title><rect fill="#FFFFFF" height="266.6484" style="stroke:#181818;stroke-width:1;" width="10" x="559.4033" y="530.7891"/></g><g><title>Database</title><rect fill="#FFFFFF" height="30.3516" style="stroke:#181818;stroke-width:1;" width="10" x="699.6841" y="244.625"/></g><g><title>Database</title><rect fill="#FFFFFF" height="30.3516" style="stroke:#181818;stroke-width:1;" width="10" x="699.6841" y="736.7344"/></g><rect fill="none" height="277" style="stroke:#000000;stroke-width:1.5;" width="741.6494" x="10" y="589.1406"/><g><title>Registered User</title><rect fill="#000000" fill-opacity="0.00000" height="761.9219" width="8" x="69.5757" y="121.2188"/><line style="stroke:#181818;stroke-width:0.5;stroke-dasharray:5.0,5.0;" x1="73" x2="73" y1="121.2188" y2="883.1406"/></g><g><title>FalsoPay App</title><rect fill="#000000" fill-opacity="0.00000" height="761.9219" width="8" x="253.1919" y="121.2188"/><line style="stroke:#181818;stroke-width:0.5;stroke-dasharray:5.0,5.0;" x1="256.6128" x2="256.6128" y1="121.2188" y2="883.1406"/></g><g><title>API Gateway</title><rect fill="#000000" fill-opacity="0.00000" height="761.9219" width="8" x="425.939" y="121.2188"/><line style="stroke:#181818;stroke-width:0.5;stroke-dasharray:5.0,5.0;" x1="429.0874" x2="429.0874" y1="121.2188" y2="883.1406"/></g><g><title>User Service</title><rect fill="#000000" fill-opacity="0.00000" height="761.9219" width="8" x="560.4033" y="121.2188"/><line style="stroke:#181818;stroke-width:0.5;stroke-dasharray:5.0,5.0;" x1="564.3379" x2="564.3379" y1="121.2188" y2="883.1406"/></g><g><title>Database</title><rect fill="#000000" fill-opacity="0.00000" height="761.9219" width="8" x="700.6841" y="121.2188"/><line style="stroke:#181818;stroke-width:0.5;stroke-dasharray:5.0,5.0;" x1="703.7188" x2="703.7188" y1="121.2188" y2="883.1406"/></g><g class="participant participant-head" data-participant="User"><text fill="#000000" font-family="sans-serif" font-size="14" lengthAdjust="spacing" textLength="101.1514" x="20" y="118.1426">Registered User</text><ellipse cx="73.5757" cy="52.1094" fill="#E2E2F0" rx="8" ry="8" style="stroke:#181818;stroke-width:0.5;"/><path d="M73.5757,60.1094 L73.5757,87.1094 M60.5757,68.1094 L86.5757,68.1094 M73.5757,87.1094 L60.5757,102.1094 M73.5757,87.1094 L86.5757,102.1094" fill="none" style="stroke:#181818;stroke-width:0.5;"/></g><g class="participant participant-tail" data-participant="User"><text fill="#000000" font-family="sans-serif" font-size="14" lengthAdjust="spacing" textLength="101.1514" x="20" y="896.6738">Registered User</text><ellipse cx="73.5757" cy="908.25" fill="#E2E2F0" rx="8" ry="8" style="stroke:#181818;stroke-width:0.5;"/><path d="M73.5757,916.25 L73.5757,943.25 M60.5757,924.25 L86.5757,924.25 M73.5757,943.25 L60.5757,958.25 M73.5757,943.25 L86.5757,958.25" fill="none" style="stroke:#181818;stroke-width:0.5;"/></g><g class="participant participant-head" data-participant="App"><rect fill="#E2E2F0" height="31.6094" rx="2.5" ry="2.5" style="stroke:#181818;stroke-width:0.5;" width="101.1582" x="206.6128" y="88.6094"/><text fill="#000000" font-family="sans-serif" font-size="14" lengthAdjust="spacing" textLength="87.1582" x="213.6128" y="110.1426">FalsoPay App</text></g><g class="participant participant-tail" data-participant="App"><rect fill="#E2E2F0" height="31.6094" rx="2.5" ry="2.5" style="stroke:#181818;stroke-width:0.5;" width="101.1582" x="206.6128" y="882.1406"/><text fill="#000000" font-family="sans-serif" font-size="14" lengthAdjust="spacing" textLength="87.1582" x="213.6128" y="903.6738">FalsoPay App</text></g><g class="participant participant-head" data-participant="Gateway"><rect fill="#E2E2F0" height="31.6094" rx="2.5" ry="2.5" style="stroke:#181818;stroke-width:0.5;" width="95.7031" x="382.0874" y="88.6094"/><text fill="#000000" font-family="sans-serif" font-size="14" lengthAdjust="spacing" textLength="81.7031" x="389.0874" y="110.1426">API Gateway</text></g><g class="participant participant-tail" data-participant="Gateway"><rect fill="#E2E2F0" height="31.6094" rx="2.5" ry="2.5" style="stroke:#181818;stroke-width:0.5;" width="95.7031" x="382.0874" y="882.1406"/><text fill="#000000" font-family="sans-serif" font-size="14" lengthAdjust="spacing" textLength="81.7031" x="389.0874" y="903.6738">API Gateway</text></g><g class="participant participant-head" data-participant="UserService"><rect fill="#E2E2F0" height="31.6094" rx="2.5" ry="2.5" style="stroke:#181818;stroke-width:0.5;" width="94.1309" x="517.3379" y="88.6094"/><text fill="#000000" font-family="sans-serif" font-size="14" lengthAdjust="spacing" textLength="80.1309" x="524.3379" y="110.1426">User Service</text></g><g class="participant participant-tail" data-participant="UserService"><rect fill="#E2E2F0" height="31.6094" rx="2.5" ry="2.5" style="stroke:#181818;stroke-width:0.5;" width="94.1309" x="517.3379" y="882.1406"/><text fill="#000000" font-family="sans-serif" font-size="14" lengthAdjust="spacing" textLength="80.1309" x="524.3379" y="903.6738">User Service</text></g><g class="participant participant-head" data-participant="DB"><rect fill="#E2E2F0" height="31.6094" rx="2.5" ry="2.5" style="stroke:#181818;stroke-width:0.5;" width="73.9307" x="667.7188" y="88.6094"/><text fill="#000000" font-family="sans-serif" font-size="14" lengthAdjust="spacing" textLength="59.9307" x="674.7188" y="110.1426">Database</text></g><g class="participant participant-tail" data-participant="DB"><rect fill="#E2E2F0" height="31.6094" rx="2.5" ry="2.5" style="stroke:#181818;stroke-width:0.5;" width="73.9307" x="667.7188" y="882.1406"/><text fill="#000000" font-family="sans-serif" font-size="14" lengthAdjust="spacing" textLength="59.9307" x="674.7188" y="903.6738">Database</text></g><g><title>FalsoPay App</title><rect fill="#FFFFFF" height="704.5703" style="stroke:#181818;stroke-width:1;" width="10" x="252.1919" y="153.5703"/></g><g><title>API Gateway</title><rect fill="#FFFFFF" height="151.7578" style="stroke:#181818;stroke-width:1;" width="10" x="424.939" y="183.9219"/></g><g><title>API Gateway</title><rect fill="#FFFFFF" height="327.3516" style="stroke:#181818;stroke-width:1;" width="10" x="424.939" y="500.4375"/></g><g><title>User Service</title><rect fill="#FFFFFF" height="91.0547" style="stroke:#181818;stroke-width:1;" width="10" x="559.4033" y="214.2734"/></g><g><title>User Service</title><rect fill="#FFFFFF" height="266.6484" style="stroke:#181818;stroke-width:1;" width="10" x="559.4033" y="530.7891"/></g><g><title>Database</title><rect fill="#FFFFFF" height="30.3516" style="stroke:#181818;stroke-width:1;" width="10" x="699.6841" y="244.625"/></g><g><title>Database</title><rect fill="#FFFFFF" height="30.3516" style="stroke:#181818;stroke-width:1;" width="10" x="699.6841" y="736.7344"/></g><g class="message" data-participant-1="User" data-participant-2="App"><polygon fill="#181818" points="240.1919,149.5703,250.1919,153.5703,240.1919,157.5703,244.1919,153.5703" style="stroke:#181818;stroke-width:1;"/><line style="stroke:#181818;stroke-width:1;" x1="73.5757" x2="246.1919" y1="153.5703" y2="153.5703"/><text fill="#000000" font-family="sans-serif" font-size="13" lengthAdjust="spacing" textLength="138.7534" x="80.5757" y="148.7139">Select edit profile option</text></g><g class="message" data-participant-1="App" data-participant-2="Gateway"><polygon fill="#181818" points="412.939,179.9219,422.939,183.9219,412.939,187.9219,416.939,183.9219" style="stroke:#181818;stroke-width:1;"/><line style="stroke:#181818;stroke-width:1;" x1="262.1919" x2="418.939" y1="183.9219" y2="183.9219"/><text fill="#000000" font-family="sans-serif" font-size="13" lengthAdjust="spacing" textLength="125.7153" x="269.1919" y="179.0654">GET /api/users/profile</text></g><g class="message" data-participant-1="Gateway" data-participant-2="UserService"><polygon fill="#181818" points="547.4033,210.2734,557.4033,214.2734,547.4033,218.2734,551.4033,214.2734" style="stroke:#181818;stroke-width:1;"/><line style="stroke:#181818;stroke-width:1;" x1="434.939" x2="553.4033" y1="214.2734" y2="214.2734"/><text fill="#000000" font-family="sans-serif" font-size="13" lengthAdjust="spacing" textLength="88.8735" x="441.939" y="209.417">Get user profile</text></g><g class="message" data-participant-1="UserService" data-participant-2="DB"><polygon fill="#181818" points="687.6841,240.625,697.6841,244.625,687.6841,248.625,691.6841,244.625" style="stroke:#181818;stroke-width:1;"/><line style="stroke:#181818;stroke-width:1;" x1="569.4033" x2="693.6841" y1="244.625" y2="244.625"/><text fill="#000000" font-family="sans-serif" font-size="13" lengthAdjust="spacing" textLength="106.2217" x="576.4033" y="239.7686">Retrieve user data</text></g><g class="message" data-participant-1="DB" data-participant-2="UserService"><polygon fill="#181818" points="580.4033,270.9766,570.4033,274.9766,580.4033,278.9766,576.4033,274.9766" style="stroke:#181818;stroke-width:1;"/><line style="stroke:#181818;stroke-width:1;stroke-dasharray:2.0,2.0;" x1="574.4033" x2="703.6841" y1="274.9766" y2="274.9766"/><text fill="#000000" font-family="sans-serif" font-size="13" lengthAdjust="spacing" textLength="95.3799" x="586.4033" y="270.1201">User profile data</text></g><g class="message" data-participant-1="UserService" data-participant-2="Gateway"><polygon fill="#181818" points="445.939,301.3281,435.939,305.3281,445.939,309.3281,441.939,305.3281" style="stroke:#181818;stroke-width:1;"/><line style="stroke:#181818;stroke-width:1;stroke-dasharray:2.0,2.0;" x1="439.939" x2="563.4033" y1="305.3281" y2="305.3281"/><text fill="#000000" font-family="sans-serif" font-size="13" lengthAdjust="spacing" textLength="66.4663" x="451.939" y="300.4717">User profile</text></g><g class="message" data-participant-1="Gateway" data-participant-2="App"><polygon fill="#181818" points="273.1919,331.6797,263.1919,335.6797,273.1919,339.6797,269.1919,335.6797" style="stroke:#181818;stroke-width:1;"/><line style="stroke:#181818;stroke-width:1;stroke-dasharray:2.0,2.0;" x1="267.1919" x2="428.939" y1="335.6797" y2="335.6797"/><text fill="#000000" font-family="sans-serif" font-size="13" lengthAdjust="spacing" textLength="138.7471" x="279.1919" y="330.8232">200 OK with profile data</text></g><g class="message" data-participant-1="App" data-participant-2="User"><polygon fill="#181818" points="84.5757,362.0313,74.5757,366.0313,84.5757,370.0313,80.5757,366.0313" style="stroke:#181818;stroke-width:1;"/><line style="stroke:#181818;stroke-width:1;stroke-dasharray:2.0,2.0;" x1="78.5757" x2="251.1919" y1="366.0313" y2="366.0313"/><text fill="#000000" font-family="sans-serif" font-size="13" lengthAdjust="spacing" textLength="154.6162" x="90.5757" y="361.1748">Display current information</text></g><g class="message" data-participant-1="User" data-participant-2="App"><polygon fill="#181818" points="240.1919,392.3828,250.1919,396.3828,240.1919,400.3828,244.1919,396.3828" style="stroke:#181818;stroke-width:1;"/><line style="stroke:#181818;stroke-width:1;" x1="73.5757" x2="246.1919" y1="396.3828" y2="396.3828"/><text fill="#000000" font-family="sans-serif" font-size="13" lengthAdjust="spacing" textLength="118.498" x="80.5757" y="391.5264">Modify desired fields</text></g><g class="message" data-participant-1="User" data-participant-2="App"><polygon fill="#181818" points="240.1919,422.7344,250.1919,426.7344,240.1919,430.7344,244.1919,426.7344" style="stroke:#181818;stroke-width:1;"/><line style="stroke:#181818;stroke-width:1;" x1="73.5757" x2="246.1919" y1="426.7344" y2="426.7344"/><text fill="#000000" font-family="sans-serif" font-size="13" lengthAdjust="spacing" textLength="93.2217" x="80.5757" y="421.8779">Submit changes</text></g><g class="message" data-participant-1="App" data-participant-2="App"><line style="stroke:#181818;stroke-width:1;" x1="262.1919" x2="304.1919" y1="457.0859" y2="457.0859"/><line style="stroke:#181818;stroke-width:1;" x1="304.1919" x2="304.1919" y1="457.0859" y2="470.0859"/><line style="stroke:#181818;stroke-width:1;" x1="263.1919" x2="304.1919" y1="470.0859" y2="470.0859"/><polygon fill="#181818" points="273.1919,466.0859,263.1919,470.0859,273.1919,474.0859,269.1919,470.0859" style="stroke:#181818;stroke-width:1;"/><text fill="#000000" font-family="sans-serif" font-size="13" lengthAdjust="spacing" textLength="119.2344" x="269.1919" y="452.2295">Validate input format</text></g><g class="message" data-participant-1="App" data-participant-2="Gateway"><polygon fill="#181818" points="412.939,496.4375,422.939,500.4375,412.939,504.4375,416.939,500.4375" style="stroke:#181818;stroke-width:1;"/><line style="stroke:#181818;stroke-width:1;" x1="262.1919" x2="418.939" y1="500.4375" y2="500.4375"/><text fill="#000000" font-family="sans-serif" font-size="13" lengthAdjust="spacing" textLength="124.9917" x="269.1919" y="495.5811">PUT /api/users/profile</text></g><g class="message" data-participant-1="Gateway" data-participant-2="UserService"><polygon fill="#181818" points="547.4033,526.7891,557.4033,530.7891,547.4033,534.7891,551.4033,530.7891" style="stroke:#181818;stroke-width:1;"/><line style="stroke:#181818;stroke-width:1;" x1="434.939" x2="553.4033" y1="530.7891" y2="530.7891"/><text fill="#000000" font-family="sans-serif" font-size="13" lengthAdjust="spacing" textLength="80.939" x="441.939" y="525.9326">Update profile</text></g><g class="message" data-participant-1="UserService" data-participant-2="UserService"><line style="stroke:#181818;stroke-width:1;" x1="569.4033" x2="611.4033" y1="561.1406" y2="561.1406"/><line style="stroke:#181818;stroke-width:1;" x1="611.4033" x2="611.4033" y1="561.1406" y2="574.1406"/><line style="stroke:#181818;stroke-width:1;" x1="570.4033" x2="611.4033" y1="574.1406" y2="574.1406"/><polygon fill="#181818" points="580.4033,570.1406,570.4033,574.1406,580.4033,578.1406,576.4033,574.1406" style="stroke:#181818;stroke-width:1;"/><text fill="#000000" font-family="sans-serif" font-size="13" lengthAdjust="spacing" textLength="75.8926" x="576.4033" y="556.2842">Validate data</text></g><path d="M10,589.1406 L70.1709,589.1406 L70.1709,597.4922 L60.1709,607.4922 L10,607.4922 L10,589.1406" fill="#EEEEEE" style="stroke:#000000;stroke-width:1.5;"/><rect fill="none" height="277" style="stroke:#000000;stroke-width:1.5;" width="741.6494" x="10" y="589.1406"/><text fill="#000000" font-family="sans-serif" font-size="13" font-weight="bold" lengthAdjust="spacing" textLength="15.1709" x="25" y="603.6357">alt</text><text fill="#000000" font-family="sans-serif" font-size="11" font-weight="bold" lengthAdjust="spacing" textLength="84.9546" x="85.1709" y="602.5596">[Validation fails]</text><g class="message" data-participant-1="UserService" data-participant-2="Gateway"><polygon fill="#181818" points="445.939,625.8438,435.939,629.8438,445.939,633.8438,441.939,629.8438" style="stroke:#181818;stroke-width:1;"/><line style="stroke:#181818;stroke-width:1;stroke-dasharray:2.0,2.0;" x1="439.939" x2="558.4033" y1="629.8438" y2="629.8438"/><text fill="#000000" font-family="sans-serif" font-size="13" lengthAdjust="spacing" textLength="100.4644" x="451.939" y="624.9873">400 Bad Request</text></g><g class="message" data-participant-1="Gateway" data-participant-2="App"><polygon fill="#181818" points="273.1919,656.1953,263.1919,660.1953,273.1919,664.1953,269.1919,660.1953" style="stroke:#181818;stroke-width:1;"/><line style="stroke:#181818;stroke-width:1;stroke-dasharray:2.0,2.0;" x1="267.1919" x2="423.939" y1="660.1953" y2="660.1953"/><text fill="#000000" font-family="sans-serif" font-size="13" lengthAdjust="spacing" textLength="100.4644" x="279.1919" y="655.3389">400 Bad Request</text></g><g class="message" data-participant-1="App" data-participant-2="User"><polygon fill="#181818" points="84.5757,686.5469,74.5757,690.5469,84.5757,694.5469,80.5757,690.5469" style="stroke:#181818;stroke-width:1;"/><line style="stroke:#181818;stroke-width:1;stroke-dasharray:2.0,2.0;" x1="78.5757" x2="251.1919" y1="690.5469" y2="690.5469"/><text fill="#000000" font-family="sans-serif" font-size="13" lengthAdjust="spacing" textLength="138.7217" x="90.5757" y="685.6904">Display validation errors</text></g><line style="stroke:#000000;stroke-width:1;stroke-dasharray:2.0,2.0;" x1="10" x2="751.6494" y1="699.5469" y2="699.5469"/><text fill="#000000" font-family="sans-serif" font-size="11" font-weight="bold" lengthAdjust="spacing" textLength="51.9707" x="15" y="710.9658">[Success]</text><g class="message" data-participant-1="UserService" data-participant-2="DB"><polygon fill="#181818" points="687.6841,732.7344,697.6841,736.7344,687.6841,740.7344,691.6841,736.7344" style="stroke:#181818;stroke-width:1;"/><line style="stroke:#181818;stroke-width:1;" x1="569.4033" x2="693.6841" y1="736.7344" y2="736.7344"/><text fill="#000000" font-family="sans-serif" font-size="13" lengthAdjust="spacing" textLength="111.2808" x="576.4033" y="731.8779">Update user record</text></g><g class="message" data-participant-1="DB" data-participant-2="UserService"><polygon fill="#181818" points="580.4033,763.0859,570.4033,767.0859,580.4033,771.0859,576.4033,767.0859" style="stroke:#181818;stroke-width:1;"/><line style="stroke:#181818;stroke-width:1;stroke-dasharray:2.0,2.0;" x1="574.4033" x2="703.6841" y1="767.0859" y2="767.0859"/><text fill="#000000" font-family="sans-serif" font-size="13" lengthAdjust="spacing" textLength="49.1309" x="586.4033" y="762.2295">Success</text></g><g class="message" data-participant-1="UserService" data-participant-2="Gateway"><polygon fill="#181818" points="445.939,793.4375,435.939,797.4375,445.939,801.4375,441.939,797.4375" style="stroke:#181818;stroke-width:1;"/><line style="stroke:#181818;stroke-width:1;stroke-dasharray:2.0,2.0;" x1="439.939" x2="563.4033" y1="797.4375" y2="797.4375"/><text fill="#000000" font-family="sans-serif" font-size="13" lengthAdjust="spacing" textLength="44.0845" x="451.939" y="792.5811">200 OK</text></g><g class="message" data-participant-1="Gateway" data-participant-2="App"><polygon fill="#181818" points="273.1919,823.7891,263.1919,827.7891,273.1919,831.7891,269.1919,827.7891" style="stroke:#181818;stroke-width:1;"/><line style="stroke:#181818;stroke-width:1;stroke-dasharray:2.0,2.0;" x1="267.1919" x2="428.939" y1="827.7891" y2="827.7891"/><text fill="#000000" font-family="sans-serif" font-size="13" lengthAdjust="spacing" textLength="44.0845" x="279.1919" y="822.9326">200 OK</text></g><g class="message" data-participant-1="App" data-participant-2="User"><polygon fill="#181818" points="84.5757,854.1406,74.5757,858.1406,84.5757,862.1406,80.5757,858.1406" style="stroke:#181818;stroke-width:1;"/><line style="stroke:#181818;stroke-width:1;stroke-dasharray:2.0,2.0;" x1="78.5757" x2="256.1919" y1="858.1406" y2="858.1406"/><text fill="#000000" font-family="sans-serif" font-size="13" lengthAdjust="spacing" textLength="149.5571" x="90.5757" y="853.2842">Display success message</text></g><!--SRC=[fLJ1Rjim3BthAuZSWnH3JpuCQEQkA8PXGJVlpafqIa2nDKbEaR-V93kEx3W5XkNWICvxZ-HxH53wriBgXVRiF5bIK3coAq2N3iAWzIpPOEDXzHMrQtTuWWTZ4YHyJn4FksTuGa_lU4g0uJm5HM7uIVR8aiPAmtsABD7ZAxeULMw5yEmrGVLbVL_0es8FExAkRL33SrEtGYJfzUVOM15AQ98UAEACRMiErDPuRXk1qlCnz9Oc4E4HIKEp1Jmz_e8D6jvqGSvj1kw5T9vA38T8pcO80kGXSk6AceygiakKABS5l92tJ4VgwIhCV-460yejhEV5ggnGpr2KSwPbyZbpPawQD3dEUBRrqzqT_FW6x-pVRfOT7KhM3XqNKB8pEcZ9pbeA0NC8pHumHJBDxdkhk3w18iTnAMichTmitkxr49ALRzZioOannlJZRzIiOYVScCv3N-Ogw5trdq5N9XNvfvWd0cEVoK61sfzV1K-WHjPEGFZSpF0-fB555HRdJqVE9_1LP4kWvMIEb-9aRMkT8EqeU2qbkOLM-gqTR4WxQqcsLYLaleNnlhIzkV9qR-ERZsVlDt5EpRqVDMviyPnx3dpaBRla-gRX41wufxbA_5EXHec_]--></g></svg>