<svg xmlns="http://www.w3.org/2000/svg" xmlns:xlink="http://www.w3.org/1999/xlink" contentStyleType="text/css" data-diagram-type="SEQUENCE" height="1577px" preserveAspectRatio="none" style="width:1205px;height:1577px;background:#FFFFFF;" version="1.1" viewBox="0 0 1205 1577" width="1205px" zoomAndPan="magnify"><title>UC-5: Link Bank Account</title><defs/><g><text fill="#000000" font-family="sans-serif" font-size="14" font-weight="bold" lengthAdjust="spacing" textLength="168.0137" x="519.709" y="29.5332">UC-5: Link Bank Account</text><g><title>FalsoPay App</title><rect fill="#FFFFFF" height="1310.0859" style="stroke:#181818;stroke-width:1;" width="10" x="285.3101" y="153.5703"/></g><g><title>API Gateway</title><rect fill="#FFFFFF" height="583.1641" style="stroke:#181818;stroke-width:1;" width="10" x="532.4834" y="300.9766"/></g><g><title>API Gateway</title><rect fill="#FFFFFF" height="435.7578" style="stroke:#181818;stroke-width:1;" width="10" x="532.4834" y="997.5469"/></g><g><title>Banking Service</title><rect fill="#FFFFFF" height="522.4609" style="stroke:#181818;stroke-width:1;" width="10" x="666.9478" y="331.3281"/></g><g><title>Banking Service</title><rect fill="#FFFFFF" height="375.0547" style="stroke:#181818;stroke-width:1;" width="10" x="666.9478" y="1027.8984"/></g><g><title>External Banking API</title><rect fill="#FFFFFF" height="192.9453" style="stroke:#181818;stroke-width:1;" width="10" x="862.1484" y="405.0313"/></g><g><title>External Banking API</title><rect fill="#FFFFFF" height="73.7031" style="stroke:#181818;stroke-width:1;" width="10" x="862.1484" y="628.3281"/></g><g><title>External Banking API</title><rect fill="#FFFFFF" height="192.9453" style="stroke:#181818;stroke-width:1;" width="10" x="862.1484" y="1058.25"/></g><g><title>Notification Service</title><rect fill="#FFFFFF" height="30.3516" style="stroke:#181818;stroke-width:1;" width="10" x="1022.5874" y="793.0859"/></g><g><title>Notification Service</title><rect fill="#FFFFFF" height="30.3516" style="stroke:#181818;stroke-width:1;" width="10" x="1022.5874" y="1342.25"/></g><g><title>Database</title><rect fill="#FFFFFF" height="30.3516" style="stroke:#181818;stroke-width:1;" width="10" x="1136.4663" y="732.3828"/></g><g><title>Database</title><rect fill="#FFFFFF" height="30.3516" style="stroke:#181818;stroke-width:1;" width="10" x="1136.4663" y="1281.5469"/></g><rect fill="none" height="1058.625" style="stroke:#000000;stroke-width:1.5;" width="1188.4316" x="10" y="420.0313"/><rect fill="none" height="398.4063" style="stroke:#000000;stroke-width:1.5;" width="1168.4316" x="20" y="1073.25"/><g><title>Registered User</title><rect fill="#000000" fill-opacity="0.00000" height="1374.4375" width="8" x="79.5757" y="121.2188"/><line style="stroke:#181818;stroke-width:0.5;stroke-dasharray:5.0,5.0;" x1="83" x2="83" y1="121.2188" y2="1495.6563"/></g><g><title>FalsoPay App</title><rect fill="#000000" fill-opacity="0.00000" height="1374.4375" width="8" x="286.3101" y="121.2188"/><line style="stroke:#181818;stroke-width:0.5;stroke-dasharray:5.0,5.0;" x1="289.731" x2="289.731" y1="121.2188" y2="1495.6563"/></g><g><title>API Gateway</title><rect fill="#000000" fill-opacity="0.00000" height="1374.4375" width="8" x="533.4834" y="121.2188"/><line style="stroke:#181818;stroke-width:0.5;stroke-dasharray:5.0,5.0;" x1="536.6318" x2="536.6318" y1="121.2188" y2="1495.6563"/></g><g><title>Banking Service</title><rect fill="#000000" fill-opacity="0.00000" height="1374.4375" width="8" x="667.9478" y="121.2188"/><line style="stroke:#181818;stroke-width:0.5;stroke-dasharray:5.0,5.0;" x1="671.3652" x2="671.3652" y1="121.2188" y2="1495.6563"/></g><g><title>External Banking API</title><rect fill="#000000" fill-opacity="0.00000" height="1374.4375" width="8" x="863.1484" y="121.2188"/><line style="stroke:#181818;stroke-width:0.5;stroke-dasharray:5.0,5.0;" x1="867.0005" x2="867.0005" y1="121.2188" y2="1495.6563"/></g><g><title>Notification Service</title><rect fill="#000000" fill-opacity="0.00000" height="1374.4375" width="8" x="1023.5874" y="121.2188"/><line style="stroke:#181818;stroke-width:0.5;stroke-dasharray:5.0,5.0;" x1="1026.6738" x2="1026.6738" y1="121.2188" y2="1495.6563"/></g><g><title>Database</title><rect fill="#000000" fill-opacity="0.00000" height="1374.4375" width="8" x="1137.4663" y="121.2188"/><line style="stroke:#181818;stroke-width:0.5;stroke-dasharray:5.0,5.0;" x1="1140.501" x2="1140.501" y1="121.2188" y2="1495.6563"/></g><g class="participant participant-head" data-participant="User"><text fill="#000000" font-family="sans-serif" font-size="14" lengthAdjust="spacing" textLength="101.1514" x="30" y="118.1426">Registered User</text><ellipse cx="83.5757" cy="52.1094" fill="#E2E2F0" rx="8" ry="8" style="stroke:#181818;stroke-width:0.5;"/><path d="M83.5757,60.1094 L83.5757,87.1094 M70.5757,68.1094 L96.5757,68.1094 M83.5757,87.1094 L70.5757,102.1094 M83.5757,87.1094 L96.5757,102.1094" fill="none" style="stroke:#181818;stroke-width:0.5;"/></g><g class="participant participant-tail" data-participant="User"><text fill="#000000" font-family="sans-serif" font-size="14" lengthAdjust="spacing" textLength="101.1514" x="30" y="1509.1895">Registered User</text><ellipse cx="83.5757" cy="1520.7656" fill="#E2E2F0" rx="8" ry="8" style="stroke:#181818;stroke-width:0.5;"/><path d="M83.5757,1528.7656 L83.5757,1555.7656 M70.5757,1536.7656 L96.5757,1536.7656 M83.5757,1555.7656 L70.5757,1570.7656 M83.5757,1555.7656 L96.5757,1570.7656" fill="none" style="stroke:#181818;stroke-width:0.5;"/></g><g class="participant participant-head" data-participant="App"><rect fill="#E2E2F0" height="31.6094" rx="2.5" ry="2.5" style="stroke:#181818;stroke-width:0.5;" width="101.1582" x="239.731" y="88.6094"/><text fill="#000000" font-family="sans-serif" font-size="14" lengthAdjust="spacing" textLength="87.1582" x="246.731" y="110.1426">FalsoPay App</text></g><g class="participant participant-tail" data-participant="App"><rect fill="#E2E2F0" height="31.6094" rx="2.5" ry="2.5" style="stroke:#181818;stroke-width:0.5;" width="101.1582" x="239.731" y="1494.6563"/><text fill="#000000" font-family="sans-serif" font-size="14" lengthAdjust="spacing" textLength="87.1582" x="246.731" y="1516.1895">FalsoPay App</text></g><g class="participant participant-head" data-participant="Gateway"><rect fill="#E2E2F0" height="31.6094" rx="2.5" ry="2.5" style="stroke:#181818;stroke-width:0.5;" width="95.7031" x="489.6318" y="88.6094"/><text fill="#000000" font-family="sans-serif" font-size="14" lengthAdjust="spacing" textLength="81.7031" x="496.6318" y="110.1426">API Gateway</text></g><g class="participant participant-tail" data-participant="Gateway"><rect fill="#E2E2F0" height="31.6094" rx="2.5" ry="2.5" style="stroke:#181818;stroke-width:0.5;" width="95.7031" x="489.6318" y="1494.6563"/><text fill="#000000" font-family="sans-serif" font-size="14" lengthAdjust="spacing" textLength="81.7031" x="496.6318" y="1516.1895">API Gateway</text></g><g class="participant participant-head" data-participant="BankService"><rect fill="#E2E2F0" height="31.6094" rx="2.5" ry="2.5" style="stroke:#181818;stroke-width:0.5;" width="115.165" x="614.3652" y="88.6094"/><text fill="#000000" font-family="sans-serif" font-size="14" lengthAdjust="spacing" textLength="101.165" x="621.3652" y="110.1426">Banking Service</text></g><g class="participant participant-tail" data-participant="BankService"><rect fill="#E2E2F0" height="31.6094" rx="2.5" ry="2.5" style="stroke:#181818;stroke-width:0.5;" width="115.165" x="614.3652" y="1494.6563"/><text fill="#000000" font-family="sans-serif" font-size="14" lengthAdjust="spacing" textLength="101.165" x="621.3652" y="1516.1895">Banking Service</text></g><g class="participant participant-head" data-participant="ExtBank"><rect fill="#E2E2F0" height="31.6094" rx="2.5" ry="2.5" style="stroke:#181818;stroke-width:0.5;" width="146.2959" x="794.0005" y="88.6094"/><text fill="#000000" font-family="sans-serif" font-size="14" lengthAdjust="spacing" textLength="132.2959" x="801.0005" y="110.1426">External Banking API</text></g><g class="participant participant-tail" data-participant="ExtBank"><rect fill="#E2E2F0" height="31.6094" rx="2.5" ry="2.5" style="stroke:#181818;stroke-width:0.5;" width="146.2959" x="794.0005" y="1494.6563"/><text fill="#000000" font-family="sans-serif" font-size="14" lengthAdjust="spacing" textLength="132.2959" x="801.0005" y="1516.1895">External Banking API</text></g><g class="participant participant-head" data-participant="NotifService"><rect fill="#E2E2F0" height="31.6094" rx="2.5" ry="2.5" style="stroke:#181818;stroke-width:0.5;" width="133.8271" x="960.6738" y="88.6094"/><text fill="#000000" font-family="sans-serif" font-size="14" lengthAdjust="spacing" textLength="119.8271" x="967.6738" y="110.1426">Notification Service</text></g><g class="participant participant-tail" data-participant="NotifService"><rect fill="#E2E2F0" height="31.6094" rx="2.5" ry="2.5" style="stroke:#181818;stroke-width:0.5;" width="133.8271" x="960.6738" y="1494.6563"/><text fill="#000000" font-family="sans-serif" font-size="14" lengthAdjust="spacing" textLength="119.8271" x="967.6738" y="1516.1895">Notification Service</text></g><g class="participant participant-head" data-participant="DB"><rect fill="#E2E2F0" height="31.6094" rx="2.5" ry="2.5" style="stroke:#181818;stroke-width:0.5;" width="73.9307" x="1104.501" y="88.6094"/><text fill="#000000" font-family="sans-serif" font-size="14" lengthAdjust="spacing" textLength="59.9307" x="1111.501" y="110.1426">Database</text></g><g class="participant participant-tail" data-participant="DB"><rect fill="#E2E2F0" height="31.6094" rx="2.5" ry="2.5" style="stroke:#181818;stroke-width:0.5;" width="73.9307" x="1104.501" y="1494.6563"/><text fill="#000000" font-family="sans-serif" font-size="14" lengthAdjust="spacing" textLength="59.9307" x="1111.501" y="1516.1895">Database</text></g><g><title>FalsoPay App</title><rect fill="#FFFFFF" height="1310.0859" style="stroke:#181818;stroke-width:1;" width="10" x="285.3101" y="153.5703"/></g><g><title>API Gateway</title><rect fill="#FFFFFF" height="583.1641" style="stroke:#181818;stroke-width:1;" width="10" x="532.4834" y="300.9766"/></g><g><title>API Gateway</title><rect fill="#FFFFFF" height="435.7578" style="stroke:#181818;stroke-width:1;" width="10" x="532.4834" y="997.5469"/></g><g><title>Banking Service</title><rect fill="#FFFFFF" height="522.4609" style="stroke:#181818;stroke-width:1;" width="10" x="666.9478" y="331.3281"/></g><g><title>Banking Service</title><rect fill="#FFFFFF" height="375.0547" style="stroke:#181818;stroke-width:1;" width="10" x="666.9478" y="1027.8984"/></g><g><title>External Banking API</title><rect fill="#FFFFFF" height="192.9453" style="stroke:#181818;stroke-width:1;" width="10" x="862.1484" y="405.0313"/></g><g><title>External Banking API</title><rect fill="#FFFFFF" height="73.7031" style="stroke:#181818;stroke-width:1;" width="10" x="862.1484" y="628.3281"/></g><g><title>External Banking API</title><rect fill="#FFFFFF" height="192.9453" style="stroke:#181818;stroke-width:1;" width="10" x="862.1484" y="1058.25"/></g><g><title>Notification Service</title><rect fill="#FFFFFF" height="30.3516" style="stroke:#181818;stroke-width:1;" width="10" x="1022.5874" y="793.0859"/></g><g><title>Notification Service</title><rect fill="#FFFFFF" height="30.3516" style="stroke:#181818;stroke-width:1;" width="10" x="1022.5874" y="1342.25"/></g><g><title>Database</title><rect fill="#FFFFFF" height="30.3516" style="stroke:#181818;stroke-width:1;" width="10" x="1136.4663" y="732.3828"/></g><g><title>Database</title><rect fill="#FFFFFF" height="30.3516" style="stroke:#181818;stroke-width:1;" width="10" x="1136.4663" y="1281.5469"/></g><g class="message" data-participant-1="User" data-participant-2="App"><polygon fill="#181818" points="273.3101,149.5703,283.3101,153.5703,273.3101,157.5703,277.3101,153.5703" style="stroke:#181818;stroke-width:1;"/><line style="stroke:#181818;stroke-width:1;" x1="83.5757" x2="279.3101" y1="153.5703" y2="153.5703"/><text fill="#000000" font-family="sans-serif" font-size="13" lengthAdjust="spacing" textLength="156.6475" x="90.5757" y="148.7139">Select "Link Bank Account"</text></g><g class="message" data-participant-1="App" data-participant-2="App"><line style="stroke:#181818;stroke-width:1;stroke-dasharray:2.0,2.0;" x1="295.3101" x2="337.3101" y1="183.9219" y2="183.9219"/><line style="stroke:#181818;stroke-width:1;stroke-dasharray:2.0,2.0;" x1="337.3101" x2="337.3101" y1="183.9219" y2="196.9219"/><line style="stroke:#181818;stroke-width:1;stroke-dasharray:2.0,2.0;" x1="296.3101" x2="337.3101" y1="196.9219" y2="196.9219"/><polygon fill="#181818" points="306.3101,192.9219,296.3101,196.9219,306.3101,200.9219,302.3101,196.9219" style="stroke:#181818;stroke-width:1;"/><text fill="#000000" font-family="sans-serif" font-size="13" lengthAdjust="spacing" textLength="153.1816" x="302.3101" y="179.0654">Display bank account form</text></g><g class="message" data-participant-1="User" data-participant-2="App"><polygon fill="#181818" points="273.3101,223.2734,283.3101,227.2734,273.3101,231.2734,277.3101,227.2734" style="stroke:#181818;stroke-width:1;"/><line style="stroke:#181818;stroke-width:1;" x1="83.5757" x2="279.3101" y1="227.2734" y2="227.2734"/><text fill="#000000" font-family="sans-serif" font-size="13" lengthAdjust="spacing" textLength="153.207" x="90.5757" y="222.417">Enter bank account details</text></g><g class="message" data-participant-1="App" data-participant-2="App"><line style="stroke:#181818;stroke-width:1;" x1="295.3101" x2="337.3101" y1="257.625" y2="257.625"/><line style="stroke:#181818;stroke-width:1;" x1="337.3101" x2="337.3101" y1="257.625" y2="270.625"/><line style="stroke:#181818;stroke-width:1;" x1="296.3101" x2="337.3101" y1="270.625" y2="270.625"/><polygon fill="#181818" points="306.3101,266.625,296.3101,270.625,306.3101,274.625,302.3101,270.625" style="stroke:#181818;stroke-width:1;"/><text fill="#000000" font-family="sans-serif" font-size="13" lengthAdjust="spacing" textLength="119.2344" x="302.3101" y="252.7686">Validate input format</text></g><g class="message" data-participant-1="App" data-participant-2="Gateway"><polygon fill="#181818" points="520.4834,296.9766,530.4834,300.9766,520.4834,304.9766,524.4834,300.9766" style="stroke:#181818;stroke-width:1;"/><line style="stroke:#181818;stroke-width:1;" x1="295.3101" x2="526.4834" y1="300.9766" y2="300.9766"/><text fill="#000000" font-family="sans-serif" font-size="13" lengthAdjust="spacing" textLength="132.2344" x="302.3101" y="296.1201">POST /api/banking/link</text></g><g class="message" data-participant-1="Gateway" data-participant-2="BankService"><polygon fill="#181818" points="654.9478,327.3281,664.9478,331.3281,654.9478,335.3281,658.9478,331.3281" style="stroke:#181818;stroke-width:1;"/><line style="stroke:#181818;stroke-width:1;" x1="542.4834" x2="660.9478" y1="331.3281" y2="331.3281"/><text fill="#000000" font-family="sans-serif" font-size="13" lengthAdjust="spacing" textLength="104.7935" x="549.4834" y="326.4717">Link bank account</text></g><g class="message" data-participant-1="BankService" data-participant-2="BankService"><line style="stroke:#181818;stroke-width:1;" x1="676.9478" x2="718.9478" y1="361.6797" y2="361.6797"/><line style="stroke:#181818;stroke-width:1;" x1="718.9478" x2="718.9478" y1="361.6797" y2="374.6797"/><line style="stroke:#181818;stroke-width:1;" x1="677.9478" x2="718.9478" y1="374.6797" y2="374.6797"/><polygon fill="#181818" points="687.9478,370.6797,677.9478,374.6797,687.9478,378.6797,683.9478,374.6797" style="stroke:#181818;stroke-width:1;"/><text fill="#000000" font-family="sans-serif" font-size="13" lengthAdjust="spacing" textLength="160.4243" x="683.9478" y="356.8232">Validate bank details format</text></g><g class="message" data-participant-1="BankService" data-participant-2="ExtBank"><polygon fill="#181818" points="850.1484,401.0313,860.1484,405.0313,850.1484,409.0313,854.1484,405.0313" style="stroke:#181818;stroke-width:1;"/><line style="stroke:#181818;stroke-width:1;" x1="676.9478" x2="856.1484" y1="405.0313" y2="405.0313"/><text fill="#000000" font-family="sans-serif" font-size="13" lengthAdjust="spacing" textLength="140.9053" x="683.9478" y="400.1748">Verify account existence</text></g><path d="M10,420.0313 L70.1709,420.0313 L70.1709,428.3828 L60.1709,438.3828 L10,438.3828 L10,420.0313" fill="#EEEEEE" style="stroke:#000000;stroke-width:1.5;"/><rect fill="none" height="1058.625" style="stroke:#000000;stroke-width:1.5;" width="1188.4316" x="10" y="420.0313"/><text fill="#000000" font-family="sans-serif" font-size="13" font-weight="bold" lengthAdjust="spacing" textLength="15.1709" x="25" y="434.5264">alt</text><text fill="#000000" font-family="sans-serif" font-size="11" font-weight="bold" lengthAdjust="spacing" textLength="108.8022" x="85.1709" y="433.4502">[Invalid bank details]</text><g class="message" data-participant-1="ExtBank" data-participant-2="BankService"><polygon fill="#181818" points="687.9478,456.7344,677.9478,460.7344,687.9478,464.7344,683.9478,460.7344" style="stroke:#181818;stroke-width:1;"/><line style="stroke:#181818;stroke-width:1;stroke-dasharray:2.0,2.0;" x1="681.9478" x2="861.1484" y1="460.7344" y2="460.7344"/><text fill="#000000" font-family="sans-serif" font-size="13" lengthAdjust="spacing" textLength="127.9116" x="693.9478" y="455.8779">Invalid account details</text></g><g class="message" data-participant-1="BankService" data-participant-2="Gateway"><polygon fill="#181818" points="553.4834,487.0859,543.4834,491.0859,553.4834,495.0859,549.4834,491.0859" style="stroke:#181818;stroke-width:1;"/><line style="stroke:#181818;stroke-width:1;stroke-dasharray:2.0,2.0;" x1="547.4834" x2="665.9478" y1="491.0859" y2="491.0859"/><text fill="#000000" font-family="sans-serif" font-size="13" lengthAdjust="spacing" textLength="100.4644" x="559.4834" y="486.2295">400 Bad Request</text></g><g class="message" data-participant-1="Gateway" data-participant-2="App"><polygon fill="#181818" points="306.3101,517.4375,296.3101,521.4375,306.3101,525.4375,302.3101,521.4375" style="stroke:#181818;stroke-width:1;"/><line style="stroke:#181818;stroke-width:1;stroke-dasharray:2.0,2.0;" x1="300.3101" x2="531.4834" y1="521.4375" y2="521.4375"/><text fill="#000000" font-family="sans-serif" font-size="13" lengthAdjust="spacing" textLength="100.4644" x="312.3101" y="516.5811">400 Bad Request</text></g><g class="message" data-participant-1="App" data-participant-2="User"><polygon fill="#181818" points="94.5757,547.7891,84.5757,551.7891,94.5757,555.7891,90.5757,551.7891" style="stroke:#181818;stroke-width:1;"/><line style="stroke:#181818;stroke-width:1;stroke-dasharray:2.0,2.0;" x1="88.5757" x2="284.3101" y1="551.7891" y2="551.7891"/><text fill="#000000" font-family="sans-serif" font-size="13" lengthAdjust="spacing" textLength="130.0444" x="100.5757" y="546.9326">Display error message</text></g><line style="stroke:#000000;stroke-width:1;stroke-dasharray:2.0,2.0;" x1="10" x2="1198.4316" y1="560.7891" y2="560.7891"/><text fill="#000000" font-family="sans-serif" font-size="11" font-weight="bold" lengthAdjust="spacing" textLength="85.5723" x="15" y="572.208">[Account exists]</text><g class="message" data-participant-1="ExtBank" data-participant-2="BankService"><polygon fill="#181818" points="687.9478,593.9766,677.9478,597.9766,687.9478,601.9766,683.9478,597.9766" style="stroke:#181818;stroke-width:1;"/><line style="stroke:#181818;stroke-width:1;stroke-dasharray:2.0,2.0;" x1="681.9478" x2="866.1484" y1="597.9766" y2="597.9766"/><text fill="#000000" font-family="sans-serif" font-size="13" lengthAdjust="spacing" textLength="83.8145" x="693.9478" y="593.1201">Account exists</text></g><g class="message" data-participant-1="BankService" data-participant-2="ExtBank"><polygon fill="#181818" points="850.1484,624.3281,860.1484,628.3281,850.1484,632.3281,854.1484,628.3281" style="stroke:#181818;stroke-width:1;"/><line style="stroke:#181818;stroke-width:1;" x1="676.9478" x2="856.1484" y1="628.3281" y2="628.3281"/><text fill="#000000" font-family="sans-serif" font-size="13" lengthAdjust="spacing" textLength="163.3125" x="683.9478" y="623.4717">Request account verification</text></g><g class="message" data-participant-1="ExtBank" data-participant-2="ExtBank"><line style="stroke:#181818;stroke-width:1;" x1="872.1484" x2="914.1484" y1="658.6797" y2="658.6797"/><line style="stroke:#181818;stroke-width:1;" x1="914.1484" x2="914.1484" y1="658.6797" y2="671.6797"/><line style="stroke:#181818;stroke-width:1;" x1="873.1484" x2="914.1484" y1="671.6797" y2="671.6797"/><polygon fill="#181818" points="883.1484,667.6797,873.1484,671.6797,883.1484,675.6797,879.1484,671.6797" style="stroke:#181818;stroke-width:1;"/><text fill="#000000" font-family="sans-serif" font-size="13" lengthAdjust="spacing" textLength="126.439" x="879.1484" y="653.8232">Initiate micro-deposits</text></g><g class="message" data-participant-1="ExtBank" data-participant-2="BankService"><polygon fill="#181818" points="687.9478,698.0313,677.9478,702.0313,687.9478,706.0313,683.9478,702.0313" style="stroke:#181818;stroke-width:1;"/><line style="stroke:#181818;stroke-width:1;stroke-dasharray:2.0,2.0;" x1="681.9478" x2="866.1484" y1="702.0313" y2="702.0313"/><text fill="#000000" font-family="sans-serif" font-size="13" lengthAdjust="spacing" textLength="112.728" x="693.9478" y="697.1748">Verification initiated</text></g><g class="message" data-participant-1="BankService" data-participant-2="DB"><polygon fill="#181818" points="1124.4663,728.3828,1134.4663,732.3828,1124.4663,736.3828,1128.4663,732.3828" style="stroke:#181818;stroke-width:1;"/><line style="stroke:#181818;stroke-width:1;" x1="676.9478" x2="1130.4663" y1="732.3828" y2="732.3828"/><text fill="#000000" font-family="sans-serif" font-size="13" lengthAdjust="spacing" textLength="161.897" x="683.9478" y="727.5264">Store pending bank account</text></g><g class="message" data-participant-1="DB" data-participant-2="BankService"><polygon fill="#181818" points="687.9478,758.7344,677.9478,762.7344,687.9478,766.7344,683.9478,762.7344" style="stroke:#181818;stroke-width:1;"/><line style="stroke:#181818;stroke-width:1;stroke-dasharray:2.0,2.0;" x1="681.9478" x2="1140.4663" y1="762.7344" y2="762.7344"/><text fill="#000000" font-family="sans-serif" font-size="13" lengthAdjust="spacing" textLength="49.1309" x="693.9478" y="757.8779">Success</text></g><g class="message" data-participant-1="BankService" data-participant-2="NotifService"><polygon fill="#181818" points="1010.5874,789.0859,1020.5874,793.0859,1010.5874,797.0859,1014.5874,793.0859" style="stroke:#181818;stroke-width:1;"/><line style="stroke:#181818;stroke-width:1;" x1="676.9478" x2="1016.5874" y1="793.0859" y2="793.0859"/><text fill="#000000" font-family="sans-serif" font-size="13" lengthAdjust="spacing" textLength="165.4707" x="683.9478" y="788.2295">Send verification instructions</text></g><g class="message" data-participant-1="NotifService" data-participant-2="BankService"><polygon fill="#181818" points="687.9478,819.4375,677.9478,823.4375,687.9478,827.4375,683.9478,823.4375" style="stroke:#181818;stroke-width:1;"/><line style="stroke:#181818;stroke-width:1;stroke-dasharray:2.0,2.0;" x1="681.9478" x2="1026.5874" y1="823.4375" y2="823.4375"/><text fill="#000000" font-family="sans-serif" font-size="13" lengthAdjust="spacing" textLength="111.2998" x="693.9478" y="818.5811">Notification queued</text></g><g class="message" data-participant-1="BankService" data-participant-2="Gateway"><polygon fill="#181818" points="553.4834,849.7891,543.4834,853.7891,553.4834,857.7891,549.4834,853.7891" style="stroke:#181818;stroke-width:1;"/><line style="stroke:#181818;stroke-width:1;stroke-dasharray:2.0,2.0;" x1="547.4834" x2="670.9478" y1="853.7891" y2="853.7891"/><text fill="#000000" font-family="sans-serif" font-size="13" lengthAdjust="spacing" textLength="79.5044" x="559.4834" y="848.9326">202 Accepted</text></g><g class="message" data-participant-1="Gateway" data-participant-2="App"><polygon fill="#181818" points="306.3101,880.1406,296.3101,884.1406,306.3101,888.1406,302.3101,884.1406" style="stroke:#181818;stroke-width:1;"/><line style="stroke:#181818;stroke-width:1;stroke-dasharray:2.0,2.0;" x1="300.3101" x2="536.4834" y1="884.1406" y2="884.1406"/><text fill="#000000" font-family="sans-serif" font-size="13" lengthAdjust="spacing" textLength="213.1733" x="312.3101" y="879.2842">202 Accepted with verification details</text></g><g class="message" data-participant-1="App" data-participant-2="User"><polygon fill="#181818" points="94.5757,921.668,84.5757,925.668,94.5757,929.668,90.5757,925.668" style="stroke:#181818;stroke-width:1;"/><line style="stroke:#181818;stroke-width:1;stroke-dasharray:2.0,2.0;" x1="88.5757" x2="284.3101" y1="925.668" y2="925.668"/><text fill="#000000" font-family="sans-serif" font-size="13" lengthAdjust="spacing" textLength="177.7344" x="100.5757" y="920.8115">Display verification instructions</text></g><path d="M300,897.1406 L300,939.1406 L612,939.1406 L612,907.1406 L602,897.1406 L300,897.1406" fill="#FEFFDD" style="stroke:#181818;stroke-width:0.5;"/><path d="M602,897.1406 L602,907.1406 L612,907.1406 L602,897.1406" fill="#FEFFDD" style="stroke:#181818;stroke-width:0.5;"/><text fill="#000000" font-family="sans-serif" font-size="13" lengthAdjust="spacing" textLength="291.1797" x="306" y="915.6357">User receives micro-deposits in their bank account</text><text fill="#000000" font-family="sans-serif" font-size="13" lengthAdjust="spacing" textLength="197.9707" x="306" y="931.9873">(typically takes 1-3 business days)</text><g class="message" data-participant-1="User" data-participant-2="App"><polygon fill="#181818" points="273.3101,963.1953,283.3101,967.1953,273.3101,971.1953,277.3101,967.1953" style="stroke:#181818;stroke-width:1;"/><line style="stroke:#181818;stroke-width:1;" x1="83.5757" x2="279.3101" y1="967.1953" y2="967.1953"/><text fill="#000000" font-family="sans-serif" font-size="13" lengthAdjust="spacing" textLength="150.2935" x="90.5757" y="962.3389">Enter verification amounts</text></g><g class="message" data-participant-1="App" data-participant-2="Gateway"><polygon fill="#181818" points="520.4834,993.5469,530.4834,997.5469,520.4834,1001.5469,524.4834,997.5469" style="stroke:#181818;stroke-width:1;"/><line style="stroke:#181818;stroke-width:1;" x1="295.3101" x2="526.4834" y1="997.5469" y2="997.5469"/><text fill="#000000" font-family="sans-serif" font-size="13" lengthAdjust="spacing" textLength="143.7871" x="302.3101" y="992.6904">POST /api/banking/verify</text></g><g class="message" data-participant-1="Gateway" data-participant-2="BankService"><polygon fill="#181818" points="654.9478,1023.8984,664.9478,1027.8984,654.9478,1031.8984,658.9478,1027.8984" style="stroke:#181818;stroke-width:1;"/><line style="stroke:#181818;stroke-width:1;" x1="542.4834" x2="660.9478" y1="1027.8984" y2="1027.8984"/><text fill="#000000" font-family="sans-serif" font-size="13" lengthAdjust="spacing" textLength="86.7026" x="549.4834" y="1023.042">Verify amounts</text></g><g class="message" data-participant-1="BankService" data-participant-2="ExtBank"><polygon fill="#181818" points="850.1484,1054.25,860.1484,1058.25,850.1484,1062.25,854.1484,1058.25" style="stroke:#181818;stroke-width:1;"/><line style="stroke:#181818;stroke-width:1;" x1="676.9478" x2="856.1484" y1="1058.25" y2="1058.25"/><text fill="#000000" font-family="sans-serif" font-size="13" lengthAdjust="spacing" textLength="166.2007" x="683.9478" y="1053.3936">Validate verification amounts</text></g><path d="M20,1073.25 L80.1709,1073.25 L80.1709,1081.6016 L70.1709,1091.6016 L20,1091.6016 L20,1073.25" fill="#EEEEEE" style="stroke:#000000;stroke-width:1.5;"/><rect fill="none" height="398.4063" style="stroke:#000000;stroke-width:1.5;" width="1168.4316" x="20" y="1073.25"/><text fill="#000000" font-family="sans-serif" font-size="13" font-weight="bold" lengthAdjust="spacing" textLength="15.1709" x="35" y="1087.7451">alt</text><text fill="#000000" font-family="sans-serif" font-size="11" font-weight="bold" lengthAdjust="spacing" textLength="92.2969" x="95.1709" y="1086.6689">[Verification fails]</text><g class="message" data-participant-1="ExtBank" data-participant-2="BankService"><polygon fill="#181818" points="687.9478,1109.9531,677.9478,1113.9531,687.9478,1117.9531,683.9478,1113.9531" style="stroke:#181818;stroke-width:1;"/><line style="stroke:#181818;stroke-width:1;stroke-dasharray:2.0,2.0;" x1="681.9478" x2="861.1484" y1="1113.9531" y2="1113.9531"/><text fill="#000000" font-family="sans-serif" font-size="13" lengthAdjust="spacing" textLength="98.998" x="693.9478" y="1109.0967">Verification failed</text></g><g class="message" data-participant-1="BankService" data-participant-2="Gateway"><polygon fill="#181818" points="553.4834,1140.3047,543.4834,1144.3047,553.4834,1148.3047,549.4834,1144.3047" style="stroke:#181818;stroke-width:1;"/><line style="stroke:#181818;stroke-width:1;stroke-dasharray:2.0,2.0;" x1="547.4834" x2="665.9478" y1="1144.3047" y2="1144.3047"/><text fill="#000000" font-family="sans-serif" font-size="13" lengthAdjust="spacing" textLength="100.4644" x="559.4834" y="1139.4482">400 Bad Request</text></g><g class="message" data-participant-1="Gateway" data-participant-2="App"><polygon fill="#181818" points="306.3101,1170.6563,296.3101,1174.6563,306.3101,1178.6563,302.3101,1174.6563" style="stroke:#181818;stroke-width:1;"/><line style="stroke:#181818;stroke-width:1;stroke-dasharray:2.0,2.0;" x1="300.3101" x2="531.4834" y1="1174.6563" y2="1174.6563"/><text fill="#000000" font-family="sans-serif" font-size="13" lengthAdjust="spacing" textLength="100.4644" x="312.3101" y="1169.7998">400 Bad Request</text></g><g class="message" data-participant-1="App" data-participant-2="User"><polygon fill="#181818" points="94.5757,1201.0078,84.5757,1205.0078,94.5757,1209.0078,90.5757,1205.0078" style="stroke:#181818;stroke-width:1;"/><line style="stroke:#181818;stroke-width:1;stroke-dasharray:2.0,2.0;" x1="88.5757" x2="284.3101" y1="1205.0078" y2="1205.0078"/><text fill="#000000" font-family="sans-serif" font-size="13" lengthAdjust="spacing" textLength="139.4326" x="100.5757" y="1200.1514">Display verification error</text></g><line style="stroke:#000000;stroke-width:1;stroke-dasharray:2.0,2.0;" x1="20" x2="1188.4316" y1="1214.0078" y2="1214.0078"/><text fill="#000000" font-family="sans-serif" font-size="11" font-weight="bold" lengthAdjust="spacing" textLength="120.4307" x="25" y="1225.4268">[Verification succeeds]</text><g class="message" data-participant-1="ExtBank" data-participant-2="BankService"><polygon fill="#181818" points="687.9478,1247.1953,677.9478,1251.1953,687.9478,1255.1953,683.9478,1251.1953" style="stroke:#181818;stroke-width:1;"/><line style="stroke:#181818;stroke-width:1;stroke-dasharray:2.0,2.0;" x1="681.9478" x2="866.1484" y1="1251.1953" y2="1251.1953"/><text fill="#000000" font-family="sans-serif" font-size="13" lengthAdjust="spacing" textLength="128.6099" x="693.9478" y="1246.3389">Verification successful</text></g><g class="message" data-participant-1="BankService" data-participant-2="DB"><polygon fill="#181818" points="1124.4663,1277.5469,1134.4663,1281.5469,1124.4663,1285.5469,1128.4663,1281.5469" style="stroke:#181818;stroke-width:1;"/><line style="stroke:#181818;stroke-width:1;" x1="676.9478" x2="1130.4663" y1="1281.5469" y2="1281.5469"/><text fill="#000000" font-family="sans-serif" font-size="13" lengthAdjust="spacing" textLength="221.1333" x="683.9478" y="1276.6904">Update bank account status to verified</text></g><g class="message" data-participant-1="DB" data-participant-2="BankService"><polygon fill="#181818" points="687.9478,1307.8984,677.9478,1311.8984,687.9478,1315.8984,683.9478,1311.8984" style="stroke:#181818;stroke-width:1;"/><line style="stroke:#181818;stroke-width:1;stroke-dasharray:2.0,2.0;" x1="681.9478" x2="1140.4663" y1="1311.8984" y2="1311.8984"/><text fill="#000000" font-family="sans-serif" font-size="13" lengthAdjust="spacing" textLength="49.1309" x="693.9478" y="1307.042">Success</text></g><g class="message" data-participant-1="BankService" data-participant-2="NotifService"><polygon fill="#181818" points="1010.5874,1338.25,1020.5874,1342.25,1010.5874,1346.25,1014.5874,1342.25" style="stroke:#181818;stroke-width:1;"/><line style="stroke:#181818;stroke-width:1;" x1="676.9478" x2="1016.5874" y1="1342.25" y2="1342.25"/><text fill="#000000" font-family="sans-serif" font-size="13" lengthAdjust="spacing" textLength="104.7808" x="683.9478" y="1337.3936">Send confirmation</text></g><g class="message" data-participant-1="NotifService" data-participant-2="BankService"><polygon fill="#181818" points="687.9478,1368.6016,677.9478,1372.6016,687.9478,1376.6016,683.9478,1372.6016" style="stroke:#181818;stroke-width:1;"/><line style="stroke:#181818;stroke-width:1;stroke-dasharray:2.0,2.0;" x1="681.9478" x2="1026.5874" y1="1372.6016" y2="1372.6016"/><text fill="#000000" font-family="sans-serif" font-size="13" lengthAdjust="spacing" textLength="111.2998" x="693.9478" y="1367.7451">Notification queued</text></g><g class="message" data-participant-1="BankService" data-participant-2="Gateway"><polygon fill="#181818" points="553.4834,1398.9531,543.4834,1402.9531,553.4834,1406.9531,549.4834,1402.9531" style="stroke:#181818;stroke-width:1;"/><line style="stroke:#181818;stroke-width:1;stroke-dasharray:2.0,2.0;" x1="547.4834" x2="670.9478" y1="1402.9531" y2="1402.9531"/><text fill="#000000" font-family="sans-serif" font-size="13" lengthAdjust="spacing" textLength="44.0845" x="559.4834" y="1398.0967">200 OK</text></g><g class="message" data-participant-1="Gateway" data-participant-2="App"><polygon fill="#181818" points="306.3101,1429.3047,296.3101,1433.3047,306.3101,1437.3047,302.3101,1433.3047" style="stroke:#181818;stroke-width:1;"/><line style="stroke:#181818;stroke-width:1;stroke-dasharray:2.0,2.0;" x1="300.3101" x2="536.4834" y1="1433.3047" y2="1433.3047"/><text fill="#000000" font-family="sans-serif" font-size="13" lengthAdjust="spacing" textLength="44.0845" x="312.3101" y="1428.4482">200 OK</text></g><g class="message" data-participant-1="App" data-participant-2="User"><polygon fill="#181818" points="94.5757,1459.6563,84.5757,1463.6563,94.5757,1467.6563,90.5757,1463.6563" style="stroke:#181818;stroke-width:1;"/><line style="stroke:#181818;stroke-width:1;stroke-dasharray:2.0,2.0;" x1="88.5757" x2="289.3101" y1="1463.6563" y2="1463.6563"/><text fill="#000000" font-family="sans-serif" font-size="13" lengthAdjust="spacing" textLength="117.0444" x="100.5757" y="1458.7998">Display confirmation</text></g><!--SRC=[dLPDRzim3BtxLmWvROUWMRTTUXZGBDrGR5YBTUrTaPbKg2Dxafms_twaB3bIBAVf32Jn1_b8FfBFuSBMcar-mreQ2nfATcz0JnWtxgHekBPIo8OhooRVU6NgMxvZbqtZJF0tjRYylMRVkOLdldC6_ZmrcdFr9DMQtO7UIW7EaExvwzJuwWNJKhnYmGj3E0zyGBTIwr-rbIifk9MrIl3TWso01RTyoKrdjfWNXPMs0dR_TVhvWlsKwib5PfT2rAsoHK6qiEaNglq2GrGW46HWDocui7ABvJkI2lnYq-2raAQfaCObEV3EWQrglKd1hnIMdXgLOBciJ0VdpHvu9KiA95NJTZZS5i74T-22tTxS_M5dl95doux9imgJtgSPMbNu4tAEkkAvYBFP-yRTAwAB0KQVgyFnrOIK3nnzWz49j5pjUWxWXKPLOQW-VfY5WbUMNQijHKb250mFR-Nwa6GLF0vP9gSagPZFJxCPFYpPR_ZRWh7EkASkz2Pd54Q1UhsV1T0Q5t43nl0r550P2AFK5VnA2HdR4WRyqErXLH7LFi-UYIrHx_V9EMOX-wmYf6ibhIJ3ZHIwdfRGr4Q-LiL350x7kKCetrhDOewBYR86h05LacOaKvkKWGjFrulvC9cxLWXins5qxv4B78iCQOCg4mAn8cDrA-ZSf6aayaHFuXl3r1APmuwrGv86YCUd-NnsJZC4JORlUBjxfC6enmZiMTh7jFPufoBie3ezRduxZjFelbIDS5gk7xiEq-7KL8C0kGLpC8Y8mkmZI3qS3ZhUsLs3yQfgnon_GkyFquzisHgfS2HOoNVclREb7bFaVHuP2K-ovniA52M-B_keMZkGNJes0_R6j3j8Q1JxU7j7jJW8-6XDusjAufni-AgVYDDLWNpyYBvPda-Mw1C7qMbsDmQarqcUXjG3ohUMPphHMRLLxpYYV3sj8mfut-nVj47EZUMsDSpMlew8o4DzEqKLyyfuBB6CGefQhIIz_yChvhWm_hyulYQGutcdGZbZDpzoW8TxbE1bv78C9rxg12C_aLd-8ZZw- -cLgg3FFm00]--></g></svg>