<svg xmlns="http://www.w3.org/2000/svg" xmlns:xlink="http://www.w3.org/1999/xlink" contentStyleType="text/css" data-diagram-type="SEQUENCE" height="1178px" preserveAspectRatio="none" style="width:1261px;height:1178px;background:#FFFFFF;" version="1.1" viewBox="0 0 1261 1178" width="1261px" zoomAndPan="magnify"><title>UC-8: Authorize Sending Money</title><defs/><g><text fill="#000000" font-family="sans-serif" font-size="14" font-weight="bold" lengthAdjust="spacing" textLength="213.1104" x="525.4138" y="29.5332">UC-8: Authorize Sending Money</text><g><title>Registered User</title><rect fill="#FFFFFF" height="910.5156" style="stroke:#181818;stroke-width:1;" width="10" x="78.5757" y="153.5703"/></g><g><title>FalsoPay App</title><rect fill="#FFFFFF" height="910.5156" style="stroke:#181818;stroke-width:1;" width="10" x="369.1162" y="153.5703"/></g><g><title>API Gateway</title><rect fill="#FFFFFF" height="806.4609" style="stroke:#181818;stroke-width:1;" width="10" x="588.876" y="227.2734"/></g><g><title>Transaction Service</title><rect fill="#FFFFFF" height="745.7578" style="stroke:#181818;stroke-width:1;" width="10" x="755.1167" y="257.625"/></g><g><title>Account Service</title><rect fill="#FFFFFF" height="253.6484" style="stroke:#181818;stroke-width:1;" width="10" x="963.2837" y="287.9766"/></g><g><title>Security Service</title><rect fill="#FFFFFF" height="162.5938" style="stroke:#181818;stroke-width:1;" width="10" x="1088.4351" y="706.3828"/></g><g><title>Database</title><rect fill="#FFFFFF" height="30.3516" style="stroke:#181818;stroke-width:1;" width="10" x="1192.9727" y="318.3281"/></g><g><title>Database</title><rect fill="#FFFFFF" height="30.3516" style="stroke:#181818;stroke-width:1;" width="10" x="1192.9727" y="899.3281"/></g><rect fill="none" height="715.4063" style="stroke:#000000;stroke-width:1.5;" width="1244.938" x="10" y="363.6797"/><rect fill="none" height="350.7031" style="stroke:#000000;stroke-width:1.5;" width="1224.938" x="20" y="721.3828"/><g><title>Registered User</title><rect fill="#000000" fill-opacity="0.00000" height="974.8672" width="8" x="79.5757" y="121.2188"/><line style="stroke:#181818;stroke-width:0.5;stroke-dasharray:5.0,5.0;" x1="83" x2="83" y1="121.2188" y2="1096.0859"/></g><g><title>FalsoPay App</title><rect fill="#000000" fill-opacity="0.00000" height="974.8672" width="8" x="370.1162" y="121.2188"/><line style="stroke:#181818;stroke-width:0.5;stroke-dasharray:5.0,5.0;" x1="373.5371" x2="373.5371" y1="121.2188" y2="1096.0859"/></g><g><title>API Gateway</title><rect fill="#000000" fill-opacity="0.00000" height="974.8672" width="8" x="589.876" y="121.2188"/><line style="stroke:#181818;stroke-width:0.5;stroke-dasharray:5.0,5.0;" x1="593.0244" x2="593.0244" y1="121.2188" y2="1096.0859"/></g><g><title>Transaction Service</title><rect fill="#000000" fill-opacity="0.00000" height="974.8672" width="8" x="756.1167" y="121.2188"/><line style="stroke:#181818;stroke-width:0.5;stroke-dasharray:5.0,5.0;" x1="759.2583" x2="759.2583" y1="121.2188" y2="1096.0859"/></g><g><title>Account Service</title><rect fill="#000000" fill-opacity="0.00000" height="974.8672" width="8" x="964.2837" y="121.2188"/><line style="stroke:#181818;stroke-width:0.5;stroke-dasharray:5.0,5.0;" x1="967.7046" x2="967.7046" y1="121.2188" y2="1096.0859"/></g><g><title>Security Service</title><rect fill="#000000" fill-opacity="0.00000" height="974.8672" width="8" x="1089.4351" y="121.2188"/><line style="stroke:#181818;stroke-width:0.5;stroke-dasharray:5.0,5.0;" x1="1092.8628" x2="1092.8628" y1="121.2188" y2="1096.0859"/></g><g><title>Database</title><rect fill="#000000" fill-opacity="0.00000" height="974.8672" width="8" x="1193.9727" y="121.2188"/><line style="stroke:#181818;stroke-width:0.5;stroke-dasharray:5.0,5.0;" x1="1197.0073" x2="1197.0073" y1="121.2188" y2="1096.0859"/></g><g class="participant participant-head" data-participant="User"><text fill="#000000" font-family="sans-serif" font-size="14" lengthAdjust="spacing" textLength="101.1514" x="30" y="118.1426">Registered User</text><ellipse cx="83.5757" cy="52.1094" fill="#E2E2F0" rx="8" ry="8" style="stroke:#181818;stroke-width:0.5;"/><path d="M83.5757,60.1094 L83.5757,87.1094 M70.5757,68.1094 L96.5757,68.1094 M83.5757,87.1094 L70.5757,102.1094 M83.5757,87.1094 L96.5757,102.1094" fill="none" style="stroke:#181818;stroke-width:0.5;"/></g><g class="participant participant-tail" data-participant="User"><text fill="#000000" font-family="sans-serif" font-size="14" lengthAdjust="spacing" textLength="101.1514" x="30" y="1109.6191">Registered User</text><ellipse cx="83.5757" cy="1121.1953" fill="#E2E2F0" rx="8" ry="8" style="stroke:#181818;stroke-width:0.5;"/><path d="M83.5757,1129.1953 L83.5757,1156.1953 M70.5757,1137.1953 L96.5757,1137.1953 M83.5757,1156.1953 L70.5757,1171.1953 M83.5757,1156.1953 L96.5757,1171.1953" fill="none" style="stroke:#181818;stroke-width:0.5;"/></g><g class="participant participant-head" data-participant="App"><rect fill="#E2E2F0" height="31.6094" rx="2.5" ry="2.5" style="stroke:#181818;stroke-width:0.5;" width="101.1582" x="323.5371" y="88.6094"/><text fill="#000000" font-family="sans-serif" font-size="14" lengthAdjust="spacing" textLength="87.1582" x="330.5371" y="110.1426">FalsoPay App</text></g><g class="participant participant-tail" data-participant="App"><rect fill="#E2E2F0" height="31.6094" rx="2.5" ry="2.5" style="stroke:#181818;stroke-width:0.5;" width="101.1582" x="323.5371" y="1095.0859"/><text fill="#000000" font-family="sans-serif" font-size="14" lengthAdjust="spacing" textLength="87.1582" x="330.5371" y="1116.6191">FalsoPay App</text></g><g class="participant participant-head" data-participant="Gateway"><rect fill="#E2E2F0" height="31.6094" rx="2.5" ry="2.5" style="stroke:#181818;stroke-width:0.5;" width="95.7031" x="546.0244" y="88.6094"/><text fill="#000000" font-family="sans-serif" font-size="14" lengthAdjust="spacing" textLength="81.7031" x="553.0244" y="110.1426">API Gateway</text></g><g class="participant participant-tail" data-participant="Gateway"><rect fill="#E2E2F0" height="31.6094" rx="2.5" ry="2.5" style="stroke:#181818;stroke-width:0.5;" width="95.7031" x="546.0244" y="1095.0859"/><text fill="#000000" font-family="sans-serif" font-size="14" lengthAdjust="spacing" textLength="81.7031" x="553.0244" y="1116.6191">API Gateway</text></g><g class="participant participant-head" data-participant="TransService"><rect fill="#E2E2F0" height="31.6094" rx="2.5" ry="2.5" style="stroke:#181818;stroke-width:0.5;" width="137.7168" x="691.2583" y="88.6094"/><text fill="#000000" font-family="sans-serif" font-size="14" lengthAdjust="spacing" textLength="123.7168" x="698.2583" y="110.1426">Transaction Service</text></g><g class="participant participant-tail" data-participant="TransService"><rect fill="#E2E2F0" height="31.6094" rx="2.5" ry="2.5" style="stroke:#181818;stroke-width:0.5;" width="137.7168" x="691.2583" y="1095.0859"/><text fill="#000000" font-family="sans-serif" font-size="14" lengthAdjust="spacing" textLength="123.7168" x="698.2583" y="1116.6191">Transaction Service</text></g><g class="participant participant-head" data-participant="AccountService"><rect fill="#E2E2F0" height="31.6094" rx="2.5" ry="2.5" style="stroke:#181818;stroke-width:0.5;" width="115.1582" x="910.7046" y="88.6094"/><text fill="#000000" font-family="sans-serif" font-size="14" lengthAdjust="spacing" textLength="101.1582" x="917.7046" y="110.1426">Account Service</text></g><g class="participant participant-tail" data-participant="AccountService"><rect fill="#E2E2F0" height="31.6094" rx="2.5" ry="2.5" style="stroke:#181818;stroke-width:0.5;" width="115.1582" x="910.7046" y="1095.0859"/><text fill="#000000" font-family="sans-serif" font-size="14" lengthAdjust="spacing" textLength="101.1582" x="917.7046" y="1116.6191">Account Service</text></g><g class="participant participant-head" data-participant="SecService"><rect fill="#E2E2F0" height="31.6094" rx="2.5" ry="2.5" style="stroke:#181818;stroke-width:0.5;" width="115.1445" x="1035.8628" y="88.6094"/><text fill="#000000" font-family="sans-serif" font-size="14" lengthAdjust="spacing" textLength="101.1445" x="1042.8628" y="110.1426">Security Service</text></g><g class="participant participant-tail" data-participant="SecService"><rect fill="#E2E2F0" height="31.6094" rx="2.5" ry="2.5" style="stroke:#181818;stroke-width:0.5;" width="115.1445" x="1035.8628" y="1095.0859"/><text fill="#000000" font-family="sans-serif" font-size="14" lengthAdjust="spacing" textLength="101.1445" x="1042.8628" y="1116.6191">Security Service</text></g><g class="participant participant-head" data-participant="DB"><rect fill="#E2E2F0" height="31.6094" rx="2.5" ry="2.5" style="stroke:#181818;stroke-width:0.5;" width="73.9307" x="1161.0073" y="88.6094"/><text fill="#000000" font-family="sans-serif" font-size="14" lengthAdjust="spacing" textLength="59.9307" x="1168.0073" y="110.1426">Database</text></g><g class="participant participant-tail" data-participant="DB"><rect fill="#E2E2F0" height="31.6094" rx="2.5" ry="2.5" style="stroke:#181818;stroke-width:0.5;" width="73.9307" x="1161.0073" y="1095.0859"/><text fill="#000000" font-family="sans-serif" font-size="14" lengthAdjust="spacing" textLength="59.9307" x="1168.0073" y="1116.6191">Database</text></g><g><title>Registered User</title><rect fill="#FFFFFF" height="910.5156" style="stroke:#181818;stroke-width:1;" width="10" x="78.5757" y="153.5703"/></g><g><title>FalsoPay App</title><rect fill="#FFFFFF" height="910.5156" style="stroke:#181818;stroke-width:1;" width="10" x="369.1162" y="153.5703"/></g><g><title>API Gateway</title><rect fill="#FFFFFF" height="806.4609" style="stroke:#181818;stroke-width:1;" width="10" x="588.876" y="227.2734"/></g><g><title>Transaction Service</title><rect fill="#FFFFFF" height="745.7578" style="stroke:#181818;stroke-width:1;" width="10" x="755.1167" y="257.625"/></g><g><title>Account Service</title><rect fill="#FFFFFF" height="253.6484" style="stroke:#181818;stroke-width:1;" width="10" x="963.2837" y="287.9766"/></g><g><title>Security Service</title><rect fill="#FFFFFF" height="162.5938" style="stroke:#181818;stroke-width:1;" width="10" x="1088.4351" y="706.3828"/></g><g><title>Database</title><rect fill="#FFFFFF" height="30.3516" style="stroke:#181818;stroke-width:1;" width="10" x="1192.9727" y="318.3281"/></g><g><title>Database</title><rect fill="#FFFFFF" height="30.3516" style="stroke:#181818;stroke-width:1;" width="10" x="1192.9727" y="899.3281"/></g><g class="message" data-participant-1="User" data-participant-2="App"><polygon fill="#181818" points="357.1162,149.5703,367.1162,153.5703,357.1162,157.5703,361.1162,153.5703" style="stroke:#181818;stroke-width:1;"/><line style="stroke:#181818;stroke-width:1;" x1="88.5757" x2="363.1162" y1="153.5703" y2="153.5703"/><text fill="#000000" font-family="sans-serif" font-size="13" lengthAdjust="spacing" textLength="153.937" x="95.5757" y="148.7139">Input recipient and amount</text></g><g class="message" data-participant-1="App" data-participant-2="App"><line style="stroke:#181818;stroke-width:1;" x1="379.1162" x2="421.1162" y1="183.9219" y2="183.9219"/><line style="stroke:#181818;stroke-width:1;" x1="421.1162" x2="421.1162" y1="183.9219" y2="196.9219"/><line style="stroke:#181818;stroke-width:1;" x1="380.1162" x2="421.1162" y1="196.9219" y2="196.9219"/><polygon fill="#181818" points="390.1162,192.9219,380.1162,196.9219,390.1162,200.9219,386.1162,196.9219" style="stroke:#181818;stroke-width:1;"/><text fill="#000000" font-family="sans-serif" font-size="13" lengthAdjust="spacing" textLength="119.2344" x="386.1162" y="179.0654">Validate input format</text></g><g class="message" data-participant-1="App" data-participant-2="Gateway"><polygon fill="#181818" points="576.876,223.2734,586.876,227.2734,576.876,231.2734,580.876,227.2734" style="stroke:#181818;stroke-width:1;"/><line style="stroke:#181818;stroke-width:1;" x1="379.1162" x2="582.876" y1="227.2734" y2="227.2734"/><text fill="#000000" font-family="sans-serif" font-size="13" lengthAdjust="spacing" textLength="190.7598" x="386.1162" y="222.417">POST /api/transactions/authorize</text></g><g class="message" data-participant-1="Gateway" data-participant-2="TransService"><polygon fill="#181818" points="743.1167,253.625,753.1167,257.625,743.1167,261.625,747.1167,257.625" style="stroke:#181818;stroke-width:1;"/><line style="stroke:#181818;stroke-width:1;" x1="598.876" x2="749.1167" y1="257.625" y2="257.625"/><text fill="#000000" font-family="sans-serif" font-size="13" lengthAdjust="spacing" textLength="122.1226" x="605.876" y="252.7686">Authorize transaction</text></g><g class="message" data-participant-1="TransService" data-participant-2="AccountService"><polygon fill="#181818" points="951.2837,283.9766,961.2837,287.9766,951.2837,291.9766,955.2837,287.9766" style="stroke:#181818;stroke-width:1;"/><line style="stroke:#181818;stroke-width:1;" x1="765.1167" x2="957.2837" y1="287.9766" y2="287.9766"/><text fill="#000000" font-family="sans-serif" font-size="13" lengthAdjust="spacing" textLength="85.998" x="772.1167" y="283.1201">Check balance</text></g><g class="message" data-participant-1="AccountService" data-participant-2="DB"><polygon fill="#181818" points="1180.9727,314.3281,1190.9727,318.3281,1180.9727,322.3281,1184.9727,318.3281" style="stroke:#181818;stroke-width:1;"/><line style="stroke:#181818;stroke-width:1;" x1="973.2837" x2="1186.9727" y1="318.3281" y2="318.3281"/><text fill="#000000" font-family="sans-serif" font-size="13" lengthAdjust="spacing" textLength="133.6943" x="980.2837" y="313.4717">Query account balance</text></g><g class="message" data-participant-1="DB" data-participant-2="AccountService"><polygon fill="#181818" points="984.2837,344.6797,974.2837,348.6797,984.2837,352.6797,980.2837,348.6797" style="stroke:#181818;stroke-width:1;"/><line style="stroke:#181818;stroke-width:1;stroke-dasharray:2.0,2.0;" x1="978.2837" x2="1196.9727" y1="348.6797" y2="348.6797"/><text fill="#000000" font-family="sans-serif" font-size="13" lengthAdjust="spacing" textLength="75.8926" x="990.2837" y="343.8232">Balance data</text></g><path d="M10,363.6797 L70.1709,363.6797 L70.1709,372.0313 L60.1709,382.0313 L10,382.0313 L10,363.6797" fill="#EEEEEE" style="stroke:#000000;stroke-width:1.5;"/><rect fill="none" height="715.4063" style="stroke:#000000;stroke-width:1.5;" width="1244.938" x="10" y="363.6797"/><text fill="#000000" font-family="sans-serif" font-size="13" font-weight="bold" lengthAdjust="spacing" textLength="15.1709" x="25" y="378.1748">alt</text><text fill="#000000" font-family="sans-serif" font-size="11" font-weight="bold" lengthAdjust="spacing" textLength="98.9893" x="85.1709" y="377.0986">[Insufficient funds]</text><g class="message" data-participant-1="AccountService" data-participant-2="TransService"><polygon fill="#181818" points="776.1167,400.3828,766.1167,404.3828,776.1167,408.3828,772.1167,404.3828" style="stroke:#181818;stroke-width:1;"/><line style="stroke:#181818;stroke-width:1;stroke-dasharray:2.0,2.0;" x1="770.1167" x2="962.2837" y1="404.3828" y2="404.3828"/><text fill="#000000" font-family="sans-serif" font-size="13" lengthAdjust="spacing" textLength="111.2935" x="782.1167" y="399.5264">Insufficient balance</text></g><g class="message" data-participant-1="TransService" data-participant-2="Gateway"><polygon fill="#181818" points="609.876,430.7344,599.876,434.7344,609.876,438.7344,605.876,434.7344" style="stroke:#181818;stroke-width:1;"/><line style="stroke:#181818;stroke-width:1;stroke-dasharray:2.0,2.0;" x1="603.876" x2="754.1167" y1="434.7344" y2="434.7344"/><text fill="#000000" font-family="sans-serif" font-size="13" lengthAdjust="spacing" textLength="100.4644" x="615.876" y="429.8779">400 Bad Request</text></g><g class="message" data-participant-1="Gateway" data-participant-2="App"><polygon fill="#181818" points="390.1162,461.0859,380.1162,465.0859,390.1162,469.0859,386.1162,465.0859" style="stroke:#181818;stroke-width:1;"/><line style="stroke:#181818;stroke-width:1;stroke-dasharray:2.0,2.0;" x1="384.1162" x2="587.876" y1="465.0859" y2="465.0859"/><text fill="#000000" font-family="sans-serif" font-size="13" lengthAdjust="spacing" textLength="100.4644" x="396.1162" y="460.2295">400 Bad Request</text></g><g class="message" data-participant-1="App" data-participant-2="User"><polygon fill="#181818" points="99.5757,491.4375,89.5757,495.4375,99.5757,499.4375,95.5757,495.4375" style="stroke:#181818;stroke-width:1;"/><line style="stroke:#181818;stroke-width:1;stroke-dasharray:2.0,2.0;" x1="93.5757" x2="368.1162" y1="495.4375" y2="495.4375"/><text fill="#000000" font-family="sans-serif" font-size="13" lengthAdjust="spacing" textLength="174.1289" x="105.5757" y="490.5811">Display insufficient funds error</text></g><line style="stroke:#000000;stroke-width:1;stroke-dasharray:2.0,2.0;" x1="10" x2="1254.938" y1="504.4375" y2="504.4375"/><text fill="#000000" font-family="sans-serif" font-size="11" font-weight="bold" lengthAdjust="spacing" textLength="101.4653" x="15" y="515.8564">[Balance sufficient]</text><g class="message" data-participant-1="AccountService" data-participant-2="TransService"><polygon fill="#181818" points="776.1167,537.625,766.1167,541.625,776.1167,545.625,772.1167,541.625" style="stroke:#181818;stroke-width:1;"/><line style="stroke:#181818;stroke-width:1;stroke-dasharray:2.0,2.0;" x1="770.1167" x2="967.2837" y1="541.625" y2="541.625"/><text fill="#000000" font-family="sans-serif" font-size="13" lengthAdjust="spacing" textLength="101.8926" x="782.1167" y="536.7686">Balance sufficient</text></g><g class="message" data-participant-1="TransService" data-participant-2="TransService"><line style="stroke:#181818;stroke-width:1;" x1="765.1167" x2="807.1167" y1="571.9766" y2="571.9766"/><line style="stroke:#181818;stroke-width:1;" x1="807.1167" x2="807.1167" y1="571.9766" y2="584.9766"/><line style="stroke:#181818;stroke-width:1;" x1="766.1167" x2="807.1167" y1="584.9766" y2="584.9766"/><polygon fill="#181818" points="776.1167,580.9766,766.1167,584.9766,776.1167,588.9766,772.1167,584.9766" style="stroke:#181818;stroke-width:1;"/><text fill="#000000" font-family="sans-serif" font-size="13" lengthAdjust="spacing" textLength="135.8462" x="772.1167" y="567.1201">Create transaction draft</text></g><g class="message" data-participant-1="App" data-participant-2="User"><polygon fill="#181818" points="99.5757,611.3281,89.5757,615.3281,99.5757,619.3281,95.5757,615.3281" style="stroke:#181818;stroke-width:1;"/><line style="stroke:#181818;stroke-width:1;" x1="93.5757" x2="368.1162" y1="615.3281" y2="615.3281"/><text fill="#000000" font-family="sans-serif" font-size="13" lengthAdjust="spacing" textLength="216.7598" x="105.5757" y="610.4717">Request authorization (PIN/biometric)</text></g><g class="message" data-participant-1="User" data-participant-2="App"><polygon fill="#181818" points="357.1162,641.6797,367.1162,645.6797,357.1162,649.6797,361.1162,645.6797" style="stroke:#181818;stroke-width:1;"/><line style="stroke:#181818;stroke-width:1;stroke-dasharray:2.0,2.0;" x1="88.5757" x2="363.1162" y1="645.6797" y2="645.6797"/><text fill="#000000" font-family="sans-serif" font-size="13" lengthAdjust="spacing" textLength="122.1289" x="95.5757" y="640.8232">Provide authorization</text></g><g class="message" data-participant-1="App" data-participant-2="Gateway"><polygon fill="#181818" points="576.876,672.0313,586.876,676.0313,576.876,680.0313,580.876,676.0313" style="stroke:#181818;stroke-width:1;"/><line style="stroke:#181818;stroke-width:1;" x1="379.1162" x2="582.876" y1="676.0313" y2="676.0313"/><text fill="#000000" font-family="sans-serif" font-size="13" lengthAdjust="spacing" textLength="165.458" x="386.1162" y="671.1748">POST /api/security/authorize</text></g><g class="message" data-participant-1="Gateway" data-participant-2="SecService"><polygon fill="#181818" points="1076.4351,702.3828,1086.4351,706.3828,1076.4351,710.3828,1080.4351,706.3828" style="stroke:#181818;stroke-width:1;"/><line style="stroke:#181818;stroke-width:1;" x1="598.876" x2="1082.4351" y1="706.3828" y2="706.3828"/><text fill="#000000" font-family="sans-serif" font-size="13" lengthAdjust="spacing" textLength="125.0298" x="605.876" y="701.5264">Validate authorization</text></g><path d="M20,721.3828 L80.1709,721.3828 L80.1709,729.7344 L70.1709,739.7344 L20,739.7344 L20,721.3828" fill="#EEEEEE" style="stroke:#000000;stroke-width:1.5;"/><rect fill="none" height="350.7031" style="stroke:#000000;stroke-width:1.5;" width="1224.938" x="20" y="721.3828"/><text fill="#000000" font-family="sans-serif" font-size="13" font-weight="bold" lengthAdjust="spacing" textLength="15.1709" x="35" y="735.8779">alt</text><text fill="#000000" font-family="sans-serif" font-size="11" font-weight="bold" lengthAdjust="spacing" textLength="103.27" x="95.1709" y="734.8018">[Authorization fails]</text><g class="message" data-participant-1="SecService" data-participant-2="Gateway"><polygon fill="#181818" points="609.876,758.0859,599.876,762.0859,609.876,766.0859,605.876,762.0859" style="stroke:#181818;stroke-width:1;"/><line style="stroke:#181818;stroke-width:1;stroke-dasharray:2.0,2.0;" x1="603.876" x2="1087.4351" y1="762.0859" y2="762.0859"/><text fill="#000000" font-family="sans-serif" font-size="13" lengthAdjust="spacing" textLength="102.6289" x="615.876" y="757.2295">401 Unauthorized</text></g><g class="message" data-participant-1="Gateway" data-participant-2="App"><polygon fill="#181818" points="390.1162,788.4375,380.1162,792.4375,390.1162,796.4375,386.1162,792.4375" style="stroke:#181818;stroke-width:1;"/><line style="stroke:#181818;stroke-width:1;stroke-dasharray:2.0,2.0;" x1="384.1162" x2="587.876" y1="792.4375" y2="792.4375"/><text fill="#000000" font-family="sans-serif" font-size="13" lengthAdjust="spacing" textLength="102.6289" x="396.1162" y="787.5811">401 Unauthorized</text></g><g class="message" data-participant-1="App" data-participant-2="User"><polygon fill="#181818" points="99.5757,818.7891,89.5757,822.7891,99.5757,826.7891,95.5757,822.7891" style="stroke:#181818;stroke-width:1;"/><line style="stroke:#181818;stroke-width:1;stroke-dasharray:2.0,2.0;" x1="93.5757" x2="368.1162" y1="822.7891" y2="822.7891"/><text fill="#000000" font-family="sans-serif" font-size="13" lengthAdjust="spacing" textLength="151.7344" x="105.5757" y="817.9326">Display authorization error</text></g><line style="stroke:#000000;stroke-width:1;stroke-dasharray:2.0,2.0;" x1="20" x2="1244.938" y1="831.7891" y2="831.7891"/><text fill="#000000" font-family="sans-serif" font-size="11" font-weight="bold" lengthAdjust="spacing" textLength="131.4038" x="25" y="843.208">[Authorization succeeds]</text><g class="message" data-participant-1="SecService" data-participant-2="Gateway"><polygon fill="#181818" points="609.876,864.9766,599.876,868.9766,609.876,872.9766,605.876,868.9766" style="stroke:#181818;stroke-width:1;"/><line style="stroke:#181818;stroke-width:1;stroke-dasharray:2.0,2.0;" x1="603.876" x2="1092.4351" y1="868.9766" y2="868.9766"/><text fill="#000000" font-family="sans-serif" font-size="13" lengthAdjust="spacing" textLength="44.0845" x="615.876" y="864.1201">200 OK</text></g><g class="message" data-participant-1="TransService" data-participant-2="DB"><polygon fill="#181818" points="1180.9727,895.3281,1190.9727,899.3281,1180.9727,903.3281,1184.9727,899.3281" style="stroke:#181818;stroke-width:1;"/><line style="stroke:#181818;stroke-width:1;" x1="765.1167" x2="1186.9727" y1="899.3281" y2="899.3281"/><text fill="#000000" font-family="sans-serif" font-size="13" lengthAdjust="spacing" textLength="177.7534" x="772.1167" y="894.4717">Mark transaction as authorized</text></g><g class="message" data-participant-1="DB" data-participant-2="TransService"><polygon fill="#181818" points="776.1167,925.6797,766.1167,929.6797,776.1167,933.6797,772.1167,929.6797" style="stroke:#181818;stroke-width:1;"/><line style="stroke:#181818;stroke-width:1;stroke-dasharray:2.0,2.0;" x1="770.1167" x2="1196.9727" y1="929.6797" y2="929.6797"/><text fill="#000000" font-family="sans-serif" font-size="13" lengthAdjust="spacing" textLength="49.1309" x="782.1167" y="924.8232">Success</text></g><g class="message" data-participant-1="TransService" data-participant-2="TransService"><line style="stroke:#181818;stroke-width:1;" x1="765.1167" x2="807.1167" y1="960.0313" y2="960.0313"/><line style="stroke:#181818;stroke-width:1;" x1="807.1167" x2="807.1167" y1="960.0313" y2="973.0313"/><line style="stroke:#181818;stroke-width:1;" x1="766.1167" x2="807.1167" y1="973.0313" y2="973.0313"/><polygon fill="#181818" points="776.1167,969.0313,766.1167,973.0313,776.1167,977.0313,772.1167,973.0313" style="stroke:#181818;stroke-width:1;"/><text fill="#000000" font-family="sans-serif" font-size="13" lengthAdjust="spacing" textLength="174.167" x="772.1167" y="955.1748">Include Send Money use case</text></g><g class="message" data-participant-1="TransService" data-participant-2="Gateway"><polygon fill="#181818" points="609.876,999.3828,599.876,1003.3828,609.876,1007.3828,605.876,1003.3828" style="stroke:#181818;stroke-width:1;"/><line style="stroke:#181818;stroke-width:1;stroke-dasharray:2.0,2.0;" x1="603.876" x2="759.1167" y1="1003.3828" y2="1003.3828"/><text fill="#000000" font-family="sans-serif" font-size="13" lengthAdjust="spacing" textLength="132.2407" x="615.876" y="998.5264">Transaction authorized</text></g><g class="message" data-participant-1="Gateway" data-participant-2="App"><polygon fill="#181818" points="390.1162,1029.7344,380.1162,1033.7344,390.1162,1037.7344,386.1162,1033.7344" style="stroke:#181818;stroke-width:1;"/><line style="stroke:#181818;stroke-width:1;stroke-dasharray:2.0,2.0;" x1="384.1162" x2="592.876" y1="1033.7344" y2="1033.7344"/><text fill="#000000" font-family="sans-serif" font-size="13" lengthAdjust="spacing" textLength="179.207" x="396.1162" y="1028.8779">200 OK with transaction details</text></g><g class="message" data-participant-1="App" data-participant-2="User"><polygon fill="#181818" points="94.5757,1060.0859,84.5757,1064.0859,94.5757,1068.0859,90.5757,1064.0859" style="stroke:#181818;stroke-width:1;"/><line style="stroke:#181818;stroke-width:1;stroke-dasharray:2.0,2.0;" x1="88.5757" x2="373.1162" y1="1064.0859" y2="1064.0859"/><text fill="#000000" font-family="sans-serif" font-size="13" lengthAdjust="spacing" textLength="256.5405" x="100.5757" y="1059.2295">Display confirmation and proceed to sending</text></g><!--SRC=[ZLLDRniX4BtpAqOvjOV8QTL3vKCaErOhgqhZnadl4vXDKDQm1JQH- -iBx8TXboXToJBBllbwynYGEstWx9OUfNLaIC2z9NC6QEE2DMYSvB91vU3i6zPMx_08gwQ94F-V8rQxBNn7HwzuZ81-dOFk32gBt4cjO4_cHNAAuBZVRqpSSgvRlqZH_LuHloVU6kcEcO7VB88twF01RGVQh1bpqjK4zrVdNvUmQjsJDl8lUNCbf7g4Qwteo5XW1yul0mLBsAgcTM38kvJaVQ8IW8UG7WjrldWM8bVZI-JMxumUVcCjHVWYewjAcmEw0T6pk8JTpVuE5jZ8XJjnQ1Su97aAC13F-aLma_ARLfRuEZd8ci7IjvXpHluIhfw8FyC3rgXuaiMaHon_3uuswoNyQiaS0ViUpvpubcpMS5w8kkwWu8b39YYrO5WxtnRRLfLlTEX9rIfX6VXdciMCcinko2TOvZIadVboSU7J4N1BVrgoBg97weScbq2nnHuG5B64ZRHDxKtaB7CWOxHXL5iQwpvX_g-kD-mIvYOD2ryBXK_zNXaAnecEG1YitCc-5t9NP5y-3BB5QF5Xj_svU93wGCv8_Z6QTOTie6zdz8iKbDlDOXGEY-t7GN9GilvS9hCXEOhpE2DFoImPumV5hRAIAfHr9xdmd6ocqla4zsfCJOm61VsyWIoBAEUtqqz0HmtbcTgMSoBnVhAVlOHlVeomH3eJIaPQIl89f_uQpNCc6Jzz2wMbXthOwyT1Bi9zAC7QKcg9wPifJIS0hrlH3VrkuaFhIUF-cdZFLSfMUjCLQajIpCRjBC9C2LqRu5Mwf_pOaSiqbqGOReIPyx9uk5QL39TGpDspq1WT909EW-skmbAKSCiLjkDz5xMd10k_Vm00]--></g></svg>