<svg xmlns="http://www.w3.org/2000/svg" xmlns:xlink="http://www.w3.org/1999/xlink" contentStyleType="text/css" data-diagram-type="CLASS" height="1074px" preserveAspectRatio="none" style="width:2294px;height:1074px;background:#FFFFFF;" version="1.1" viewBox="0 0 2294 1074" width="2294px" zoomAndPan="magnify"><title>FalsoPay: Link Bank Account - Postcondition</title><defs/><g><text fill="#000000" font-family="sans-serif" font-size="14" font-weight="bold" lengthAdjust="spacing" textLength="302.5859" x="989.0669" y="24.5332">FalsoPay: Link Bank Account - Postcondition</text><g class="entity" data-entity="user" data-source-line="20" data-uid="ent0002" id="entity_user"><rect fill="#E1F5FE" height="170.4844" rx="2.5" ry="2.5" style="stroke:#03A9F4;stroke-width:0.5;" width="222.5332" x="723.5" y="258.6094"/><text fill="#000000" font-family="sans-serif" font-size="14" lengthAdjust="spacing" textLength="68.4619" x="800.5356" y="275.1426">user : User</text><line style="stroke:#03A9F4;stroke-width:0.5;" x1="724.5" x2="945.0332" y1="280.2188" y2="280.2188"/><text fill="#000000" font-family="sans-serif" font-size="14" lengthAdjust="spacing" textLength="86.0098" x="729.5" y="298.752">userId = 1001</text><text fill="#000000" font-family="sans-serif" font-size="14" lengthAdjust="spacing" textLength="116.1494" x="729.5" y="316.3613">firstName = "John"</text><text fill="#000000" font-family="sans-serif" font-size="14" lengthAdjust="spacing" textLength="110.708" x="729.5" y="333.9707">lastName = "Doe"</text><text fill="#000000" font-family="sans-serif" font-size="14" lengthAdjust="spacing" textLength="210.5332" x="729.5" y="351.5801">email = "john.doe@example.com"</text><text fill="#000000" font-family="sans-serif" font-size="14" lengthAdjust="spacing" textLength="200.6553" x="729.5" y="369.1895">phoneNumber = "+1234567890"</text><text fill="#000000" font-family="sans-serif" font-size="14" lengthAdjust="spacing" textLength="88.1357" x="729.5" y="386.7988">role = "USER"</text><text fill="#000000" font-family="sans-serif" font-size="14" lengthAdjust="spacing" textLength="113.8115" x="729.5" y="404.4082">status = "ACTIVE"</text><text fill="#000000" font-family="sans-serif" font-size="14" lengthAdjust="spacing" textLength="139.7197" x="729.5" y="422.0176">defaultAccount = 5001</text></g><g class="entity" data-entity="bankUser" data-source-line="31" data-uid="ent0003" id="entity_bankUser"><rect fill="#E1F5FE" height="135.2656" rx="2.5" ry="2.5" style="stroke:#03A9F4;stroke-width:0.5;" width="222.5332" x="634.5" y="506.6094"/><text fill="#000000" font-family="sans-serif" font-size="14" lengthAdjust="spacing" textLength="133.0547" x="679.2393" y="523.1426">bankUser : BankUser</text><line style="stroke:#03A9F4;stroke-width:0.5;" x1="635.5" x2="856.0332" y1="528.2188" y2="528.2188"/><text fill="#000000" font-family="sans-serif" font-size="14" lengthAdjust="spacing" textLength="118.6924" x="640.5" y="546.752">bankUserId = 2001</text><text fill="#000000" font-family="sans-serif" font-size="14" lengthAdjust="spacing" textLength="116.1494" x="640.5" y="564.3613">firstName = "John"</text><text fill="#000000" font-family="sans-serif" font-size="14" lengthAdjust="spacing" textLength="110.708" x="640.5" y="581.9707">lastName = "Doe"</text><text fill="#000000" font-family="sans-serif" font-size="14" lengthAdjust="spacing" textLength="210.5332" x="640.5" y="599.5801">email = "john.doe@example.com"</text><text fill="#000000" font-family="sans-serif" font-size="14" lengthAdjust="spacing" textLength="200.6553" x="640.5" y="617.1895">phoneNumber = "+1234567890"</text><text fill="#000000" font-family="sans-serif" font-size="14" lengthAdjust="spacing" textLength="168.3213" x="640.5" y="634.7988">dateOfBirth = "1985-06-15"</text></g><g class="entity" data-entity="bank" data-source-line="40" data-uid="ent0004" id="entity_bank"><rect fill="#E1F5FE" height="100.0469" rx="2.5" ry="2.5" style="stroke:#03A9F4;stroke-width:0.5;" width="223.8662" x="759" y="967.6094"/><text fill="#000000" font-family="sans-serif" font-size="14" lengthAdjust="spacing" textLength="73.9375" x="833.9644" y="984.1426">bank : Bank</text><line style="stroke:#03A9F4;stroke-width:0.5;" x1="760" x2="981.8662" y1="989.2188" y2="989.2188"/><text fill="#000000" font-family="sans-serif" font-size="14" lengthAdjust="spacing" textLength="81.3477" x="765" y="1007.752">bankId = 101</text><text fill="#000000" font-family="sans-serif" font-size="14" lengthAdjust="spacing" textLength="211.8662" x="765" y="1025.3613">bankName = "First National Bank"</text><text fill="#000000" font-family="sans-serif" font-size="14" lengthAdjust="spacing" textLength="141.0801" x="765" y="1042.9707">bankCode = "FNB123"</text><text fill="#000000" font-family="sans-serif" font-size="14" lengthAdjust="spacing" textLength="173.7422" x="765" y="1060.5801">swiftCode = "FNBUS12345"</text></g><g class="entity" data-entity="bankAccount" data-source-line="47" data-uid="ent0005" id="entity_bankAccount"><rect fill="#E1F5FE" height="170.4844" rx="2.5" ry="2.5" style="stroke:#03A9F4;stroke-width:0.5;" width="239.5342" x="751" y="719.6094"/><text fill="#000000" font-family="sans-serif" font-size="14" lengthAdjust="spacing" textLength="175.1094" x="783.2124" y="736.1426">bankAccount : BankAccount</text><line style="stroke:#03A9F4;stroke-width:0.5;" x1="752" x2="989.5342" y1="741.2188" y2="741.2188"/><text fill="#000000" font-family="sans-serif" font-size="14" lengthAdjust="spacing" textLength="107.8096" x="757" y="759.752">accountId = 5001</text><text fill="#000000" font-family="sans-serif" font-size="14" lengthAdjust="spacing" textLength="81.3477" x="757" y="777.3613">bankId = 101</text><text fill="#000000" font-family="sans-serif" font-size="14" lengthAdjust="spacing" textLength="194.7969" x="757" y="794.9707">accountNumber = "123456789"</text><text fill="#000000" font-family="sans-serif" font-size="14" lengthAdjust="spacing" textLength="118.6924" x="757" y="812.5801">bankUserId = 2001</text><text fill="#000000" font-family="sans-serif" font-size="14" lengthAdjust="spacing" textLength="227.5342" x="757" y="830.1895">iban = "US12345678901234567890"</text><text fill="#000000" font-family="sans-serif" font-size="14" lengthAdjust="spacing" textLength="126.2529" x="757" y="847.7988">type = "CHECKING"</text><text fill="#000000" font-family="sans-serif" font-size="14" lengthAdjust="spacing" textLength="113.8115" x="757" y="865.4082">status = "ACTIVE"</text><text fill="#000000" font-family="sans-serif" font-size="14" lengthAdjust="spacing" textLength="115.6025" x="757" y="883.0176">balance = 1000.00</text></g><g class="entity" data-entity="ipa" data-source-line="58" data-uid="ent0006" id="entity_ipa"><rect fill="#E1F5FE" height="135.2656" rx="2.5" ry="2.5" style="stroke:#03A9F4;stroke-width:0.5;" width="322.1572" x="7" y="506.6094"/><text fill="#000000" font-family="sans-serif" font-size="14" lengthAdjust="spacing" textLength="308.1572" x="14" y="523.1426">instantPaymentAddress : InstantPaymentAddress</text><line style="stroke:#03A9F4;stroke-width:0.5;" x1="8" x2="328.1572" y1="528.2188" y2="528.2188"/><text fill="#000000" font-family="sans-serif" font-size="14" lengthAdjust="spacing" textLength="77.458" x="13" y="546.752">ipaId = 3001</text><text fill="#000000" font-family="sans-serif" font-size="14" lengthAdjust="spacing" textLength="81.3477" x="13" y="564.3613">bankId = 101</text><text fill="#000000" font-family="sans-serif" font-size="14" lengthAdjust="spacing" textLength="194.7969" x="13" y="581.9707">accountNumber = "123456789"</text><text fill="#000000" font-family="sans-serif" font-size="14" lengthAdjust="spacing" textLength="149.6523" x="13" y="599.5801">ipaAddress = "john.doe"</text><text fill="#000000" font-family="sans-serif" font-size="14" lengthAdjust="spacing" textLength="86.0098" x="13" y="617.1895">userId = 1001</text><text fill="#000000" font-family="sans-serif" font-size="14" lengthAdjust="spacing" textLength="234.8008" x="13" y="634.7988">pin = "$2a$12$xYz..." ' Encrypted PIN</text></g><g class="entity" data-entity="bankingService" data-source-line="67" data-uid="ent0007" id="entity_bankingService"><rect fill="#E1F5FE" height="37.6094" rx="2.5" ry="2.5" style="stroke:#03A9F4;stroke-width:0.5;" width="218.668" x="1800.5" y="94.1094"/><text fill="#000000" font-family="sans-serif" font-size="14" lengthAdjust="spacing" textLength="204.668" x="1807.5" y="110.6426">bankingService : BankingService</text><line style="stroke:#03A9F4;stroke-width:0.5;" x1="1801.5" x2="2018.168" y1="115.7188" y2="115.7188"/></g><g class="entity" data-entity="externalBankingAPI" data-source-line="70" data-uid="ent0008" id="entity_externalBankingAPI"><rect fill="#E1F5FE" height="37.6094" rx="2.5" ry="2.5" style="stroke:#03A9F4;stroke-width:0.5;" width="273.1504" x="1513.5" y="324.6094"/><text fill="#000000" font-family="sans-serif" font-size="14" lengthAdjust="spacing" textLength="259.1504" x="1520.5" y="341.1426">externalBankingAPI : ExternalBankingAPI</text><line style="stroke:#03A9F4;stroke-width:0.5;" x1="1514.5" x2="1785.6504" y1="346.2188" y2="346.2188"/></g><g class="entity" data-entity="userService" data-source-line="73" data-uid="ent0009" id="entity_userService"><rect fill="#E1F5FE" height="37.6094" rx="2.5" ry="2.5" style="stroke:#03A9F4;stroke-width:0.5;" width="175.8271" x="1822" y="324.6094"/><text fill="#000000" font-family="sans-serif" font-size="14" lengthAdjust="spacing" textLength="161.8271" x="1829" y="341.1426">userService : UserService</text><line style="stroke:#03A9F4;stroke-width:0.5;" x1="1823" x2="1996.8271" y1="346.2188" y2="346.2188"/></g><g class="entity" data-entity="notificationService" data-source-line="76" data-uid="ent0010" id="entity_notificationService"><rect fill="#E1F5FE" height="37.6094" rx="2.5" ry="2.5" style="stroke:#03A9F4;stroke-width:0.5;" width="255.2197" x="2033.5" y="324.6094"/><text fill="#000000" font-family="sans-serif" font-size="14" lengthAdjust="spacing" textLength="241.2197" x="2040.5" y="341.1426">notificationService : NotificationService</text><line style="stroke:#03A9F4;stroke-width:0.5;" x1="2034.5" x2="2287.7197" y1="346.2188" y2="346.2188"/></g><g class="entity" data-entity="notification" data-source-line="79" data-uid="ent0011" id="entity_notification"><rect fill="#E1F5FE" height="135.2656" rx="2.5" ry="2.5" style="stroke:#03A9F4;stroke-width:0.5;" width="392.7686" x="1013.5" y="506.6094"/><text fill="#000000" font-family="sans-serif" font-size="14" lengthAdjust="spacing" textLength="147.8545" x="1135.957" y="523.1426">notification : Notification</text><line style="stroke:#03A9F4;stroke-width:0.5;" x1="1014.5" x2="1405.2686" y1="528.2188" y2="528.2188"/><text fill="#000000" font-family="sans-serif" font-size="14" lengthAdjust="spacing" textLength="125.7061" x="1019.5" y="546.752">notificationId = 8001</text><text fill="#000000" font-family="sans-serif" font-size="14" lengthAdjust="spacing" textLength="86.0098" x="1019.5" y="564.3613">userId = 1001</text><text fill="#000000" font-family="sans-serif" font-size="14" lengthAdjust="spacing" textLength="179.9355" x="1019.5" y="581.9707">type = "ACCOUNT_LINKED"</text><text fill="#000000" font-family="sans-serif" font-size="14" lengthAdjust="spacing" textLength="380.7686" x="1019.5" y="599.5801">message = "Your bank account has been successfully linked"</text><text fill="#000000" font-family="sans-serif" font-size="14" lengthAdjust="spacing" textLength="100.584" x="1019.5" y="617.1895">status = "SENT"</text><text fill="#000000" font-family="sans-serif" font-size="14" lengthAdjust="spacing" textLength="215.8174" x="1019.5" y="634.7988">createdAt = "2023-05-15 16:30:45"</text></g><g class="entity" data-entity="database" data-source-line="88" data-uid="ent0012" id="entity_database"><rect fill="#E1F5FE" height="135.2656" rx="2.5" ry="2.5" style="stroke:#03A9F4;stroke-width:0.5;" width="261.4092" x="810.5" y="45.6094"/><text fill="#000000" font-family="sans-serif" font-size="14" lengthAdjust="spacing" textLength="129.2061" x="876.6016" y="62.1426">database : Database</text><line style="stroke:#03A9F4;stroke-width:0.5;" x1="811.5" x2="1070.9092" y1="67.2188" y2="67.2188"/><text fill="#000000" font-family="sans-serif" font-size="14" lengthAdjust="spacing" textLength="127.9961" x="816.5" y="85.752">users = [User(1001)]</text><text fill="#000000" font-family="sans-serif" font-size="14" lengthAdjust="spacing" textLength="192.5889" x="816.5" y="103.3613">bankUsers = [BankUser(2001)]</text><text fill="#000000" font-family="sans-serif" font-size="14" lengthAdjust="spacing" textLength="125.6855" x="816.5" y="120.9707">banks = [Bank(101)]</text><text fill="#000000" font-family="sans-serif" font-size="14" lengthAdjust="spacing" textLength="234.6436" x="816.5" y="138.5801">bankAccounts = [BankAccount(5001)]</text><text fill="#000000" font-family="sans-serif" font-size="14" lengthAdjust="spacing" textLength="249.4092" x="816.5" y="156.1895">instantPaymentAddresses = [IPA(3001)]</text><text fill="#000000" font-family="sans-serif" font-size="14" lengthAdjust="spacing" textLength="207.3887" x="816.5" y="173.7988">notifications = [Notification(8001)]</text></g><g class="entity" data-entity="GMN13" data-source-line="98" data-uid="ent0014" id="entity_GMN13"><path d="M364.5,561.1094 L364.5,587.4609 A0,0 0 0 0 364.5,587.4609 L599.4097,587.4609 A0,0 0 0 0 599.4097,587.4609 L599.4097,571.1094 L589.4097,561.1094 L504.61,561.1094 L723.31,416.9094 L496.61,561.1094 L364.5,561.1094 A0,0 0 0 0 364.5,561.1094" fill="#FFFDE7" style="stroke:#FFC107;stroke-width:0.5;"/><path d="M589.4097,561.1094 L589.4097,571.1094 L599.4097,571.1094 L589.4097,561.1094" fill="#FFFDE7" style="stroke:#FFC107;stroke-width:0.5;"/><text fill="#000000" font-family="sans-serif" font-size="13" lengthAdjust="spacing" textLength="213.9097" x="370.5" y="579.6045">User now has a default bank account</text></g><g class="entity" data-entity="GMN16" data-source-line="102" data-uid="ent0017" id="entity_GMN16"><path d="M55,783.1094 L55,825.8125 A0,0 0 0 0 55,825.8125 L281.2388,825.8125 A0,0 0 0 0 281.2388,825.8125 L281.2388,793.1094 L271.2388,783.1094 L172,783.1094 L168,641.8194 L164,783.1094 L55,783.1094 A0,0 0 0 0 55,783.1094" fill="#FFFDE7" style="stroke:#FFC107;stroke-width:0.5;"/><path d="M271.2388,783.1094 L271.2388,793.1094 L281.2388,793.1094 L271.2388,783.1094" fill="#FFFDE7" style="stroke:#FFC107;stroke-width:0.5;"/><text fill="#000000" font-family="sans-serif" font-size="13" lengthAdjust="spacing" textLength="205.2388" x="61" y="801.6045">A new IPA has been created for the</text><text fill="#000000" font-family="sans-serif" font-size="13" lengthAdjust="spacing" textLength="114.9116" x="61" y="817.9561">linked bank account</text></g><!--link user to bankUser--><g class="link" data-entity-1="user" data-entity-2="bankUser" data-source-line="106" data-uid="lnk19" id="link_user_bankUser"><path codeLine="106" d="M802.24,428.7194 C792.28,454.2994 783.649,476.459 774.189,500.729" fill="none" id="user-to-bankUser" style="stroke:#181818;stroke-width:1;"/><polygon fill="#181818" points="772.01,506.3194,779.0054,499.3865,773.8258,501.6608,771.5516,496.4812,772.01,506.3194" style="stroke:#181818;stroke-width:1;"/><text fill="#000000" font-family="sans-serif" font-size="13" lengthAdjust="spacing" textLength="49.1309" x="792" y="473.1045">matches</text></g><!--link user to bankAccount--><g class="link" data-entity-1="user" data-entity-2="bankAccount" data-source-line="107" data-uid="lnk20" id="link_user_bankAccount"><path codeLine="107" d="M859.88,428.8094 C866.1,453.6394 871.89,481.0194 875,506.6094 C883.69,578.0194 882.0805,653.8102 878.4905,713.4502" fill="none" id="user-to-bankAccount" style="stroke:#181818;stroke-width:1;"/><polygon fill="#181818" points="878.13,719.4394,882.6635,710.696,878.4304,714.4484,874.678,710.2153,878.13,719.4394" style="stroke:#181818;stroke-width:1;"/><text fill="#000000" font-family="sans-serif" font-size="13" lengthAdjust="spacing" textLength="48.4199" x="883" y="579.6045">linked to</text></g><!--link user to ipa--><g class="link" data-entity-1="user" data-entity-2="ipa" data-source-line="108" data-uid="lnk21" id="link_user_ipa"><path codeLine="108" d="M723.18,380.4894 C624.02,412.6094 475.43,461.4494 347,506.6094 C341.21,508.6394 340.9809,508.7126 335.0409,510.8326" fill="none" id="user-to-ipa" style="stroke:#181818;stroke-width:1;"/><polygon fill="#181818" points="329.39,512.8494,339.2109,513.5914,334.0991,511.1687,336.5218,506.0569,329.39,512.8494" style="stroke:#181818;stroke-width:1;"/><text fill="#000000" font-family="sans-serif" font-size="13" lengthAdjust="spacing" textLength="20.96" x="482" y="473.1045">has</text></g><!--link bankUser to bankAccount--><g class="link" data-entity-1="bankUser" data-entity-2="bankAccount" data-source-line="109" data-uid="lnk22" id="link_bankUser_bankAccount"><path codeLine="109" d="M782.49,641.8194 C795.75,666.0494 808.0308,688.5053 822.0108,714.0653" fill="none" id="bankUser-to-bankAccount" style="stroke:#181818;stroke-width:1;"/><polygon fill="#181818" points="824.89,719.3294,824.0806,709.5138,822.4907,714.9427,817.0619,713.3527,824.89,719.3294" style="stroke:#181818;stroke-width:1;"/><text fill="#000000" font-family="sans-serif" font-size="13" lengthAdjust="spacing" textLength="20.96" x="810" y="686.1045">has</text></g><!--link bankAccount to bank--><g class="link" data-entity-1="bankAccount" data-entity-2="bank" data-source-line="110" data-uid="lnk23" id="link_bankAccount_bank"><path codeLine="110" d="M871,889.9094 C871,916.1994 871,938.3194 871,961.3694" fill="none" id="bankAccount-to-bank" style="stroke:#181818;stroke-width:1;"/><polygon fill="#181818" points="871,967.3694,875,958.3694,871,962.3694,867,958.3694,871,967.3694" style="stroke:#181818;stroke-width:1;"/><text fill="#000000" font-family="sans-serif" font-size="13" lengthAdjust="spacing" textLength="59.9917" x="872" y="934.1045">belongs to</text></g><!--link ipa to bankAccount--><g class="link" data-entity-1="ipa" data-entity-2="bankAccount" data-source-line="111" data-uid="lnk24" id="link_ipa_bankAccount"><path codeLine="111" d="M329.34,635.5194 C335.29,637.5994 341.19,639.6394 347,641.6094 C484.59,688.3994 638.6274,735.2741 745.2274,766.8741" fill="none" id="ipa-to-bankAccount" style="stroke:#181818;stroke-width:1;"/><polygon fill="#181818" points="750.98,768.5794,743.488,762.1864,746.1862,767.1583,741.2143,769.8565,750.98,768.5794" style="stroke:#181818;stroke-width:1;"/><text fill="#000000" font-family="sans-serif" font-size="13" lengthAdjust="spacing" textLength="61.4199" x="492" y="686.1045">references</text></g><!--link user to notification--><g class="link" data-entity-1="user" data-entity-2="notification" data-source-line="112" data-uid="lnk25" id="link_user_notification"><path codeLine="112" d="M946.75,412.6994 C995.43,442.3594 1047.1662,473.8874 1095.5662,503.3774" fill="none" id="user-to-notification" style="stroke:#181818;stroke-width:1;"/><polygon fill="#181818" points="1100.69,506.4994,1095.0856,498.4006,1096.4201,503.8978,1090.923,505.2324,1100.69,506.4994" style="stroke:#181818;stroke-width:1;"/><text fill="#000000" font-family="sans-serif" font-size="13" lengthAdjust="spacing" textLength="48.4072" x="1046" y="473.1045">receives</text></g><!--link bankingService to externalBankingAPI--><g class="link" data-entity-1="bankingService" data-entity-2="externalBankingAPI" data-source-line="113" data-uid="lnk26" id="link_bankingService_externalBankingAPI"><path codeLine="113" d="M1886.1,132.4294 C1861.55,151.4594 1822.45,182.3394 1790,210.6094 C1745.16,249.6694 1699.2689,294.0233 1672.8589,319.9833" fill="none" id="bankingService-to-externalBankingAPI" style="stroke:#181818;stroke-width:1;"/><polygon fill="#181818" points="1668.58,324.1894,1677.8024,320.733,1672.1458,320.6844,1672.1944,315.0277,1668.58,324.1894" style="stroke:#181818;stroke-width:1;"/><text fill="#000000" font-family="sans-serif" font-size="13" lengthAdjust="spacing" textLength="110.5381" x="1791" y="225.1045">communicates with</text></g><!--link bankingService to userService--><g class="link" data-entity-1="bankingService" data-entity-2="userService" data-source-line="114" data-uid="lnk27" id="link_bankingService_userService"><path codeLine="114" d="M1910,132.4194 C1910,175.3094 1910,275.8694 1910,318.5294" fill="none" id="bankingService-to-userService" style="stroke:#181818;stroke-width:1;"/><polygon fill="#181818" points="1910,324.5294,1914,315.5294,1910,319.5294,1906,315.5294,1910,324.5294" style="stroke:#181818;stroke-width:1;"/><text fill="#000000" font-family="sans-serif" font-size="13" lengthAdjust="spacing" textLength="27.46" x="1911" y="225.1045">uses</text></g><!--link bankingService to notificationService--><g class="link" data-entity-1="bankingService" data-entity-2="notificationService" data-source-line="115" data-uid="lnk28" id="link_bankingService_notificationService"><path codeLine="115" d="M1930.12,132.4194 C1977.23,175.3094 2089.8328,277.8307 2136.7028,320.4907" fill="none" id="bankingService-to-notificationService" style="stroke:#181818;stroke-width:1;"/><polygon fill="#181818" points="2141.14,324.5294,2137.1766,315.5132,2137.4423,321.1638,2131.7917,321.4295,2141.14,324.5294" style="stroke:#181818;stroke-width:1;"/><text fill="#000000" font-family="sans-serif" font-size="13" lengthAdjust="spacing" textLength="27.46" x="2037" y="225.1045">uses</text></g><!--link database to user--><g class="link" data-entity-1="database" data-entity-2="user" data-source-line="116" data-uid="lnk29" id="link_database_user"><path codeLine="116" d="M910.06,180.8194 C898.81,205.0494 888.4854,227.3267 876.6254,252.8867" fill="none" id="database-to-user" style="stroke:#181818;stroke-width:1;"/><polygon fill="#181818" points="874.1,258.3294,881.5165,251.849,876.2045,253.7938,874.2597,248.4818,874.1,258.3294" style="stroke:#181818;stroke-width:1;"/><text fill="#000000" font-family="sans-serif" font-size="13" lengthAdjust="spacing" textLength="48.4199" x="896" y="225.1045">contains</text></g><!--link database to bankAccount--><g class="link" data-entity-1="database" data-entity-2="bankAccount" data-source-line="117" data-uid="lnk30" id="link_database_bankAccount"><path codeLine="117" d="M1071.56,174.9294 C1256.96,269.6394 1559.77,460.3594 1424,641.6094 C1372.08,710.9194 1143.3952,759.5641 996.9352,784.4541" fill="none" id="database-to-bankAccount" style="stroke:#181818;stroke-width:1;"/><polygon fill="#181818" points="991.02,785.4594,1000.563,787.895,995.9493,784.6217,999.2226,780.008,991.02,785.4594" style="stroke:#181818;stroke-width:1;"/><text fill="#000000" font-family="sans-serif" font-size="13" lengthAdjust="spacing" textLength="48.4199" x="1441" y="473.1045">contains</text></g><!--link database to ipa--><g class="link" data-entity-1="database" data-entity-2="ipa" data-source-line="118" data-uid="lnk31" id="link_database_ipa"><path codeLine="118" d="M810.39,176.7894 C761.38,201.2294 705.56,230.1794 656,258.6094 C516.77,338.4794 366.887,437.3235 269.727,503.1635" fill="none" id="database-to-ipa" style="stroke:#181818;stroke-width:1;"/><polygon fill="#181818" points="264.76,506.5294,274.4544,504.7919,268.8992,503.7245,269.9666,498.1693,264.76,506.5294" style="stroke:#181818;stroke-width:1;"/><text fill="#000000" font-family="sans-serif" font-size="13" lengthAdjust="spacing" textLength="48.4199" x="657" y="349.1045">contains</text></g><!--link database to notification--><g class="link" data-entity-1="database" data-entity-2="notification" data-source-line="119" data-uid="lnk32" id="link_database_notification"><path codeLine="119" d="M980.11,180.8494 C1031.12,267.8794 1116.7762,414.0429 1167.8062,501.1129" fill="none" id="database-to-notification" style="stroke:#181818;stroke-width:1;"/><polygon fill="#181818" points="1170.84,506.2894,1169.7402,496.5021,1168.3118,501.9756,1162.8383,500.5472,1170.84,506.2894" style="stroke:#181818;stroke-width:1;"/><text fill="#000000" font-family="sans-serif" font-size="13" lengthAdjust="spacing" textLength="48.4199" x="1125" y="349.1045">contains</text></g><!--SRC=[nLPjRo8t4FxEh_1j8fMg0kt2aHUagmfakNA7DYX0rQYg8hCx15zsRUGrbwId- -yTs_i6kxaF_L8-97ZccPbdNZpcNGHRne7SZZ_vazN3SdK_zn-ci_cSdFdUT33rM- -Q4EFRknl_Zfov_T7rz7qpPkN_kKA4-RHQwHFZUoffGiJc2uIAV6iH_6ne-FGenO574n4BMUTXKK9681iGbeV1R0LN3GZDelMz6fyB1Mz4FvjEfpV-PIqcoYUUUtaI9yyDlIkcOY3EbCQfMD3N8Pap_aJ65F-CmX03AD8X2v6gKF28AIQuqsfbXN0EAKWo96lyvn2Q4dEs1FNNMKG-4CzrFHkUoLG5D04KEf_43XrfSKnBwOq0AuI4ibXBlY2k6mdu3Lveie-X6uh4GlOxmI4u91iCYS1Vl5x__U3YykhQjNefOkDplVJlh2HLL1rIBHjDLhC_V2l50Q27MEN9VY03JVXxcUG6Qx6sYOwphoRPGfvtn1vDqht_AUc8AhZTZfbKEwtthgy67VUYumsSquooR8fCAbbaRVCAGSvqgfCX0TLJG6DhNu0c8hAWO8oiiee_iwsgADPBGxX69Y- -vPIT2cgvrZAazcH83jmAooFQ6QeiLL4fvmVTOYYsCrCMzhJ4wdLlqfdyxay-puAFFvgj3Oqf3y7U0hThRroUEEDen1LUkWIu6aMHX3J54ioQvAOOR4-p8k0tmxp_dmk07lAGbObpthYxUsRgSjwZvrxl_EN-dswtwv2VYCz3-RfN4975B3ZjAkEFIv1V6HR0DhOK5BsjOBvLxU55WSGXoyn6Yndwy6j2uwS1U-HBfrCIMPUdOcSrKi1joxOiDDDUcWTrgN7JX7xJtOcVceEiorMHwSTLtezwX_An74qcj-jWzJ2V1P_z6zlF1BjC7utwNXoalU_PW92TxWG09-aX316uFSJnAudn5O3eTBQNVh2oib02hffef1UcqtDx_Ouxm3L3l8jXtnsUN77SIdH3Krs-c-ohIRcGbq-63lENRb5RP_RptqUNrIZp7Tpk7GCA9LfMvTdsADJPkJqepHjl8XYBsMBKxfV8QaUCljh6zfK5OkRcfTu8fGJ-QjYQpD3Ul1PSF9kQq_pbEMf72tXatlcQ3xomw694E3mJP5NsBMi5Fk-Ig1qWo3RlBR_caUvqVYMLXosXAjn1UgmhjtBcK8aIe7VHK9De5MxgThcw-2MH8L2rWLZmnrJxrAxgjXAs806tPuNLoHsI40Bx2ZP6PPDeQEC2mNSqEN3j0BlxpDIkoV9uNU2fqN_pTZ3eOgnpRoOoLnJdx5Xvd74pnXQwMNTIZmBqBm00]--></g></svg>