<svg xmlns="http://www.w3.org/2000/svg" xmlns:xlink="http://www.w3.org/1999/xlink" contentStyleType="text/css" data-diagram-type="SEQUENCE" height="1714px" preserveAspectRatio="none" style="width:646px;height:1714px;background:#FFFFFF;" version="1.1" viewBox="0 0 646 1714" width="646px" zoomAndPan="magnify"><title>FalsoPay: Link Bank Account - System Sequence Diagram</title><defs/><g><text fill="#000000" font-family="sans-serif" font-size="14" font-weight="bold" lengthAdjust="spacing" textLength="389.0059" x="129.9736" y="29.5332">FalsoPay: Link Bank Account - System Sequence Diagram</text><rect fill="none" height="1264.8906" style="stroke:#000000;stroke-width:1.5;" width="630.9531" x="9" y="350.6797"/><rect fill="none" height="1095.2969" style="stroke:#000000;stroke-width:1.5;" width="610.9531" x="19" y="513.2734"/><rect fill="none" height="463.1094" style="stroke:#000000;stroke-width:1.5;" width="592.9531" x="27" y="1138.4609"/><rect fill="none" height="109.4063" style="stroke:#000000;stroke-width:1.5;" width="572.9531" x="37" y="1224.5156"/><rect fill="none" height="79.0547" style="stroke:#000000;stroke-width:1.5;" width="381.5645" x="37" y="1347.9219"/><g><title>User</title><rect fill="#000000" fill-opacity="0.00000" height="1511.3516" width="8" x="60.7793" y="121.2188"/><line style="stroke:#181818;stroke-width:0.5;stroke-dasharray:5.0,5.0;" x1="64" x2="64" y1="121.2188" y2="1632.5703"/></g><g><title>FalsoPay System</title><rect fill="#000000" fill-opacity="0.00000" height="1511.3516" width="8" x="347.1025" y="121.2188"/><line style="stroke:#181818;stroke-width:0.5;stroke-dasharray:5.0,5.0;" x1="350.6406" x2="350.6406" y1="121.2188" y2="1632.5703"/></g><g><title>Banking Partner</title><rect fill="#000000" fill-opacity="0.00000" height="1511.3516" width="8" x="538.7568" y="121.2188"/><line style="stroke:#181818;stroke-width:0.5;stroke-dasharray:5.0,5.0;" x1="542.5605" x2="542.5605" y1="121.2188" y2="1632.5703"/></g><g class="participant participant-head" data-participant="user"><text fill="#000000" font-family="sans-serif" font-size="14" lengthAdjust="spacing" textLength="29.5586" x="47" y="118.1426">User</text><ellipse cx="64.7793" cy="52.1094" fill="#E2E2F0" rx="8" ry="8" style="stroke:#181818;stroke-width:0.5;"/><path d="M64.7793,60.1094 L64.7793,87.1094 M51.7793,68.1094 L77.7793,68.1094 M64.7793,87.1094 L51.7793,102.1094 M64.7793,87.1094 L77.7793,102.1094" fill="none" style="stroke:#181818;stroke-width:0.5;"/></g><g class="participant participant-tail" data-participant="user"><text fill="#000000" font-family="sans-serif" font-size="14" lengthAdjust="spacing" textLength="29.5586" x="47" y="1646.1035">User</text><ellipse cx="64.7793" cy="1657.6797" fill="#E2E2F0" rx="8" ry="8" style="stroke:#181818;stroke-width:0.5;"/><path d="M64.7793,1665.6797 L64.7793,1692.6797 M51.7793,1673.6797 L77.7793,1673.6797 M64.7793,1692.6797 L51.7793,1707.6797 M64.7793,1692.6797 L77.7793,1707.6797" fill="none" style="stroke:#181818;stroke-width:0.5;"/></g><g class="participant participant-head" data-participant="system"><text fill="#000000" font-family="sans-serif" font-size="14" lengthAdjust="spacing" textLength="108.9238" x="293.6406" y="118.1426">FalsoPay System</text><path d="M330.6025,75.6094 L330.6025,99.6094 M330.6025,87.6094 L347.6025,87.6094" fill="none" style="stroke:#181818;stroke-width:0.5;"/><ellipse cx="359.6025" cy="87.6094" fill="#E2E2F0" rx="12" ry="12" style="stroke:#181818;stroke-width:0.5;"/></g><g class="participant participant-tail" data-participant="system"><text fill="#000000" font-family="sans-serif" font-size="14" lengthAdjust="spacing" textLength="108.9238" x="293.6406" y="1646.1035">FalsoPay System</text><path d="M330.6025,1653.1797 L330.6025,1677.1797 M330.6025,1665.1797 L347.6025,1665.1797" fill="none" style="stroke:#181818;stroke-width:0.5;"/><ellipse cx="359.6025" cy="1665.1797" fill="#E2E2F0" rx="12" ry="12" style="stroke:#181818;stroke-width:0.5;"/></g><g class="participant participant-head" data-participant="bank"><rect fill="#FFA07A" height="31.6094" rx="2.5" ry="2.5" style="stroke:#000000;stroke-width:0.5;" width="114.3926" x="485.5605" y="88.6094"/><text fill="#000000" font-family="sans-serif" font-size="14" lengthAdjust="spacing" textLength="100.3926" x="492.5605" y="110.1426">Banking Partner</text></g><g class="participant participant-tail" data-participant="bank"><rect fill="#FFA07A" height="31.6094" rx="2.5" ry="2.5" style="stroke:#000000;stroke-width:0.5;" width="114.3926" x="485.5605" y="1631.5703"/><text fill="#000000" font-family="sans-serif" font-size="14" lengthAdjust="spacing" textLength="100.3926" x="492.5605" y="1653.1035">Banking Partner</text></g><g class="message" data-participant-1="user" data-participant-2="system"><polygon fill="#181818" points="339.1025,149.5703,349.1025,153.5703,339.1025,157.5703,343.1025,153.5703" style="stroke:#181818;stroke-width:1;"/><line style="stroke:#181818;stroke-width:1;" x1="64.7793" x2="345.1025" y1="153.5703" y2="153.5703"/><text fill="#000000" font-family="sans-serif" font-size="13" lengthAdjust="spacing" textLength="183.3774" x="116.2522" y="148.7139">Navigate to "Payment Methods"</text></g><g class="message" data-participant-1="system" data-participant-2="user"><polygon fill="#181818" points="75.7793,179.9219,65.7793,183.9219,75.7793,187.9219,71.7793,183.9219" style="stroke:#181818;stroke-width:1;"/><line style="stroke:#181818;stroke-width:1;stroke-dasharray:2.0,2.0;" x1="69.7793" x2="350.1025" y1="183.9219" y2="183.9219"/><text fill="#000000" font-family="sans-serif" font-size="13" lengthAdjust="spacing" textLength="195.1016" x="110.3901" y="179.0654">Display payment methods options</text></g><g class="message" data-participant-1="user" data-participant-2="system"><polygon fill="#181818" points="339.1025,210.2734,349.1025,214.2734,339.1025,218.2734,343.1025,214.2734" style="stroke:#181818;stroke-width:1;"/><line style="stroke:#181818;stroke-width:1;" x1="64.7793" x2="345.1025" y1="214.2734" y2="214.2734"/><text fill="#000000" font-family="sans-serif" font-size="13" lengthAdjust="spacing" textLength="155.9302" x="129.9758" y="209.417">Select "Add Bank Account"</text></g><g class="message" data-participant-1="system" data-participant-2="user"><polygon fill="#181818" points="75.7793,240.625,65.7793,244.625,75.7793,248.625,71.7793,244.625" style="stroke:#181818;stroke-width:1;"/><line style="stroke:#181818;stroke-width:1;stroke-dasharray:2.0,2.0;" x1="69.7793" x2="350.1025" y1="244.625" y2="244.625"/><text fill="#000000" font-family="sans-serif" font-size="13" lengthAdjust="spacing" textLength="193.6479" x="111.1169" y="239.7686">Display bank account linking form</text></g><g class="message" data-participant-1="user" data-participant-2="system"><polygon fill="#181818" points="339.1025,270.9766,349.1025,274.9766,339.1025,278.9766,343.1025,274.9766" style="stroke:#181818;stroke-width:1;"/><line style="stroke:#181818;stroke-width:1;" x1="64.7793" x2="345.1025" y1="274.9766" y2="274.9766"/><text fill="#000000" font-family="sans-serif" font-size="13" lengthAdjust="spacing" textLength="153.207" x="131.3374" y="270.1201">Enter bank account details</text></g><g class="message" data-participant-1="user" data-participant-2="system"><polygon fill="#181818" points="339.1025,301.3281,349.1025,305.3281,339.1025,309.3281,343.1025,305.3281" style="stroke:#181818;stroke-width:1;"/><line style="stroke:#181818;stroke-width:1;" x1="64.7793" x2="345.1025" y1="305.3281" y2="305.3281"/><text fill="#000000" font-family="sans-serif" font-size="13" lengthAdjust="spacing" textLength="108.3799" x="153.751" y="300.4717">Submit information</text></g><g class="message" data-participant-1="system" data-participant-2="user"><polygon fill="#181818" points="75.7793,331.6797,65.7793,335.6797,75.7793,339.6797,71.7793,335.6797" style="stroke:#181818;stroke-width:1;"/><line style="stroke:#181818;stroke-width:1;stroke-dasharray:2.0,2.0;" x1="69.7793" x2="350.1025" y1="335.6797" y2="335.6797"/><text fill="#000000" font-family="sans-serif" font-size="13" lengthAdjust="spacing" textLength="192.2197" x="111.8311" y="330.8232">Validate format of account details</text></g><path d="M9,350.6797 L69.1709,350.6797 L69.1709,359.0313 L59.1709,369.0313 L9,369.0313 L9,350.6797" fill="#EEEEEE" style="stroke:#000000;stroke-width:1.5;"/><rect fill="none" height="1264.8906" style="stroke:#000000;stroke-width:1.5;" width="630.9531" x="9" y="350.6797"/><text fill="#000000" font-family="sans-serif" font-size="13" font-weight="bold" lengthAdjust="spacing" textLength="15.1709" x="24" y="365.1748">alt</text><text fill="#000000" font-family="sans-serif" font-size="11" font-weight="bold" lengthAdjust="spacing" textLength="79.4492" x="84.1709" y="364.0986">[Invalid format]</text><g class="message" data-participant-1="system" data-participant-2="user"><polygon fill="#181818" points="75.7793,387.3828,65.7793,391.3828,75.7793,395.3828,71.7793,391.3828" style="stroke:#181818;stroke-width:1;"/><line style="stroke:#181818;stroke-width:1;stroke-dasharray:2.0,2.0;" x1="69.7793" x2="350.1025" y1="391.3828" y2="391.3828"/><text fill="#000000" font-family="sans-serif" font-size="13" lengthAdjust="spacing" textLength="125.0107" x="145.4355" y="386.5264">Highlight invalid fields</text></g><g class="message" data-participant-1="system" data-participant-2="user"><polygon fill="#181818" points="75.7793,417.7344,65.7793,421.7344,75.7793,425.7344,71.7793,421.7344" style="stroke:#181818;stroke-width:1;"/><line style="stroke:#181818;stroke-width:1;stroke-dasharray:2.0,2.0;" x1="69.7793" x2="350.1025" y1="421.7344" y2="421.7344"/><text fill="#000000" font-family="sans-serif" font-size="13" lengthAdjust="spacing" textLength="179.1753" x="118.3533" y="416.8779">Display format validation errors</text></g><g class="message" data-participant-1="user" data-participant-2="system"><polygon fill="#181818" points="339.1025,448.0859,349.1025,452.0859,339.1025,456.0859,343.1025,452.0859" style="stroke:#181818;stroke-width:1;"/><line style="stroke:#181818;stroke-width:1;" x1="64.7793" x2="345.1025" y1="452.0859" y2="452.0859"/><text fill="#000000" font-family="sans-serif" font-size="13" lengthAdjust="spacing" textLength="159.6816" x="128.1001" y="447.2295">Correct account information</text></g><line style="stroke:#000000;stroke-width:1;stroke-dasharray:2.0,2.0;" x1="9" x2="639.9531" y1="461.0859" y2="461.0859"/><text fill="#000000" font-family="sans-serif" font-size="11" font-weight="bold" lengthAdjust="spacing" textLength="70.8931" x="14" y="472.5049">[Valid format]</text><g class="message" data-participant-1="system" data-participant-2="bank"><polygon fill="#181818" points="530.7568,494.2734,540.7568,498.2734,530.7568,502.2734,534.7568,498.2734" style="stroke:#181818;stroke-width:1;"/><line style="stroke:#181818;stroke-width:1;" x1="351.1025" x2="536.7568" y1="498.2734" y2="498.2734"/><text fill="#000000" font-family="sans-serif" font-size="13" lengthAdjust="spacing" textLength="143.0825" x="375.3884" y="493.417">Send verification request</text></g><path d="M19,513.2734 L79.1709,513.2734 L79.1709,521.625 L69.1709,531.625 L19,531.625 L19,513.2734" fill="#EEEEEE" style="stroke:#000000;stroke-width:1.5;"/><rect fill="none" height="1095.2969" style="stroke:#000000;stroke-width:1.5;" width="610.9531" x="19" y="513.2734"/><text fill="#000000" font-family="sans-serif" font-size="13" font-weight="bold" lengthAdjust="spacing" textLength="15.1709" x="34" y="527.7686">alt</text><text fill="#000000" font-family="sans-serif" font-size="11" font-weight="bold" lengthAdjust="spacing" textLength="96.5562" x="94.1709" y="526.6924">[Connection error]</text><g class="message" data-participant-1="bank" data-participant-2="system"><polygon fill="#181818" points="362.1025,549.9766,352.1025,553.9766,362.1025,557.9766,358.1025,553.9766" style="stroke:#181818;stroke-width:1;"/><line style="stroke:#181818;stroke-width:1;stroke-dasharray:2.0,2.0;" x1="356.1025" x2="541.7568" y1="553.9766" y2="553.9766"/><text fill="#000000" font-family="sans-serif" font-size="13" lengthAdjust="spacing" textLength="100.458" x="396.7007" y="549.1201">Connection failed</text></g><g class="message" data-participant-1="system" data-participant-2="user"><polygon fill="#181818" points="75.7793,580.3281,65.7793,584.3281,75.7793,588.3281,71.7793,584.3281" style="stroke:#181818;stroke-width:1;"/><line style="stroke:#181818;stroke-width:1;stroke-dasharray:2.0,2.0;" x1="69.7793" x2="350.1025" y1="584.3281" y2="584.3281"/><text fill="#000000" font-family="sans-serif" font-size="13" lengthAdjust="spacing" textLength="140.1753" x="137.8533" y="579.4717">Display connection error</text></g><g class="message" data-participant-1="system" data-participant-2="user"><polygon fill="#181818" points="75.7793,610.6797,65.7793,614.6797,75.7793,618.6797,71.7793,614.6797" style="stroke:#181818;stroke-width:1;"/><line style="stroke:#181818;stroke-width:1;stroke-dasharray:2.0,2.0;" x1="69.7793" x2="350.1025" y1="614.6797" y2="614.6797"/><text fill="#000000" font-family="sans-serif" font-size="13" lengthAdjust="spacing" textLength="147.4243" x="134.2288" y="609.8232">Suggest trying again later</text></g><line style="stroke:#000000;stroke-width:1;stroke-dasharray:2.0,2.0;" x1="19" x2="629.9531" y1="623.6797" y2="623.6797"/><text fill="#000000" font-family="sans-serif" font-size="11" font-weight="bold" lengthAdjust="spacing" textLength="154.6445" x="24" y="635.0986">[Banking partner unavailable]</text><g class="message" data-participant-1="bank" data-participant-2="system"><polygon fill="#181818" points="362.1025,656.8672,352.1025,660.8672,362.1025,664.8672,358.1025,660.8672" style="stroke:#181818;stroke-width:1;"/><line style="stroke:#181818;stroke-width:1;stroke-dasharray:2.0,2.0;" x1="356.1025" x2="541.7568" y1="660.8672" y2="660.8672"/><text fill="#000000" font-family="sans-serif" font-size="13" lengthAdjust="spacing" textLength="112.7344" x="390.5625" y="656.0107">Service unavailable</text></g><g class="message" data-participant-1="system" data-participant-2="user"><polygon fill="#181818" points="75.7793,687.2188,65.7793,691.2188,75.7793,695.2188,71.7793,691.2188" style="stroke:#181818;stroke-width:1;"/><line style="stroke:#181818;stroke-width:1;stroke-dasharray:2.0,2.0;" x1="69.7793" x2="350.1025" y1="691.2188" y2="691.2188"/><text fill="#000000" font-family="sans-serif" font-size="13" lengthAdjust="spacing" textLength="262.3232" x="76.7793" y="686.3623">Display banking partner unavailable message</text></g><g class="message" data-participant-1="system" data-participant-2="user"><polygon fill="#181818" points="75.7793,717.5703,65.7793,721.5703,75.7793,725.5703,71.7793,721.5703" style="stroke:#181818;stroke-width:1;"/><line style="stroke:#181818;stroke-width:1;stroke-dasharray:2.0,2.0;" x1="69.7793" x2="350.1025" y1="721.5703" y2="721.5703"/><text fill="#000000" font-family="sans-serif" font-size="13" lengthAdjust="spacing" textLength="147.4243" x="134.2288" y="716.7139">Suggest trying again later</text></g><line style="stroke:#000000;stroke-width:1;stroke-dasharray:2.0,2.0;" x1="19" x2="629.9531" y1="730.5703" y2="730.5703"/><text fill="#000000" font-family="sans-serif" font-size="11" font-weight="bold" lengthAdjust="spacing" textLength="105.0801" x="24" y="741.9893">[Account not found]</text><g class="message" data-participant-1="bank" data-participant-2="system"><polygon fill="#181818" points="362.1025,763.7578,352.1025,767.7578,362.1025,771.7578,358.1025,767.7578" style="stroke:#181818;stroke-width:1;"/><line style="stroke:#181818;stroke-width:1;stroke-dasharray:2.0,2.0;" x1="356.1025" x2="541.7568" y1="767.7578" y2="767.7578"/><text fill="#000000" font-family="sans-serif" font-size="13" lengthAdjust="spacing" textLength="104.7998" x="394.5298" y="762.9014">Account not found</text></g><g class="message" data-participant-1="system" data-participant-2="user"><polygon fill="#181818" points="75.7793,794.1094,65.7793,798.1094,75.7793,802.1094,71.7793,798.1094" style="stroke:#181818;stroke-width:1;"/><line style="stroke:#181818;stroke-width:1;stroke-dasharray:2.0,2.0;" x1="69.7793" x2="350.1025" y1="798.1094" y2="798.1094"/><text fill="#000000" font-family="sans-serif" font-size="13" lengthAdjust="spacing" textLength="180.6543" x="117.6138" y="793.2529">Display account not found error</text></g><g class="message" data-participant-1="user" data-participant-2="system"><polygon fill="#181818" points="339.1025,824.4609,349.1025,828.4609,339.1025,832.4609,343.1025,828.4609" style="stroke:#181818;stroke-width:1;"/><line style="stroke:#181818;stroke-width:1;" x1="64.7793" x2="345.1025" y1="828.4609" y2="828.4609"/><text fill="#000000" font-family="sans-serif" font-size="13" lengthAdjust="spacing" textLength="159.6816" x="128.1001" y="823.6045">Correct account information</text></g><line style="stroke:#000000;stroke-width:1;stroke-dasharray:2.0,2.0;" x1="19" x2="629.9531" y1="837.4609" y2="837.4609"/><text fill="#000000" font-family="sans-serif" font-size="11" font-weight="bold" lengthAdjust="spacing" textLength="84.9224" x="24" y="848.8799">[Account found]</text><g class="message" data-participant-1="bank" data-participant-2="system"><polygon fill="#181818" points="362.1025,870.6484,352.1025,874.6484,362.1025,878.6484,358.1025,874.6484" style="stroke:#181818;stroke-width:1;"/><line style="stroke:#181818;stroke-width:1;stroke-dasharray:2.0,2.0;" x1="356.1025" x2="541.7568" y1="874.6484" y2="874.6484"/><text fill="#000000" font-family="sans-serif" font-size="13" lengthAdjust="spacing" textLength="92.4917" x="400.6838" y="869.792">Account verified</text></g><g class="message" data-participant-1="bank" data-participant-2="system"><polygon fill="#181818" points="362.1025,901,352.1025,905,362.1025,909,358.1025,905" style="stroke:#181818;stroke-width:1;"/><line style="stroke:#181818;stroke-width:1;stroke-dasharray:2.0,2.0;" x1="356.1025" x2="541.7568" y1="905" y2="905"/><text fill="#000000" font-family="sans-serif" font-size="13" lengthAdjust="spacing" textLength="126.439" x="383.7102" y="900.1436">Initiate micro-deposits</text></g><g class="message" data-participant-1="system" data-participant-2="user"><polygon fill="#181818" points="75.7793,931.3516,65.7793,935.3516,75.7793,939.3516,71.7793,935.3516" style="stroke:#181818;stroke-width:1;"/><line style="stroke:#181818;stroke-width:1;stroke-dasharray:2.0,2.0;" x1="69.7793" x2="350.1025" y1="935.3516" y2="935.3516"/><text fill="#000000" font-family="sans-serif" font-size="13" lengthAdjust="spacing" textLength="161.1226" x="127.3796" y="930.4951">Inform about micro-deposits</text></g><g class="message" data-participant-1="system" data-participant-2="user"><polygon fill="#181818" points="75.7793,961.7031,65.7793,965.7031,75.7793,969.7031,71.7793,965.7031" style="stroke:#181818;stroke-width:1;"/><line style="stroke:#181818;stroke-width:1;stroke-dasharray:2.0,2.0;" x1="69.7793" x2="350.1025" y1="965.7031" y2="965.7031"/><text fill="#000000" font-family="sans-serif" font-size="13" lengthAdjust="spacing" textLength="225.4497" x="95.2161" y="960.8467">Request to verify deposit amounts later</text></g><path d="M29,978.7031 L29,1004.7031 L576,1004.7031 L576,988.7031 L566,978.7031 L29,978.7031" fill="#FEFFDD" style="stroke:#181818;stroke-width:0.5;"/><path d="M566,978.7031 L566,988.7031 L576,988.7031 L566,978.7031" fill="#FEFFDD" style="stroke:#181818;stroke-width:0.5;"/><text fill="#000000" font-family="sans-serif" font-size="13" lengthAdjust="spacing" textLength="275.9897" x="160.4817" y="997.1982">User waits 1-3 business days for micro-deposits</text><g class="message" data-participant-1="user" data-participant-2="system"><polygon fill="#181818" points="339.1025,1028.4063,349.1025,1032.4063,339.1025,1036.4063,343.1025,1032.4063" style="stroke:#181818;stroke-width:1;"/><line style="stroke:#181818;stroke-width:1;" x1="64.7793" x2="345.1025" y1="1032.4063" y2="1032.4063"/><text fill="#000000" font-family="sans-serif" font-size="13" lengthAdjust="spacing" textLength="216.0679" x="99.907" y="1027.5498">Return to app after receiving deposits</text></g><g class="message" data-participant-1="system" data-participant-2="user"><polygon fill="#181818" points="75.7793,1058.7578,65.7793,1062.7578,75.7793,1066.7578,71.7793,1062.7578" style="stroke:#181818;stroke-width:1;"/><line style="stroke:#181818;stroke-width:1;stroke-dasharray:2.0,2.0;" x1="69.7793" x2="350.1025" y1="1062.7578" y2="1062.7578"/><text fill="#000000" font-family="sans-serif" font-size="13" lengthAdjust="spacing" textLength="195.7935" x="110.0442" y="1057.9014">Prompt for micro-deposit amounts</text></g><g class="message" data-participant-1="user" data-participant-2="system"><polygon fill="#181818" points="339.1025,1089.1094,349.1025,1093.1094,339.1025,1097.1094,343.1025,1093.1094" style="stroke:#181818;stroke-width:1;"/><line style="stroke:#181818;stroke-width:1;" x1="64.7793" x2="345.1025" y1="1093.1094" y2="1093.1094"/><text fill="#000000" font-family="sans-serif" font-size="13" lengthAdjust="spacing" textLength="166.1816" x="124.8501" y="1088.2529">Enter micro-deposit amounts</text></g><g class="message" data-participant-1="system" data-participant-2="bank"><polygon fill="#181818" points="530.7568,1119.4609,540.7568,1123.4609,530.7568,1127.4609,534.7568,1123.4609" style="stroke:#181818;stroke-width:1;"/><line style="stroke:#181818;stroke-width:1;" x1="351.1025" x2="536.7568" y1="1123.4609" y2="1123.4609"/><text fill="#000000" font-family="sans-serif" font-size="13" lengthAdjust="spacing" textLength="132.2344" x="380.8125" y="1118.6045">Verify deposit amounts</text></g><path d="M27,1138.4609 L87.1709,1138.4609 L87.1709,1146.8125 L77.1709,1156.8125 L27,1156.8125 L27,1138.4609" fill="#EEEEEE" style="stroke:#000000;stroke-width:1.5;"/><rect fill="none" height="463.1094" style="stroke:#000000;stroke-width:1.5;" width="592.9531" x="27" y="1138.4609"/><text fill="#000000" font-family="sans-serif" font-size="13" font-weight="bold" lengthAdjust="spacing" textLength="15.1709" x="42" y="1152.9561">alt</text><text fill="#000000" font-family="sans-serif" font-size="11" font-weight="bold" lengthAdjust="spacing" textLength="103.2915" x="102.1709" y="1151.8799">[Incorrect amounts]</text><g class="message" data-participant-1="bank" data-participant-2="system"><polygon fill="#181818" points="362.1025,1175.1641,352.1025,1179.1641,362.1025,1183.1641,358.1025,1179.1641" style="stroke:#181818;stroke-width:1;"/><line style="stroke:#181818;stroke-width:1;stroke-dasharray:2.0,2.0;" x1="356.1025" x2="541.7568" y1="1179.1641" y2="1179.1641"/><text fill="#000000" font-family="sans-serif" font-size="13" lengthAdjust="spacing" textLength="98.998" x="397.4307" y="1174.3076">Verification failed</text></g><g class="message" data-participant-1="system" data-participant-2="user"><polygon fill="#181818" points="75.7793,1205.5156,65.7793,1209.5156,75.7793,1213.5156,71.7793,1209.5156" style="stroke:#181818;stroke-width:1;"/><line style="stroke:#181818;stroke-width:1;stroke-dasharray:2.0,2.0;" x1="69.7793" x2="350.1025" y1="1209.5156" y2="1209.5156"/><text fill="#000000" font-family="sans-serif" font-size="13" lengthAdjust="spacing" textLength="218.1943" x="98.8438" y="1204.6592">Display incorrect verification message</text></g><path d="M37,1224.5156 L102.2109,1224.5156 L102.2109,1232.8672 L92.2109,1242.8672 L37,1242.8672 L37,1224.5156" fill="#EEEEEE" style="stroke:#000000;stroke-width:1.5;"/><rect fill="none" height="109.4063" style="stroke:#000000;stroke-width:1.5;" width="572.9531" x="37" y="1224.5156"/><text fill="#000000" font-family="sans-serif" font-size="13" font-weight="bold" lengthAdjust="spacing" textLength="20.2109" x="52" y="1239.0107">opt</text><text fill="#000000" font-family="sans-serif" font-size="11" font-weight="bold" lengthAdjust="spacing" textLength="139.9707" x="117.2109" y="1237.9346">[Retry attempts remaining]</text><g class="message" data-participant-1="system" data-participant-2="user"><polygon fill="#181818" points="75.7793,1261.2188,65.7793,1265.2188,75.7793,1269.2188,71.7793,1265.2188" style="stroke:#181818;stroke-width:1;"/><line style="stroke:#181818;stroke-width:1;stroke-dasharray:2.0,2.0;" x1="69.7793" x2="350.1025" y1="1265.2188" y2="1265.2188"/><text fill="#000000" font-family="sans-serif" font-size="13" lengthAdjust="spacing" textLength="182.0508" x="116.9155" y="1260.3623">Allow retry with limited attempts</text></g><g class="message" data-participant-1="user" data-participant-2="system"><polygon fill="#181818" points="339.1025,1291.5703,349.1025,1295.5703,339.1025,1299.5703,343.1025,1295.5703" style="stroke:#181818;stroke-width:1;"/><line style="stroke:#181818;stroke-width:1;" x1="64.7793" x2="345.1025" y1="1295.5703" y2="1295.5703"/><text fill="#000000" font-family="sans-serif" font-size="13" lengthAdjust="spacing" textLength="201.6016" x="107.1401" y="1290.7139">Enter micro-deposit amounts again</text></g><g class="message" data-participant-1="system" data-participant-2="bank"><polygon fill="#181818" points="530.7568,1321.9219,540.7568,1325.9219,530.7568,1329.9219,534.7568,1325.9219" style="stroke:#181818;stroke-width:1;"/><line style="stroke:#181818;stroke-width:1;" x1="351.1025" x2="536.7568" y1="1325.9219" y2="1325.9219"/><text fill="#000000" font-family="sans-serif" font-size="13" lengthAdjust="spacing" textLength="167.6543" x="363.1025" y="1321.0654">Verify deposit amounts again</text></g><path d="M37,1347.9219 L102.2109,1347.9219 L102.2109,1356.2734 L92.2109,1366.2734 L37,1366.2734 L37,1347.9219" fill="#EEEEEE" style="stroke:#000000;stroke-width:1.5;"/><rect fill="none" height="79.0547" style="stroke:#000000;stroke-width:1.5;" width="381.5645" x="37" y="1347.9219"/><text fill="#000000" font-family="sans-serif" font-size="13" font-weight="bold" lengthAdjust="spacing" textLength="20.2109" x="52" y="1362.417">opt</text><text fill="#000000" font-family="sans-serif" font-size="11" font-weight="bold" lengthAdjust="spacing" textLength="154.0269" x="117.2109" y="1361.3408">[No retry attempts remaining]</text><g class="message" data-participant-1="system" data-participant-2="user"><polygon fill="#181818" points="75.7793,1384.625,65.7793,1388.625,75.7793,1392.625,71.7793,1388.625" style="stroke:#181818;stroke-width:1;"/><line style="stroke:#181818;stroke-width:1;stroke-dasharray:2.0,2.0;" x1="69.7793" x2="350.1025" y1="1388.625" y2="1388.625"/><text fill="#000000" font-family="sans-serif" font-size="13" lengthAdjust="spacing" textLength="155.3589" x="130.2615" y="1383.7686">Verification failed message</text></g><g class="message" data-participant-1="system" data-participant-2="user"><polygon fill="#181818" points="75.7793,1414.9766,65.7793,1418.9766,75.7793,1422.9766,71.7793,1418.9766" style="stroke:#181818;stroke-width:1;"/><line style="stroke:#181818;stroke-width:1;stroke-dasharray:2.0,2.0;" x1="69.7793" x2="350.1025" y1="1418.9766" y2="1418.9766"/><text fill="#000000" font-family="sans-serif" font-size="13" lengthAdjust="spacing" textLength="157.5488" x="129.1665" y="1414.1201">Suggest contacting support</text></g><line style="stroke:#000000;stroke-width:1;stroke-dasharray:2.0,2.0;" x1="27" x2="619.9531" y1="1434.9766" y2="1434.9766"/><text fill="#000000" font-family="sans-serif" font-size="11" font-weight="bold" lengthAdjust="spacing" textLength="95.3423" x="32" y="1446.3955">[Correct amounts]</text><g class="message" data-participant-1="bank" data-participant-2="system"><polygon fill="#181818" points="362.1025,1468.1641,352.1025,1472.1641,362.1025,1476.1641,358.1025,1472.1641" style="stroke:#181818;stroke-width:1;"/><line style="stroke:#181818;stroke-width:1;stroke-dasharray:2.0,2.0;" x1="356.1025" x2="541.7568" y1="1472.1641" y2="1472.1641"/><text fill="#000000" font-family="sans-serif" font-size="13" lengthAdjust="spacing" textLength="128.6099" x="382.6248" y="1467.3076">Verification successful</text></g><g class="message" data-participant-1="system" data-participant-2="user"><polygon fill="#181818" points="75.7793,1498.5156,65.7793,1502.5156,75.7793,1506.5156,71.7793,1502.5156" style="stroke:#181818;stroke-width:1;"/><line style="stroke:#181818;stroke-width:1;stroke-dasharray:2.0,2.0;" x1="69.7793" x2="350.1025" y1="1502.5156" y2="1502.5156"/><text fill="#000000" font-family="sans-serif" font-size="13" lengthAdjust="spacing" textLength="140.8926" x="137.4946" y="1497.6592">Mark account as verified</text></g><g class="message" data-participant-1="system" data-participant-2="user"><polygon fill="#181818" points="75.7793,1528.8672,65.7793,1532.8672,75.7793,1536.8672,71.7793,1532.8672" style="stroke:#181818;stroke-width:1;"/><line style="stroke:#181818;stroke-width:1;stroke-dasharray:2.0,2.0;" x1="69.7793" x2="350.1025" y1="1532.8672" y2="1532.8672"/><text fill="#000000" font-family="sans-serif" font-size="13" lengthAdjust="spacing" textLength="187.167" x="114.3574" y="1528.0107">Link bank account to user profile</text></g><g class="message" data-participant-1="system" data-participant-2="user"><polygon fill="#181818" points="75.7793,1559.2188,65.7793,1563.2188,75.7793,1567.2188,71.7793,1563.2188" style="stroke:#181818;stroke-width:1;"/><line style="stroke:#181818;stroke-width:1;stroke-dasharray:2.0,2.0;" x1="69.7793" x2="350.1025" y1="1563.2188" y2="1563.2188"/><text fill="#000000" font-family="sans-serif" font-size="13" lengthAdjust="spacing" textLength="149.5571" x="133.1624" y="1558.3623">Display success message</text></g><g class="message" data-participant-1="system" data-participant-2="user"><polygon fill="#181818" points="75.7793,1589.5703,65.7793,1593.5703,75.7793,1597.5703,71.7793,1593.5703" style="stroke:#181818;stroke-width:1;"/><line style="stroke:#181818;stroke-width:1;stroke-dasharray:2.0,2.0;" x1="69.7793" x2="350.1025" y1="1593.5703" y2="1593.5703"/><text fill="#000000" font-family="sans-serif" font-size="13" lengthAdjust="spacing" textLength="234.1396" x="90.8711" y="1588.7139">Show bank account in payment methods</text></g><!--SRC=[fLPDRzim3BtxLn0vBuTXjnuAfDc65LYBei5wPsp65IfBdYIxoByVQJbfRTdknmpa0yaZ-KW-Kl9FojJei09FVnioETsGzrZIHglIG4ucaCjyWhf35rIkQZJXohg2tDPgw-1AO_xq1fmHfREDAQB9RrK-XXtgofei2ofeWjLFrDxUuV62_pLFS8NyjibpDWgmXjtH1wfWr_k6xmfB3hRACim3UrpzyUHMW1uQ_fBj9HQwuulRtaC7yTtNh7uX22k9fqm9mjhqhlRyMvQ9GrXVzbONS8kjAZ4G10ihzbnnlU26mgCj_2gBA5YpWHXUC5DVQuvVzyWg8i7MGLdZK_yxqfGpeqrH3Agmu5k80lR5qYfcSh2kIht_aEOE3GeAgBHFYJJxIWLGHZoXiCrI2W-eLI7LY22mXyHlXZh0jMa5sSCou2VnzOjbeKKQ7BD7AzA5dqQVaky3jv48imHophfeDSvfQvsJwfuulawEjAUOpnJBowveqXvJG4jE7LGUmpaHfO_exatotLfZED2PJlU7F5tfrmDAP-I1wqN56JgRSZxdFB7ODMN9t22uesW2IrG6DCg02xvB-IJzEaeV6eCj4y6zfddMEtAjua6S0Y_gT2OIpqMtW_ulbTF2C3Pm3ta7p2Sm3vsbZsEJKVK_8hQ4yZlfHkNH0lBQgA1a8YkLExikgBPU1NyscC_pkkC7oDipp5adHlTH_R8DEsv7w6q0As7iN_Le49whI61RaG4x-jAFb-nnU4OE2L_Nts3VU6LO6L3WqSjOlfdLk0dt51fdX1xMDU11rXztXLGhAdexlpjdgpgaeK_fpGQEctRP9WbxsZ8FawLCxU9gpKz26y4czV7mUdUDDiwY_DKvpc3zZGTtm4yUFkca2tmQOs3FDRVMKSNJomqO02UZRxIspsmWziygFFBvngSI5MTdYOiFD29kaLaIozsOC2PJBDVXrlQfVAOK4vsRhFxY-kIp8_2TISJlcxgsBincqEsdxQUrvPiyPtQ7HY_hwmRTosM4hrt9Yfkqwcw9WtiCZtZN-jhPWzBqFb7t92VhcDRmaQKuYCb7qEXYbuqhAP_o-WS0]--></g></svg>