<svg xmlns="http://www.w3.org/2000/svg" xmlns:xlink="http://www.w3.org/1999/xlink" contentStyleType="text/css" data-diagram-type="SEQUENCE" height="1923px" preserveAspectRatio="none" style="width:586px;height:1923px;background:#FFFFFF;" version="1.1" viewBox="0 0 586 1923" width="586px" zoomAndPan="magnify"><title>FalsoPay: Contact Customer Support - System Sequence Diagram</title><defs/><g><text fill="#000000" font-family="sans-serif" font-size="14" font-weight="bold" lengthAdjust="spacing" textLength="441.1025" x="73.8428" y="29.5332">FalsoPay: Contact Customer Support - System Sequence Diagram</text><rect fill="none" height="187.9453" style="stroke:#000000;stroke-width:1.5;" width="363.2563" x="10" y="198.9219"/><rect fill="none" height="94.8906" style="stroke:#000000;stroke-width:1.5;" width="343.2563" x="20" y="284.9766"/><rect fill="none" height="1210.7031" style="stroke:#000000;stroke-width:1.5;" width="569.7881" x="10" y="613.3281"/><rect fill="none" height="170.1094" style="stroke:#000000;stroke-width:1.5;" width="549.7881" x="20" y="988.3828"/><rect fill="none" height="262.4844" style="stroke:#000000;stroke-width:1.5;" width="341.4556" x="228.3325" y="1233.1953"/><rect fill="none" height="216.2969" style="stroke:#000000;stroke-width:1.5;" width="549.7881" x="20" y="1600.7344"/><g><title>User</title><rect fill="#000000" fill-opacity="0.00000" height="1719.8125" width="8" x="43.7793" y="121.2188"/><line style="stroke:#181818;stroke-width:0.5;stroke-dasharray:5.0,5.0;" x1="47" x2="47" y1="121.2188" y2="1841.0313"/></g><g><title>FalsoPay System</title><rect fill="#000000" fill-opacity="0.00000" height="1719.8125" width="8" x="291.7944" y="121.2188"/><line style="stroke:#181818;stroke-width:0.5;stroke-dasharray:5.0,5.0;" x1="295.3325" x2="295.3325" y1="121.2188" y2="1841.0313"/></g><g><title>Support Agent</title><rect fill="#000000" fill-opacity="0.00000" height="1719.8125" width="8" x="508.0332" y="121.2188"/><line style="stroke:#181818;stroke-width:0.5;stroke-dasharray:5.0,5.0;" x1="511.2783" x2="511.2783" y1="121.2188" y2="1841.0313"/></g><g class="participant participant-head" data-participant="user"><text fill="#000000" font-family="sans-serif" font-size="14" lengthAdjust="spacing" textLength="29.5586" x="30" y="118.1426">User</text><ellipse cx="47.7793" cy="52.1094" fill="#E2E2F0" rx="8" ry="8" style="stroke:#181818;stroke-width:0.5;"/><path d="M47.7793,60.1094 L47.7793,87.1094 M34.7793,68.1094 L60.7793,68.1094 M47.7793,87.1094 L34.7793,102.1094 M47.7793,87.1094 L60.7793,102.1094" fill="none" style="stroke:#181818;stroke-width:0.5;"/></g><g class="participant participant-tail" data-participant="user"><text fill="#000000" font-family="sans-serif" font-size="14" lengthAdjust="spacing" textLength="29.5586" x="30" y="1854.5645">User</text><ellipse cx="47.7793" cy="1866.1406" fill="#E2E2F0" rx="8" ry="8" style="stroke:#181818;stroke-width:0.5;"/><path d="M47.7793,1874.1406 L47.7793,1901.1406 M34.7793,1882.1406 L60.7793,1882.1406 M47.7793,1901.1406 L34.7793,1916.1406 M47.7793,1901.1406 L60.7793,1916.1406" fill="none" style="stroke:#181818;stroke-width:0.5;"/></g><g class="participant participant-head" data-participant="system"><text fill="#000000" font-family="sans-serif" font-size="14" lengthAdjust="spacing" textLength="108.9238" x="238.3325" y="118.1426">FalsoPay System</text><path d="M275.2944,75.6094 L275.2944,99.6094 M275.2944,87.6094 L292.2944,87.6094" fill="none" style="stroke:#181818;stroke-width:0.5;"/><ellipse cx="304.2944" cy="87.6094" fill="#E2E2F0" rx="12" ry="12" style="stroke:#181818;stroke-width:0.5;"/></g><g class="participant participant-tail" data-participant="system"><text fill="#000000" font-family="sans-serif" font-size="14" lengthAdjust="spacing" textLength="108.9238" x="238.3325" y="1854.5645">FalsoPay System</text><path d="M275.2944,1861.6406 L275.2944,1885.6406 M275.2944,1873.6406 L292.2944,1873.6406" fill="none" style="stroke:#181818;stroke-width:0.5;"/><ellipse cx="304.2944" cy="1873.6406" fill="#E2E2F0" rx="12" ry="12" style="stroke:#181818;stroke-width:0.5;"/></g><g class="participant participant-head" data-participant="agent"><text fill="#000000" font-family="sans-serif" font-size="14" lengthAdjust="spacing" textLength="89.5098" x="464.2783" y="118.1426">Support Agent</text><ellipse cx="512.0332" cy="52.1094" fill="#E2E2F0" rx="8" ry="8" style="stroke:#181818;stroke-width:0.5;"/><path d="M512.0332,60.1094 L512.0332,87.1094 M499.0332,68.1094 L525.0332,68.1094 M512.0332,87.1094 L499.0332,102.1094 M512.0332,87.1094 L525.0332,102.1094" fill="none" style="stroke:#181818;stroke-width:0.5;"/></g><g class="participant participant-tail" data-participant="agent"><text fill="#000000" font-family="sans-serif" font-size="14" lengthAdjust="spacing" textLength="89.5098" x="464.2783" y="1854.5645">Support Agent</text><ellipse cx="512.0332" cy="1866.1406" fill="#E2E2F0" rx="8" ry="8" style="stroke:#181818;stroke-width:0.5;"/><path d="M512.0332,1874.1406 L512.0332,1901.1406 M499.0332,1882.1406 L525.0332,1882.1406 M512.0332,1901.1406 L499.0332,1916.1406 M512.0332,1901.1406 L525.0332,1916.1406" fill="none" style="stroke:#181818;stroke-width:0.5;"/></g><g class="message" data-participant-1="user" data-participant-2="system"><polygon fill="#181818" points="283.7944,149.5703,293.7944,153.5703,283.7944,157.5703,287.7944,153.5703" style="stroke:#181818;stroke-width:1;"/><line style="stroke:#181818;stroke-width:1;" x1="47.7793" x2="289.7944" y1="153.5703" y2="153.5703"/><text fill="#000000" font-family="sans-serif" font-size="13" lengthAdjust="spacing" textLength="166.7656" x="88.4041" y="148.7139">Navigate to "Help &amp; Support"</text></g><g class="message" data-participant-1="system" data-participant-2="user"><polygon fill="#181818" points="58.7793,179.9219,48.7793,183.9219,58.7793,187.9219,54.7793,183.9219" style="stroke:#181818;stroke-width:1;"/><line style="stroke:#181818;stroke-width:1;stroke-dasharray:2.0,2.0;" x1="52.7793" x2="294.7944" y1="183.9219" y2="183.9219"/><text fill="#000000" font-family="sans-serif" font-size="13" lengthAdjust="spacing" textLength="135.1289" x="104.2224" y="179.0654">Display support options</text></g><path d="M10,198.9219 L70.1709,198.9219 L70.1709,207.2734 L60.1709,217.2734 L10,217.2734 L10,198.9219" fill="#EEEEEE" style="stroke:#000000;stroke-width:1.5;"/><rect fill="none" height="187.9453" style="stroke:#000000;stroke-width:1.5;" width="363.2563" x="10" y="198.9219"/><text fill="#000000" font-family="sans-serif" font-size="13" font-weight="bold" lengthAdjust="spacing" textLength="15.1709" x="25" y="213.417">alt</text><text fill="#000000" font-family="sans-serif" font-size="11" font-weight="bold" lengthAdjust="spacing" textLength="145.4922" x="85.1709" y="212.3408">[Self-service first approach]</text><g class="message" data-participant-1="system" data-participant-2="user"><polygon fill="#181818" points="58.7793,235.625,48.7793,239.625,58.7793,243.625,54.7793,239.625" style="stroke:#181818;stroke-width:1;"/><line style="stroke:#181818;stroke-width:1;stroke-dasharray:2.0,2.0;" x1="52.7793" x2="294.7944" y1="239.625" y2="239.625"/><text fill="#000000" font-family="sans-serif" font-size="13" lengthAdjust="spacing" textLength="201.5952" x="70.9893" y="234.7686">Show FAQ and self-help resources</text></g><g class="message" data-participant-1="user" data-participant-2="system"><polygon fill="#181818" points="283.7944,265.9766,293.7944,269.9766,283.7944,273.9766,287.7944,269.9766" style="stroke:#181818;stroke-width:1;"/><line style="stroke:#181818;stroke-width:1;" x1="47.7793" x2="289.7944" y1="269.9766" y2="269.9766"/><text fill="#000000" font-family="sans-serif" font-size="13" lengthAdjust="spacing" textLength="80.1836" x="131.6951" y="265.1201">Browse FAQs</text></g><path d="M20,284.9766 L80.1709,284.9766 L80.1709,293.3281 L70.1709,303.3281 L20,303.3281 L20,284.9766" fill="#EEEEEE" style="stroke:#000000;stroke-width:1.5;"/><rect fill="none" height="94.8906" style="stroke:#000000;stroke-width:1.5;" width="343.2563" x="20" y="284.9766"/><text fill="#000000" font-family="sans-serif" font-size="13" font-weight="bold" lengthAdjust="spacing" textLength="15.1709" x="35" y="299.4717">alt</text><text fill="#000000" font-family="sans-serif" font-size="11" font-weight="bold" lengthAdjust="spacing" textLength="125.9253" x="95.1709" y="298.3955">[Issue resolved by FAQ]</text><g class="message" data-participant-1="user" data-participant-2="system"><polygon fill="#181818" points="283.7944,321.6797,293.7944,325.6797,283.7944,329.6797,287.7944,325.6797" style="stroke:#181818;stroke-width:1;"/><line style="stroke:#181818;stroke-width:1;" x1="47.7793" x2="289.7944" y1="325.6797" y2="325.6797"/><text fill="#000000" font-family="sans-serif" font-size="13" lengthAdjust="spacing" textLength="113.4453" x="115.0642" y="320.8232">Exit support section</text></g><line style="stroke:#000000;stroke-width:1;stroke-dasharray:2.0,2.0;" x1="20" x2="363.2563" y1="334.6797" y2="334.6797"/><text fill="#000000" font-family="sans-serif" font-size="11" font-weight="bold" lengthAdjust="spacing" textLength="103.9146" x="25" y="346.0986">[Issue not resolved]</text><g class="message" data-participant-1="user" data-participant-2="system"><polygon fill="#181818" points="283.7944,367.8672,293.7944,371.8672,283.7944,375.8672,287.7944,371.8672" style="stroke:#181818;stroke-width:1;"/><line style="stroke:#181818;stroke-width:1;" x1="47.7793" x2="289.7944" y1="371.8672" y2="371.8672"/><text fill="#000000" font-family="sans-serif" font-size="13" lengthAdjust="spacing" textLength="189.8647" x="76.8545" y="367.0107">Select "Contact Support Directly"</text></g><g class="message" data-participant-1="system" data-participant-2="user"><polygon fill="#181818" points="58.7793,412.2188,48.7793,416.2188,58.7793,420.2188,54.7793,416.2188" style="stroke:#181818;stroke-width:1;"/><line style="stroke:#181818;stroke-width:1;stroke-dasharray:2.0,2.0;" x1="52.7793" x2="294.7944" y1="416.2188" y2="416.2188"/><text fill="#000000" font-family="sans-serif" font-size="13" lengthAdjust="spacing" textLength="164.7344" x="89.4197" y="411.3623">Display support contact form</text></g><g class="message" data-participant-1="user" data-participant-2="system"><polygon fill="#181818" points="283.7944,442.5703,293.7944,446.5703,283.7944,450.5703,287.7944,446.5703" style="stroke:#181818;stroke-width:1;"/><line style="stroke:#181818;stroke-width:1;" x1="47.7793" x2="289.7944" y1="446.5703" y2="446.5703"/><text fill="#000000" font-family="sans-serif" font-size="13" lengthAdjust="spacing" textLength="123.5635" x="110.0051" y="441.7139">Select issue category</text></g><g class="message" data-participant-1="user" data-participant-2="system"><polygon fill="#181818" points="283.7944,472.9219,293.7944,476.9219,283.7944,480.9219,287.7944,476.9219" style="stroke:#181818;stroke-width:1;"/><line style="stroke:#181818;stroke-width:1;" x1="47.7793" x2="289.7944" y1="476.9219" y2="476.9219"/><text fill="#000000" font-family="sans-serif" font-size="13" lengthAdjust="spacing" textLength="112.709" x="115.4324" y="472.0654">Select issue priority</text></g><g class="message" data-participant-1="user" data-participant-2="system"><polygon fill="#181818" points="283.7944,503.2734,293.7944,507.2734,283.7944,511.2734,287.7944,507.2734" style="stroke:#181818;stroke-width:1;"/><line style="stroke:#181818;stroke-width:1;" x1="47.7793" x2="289.7944" y1="507.2734" y2="507.2734"/><text fill="#000000" font-family="sans-serif" font-size="13" lengthAdjust="spacing" textLength="144.5171" x="99.5283" y="502.417">Provide issue description</text></g><g class="message" data-participant-1="user" data-participant-2="system"><polygon fill="#181818" points="283.7944,533.625,293.7944,537.625,283.7944,541.625,287.7944,537.625" style="stroke:#181818;stroke-width:1;"/><line style="stroke:#181818;stroke-width:1;" x1="47.7793" x2="289.7944" y1="537.625" y2="537.625"/><text fill="#000000" font-family="sans-serif" font-size="13" lengthAdjust="spacing" textLength="224.0151" x="59.7793" y="532.7686">Attach screenshots/evidence (optional)</text></g><g class="message" data-participant-1="user" data-participant-2="system"><polygon fill="#181818" points="283.7944,563.9766,293.7944,567.9766,283.7944,571.9766,287.7944,567.9766" style="stroke:#181818;stroke-width:1;"/><line style="stroke:#181818;stroke-width:1;" x1="47.7793" x2="289.7944" y1="567.9766" y2="567.9766"/><text fill="#000000" font-family="sans-serif" font-size="13" lengthAdjust="spacing" textLength="134.4053" x="104.5842" y="563.1201">Submit support request</text></g><g class="message" data-participant-1="system" data-participant-2="user"><polygon fill="#181818" points="58.7793,594.3281,48.7793,598.3281,58.7793,602.3281,54.7793,598.3281" style="stroke:#181818;stroke-width:1;"/><line style="stroke:#181818;stroke-width:1;stroke-dasharray:2.0,2.0;" x1="52.7793" x2="294.7944" y1="598.3281" y2="598.3281"/><text fill="#000000" font-family="sans-serif" font-size="13" lengthAdjust="spacing" textLength="115.6162" x="113.9788" y="593.4717">Validate submission</text></g><path d="M10,613.3281 L70.1709,613.3281 L70.1709,621.6797 L60.1709,631.6797 L10,631.6797 L10,613.3281" fill="#EEEEEE" style="stroke:#000000;stroke-width:1.5;"/><rect fill="none" height="1210.7031" style="stroke:#000000;stroke-width:1.5;" width="569.7881" x="10" y="613.3281"/><text fill="#000000" font-family="sans-serif" font-size="13" font-weight="bold" lengthAdjust="spacing" textLength="15.1709" x="25" y="627.8232">alt</text><text fill="#000000" font-family="sans-serif" font-size="11" font-weight="bold" lengthAdjust="spacing" textLength="129.5723" x="85.1709" y="626.7471">[Incomplete submission]</text><g class="message" data-participant-1="system" data-participant-2="user"><polygon fill="#181818" points="58.7793,650.0313,48.7793,654.0313,58.7793,658.0313,54.7793,654.0313" style="stroke:#181818;stroke-width:1;"/><line style="stroke:#181818;stroke-width:1;stroke-dasharray:2.0,2.0;" x1="52.7793" x2="294.7944" y1="654.0313" y2="654.0313"/><text fill="#000000" font-family="sans-serif" font-size="13" lengthAdjust="spacing" textLength="166.1816" x="88.696" y="649.1748">Highlight missing information</text></g><g class="message" data-participant-1="system" data-participant-2="user"><polygon fill="#181818" points="58.7793,680.3828,48.7793,684.3828,58.7793,688.3828,54.7793,684.3828" style="stroke:#181818;stroke-width:1;"/><line style="stroke:#181818;stroke-width:1;stroke-dasharray:2.0,2.0;" x1="52.7793" x2="294.7944" y1="684.3828" y2="684.3828"/><text fill="#000000" font-family="sans-serif" font-size="13" lengthAdjust="spacing" textLength="142.3208" x="100.6265" y="679.5264">Display submission error</text></g><g class="message" data-participant-1="user" data-participant-2="system"><polygon fill="#181818" points="283.7944,710.7344,293.7944,714.7344,283.7944,718.7344,287.7944,714.7344" style="stroke:#181818;stroke-width:1;"/><line style="stroke:#181818;stroke-width:1;" x1="47.7793" x2="289.7944" y1="714.7344" y2="714.7344"/><text fill="#000000" font-family="sans-serif" font-size="13" lengthAdjust="spacing" textLength="216.7471" x="63.4133" y="709.8779">Complete missing items and resubmit</text></g><line style="stroke:#000000;stroke-width:1;stroke-dasharray:2.0,2.0;" x1="10" x2="579.7881" y1="723.7344" y2="723.7344"/><text fill="#000000" font-family="sans-serif" font-size="11" font-weight="bold" lengthAdjust="spacing" textLength="121.623" x="15" y="735.1533">[Complete submission]</text><g class="message" data-participant-1="system" data-participant-2="user"><polygon fill="#181818" points="58.7793,756.9219,48.7793,760.9219,58.7793,764.9219,54.7793,760.9219" style="stroke:#181818;stroke-width:1;"/><line style="stroke:#181818;stroke-width:1;stroke-dasharray:2.0,2.0;" x1="52.7793" x2="294.7944" y1="760.9219" y2="760.9219"/><text fill="#000000" font-family="sans-serif" font-size="13" lengthAdjust="spacing" textLength="119.9453" x="111.8142" y="756.0654">Create support ticket</text></g><g class="message" data-participant-1="system" data-participant-2="user"><polygon fill="#181818" points="58.7793,787.2734,48.7793,791.2734,58.7793,795.2734,54.7793,791.2734" style="stroke:#181818;stroke-width:1;"/><line style="stroke:#181818;stroke-width:1;stroke-dasharray:2.0,2.0;" x1="52.7793" x2="294.7944" y1="791.2734" y2="791.2734"/><text fill="#000000" font-family="sans-serif" font-size="13" lengthAdjust="spacing" textLength="120.6626" x="111.4556" y="786.417">Assign ticket number</text></g><g class="message" data-participant-1="system" data-participant-2="user"><polygon fill="#181818" points="58.7793,817.625,48.7793,821.625,58.7793,825.625,54.7793,821.625" style="stroke:#181818;stroke-width:1;"/><line style="stroke:#181818;stroke-width:1;stroke-dasharray:2.0,2.0;" x1="52.7793" x2="294.7944" y1="821.625" y2="821.625"/><text fill="#000000" font-family="sans-serif" font-size="13" lengthAdjust="spacing" textLength="102.5845" x="120.4946" y="816.7686">Determine priority</text></g><g class="message" data-participant-1="system" data-participant-2="user"><polygon fill="#181818" points="58.7793,847.9766,48.7793,851.9766,58.7793,855.9766,54.7793,851.9766" style="stroke:#181818;stroke-width:1;"/><line style="stroke:#181818;stroke-width:1;stroke-dasharray:2.0,2.0;" x1="52.7793" x2="294.7944" y1="851.9766" y2="851.9766"/><text fill="#000000" font-family="sans-serif" font-size="13" lengthAdjust="spacing" textLength="213.1543" x="65.2097" y="847.1201">Send confirmation with ticket number</text></g><g class="message" data-participant-1="system" data-participant-2="user"><polygon fill="#181818" points="58.7793,878.3281,48.7793,882.3281,58.7793,886.3281,54.7793,882.3281" style="stroke:#181818;stroke-width:1;"/><line style="stroke:#181818;stroke-width:1;stroke-dasharray:2.0,2.0;" x1="52.7793" x2="294.7944" y1="882.3281" y2="882.3281"/><text fill="#000000" font-family="sans-serif" font-size="13" lengthAdjust="spacing" textLength="187.8589" x="77.8574" y="877.4717">Display estimated response time</text></g><g class="message" data-participant-1="system" data-participant-2="agent"><polygon fill="#181818" points="500.0332,908.6797,510.0332,912.6797,500.0332,916.6797,504.0332,912.6797" style="stroke:#181818;stroke-width:1;"/><line style="stroke:#181818;stroke-width:1;" x1="295.7944" x2="506.0332" y1="912.6797" y2="912.6797"/><text fill="#000000" font-family="sans-serif" font-size="13" lengthAdjust="spacing" textLength="192.2388" x="307.7944" y="907.8232">Route ticket to appropriate queue</text></g><g class="message" data-participant-1="agent" data-participant-2="system"><polygon fill="#181818" points="306.7944,939.0313,296.7944,943.0313,306.7944,947.0313,302.7944,943.0313" style="stroke:#181818;stroke-width:1;"/><line style="stroke:#181818;stroke-width:1;" x1="300.7944" x2="511.0332" y1="943.0313" y2="943.0313"/><text fill="#000000" font-family="sans-serif" font-size="13" lengthAdjust="spacing" textLength="138.7534" x="334.5371" y="938.1748">Receive and open ticket</text></g><g class="message" data-participant-1="agent" data-participant-2="system"><polygon fill="#181818" points="306.7944,969.3828,296.7944,973.3828,306.7944,977.3828,302.7944,973.3828" style="stroke:#181818;stroke-width:1;"/><line style="stroke:#181818;stroke-width:1;" x1="300.7944" x2="511.0332" y1="973.3828" y2="973.3828"/><text fill="#000000" font-family="sans-serif" font-size="13" lengthAdjust="spacing" textLength="117.7744" x="345.0266" y="968.5264">Review issue details</text></g><path d="M20,988.3828 L80.1709,988.3828 L80.1709,996.7344 L70.1709,1006.7344 L20,1006.7344 L20,988.3828" fill="#EEEEEE" style="stroke:#000000;stroke-width:1.5;"/><rect fill="none" height="170.1094" style="stroke:#000000;stroke-width:1.5;" width="549.7881" x="20" y="988.3828"/><text fill="#000000" font-family="sans-serif" font-size="13" font-weight="bold" lengthAdjust="spacing" textLength="15.1709" x="35" y="1002.8779">alt</text><text fill="#000000" font-family="sans-serif" font-size="11" font-weight="bold" lengthAdjust="spacing" textLength="127.73" x="95.1709" y="1001.8018">[Need more information]</text><g class="message" data-participant-1="agent" data-participant-2="system"><polygon fill="#181818" points="306.7944,1025.0859,296.7944,1029.0859,306.7944,1033.0859,302.7944,1029.0859" style="stroke:#181818;stroke-width:1;"/><line style="stroke:#181818;stroke-width:1;" x1="300.7944" x2="511.0332" y1="1029.0859" y2="1029.0859"/><text fill="#000000" font-family="sans-serif" font-size="13" lengthAdjust="spacing" textLength="175.6079" x="316.1099" y="1024.2295">Request additional information</text></g><g class="message" data-participant-1="system" data-participant-2="user"><polygon fill="#181818" points="58.7793,1055.4375,48.7793,1059.4375,58.7793,1063.4375,54.7793,1059.4375" style="stroke:#181818;stroke-width:1;"/><line style="stroke:#181818;stroke-width:1;stroke-dasharray:2.0,2.0;" x1="52.7793" x2="294.7944" y1="1059.4375" y2="1059.4375"/><text fill="#000000" font-family="sans-serif" font-size="13" lengthAdjust="spacing" textLength="218.2451" x="62.6643" y="1054.5811">Send notification requesting more info</text></g><g class="message" data-participant-1="user" data-participant-2="system"><polygon fill="#181818" points="283.7944,1085.7891,293.7944,1089.7891,283.7944,1093.7891,287.7944,1089.7891" style="stroke:#181818;stroke-width:1;"/><line style="stroke:#181818;stroke-width:1;" x1="47.7793" x2="289.7944" y1="1089.7891" y2="1089.7891"/><text fill="#000000" font-family="sans-serif" font-size="13" lengthAdjust="spacing" textLength="112.728" x="115.4229" y="1084.9326">Receive notification</text></g><g class="message" data-participant-1="user" data-participant-2="system"><polygon fill="#181818" points="283.7944,1116.1406,293.7944,1120.1406,283.7944,1124.1406,287.7944,1120.1406" style="stroke:#181818;stroke-width:1;"/><line style="stroke:#181818;stroke-width:1;" x1="47.7793" x2="289.7944" y1="1120.1406" y2="1120.1406"/><text fill="#000000" font-family="sans-serif" font-size="13" lengthAdjust="spacing" textLength="171.2661" x="86.1538" y="1115.2842">Provide additional information</text></g><g class="message" data-participant-1="system" data-participant-2="agent"><polygon fill="#181818" points="500.0332,1146.4922,510.0332,1150.4922,500.0332,1154.4922,504.0332,1150.4922" style="stroke:#181818;stroke-width:1;"/><line style="stroke:#181818;stroke-width:1;" x1="295.7944" x2="506.0332" y1="1150.4922" y2="1150.4922"/><text fill="#000000" font-family="sans-serif" font-size="13" lengthAdjust="spacing" textLength="174.8652" x="316.4812" y="1145.6357">Forward additional information</text></g><g class="message" data-participant-1="agent" data-participant-2="system"><polygon fill="#181818" points="306.7944,1183.8438,296.7944,1187.8438,306.7944,1191.8438,302.7944,1187.8438" style="stroke:#181818;stroke-width:1;"/><line style="stroke:#181818;stroke-width:1;" x1="300.7944" x2="511.0332" y1="1187.8438" y2="1187.8438"/><text fill="#000000" font-family="sans-serif" font-size="13" lengthAdjust="spacing" textLength="89.5972" x="359.1152" y="1182.9873">Research issue</text></g><g class="message" data-participant-1="agent" data-participant-2="system"><polygon fill="#181818" points="306.7944,1214.1953,296.7944,1218.1953,306.7944,1222.1953,302.7944,1218.1953" style="stroke:#181818;stroke-width:1;"/><line style="stroke:#181818;stroke-width:1;" x1="300.7944" x2="511.0332" y1="1218.1953" y2="1218.1953"/><text fill="#000000" font-family="sans-serif" font-size="13" lengthAdjust="spacing" textLength="103.3398" x="352.2439" y="1213.3389">Prepare response</text></g><path d="M228.3325,1233.1953 L288.5034,1233.1953 L288.5034,1241.5469 L278.5034,1251.5469 L228.3325,1251.5469 L228.3325,1233.1953" fill="#EEEEEE" style="stroke:#000000;stroke-width:1.5;"/><rect fill="none" height="262.4844" style="stroke:#000000;stroke-width:1.5;" width="341.4556" x="228.3325" y="1233.1953"/><text fill="#000000" font-family="sans-serif" font-size="13" font-weight="bold" lengthAdjust="spacing" textLength="15.1709" x="243.3325" y="1247.6904">alt</text><text fill="#000000" font-family="sans-serif" font-size="11" font-weight="bold" lengthAdjust="spacing" textLength="165.6392" x="303.5034" y="1246.6143">[Immediate resolution possible]</text><g class="message" data-participant-1="agent" data-participant-2="system"><polygon fill="#181818" points="306.7944,1269.8984,296.7944,1273.8984,306.7944,1277.8984,302.7944,1273.8984" style="stroke:#181818;stroke-width:1;"/><line style="stroke:#181818;stroke-width:1;" x1="300.7944" x2="511.0332" y1="1273.8984" y2="1273.8984"/><text fill="#000000" font-family="sans-serif" font-size="13" lengthAdjust="spacing" textLength="80.9263" x="363.4507" y="1269.042">Resolve issue</text></g><g class="message" data-participant-1="agent" data-participant-2="system"><polygon fill="#181818" points="306.7944,1300.25,296.7944,1304.25,306.7944,1308.25,302.7944,1304.25" style="stroke:#181818;stroke-width:1;"/><line style="stroke:#181818;stroke-width:1;" x1="300.7944" x2="511.0332" y1="1304.25" y2="1304.25"/><text fill="#000000" font-family="sans-serif" font-size="13" lengthAdjust="spacing" textLength="107.6689" x="350.0793" y="1299.3936">Document solution</text></g><line style="stroke:#000000;stroke-width:1;stroke-dasharray:2.0,2.0;" x1="228.3325" x2="569.7881" y1="1313.25" y2="1313.25"/><text fill="#000000" font-family="sans-serif" font-size="11" font-weight="bold" lengthAdjust="spacing" textLength="111.2568" x="233.3325" y="1324.6689">[Requires escalation]</text><g class="message" data-participant-1="agent" data-participant-2="system"><polygon fill="#181818" points="306.7944,1346.4375,296.7944,1350.4375,306.7944,1354.4375,302.7944,1350.4375" style="stroke:#181818;stroke-width:1;"/><line style="stroke:#181818;stroke-width:1;" x1="300.7944" x2="511.0332" y1="1350.4375" y2="1350.4375"/><text fill="#000000" font-family="sans-serif" font-size="13" lengthAdjust="spacing" textLength="153.9053" x="326.9612" y="1345.5811">Escalate to specialist team</text></g><g class="message" data-participant-1="system" data-participant-2="agent"><polygon fill="#181818" points="500.0332,1376.7891,510.0332,1380.7891,500.0332,1384.7891,504.0332,1380.7891" style="stroke:#181818;stroke-width:1;"/><line style="stroke:#181818;stroke-width:1;stroke-dasharray:2.0,2.0;" x1="295.7944" x2="506.0332" y1="1380.7891" y2="1380.7891"/><text fill="#000000" font-family="sans-serif" font-size="13" lengthAdjust="spacing" textLength="110.5508" x="348.6384" y="1375.9326">Assign to specialist</text></g><g class="message" data-participant-1="agent" data-participant-2="system"><polygon fill="#181818" points="306.7944,1407.1406,296.7944,1411.1406,306.7944,1415.1406,302.7944,1411.1406" style="stroke:#181818;stroke-width:1;"/><line style="stroke:#181818;stroke-width:1;" x1="300.7944" x2="511.0332" y1="1411.1406" y2="1411.1406"/><text fill="#000000" font-family="sans-serif" font-size="13" lengthAdjust="spacing" textLength="141.6162" x="333.1057" y="1406.2842">Specialist resolves issue</text></g><line style="stroke:#000000;stroke-width:1;stroke-dasharray:2.0,2.0;" x1="228.3325" x2="569.7881" y1="1420.1406" y2="1420.1406"/><text fill="#000000" font-family="sans-serif" font-size="11" font-weight="bold" lengthAdjust="spacing" textLength="86.7808" x="233.3325" y="1431.5596">[Partial solution]</text><g class="message" data-participant-1="agent" data-participant-2="system"><polygon fill="#181818" points="306.7944,1453.3281,296.7944,1457.3281,306.7944,1461.3281,302.7944,1457.3281" style="stroke:#181818;stroke-width:1;"/><line style="stroke:#181818;stroke-width:1;" x1="300.7944" x2="511.0332" y1="1457.3281" y2="1457.3281"/><text fill="#000000" font-family="sans-serif" font-size="13" lengthAdjust="spacing" textLength="115.6162" x="346.1057" y="1452.4717">Provide workaround</text></g><g class="message" data-participant-1="agent" data-participant-2="system"><polygon fill="#181818" points="306.7944,1483.6797,296.7944,1487.6797,306.7944,1491.6797,302.7944,1487.6797" style="stroke:#181818;stroke-width:1;"/><line style="stroke:#181818;stroke-width:1;" x1="300.7944" x2="511.0332" y1="1487.6797" y2="1487.6797"/><text fill="#000000" font-family="sans-serif" font-size="13" lengthAdjust="spacing" textLength="109.8462" x="348.9907" y="1482.8232">Schedule follow-up</text></g><g class="message" data-participant-1="agent" data-participant-2="system"><polygon fill="#181818" points="306.7944,1521.0313,296.7944,1525.0313,306.7944,1529.0313,302.7944,1525.0313" style="stroke:#181818;stroke-width:1;"/><line style="stroke:#181818;stroke-width:1;" x1="300.7944" x2="511.0332" y1="1525.0313" y2="1525.0313"/><text fill="#000000" font-family="sans-serif" font-size="13" lengthAdjust="spacing" textLength="114.1689" x="346.8293" y="1520.1748">Update ticket status</text></g><g class="message" data-participant-1="system" data-participant-2="user"><polygon fill="#181818" points="58.7793,1551.3828,48.7793,1555.3828,58.7793,1559.3828,54.7793,1555.3828" style="stroke:#181818;stroke-width:1;"/><line style="stroke:#181818;stroke-width:1;stroke-dasharray:2.0,2.0;" x1="52.7793" x2="294.7944" y1="1555.3828" y2="1555.3828"/><text fill="#000000" font-family="sans-serif" font-size="13" lengthAdjust="spacing" textLength="156.1016" x="93.7361" y="1550.5264">Send resolution notification</text></g><g class="message" data-participant-1="user" data-participant-2="system"><polygon fill="#181818" points="283.7944,1581.7344,293.7944,1585.7344,283.7944,1589.7344,287.7944,1585.7344" style="stroke:#181818;stroke-width:1;"/><line style="stroke:#181818;stroke-width:1;" x1="47.7793" x2="289.7944" y1="1585.7344" y2="1585.7344"/><text fill="#000000" font-family="sans-serif" font-size="13" lengthAdjust="spacing" textLength="102.6035" x="120.4851" y="1580.8779">Review resolution</text></g><path d="M20,1600.7344 L80.1709,1600.7344 L80.1709,1609.0859 L70.1709,1619.0859 L20,1619.0859 L20,1600.7344" fill="#EEEEEE" style="stroke:#000000;stroke-width:1.5;"/><rect fill="none" height="216.2969" style="stroke:#000000;stroke-width:1.5;" width="549.7881" x="20" y="1600.7344"/><text fill="#000000" font-family="sans-serif" font-size="13" font-weight="bold" lengthAdjust="spacing" textLength="15.1709" x="35" y="1615.2295">alt</text><text fill="#000000" font-family="sans-serif" font-size="11" font-weight="bold" lengthAdjust="spacing" textLength="79.4707" x="95.1709" y="1614.1533">[User satisfied]</text><g class="message" data-participant-1="user" data-participant-2="system"><polygon fill="#181818" points="283.7944,1637.4375,293.7944,1641.4375,283.7944,1645.4375,287.7944,1641.4375" style="stroke:#181818;stroke-width:1;"/><line style="stroke:#181818;stroke-width:1;" x1="47.7793" x2="289.7944" y1="1641.4375" y2="1641.4375"/><text fill="#000000" font-family="sans-serif" font-size="13" lengthAdjust="spacing" textLength="190.7471" x="76.4133" y="1636.5811">Mark issue as resolved (optional)</text></g><g class="message" data-participant-1="system" data-participant-2="user"><polygon fill="#181818" points="58.7793,1667.7891,48.7793,1671.7891,58.7793,1675.7891,54.7793,1671.7891" style="stroke:#181818;stroke-width:1;"/><line style="stroke:#181818;stroke-width:1;stroke-dasharray:2.0,2.0;" x1="52.7793" x2="294.7944" y1="1671.7891" y2="1671.7891"/><text fill="#000000" font-family="sans-serif" font-size="13" lengthAdjust="spacing" textLength="67.1899" x="138.1919" y="1666.9326">Close ticket</text></g><g class="message" data-participant-1="system" data-participant-2="user"><polygon fill="#181818" points="58.7793,1698.1406,48.7793,1702.1406,58.7793,1706.1406,54.7793,1702.1406" style="stroke:#181818;stroke-width:1;"/><line style="stroke:#181818;stroke-width:1;stroke-dasharray:2.0,2.0;" x1="52.7793" x2="294.7944" y1="1702.1406" y2="1702.1406"/><text fill="#000000" font-family="sans-serif" font-size="13" lengthAdjust="spacing" textLength="140.9053" x="101.3342" y="1697.2842">Send satisfaction survey</text></g><line style="stroke:#000000;stroke-width:1;stroke-dasharray:2.0,2.0;" x1="20" x2="569.7881" y1="1711.1406" y2="1711.1406"/><text fill="#000000" font-family="sans-serif" font-size="11" font-weight="bold" lengthAdjust="spacing" textLength="99.6284" x="25" y="1722.5596">[User not satisfied]</text><g class="message" data-participant-1="user" data-participant-2="system"><polygon fill="#181818" points="283.7944,1744.3281,293.7944,1748.3281,283.7944,1752.3281,287.7944,1748.3281" style="stroke:#181818;stroke-width:1;"/><line style="stroke:#181818;stroke-width:1;" x1="47.7793" x2="289.7944" y1="1748.3281" y2="1748.3281"/><text fill="#000000" font-family="sans-serif" font-size="13" lengthAdjust="spacing" textLength="194.397" x="74.5884" y="1743.4717">Respond with additional concerns</text></g><g class="message" data-participant-1="system" data-participant-2="agent"><polygon fill="#181818" points="500.0332,1774.6797,510.0332,1778.6797,500.0332,1782.6797,504.0332,1778.6797" style="stroke:#181818;stroke-width:1;"/><line style="stroke:#181818;stroke-width:1;" x1="295.7944" x2="506.0332" y1="1778.6797" y2="1778.6797"/><text fill="#000000" font-family="sans-serif" font-size="13" lengthAdjust="spacing" textLength="138.0361" x="334.8958" y="1773.8232">Reopen or update ticket</text></g><g class="message" data-participant-1="agent" data-participant-2="system"><polygon fill="#181818" points="306.7944,1805.0313,296.7944,1809.0313,306.7944,1813.0313,302.7944,1809.0313" style="stroke:#181818;stroke-width:1;"/><line style="stroke:#181818;stroke-width:1;" x1="300.7944" x2="511.0332" y1="1809.0313" y2="1809.0313"/><text fill="#000000" font-family="sans-serif" font-size="13" lengthAdjust="spacing" textLength="163.3188" x="322.2544" y="1804.1748">Address additional concerns</text></g><!--SRC=[ZLRBRjiw4DthAmWlYdPXt7qM1HodGGlS5ccCTazJOvamHQepb5t_VOT3oLOYoKa01u9qvdtca7Imlj6eQqNmfmLlu3iGwGfMpbPU6V0HiA0HwabZjCOssiVxW2NWEhY0wjvfStW3peWAG-lBRFA_hVPnVTQ-AAAD3jJYKJiAJ_fyfzR1HssYMhSKGmseDctJ18nggJPdYb2hJHT0FLXTSSH5KR01krty8i25qgHQVYYsAQ36yzLxvq4W98-zPHzaLN7rybsdfw98djJoSmU_Kp_qqLOwWef1BRw2QzI7FiD5aK5goVXaTySPKkCuBdNkGnDjyCG9kyXrkDsIOKVBjUmiKbIwQJ1eioyK_usyRVRXf1vNFvNs9RUPhVSf0GGABHeWiNgTy3s64q4ooz_bNmh_ZQW5CNP7ADNsd33oTShDbxysNieWCAaE0ODZxzcN3_7YRzOHLytMQj7FkU_yWqL-xywBxDMNHVgztLBJ-Ta5hCVZwg9PoS_mtAg0vzke1cr06yUe9mn7Mq87Au4CMfdd2BcAdD9UCG30qpv4-W-IQIBjnym1xJwDqsYtzQ3Bc7XESQ87lxMpPI8X9GkYb8DGwfiteMuSlFmqIQQll8CkxQ4IcA-KzQc7EiwQN5lVkrQ0672IT-i-aOjxVar2NUQ8L5e8TzRlpNYDa6lExM5nEK2SXgxO3KjPXYZVrbl0cPeuCjRM3-O-lNlCniGrtjFS8dMoSV-k25tNU9IMJK7gRrW5M4Di3TUbx2q_P-svKy-XJKAJGx3UY3fmcgaBJ8qssmfusFbdC62F8AqE3VXXfoR0Hmkd2wUZjkwLJlm0JhaE22E2p3WKrYfTbZOJVT9kki6i87PdJMvmn__4dKluMLdfYnvwc0Ntc_pE72y3UGnuqbZUiakYTMtVk3a46baQfD_Jc2S4FaZXmf9NgbtNK0e3H6bRwLGJcEzR1xUc8h8yY3i9UmYchTExtlLLujDSMQA9UMoqUuC4Np96Jabgm5WMBEP415rFCQ1hRx-rGvlv69kht-xGeK5vahDSGNX8BwgPQNfcn2dWGSjDvKPWiuUovLlBBZWNJiksUSVaVpKYsDqoKzInfHjACnZkYD75DFzbZwzsBscJRaQAs0Vjx8t3-Rl6GwS5V0Mwt0q6PzRi_gvT81XApNnnEGyjTmYMSpp2-JepoJJT9DxEzbasfCnAFDX9bca3w6b-aPz1X95lVkrmBlCpNvKbTuDce_JtbNy0]--></g></svg>