<svg xmlns="http://www.w3.org/2000/svg" xmlns:xlink="http://www.w3.org/1999/xlink" contentStyleType="text/css" data-diagram-type="SEQUENCE" height="1801px" preserveAspectRatio="none" style="width:727px;height:1801px;background:#FFFFFF;" version="1.1" viewBox="0 0 727 1801" width="727px" zoomAndPan="magnify"><title>FalsoPay: Dispute Transaction - System Sequence Diagram</title><defs/><g><text fill="#000000" font-family="sans-serif" font-size="14" font-weight="bold" lengthAdjust="spacing" textLength="396.792" x="166.2749" y="29.5332">FalsoPay: Dispute Transaction - System Sequence Diagram</text><rect fill="none" height="1260.8906" style="stroke:#000000;stroke-width:1.5;" width="710.3418" x="10" y="441.7344"/><rect fill="none" height="939.5391" style="stroke:#000000;stroke-width:1.5;" width="690.3418" x="20" y="756.0859"/><rect fill="none" height="139.7578" style="stroke:#000000;stroke-width:1.5;" width="562.7627" x="50" y="1009.7344"/><rect fill="none" height="494.7813" style="stroke:#000000;stroke-width:1.5;" width="670.3418" x="30" y="1193.8438"/><rect fill="none" height="264.4844" style="stroke:#000000;stroke-width:1.5;" width="376.9736" x="40" y="1417.1406"/><rect fill="none" height="155.5938" style="stroke:#000000;stroke-width:1.5;" width="356.9736" x="50" y="1472.8438"/><g><title>User</title><rect fill="#000000" fill-opacity="0.00000" height="1598.4063" width="8" x="73.7793" y="121.2188"/><line style="stroke:#181818;stroke-width:0.5;stroke-dasharray:5.0,5.0;" x1="77" x2="77" y1="121.2188" y2="1719.625"/></g><g><title>FalsoPay System</title><rect fill="#000000" fill-opacity="0.00000" height="1598.4063" width="8" x="335.5117" y="121.2188"/><line style="stroke:#181818;stroke-width:0.5;stroke-dasharray:5.0,5.0;" x1="339.0498" x2="339.0498" y1="121.2188" y2="1719.625"/></g><g><title>Support Agent</title><rect fill="#000000" fill-opacity="0.00000" height="1598.4063" width="8" x="551.0078" y="121.2188"/><line style="stroke:#181818;stroke-width:0.5;stroke-dasharray:5.0,5.0;" x1="554.2529" x2="554.2529" y1="121.2188" y2="1719.625"/></g><g><title>Other Party</title><rect fill="#000000" fill-opacity="0.00000" height="1598.4063" width="8" x="647.5522" y="121.2188"/><line style="stroke:#181818;stroke-width:0.5;stroke-dasharray:5.0,5.0;" x1="650.7627" x2="650.7627" y1="121.2188" y2="1719.625"/></g><g class="participant participant-head" data-participant="user"><text fill="#000000" font-family="sans-serif" font-size="14" lengthAdjust="spacing" textLength="29.5586" x="60" y="118.1426">User</text><ellipse cx="77.7793" cy="52.1094" fill="#E2E2F0" rx="8" ry="8" style="stroke:#181818;stroke-width:0.5;"/><path d="M77.7793,60.1094 L77.7793,87.1094 M64.7793,68.1094 L90.7793,68.1094 M77.7793,87.1094 L64.7793,102.1094 M77.7793,87.1094 L90.7793,102.1094" fill="none" style="stroke:#181818;stroke-width:0.5;"/></g><g class="participant participant-tail" data-participant="user"><text fill="#000000" font-family="sans-serif" font-size="14" lengthAdjust="spacing" textLength="29.5586" x="60" y="1733.1582">User</text><ellipse cx="77.7793" cy="1744.7344" fill="#E2E2F0" rx="8" ry="8" style="stroke:#181818;stroke-width:0.5;"/><path d="M77.7793,1752.7344 L77.7793,1779.7344 M64.7793,1760.7344 L90.7793,1760.7344 M77.7793,1779.7344 L64.7793,1794.7344 M77.7793,1779.7344 L90.7793,1794.7344" fill="none" style="stroke:#181818;stroke-width:0.5;"/></g><g class="participant participant-head" data-participant="system"><text fill="#000000" font-family="sans-serif" font-size="14" lengthAdjust="spacing" textLength="108.9238" x="282.0498" y="118.1426">FalsoPay System</text><path d="M319.0117,75.6094 L319.0117,99.6094 M319.0117,87.6094 L336.0117,87.6094" fill="none" style="stroke:#181818;stroke-width:0.5;"/><ellipse cx="348.0117" cy="87.6094" fill="#E2E2F0" rx="12" ry="12" style="stroke:#181818;stroke-width:0.5;"/></g><g class="participant participant-tail" data-participant="system"><text fill="#000000" font-family="sans-serif" font-size="14" lengthAdjust="spacing" textLength="108.9238" x="282.0498" y="1733.1582">FalsoPay System</text><path d="M319.0117,1740.2344 L319.0117,1764.2344 M319.0117,1752.2344 L336.0117,1752.2344" fill="none" style="stroke:#181818;stroke-width:0.5;"/><ellipse cx="348.0117" cy="1752.2344" fill="#E2E2F0" rx="12" ry="12" style="stroke:#181818;stroke-width:0.5;"/></g><g class="participant participant-head" data-participant="agent"><text fill="#000000" font-family="sans-serif" font-size="14" lengthAdjust="spacing" textLength="89.5098" x="507.2529" y="118.1426">Support Agent</text><ellipse cx="555.0078" cy="52.1094" fill="#E2E2F0" rx="8" ry="8" style="stroke:#181818;stroke-width:0.5;"/><path d="M555.0078,60.1094 L555.0078,87.1094 M542.0078,68.1094 L568.0078,68.1094 M555.0078,87.1094 L542.0078,102.1094 M555.0078,87.1094 L568.0078,102.1094" fill="none" style="stroke:#181818;stroke-width:0.5;"/></g><g class="participant participant-tail" data-participant="agent"><text fill="#000000" font-family="sans-serif" font-size="14" lengthAdjust="spacing" textLength="89.5098" x="507.2529" y="1733.1582">Support Agent</text><ellipse cx="555.0078" cy="1744.7344" fill="#E2E2F0" rx="8" ry="8" style="stroke:#181818;stroke-width:0.5;"/><path d="M555.0078,1752.7344 L555.0078,1779.7344 M542.0078,1760.7344 L568.0078,1760.7344 M555.0078,1779.7344 L542.0078,1794.7344 M555.0078,1779.7344 L568.0078,1794.7344" fill="none" style="stroke:#181818;stroke-width:0.5;"/></g><g class="participant participant-head" data-participant="otherParty"><text fill="#000000" font-family="sans-serif" font-size="14" lengthAdjust="spacing" textLength="71.5791" x="612.7627" y="118.1426">Other Party</text><ellipse cx="651.5522" cy="52.1094" fill="#E2E2F0" rx="8" ry="8" style="stroke:#181818;stroke-width:0.5;"/><path d="M651.5522,60.1094 L651.5522,87.1094 M638.5522,68.1094 L664.5522,68.1094 M651.5522,87.1094 L638.5522,102.1094 M651.5522,87.1094 L664.5522,102.1094" fill="none" style="stroke:#181818;stroke-width:0.5;"/></g><g class="participant participant-tail" data-participant="otherParty"><text fill="#000000" font-family="sans-serif" font-size="14" lengthAdjust="spacing" textLength="71.5791" x="612.7627" y="1733.1582">Other Party</text><ellipse cx="651.5522" cy="1744.7344" fill="#E2E2F0" rx="8" ry="8" style="stroke:#181818;stroke-width:0.5;"/><path d="M651.5522,1752.7344 L651.5522,1779.7344 M638.5522,1760.7344 L664.5522,1760.7344 M651.5522,1779.7344 L638.5522,1794.7344 M651.5522,1779.7344 L664.5522,1794.7344" fill="none" style="stroke:#181818;stroke-width:0.5;"/></g><g class="message" data-participant-1="user" data-participant-2="system"><polygon fill="#181818" points="327.5117,149.5703,337.5117,153.5703,327.5117,157.5703,331.5117,153.5703" style="stroke:#181818;stroke-width:1;"/><line style="stroke:#181818;stroke-width:1;" x1="77.7793" x2="333.5117" y1="153.5703" y2="153.5703"/><text fill="#000000" font-family="sans-serif" font-size="13" lengthAdjust="spacing" textLength="174.8652" x="121.2129" y="148.7139">Navigate to transaction history</text></g><g class="message" data-participant-1="system" data-participant-2="user"><polygon fill="#181818" points="88.7793,179.9219,78.7793,183.9219,88.7793,187.9219,84.7793,183.9219" style="stroke:#181818;stroke-width:1;"/><line style="stroke:#181818;stroke-width:1;stroke-dasharray:2.0,2.0;" x1="82.7793" x2="338.5117" y1="183.9219" y2="183.9219"/><text fill="#000000" font-family="sans-serif" font-size="13" lengthAdjust="spacing" textLength="129.3271" x="143.9819" y="179.0654">Display transaction list</text></g><g class="message" data-participant-1="user" data-participant-2="system"><polygon fill="#181818" points="327.5117,210.2734,337.5117,214.2734,327.5117,218.2734,331.5117,214.2734" style="stroke:#181818;stroke-width:1;"/><line style="stroke:#181818;stroke-width:1;" x1="77.7793" x2="333.5117" y1="214.2734" y2="214.2734"/><text fill="#000000" font-family="sans-serif" font-size="13" lengthAdjust="spacing" textLength="156.0952" x="130.5979" y="209.417">Select disputed transaction</text></g><g class="message" data-participant-1="user" data-participant-2="system"><polygon fill="#181818" points="327.5117,240.625,337.5117,244.625,327.5117,248.625,331.5117,244.625" style="stroke:#181818;stroke-width:1;"/><line style="stroke:#181818;stroke-width:1;" x1="77.7793" x2="333.5117" y1="244.625" y2="244.625"/><text fill="#000000" font-family="sans-serif" font-size="13" lengthAdjust="spacing" textLength="159.5293" x="128.8809" y="239.7686">Choose "Report a Problem"</text></g><g class="message" data-participant-1="system" data-participant-2="user"><polygon fill="#181818" points="88.7793,270.9766,78.7793,274.9766,88.7793,278.9766,84.7793,274.9766" style="stroke:#181818;stroke-width:1;"/><line style="stroke:#181818;stroke-width:1;stroke-dasharray:2.0,2.0;" x1="82.7793" x2="338.5117" y1="274.9766" y2="274.9766"/><text fill="#000000" font-family="sans-serif" font-size="13" lengthAdjust="spacing" textLength="156.7935" x="130.2488" y="270.1201">Display problem categories</text></g><g class="message" data-participant-1="user" data-participant-2="system"><polygon fill="#181818" points="327.5117,301.3281,337.5117,305.3281,327.5117,309.3281,331.5117,305.3281" style="stroke:#181818;stroke-width:1;"/><line style="stroke:#181818;stroke-width:1;" x1="77.7793" x2="333.5117" y1="305.3281" y2="305.3281"/><text fill="#000000" font-family="sans-serif" font-size="13" lengthAdjust="spacing" textLength="123.5635" x="146.8638" y="300.4717">Select issue category</text></g><g class="message" data-participant-1="user" data-participant-2="system"><polygon fill="#181818" points="327.5117,331.6797,337.5117,335.6797,327.5117,339.6797,331.5117,335.6797" style="stroke:#181818;stroke-width:1;"/><line style="stroke:#181818;stroke-width:1;" x1="77.7793" x2="333.5117" y1="335.6797" y2="335.6797"/><text fill="#000000" font-family="sans-serif" font-size="13" lengthAdjust="spacing" textLength="119.228" x="149.0315" y="330.8232">Provide issue details</text></g><g class="message" data-participant-1="user" data-participant-2="system"><polygon fill="#181818" points="327.5117,362.0313,337.5117,366.0313,327.5117,370.0313,331.5117,366.0313" style="stroke:#181818;stroke-width:1;"/><line style="stroke:#181818;stroke-width:1;" x1="77.7793" x2="333.5117" y1="366.0313" y2="366.0313"/><text fill="#000000" font-family="sans-serif" font-size="13" lengthAdjust="spacing" textLength="218.9751" x="99.158" y="361.1748">Upload supporting evidence (optional)</text></g><g class="message" data-participant-1="user" data-participant-2="system"><polygon fill="#181818" points="327.5117,392.3828,337.5117,396.3828,327.5117,400.3828,331.5117,396.3828" style="stroke:#181818;stroke-width:1;"/><line style="stroke:#181818;stroke-width:1;" x1="77.7793" x2="333.5117" y1="396.3828" y2="396.3828"/><text fill="#000000" font-family="sans-serif" font-size="13" lengthAdjust="spacing" textLength="85.9917" x="165.6497" y="391.5264">Submit dispute</text></g><g class="message" data-participant-1="system" data-participant-2="user"><polygon fill="#181818" points="88.7793,422.7344,78.7793,426.7344,88.7793,430.7344,84.7793,426.7344" style="stroke:#181818;stroke-width:1;"/><line style="stroke:#181818;stroke-width:1;stroke-dasharray:2.0,2.0;" x1="82.7793" x2="338.5117" y1="426.7344" y2="426.7344"/><text fill="#000000" font-family="sans-serif" font-size="13" lengthAdjust="spacing" textLength="115.6162" x="150.8374" y="421.8779">Validate submission</text></g><path d="M10,441.7344 L70.1709,441.7344 L70.1709,450.0859 L60.1709,460.0859 L10,460.0859 L10,441.7344" fill="#EEEEEE" style="stroke:#000000;stroke-width:1.5;"/><rect fill="none" height="1260.8906" style="stroke:#000000;stroke-width:1.5;" width="710.3418" x="10" y="441.7344"/><text fill="#000000" font-family="sans-serif" font-size="13" font-weight="bold" lengthAdjust="spacing" textLength="15.1709" x="25" y="456.2295">alt</text><text fill="#000000" font-family="sans-serif" font-size="11" font-weight="bold" lengthAdjust="spacing" textLength="129.5723" x="85.1709" y="455.1533">[Incomplete submission]</text><g class="message" data-participant-1="system" data-participant-2="user"><polygon fill="#181818" points="88.7793,478.4375,78.7793,482.4375,88.7793,486.4375,84.7793,482.4375" style="stroke:#181818;stroke-width:1;"/><line style="stroke:#181818;stroke-width:1;stroke-dasharray:2.0,2.0;" x1="82.7793" x2="338.5117" y1="482.4375" y2="482.4375"/><text fill="#000000" font-family="sans-serif" font-size="13" lengthAdjust="spacing" textLength="166.1816" x="125.5547" y="477.5811">Highlight missing information</text></g><g class="message" data-participant-1="system" data-participant-2="user"><polygon fill="#181818" points="88.7793,508.7891,78.7793,512.7891,88.7793,516.7891,84.7793,512.7891" style="stroke:#181818;stroke-width:1;"/><line style="stroke:#181818;stroke-width:1;stroke-dasharray:2.0,2.0;" x1="82.7793" x2="338.5117" y1="512.7891" y2="512.7891"/><text fill="#000000" font-family="sans-serif" font-size="13" lengthAdjust="spacing" textLength="142.3208" x="137.4851" y="507.9326">Display submission error</text></g><g class="message" data-participant-1="user" data-participant-2="system"><polygon fill="#181818" points="327.5117,539.1406,337.5117,543.1406,327.5117,547.1406,331.5117,543.1406" style="stroke:#181818;stroke-width:1;"/><line style="stroke:#181818;stroke-width:1;" x1="77.7793" x2="333.5117" y1="543.1406" y2="543.1406"/><text fill="#000000" font-family="sans-serif" font-size="13" lengthAdjust="spacing" textLength="216.7471" x="100.272" y="538.2842">Complete missing items and resubmit</text></g><line style="stroke:#000000;stroke-width:1;stroke-dasharray:2.0,2.0;" x1="10" x2="720.3418" y1="552.1406" y2="552.1406"/><text fill="#000000" font-family="sans-serif" font-size="11" font-weight="bold" lengthAdjust="spacing" textLength="121.623" x="15" y="563.5596">[Complete submission]</text><g class="message" data-participant-1="system" data-participant-2="user"><polygon fill="#181818" points="88.7793,585.3281,78.7793,589.3281,88.7793,593.3281,84.7793,589.3281" style="stroke:#181818;stroke-width:1;"/><line style="stroke:#181818;stroke-width:1;stroke-dasharray:2.0,2.0;" x1="82.7793" x2="338.5117" y1="589.3281" y2="589.3281"/><text fill="#000000" font-family="sans-serif" font-size="13" lengthAdjust="spacing" textLength="115.6226" x="150.8342" y="584.4717">Create dispute case</text></g><g class="message" data-participant-1="system" data-participant-2="user"><polygon fill="#181818" points="88.7793,615.6797,78.7793,619.6797,88.7793,623.6797,84.7793,619.6797" style="stroke:#181818;stroke-width:1;"/><line style="stroke:#181818;stroke-width:1;stroke-dasharray:2.0,2.0;" x1="82.7793" x2="338.5117" y1="619.6797" y2="619.6797"/><text fill="#000000" font-family="sans-serif" font-size="13" lengthAdjust="spacing" textLength="117.7808" x="149.7551" y="614.8232">Assign case number</text></g><g class="message" data-participant-1="system" data-participant-2="user"><polygon fill="#181818" points="88.7793,646.0313,78.7793,650.0313,88.7793,654.0313,84.7793,650.0313" style="stroke:#181818;stroke-width:1;"/><line style="stroke:#181818;stroke-width:1;stroke-dasharray:2.0,2.0;" x1="82.7793" x2="338.5117" y1="650.0313" y2="650.0313"/><text fill="#000000" font-family="sans-serif" font-size="13" lengthAdjust="spacing" textLength="148.1162" x="134.5874" y="645.1748">Determine dispute priority</text></g><g class="message" data-participant-1="system" data-participant-2="user"><polygon fill="#181818" points="88.7793,676.3828,78.7793,680.3828,88.7793,684.3828,84.7793,680.3828" style="stroke:#181818;stroke-width:1;"/><line style="stroke:#181818;stroke-width:1;stroke-dasharray:2.0,2.0;" x1="82.7793" x2="338.5117" y1="680.3828" y2="680.3828"/><text fill="#000000" font-family="sans-serif" font-size="13" lengthAdjust="spacing" textLength="237.7324" x="89.7793" y="675.5264">Send confirmation with reference number</text></g><g class="message" data-participant-1="system" data-participant-2="user"><polygon fill="#181818" points="88.7793,706.7344,78.7793,710.7344,88.7793,714.7344,84.7793,710.7344" style="stroke:#181818;stroke-width:1;"/><line style="stroke:#181818;stroke-width:1;stroke-dasharray:2.0,2.0;" x1="82.7793" x2="338.5117" y1="710.7344" y2="710.7344"/><text fill="#000000" font-family="sans-serif" font-size="13" lengthAdjust="spacing" textLength="210.9834" x="103.1538" y="705.8779">Display estimated resolution timeline</text></g><g class="message" data-participant-1="system" data-participant-2="otherParty"><polygon fill="#181818" points="639.5522,737.0859,649.5522,741.0859,639.5522,745.0859,643.5522,741.0859" style="stroke:#181818;stroke-width:1;"/><line style="stroke:#181818;stroke-width:1;" x1="339.5117" x2="645.5522" y1="741.0859" y2="741.0859"/><text fill="#000000" font-family="sans-serif" font-size="13" lengthAdjust="spacing" textLength="114.9053" x="438.0793" y="736.2295">Notify about dispute</text></g><path d="M20,756.0859 L80.1709,756.0859 L80.1709,764.4375 L70.1709,774.4375 L20,774.4375 L20,756.0859" fill="#EEEEEE" style="stroke:#000000;stroke-width:1.5;"/><rect fill="none" height="939.5391" style="stroke:#000000;stroke-width:1.5;" width="690.3418" x="20" y="756.0859"/><text fill="#000000" font-family="sans-serif" font-size="13" font-weight="bold" lengthAdjust="spacing" textLength="15.1709" x="35" y="770.5811">alt</text><text fill="#000000" font-family="sans-serif" font-size="11" font-weight="bold" lengthAdjust="spacing" textLength="152.813" x="95.1709" y="769.5049">[Other party accepts dispute]</text><g class="message" data-participant-1="otherParty" data-participant-2="system"><polygon fill="#181818" points="350.5117,792.7891,340.5117,796.7891,350.5117,800.7891,346.5117,796.7891" style="stroke:#181818;stroke-width:1;"/><line style="stroke:#181818;stroke-width:1;" x1="344.5117" x2="650.5522" y1="796.7891" y2="796.7891"/><text fill="#000000" font-family="sans-serif" font-size="13" lengthAdjust="spacing" textLength="119.2217" x="435.9211" y="791.9326">Accept dispute claim</text></g><g class="message" data-participant-1="system" data-participant-2="user"><polygon fill="#181818" points="88.7793,823.1406,78.7793,827.1406,88.7793,831.1406,84.7793,827.1406" style="stroke:#181818;stroke-width:1;"/><line style="stroke:#181818;stroke-width:1;stroke-dasharray:2.0,2.0;" x1="82.7793" x2="338.5117" y1="827.1406" y2="827.1406"/><text fill="#000000" font-family="sans-serif" font-size="13" lengthAdjust="spacing" textLength="147.4053" x="134.9429" y="822.2842">Process automatic refund</text></g><g class="message" data-participant-1="system" data-participant-2="user"><polygon fill="#181818" points="88.7793,853.4922,78.7793,857.4922,88.7793,861.4922,84.7793,857.4922" style="stroke:#181818;stroke-width:1;"/><line style="stroke:#181818;stroke-width:1;stroke-dasharray:2.0,2.0;" x1="82.7793" x2="338.5117" y1="857.4922" y2="857.4922"/><text fill="#000000" font-family="sans-serif" font-size="13" lengthAdjust="spacing" textLength="147.418" x="134.9365" y="852.6357">Update transaction status</text></g><g class="message" data-participant-1="system" data-participant-2="user"><polygon fill="#181818" points="88.7793,883.8438,78.7793,887.8438,88.7793,891.8438,84.7793,887.8438" style="stroke:#181818;stroke-width:1;"/><line style="stroke:#181818;stroke-width:1;stroke-dasharray:2.0,2.0;" x1="82.7793" x2="338.5117" y1="887.8438" y2="887.8438"/><text fill="#000000" font-family="sans-serif" font-size="13" lengthAdjust="spacing" textLength="156.1016" x="130.5947" y="882.9873">Send resolution notification</text></g><g class="message" data-participant-1="system" data-participant-2="otherParty"><polygon fill="#181818" points="639.5522,914.1953,649.5522,918.1953,639.5522,922.1953,643.5522,918.1953" style="stroke:#181818;stroke-width:1;"/><line style="stroke:#181818;stroke-width:1;stroke-dasharray:2.0,2.0;" x1="339.5117" x2="645.5522" y1="918.1953" y2="918.1953"/><text fill="#000000" font-family="sans-serif" font-size="13" lengthAdjust="spacing" textLength="156.1016" x="417.4812" y="913.3389">Send resolution notification</text></g><line style="stroke:#000000;stroke-width:1;stroke-dasharray:2.0,2.0;" x1="20" x2="710.3418" y1="927.1953" y2="927.1953"/><text fill="#000000" font-family="sans-serif" font-size="11" font-weight="bold" lengthAdjust="spacing" textLength="157.0776" x="25" y="938.6143">[Other party contests dispute]</text><g class="message" data-participant-1="otherParty" data-participant-2="system"><polygon fill="#181818" points="350.5117,960.3828,340.5117,964.3828,350.5117,968.3828,346.5117,964.3828" style="stroke:#181818;stroke-width:1;"/><line style="stroke:#181818;stroke-width:1;" x1="344.5117" x2="650.5522" y1="964.3828" y2="964.3828"/><text fill="#000000" font-family="sans-serif" font-size="13" lengthAdjust="spacing" textLength="124.2808" x="433.3916" y="959.5264">Contest dispute claim</text></g><g class="message" data-participant-1="system" data-participant-2="agent"><polygon fill="#181818" points="543.0078,990.7344,553.0078,994.7344,543.0078,998.7344,547.0078,994.7344" style="stroke:#181818;stroke-width:1;"/><line style="stroke:#181818;stroke-width:1;" x1="339.5117" x2="549.0078" y1="994.7344" y2="994.7344"/><text fill="#000000" font-family="sans-serif" font-size="13" lengthAdjust="spacing" textLength="191.4961" x="351.5117" y="989.8779">Assign to dispute resolution team</text></g><path d="M50,1009.7344 L115.2109,1009.7344 L115.2109,1018.0859 L105.2109,1028.0859 L50,1028.0859 L50,1009.7344" fill="#EEEEEE" style="stroke:#000000;stroke-width:1.5;"/><rect fill="none" height="139.7578" style="stroke:#000000;stroke-width:1.5;" width="562.7627" x="50" y="1009.7344"/><text fill="#000000" font-family="sans-serif" font-size="13" font-weight="bold" lengthAdjust="spacing" textLength="20.2109" x="65" y="1024.2295">opt</text><text fill="#000000" font-family="sans-serif" font-size="11" font-weight="bold" lengthAdjust="spacing" textLength="166.2139" x="130.2109" y="1023.1533">[Additional information needed]</text><g class="message" data-participant-1="agent" data-participant-2="system"><polygon fill="#181818" points="350.5117,1046.4375,340.5117,1050.4375,350.5117,1054.4375,346.5117,1050.4375" style="stroke:#181818;stroke-width:1;"/><line style="stroke:#181818;stroke-width:1;" x1="344.5117" x2="554.0078" y1="1050.4375" y2="1050.4375"/><text fill="#000000" font-family="sans-serif" font-size="13" lengthAdjust="spacing" textLength="149.5698" x="372.4749" y="1045.5811">Request more information</text></g><g class="message" data-participant-1="system" data-participant-2="user"><polygon fill="#181818" points="88.7793,1076.7891,78.7793,1080.7891,88.7793,1084.7891,84.7793,1080.7891" style="stroke:#181818;stroke-width:1;"/><line style="stroke:#181818;stroke-width:1;stroke-dasharray:2.0,2.0;" x1="82.7793" x2="338.5117" y1="1080.7891" y2="1080.7891"/><text fill="#000000" font-family="sans-serif" font-size="13" lengthAdjust="spacing" textLength="194.3906" x="111.4502" y="1075.9326">Request for additional information</text></g><g class="message" data-participant-1="user" data-participant-2="system"><polygon fill="#181818" points="327.5117,1107.1406,337.5117,1111.1406,327.5117,1115.1406,331.5117,1111.1406" style="stroke:#181818;stroke-width:1;"/><line style="stroke:#181818;stroke-width:1;" x1="77.7793" x2="333.5117" y1="1111.1406" y2="1111.1406"/><text fill="#000000" font-family="sans-serif" font-size="13" lengthAdjust="spacing" textLength="144.5361" x="136.3774" y="1106.2842">Provide additional details</text></g><g class="message" data-participant-1="system" data-participant-2="agent"><polygon fill="#181818" points="543.0078,1137.4922,553.0078,1141.4922,543.0078,1145.4922,547.0078,1141.4922" style="stroke:#181818;stroke-width:1;"/><line style="stroke:#181818;stroke-width:1;" x1="339.5117" x2="549.0078" y1="1141.4922" y2="1141.4922"/><text fill="#000000" font-family="sans-serif" font-size="13" lengthAdjust="spacing" textLength="174.8652" x="359.8271" y="1136.6357">Forward additional information</text></g><g class="message" data-participant-1="agent" data-participant-2="system"><polygon fill="#181818" points="350.5117,1174.8438,340.5117,1178.8438,350.5117,1182.8438,346.5117,1178.8438" style="stroke:#181818;stroke-width:1;"/><line style="stroke:#181818;stroke-width:1;" x1="344.5117" x2="554.0078" y1="1178.8438" y2="1178.8438"/><text fill="#000000" font-family="sans-serif" font-size="13" lengthAdjust="spacing" textLength="185.707" x="354.4063" y="1173.9873">Review case and make decision</text></g><path d="M30,1193.8438 L90.1709,1193.8438 L90.1709,1202.1953 L80.1709,1212.1953 L30,1212.1953 L30,1193.8438" fill="#EEEEEE" style="stroke:#000000;stroke-width:1.5;"/><rect fill="none" height="494.7813" style="stroke:#000000;stroke-width:1.5;" width="670.3418" x="30" y="1193.8438"/><text fill="#000000" font-family="sans-serif" font-size="13" font-weight="bold" lengthAdjust="spacing" textLength="15.1709" x="45" y="1208.3389">alt</text><text fill="#000000" font-family="sans-serif" font-size="11" font-weight="bold" lengthAdjust="spacing" textLength="115.5376" x="105.1709" y="1207.2627">[Decision favors user]</text><g class="message" data-participant-1="system" data-participant-2="user"><polygon fill="#181818" points="88.7793,1230.5469,78.7793,1234.5469,88.7793,1238.5469,84.7793,1234.5469" style="stroke:#181818;stroke-width:1;"/><line style="stroke:#181818;stroke-width:1;stroke-dasharray:2.0,2.0;" x1="82.7793" x2="338.5117" y1="1234.5469" y2="1234.5469"/><text fill="#000000" font-family="sans-serif" font-size="13" lengthAdjust="spacing" textLength="87.4326" x="164.9292" y="1229.6904">Process refund</text></g><g class="message" data-participant-1="system" data-participant-2="user"><polygon fill="#181818" points="88.7793,1260.8984,78.7793,1264.8984,88.7793,1268.8984,84.7793,1264.8984" style="stroke:#181818;stroke-width:1;"/><line style="stroke:#181818;stroke-width:1;stroke-dasharray:2.0,2.0;" x1="82.7793" x2="338.5117" y1="1264.8984" y2="1264.8984"/><text fill="#000000" font-family="sans-serif" font-size="13" lengthAdjust="spacing" textLength="147.418" x="134.9365" y="1260.042">Update transaction status</text></g><g class="message" data-participant-1="system" data-participant-2="user"><polygon fill="#181818" points="88.7793,1291.25,78.7793,1295.25,88.7793,1299.25,84.7793,1295.25" style="stroke:#181818;stroke-width:1;"/><line style="stroke:#181818;stroke-width:1;stroke-dasharray:2.0,2.0;" x1="82.7793" x2="338.5117" y1="1295.25" y2="1295.25"/><text fill="#000000" font-family="sans-serif" font-size="13" lengthAdjust="spacing" textLength="213.1924" x="102.0493" y="1290.3936">Send favorable resolution notification</text></g><g class="message" data-participant-1="system" data-participant-2="otherParty"><polygon fill="#181818" points="639.5522,1321.6016,649.5522,1325.6016,639.5522,1329.6016,643.5522,1325.6016" style="stroke:#181818;stroke-width:1;"/><line style="stroke:#181818;stroke-width:1;stroke-dasharray:2.0,2.0;" x1="339.5117" x2="645.5522" y1="1325.6016" y2="1325.6016"/><text fill="#000000" font-family="sans-serif" font-size="13" lengthAdjust="spacing" textLength="166.2324" x="412.4158" y="1320.7451">Send explanation notification</text></g><line style="stroke:#000000;stroke-width:1;stroke-dasharray:2.0,2.0;" x1="30" x2="700.3418" y1="1334.6016" y2="1334.6016"/><text fill="#000000" font-family="sans-serif" font-size="11" font-weight="bold" lengthAdjust="spacing" textLength="121.0322" x="35" y="1346.0205">[Decision against user]</text><g class="message" data-participant-1="system" data-participant-2="user"><polygon fill="#181818" points="88.7793,1367.7891,78.7793,1371.7891,88.7793,1375.7891,84.7793,1371.7891" style="stroke:#181818;stroke-width:1;"/><line style="stroke:#181818;stroke-width:1;stroke-dasharray:2.0,2.0;" x1="82.7793" x2="338.5117" y1="1371.7891" y2="1371.7891"/><text fill="#000000" font-family="sans-serif" font-size="13" lengthAdjust="spacing" textLength="161.8652" x="127.7129" y="1366.9326">Maintain original transaction</text></g><g class="message" data-participant-1="system" data-participant-2="user"><polygon fill="#181818" points="88.7793,1398.1406,78.7793,1402.1406,88.7793,1406.1406,84.7793,1402.1406" style="stroke:#181818;stroke-width:1;"/><line style="stroke:#181818;stroke-width:1;stroke-dasharray:2.0,2.0;" x1="82.7793" x2="338.5117" y1="1402.1406" y2="1402.1406"/><text fill="#000000" font-family="sans-serif" font-size="13" lengthAdjust="spacing" textLength="166.2324" x="125.5293" y="1397.2842">Send explanation notification</text></g><path d="M40,1417.1406 L105.2109,1417.1406 L105.2109,1425.4922 L95.2109,1435.4922 L40,1435.4922 L40,1417.1406" fill="#EEEEEE" style="stroke:#000000;stroke-width:1.5;"/><rect fill="none" height="264.4844" style="stroke:#000000;stroke-width:1.5;" width="376.9736" x="40" y="1417.1406"/><text fill="#000000" font-family="sans-serif" font-size="13" font-weight="bold" lengthAdjust="spacing" textLength="20.2109" x="55" y="1431.6357">opt</text><text fill="#000000" font-family="sans-serif" font-size="11" font-weight="bold" lengthAdjust="spacing" textLength="93.5322" x="120.2109" y="1430.5596">[Appeal available]</text><g class="message" data-participant-1="system" data-participant-2="user"><polygon fill="#181818" points="88.7793,1453.8438,78.7793,1457.8438,88.7793,1461.8438,84.7793,1457.8438" style="stroke:#181818;stroke-width:1;"/><line style="stroke:#181818;stroke-width:1;stroke-dasharray:2.0,2.0;" x1="82.7793" x2="338.5117" y1="1457.8438" y2="1457.8438"/><text fill="#000000" font-family="sans-serif" font-size="13" lengthAdjust="spacing" textLength="143.0762" x="137.1074" y="1452.9873">Inform of appeal process</text></g><path d="M50,1472.8438 L110.1709,1472.8438 L110.1709,1481.1953 L100.1709,1491.1953 L50,1491.1953 L50,1472.8438" fill="#EEEEEE" style="stroke:#000000;stroke-width:1.5;"/><rect fill="none" height="155.5938" style="stroke:#000000;stroke-width:1.5;" width="356.9736" x="50" y="1472.8438"/><text fill="#000000" font-family="sans-serif" font-size="13" font-weight="bold" lengthAdjust="spacing" textLength="15.1709" x="65" y="1487.3389">alt</text><text fill="#000000" font-family="sans-serif" font-size="11" font-weight="bold" lengthAdjust="spacing" textLength="75.8076" x="125.1709" y="1486.2627">[User appeals]</text><g class="message" data-participant-1="user" data-participant-2="system"><polygon fill="#181818" points="327.5117,1509.5469,337.5117,1513.5469,327.5117,1517.5469,331.5117,1513.5469" style="stroke:#181818;stroke-width:1;"/><line style="stroke:#181818;stroke-width:1;" x1="77.7793" x2="333.5117" y1="1513.5469" y2="1513.5469"/><text fill="#000000" font-family="sans-serif" font-size="13" lengthAdjust="spacing" textLength="83.1099" x="167.0906" y="1508.6904">Submit appeal</text></g><g class="message" data-participant-1="system" data-participant-2="user"><polygon fill="#181818" points="88.7793,1539.8984,78.7793,1543.8984,88.7793,1547.8984,84.7793,1543.8984" style="stroke:#181818;stroke-width:1;"/><line style="stroke:#181818;stroke-width:1;stroke-dasharray:2.0,2.0;" x1="82.7793" x2="338.5117" y1="1543.8984" y2="1543.8984"/><text fill="#000000" font-family="sans-serif" font-size="13" lengthAdjust="spacing" textLength="112.7407" x="152.2751" y="1539.042">Create appeal case</text></g><g class="message" data-participant-1="system" data-participant-2="user"><polygon fill="#181818" points="88.7793,1570.25,78.7793,1574.25,88.7793,1578.25,84.7793,1574.25" style="stroke:#181818;stroke-width:1;"/><line style="stroke:#181818;stroke-width:1;stroke-dasharray:2.0,2.0;" x1="82.7793" x2="338.5117" y1="1574.25" y2="1574.25"/><text fill="#000000" font-family="sans-serif" font-size="13" lengthAdjust="spacing" textLength="175.5889" x="120.8511" y="1569.3936">Escalate to higher review level</text></g><line style="stroke:#000000;stroke-width:1;stroke-dasharray:2.0,2.0;" x1="50" x2="406.9736" y1="1583.25" y2="1583.25"/><text fill="#000000" font-family="sans-serif" font-size="11" font-weight="bold" lengthAdjust="spacing" textLength="123.4922" x="55" y="1594.6689">[User accepts decision]</text><g class="message" data-participant-1="system" data-participant-2="user"><polygon fill="#181818" points="88.7793,1616.4375,78.7793,1620.4375,88.7793,1624.4375,84.7793,1620.4375" style="stroke:#181818;stroke-width:1;"/><line style="stroke:#181818;stroke-width:1;stroke-dasharray:2.0,2.0;" x1="82.7793" x2="338.5117" y1="1620.4375" y2="1620.4375"/><text fill="#000000" font-family="sans-serif" font-size="13" lengthAdjust="spacing" textLength="109.8398" x="153.7256" y="1615.5811">Close dispute case</text></g><line style="stroke:#000000;stroke-width:1;stroke-dasharray:2.0,2.0;" x1="40" x2="416.9736" y1="1636.4375" y2="1636.4375"/><text fill="#000000" font-family="sans-serif" font-size="11" font-weight="bold" lengthAdjust="spacing" textLength="109.4253" x="45" y="1647.8564">[No appeal available]</text><g class="message" data-participant-1="system" data-participant-2="user"><polygon fill="#181818" points="88.7793,1669.625,78.7793,1673.625,88.7793,1677.625,84.7793,1673.625" style="stroke:#181818;stroke-width:1;"/><line style="stroke:#181818;stroke-width:1;stroke-dasharray:2.0,2.0;" x1="82.7793" x2="338.5117" y1="1673.625" y2="1673.625"/><text fill="#000000" font-family="sans-serif" font-size="13" lengthAdjust="spacing" textLength="109.8398" x="153.7256" y="1668.7686">Close dispute case</text></g><!--SRC=[dLR9Rjim4BthAmOvjOVyG0u17AT10pHf43UzJwYnJ8GYMP9owh_laDheoBBQ6Z0iI-_DycQX_9lK5XtMuEbNGrhG0tcF5QsKh3G8qe5SuIUe9tH12cbHXnlZId9heuo36uNYRG7EYCgPHfSjvPkiTk56DLGKGGP5S767ofidF5p1hVIs2GG_76gF8aYZuH8s1n-eXardcr5OiREBec08MxnuyUGk03qqV56yHb_e3gFXpaA2-7JPCpUDjSO5M5MSU7gEyQf__3tio45Cvf0UclW__IsAw0ikhpk3L_28UraX1nyCX2p-dVHiwr2qEBXaIgIsoIeEBWSh1azDRqYH252swfGvOu9TxupnBEepfSGGdfnvLPpyV02sHO3Ww2lZ9FdP4AJt3VN0mmJ5llQof0vMKa2f_0JrOfN14dohlTGLK6J5qduoDcQ5wlCqWkQrbeC8nJITdwXa6GlW8zBxg4w1Ai2z5gQsYeuV0NycDhvoSwhOe91W79hKM-Dg3BEKNiNHD91pnYNqf3fz88DvlirDfqjmb2o4WXJNR_st4QyTnPmxMRWqdau3LsmaJZW3G3VrAxcPVDYhgwKURLedkIkuvq_YDyJ12wEtifC9tcNOSJfRSgccPvrruf4FajcKP32gINRu5YaE956F-DVP9FBacI2t1q0U_B4_1axiW7QEROG32a4s-2DW_8mMyuAj4dgKLw6i1yea7Uv_mUiKi0acYY6Y3BoDvXalDhLilWDymD3uUKeIF9D9n_Ib65lq0okNQf6RcY-NYoiRk3f_gzUwXIy8TjsksQ4fUMNsXBp-X2DrzClbM9MbRFT4Ff-WYKeQnKxLZtxo09_ZAS81riRHPBXdDUzP30SywVo8FxSNCsg_74-v7UIvC-uTNRdaah8EAyvalfVqtYw0k71gV8ixMaYVsnhvF3UttLFOujwuxdmzArG_0H_w_ZzxVxx_Kq38nzRY92nD0_tc3QHnta0QYK49h51gxeHbAHuOo3NMmCkpah5s-RczdE9YO4Vb6aR3Mc9NkEVkYleS0KuwkqyT1MOBs79jMyC9St8ZjaXyz-g8KyQfMUZEyPPoaZ5tndNX3KVS8k-B5wYwLx8Td-eSY6k7GD6UfivJfTk4-aFYutYSZrF5Lw_9KNpauiDG99UFfi_j7ygsu2ntr5_7t_Zz0m00]--></g></svg>