<svg xmlns="http://www.w3.org/2000/svg" xmlns:xlink="http://www.w3.org/1999/xlink" contentStyleType="text/css" data-diagram-type="SEQUENCE" height="2282px" preserveAspectRatio="none" style="width:689px;height:2282px;background:#FFFFFF;" version="1.1" viewBox="0 0 689 2282" width="689px" zoomAndPan="magnify"><title>FalsoPay: Request Money - System Sequence Diagram</title><defs/><g><text fill="#000000" font-family="sans-serif" font-size="14" font-weight="bold" lengthAdjust="spacing" textLength="365.6748" x="162.8992" y="29.5332">FalsoPay: Request Money - System Sequence Diagram</text><rect fill="none" height="1802.6719" style="stroke:#000000;stroke-width:1.5;" width="672.4731" x="10" y="381.0313"/><rect fill="none" height="1693.7813" style="stroke:#000000;stroke-width:1.5;" width="652.4731" x="20" y="482.9219"/><rect fill="none" height="1311.7266" style="stroke:#000000;stroke-width:1.5;" width="632.4731" x="30" y="857.9766"/><rect fill="none" height="550.6484" style="stroke:#000000;stroke-width:1.5;" width="612.4731" x="40" y="944.0313"/><rect fill="none" height="216.2969" style="stroke:#000000;stroke-width:1.5;" width="592.4731" x="50" y="1271.3828"/><rect fill="none" height="246.6484" style="stroke:#000000;stroke-width:1.5;" width="592.4731" x="50" y="1916.0547"/><g><title>User (Requestor)</title><rect fill="#000000" fill-opacity="0.00000" height="2079.4844" width="8" x="112.6826" y="121.2188"/><line style="stroke:#181818;stroke-width:0.5;stroke-dasharray:5.0,5.0;" x1="116" x2="116" y1="121.2188" y2="2200.7031"/></g><g><title>FalsoPay System</title><rect fill="#000000" fill-opacity="0.00000" height="2079.4844" width="8" x="350.4209" y="121.2188"/><line style="stroke:#181818;stroke-width:0.5;stroke-dasharray:5.0,5.0;" x1="353.959" x2="353.959" y1="121.2188" y2="2200.7031"/></g><g><title>Recipient</title><rect fill="#000000" fill-opacity="0.00000" height="2079.4844" width="8" x="596.2905" y="121.2188"/><line style="stroke:#181818;stroke-width:0.5;stroke-dasharray:5.0,5.0;" x1="600.1079" x2="600.1079" y1="121.2188" y2="2200.7031"/></g><g class="participant participant-head" data-participant="requestor"><text fill="#000000" font-family="sans-serif" font-size="14" lengthAdjust="spacing" textLength="107.3652" x="60" y="118.1426">User (Requestor)</text><ellipse cx="116.6826" cy="52.1094" fill="#E2E2F0" rx="8" ry="8" style="stroke:#181818;stroke-width:0.5;"/><path d="M116.6826,60.1094 L116.6826,87.1094 M103.6826,68.1094 L129.6826,68.1094 M116.6826,87.1094 L103.6826,102.1094 M116.6826,87.1094 L129.6826,102.1094" fill="none" style="stroke:#181818;stroke-width:0.5;"/></g><g class="participant participant-tail" data-participant="requestor"><text fill="#000000" font-family="sans-serif" font-size="14" lengthAdjust="spacing" textLength="107.3652" x="60" y="2214.2363">User (Requestor)</text><ellipse cx="116.6826" cy="2225.8125" fill="#E2E2F0" rx="8" ry="8" style="stroke:#181818;stroke-width:0.5;"/><path d="M116.6826,2233.8125 L116.6826,2260.8125 M103.6826,2241.8125 L129.6826,2241.8125 M116.6826,2260.8125 L103.6826,2275.8125 M116.6826,2260.8125 L129.6826,2275.8125" fill="none" style="stroke:#181818;stroke-width:0.5;"/></g><g class="participant participant-head" data-participant="system"><text fill="#000000" font-family="sans-serif" font-size="14" lengthAdjust="spacing" textLength="108.9238" x="296.959" y="118.1426">FalsoPay System</text><path d="M333.9209,75.6094 L333.9209,99.6094 M333.9209,87.6094 L350.9209,87.6094" fill="none" style="stroke:#181818;stroke-width:0.5;"/><ellipse cx="362.9209" cy="87.6094" fill="#E2E2F0" rx="12" ry="12" style="stroke:#181818;stroke-width:0.5;"/></g><g class="participant participant-tail" data-participant="system"><text fill="#000000" font-family="sans-serif" font-size="14" lengthAdjust="spacing" textLength="108.9238" x="296.959" y="2214.2363">FalsoPay System</text><path d="M333.9209,2221.3125 L333.9209,2245.3125 M333.9209,2233.3125 L350.9209,2233.3125" fill="none" style="stroke:#181818;stroke-width:0.5;"/><ellipse cx="362.9209" cy="2233.3125" fill="#E2E2F0" rx="12" ry="12" style="stroke:#181818;stroke-width:0.5;"/></g><g class="participant participant-head" data-participant="recipient"><text fill="#000000" font-family="sans-serif" font-size="14" lengthAdjust="spacing" textLength="58.3652" x="568.1079" y="118.1426">Recipient</text><ellipse cx="600.2905" cy="52.1094" fill="#E2E2F0" rx="8" ry="8" style="stroke:#181818;stroke-width:0.5;"/><path d="M600.2905,60.1094 L600.2905,87.1094 M587.2905,68.1094 L613.2905,68.1094 M600.2905,87.1094 L587.2905,102.1094 M600.2905,87.1094 L613.2905,102.1094" fill="none" style="stroke:#181818;stroke-width:0.5;"/></g><g class="participant participant-tail" data-participant="recipient"><text fill="#000000" font-family="sans-serif" font-size="14" lengthAdjust="spacing" textLength="58.3652" x="568.1079" y="2214.2363">Recipient</text><ellipse cx="600.2905" cy="2225.8125" fill="#E2E2F0" rx="8" ry="8" style="stroke:#181818;stroke-width:0.5;"/><path d="M600.2905,2233.8125 L600.2905,2260.8125 M587.2905,2241.8125 L613.2905,2241.8125 M600.2905,2260.8125 L587.2905,2275.8125 M600.2905,2260.8125 L613.2905,2275.8125" fill="none" style="stroke:#181818;stroke-width:0.5;"/></g><g class="message" data-participant-1="requestor" data-participant-2="system"><polygon fill="#181818" points="342.4209,149.5703,352.4209,153.5703,342.4209,157.5703,346.4209,153.5703" style="stroke:#181818;stroke-width:1;"/><line style="stroke:#181818;stroke-width:1;" x1="116.6826" x2="348.4209" y1="153.5703" y2="153.5703"/><text fill="#000000" font-family="sans-serif" font-size="13" lengthAdjust="spacing" textLength="213.7383" x="128.6826" y="148.7139">Navigate to "Request Money" feature</text></g><g class="message" data-participant-1="system" data-participant-2="requestor"><polygon fill="#181818" points="127.6826,179.9219,117.6826,183.9219,127.6826,187.9219,123.6826,183.9219" style="stroke:#181818;stroke-width:1;"/><line style="stroke:#181818;stroke-width:1;stroke-dasharray:2.0,2.0;" x1="121.6826" x2="353.4209" y1="183.9219" y2="183.9219"/><text fill="#000000" font-family="sans-serif" font-size="13" lengthAdjust="spacing" textLength="161.8398" x="154.6318" y="179.0654">Display request money form</text></g><g class="message" data-participant-1="requestor" data-participant-2="system"><polygon fill="#181818" points="342.4209,210.2734,352.4209,214.2734,342.4209,218.2734,346.4209,214.2734" style="stroke:#181818;stroke-width:1;"/><line style="stroke:#181818;stroke-width:1;" x1="116.6826" x2="348.4209" y1="214.2734" y2="214.2734"/><text fill="#000000" font-family="sans-serif" font-size="13" lengthAdjust="spacing" textLength="122.1226" x="174.4905" y="209.417">Select/enter recipient</text></g><g class="message" data-participant-1="requestor" data-participant-2="system"><polygon fill="#181818" points="342.4209,240.625,352.4209,244.625,342.4209,248.625,346.4209,244.625" style="stroke:#181818;stroke-width:1;"/><line style="stroke:#181818;stroke-width:1;" x1="116.6826" x2="348.4209" y1="244.625" y2="244.625"/><text fill="#000000" font-family="sans-serif" font-size="13" lengthAdjust="spacing" textLength="139.4771" x="165.8132" y="239.7686">Enter requested amount</text></g><g class="message" data-participant-1="requestor" data-participant-2="system"><polygon fill="#181818" points="342.4209,270.9766,352.4209,274.9766,342.4209,278.9766,346.4209,274.9766" style="stroke:#181818;stroke-width:1;"/><line style="stroke:#181818;stroke-width:1;" x1="116.6826" x2="348.4209" y1="274.9766" y2="274.9766"/><text fill="#000000" font-family="sans-serif" font-size="13" lengthAdjust="spacing" textLength="190.0552" x="140.5242" y="270.1201">Add reason for request (optional)</text></g><g class="message" data-participant-1="requestor" data-participant-2="system"><polygon fill="#181818" points="342.4209,301.3281,352.4209,305.3281,342.4209,309.3281,346.4209,305.3281" style="stroke:#181818;stroke-width:1;"/><line style="stroke:#181818;stroke-width:1;" x1="116.6826" x2="348.4209" y1="305.3281" y2="305.3281"/><text fill="#000000" font-family="sans-serif" font-size="13" lengthAdjust="spacing" textLength="166.2134" x="152.4451" y="300.4717">Set expiration date (optional)</text></g><g class="message" data-participant-1="requestor" data-participant-2="system"><polygon fill="#181818" points="342.4209,331.6797,352.4209,335.6797,342.4209,339.6797,346.4209,335.6797" style="stroke:#181818;stroke-width:1;"/><line style="stroke:#181818;stroke-width:1;" x1="116.6826" x2="348.4209" y1="335.6797" y2="335.6797"/><text fill="#000000" font-family="sans-serif" font-size="13" lengthAdjust="spacing" textLength="87.4326" x="191.8354" y="330.8232">Submit request</text></g><g class="message" data-participant-1="system" data-participant-2="requestor"><polygon fill="#181818" points="127.6826,362.0313,117.6826,366.0313,127.6826,370.0313,123.6826,366.0313" style="stroke:#181818;stroke-width:1;"/><line style="stroke:#181818;stroke-width:1;stroke-dasharray:2.0,2.0;" x1="121.6826" x2="353.4209" y1="366.0313" y2="366.0313"/><text fill="#000000" font-family="sans-serif" font-size="13" lengthAdjust="spacing" textLength="93.9517" x="188.5759" y="361.1748">Validate request</text></g><path d="M10,381.0313 L70.1709,381.0313 L70.1709,389.3828 L60.1709,399.3828 L10,399.3828 L10,381.0313" fill="#EEEEEE" style="stroke:#000000;stroke-width:1.5;"/><rect fill="none" height="1802.6719" style="stroke:#000000;stroke-width:1.5;" width="672.4731" x="10" y="381.0313"/><text fill="#000000" font-family="sans-serif" font-size="13" font-weight="bold" lengthAdjust="spacing" textLength="15.1709" x="25" y="395.5264">alt</text><text fill="#000000" font-family="sans-serif" font-size="11" font-weight="bold" lengthAdjust="spacing" textLength="91.0723" x="85.1709" y="394.4502">[Invalid recipient]</text><g class="message" data-participant-1="system" data-participant-2="requestor"><polygon fill="#181818" points="127.6826,417.7344,117.6826,421.7344,127.6826,425.7344,123.6826,421.7344" style="stroke:#181818;stroke-width:1;"/><line style="stroke:#181818;stroke-width:1;stroke-dasharray:2.0,2.0;" x1="121.6826" x2="353.4209" y1="421.7344" y2="421.7344"/><text fill="#000000" font-family="sans-serif" font-size="13" lengthAdjust="spacing" textLength="166.8989" x="152.1023" y="416.8779">Display invalid recipient error</text></g><g class="message" data-participant-1="requestor" data-participant-2="system"><polygon fill="#181818" points="342.4209,448.0859,352.4209,452.0859,342.4209,456.0859,346.4209,452.0859" style="stroke:#181818;stroke-width:1;"/><line style="stroke:#181818;stroke-width:1;" x1="116.6826" x2="348.4209" y1="452.0859" y2="452.0859"/><text fill="#000000" font-family="sans-serif" font-size="13" lengthAdjust="spacing" textLength="163.2871" x="153.9082" y="447.2295">Correct recipient information</text></g><line style="stroke:#000000;stroke-width:1;stroke-dasharray:2.0,2.0;" x1="10" x2="682.4731" y1="461.0859" y2="461.0859"/><text fill="#000000" font-family="sans-serif" font-size="11" font-weight="bold" lengthAdjust="spacing" textLength="82.5161" x="15" y="472.5049">[Valid recipient]</text><path d="M20,482.9219 L80.1709,482.9219 L80.1709,491.2734 L70.1709,501.2734 L20,501.2734 L20,482.9219" fill="#EEEEEE" style="stroke:#000000;stroke-width:1.5;"/><rect fill="none" height="1693.7813" style="stroke:#000000;stroke-width:1.5;" width="652.4731" x="20" y="482.9219"/><text fill="#000000" font-family="sans-serif" font-size="13" font-weight="bold" lengthAdjust="spacing" textLength="15.1709" x="35" y="497.417">alt</text><text fill="#000000" font-family="sans-serif" font-size="11" font-weight="bold" lengthAdjust="spacing" textLength="168.1099" x="95.1709" y="496.3408">[Amount exceeds system limits]</text><g class="message" data-participant-1="system" data-participant-2="requestor"><polygon fill="#181818" points="127.6826,519.625,117.6826,523.625,127.6826,527.625,123.6826,523.625" style="stroke:#181818;stroke-width:1;"/><line style="stroke:#181818;stroke-width:1;stroke-dasharray:2.0,2.0;" x1="121.6826" x2="353.4209" y1="523.625" y2="523.625"/><text fill="#000000" font-family="sans-serif" font-size="13" lengthAdjust="spacing" textLength="160.3926" x="155.3555" y="518.7686">Display limit exceeded error</text></g><g class="message" data-participant-1="system" data-participant-2="requestor"><polygon fill="#181818" points="127.6826,549.9766,117.6826,553.9766,127.6826,557.9766,123.6826,553.9766" style="stroke:#181818;stroke-width:1;"/><line style="stroke:#181818;stroke-width:1;stroke-dasharray:2.0,2.0;" x1="121.6826" x2="353.4209" y1="553.9766" y2="553.9766"/><text fill="#000000" font-family="sans-serif" font-size="13" lengthAdjust="spacing" textLength="109.8081" x="180.6477" y="549.1201">Show current limits</text></g><g class="message" data-participant-1="requestor" data-participant-2="system"><polygon fill="#181818" points="342.4209,580.3281,352.4209,584.3281,342.4209,588.3281,346.4209,584.3281" style="stroke:#181818;stroke-width:1;"/><line style="stroke:#181818;stroke-width:1;" x1="116.6826" x2="348.4209" y1="584.3281" y2="584.3281"/><text fill="#000000" font-family="sans-serif" font-size="13" lengthAdjust="spacing" textLength="83.1035" x="194" y="579.4717">Adjust amount</text></g><line style="stroke:#000000;stroke-width:1;stroke-dasharray:2.0,2.0;" x1="20" x2="672.4731" y1="593.3281" y2="593.3281"/><text fill="#000000" font-family="sans-serif" font-size="11" font-weight="bold" lengthAdjust="spacing" textLength="156.4546" x="25" y="604.7471">[Amount within system limits]</text><g class="message" data-participant-1="system" data-participant-2="requestor"><polygon fill="#181818" points="127.6826,626.5156,117.6826,630.5156,127.6826,634.5156,123.6826,630.5156" style="stroke:#181818;stroke-width:1;"/><line style="stroke:#181818;stroke-width:1;stroke-dasharray:2.0,2.0;" x1="121.6826" x2="353.4209" y1="630.5156" y2="630.5156"/><text fill="#000000" font-family="sans-serif" font-size="13" lengthAdjust="spacing" textLength="146.6563" x="162.2236" y="625.6592">Display request summary</text></g><g class="message" data-participant-1="requestor" data-participant-2="system"><polygon fill="#181818" points="342.4209,656.8672,352.4209,660.8672,342.4209,664.8672,346.4209,660.8672" style="stroke:#181818;stroke-width:1;"/><line style="stroke:#181818;stroke-width:1;" x1="116.6826" x2="348.4209" y1="660.8672" y2="660.8672"/><text fill="#000000" font-family="sans-serif" font-size="13" lengthAdjust="spacing" textLength="133.6689" x="168.7173" y="656.0107">Confirm request details</text></g><g class="message" data-participant-1="requestor" data-participant-2="system"><polygon fill="#181818" points="342.4209,687.2188,352.4209,691.2188,342.4209,695.2188,346.4209,691.2188" style="stroke:#181818;stroke-width:1;"/><line style="stroke:#181818;stroke-width:1;" x1="116.6826" x2="348.4209" y1="691.2188" y2="691.2188"/><text fill="#000000" font-family="sans-serif" font-size="13" lengthAdjust="spacing" textLength="77.3335" x="196.885" y="686.3623">Send request</text></g><g class="message" data-participant-1="system" data-participant-2="requestor"><polygon fill="#181818" points="127.6826,717.5703,117.6826,721.5703,127.6826,725.5703,123.6826,721.5703" style="stroke:#181818;stroke-width:1;"/><line style="stroke:#181818;stroke-width:1;stroke-dasharray:2.0,2.0;" x1="121.6826" x2="353.4209" y1="721.5703" y2="721.5703"/><text fill="#000000" font-family="sans-serif" font-size="13" lengthAdjust="spacing" textLength="136.5635" x="167.27" y="716.7139">Process money request</text></g><g class="message" data-participant-1="system" data-participant-2="requestor"><polygon fill="#181818" points="127.6826,747.9219,117.6826,751.9219,127.6826,755.9219,123.6826,751.9219" style="stroke:#181818;stroke-width:1;"/><line style="stroke:#181818;stroke-width:1;stroke-dasharray:2.0,2.0;" x1="121.6826" x2="353.4209" y1="751.9219" y2="751.9219"/><text fill="#000000" font-family="sans-serif" font-size="13" lengthAdjust="spacing" textLength="126.4517" x="172.3259" y="747.0654">Create request record</text></g><g class="message" data-participant-1="system" data-participant-2="requestor"><polygon fill="#181818" points="127.6826,778.2734,117.6826,782.2734,127.6826,786.2734,123.6826,782.2734" style="stroke:#181818;stroke-width:1;"/><line style="stroke:#181818;stroke-width:1;stroke-dasharray:2.0,2.0;" x1="121.6826" x2="353.4209" y1="782.2734" y2="782.2734"/><text fill="#000000" font-family="sans-serif" font-size="13" lengthAdjust="spacing" textLength="117.0444" x="177.0295" y="777.417">Display confirmation</text></g><g class="message" data-participant-1="system" data-participant-2="recipient"><polygon fill="#181818" points="588.2905,808.625,598.2905,812.625,588.2905,816.625,592.2905,812.625" style="stroke:#181818;stroke-width:1;"/><line style="stroke:#181818;stroke-width:1;" x1="354.4209" x2="594.2905" y1="812.625" y2="812.625"/><text fill="#000000" font-family="sans-serif" font-size="13" lengthAdjust="spacing" textLength="221.8696" x="366.4209" y="807.7686">Send notification about money request</text></g><g class="message" data-participant-1="recipient" data-participant-2="system"><polygon fill="#181818" points="365.4209,838.9766,355.4209,842.9766,365.4209,846.9766,361.4209,842.9766" style="stroke:#181818;stroke-width:1;"/><line style="stroke:#181818;stroke-width:1;" x1="359.4209" x2="599.2905" y1="842.9766" y2="842.9766"/><text fill="#000000" font-family="sans-serif" font-size="13" lengthAdjust="spacing" textLength="116.3398" x="419.1858" y="838.1201">View request details</text></g><path d="M30,857.9766 L90.1709,857.9766 L90.1709,866.3281 L80.1709,876.3281 L30,876.3281 L30,857.9766" fill="#EEEEEE" style="stroke:#000000;stroke-width:1.5;"/><rect fill="none" height="1311.7266" style="stroke:#000000;stroke-width:1.5;" width="632.4731" x="30" y="857.9766"/><text fill="#000000" font-family="sans-serif" font-size="13" font-weight="bold" lengthAdjust="spacing" textLength="15.1709" x="45" y="872.4717">alt</text><text fill="#000000" font-family="sans-serif" font-size="11" font-weight="bold" lengthAdjust="spacing" textLength="143.6553" x="105.1709" y="871.3955">[Recipient accepts request]</text><g class="message" data-participant-1="recipient" data-participant-2="system"><polygon fill="#181818" points="365.4209,894.6797,355.4209,898.6797,365.4209,902.6797,361.4209,898.6797" style="stroke:#181818;stroke-width:1;"/><line style="stroke:#181818;stroke-width:1;" x1="359.4209" x2="599.2905" y1="898.6797" y2="898.6797"/><text fill="#000000" font-family="sans-serif" font-size="13" lengthAdjust="spacing" textLength="98.979" x="427.8662" y="893.8232">Confirm payment</text></g><g class="message" data-participant-1="system" data-participant-2="recipient"><polygon fill="#181818" points="588.2905,925.0313,598.2905,929.0313,588.2905,933.0313,592.2905,929.0313" style="stroke:#181818;stroke-width:1;"/><line style="stroke:#181818;stroke-width:1;stroke-dasharray:2.0,2.0;" x1="354.4209" x2="594.2905" y1="929.0313" y2="929.0313"/><text fill="#000000" font-family="sans-serif" font-size="13" lengthAdjust="spacing" textLength="135.8462" x="409.4326" y="924.1748">Check funds availability</text></g><path d="M40,944.0313 L100.1709,944.0313 L100.1709,952.3828 L90.1709,962.3828 L40,962.3828 L40,944.0313" fill="#EEEEEE" style="stroke:#000000;stroke-width:1.5;"/><rect fill="none" height="550.6484" style="stroke:#000000;stroke-width:1.5;" width="612.4731" x="40" y="944.0313"/><text fill="#000000" font-family="sans-serif" font-size="13" font-weight="bold" lengthAdjust="spacing" textLength="15.1709" x="55" y="958.5264">alt</text><text fill="#000000" font-family="sans-serif" font-size="11" font-weight="bold" lengthAdjust="spacing" textLength="163.7915" x="115.1709" y="957.4502">[Recipient has sufficient funds]</text><g class="message" data-participant-1="recipient" data-participant-2="system"><polygon fill="#181818" points="365.4209,980.7344,355.4209,984.7344,365.4209,988.7344,361.4209,984.7344" style="stroke:#181818;stroke-width:1;"/><line style="stroke:#181818;stroke-width:1;" x1="359.4209" x2="599.2905" y1="984.7344" y2="984.7344"/><text fill="#000000" font-family="sans-serif" font-size="13" lengthAdjust="spacing" textLength="108.3926" x="423.1594" y="979.8779">Authorize payment</text></g><g class="message" data-participant-1="system" data-participant-2="recipient"><polygon fill="#181818" points="588.2905,1011.0859,598.2905,1015.0859,588.2905,1019.0859,592.2905,1015.0859" style="stroke:#181818;stroke-width:1;"/><line style="stroke:#181818;stroke-width:1;stroke-dasharray:2.0,2.0;" x1="354.4209" x2="594.2905" y1="1015.0859" y2="1015.0859"/><text fill="#000000" font-family="sans-serif" font-size="13" lengthAdjust="spacing" textLength="100.4326" x="427.1394" y="1010.2295">Process payment</text></g><g class="message" data-participant-1="system" data-participant-2="recipient"><polygon fill="#181818" points="588.2905,1041.4375,598.2905,1045.4375,588.2905,1049.4375,592.2905,1045.4375" style="stroke:#181818;stroke-width:1;"/><line style="stroke:#181818;stroke-width:1;stroke-dasharray:2.0,2.0;" x1="354.4209" x2="594.2905" y1="1045.4375" y2="1045.4375"/><text fill="#000000" font-family="sans-serif" font-size="13" lengthAdjust="spacing" textLength="91.0698" x="431.8208" y="1040.5811">Update balance</text></g><g class="message" data-participant-1="system" data-participant-2="requestor"><polygon fill="#181818" points="127.6826,1071.7891,117.6826,1075.7891,127.6826,1079.7891,123.6826,1075.7891" style="stroke:#181818;stroke-width:1;"/><line style="stroke:#181818;stroke-width:1;stroke-dasharray:2.0,2.0;" x1="121.6826" x2="353.4209" y1="1075.7891" y2="1075.7891"/><text fill="#000000" font-family="sans-serif" font-size="13" lengthAdjust="spacing" textLength="91.0698" x="190.0168" y="1070.9326">Update balance</text></g><g class="message" data-participant-1="system" data-participant-2="recipient"><polygon fill="#181818" points="588.2905,1102.1406,598.2905,1106.1406,588.2905,1110.1406,592.2905,1106.1406" style="stroke:#181818;stroke-width:1;"/><line style="stroke:#181818;stroke-width:1;stroke-dasharray:2.0,2.0;" x1="354.4209" x2="594.2905" y1="1106.1406" y2="1106.1406"/><text fill="#000000" font-family="sans-serif" font-size="13" lengthAdjust="spacing" textLength="104.7808" x="424.9653" y="1101.2842">Send confirmation</text></g><g class="message" data-participant-1="system" data-participant-2="requestor"><polygon fill="#181818" points="127.6826,1132.4922,117.6826,1136.4922,127.6826,1140.4922,123.6826,1136.4922" style="stroke:#181818;stroke-width:1;"/><line style="stroke:#181818;stroke-width:1;stroke-dasharray:2.0,2.0;" x1="121.6826" x2="353.4209" y1="1136.4922" y2="1136.4922"/><text fill="#000000" font-family="sans-serif" font-size="13" lengthAdjust="spacing" textLength="104.7808" x="183.1614" y="1131.6357">Send confirmation</text></g><g class="message" data-participant-1="system" data-participant-2="system"><line style="stroke:#181818;stroke-width:1;stroke-dasharray:2.0,2.0;" x1="354.4209" x2="396.4209" y1="1166.8438" y2="1166.8438"/><line style="stroke:#181818;stroke-width:1;stroke-dasharray:2.0,2.0;" x1="396.4209" x2="396.4209" y1="1166.8438" y2="1179.8438"/><line style="stroke:#181818;stroke-width:1;stroke-dasharray:2.0,2.0;" x1="355.4209" x2="396.4209" y1="1179.8438" y2="1179.8438"/><polygon fill="#181818" points="365.4209,1175.8438,355.4209,1179.8438,365.4209,1183.8438,361.4209,1179.8438" style="stroke:#181818;stroke-width:1;"/><text fill="#000000" font-family="sans-serif" font-size="13" lengthAdjust="spacing" textLength="180.502" x="361.4209" y="1161.9873">Update request status to "Paid"</text></g><line style="stroke:#000000;stroke-width:1;stroke-dasharray:2.0,2.0;" x1="40" x2="652.4731" y1="1188.8438" y2="1188.8438"/><text fill="#000000" font-family="sans-serif" font-size="11" font-weight="bold" lengthAdjust="spacing" textLength="172.3638" x="45" y="1200.2627">[Recipient lacks sufficient funds]</text><g class="message" data-participant-1="system" data-participant-2="recipient"><polygon fill="#181818" points="588.2905,1222.0313,598.2905,1226.0313,588.2905,1230.0313,592.2905,1226.0313" style="stroke:#181818;stroke-width:1;"/><line style="stroke:#181818;stroke-width:1;stroke-dasharray:2.0,2.0;" x1="354.4209" x2="594.2905" y1="1226.0313" y2="1226.0313"/><text fill="#000000" font-family="sans-serif" font-size="13" lengthAdjust="spacing" textLength="174.1289" x="390.2913" y="1221.1748">Display insufficient funds error</text></g><g class="message" data-participant-1="system" data-participant-2="recipient"><polygon fill="#181818" points="588.2905,1252.3828,598.2905,1256.3828,588.2905,1260.3828,592.2905,1256.3828" style="stroke:#181818;stroke-width:1;"/><line style="stroke:#181818;stroke-width:1;stroke-dasharray:2.0,2.0;" x1="354.4209" x2="594.2905" y1="1256.3828" y2="1256.3828"/><text fill="#000000" font-family="sans-serif" font-size="13" lengthAdjust="spacing" textLength="104.0635" x="425.324" y="1251.5264">Offer to add funds</text></g><path d="M50,1271.3828 L110.1709,1271.3828 L110.1709,1279.7344 L100.1709,1289.7344 L50,1289.7344 L50,1271.3828" fill="#EEEEEE" style="stroke:#000000;stroke-width:1.5;"/><rect fill="none" height="216.2969" style="stroke:#000000;stroke-width:1.5;" width="592.4731" x="50" y="1271.3828"/><text fill="#000000" font-family="sans-serif" font-size="13" font-weight="bold" lengthAdjust="spacing" textLength="15.1709" x="65" y="1285.8779">alt</text><text fill="#000000" font-family="sans-serif" font-size="11" font-weight="bold" lengthAdjust="spacing" textLength="118.5615" x="125.1709" y="1284.8018">[Recipient adds funds]</text><g class="message" data-participant-1="recipient" data-participant-2="system"><polygon fill="#181818" points="365.4209,1308.0859,355.4209,1312.0859,365.4209,1316.0859,361.4209,1312.0859" style="stroke:#181818;stroke-width:1;"/><line style="stroke:#181818;stroke-width:1;" x1="359.4209" x2="599.2905" y1="1312.0859" y2="1312.0859"/><text fill="#000000" font-family="sans-serif" font-size="13" lengthAdjust="spacing" textLength="126.4771" x="414.1172" y="1307.2295">Navigate to add funds</text></g><g class="message" data-participant-1="system" data-participant-2="recipient"><polygon fill="#181818" points="588.2905,1338.4375,598.2905,1342.4375,588.2905,1346.4375,592.2905,1342.4375" style="stroke:#181818;stroke-width:1;"/><line style="stroke:#181818;stroke-width:1;stroke-dasharray:2.0,2.0;" x1="354.4209" x2="594.2905" y1="1342.4375" y2="1342.4375"/><text fill="#000000" font-family="sans-serif" font-size="13" lengthAdjust="spacing" textLength="131.5234" x="411.594" y="1337.5811">Process funds addition</text></g><g class="message" data-participant-1="recipient" data-participant-2="system"><polygon fill="#181818" points="365.4209,1368.7891,355.4209,1372.7891,365.4209,1376.7891,361.4209,1372.7891" style="stroke:#181818;stroke-width:1;"/><line style="stroke:#181818;stroke-width:1;" x1="359.4209" x2="599.2905" y1="1372.7891" y2="1372.7891"/><text fill="#000000" font-family="sans-serif" font-size="13" lengthAdjust="spacing" textLength="156.0762" x="399.3176" y="1367.9326">Return to payment process</text></g><g class="message" data-participant-1="recipient" data-participant-2="system"><polygon fill="#181818" points="365.4209,1399.1406,355.4209,1403.1406,365.4209,1407.1406,361.4209,1403.1406" style="stroke:#181818;stroke-width:1;"/><line style="stroke:#181818;stroke-width:1;" x1="359.4209" x2="599.2905" y1="1403.1406" y2="1403.1406"/><text fill="#000000" font-family="sans-serif" font-size="13" lengthAdjust="spacing" textLength="109.1099" x="422.8008" y="1398.2842">Complete payment</text></g><line style="stroke:#000000;stroke-width:1;stroke-dasharray:2.0,2.0;" x1="50" x2="642.4731" y1="1412.1406" y2="1412.1406"/><text fill="#000000" font-family="sans-serif" font-size="11" font-weight="bold" lengthAdjust="spacing" textLength="154.1719" x="55" y="1423.5596">[Recipient doesn't add funds]</text><g class="message" data-participant-1="system" data-participant-2="recipient"><polygon fill="#181818" points="588.2905,1445.3281,598.2905,1449.3281,588.2905,1453.3281,592.2905,1449.3281" style="stroke:#181818;stroke-width:1;"/><line style="stroke:#181818;stroke-width:1;stroke-dasharray:2.0,2.0;" x1="354.4209" x2="594.2905" y1="1449.3281" y2="1449.3281"/><text fill="#000000" font-family="sans-serif" font-size="13" lengthAdjust="spacing" textLength="148.1479" x="403.2817" y="1444.4717">Request remains pending</text></g><g class="message" data-participant-1="system" data-participant-2="requestor"><polygon fill="#181818" points="127.6826,1475.6797,117.6826,1479.6797,127.6826,1483.6797,123.6826,1479.6797" style="stroke:#181818;stroke-width:1;"/><line style="stroke:#181818;stroke-width:1;stroke-dasharray:2.0,2.0;" x1="121.6826" x2="353.4209" y1="1479.6797" y2="1479.6797"/><text fill="#000000" font-family="sans-serif" font-size="13" lengthAdjust="spacing" textLength="154.667" x="158.2183" y="1474.8232">Request status unchanged</text></g><line style="stroke:#000000;stroke-width:1;stroke-dasharray:2.0,2.0;" x1="30" x2="662.4731" y1="1502.6797" y2="1502.6797"/><text fill="#000000" font-family="sans-serif" font-size="11" font-weight="bold" lengthAdjust="spacing" textLength="146.7061" x="35" y="1514.0986">[Recipient declines request]</text><g class="message" data-participant-1="recipient" data-participant-2="system"><polygon fill="#181818" points="365.4209,1535.8672,355.4209,1539.8672,365.4209,1543.8672,361.4209,1539.8672" style="stroke:#181818;stroke-width:1;"/><line style="stroke:#181818;stroke-width:1;" x1="359.4209" x2="599.2905" y1="1539.8672" y2="1539.8672"/><text fill="#000000" font-family="sans-serif" font-size="13" lengthAdjust="spacing" textLength="90.3271" x="432.1921" y="1535.0107">Decline request</text></g><g class="message" data-participant-1="recipient" data-participant-2="system"><polygon fill="#181818" points="365.4209,1566.2188,355.4209,1570.2188,365.4209,1574.2188,361.4209,1570.2188" style="stroke:#181818;stroke-width:1;"/><line style="stroke:#181818;stroke-width:1;" x1="359.4209" x2="599.2905" y1="1570.2188" y2="1570.2188"/><text fill="#000000" font-family="sans-serif" font-size="13" lengthAdjust="spacing" textLength="145.2471" x="404.7322" y="1565.3623">Provide reason (optional)</text></g><g class="message" data-participant-1="system" data-participant-2="recipient"><polygon fill="#181818" points="588.2905,1596.5703,598.2905,1600.5703,588.2905,1604.5703,592.2905,1600.5703" style="stroke:#181818;stroke-width:1;"/><line style="stroke:#181818;stroke-width:1;stroke-dasharray:2.0,2.0;" x1="354.4209" x2="594.2905" y1="1600.5703" y2="1600.5703"/><text fill="#000000" font-family="sans-serif" font-size="13" lengthAdjust="spacing" textLength="205.0674" x="374.822" y="1595.7139">Update request status to "Declined"</text></g><g class="message" data-participant-1="system" data-participant-2="requestor"><polygon fill="#181818" points="127.6826,1626.9219,117.6826,1630.9219,127.6826,1634.9219,123.6826,1630.9219" style="stroke:#181818;stroke-width:1;"/><line style="stroke:#181818;stroke-width:1;stroke-dasharray:2.0,2.0;" x1="121.6826" x2="353.4209" y1="1630.9219" y2="1630.9219"/><text fill="#000000" font-family="sans-serif" font-size="13" lengthAdjust="spacing" textLength="177.0742" x="147.0146" y="1626.0654">Send notification about decline</text></g><g class="message" data-participant-1="system" data-participant-2="requestor"><polygon fill="#181818" points="127.6826,1657.2734,117.6826,1661.2734,127.6826,1665.2734,123.6826,1661.2734" style="stroke:#181818;stroke-width:1;"/><line style="stroke:#181818;stroke-width:1;stroke-dasharray:2.0,2.0;" x1="121.6826" x2="353.4209" y1="1661.2734" y2="1661.2734"/><text fill="#000000" font-family="sans-serif" font-size="13" lengthAdjust="spacing" textLength="194.3843" x="138.3596" y="1656.417">Display decline reason if provided</text></g><line style="stroke:#000000;stroke-width:1;stroke-dasharray:2.0,2.0;" x1="30" x2="662.4731" y1="1670.2734" y2="1670.2734"/><text fill="#000000" font-family="sans-serif" font-size="11" font-weight="bold" lengthAdjust="spacing" textLength="142.4146" x="35" y="1681.6924">[Recipient ignores request]</text><g class="message" data-participant-1="system" data-participant-2="system"><line style="stroke:#181818;stroke-width:1;stroke-dasharray:2.0,2.0;" x1="354.4209" x2="396.4209" y1="1707.4609" y2="1707.4609"/><line style="stroke:#181818;stroke-width:1;stroke-dasharray:2.0,2.0;" x1="396.4209" x2="396.4209" y1="1707.4609" y2="1720.4609"/><line style="stroke:#181818;stroke-width:1;stroke-dasharray:2.0,2.0;" x1="355.4209" x2="396.4209" y1="1720.4609" y2="1720.4609"/><polygon fill="#181818" points="365.4209,1716.4609,355.4209,1720.4609,365.4209,1724.4609,361.4209,1720.4609" style="stroke:#181818;stroke-width:1;"/><text fill="#000000" font-family="sans-serif" font-size="13" lengthAdjust="spacing" textLength="148.1479" x="361.4209" y="1702.6045">Request remains pending</text></g><g class="message" data-participant-1="system" data-participant-2="system"><line style="stroke:#181818;stroke-width:1;stroke-dasharray:2.0,2.0;" x1="354.4209" x2="396.4209" y1="1750.8125" y2="1750.8125"/><line style="stroke:#181818;stroke-width:1;stroke-dasharray:2.0,2.0;" x1="396.4209" x2="396.4209" y1="1750.8125" y2="1763.8125"/><line style="stroke:#181818;stroke-width:1;stroke-dasharray:2.0,2.0;" x1="355.4209" x2="396.4209" y1="1763.8125" y2="1763.8125"/><polygon fill="#181818" points="365.4209,1759.8125,355.4209,1763.8125,365.4209,1767.8125,361.4209,1763.8125" style="stroke:#181818;stroke-width:1;"/><text fill="#000000" font-family="sans-serif" font-size="13" lengthAdjust="spacing" textLength="154.6416" x="361.4209" y="1745.9561">Send reminder after period</text></g><line style="stroke:#000000;stroke-width:1;stroke-dasharray:2.0,2.0;" x1="30" x2="662.4731" y1="1772.8125" y2="1772.8125"/><text fill="#000000" font-family="sans-serif" font-size="11" font-weight="bold" lengthAdjust="spacing" textLength="165.6445" x="35" y="1784.2314">[Recipient makes counter-offer]</text><g class="message" data-participant-1="recipient" data-participant-2="system"><polygon fill="#181818" points="365.4209,1806,355.4209,1810,365.4209,1814,361.4209,1810" style="stroke:#181818;stroke-width:1;"/><line style="stroke:#181818;stroke-width:1;" x1="359.4209" x2="599.2905" y1="1810" y2="1810"/><text fill="#000000" font-family="sans-serif" font-size="13" lengthAdjust="spacing" textLength="145.2598" x="404.7258" y="1805.1436">Suggest different amount</text></g><g class="message" data-participant-1="system" data-participant-2="recipient"><polygon fill="#181818" points="588.2905,1836.3516,598.2905,1840.3516,588.2905,1844.3516,592.2905,1840.3516" style="stroke:#181818;stroke-width:1;"/><line style="stroke:#181818;stroke-width:1;stroke-dasharray:2.0,2.0;" x1="354.4209" x2="594.2905" y1="1840.3516" y2="1840.3516"/><text fill="#000000" font-family="sans-serif" font-size="13" lengthAdjust="spacing" textLength="116.3335" x="419.189" y="1835.4951">Create counter-offer</text></g><g class="message" data-participant-1="system" data-participant-2="requestor"><polygon fill="#181818" points="127.6826,1866.7031,117.6826,1870.7031,127.6826,1874.7031,123.6826,1870.7031" style="stroke:#181818;stroke-width:1;"/><line style="stroke:#181818;stroke-width:1;stroke-dasharray:2.0,2.0;" x1="121.6826" x2="353.4209" y1="1870.7031" y2="1870.7031"/><text fill="#000000" font-family="sans-serif" font-size="13" lengthAdjust="spacing" textLength="209.5806" x="130.7615" y="1865.8467">Send notification about counter-offer</text></g><g class="message" data-participant-1="requestor" data-participant-2="system"><polygon fill="#181818" points="342.4209,1897.0547,352.4209,1901.0547,342.4209,1905.0547,346.4209,1901.0547" style="stroke:#181818;stroke-width:1;"/><line style="stroke:#181818;stroke-width:1;" x1="116.6826" x2="348.4209" y1="1901.0547" y2="1901.0547"/><text fill="#000000" font-family="sans-serif" font-size="13" lengthAdjust="spacing" textLength="119.939" x="175.5823" y="1896.1982">Review counter-offer</text></g><path d="M50,1916.0547 L110.1709,1916.0547 L110.1709,1924.4063 L100.1709,1934.4063 L50,1934.4063 L50,1916.0547" fill="#EEEEEE" style="stroke:#000000;stroke-width:1.5;"/><rect fill="none" height="246.6484" style="stroke:#000000;stroke-width:1.5;" width="592.4731" x="50" y="1916.0547"/><text fill="#000000" font-family="sans-serif" font-size="13" font-weight="bold" lengthAdjust="spacing" textLength="15.1709" x="65" y="1930.5498">alt</text><text fill="#000000" font-family="sans-serif" font-size="11" font-weight="bold" lengthAdjust="spacing" textLength="105.7515" x="125.1709" y="1929.4736">[Requestor accepts]</text><g class="message" data-participant-1="requestor" data-participant-2="system"><polygon fill="#181818" points="342.4209,1952.7578,352.4209,1956.7578,342.4209,1960.7578,346.4209,1956.7578" style="stroke:#181818;stroke-width:1;"/><line style="stroke:#181818;stroke-width:1;" x1="116.6826" x2="348.4209" y1="1956.7578" y2="1956.7578"/><text fill="#000000" font-family="sans-serif" font-size="13" lengthAdjust="spacing" textLength="117.0571" x="177.0232" y="1951.9014">Accept counter-offer</text></g><g class="message" data-participant-1="system" data-participant-2="requestor"><polygon fill="#181818" points="127.6826,1983.1094,117.6826,1987.1094,127.6826,1991.1094,123.6826,1987.1094" style="stroke:#181818;stroke-width:1;"/><line style="stroke:#181818;stroke-width:1;stroke-dasharray:2.0,2.0;" x1="121.6826" x2="353.4209" y1="1987.1094" y2="1987.1094"/><text fill="#000000" font-family="sans-serif" font-size="13" lengthAdjust="spacing" textLength="190.0552" x="140.5242" y="1982.2529">Update request with new amount</text></g><g class="message" data-participant-1="system" data-participant-2="recipient"><polygon fill="#181818" points="588.2905,2013.4609,598.2905,2017.4609,588.2905,2021.4609,592.2905,2017.4609" style="stroke:#181818;stroke-width:1;"/><line style="stroke:#181818;stroke-width:1;stroke-dasharray:2.0,2.0;" x1="354.4209" x2="594.2905" y1="2017.4609" y2="2017.4609"/><text fill="#000000" font-family="sans-serif" font-size="13" lengthAdjust="spacing" textLength="117.7871" x="418.4622" y="2012.6045">Notify of acceptance</text></g><g class="message" data-participant-1="recipient" data-participant-2="system"><polygon fill="#181818" points="365.4209,2043.8125,355.4209,2047.8125,365.4209,2051.8125,361.4209,2047.8125" style="stroke:#181818;stroke-width:1;"/><line style="stroke:#181818;stroke-width:1;" x1="359.4209" x2="599.2905" y1="2047.8125" y2="2047.8125"/><text fill="#000000" font-family="sans-serif" font-size="13" lengthAdjust="spacing" textLength="181.3716" x="386.6699" y="2042.9561">Continue with payment process</text></g><line style="stroke:#000000;stroke-width:1;stroke-dasharray:2.0,2.0;" x1="50" x2="642.4731" y1="2056.8125" y2="2056.8125"/><text fill="#000000" font-family="sans-serif" font-size="11" font-weight="bold" lengthAdjust="spacing" textLength="108.8022" x="55" y="2068.2314">[Requestor declines]</text><g class="message" data-participant-1="requestor" data-participant-2="system"><polygon fill="#181818" points="342.4209,2090,352.4209,2094,342.4209,2098,346.4209,2094" style="stroke:#181818;stroke-width:1;"/><line style="stroke:#181818;stroke-width:1;" x1="116.6826" x2="348.4209" y1="2094" y2="2094"/><text fill="#000000" font-family="sans-serif" font-size="13" lengthAdjust="spacing" textLength="120.6689" x="175.2173" y="2089.1436">Decline counter-offer</text></g><g class="message" data-participant-1="system" data-participant-2="requestor"><polygon fill="#181818" points="127.6826,2120.3516,117.6826,2124.3516,127.6826,2128.3516,123.6826,2124.3516" style="stroke:#181818;stroke-width:1;"/><line style="stroke:#181818;stroke-width:1;stroke-dasharray:2.0,2.0;" x1="121.6826" x2="353.4209" y1="2124.3516" y2="2124.3516"/><text fill="#000000" font-family="sans-serif" font-size="13" lengthAdjust="spacing" textLength="156.6284" x="157.2375" y="2119.4951">Mark request as "Declined"</text></g><g class="message" data-participant-1="system" data-participant-2="recipient"><polygon fill="#181818" points="588.2905,2150.7031,598.2905,2154.7031,588.2905,2158.7031,592.2905,2154.7031" style="stroke:#181818;stroke-width:1;"/><line style="stroke:#181818;stroke-width:1;stroke-dasharray:2.0,2.0;" x1="354.4209" x2="594.2905" y1="2154.7031" y2="2154.7031"/><text fill="#000000" font-family="sans-serif" font-size="13" lengthAdjust="spacing" textLength="92.4917" x="431.1099" y="2149.8467">Notify of decline</text></g><!--SRC=[dLTDRziu4BthLn2-j3q4Uy-XGEfkWGKsRM2Z1VOuaKRoh2bIIrBEUd_z3YbAjcNHaXCWYANCnvkPnyUntPDgm40jBFxJeihn6Qs52fyaLKhag1oQp5vPlO1nb5C3odtHfa2prb8RyKL2lfynPulAw5OLdSkVLEtSNoYbViioHqwYM7q3QVKB71_5nWUmJZnhXKVn8BP7wx0MsnXNV2MeED4goo1t76trqw8H7wERDfzM0gmm_MFswXE3EPvon931peQFVQWDCcBY3iGOyIdBXd3YuNFqUHJVuK0LE1HEUzSps2jH8hZMODRPYWTs6s8ySWssaGmalX9rgBNKfawasgB4tFqMPdE6QzBszsWK_eM5W9exaB1zAWgs1AkLppxW-QWRHrg1_9I2umJ-sv01RoOAtuHPd_Qr9jUdo1AT-GMIGhZ13gGJVwY3VtzMkU2VsxsbiOz0OvWFtdCIu5eRjdLd3gJyI4AD6KgB7ReH2e_lARIOMv8Z5ZsfX2Gks0QZURZ1E4RWePsmfbstE_qcyfPHS-vHiiIq_svvkf4GtYnK5T6_aTkHUXVudZUshMi-QhTHhBKgoTI3Ku4EICv0tw8g1axqbZFeNepEMThYwHexJ_ki-JISsET7pLgti0jvLrZ7boJ6poV-nBAKTbHItfqbOBro2SWdPfvrvXVXMxANmmVFqa7T1EGvDivU9KWcwMVMmB7kYN-Luwf3Gvdh7UPxKR8GMm47HWYl9CaTqt4kyUwyKhSbDoayXa0NvadWJwtRQKF_uIJqDEAUE_Tv_Mo2Ths21BwgRZiDzBd7wP8uauIRqOnx_FecHeJ3ANTyjzbmwxq05QkB445HJfFpsy62sKqNUPBoSO2HFjuEywCi-K9akC2ttNJ-gnUZyr9mocdF9FFEjuDquda6nbDJ53GvhcJ-3V82edpso67HT16NXrZhkf7eqcTdDEn2erKVtBlAtGoAMmFFMpHCL5BLV8I1sfjBUhOgtu6giBX6hIxVdJ-FAy9Sai8xbF9hvx7SWUTye0BxDUniZRfJPDEdD68QdTGR0Z5n8yLEB8ZGdzfYw4GeZ4fFG5zgijly_KERHBCdP6a9PIRSuYfHa-8lCG9AloqtQ4WdSTMmPrIvtvBGF6Wl9_DptRPL5QvaylP1HKvxrprtPxUHfBFVDyTqd5594qlO1Wz-sLWOefFGFanSEIPkxQb5DHZVI3Hxc_Qdm2-rGZ7eYUQdU_xTz-qeT1bXJrxCgKN9aMgnItnBUIF7-kfxfLdMe5vbtjEXPp3xeJ-yM2NaOKbtfaJXGatZP__N__uF]--></g></svg>