<svg xmlns="http://www.w3.org/2000/svg" xmlns:xlink="http://www.w3.org/1999/xlink" contentStyleType="text/css" data-diagram-type="SEQUENCE" height="1714px" preserveAspectRatio="none" style="width:460px;height:1714px;background:#FFFFFF;" version="1.1" viewBox="0 0 460 1714" width="460px" zoomAndPan="magnify"><title>FalsoPay: Send Money - System Sequence Diagram</title><defs/><g><text fill="#000000" font-family="sans-serif" font-size="14" font-weight="bold" lengthAdjust="spacing" textLength="344.668" x="58.9314" y="29.5332">FalsoPay: Send Money - System Sequence Diagram</text><rect fill="none" height="1234.5391" style="stroke:#000000;stroke-width:1.5;" width="443.5308" x="10" y="381.0313"/><rect fill="none" height="1125.6484" style="stroke:#000000;stroke-width:1.5;" width="423.5308" x="20" y="482.9219"/><rect fill="none" height="986.4063" style="stroke:#000000;stroke-width:1.5;" width="403.5308" x="30" y="615.1641"/><rect fill="none" height="109.4063" style="stroke:#000000;stroke-width:1.5;" width="363.5308" x="50" y="701.2188"/><rect fill="none" height="79.0547" style="stroke:#000000;stroke-width:1.5;" width="363.5308" x="50" y="824.625"/><rect fill="none" height="539.6484" style="stroke:#000000;stroke-width:1.5;" width="383.5308" x="40" y="1054.9219"/><rect fill="none" height="109.4063" style="stroke:#000000;stroke-width:1.5;" width="363.5308" x="50" y="1232.0313"/><rect fill="none" height="155.5938" style="stroke:#000000;stroke-width:1.5;" width="363.5308" x="50" y="1431.9766"/><g><title>User</title><rect fill="#000000" fill-opacity="0.00000" height="1511.3516" width="8" x="73.7793" y="121.2188"/><line style="stroke:#181818;stroke-width:0.5;stroke-dasharray:5.0,5.0;" x1="77" x2="77" y1="121.2188" y2="1632.5703"/></g><g><title>FalsoPay System</title><rect fill="#000000" fill-opacity="0.00000" height="1511.3516" width="8" x="342.0688" y="121.2188"/><line style="stroke:#181818;stroke-width:0.5;stroke-dasharray:5.0,5.0;" x1="345.6069" x2="345.6069" y1="121.2188" y2="1632.5703"/></g><g class="participant participant-head" data-participant="user"><text fill="#000000" font-family="sans-serif" font-size="14" lengthAdjust="spacing" textLength="29.5586" x="60" y="118.1426">User</text><ellipse cx="77.7793" cy="52.1094" fill="#E2E2F0" rx="8" ry="8" style="stroke:#181818;stroke-width:0.5;"/><path d="M77.7793,60.1094 L77.7793,87.1094 M64.7793,68.1094 L90.7793,68.1094 M77.7793,87.1094 L64.7793,102.1094 M77.7793,87.1094 L90.7793,102.1094" fill="none" style="stroke:#181818;stroke-width:0.5;"/></g><g class="participant participant-tail" data-participant="user"><text fill="#000000" font-family="sans-serif" font-size="14" lengthAdjust="spacing" textLength="29.5586" x="60" y="1646.1035">User</text><ellipse cx="77.7793" cy="1657.6797" fill="#E2E2F0" rx="8" ry="8" style="stroke:#181818;stroke-width:0.5;"/><path d="M77.7793,1665.6797 L77.7793,1692.6797 M64.7793,1673.6797 L90.7793,1673.6797 M77.7793,1692.6797 L64.7793,1707.6797 M77.7793,1692.6797 L90.7793,1707.6797" fill="none" style="stroke:#181818;stroke-width:0.5;"/></g><g class="participant participant-head" data-participant="system"><text fill="#000000" font-family="sans-serif" font-size="14" lengthAdjust="spacing" textLength="108.9238" x="288.6069" y="118.1426">FalsoPay System</text><path d="M325.5688,75.6094 L325.5688,99.6094 M325.5688,87.6094 L342.5688,87.6094" fill="none" style="stroke:#181818;stroke-width:0.5;"/><ellipse cx="354.5688" cy="87.6094" fill="#E2E2F0" rx="12" ry="12" style="stroke:#181818;stroke-width:0.5;"/></g><g class="participant participant-tail" data-participant="system"><text fill="#000000" font-family="sans-serif" font-size="14" lengthAdjust="spacing" textLength="108.9238" x="288.6069" y="1646.1035">FalsoPay System</text><path d="M325.5688,1653.1797 L325.5688,1677.1797 M325.5688,1665.1797 L342.5688,1665.1797" fill="none" style="stroke:#181818;stroke-width:0.5;"/><ellipse cx="354.5688" cy="1665.1797" fill="#E2E2F0" rx="12" ry="12" style="stroke:#181818;stroke-width:0.5;"/></g><g class="message" data-participant-1="user" data-participant-2="system"><polygon fill="#181818" points="334.0688,149.5703,344.0688,153.5703,334.0688,157.5703,338.0688,153.5703" style="stroke:#181818;stroke-width:1;"/><line style="stroke:#181818;stroke-width:1;" x1="77.7793" x2="340.0688" y1="153.5703" y2="153.5703"/><text fill="#000000" font-family="sans-serif" font-size="13" lengthAdjust="spacing" textLength="195.6792" x="114.0845" y="148.7139">Navigate to "Send Money" feature</text></g><g class="message" data-participant-1="system" data-participant-2="user"><polygon fill="#181818" points="88.7793,179.9219,78.7793,183.9219,88.7793,187.9219,84.7793,183.9219" style="stroke:#181818;stroke-width:1;"/><line style="stroke:#181818;stroke-width:1;stroke-dasharray:2.0,2.0;" x1="82.7793" x2="345.0688" y1="183.9219" y2="183.9219"/><text fill="#000000" font-family="sans-serif" font-size="13" lengthAdjust="spacing" textLength="146.6689" x="138.5896" y="179.0654">Display send money form</text></g><g class="message" data-participant-1="user" data-participant-2="system"><polygon fill="#181818" points="334.0688,210.2734,344.0688,214.2734,334.0688,218.2734,338.0688,214.2734" style="stroke:#181818;stroke-width:1;"/><line style="stroke:#181818;stroke-width:1;" x1="77.7793" x2="340.0688" y1="214.2734" y2="214.2734"/><text fill="#000000" font-family="sans-serif" font-size="13" lengthAdjust="spacing" textLength="122.1226" x="150.8628" y="209.417">Select/enter recipient</text></g><g class="message" data-participant-1="user" data-participant-2="system"><polygon fill="#181818" points="334.0688,240.625,344.0688,244.625,334.0688,248.625,338.0688,244.625" style="stroke:#181818;stroke-width:1;"/><line style="stroke:#181818;stroke-width:1;" x1="77.7793" x2="340.0688" y1="244.625" y2="244.625"/><text fill="#000000" font-family="sans-serif" font-size="13" lengthAdjust="spacing" textLength="125.728" x="149.0601" y="239.7686">Enter transfer amount</text></g><g class="message" data-participant-1="user" data-participant-2="system"><polygon fill="#181818" points="334.0688,270.9766,344.0688,274.9766,334.0688,278.9766,338.0688,274.9766" style="stroke:#181818;stroke-width:1;"/><line style="stroke:#181818;stroke-width:1;" x1="77.7793" x2="340.0688" y1="274.9766" y2="274.9766"/><text fill="#000000" font-family="sans-serif" font-size="13" lengthAdjust="spacing" textLength="128.6416" x="147.6033" y="270.1201">Add optional message</text></g><g class="message" data-participant-1="user" data-participant-2="system"><polygon fill="#181818" points="334.0688,301.3281,344.0688,305.3281,334.0688,309.3281,338.0688,305.3281" style="stroke:#181818;stroke-width:1;"/><line style="stroke:#181818;stroke-width:1;" x1="77.7793" x2="340.0688" y1="305.3281" y2="305.3281"/><text fill="#000000" font-family="sans-serif" font-size="13" lengthAdjust="spacing" textLength="130.7871" x="146.5305" y="300.4717">Select transfer method</text></g><g class="message" data-participant-1="user" data-participant-2="system"><polygon fill="#181818" points="334.0688,331.6797,344.0688,335.6797,334.0688,339.6797,338.0688,335.6797" style="stroke:#181818;stroke-width:1;"/><line style="stroke:#181818;stroke-width:1;" x1="77.7793" x2="340.0688" y1="335.6797" y2="335.6797"/><text fill="#000000" font-family="sans-serif" font-size="13" lengthAdjust="spacing" textLength="135.1162" x="144.366" y="330.8232">Submit transfer request</text></g><g class="message" data-participant-1="system" data-participant-2="user"><polygon fill="#181818" points="88.7793,362.0313,78.7793,366.0313,88.7793,370.0313,84.7793,366.0313" style="stroke:#181818;stroke-width:1;"/><line style="stroke:#181818;stroke-width:1;stroke-dasharray:2.0,2.0;" x1="82.7793" x2="345.0688" y1="366.0313" y2="366.0313"/><text fill="#000000" font-family="sans-serif" font-size="13" lengthAdjust="spacing" textLength="172.0024" x="125.9229" y="361.1748">Validate recipient and amount</text></g><path d="M10,381.0313 L70.1709,381.0313 L70.1709,389.3828 L60.1709,399.3828 L10,399.3828 L10,381.0313" fill="#EEEEEE" style="stroke:#000000;stroke-width:1.5;"/><rect fill="none" height="1234.5391" style="stroke:#000000;stroke-width:1.5;" width="443.5308" x="10" y="381.0313"/><text fill="#000000" font-family="sans-serif" font-size="13" font-weight="bold" lengthAdjust="spacing" textLength="15.1709" x="25" y="395.5264">alt</text><text fill="#000000" font-family="sans-serif" font-size="11" font-weight="bold" lengthAdjust="spacing" textLength="91.0723" x="85.1709" y="394.4502">[Invalid recipient]</text><g class="message" data-participant-1="system" data-participant-2="user"><polygon fill="#181818" points="88.7793,417.7344,78.7793,421.7344,88.7793,425.7344,84.7793,421.7344" style="stroke:#181818;stroke-width:1;"/><line style="stroke:#181818;stroke-width:1;stroke-dasharray:2.0,2.0;" x1="82.7793" x2="345.0688" y1="421.7344" y2="421.7344"/><text fill="#000000" font-family="sans-serif" font-size="13" lengthAdjust="spacing" textLength="166.8989" x="128.4746" y="416.8779">Display invalid recipient error</text></g><g class="message" data-participant-1="user" data-participant-2="system"><polygon fill="#181818" points="334.0688,448.0859,344.0688,452.0859,334.0688,456.0859,338.0688,452.0859" style="stroke:#181818;stroke-width:1;"/><line style="stroke:#181818;stroke-width:1;" x1="77.7793" x2="340.0688" y1="452.0859" y2="452.0859"/><text fill="#000000" font-family="sans-serif" font-size="13" lengthAdjust="spacing" textLength="163.2871" x="130.2805" y="447.2295">Correct recipient information</text></g><line style="stroke:#000000;stroke-width:1;stroke-dasharray:2.0,2.0;" x1="10" x2="453.5308" y1="461.0859" y2="461.0859"/><text fill="#000000" font-family="sans-serif" font-size="11" font-weight="bold" lengthAdjust="spacing" textLength="82.5161" x="15" y="472.5049">[Valid recipient]</text><path d="M20,482.9219 L80.1709,482.9219 L80.1709,491.2734 L70.1709,501.2734 L20,501.2734 L20,482.9219" fill="#EEEEEE" style="stroke:#000000;stroke-width:1.5;"/><rect fill="none" height="1125.6484" style="stroke:#000000;stroke-width:1.5;" width="423.5308" x="20" y="482.9219"/><text fill="#000000" font-family="sans-serif" font-size="13" font-weight="bold" lengthAdjust="spacing" textLength="15.1709" x="35" y="497.417">alt</text><text fill="#000000" font-family="sans-serif" font-size="11" font-weight="bold" lengthAdjust="spacing" textLength="127.1392" x="95.1709" y="496.3408">[Amount exceeds limits]</text><g class="message" data-participant-1="system" data-participant-2="user"><polygon fill="#181818" points="88.7793,519.625,78.7793,523.625,88.7793,527.625,84.7793,523.625" style="stroke:#181818;stroke-width:1;"/><line style="stroke:#181818;stroke-width:1;stroke-dasharray:2.0,2.0;" x1="82.7793" x2="345.0688" y1="523.625" y2="523.625"/><text fill="#000000" font-family="sans-serif" font-size="13" lengthAdjust="spacing" textLength="160.3926" x="131.7278" y="518.7686">Display limit exceeded error</text></g><g class="message" data-participant-1="system" data-participant-2="user"><polygon fill="#181818" points="88.7793,549.9766,78.7793,553.9766,88.7793,557.9766,84.7793,553.9766" style="stroke:#181818;stroke-width:1;"/><line style="stroke:#181818;stroke-width:1;stroke-dasharray:2.0,2.0;" x1="82.7793" x2="345.0688" y1="553.9766" y2="553.9766"/><text fill="#000000" font-family="sans-serif" font-size="13" lengthAdjust="spacing" textLength="109.8081" x="157.02" y="549.1201">Show current limits</text></g><g class="message" data-participant-1="user" data-participant-2="system"><polygon fill="#181818" points="334.0688,580.3281,344.0688,584.3281,334.0688,588.3281,338.0688,584.3281" style="stroke:#181818;stroke-width:1;"/><line style="stroke:#181818;stroke-width:1;" x1="77.7793" x2="340.0688" y1="584.3281" y2="584.3281"/><text fill="#000000" font-family="sans-serif" font-size="13" lengthAdjust="spacing" textLength="83.1035" x="170.3723" y="579.4717">Adjust amount</text></g><line style="stroke:#000000;stroke-width:1;stroke-dasharray:2.0,2.0;" x1="20" x2="443.5308" y1="593.3281" y2="593.3281"/><text fill="#000000" font-family="sans-serif" font-size="11" font-weight="bold" lengthAdjust="spacing" textLength="115.4839" x="25" y="604.7471">[Amount within limits]</text><path d="M30,615.1641 L90.1709,615.1641 L90.1709,623.5156 L80.1709,633.5156 L30,633.5156 L30,615.1641" fill="#EEEEEE" style="stroke:#000000;stroke-width:1.5;"/><rect fill="none" height="986.4063" style="stroke:#000000;stroke-width:1.5;" width="403.5308" x="30" y="615.1641"/><text fill="#000000" font-family="sans-serif" font-size="13" font-weight="bold" lengthAdjust="spacing" textLength="15.1709" x="45" y="629.6592">alt</text><text fill="#000000" font-family="sans-serif" font-size="11" font-weight="bold" lengthAdjust="spacing" textLength="98.9893" x="105.1709" y="628.583">[Insufficient funds]</text><g class="message" data-participant-1="system" data-participant-2="user"><polygon fill="#181818" points="88.7793,651.8672,78.7793,655.8672,88.7793,659.8672,84.7793,655.8672" style="stroke:#181818;stroke-width:1;"/><line style="stroke:#181818;stroke-width:1;stroke-dasharray:2.0,2.0;" x1="82.7793" x2="345.0688" y1="655.8672" y2="655.8672"/><text fill="#000000" font-family="sans-serif" font-size="13" lengthAdjust="spacing" textLength="174.1289" x="124.8596" y="651.0107">Display insufficient funds error</text></g><g class="message" data-participant-1="system" data-participant-2="user"><polygon fill="#181818" points="88.7793,682.2188,78.7793,686.2188,88.7793,690.2188,84.7793,686.2188" style="stroke:#181818;stroke-width:1;"/><line style="stroke:#181818;stroke-width:1;stroke-dasharray:2.0,2.0;" x1="82.7793" x2="345.0688" y1="686.2188" y2="686.2188"/><text fill="#000000" font-family="sans-serif" font-size="13" lengthAdjust="spacing" textLength="244.2896" x="89.7793" y="681.3623">Suggest adding funds or changing amount</text></g><path d="M50,701.2188 L115.2109,701.2188 L115.2109,709.5703 L105.2109,719.5703 L50,719.5703 L50,701.2188" fill="#EEEEEE" style="stroke:#000000;stroke-width:1.5;"/><rect fill="none" height="109.4063" style="stroke:#000000;stroke-width:1.5;" width="363.5308" x="50" y="701.2188"/><text fill="#000000" font-family="sans-serif" font-size="13" font-weight="bold" lengthAdjust="spacing" textLength="20.2109" x="65" y="715.7139">opt</text><text fill="#000000" font-family="sans-serif" font-size="11" font-weight="bold" lengthAdjust="spacing" textLength="93.5107" x="130.2109" y="714.6377">[User adds funds]</text><g class="message" data-participant-1="user" data-participant-2="system"><polygon fill="#181818" points="334.0688,737.9219,344.0688,741.9219,334.0688,745.9219,338.0688,741.9219" style="stroke:#181818;stroke-width:1;"/><line style="stroke:#181818;stroke-width:1;" x1="77.7793" x2="340.0688" y1="741.9219" y2="741.9219"/><text fill="#000000" font-family="sans-serif" font-size="13" lengthAdjust="spacing" textLength="126.4771" x="148.6855" y="737.0654">Navigate to add funds</text></g><g class="message" data-participant-1="system" data-participant-2="user"><polygon fill="#181818" points="88.7793,768.2734,78.7793,772.2734,88.7793,776.2734,84.7793,772.2734" style="stroke:#181818;stroke-width:1;"/><line style="stroke:#181818;stroke-width:1;stroke-dasharray:2.0,2.0;" x1="82.7793" x2="345.0688" y1="772.2734" y2="772.2734"/><text fill="#000000" font-family="sans-serif" font-size="13" lengthAdjust="spacing" textLength="131.5234" x="146.1624" y="767.417">Process funds addition</text></g><g class="message" data-participant-1="system" data-participant-2="user"><polygon fill="#181818" points="88.7793,798.625,78.7793,802.625,88.7793,806.625,84.7793,802.625" style="stroke:#181818;stroke-width:1;"/><line style="stroke:#181818;stroke-width:1;stroke-dasharray:2.0,2.0;" x1="82.7793" x2="345.0688" y1="802.625" y2="802.625"/><text fill="#000000" font-family="sans-serif" font-size="13" lengthAdjust="spacing" textLength="177.0361" x="123.406" y="797.7686">Return to send money process</text></g><path d="M50,824.625 L115.2109,824.625 L115.2109,832.9766 L105.2109,842.9766 L50,842.9766 L50,824.625" fill="#EEEEEE" style="stroke:#000000;stroke-width:1.5;"/><rect fill="none" height="79.0547" style="stroke:#000000;stroke-width:1.5;" width="363.5308" x="50" y="824.625"/><text fill="#000000" font-family="sans-serif" font-size="13" font-weight="bold" lengthAdjust="spacing" textLength="20.2109" x="65" y="839.1201">opt</text><text fill="#000000" font-family="sans-serif" font-size="11" font-weight="bold" lengthAdjust="spacing" textLength="122.2461" x="130.2109" y="838.0439">[User changes amount]</text><g class="message" data-participant-1="user" data-participant-2="system"><polygon fill="#181818" points="334.0688,861.3281,344.0688,865.3281,334.0688,869.3281,338.0688,865.3281" style="stroke:#181818;stroke-width:1;"/><line style="stroke:#181818;stroke-width:1;" x1="77.7793" x2="340.0688" y1="865.3281" y2="865.3281"/><text fill="#000000" font-family="sans-serif" font-size="13" lengthAdjust="spacing" textLength="105.5044" x="159.1719" y="860.4717">Enter new amount</text></g><g class="message" data-participant-1="system" data-participant-2="user"><polygon fill="#181818" points="88.7793,891.6797,78.7793,895.6797,88.7793,899.6797,84.7793,895.6797" style="stroke:#181818;stroke-width:1;"/><line style="stroke:#181818;stroke-width:1;stroke-dasharray:2.0,2.0;" x1="82.7793" x2="345.0688" y1="895.6797" y2="895.6797"/><text fill="#000000" font-family="sans-serif" font-size="13" lengthAdjust="spacing" textLength="108.3989" x="157.7246" y="890.8232">Revalidate amount</text></g><line style="stroke:#000000;stroke-width:1;stroke-dasharray:2.0,2.0;" x1="30" x2="433.5308" y1="911.6797" y2="911.6797"/><text fill="#000000" font-family="sans-serif" font-size="11" font-weight="bold" lengthAdjust="spacing" textLength="90.4331" x="35" y="923.0986">[Sufficient funds]</text><g class="message" data-participant-1="system" data-participant-2="user"><polygon fill="#181818" points="88.7793,944.8672,78.7793,948.8672,88.7793,952.8672,84.7793,948.8672" style="stroke:#181818;stroke-width:1;"/><line style="stroke:#181818;stroke-width:1;stroke-dasharray:2.0,2.0;" x1="82.7793" x2="345.0688" y1="948.8672" y2="948.8672"/><text fill="#000000" font-family="sans-serif" font-size="13" lengthAdjust="spacing" textLength="166.8862" x="128.481" y="944.0107">Display transaction summary</text></g><g class="message" data-participant-1="user" data-participant-2="system"><polygon fill="#181818" points="334.0688,975.2188,344.0688,979.2188,334.0688,983.2188,338.0688,979.2188" style="stroke:#181818;stroke-width:1;"/><line style="stroke:#181818;stroke-width:1;" x1="77.7793" x2="340.0688" y1="979.2188" y2="979.2188"/><text fill="#000000" font-family="sans-serif" font-size="13" lengthAdjust="spacing" textLength="112.709" x="155.5696" y="974.3623">Confirm transaction</text></g><g class="message" data-participant-1="system" data-participant-2="user"><polygon fill="#181818" points="88.7793,1005.5703,78.7793,1009.5703,88.7793,1013.5703,84.7793,1009.5703" style="stroke:#181818;stroke-width:1;"/><line style="stroke:#181818;stroke-width:1;stroke-dasharray:2.0,2.0;" x1="82.7793" x2="345.0688" y1="1009.5703" y2="1009.5703"/><text fill="#000000" font-family="sans-serif" font-size="13" lengthAdjust="spacing" textLength="208.1016" x="107.8733" y="1004.7139">Request PIN/biometric authorization</text></g><g class="message" data-participant-1="user" data-participant-2="system"><polygon fill="#181818" points="334.0688,1035.9219,344.0688,1039.9219,334.0688,1043.9219,338.0688,1039.9219" style="stroke:#181818;stroke-width:1;"/><line style="stroke:#181818;stroke-width:1;" x1="77.7793" x2="340.0688" y1="1039.9219" y2="1039.9219"/><text fill="#000000" font-family="sans-serif" font-size="13" lengthAdjust="spacing" textLength="125.709" x="149.0696" y="1035.0654">Provide PIN/biometric</text></g><path d="M40,1054.9219 L100.1709,1054.9219 L100.1709,1063.2734 L90.1709,1073.2734 L40,1073.2734 L40,1054.9219" fill="#EEEEEE" style="stroke:#000000;stroke-width:1.5;"/><rect fill="none" height="539.6484" style="stroke:#000000;stroke-width:1.5;" width="383.5308" x="40" y="1054.9219"/><text fill="#000000" font-family="sans-serif" font-size="13" font-weight="bold" lengthAdjust="spacing" textLength="15.1709" x="55" y="1069.417">alt</text><text fill="#000000" font-family="sans-serif" font-size="11" font-weight="bold" lengthAdjust="spacing" textLength="144.2407" x="115.1709" y="1068.3408">[Authentication successful]</text><g class="message" data-participant-1="system" data-participant-2="user"><polygon fill="#181818" points="88.7793,1091.625,78.7793,1095.625,88.7793,1099.625,84.7793,1095.625" style="stroke:#181818;stroke-width:1;"/><line style="stroke:#181818;stroke-width:1;stroke-dasharray:2.0,2.0;" x1="82.7793" x2="345.0688" y1="1095.625" y2="1095.625"/><text fill="#000000" font-family="sans-serif" font-size="13" lengthAdjust="spacing" textLength="114.1626" x="154.8428" y="1090.7686">Process transaction</text></g><g class="message" data-participant-1="system" data-participant-2="user"><polygon fill="#181818" points="88.7793,1121.9766,78.7793,1125.9766,88.7793,1129.9766,84.7793,1125.9766" style="stroke:#181818;stroke-width:1;"/><line style="stroke:#181818;stroke-width:1;stroke-dasharray:2.0,2.0;" x1="82.7793" x2="345.0688" y1="1125.9766" y2="1125.9766"/><text fill="#000000" font-family="sans-serif" font-size="13" lengthAdjust="spacing" textLength="97.5698" x="163.1392" y="1121.1201">Update balances</text></g><g class="message" data-participant-1="system" data-participant-2="user"><polygon fill="#181818" points="88.7793,1152.3281,78.7793,1156.3281,88.7793,1160.3281,84.7793,1156.3281" style="stroke:#181818;stroke-width:1;"/><line style="stroke:#181818;stroke-width:1;stroke-dasharray:2.0,2.0;" x1="82.7793" x2="345.0688" y1="1156.3281" y2="1156.3281"/><text fill="#000000" font-family="sans-serif" font-size="13" lengthAdjust="spacing" textLength="164.7407" x="129.5537" y="1151.4717">Record transaction in history</text></g><g class="message" data-participant-1="system" data-participant-2="user"><polygon fill="#181818" points="88.7793,1182.6797,78.7793,1186.6797,88.7793,1190.6797,84.7793,1186.6797" style="stroke:#181818;stroke-width:1;"/><line style="stroke:#181818;stroke-width:1;stroke-dasharray:2.0,2.0;" x1="82.7793" x2="345.0688" y1="1186.6797" y2="1186.6797"/><text fill="#000000" font-family="sans-serif" font-size="13" lengthAdjust="spacing" textLength="190.7788" x="116.5347" y="1181.8232">Send confirmation to both parties</text></g><g class="message" data-participant-1="system" data-participant-2="user"><polygon fill="#181818" points="88.7793,1213.0313,78.7793,1217.0313,88.7793,1221.0313,84.7793,1217.0313" style="stroke:#181818;stroke-width:1;"/><line style="stroke:#181818;stroke-width:1;stroke-dasharray:2.0,2.0;" x1="82.7793" x2="345.0688" y1="1217.0313" y2="1217.0313"/><text fill="#000000" font-family="sans-serif" font-size="13" lengthAdjust="spacing" textLength="149.5571" x="137.1455" y="1212.1748">Display success message</text></g><path d="M50,1232.0313 L115.2109,1232.0313 L115.2109,1240.3828 L105.2109,1250.3828 L50,1250.3828 L50,1232.0313" fill="#EEEEEE" style="stroke:#000000;stroke-width:1.5;"/><rect fill="none" height="109.4063" style="stroke:#000000;stroke-width:1.5;" width="363.5308" x="50" y="1232.0313"/><text fill="#000000" font-family="sans-serif" font-size="13" font-weight="bold" lengthAdjust="spacing" textLength="20.2109" x="65" y="1246.5264">opt</text><text fill="#000000" font-family="sans-serif" font-size="11" font-weight="bold" lengthAdjust="spacing" textLength="140.0029" x="130.2109" y="1245.4502">[Save recipient as favorite]</text><g class="message" data-participant-1="system" data-participant-2="user"><polygon fill="#181818" points="88.7793,1268.7344,78.7793,1272.7344,88.7793,1276.7344,84.7793,1272.7344" style="stroke:#181818;stroke-width:1;"/><line style="stroke:#181818;stroke-width:1;stroke-dasharray:2.0,2.0;" x1="82.7793" x2="345.0688" y1="1272.7344" y2="1272.7344"/><text fill="#000000" font-family="sans-serif" font-size="13" lengthAdjust="spacing" textLength="190.7534" x="116.5474" y="1267.8779">Offer to save recipient as favorite</text></g><g class="message" data-participant-1="user" data-participant-2="system"><polygon fill="#181818" points="334.0688,1299.0859,344.0688,1303.0859,334.0688,1307.0859,338.0688,1303.0859" style="stroke:#181818;stroke-width:1;"/><line style="stroke:#181818;stroke-width:1;" x1="77.7793" x2="340.0688" y1="1303.0859" y2="1303.0859"/><text fill="#000000" font-family="sans-serif" font-size="13" lengthAdjust="spacing" textLength="140.1626" x="141.8428" y="1298.2295">Confirm save as favorite</text></g><g class="message" data-participant-1="system" data-participant-2="user"><polygon fill="#181818" points="88.7793,1329.4375,78.7793,1333.4375,88.7793,1337.4375,84.7793,1333.4375" style="stroke:#181818;stroke-width:1;"/><line style="stroke:#181818;stroke-width:1;stroke-dasharray:2.0,2.0;" x1="82.7793" x2="345.0688" y1="1333.4375" y2="1333.4375"/><text fill="#000000" font-family="sans-serif" font-size="13" lengthAdjust="spacing" textLength="143.0762" x="140.386" y="1328.5811">Add recipient to favorites</text></g><line style="stroke:#000000;stroke-width:1;stroke-dasharray:2.0,2.0;" x1="40" x2="423.5308" y1="1349.4375" y2="1349.4375"/><text fill="#000000" font-family="sans-serif" font-size="11" font-weight="bold" lengthAdjust="spacing" textLength="116.1069" x="45" y="1360.8564">[Authentication failed]</text><g class="message" data-participant-1="system" data-participant-2="user"><polygon fill="#181818" points="88.7793,1382.625,78.7793,1386.625,88.7793,1390.625,84.7793,1386.625" style="stroke:#181818;stroke-width:1;"/><line style="stroke:#181818;stroke-width:1;stroke-dasharray:2.0,2.0;" x1="82.7793" x2="345.0688" y1="1386.625" y2="1386.625"/><text fill="#000000" font-family="sans-serif" font-size="13" lengthAdjust="spacing" textLength="158.2471" x="132.8005" y="1381.7686">Display authentication error</text></g><g class="message" data-participant-1="system" data-participant-2="user"><polygon fill="#181818" points="88.7793,1412.9766,78.7793,1416.9766,88.7793,1420.9766,84.7793,1416.9766" style="stroke:#181818;stroke-width:1;"/><line style="stroke:#181818;stroke-width:1;stroke-dasharray:2.0,2.0;" x1="82.7793" x2="345.0688" y1="1416.9766" y2="1416.9766"/><text fill="#000000" font-family="sans-serif" font-size="13" lengthAdjust="spacing" textLength="117.0381" x="153.405" y="1412.1201">Allow retry or cancel</text></g><path d="M50,1431.9766 L110.1709,1431.9766 L110.1709,1440.3281 L100.1709,1450.3281 L50,1450.3281 L50,1431.9766" fill="#EEEEEE" style="stroke:#000000;stroke-width:1.5;"/><rect fill="none" height="155.5938" style="stroke:#000000;stroke-width:1.5;" width="363.5308" x="50" y="1431.9766"/><text fill="#000000" font-family="sans-serif" font-size="13" font-weight="bold" lengthAdjust="spacing" textLength="15.1709" x="65" y="1446.4717">alt</text><text fill="#000000" font-family="sans-serif" font-size="11" font-weight="bold" lengthAdjust="spacing" textLength="68.4761" x="125.1709" y="1445.3955">[User retries]</text><g class="message" data-participant-1="user" data-participant-2="system"><polygon fill="#181818" points="334.0688,1468.6797,344.0688,1472.6797,334.0688,1476.6797,338.0688,1472.6797" style="stroke:#181818;stroke-width:1;"/><line style="stroke:#181818;stroke-width:1;" x1="77.7793" x2="340.0688" y1="1472.6797" y2="1472.6797"/><text fill="#000000" font-family="sans-serif" font-size="13" lengthAdjust="spacing" textLength="132.209" x="145.8196" y="1467.8232">Re-enter PIN/biometric</text></g><g class="message" data-participant-1="system" data-participant-2="user"><polygon fill="#181818" points="88.7793,1499.0313,78.7793,1503.0313,88.7793,1507.0313,84.7793,1503.0313" style="stroke:#181818;stroke-width:1;"/><line style="stroke:#181818;stroke-width:1;stroke-dasharray:2.0,2.0;" x1="82.7793" x2="345.0688" y1="1503.0313" y2="1503.0313"/><text fill="#000000" font-family="sans-serif" font-size="13" lengthAdjust="spacing" textLength="145.9897" x="138.9292" y="1498.1748">Revalidate authentication</text></g><line style="stroke:#000000;stroke-width:1;stroke-dasharray:2.0,2.0;" x1="50" x2="413.5308" y1="1512.0313" y2="1512.0313"/><text fill="#000000" font-family="sans-serif" font-size="11" font-weight="bold" lengthAdjust="spacing" textLength="75.2061" x="55" y="1523.4502">[User cancels]</text><g class="message" data-participant-1="system" data-participant-2="user"><polygon fill="#181818" points="88.7793,1545.2188,78.7793,1549.2188,88.7793,1553.2188,84.7793,1549.2188" style="stroke:#181818;stroke-width:1;"/><line style="stroke:#181818;stroke-width:1;stroke-dasharray:2.0,2.0;" x1="82.7793" x2="345.0688" y1="1549.2188" y2="1549.2188"/><text fill="#000000" font-family="sans-serif" font-size="13" lengthAdjust="spacing" textLength="107.6689" x="158.0896" y="1544.3623">Cancel transaction</text></g><g class="message" data-participant-1="system" data-participant-2="user"><polygon fill="#181818" points="88.7793,1575.5703,78.7793,1579.5703,88.7793,1583.5703,84.7793,1579.5703" style="stroke:#181818;stroke-width:1;"/><line style="stroke:#181818;stroke-width:1;stroke-dasharray:2.0,2.0;" x1="82.7793" x2="345.0688" y1="1579.5703" y2="1579.5703"/><text fill="#000000" font-family="sans-serif" font-size="13" lengthAdjust="spacing" textLength="171.2534" x="126.2974" y="1574.7139">Display cancellation message</text></g><!--SRC=[dLRRRjim37ttLn1v3_hUXm5jTa61jGiQTE-CJJjQPIcJv7JPru-KdCRn9KaNeAXYyv27Hxp4logpHOSrUFhTaCdfaRp7YkwqgWpaP0Avp0-ibkY2ojKMJRYthY2tiDewkDUOlrumPulAsSOK2V9TLPlmpH6PB0igQ8BPLzJUBd5_2oio1JnQGtkOmshl0zNyBFc4pmeh3ZBBCim3UvgzU78pG0yD7xArn42tF_fhFKGJ7uzP9gOm_zH-luKdtAaA0q6mC3k6dq5961f7MJA4EMC4Uyiq_5QpSo_6TUHQMZVYUaMQyd0J9GL7B8VYyy3iItmV71fVyW5hpcDeTLSKOBT1MOCQwdHd4n6FlceA6riCpPfrhJfcJXJs8Hlc-XErAaITT_g0d7NBCKCTuC7inAYJ8F1dKZNLDmTophe8wlDSMESadwEjCY8rYWmPQK-9O2-siBgB387-v4I51wquOH_VdcKNxLeK5HrgewZLnhv1tZ193jKBCRo_NuqF1-N48l9lURwfi56cxoF9wvkov5wI62LN-F7r1Ptxk5usunarLKL2ioYKgLeSjrg-GLF9amx_m-Va2vSeI5kA1p_2TqoQRWioR08ruBfqDkS-Q4aAurWM5t7Fn7rj95YdWxV9sGcQtrwHQ9I6_9WoOyccRZVqDWKOuRixTE48f4ioLjJglyebpW8UgwmW-AQkUOvcvz9OM5CgLtTnqrgDf1G73YmVdcxMolAOSYe7R7XQEVKN1zxwqVdgTwgWK_nq_3WGs3bhed9iSypblij6NrzeKxcEWbwsySRMg95tbx_ccdDUh2SNmHDXepolklrbU5nTURgLb28N-Dg63Mnb5r_3u7sn9MtUjqmVE7WWlR32tScMuBx47Tzc6E97W_yePHD9KtxCqLHXHZSVPY5RzXYRsHpWG_dwqo6DyzCgAr5fAgvN7a_Xmu4zJbfhtaEEcs0VPxKKdBvyQz8LSO89Sgn0nkHzfddwFJFTUbSDifD4XzgAbccwncJyTG4MqVXidvwLFmNJIVofwX_SUtS0jsVvBt__0000]--></g></svg>