<svg xmlns="http://www.w3.org/2000/svg" xmlns:xlink="http://www.w3.org/1999/xlink" contentStyleType="text/css" data-diagram-type="SEQUENCE" height="1143px" preserveAspectRatio="none" style="width:455px;height:1143px;background:#FFFFFF;" version="1.1" viewBox="0 0 455 1143" width="455px" zoomAndPan="magnify"><title>FalsoPay: User Registration - System Sequence Diagram</title><defs/><g><text fill="#000000" font-family="sans-serif" font-size="14" font-weight="bold" lengthAdjust="spacing" textLength="378.9092" x="39.1272" y="29.5332">FalsoPay: User Registration - System Sequence Diagram</text><rect fill="none" height="79.0547" style="stroke:#000000;stroke-width:1.5;" width="398.1636" x="30" y="350.6797"/><rect fill="none" height="600.3516" style="stroke:#000000;stroke-width:1.5;" width="438.1636" x="10" y="443.7344"/><rect fill="none" height="339.7031" style="stroke:#000000;stroke-width:1.5;" width="418.1636" x="20" y="697.3828"/><rect fill="none" height="139.7578" style="stroke:#000000;stroke-width:1.5;" width="398.1636" x="30" y="890.3281"/><g><title>User</title><rect fill="#000000" fill-opacity="0.00000" height="939.8672" width="8" x="53.7793" y="121.2188"/><line style="stroke:#181818;stroke-width:0.5;stroke-dasharray:5.0,5.0;" x1="57" x2="57" y1="121.2188" y2="1061.0859"/></g><g><title>FalsoPay System</title><rect fill="#000000" fill-opacity="0.00000" height="939.8672" width="8" x="356.7017" y="121.2188"/><line style="stroke:#181818;stroke-width:0.5;stroke-dasharray:5.0,5.0;" x1="360.2397" x2="360.2397" y1="121.2188" y2="1061.0859"/></g><g class="participant participant-head" data-participant="user"><text fill="#000000" font-family="sans-serif" font-size="14" lengthAdjust="spacing" textLength="29.5586" x="40" y="118.1426">User</text><ellipse cx="57.7793" cy="52.1094" fill="#E2E2F0" rx="8" ry="8" style="stroke:#181818;stroke-width:0.5;"/><path d="M57.7793,60.1094 L57.7793,87.1094 M44.7793,68.1094 L70.7793,68.1094 M57.7793,87.1094 L44.7793,102.1094 M57.7793,87.1094 L70.7793,102.1094" fill="none" style="stroke:#181818;stroke-width:0.5;"/></g><g class="participant participant-tail" data-participant="user"><text fill="#000000" font-family="sans-serif" font-size="14" lengthAdjust="spacing" textLength="29.5586" x="40" y="1074.6191">User</text><ellipse cx="57.7793" cy="1086.1953" fill="#E2E2F0" rx="8" ry="8" style="stroke:#181818;stroke-width:0.5;"/><path d="M57.7793,1094.1953 L57.7793,1121.1953 M44.7793,1102.1953 L70.7793,1102.1953 M57.7793,1121.1953 L44.7793,1136.1953 M57.7793,1121.1953 L70.7793,1136.1953" fill="none" style="stroke:#181818;stroke-width:0.5;"/></g><g class="participant participant-head" data-participant="system"><text fill="#000000" font-family="sans-serif" font-size="14" lengthAdjust="spacing" textLength="108.9238" x="303.2397" y="118.1426">FalsoPay System</text><path d="M340.2017,75.6094 L340.2017,99.6094 M340.2017,87.6094 L357.2017,87.6094" fill="none" style="stroke:#181818;stroke-width:0.5;"/><ellipse cx="369.2017" cy="87.6094" fill="#E2E2F0" rx="12" ry="12" style="stroke:#181818;stroke-width:0.5;"/></g><g class="participant participant-tail" data-participant="system"><text fill="#000000" font-family="sans-serif" font-size="14" lengthAdjust="spacing" textLength="108.9238" x="303.2397" y="1074.6191">FalsoPay System</text><path d="M340.2017,1081.6953 L340.2017,1105.6953 M340.2017,1093.6953 L357.2017,1093.6953" fill="none" style="stroke:#181818;stroke-width:0.5;"/><ellipse cx="369.2017" cy="1093.6953" fill="#E2E2F0" rx="12" ry="12" style="stroke:#181818;stroke-width:0.5;"/></g><g class="message" data-participant-1="user" data-participant-2="system"><polygon fill="#181818" points="348.7017,149.5703,358.7017,153.5703,348.7017,157.5703,352.7017,153.5703" style="stroke:#181818;stroke-width:1;"/><line style="stroke:#181818;stroke-width:1;" x1="57.7793" x2="354.7017" y1="153.5703" y2="153.5703"/><text fill="#000000" font-family="sans-serif" font-size="13" lengthAdjust="spacing" textLength="132.2534" x="143.1138" y="148.7139">Open registration page</text></g><g class="message" data-participant-1="system" data-participant-2="user"><polygon fill="#181818" points="68.7793,179.9219,58.7793,183.9219,68.7793,187.9219,64.7793,183.9219" style="stroke:#181818;stroke-width:1;"/><line style="stroke:#181818;stroke-width:1;stroke-dasharray:2.0,2.0;" x1="62.7793" x2="359.7017" y1="183.9219" y2="183.9219"/><text fill="#000000" font-family="sans-serif" font-size="13" lengthAdjust="spacing" textLength="140.1563" x="139.1624" y="179.0654">Display registration form</text></g><g class="message" data-participant-1="user" data-participant-2="system"><polygon fill="#181818" points="348.7017,210.2734,358.7017,214.2734,348.7017,218.2734,352.7017,214.2734" style="stroke:#181818;stroke-width:1;"/><line style="stroke:#181818;stroke-width:1;" x1="57.7793" x2="354.7017" y1="214.2734" y2="214.2734"/><text fill="#000000" font-family="sans-serif" font-size="13" lengthAdjust="spacing" textLength="278.9224" x="69.7793" y="209.417">Enter personal information (name, email, phone)</text></g><g class="message" data-participant-1="user" data-participant-2="system"><polygon fill="#181818" points="348.7017,240.625,358.7017,244.625,348.7017,248.625,352.7017,244.625" style="stroke:#181818;stroke-width:1;"/><line style="stroke:#181818;stroke-width:1;" x1="57.7793" x2="354.7017" y1="244.625" y2="244.625"/><text fill="#000000" font-family="sans-serif" font-size="13" lengthAdjust="spacing" textLength="98.2681" x="160.1064" y="239.7686">Create password</text></g><g class="message" data-participant-1="user" data-participant-2="system"><polygon fill="#181818" points="348.7017,270.9766,358.7017,274.9766,348.7017,278.9766,352.7017,274.9766" style="stroke:#181818;stroke-width:1;"/><line style="stroke:#181818;stroke-width:1;" x1="57.7793" x2="354.7017" y1="274.9766" y2="274.9766"/><text fill="#000000" font-family="sans-serif" font-size="13" lengthAdjust="spacing" textLength="163.3062" x="127.5874" y="270.1201">Accept terms and conditions</text></g><g class="message" data-participant-1="user" data-participant-2="system"><polygon fill="#181818" points="348.7017,301.3281,358.7017,305.3281,348.7017,309.3281,352.7017,305.3281" style="stroke:#181818;stroke-width:1;"/><line style="stroke:#181818;stroke-width:1;" x1="57.7793" x2="354.7017" y1="305.3281" y2="305.3281"/><text fill="#000000" font-family="sans-serif" font-size="13" lengthAdjust="spacing" textLength="108.3799" x="155.0505" y="300.4717">Submit registration</text></g><g class="message" data-participant-1="system" data-participant-2="user"><polygon fill="#181818" points="68.7793,331.6797,58.7793,335.6797,68.7793,339.6797,64.7793,335.6797" style="stroke:#181818;stroke-width:1;"/><line style="stroke:#181818;stroke-width:1;stroke-dasharray:2.0,2.0;" x1="62.7793" x2="359.7017" y1="335.6797" y2="335.6797"/><text fill="#000000" font-family="sans-serif" font-size="13" lengthAdjust="spacing" textLength="106.958" x="155.7615" y="330.8232">Request validation</text></g><path d="M30,350.6797 L90.1709,350.6797 L90.1709,359.0313 L80.1709,369.0313 L30,369.0313 L30,350.6797" fill="#EEEEEE" style="stroke:#000000;stroke-width:1.5;"/><rect fill="none" height="79.0547" style="stroke:#000000;stroke-width:1.5;" width="398.1636" x="30" y="350.6797"/><text fill="#000000" font-family="sans-serif" font-size="13" font-weight="bold" lengthAdjust="spacing" textLength="15.1709" x="45" y="365.1748">alt</text><text fill="#000000" font-family="sans-serif" font-size="11" font-weight="bold" lengthAdjust="spacing" textLength="105.7192" x="105.1709" y="364.0986">[Invalid information]</text><g class="message" data-participant-1="system" data-participant-2="user"><polygon fill="#181818" points="68.7793,387.3828,58.7793,391.3828,68.7793,395.3828,64.7793,391.3828" style="stroke:#181818;stroke-width:1;"/><line style="stroke:#181818;stroke-width:1;stroke-dasharray:2.0,2.0;" x1="62.7793" x2="359.7017" y1="391.3828" y2="391.3828"/><text fill="#000000" font-family="sans-serif" font-size="13" lengthAdjust="spacing" textLength="138.7217" x="139.8796" y="386.5264">Display validation errors</text></g><g class="message" data-participant-1="user" data-participant-2="system"><polygon fill="#181818" points="348.7017,417.7344,358.7017,421.7344,348.7017,425.7344,352.7017,421.7344" style="stroke:#181818;stroke-width:1;"/><line style="stroke:#181818;stroke-width:1;" x1="57.7793" x2="354.7017" y1="421.7344" y2="421.7344"/><text fill="#000000" font-family="sans-serif" font-size="13" lengthAdjust="spacing" textLength="189.2998" x="114.5906" y="416.8779">Correct information and resubmit</text></g><path d="M10,443.7344 L70.1709,443.7344 L70.1709,452.0859 L60.1709,462.0859 L10,462.0859 L10,443.7344" fill="#EEEEEE" style="stroke:#000000;stroke-width:1.5;"/><rect fill="none" height="600.3516" style="stroke:#000000;stroke-width:1.5;" width="438.1636" x="10" y="443.7344"/><text fill="#000000" font-family="sans-serif" font-size="13" font-weight="bold" lengthAdjust="spacing" textLength="15.1709" x="25" y="458.2295">alt</text><text fill="#000000" font-family="sans-serif" font-size="11" font-weight="bold" lengthAdjust="spacing" textLength="170.5537" x="85.1709" y="457.1533">[Email/phone already registered]</text><g class="message" data-participant-1="system" data-participant-2="user"><polygon fill="#181818" points="68.7793,480.4375,58.7793,484.4375,68.7793,488.4375,64.7793,484.4375" style="stroke:#181818;stroke-width:1;"/><line style="stroke:#181818;stroke-width:1;stroke-dasharray:2.0,2.0;" x1="62.7793" x2="359.7017" y1="484.4375" y2="484.4375"/><text fill="#000000" font-family="sans-serif" font-size="13" lengthAdjust="spacing" textLength="165.4644" x="126.5083" y="479.5811">Notify account already exists</text></g><g class="message" data-participant-1="system" data-participant-2="user"><polygon fill="#181818" points="68.7793,510.7891,58.7793,514.7891,68.7793,518.7891,64.7793,514.7891" style="stroke:#181818;stroke-width:1;"/><line style="stroke:#181818;stroke-width:1;stroke-dasharray:2.0,2.0;" x1="62.7793" x2="359.7017" y1="514.7891" y2="514.7891"/><text fill="#000000" font-family="sans-serif" font-size="13" lengthAdjust="spacing" textLength="117.8125" x="150.3342" y="509.9326">Suggest login option</text></g><line style="stroke:#000000;stroke-width:1;stroke-dasharray:2.0,2.0;" x1="10" x2="448.1636" y1="523.7891" y2="523.7891"/><text fill="#000000" font-family="sans-serif" font-size="11" font-weight="bold" lengthAdjust="spacing" textLength="157.0938" x="15" y="535.208">[Account creation successful]</text><g class="message" data-participant-1="system" data-participant-2="user"><polygon fill="#181818" points="68.7793,556.9766,58.7793,560.9766,68.7793,564.9766,64.7793,560.9766" style="stroke:#181818;stroke-width:1;"/><line style="stroke:#181818;stroke-width:1;stroke-dasharray:2.0,2.0;" x1="62.7793" x2="359.7017" y1="560.9766" y2="560.9766"/><text fill="#000000" font-family="sans-serif" font-size="13" lengthAdjust="spacing" textLength="88.1626" x="165.1592" y="556.1201">Create account</text></g><g class="message" data-participant-1="system" data-participant-2="user"><polygon fill="#181818" points="68.7793,587.3281,58.7793,591.3281,68.7793,595.3281,64.7793,591.3281" style="stroke:#181818;stroke-width:1;"/><line style="stroke:#181818;stroke-width:1;stroke-dasharray:2.0,2.0;" x1="62.7793" x2="359.7017" y1="591.3281" y2="591.3281"/><text fill="#000000" font-family="sans-serif" font-size="13" lengthAdjust="spacing" textLength="151.7534" x="133.3638" y="586.4717">Generate verification code</text></g><g class="message" data-participant-1="system" data-participant-2="user"><polygon fill="#181818" points="68.7793,617.6797,58.7793,621.6797,68.7793,625.6797,64.7793,621.6797" style="stroke:#181818;stroke-width:1;"/><line style="stroke:#181818;stroke-width:1;stroke-dasharray:2.0,2.0;" x1="62.7793" x2="359.7017" y1="621.6797" y2="621.6797"/><text fill="#000000" font-family="sans-serif" font-size="13" lengthAdjust="spacing" textLength="162.5698" x="127.9556" y="616.8232">Send verification email/SMS</text></g><g class="message" data-participant-1="system" data-participant-2="user"><polygon fill="#181818" points="68.7793,648.0313,58.7793,652.0313,68.7793,656.0313,64.7793,652.0313" style="stroke:#181818;stroke-width:1;"/><line style="stroke:#181818;stroke-width:1;stroke-dasharray:2.0,2.0;" x1="62.7793" x2="359.7017" y1="652.0313" y2="652.0313"/><text fill="#000000" font-family="sans-serif" font-size="13" lengthAdjust="spacing" textLength="177.7344" x="120.3733" y="647.1748">Display verification instructions</text></g><g class="message" data-participant-1="user" data-participant-2="system"><polygon fill="#181818" points="348.7017,678.3828,358.7017,682.3828,348.7017,686.3828,352.7017,682.3828" style="stroke:#181818;stroke-width:1;"/><line style="stroke:#181818;stroke-width:1;" x1="57.7793" x2="354.7017" y1="682.3828" y2="682.3828"/><text fill="#000000" font-family="sans-serif" font-size="13" lengthAdjust="spacing" textLength="128.6226" x="144.9292" y="677.5264">Enter verification code</text></g><path d="M20,697.3828 L80.1709,697.3828 L80.1709,705.7344 L70.1709,715.7344 L20,715.7344 L20,697.3828" fill="#EEEEEE" style="stroke:#000000;stroke-width:1.5;"/><rect fill="none" height="339.7031" style="stroke:#000000;stroke-width:1.5;" width="418.1636" x="20" y="697.3828"/><text fill="#000000" font-family="sans-serif" font-size="13" font-weight="bold" lengthAdjust="spacing" textLength="15.1709" x="35" y="711.8779">alt</text><text fill="#000000" font-family="sans-serif" font-size="11" font-weight="bold" lengthAdjust="spacing" textLength="124.083" x="95.1709" y="710.8018">[Valid verification code]</text><g class="message" data-participant-1="system" data-participant-2="user"><polygon fill="#181818" points="68.7793,734.0859,58.7793,738.0859,68.7793,742.0859,64.7793,738.0859" style="stroke:#181818;stroke-width:1;"/><line style="stroke:#181818;stroke-width:1;stroke-dasharray:2.0,2.0;" x1="62.7793" x2="359.7017" y1="738.0859" y2="738.0859"/><text fill="#000000" font-family="sans-serif" font-size="13" lengthAdjust="spacing" textLength="95.3862" x="161.5474" y="733.2295">Activate account</text></g><g class="message" data-participant-1="system" data-participant-2="user"><polygon fill="#181818" points="68.7793,764.4375,58.7793,768.4375,68.7793,772.4375,64.7793,768.4375" style="stroke:#181818;stroke-width:1;"/><line style="stroke:#181818;stroke-width:1;stroke-dasharray:2.0,2.0;" x1="62.7793" x2="359.7017" y1="768.4375" y2="768.4375"/><text fill="#000000" font-family="sans-serif" font-size="13" lengthAdjust="spacing" textLength="153.8926" x="132.2942" y="763.5811">Display welcome message</text></g><g class="message" data-participant-1="system" data-participant-2="user"><polygon fill="#181818" points="68.7793,794.7891,58.7793,798.7891,68.7793,802.7891,64.7793,798.7891" style="stroke:#181818;stroke-width:1;"/><line style="stroke:#181818;stroke-width:1;stroke-dasharray:2.0,2.0;" x1="62.7793" x2="359.7017" y1="798.7891" y2="798.7891"/><text fill="#000000" font-family="sans-serif" font-size="13" lengthAdjust="spacing" textLength="127.9116" x="145.2847" y="793.9326">Redirect to dashboard</text></g><line style="stroke:#000000;stroke-width:1;stroke-dasharray:2.0,2.0;" x1="20" x2="438.1636" y1="807.7891" y2="807.7891"/><text fill="#000000" font-family="sans-serif" font-size="11" font-weight="bold" lengthAdjust="spacing" textLength="132.6392" x="25" y="819.208">[Invalid verification code]</text><g class="message" data-participant-1="system" data-participant-2="user"><polygon fill="#181818" points="68.7793,840.9766,58.7793,844.9766,68.7793,848.9766,64.7793,844.9766" style="stroke:#181818;stroke-width:1;"/><line style="stroke:#181818;stroke-width:1;stroke-dasharray:2.0,2.0;" x1="62.7793" x2="359.7017" y1="844.9766" y2="844.9766"/><text fill="#000000" font-family="sans-serif" font-size="13" lengthAdjust="spacing" textLength="181.2065" x="118.6372" y="840.1201">Display "Invalid code" message</text></g><g class="message" data-participant-1="system" data-participant-2="user"><polygon fill="#181818" points="68.7793,871.3281,58.7793,875.3281,68.7793,879.3281,64.7793,875.3281" style="stroke:#181818;stroke-width:1;"/><line style="stroke:#181818;stroke-width:1;stroke-dasharray:2.0,2.0;" x1="62.7793" x2="359.7017" y1="875.3281" y2="875.3281"/><text fill="#000000" font-family="sans-serif" font-size="13" lengthAdjust="spacing" textLength="151.7534" x="133.3638" y="870.4717">Allow to request new code</text></g><path d="M30,890.3281 L95.2109,890.3281 L95.2109,898.6797 L85.2109,908.6797 L30,908.6797 L30,890.3281" fill="#EEEEEE" style="stroke:#000000;stroke-width:1.5;"/><rect fill="none" height="139.7578" style="stroke:#000000;stroke-width:1.5;" width="398.1636" x="30" y="890.3281"/><text fill="#000000" font-family="sans-serif" font-size="13" font-weight="bold" lengthAdjust="spacing" textLength="20.2109" x="45" y="904.8232">opt</text><text fill="#000000" font-family="sans-serif" font-size="11" font-weight="bold" lengthAdjust="spacing" textLength="133.8745" x="110.2109" y="903.7471">[User requests new code]</text><g class="message" data-participant-1="user" data-participant-2="system"><polygon fill="#181818" points="348.7017,927.0313,358.7017,931.0313,348.7017,935.0313,352.7017,931.0313" style="stroke:#181818;stroke-width:1;"/><line style="stroke:#181818;stroke-width:1;" x1="57.7793" x2="354.7017" y1="931.0313" y2="931.0313"/><text fill="#000000" font-family="sans-serif" font-size="13" lengthAdjust="spacing" textLength="173.4307" x="122.5251" y="926.1748">Request new verification code</text></g><g class="message" data-participant-1="system" data-participant-2="user"><polygon fill="#181818" points="68.7793,957.3828,58.7793,961.3828,68.7793,965.3828,64.7793,961.3828" style="stroke:#181818;stroke-width:1;"/><line style="stroke:#181818;stroke-width:1;stroke-dasharray:2.0,2.0;" x1="62.7793" x2="359.7017" y1="961.3828" y2="961.3828"/><text fill="#000000" font-family="sans-serif" font-size="13" lengthAdjust="spacing" textLength="179.2134" x="119.6338" y="956.5264">Generate new verification code</text></g><g class="message" data-participant-1="system" data-participant-2="user"><polygon fill="#181818" points="68.7793,987.7344,58.7793,991.7344,68.7793,995.7344,64.7793,991.7344" style="stroke:#181818;stroke-width:1;"/><line style="stroke:#181818;stroke-width:1;stroke-dasharray:2.0,2.0;" x1="62.7793" x2="359.7017" y1="991.7344" y2="991.7344"/><text fill="#000000" font-family="sans-serif" font-size="13" lengthAdjust="spacing" textLength="190.0298" x="114.2256" y="986.8779">Send new verification email/SMS</text></g><g class="message" data-participant-1="system" data-participant-2="user"><polygon fill="#181818" points="68.7793,1018.0859,58.7793,1022.0859,68.7793,1026.0859,64.7793,1022.0859" style="stroke:#181818;stroke-width:1;"/><line style="stroke:#181818;stroke-width:1;stroke-dasharray:2.0,2.0;" x1="62.7793" x2="359.7017" y1="1022.0859" y2="1022.0859"/><text fill="#000000" font-family="sans-serif" font-size="13" lengthAdjust="spacing" textLength="177.7344" x="120.3733" y="1017.2295">Display verification instructions</text></g><!--SRC=[dLJ1Zjem4BtxAqOvjTAkziwX4cotLQLkko9gxuCp10l7JcSSA7zVsmcxq0HGYmGOyjxCcpSlaQrnBJ8s8FIh8wVfcKImfharjGDDBX0h6Q5Ua8FHfaKN5fuhuaTlFSF2ejxUW4T4pRvpLK_vQkfDABU7XUr8gM229IW-eHN_WeSP_11YM59j9306untSGtcGG0sKGt7uQB2EtGgbK8TOiaYa0b2WYmUrIisG3szbXmeP8lceL8B2_OVXzmo-j-I0JnktqHRLNuRxY4oCMMmkhOqbpw1hpnCbdvAPq1ABTsZ1k0Jh2UySDdG7rA2nTz1klAFt8_uZ4mQAEaJsqVJHzRdMr0Q8JHe1T1LexogJwii8MtQhneGprMeyt39PB05sQ4qrWD06-EBoFwSZA8YlY-wy5G1YzYmPFXhGCvCEPywaEPWaorNagbx0KpBg8Vi4QAClrN43n5HDQ_dcWraV0BMEWGYlDFeTMJ9DARkwJlDRNni7lis3aXLANkSgEkqawPGkkY-oxknqgM5vG_Tfp6Ton0cr8pPhe_lAsbTqGLxqunoR0_HGFfStrd7ACIuceDDzJX9jSZTzUAU5vO-qbfyv5TEWIK7ps7RtjozNfU_9QjyGDFrpwZ9XIPN9QGeUAfJDoYFtoSWBF4Ru7yGU9HH7Re8NjvNChVNx98E7sydH_hpLwo56h7_a3L0POwUMipmfV7cWwvdx3sxEtuXtdi6RRbxFOjwN6_OMlzFx3m00]--></g></svg>