<svg xmlns="http://www.w3.org/2000/svg" xmlns:xlink="http://www.w3.org/1999/xlink" contentStyleType="text/css" data-diagram-type="CLASS" height="138px" preserveAspectRatio="none" style="width:2562px;height:138px;background:#FFFFFF;" version="1.1" viewBox="0 0 2562 138" width="2562px" zoomAndPan="magnify"><defs/><g><g class="entity" data-entity="User" data-source-line="3" data-uid="ent0002" id="entity_User"><rect fill="#FFFFFF" height="37.6094" rx="2.5" ry="2.5" style="stroke:#181818;stroke-width:0.5;" width="115.1514" x="7" y="56.3564"/><text fill="#000000" font-family="sans-serif" font-size="14" lengthAdjust="spacing" textLength="101.1514" x="14" y="72.8896">Registered User</text><line style="stroke:#181818;stroke-width:0.5;" x1="8" x2="121.1514" y1="77.9658" y2="77.9658"/></g><g class="entity" data-entity="App" data-source-line="4" data-uid="ent0003" id="entity_App"><rect fill="#FFFFFF" height="37.6094" rx="2.5" ry="2.5" style="stroke:#181818;stroke-width:0.5;" width="101.1582" x="380" y="56.3564"/><text fill="#000000" font-family="sans-serif" font-size="14" lengthAdjust="spacing" textLength="87.1582" x="387" y="72.8896">FalsoPay App</text><line style="stroke:#181818;stroke-width:0.5;" x1="381" x2="480.1582" y1="77.9658" y2="77.9658"/></g><g class="entity" data-entity="Gateway" data-source-line="5" data-uid="ent0004" id="entity_Gateway"><rect fill="#FFFFFF" height="37.6094" rx="2.5" ry="2.5" style="stroke:#181818;stroke-width:0.5;" width="95.7031" x="1014.5" y="56.3564"/><text fill="#000000" font-family="sans-serif" font-size="14" lengthAdjust="spacing" textLength="81.7031" x="1021.5" y="72.8896">API Gateway</text><line style="stroke:#181818;stroke-width:0.5;" x1="1015.5" x2="1109.2031" y1="77.9658" y2="77.9658"/></g><g class="entity" data-entity="TransService" data-source-line="6" data-uid="ent0005" id="entity_TransService"><rect fill="#FFFFFF" height="37.6094" rx="2.5" ry="2.5" style="stroke:#181818;stroke-width:0.5;" width="137.7168" x="1290.5" y="56.3564"/><text fill="#000000" font-family="sans-serif" font-size="14" lengthAdjust="spacing" textLength="123.7168" x="1297.5" y="72.8896">Transaction Service</text><line style="stroke:#181818;stroke-width:0.5;" x1="1291.5" x2="1427.2168" y1="77.9658" y2="77.9658"/></g><g class="entity" data-entity="UserService" data-source-line="7" data-uid="ent0006" id="entity_UserService"><rect fill="#FFFFFF" height="37.6094" rx="2.5" ry="2.5" style="stroke:#181818;stroke-width:0.5;" width="94.1309" x="2462.5" y="56.3564"/><text fill="#000000" font-family="sans-serif" font-size="14" lengthAdjust="spacing" textLength="80.1309" x="2469.5" y="72.8896">User Service</text><line style="stroke:#181818;stroke-width:0.5;" x1="2463.5" x2="2555.6309" y1="77.9658" y2="77.9658"/></g><g class="entity" data-entity="NotifService" data-source-line="8" data-uid="ent0007" id="entity_NotifService"><rect fill="#FFFFFF" height="37.6094" rx="2.5" ry="2.5" style="stroke:#181818;stroke-width:0.5;" width="133.8271" x="1855.5" y="56.3564"/><text fill="#000000" font-family="sans-serif" font-size="14" lengthAdjust="spacing" textLength="119.8271" x="1862.5" y="72.8896">Notification Service</text><line style="stroke:#181818;stroke-width:0.5;" x1="1856.5" x2="1988.3271" y1="77.9658" y2="77.9658"/></g><g class="entity" data-entity="DB" data-source-line="9" data-uid="ent0008" id="entity_DB"><rect fill="#FFFFFF" height="37.6094" rx="2.5" ry="2.5" style="stroke:#181818;stroke-width:0.5;" width="73.9307" x="2254.5" y="56.3564"/><text fill="#000000" font-family="sans-serif" font-size="14" lengthAdjust="spacing" textLength="59.9307" x="2261.5" y="72.8896">Database</text><line style="stroke:#181818;stroke-width:0.5;" x1="2255.5" x2="2327.4307" y1="77.9658" y2="77.9658"/></g><!--link User to App--><!--link User to App--><g class="link" data-entity-1="User" data-entity-2="App" data-source-line="20" data-uid="lnk15" id="link_User_App"><path codeLine="20" d="M122.04,90.0464 C134.63,92.6664 147.95,94.9964 160.5,96.3564 C200.49,100.6764 301.55,101.0064 341.5,96.3564 C353.96,94.9064 361.3524,93.6901 373.7124,90.8501" fill="none" id="User-to-App" style="stroke:#181818;stroke-width:1;"/><polygon fill="#181818" points="379.56,89.5064,369.8928,87.6235,374.687,90.6261,371.6843,95.4203,379.56,89.5064" style="stroke:#181818;stroke-width:1;"/><text fill="#000000" font-family="sans-serif" font-size="13" lengthAdjust="spacing" textLength="179.2197" x="161.5" y="92.8516">1. Select request money option</text></g><!--link User to App--><g class="link" data-entity-1="User" data-entity-2="App" data-source-line="22" data-uid="lnk17" id="link_User_App"><path codeLine="22" d="M122.09,75.3564 C192.95,75.3564 306.15,75.3564 373.73,75.3564" fill="none" id="User-to-App-1" style="stroke:#181818;stroke-width:1;"/><polygon fill="#181818" points="379.73,75.3564,370.73,71.3564,374.73,75.3564,370.73,79.3564,379.73,75.3564" style="stroke:#181818;stroke-width:1;"/><text fill="#000000" font-family="sans-serif" font-size="13" lengthAdjust="spacing" textLength="221.1333" x="140.5" y="68.8516">3. Enter recipient, amount, and reason</text></g><!--link App to User--><g class="link" data-entity-1="App" data-entity-2="User" data-source-line="33" data-uid="lnk27" id="link_App_User"><path codeLine="33" d="M379.64,57.8564 C373.92,56.4264 368.12,55.2064 362.5,54.3564 C313.5,46.9564 188.59,47.6064 139.5,54.3564 C133.87,55.1264 133.9271,54.9049 128.1671,56.1849" fill="none" id="App-to-User" style="stroke:#181818;stroke-width:1;"/><polygon fill="#181818" points="122.31,57.4864,131.9634,59.4388,127.1909,56.4018,130.228,51.6293,122.31,57.4864" style="stroke:#181818;stroke-width:1;"/><text fill="#000000" font-family="sans-serif" font-size="13" lengthAdjust="spacing" textLength="171.9961" x="165.5" y="44.8516">13a. Recipient not found error</text></g><!--link App to User--><g class="link" data-entity-1="App" data-entity-2="User" data-source-line="39" data-uid="lnk32" id="link_App_User"><path codeLine="39" d="M408.92,56.3064 C396.32,46.4764 379.58,35.4964 362.5,30.3564 C338.77,23.2164 163.38,23.7364 139.5,30.3564 C121.06,35.4564 107.5093,42.997 93.5193,52.827" fill="none" id="App-to-User-1" style="stroke:#181818;stroke-width:1;"/><polygon fill="#181818" points="88.61,56.2764,98.2736,54.3751,92.7011,53.4019,93.6743,47.8294,88.61,56.2764" style="stroke:#181818;stroke-width:1;"/><text fill="#000000" font-family="sans-serif" font-size="13" lengthAdjust="spacing" textLength="144.5234" x="179" y="20.8516">14b. Invalid amount error</text></g><!--link App to User--><g class="link" data-entity-1="App" data-entity-2="User" data-source-line="48" data-uid="lnk40" id="link_App_User"><path codeLine="48" d="M401.37,94.4664 C384.61,104.3164 362.72,115.2964 341.5,120.3564 C321.94,125.0164 180.13,124.7264 160.5,120.3564 C137.86,115.3064 119.5228,107.1896 101.3828,97.3396" fill="none" id="App-to-User-2" style="stroke:#181818;stroke-width:1;"/><polygon fill="#181818" points="96.11,94.4764,102.1105,102.2863,100.504,96.8624,105.928,95.2559,96.11,94.4764" style="stroke:#181818;stroke-width:1;"/><text fill="#000000" font-family="sans-serif" font-size="13" lengthAdjust="spacing" textLength="145.228" x="178.5" y="116.8516">17c. Display confirmation</text></g><!--link App to Gateway--><!--link App to Gateway--><g class="link" data-entity-1="App" data-entity-2="Gateway" data-source-line="24" data-uid="lnk19" id="link_App_Gateway"><path codeLine="24" d="M481.15,75.3564 C600.37,75.3564 891.4,75.3564 1008.22,75.3564" fill="none" id="App-to-Gateway" style="stroke:#181818;stroke-width:1;"/><polygon fill="#181818" points="1014.22,75.3564,1005.22,71.3564,1009.22,75.3564,1005.22,79.3564,1014.22,75.3564" style="stroke:#181818;stroke-width:1;"/><text fill="#000000" font-family="sans-serif" font-size="13" lengthAdjust="spacing" textLength="171.2407" x="662.25" y="68.8516">5. POST /api/money-requests</text></g><!--link Gateway to App--><g class="link" data-entity-1="Gateway" data-entity-2="App" data-source-line="32" data-uid="lnk26" id="link_Gateway_App"><path codeLine="32" d="M1014.5,69.6464 C968.37,64.4664 896.66,57.2164 834.25,54.3564 C757.44,50.8264 738.06,50.8664 661.25,54.3564 C599.16,57.1764 533.9337,63.5774 487.2437,68.7374" fill="none" id="Gateway-to-App" style="stroke:#181818;stroke-width:1;"/><polygon fill="#181818" points="481.28,69.3964,490.6649,72.3836,486.2497,68.8472,489.7861,64.432,481.28,69.3964" style="stroke:#181818;stroke-width:1;"/><text fill="#000000" font-family="sans-serif" font-size="13" lengthAdjust="spacing" textLength="114.918" x="690.75" y="44.8516">12a. 404 Not Found</text></g><!--link Gateway to App--><g class="link" data-entity-1="Gateway" data-entity-2="App" data-source-line="38" data-uid="lnk31" id="link_Gateway_App"><path codeLine="38" d="M1014.33,80.6164 C964.18,85.8164 883.32,93.4064 813.25,96.3564 C755.08,98.7964 740.42,98.7764 682.25,96.3564 C612.36,93.4464 537.7989,86.6165 487.0189,81.4265" fill="none" id="Gateway-to-App-1" style="stroke:#181818;stroke-width:1;"/><polygon fill="#181818" points="481.05,80.8164,489.5967,85.7108,486.0241,81.3248,490.4101,77.7523,481.05,80.8164" style="stroke:#181818;stroke-width:1;"/><text fill="#000000" font-family="sans-serif" font-size="13" lengthAdjust="spacing" textLength="129.3779" x="683.25" y="92.8516">13b. 400 Bad Request</text></g><!--link Gateway to App--><g class="link" data-entity-1="Gateway" data-entity-2="App" data-source-line="47" data-uid="lnk39" id="link_Gateway_App"><path codeLine="47" d="M1014.13,86.7364 C964.17,97.8664 883.76,114.0364 813.25,120.3564 C755.26,125.5464 740.24,125.4964 682.25,120.3564 C611.93,114.1164 537.7104,99.5532 487.1104,88.4432" fill="none" id="Gateway-to-App-2" style="stroke:#181818;stroke-width:1;"/><polygon fill="#181818" points="481.25,87.1564,489.1828,92.9935,486.1337,88.2287,490.8984,85.1796,481.25,87.1564" style="stroke:#181818;stroke-width:1;"/><text fill="#000000" font-family="sans-serif" font-size="13" lengthAdjust="spacing" textLength="99.7344" x="698.25" y="116.8516">16c. 201 Created</text></g><!--link Gateway to TransService--><!--link Gateway to TransService--><g class="link" data-entity-1="Gateway" data-entity-2="TransService" data-source-line="25" data-uid="lnk20" id="link_Gateway_TransService"><path codeLine="25" d="M1110.55,75.3564 C1159.31,75.3564 1229.27,75.3564 1284.47,75.3564" fill="none" id="Gateway-to-TransService" style="stroke:#181818;stroke-width:1;"/><polygon fill="#181818" points="1290.47,75.3564,1281.47,71.3564,1285.47,75.3564,1281.47,79.3564,1290.47,75.3564" style="stroke:#181818;stroke-width:1;"/><text fill="#000000" font-family="sans-serif" font-size="13" lengthAdjust="spacing" textLength="143.0762" x="1129" y="68.8516">6. Create money request</text></g><!--link TransService to Gateway--><g class="link" data-entity-1="TransService" data-entity-2="Gateway" data-source-line="31" data-uid="lnk25" id="link_TransService_Gateway"><path codeLine="31" d="M1328.77,94.4764 C1311.13,104.3264 1288.13,115.3064 1266,120.3564 C1237.62,126.8264 1163,128.3364 1135,120.3564 C1117.05,115.2364 1104.0604,107.7883 1090.5604,97.9583" fill="none" id="TransService-to-Gateway" style="stroke:#181818;stroke-width:1;"/><polygon fill="#181818" points="1085.71,94.4264,1090.6311,102.9578,1089.752,97.3696,1095.3401,96.4906,1085.71,94.4264" style="stroke:#181818;stroke-width:1;"/><text fill="#000000" font-family="sans-serif" font-size="13" lengthAdjust="spacing" textLength="114.918" x="1143.5" y="116.8516">11a. 404 Not Found</text></g><!--link TransService to Gateway--><g class="link" data-entity-1="TransService" data-entity-2="Gateway" data-source-line="37" data-uid="lnk30" id="link_TransService_Gateway"><path codeLine="37" d="M1290.35,92.6764 C1282.18,94.1864 1273.94,95.4764 1266,96.3564 C1208.13,102.7764 1192.64,104.5364 1135,96.3564 C1127.09,95.2264 1124.64,94.9444 1116.65,92.8844" fill="none" id="TransService-to-Gateway-1" style="stroke:#181818;stroke-width:1;"/><polygon fill="#181818" points="1110.84,91.3864,1118.5564,97.5067,1115.6817,92.6347,1120.5536,89.76,1110.84,91.3864" style="stroke:#181818;stroke-width:1;"/><text fill="#000000" font-family="sans-serif" font-size="13" lengthAdjust="spacing" textLength="129.3779" x="1136" y="92.8516">12b. 400 Bad Request</text></g><!--link TransService to Gateway--><g class="link" data-entity-1="TransService" data-entity-2="Gateway" data-source-line="46" data-uid="lnk38" id="link_TransService_Gateway"><path codeLine="46" d="M1290.36,57.0364 C1284.52,55.9564 1278.68,55.0364 1273,54.3564 C1241.01,50.5264 1159.84,49.3764 1128,54.3564 C1122.34,55.2364 1122.2907,54.993 1116.5407,56.513" fill="none" id="TransService-to-Gateway-2" style="stroke:#181818;stroke-width:1;"/><polygon fill="#181818" points="1110.74,58.0464,1120.4634,59.6135,1115.574,56.7686,1118.4188,51.8792,1110.74,58.0464" style="stroke:#181818;stroke-width:1;"/><text fill="#000000" font-family="sans-serif" font-size="13" lengthAdjust="spacing" textLength="123.5762" x="1139" y="44.8516">15c. Request created</text></g><!--link TransService to UserService--><!--link TransService to UserService--><g class="link" data-entity-1="TransService" data-entity-2="UserService" data-source-line="26" data-uid="lnk21" id="link_TransService_UserService"><path codeLine="26" d="M1375.26,56.1964 C1387.89,42.4664 1406.93,25.0764 1428,17.3564 C1457,6.7264 1536.12,16.5864 1567,17.3564 C1913.77,26.0264 2000.82,27.5864 2346.5,56.3564 C2385.54,59.6064 2423.7084,64.0862 2456.1984,68.2362" fill="none" id="TransService-to-UserService" style="stroke:#181818;stroke-width:1;"/><polygon fill="#181818" points="2462.15,68.9964,2453.7293,63.8884,2457.1903,68.3629,2452.7157,71.8239,2462.15,68.9964" style="stroke:#181818;stroke-width:1;"/><text fill="#000000" font-family="sans-serif" font-size="13" lengthAdjust="spacing" textLength="137.2744" x="1429" y="22.8516">7. Verify recipient exists</text></g><!--link UserService to TransService--><g class="link" data-entity-1="UserService" data-entity-2="TransService" data-source-line="30" data-uid="lnk24" id="link_UserService_TransService"><path codeLine="30" d="M2462.15,68.9964 C2429.66,64.8464 2385.54,59.6064 2346.5,56.3564 C2000.82,27.5864 1913.77,26.0264 1567,17.3564 C1536.12,16.5864 1457,6.7264 1428,17.3564 C1406.93,25.0764 1391.9521,38.0506 1379.3221,51.7806" fill="none" id="UserService-to-TransService" style="stroke:#181818;stroke-width:1;"/><polygon fill="#181818" points="1375.26,56.1964,1384.297,52.2807,1378.6451,52.5166,1378.4092,46.8646,1375.26,56.1964" style="stroke:#181818;stroke-width:1;"/><text fill="#000000" font-family="sans-serif" font-size="13" lengthAdjust="spacing" textLength="140.937" x="1427.5" y="22.8516">10a. Recipient not found</text></g><!--link UserService to TransService--><g class="link" data-entity-1="UserService" data-entity-2="TransService" data-source-line="35" data-uid="lnk28" id="link_UserService_TransService"><path codeLine="35" d="M2462.15,68.9964 C2429.66,64.8464 2385.54,59.6064 2346.5,56.3564 C2000.82,27.5864 1913.77,26.0264 1567,17.3564 C1536.12,16.5864 1457,6.7264 1428,17.3564 C1406.93,25.0764 1391.9521,38.0506 1379.3221,51.7806" fill="none" id="UserService-to-TransService-1" style="stroke:#181818;stroke-width:1;"/><polygon fill="#181818" points="1375.26,56.1964,1384.297,52.2807,1378.6451,52.5166,1378.4092,46.8646,1375.26,56.1964" style="stroke:#181818;stroke-width:1;"/><text fill="#000000" font-family="sans-serif" font-size="13" lengthAdjust="spacing" textLength="119.9517" x="1438" y="22.8516">10b. Recipient exists</text></g><!--link UserService to TransService--><g class="link" data-entity-1="UserService" data-entity-2="TransService" data-source-line="41" data-uid="lnk33" id="link_UserService_TransService"><path codeLine="41" d="M2462.15,68.9964 C2429.66,64.8464 2385.54,59.6064 2346.5,56.3564 C2000.82,27.5864 1913.77,26.0264 1567,17.3564 C1536.12,16.5864 1457,6.7264 1428,17.3564 C1406.93,25.0764 1391.9521,38.0506 1379.3221,51.7806" fill="none" id="UserService-to-TransService-2" style="stroke:#181818;stroke-width:1;"/><polygon fill="#181818" points="1375.26,56.1964,1384.297,52.2807,1378.6451,52.5166,1378.4092,46.8646,1375.26,56.1964" style="stroke:#181818;stroke-width:1;"/><text fill="#000000" font-family="sans-serif" font-size="13" lengthAdjust="spacing" textLength="119.2217" x="1438" y="22.8516">10c. Recipient exists</text></g><!--link TransService to NotifService--><!--link TransService to NotifService--><g class="link" data-entity-1="TransService" data-entity-2="NotifService" data-source-line="44" data-uid="lnk36" id="link_TransService_NotifService"><path codeLine="44" d="M1428.53,75.3564 C1537.32,75.3564 1741.33,75.3564 1849.1,75.3564" fill="none" id="TransService-to-NotifService" style="stroke:#181818;stroke-width:1;"/><polygon fill="#181818" points="1855.1,75.3564,1846.1,71.3564,1850.1,75.3564,1846.1,79.3564,1855.1,75.3564" style="stroke:#181818;stroke-width:1;"/><text fill="#000000" font-family="sans-serif" font-size="13" lengthAdjust="spacing" textLength="238.4814" x="1523" y="68.8516">13c. Send request notification to recipient</text></g><!--link NotifService to TransService--><g class="link" data-entity-1="NotifService" data-entity-2="TransService" data-source-line="45" data-uid="lnk37" id="link_NotifService_TransService"><path codeLine="45" d="M1855.48,83.7764 C1814.31,88.5164 1760.44,93.9664 1712.5,96.3564 C1649.91,99.4764 1634.09,99.4464 1571.5,96.3564 C1523.66,93.9864 1475.9315,89.325 1434.5515,84.615" fill="none" id="NotifService-to-TransService" style="stroke:#181818;stroke-width:1;"/><polygon fill="#181818" points="1428.59,83.9364,1437.0799,88.9286,1433.5579,84.5019,1437.9846,80.9799,1428.59,83.9364" style="stroke:#181818;stroke-width:1;"/><text fill="#000000" font-family="sans-serif" font-size="13" lengthAdjust="spacing" textLength="139.4834" x="1572.5" y="92.8516">14c. Notification queued</text></g><!--link NotifService to DB--><!--link App to App--><g class="link" data-entity-1="App" data-entity-2="App" data-source-line="21" data-uid="lnk16" id="link_App_App"><path codeLine="21" d="M481.41,71.7964 C500.38,71.6864 516,72.8664 516,75.3564 C516,77.8364 506.3799,79.0644 487.4099,78.9444" fill="none" id="App-to-App" style="stroke:#181818;stroke-width:1;"/><polygon fill="#181818" points="481.41,78.9064,490.3845,82.9633,486.4099,78.9381,490.4351,74.9635,481.41,78.9064" style="stroke:#181818;stroke-width:1;"/><text fill="#000000" font-family="sans-serif" font-size="13" lengthAdjust="spacing" textLength="133.6626" x="522" y="80.8516">2. Display request form</text></g><!--link App to App--><g class="link" data-entity-1="App" data-entity-2="App" data-source-line="23" data-uid="lnk18" id="link_App_App"><path codeLine="23" d="M481.27,70.1264 C551.7,66.4064 661,68.1564 661,75.3564 C661,82.5564 557.6917,84.6121 487.2617,80.9021" fill="none" id="App-to-App-1" style="stroke:#181818;stroke-width:1;"/><polygon fill="#181818" points="481.27,80.5864,490.0471,85.0543,486.2631,80.8495,490.468,77.0654,481.27,80.5864" style="stroke:#181818;stroke-width:1;"/><text fill="#000000" font-family="sans-serif" font-size="13" lengthAdjust="spacing" textLength="133.688" x="667" y="80.8516">4. Validate input format</text></g><!--link UserService to DB--><g class="link" data-entity-1="UserService" data-entity-2="DB" data-source-line="27" data-uid="lnk22" id="link_UserService_DB"><path codeLine="27" d="M2462.25,75.3564 C2422.31,75.3564 2371.86,75.3564 2334.98,75.3564" fill="none" id="UserService-to-DB" style="stroke:#181818;stroke-width:1;"/><polygon fill="#181818" points="2328.98,75.3564,2337.98,79.3564,2333.98,75.3564,2337.98,71.3564,2328.98,75.3564" style="stroke:#181818;stroke-width:1;"/><text fill="#000000" font-family="sans-serif" font-size="13" lengthAdjust="spacing" textLength="104.0508" x="2343.5" y="68.8516">8. Check recipient</text></g><!--link DB to UserService--><g class="link" data-entity-1="DB" data-entity-2="UserService" data-source-line="28" data-uid="lnk23" id="link_DB_UserService"><path codeLine="28" d="M2328.8,91.7764 C2334.46,93.6664 2340.32,95.2964 2346,96.3564 C2389.26,104.3964 2401.54,103.2464 2445,96.3564 C2450.7,95.4464 2450.7873,95.6899 2456.5673,94.1299" fill="none" id="DB-to-UserService" style="stroke:#181818;stroke-width:1;"/><polygon fill="#181818" points="2462.36,92.5664,2452.6286,91.0498,2457.5327,93.8693,2454.7132,98.7734,2462.36,92.5664" style="stroke:#181818;stroke-width:1;"/><text fill="#000000" font-family="sans-serif" font-size="13" lengthAdjust="spacing" textLength="97.5635" x="2347" y="92.8516">9. Recipient data</text></g><!--link TransService to TransService--><g class="link" data-entity-1="TransService" data-entity-2="TransService" data-source-line="36" data-uid="lnk29" id="link_TransService_TransService"><path codeLine="36" d="M1428.51,68.2564 C1448.27,68.5364 1463.5,70.8964 1463.5,75.3564 C1463.5,79.8064 1454.2694,82.0945 1434.5094,82.3645" fill="none" id="TransService-to-TransService" style="stroke:#181818;stroke-width:1;"/><polygon fill="#181818" points="1428.51,82.4464,1437.5638,86.3231,1433.5095,82.3781,1437.4545,78.3239,1428.51,82.4464" style="stroke:#181818;stroke-width:1;"/><text fill="#000000" font-family="sans-serif" font-size="13" lengthAdjust="spacing" textLength="122.8652" x="1469.5" y="80.8516">11b. Validate amount</text></g><!--link TransService to DB--><g class="link" data-entity-1="TransService" data-entity-2="DB" data-source-line="42" data-uid="lnk34" id="link_TransService_DB"><path codeLine="42" d="M1428.58,67.6864 C1553.57,54.2364 1825.66,26.9264 2056,17.3564 C2078.09,16.4364 2235.64,6.6664 2255,17.3564 C2269.89,25.5764 2277.2405,37.1746 2282.8505,50.6946" fill="none" id="TransService-to-DB" style="stroke:#181818;stroke-width:1;"/><polygon fill="#181818" points="2285.15,56.2364,2285.3953,46.3906,2283.2337,51.6182,2278.0061,49.4567,2285.15,56.2364" style="stroke:#181818;stroke-width:1;"/><text fill="#000000" font-family="sans-serif" font-size="13" lengthAdjust="spacing" textLength="197.2661" x="2057" y="22.8516">11c. Create money request record</text></g><!--link DB to TransService--><g class="link" data-entity-1="DB" data-entity-2="TransService" data-source-line="43" data-uid="lnk35" id="link_DB_TransService"><path codeLine="43" d="M2285.15,56.2364 C2279.54,42.7164 2269.89,25.5764 2255,17.3564 C2235.64,6.6664 2078.09,16.4364 2056,17.3564 C1825.66,26.9264 1559.5356,53.5945 1434.5456,67.0445" fill="none" id="DB-to-TransService" style="stroke:#181818;stroke-width:1;"/><polygon fill="#181818" points="1428.58,67.6864,1437.9563,70.7006,1433.5513,67.1515,1437.1004,62.7465,1428.58,67.6864" style="stroke:#181818;stroke-width:1;"/><text fill="#000000" font-family="sans-serif" font-size="13" lengthAdjust="spacing" textLength="77.3145" x="2117" y="22.8516">12c. Success</text></g><!--SRC=[ZLHDSzCm4BtxL-oKGs66k76Qjf13Prf2cHw0J5EuC1mKUPCin9AHv8Rmwrd9JkAFfDDShApUVhrzsbCOuvmKGYwC8qcvKCx2cjmIh3F2uO8avDgI8wr8BS1fo4XHHlyGI3aq5gM_iv6U_U8Zd3omZ-KBJE6RHNC2meO3lBeBlntmJgoideWDtEHvGF6t0xgPtCCdhcCjDW5JdJkuHoEK5Q4KcA9v8ea17-oLeUCKoggZlU4O-8jsD2SfEYd2nJ6liN1Y9co97D_kxgDJc5IqGecr3MwbqTPwmbSy7Hk5Idi_bfIcg7uQMYnTp_CLUSxQzegZQCjL-xxEITGWQ8TCzLhrwdGSmLKHwnH43JxQoF6jR_qpMYiMQE5r4PhCol-WYcp6al9Ca4ezsGZQf6ZUL0nS1v6C88bv12lFiC4_1Le7cLQu0PrxHajMjjX136Eo-OgPs8BdscIjYESnVFHwPWm_0qBbteB8T16-AcMpiEt8mnY-YnMblanIUL465cwBsWvW11SnJBvE7-5Cv7GMIkrLjTZzcAwRQXt1PGmVE2z7BxkhN5gpk6x8TWHNN1KQcc_shG3-9P-g3cG_rkC8td6I9ShVUtJ4zbudxFiO7dRnk6KHDSDroq_wekwZjEUdK6ch_WPHIS8-m_xGImhk0dh7ptxwWmueC5xLx17dXrC36gFD2ogVrTqhzjgqjvsIMKqFfNQURNKmyrtquLQadAmSxO5cpm_0skqE6NElddpoAlEBEvKlw3G89KdaOJrwvV0htSgcdM70RjD2IdxZdS2DNU5xzLWCpwqChUfRbzV2NgJDDNCWxv1ZDPOsHopmUVLT13RAr3AqUb1_bmmRz9EAZQxwhkH-vqYjvkItWbzC_m40]--></g></svg>