<svg xmlns="http://www.w3.org/2000/svg" xmlns:xlink="http://www.w3.org/1999/xlink" contentStyleType="text/css" data-diagram-type="CLASS" height="845px" preserveAspectRatio="none" style="width:470px;height:845px;background:#FFFFFF;" version="1.1" viewBox="0 0 470 845" width="470px" zoomAndPan="magnify"><title>Collaboration Diagram: User Authentication &amp; Profile Management</title><defs/><g><text fill="#000000" font-family="sans-serif" font-size="14" font-weight="bold" lengthAdjust="spacing" textLength="442.6133" x="10" y="24.5332">Collaboration Diagram: User Authentication &amp; Profile Management</text><text fill="#000000" font-family="sans-serif" font-size="14" font-weight="bold" lengthAdjust="spacing" textLength="160.2617" x="151.1758" y="42.1426">(UC1, UC2, UC16, UC22)</text><g class="entity" data-entity="User" data-source-line="5" data-uid="ent0002" id="entity_User"><rect fill="#F1F1F1" height="100.0469" rx="2.5" ry="2.5" style="stroke:#181818;stroke-width:0.5;" width="130.2959" x="181.0879" y="63.2188"/><text fill="#000000" font-family="sans-serif" font-size="14" lengthAdjust="spacing" textLength="29.5586" x="231.4565" y="79.752">User</text><line style="stroke:#181818;stroke-width:0.5;" x1="182.0879" x2="310.3838" y1="84.8281" y2="84.8281"/><text fill="#000000" font-family="sans-serif" font-size="14" lengthAdjust="spacing" textLength="67.6963" x="187.0879" y="103.3613">1. Register</text><text fill="#000000" font-family="sans-serif" font-size="14" lengthAdjust="spacing" textLength="49.8203" x="187.0879" y="120.9707">9. Login</text><text fill="#000000" font-family="sans-serif" font-size="14" lengthAdjust="spacing" textLength="99.6201" x="187.0879" y="138.5801">16. Change PIN</text><text fill="#000000" font-family="sans-serif" font-size="14" lengthAdjust="spacing" textLength="118.2959" x="187.0879" y="156.1895">22. Delete Account</text></g><g class="entity" data-entity="App" data-source-line="6" data-uid="ent0003" id="entity_App"><rect fill="#F1F1F1" height="100.0469" rx="2.5" ry="2.5" style="stroke:#181818;stroke-width:0.5;" width="146.627" x="172.5879" y="223.2188"/><text fill="#000000" font-family="sans-serif" font-size="14" lengthAdjust="spacing" textLength="24.9102" x="233.4463" y="239.752">App</text><line style="stroke:#181818;stroke-width:0.5;" x1="173.5879" x2="318.2148" y1="244.8281" y2="244.8281"/><text fill="#000000" font-family="sans-serif" font-size="14" lengthAdjust="spacing" textLength="108.1445" x="178.5879" y="263.3613">2. POST /register</text><text fill="#000000" font-family="sans-serif" font-size="14" lengthAdjust="spacing" textLength="98.8271" x="178.5879" y="280.9707">10. POST /login</text><text fill="#000000" font-family="sans-serif" font-size="14" lengthAdjust="spacing" textLength="129.9375" x="178.5879" y="298.5801">17. PUT /security/pin</text><text fill="#000000" font-family="sans-serif" font-size="14" lengthAdjust="spacing" textLength="134.627" x="178.5879" y="316.1895">23. DELETE /account</text></g><g class="entity" data-entity="Gateway" data-source-line="7" data-uid="ent0004" id="entity_Gateway"><rect fill="#F1F1F1" height="170.4844" rx="2.5" ry="2.5" style="stroke:#181818;stroke-width:0.5;" width="127.958" x="182.0879" y="383.2188"/><text fill="#000000" font-family="sans-serif" font-size="14" lengthAdjust="spacing" textLength="55.248" x="218.4429" y="399.752">Gateway</text><line style="stroke:#181818;stroke-width:0.5;" x1="183.0879" x2="309.0459" y1="404.8281" y2="404.8281"/><text fill="#000000" font-family="sans-serif" font-size="14" lengthAdjust="spacing" textLength="93.3584" x="188.0879" y="423.3613">3. createUser()</text><text fill="#000000" font-family="sans-serif" font-size="14" lengthAdjust="spacing" textLength="102.71" x="188.0879" y="440.9707">8. show success</text><text fill="#000000" font-family="sans-serif" font-size="14" lengthAdjust="spacing" textLength="108.958" x="188.0879" y="458.5801">11. authenticate()</text><text fill="#000000" font-family="sans-serif" font-size="14" lengthAdjust="spacing" textLength="102.7236" x="188.0879" y="476.1895">15. grant access</text><text fill="#000000" font-family="sans-serif" font-size="14" lengthAdjust="spacing" textLength="98.834" x="188.0879" y="493.7988">18. updatePIN()</text><text fill="#000000" font-family="sans-serif" font-size="14" lengthAdjust="spacing" textLength="115.958" x="188.0879" y="511.4082">21. confirm update</text><text fill="#000000" font-family="sans-serif" font-size="14" lengthAdjust="spacing" textLength="96.4961" x="188.0879" y="529.0176">24. deactivate()</text><text fill="#000000" font-family="sans-serif" font-size="14" lengthAdjust="spacing" textLength="61.4961" x="188.0879" y="546.627">27. logout</text></g><g class="entity" data-entity="UserService" data-source-line="8" data-uid="ent0005" id="entity_UserService"><rect fill="#F1F1F1" height="117.6563" rx="2.5" ry="2.5" style="stroke:#181818;stroke-width:0.5;" width="182.4063" x="55.0879" y="613.2188"/><text fill="#000000" font-family="sans-serif" font-size="14" lengthAdjust="spacing" textLength="76.2412" x="108.1704" y="629.752">UserService</text><line style="stroke:#181818;stroke-width:0.5;" x1="56.0879" x2="236.4941" y1="634.8281" y2="634.8281"/><text fill="#000000" font-family="sans-serif" font-size="14" lengthAdjust="spacing" textLength="170.4063" x="61.0879" y="653.3613">4. checkEmailUniqueness()</text><text fill="#000000" font-family="sans-serif" font-size="14" lengthAdjust="spacing" textLength="124.5029" x="61.0879" y="670.9707">5. sendVerification()</text><text fill="#000000" font-family="sans-serif" font-size="14" lengthAdjust="spacing" textLength="92.6201" x="61.0879" y="688.5801">7. 201 Created</text><text fill="#000000" font-family="sans-serif" font-size="14" lengthAdjust="spacing" textLength="95.71" x="61.0879" y="706.1895">25. softDelete()</text><text fill="#000000" font-family="sans-serif" font-size="14" lengthAdjust="spacing" textLength="70.8271" x="61.0879" y="723.7988">26. 200 OK</text></g><g class="entity" data-entity="AuthService" data-source-line="9" data-uid="ent0006" id="entity_AuthService"><rect fill="#F1F1F1" height="117.6563" rx="2.5" ry="2.5" style="stroke:#181818;stroke-width:0.5;" width="148.9375" x="272.5879" y="613.2188"/><text fill="#000000" font-family="sans-serif" font-size="14" lengthAdjust="spacing" textLength="75.4824" x="309.3154" y="629.752">AuthService</text><line style="stroke:#181818;stroke-width:0.5;" x1="273.5879" x2="420.5254" y1="634.8281" y2="634.8281"/><text fill="#000000" font-family="sans-serif" font-size="14" lengthAdjust="spacing" textLength="136.9375" x="278.5879" y="653.3613">12. verifyCredentials()</text><text fill="#000000" font-family="sans-serif" font-size="14" lengthAdjust="spacing" textLength="113.6064" x="278.5879" y="670.9707">13. storeSession()</text><text fill="#000000" font-family="sans-serif" font-size="14" lengthAdjust="spacing" textLength="70.8271" x="278.5879" y="688.5801">14. 200 OK</text><text fill="#000000" font-family="sans-serif" font-size="14" lengthAdjust="spacing" textLength="121.4063" x="278.5879" y="706.1895">19. hashAndStore()</text><text fill="#000000" font-family="sans-serif" font-size="14" lengthAdjust="spacing" textLength="70.8271" x="278.5879" y="723.7988">20. 200 OK</text></g><g class="entity" data-entity="NotifService" data-source-line="10" data-uid="ent0007" id="entity_NotifService"><rect fill="#F1F1F1" height="47.2188" rx="2.5" ry="2.5" style="stroke:#181818;stroke-width:0.5;" width="89.4688" x="101.5879" y="791.2188"/><text fill="#000000" font-family="sans-serif" font-size="14" lengthAdjust="spacing" textLength="75.4688" x="108.5879" y="807.752">NotifService</text><line style="stroke:#181818;stroke-width:0.5;" x1="102.5879" x2="190.0566" y1="812.8281" y2="812.8281"/><text fill="#000000" font-family="sans-serif" font-size="14" lengthAdjust="spacing" textLength="62.2822" x="107.5879" y="831.3613">6. queued</text></g><g class="entity" data-entity="Database" data-source-line="11" data-uid="ent0008" id="entity_Database"><rect fill="#F1F1F1" height="37.6094" rx="2.5" ry="2.5" style="stroke:#181818;stroke-width:0.5;" width="73.9307" x="268.0879" y="795.7188"/><text fill="#000000" font-family="sans-serif" font-size="14" lengthAdjust="spacing" textLength="59.9307" x="275.0879" y="812.252">Database</text><line style="stroke:#181818;stroke-width:0.5;" x1="269.0879" x2="341.0186" y1="817.3281" y2="817.3281"/></g><!--link User to App--><g class="link" data-entity-1="User" data-entity-2="App" data-source-line="15" data-uid="lnk9" id="link_User_App"><path codeLine="15" d="M209.6779,163.3488 C206.2179,182.3687 205.154,198.1956 208.614,217.2156" fill="none" id="User-to-App" style="stroke:#181818;stroke-width:1;"/><polygon fill="#181818" points="209.6879,223.1187,212.0125,213.5482,208.793,218.1995,204.1417,214.98,209.6879,223.1187" style="stroke:#181818;stroke-width:1;"/></g><!--link User to App--><g class="link" data-entity-1="User" data-entity-2="App" data-source-line="30" data-uid="lnk14" id="link_User_App"><path codeLine="30" d="M234.1879,163.3488 C233.0579,182.3687 232.7021,198.1093 233.8321,217.1293" fill="none" id="User-to-App-1" style="stroke:#181818;stroke-width:1;"/><polygon fill="#181818" points="234.1879,223.1187,237.6471,213.8974,233.8914,218.1276,229.6612,214.3718,234.1879,223.1187" style="stroke:#181818;stroke-width:1;"/></g><!--link User to App--><g class="link" data-entity-1="User" data-entity-2="App" data-source-line="43" data-uid="lnk18" id="link_User_App"><path codeLine="43" d="M258.6879,163.3488 C259.8879,182.3687 260.2657,198.1107 259.0657,217.1307" fill="none" id="User-to-App-2" style="stroke:#181818;stroke-width:1;"/><polygon fill="#181818" points="258.6879,223.1187,263.2466,214.3885,259.0027,218.1287,255.2625,213.8847,258.6879,223.1187" style="stroke:#181818;stroke-width:1;"/></g><!--link User to App--><g class="link" data-entity-1="User" data-entity-2="App" data-source-line="55" data-uid="lnk22" id="link_User_App"><path codeLine="55" d="M283.1979,163.3488 C286.7179,182.3687 287.8128,198.1995 284.2828,217.2195" fill="none" id="User-to-App-3" style="stroke:#181818;stroke-width:1;"/><polygon fill="#181818" points="283.1879,223.1187,288.763,214.9998,284.1003,218.2027,280.8974,213.5399,283.1879,223.1187" style="stroke:#181818;stroke-width:1;"/></g><!--link App to Gateway--><g class="link" data-entity-1="App" data-entity-2="Gateway" data-source-line="17" data-uid="lnk10" id="link_App_Gateway"><path codeLine="17" d="M211.5879,323.4188 C207.8479,341.5088 206.1634,356.555 207.0934,376.865" fill="none" id="App-to-Gateway" style="stroke:#181818;stroke-width:1;"/><polygon fill="#181818" points="207.3679,382.8588,210.952,373.6852,207.1392,377.864,202.9604,374.0511,207.3679,382.8588" style="stroke:#181818;stroke-width:1;"/></g><!--link App to Gateway--><g class="link" data-entity-1="App" data-entity-2="Gateway" data-source-line="32" data-uid="lnk15" id="link_App_Gateway"><path codeLine="32" d="M234.8079,323.4188 C233.5879,341.5088 233.0393,356.5494 233.3393,376.8594" fill="none" id="App-to-Gateway-1" style="stroke:#181818;stroke-width:1;"/><polygon fill="#181818" points="233.4279,382.8588,237.2945,373.8007,233.354,377.8593,229.2954,373.9188,233.4279,382.8588" style="stroke:#181818;stroke-width:1;"/></g><!--link App to Gateway--><g class="link" data-entity-1="App" data-entity-2="Gateway" data-source-line="45" data-uid="lnk19" id="link_App_Gateway"><path codeLine="45" d="M258.0279,323.4188 C259.3279,341.5088 259.9154,356.5495 259.5854,376.8595" fill="none" id="App-to-Gateway-2" style="stroke:#181818;stroke-width:1;"/><polygon fill="#181818" points="259.4879,382.8588,263.6336,373.9249,259.5691,377.8594,255.6346,373.795,259.4879,382.8588" style="stroke:#181818;stroke-width:1;"/></g><!--link App to Gateway--><g class="link" data-entity-1="App" data-entity-2="Gateway" data-source-line="57" data-uid="lnk23" id="link_App_Gateway"><path codeLine="57" d="M281.2479,323.4188 C285.0679,341.5088 286.7753,356.5552 285.8353,376.8652" fill="none" id="App-to-Gateway-3" style="stroke:#181818;stroke-width:1;"/><polygon fill="#181818" points="285.5579,382.8588,289.9697,374.0533,285.7891,377.8641,281.9783,373.6834,285.5579,382.8588" style="stroke:#181818;stroke-width:1;"/></g><!--link Gateway to UserService--><g class="link" data-entity-1="Gateway" data-entity-2="UserService" data-source-line="19" data-uid="lnk11" id="link_Gateway_UserService"><path codeLine="19" d="M191.8079,553.4188 C181.5179,573.4488 173.8816,588.89 165.6816,607.46" fill="none" id="Gateway-to-UserService" style="stroke:#181818;stroke-width:1;"/><polygon fill="#181818" points="163.2579,612.9488,170.5525,606.3315,165.2776,608.3748,163.2342,603.0999,163.2579,612.9488" style="stroke:#181818;stroke-width:1;"/></g><!--link Gateway to UserService--><g class="link" data-entity-1="Gateway" data-entity-2="UserService" data-source-line="59" data-uid="lnk24" id="link_Gateway_UserService"><path codeLine="59" d="M217.7379,553.4188 C208.2279,573.4488 200.4352,589.1246 190.1952,607.6946" fill="none" id="Gateway-to-UserService-1" style="stroke:#181818;stroke-width:1;"/><polygon fill="#181818" points="187.2979,612.9488,195.1465,606.9991,189.7123,608.5703,188.141,603.136,187.2979,612.9488" style="stroke:#181818;stroke-width:1;"/></g><!--link UserService to Database--><g class="link" data-entity-1="UserService" data-entity-2="Database" data-source-line="21" data-uid="lnk12" id="link_UserService_Database"><path codeLine="21" d="M199.5479,731.5788 C224.8479,754.4988 249.1948,775.5363 270.6648,791.7963" fill="none" id="UserService-to-Database" style="stroke:#181818;stroke-width:1;"/><polygon fill="#181818" points="275.4479,795.4188,270.6882,786.7964,271.462,792.4001,265.8583,793.1739,275.4479,795.4188" style="stroke:#181818;stroke-width:1;"/></g><!--link UserService to Database--><g class="link" data-entity-1="UserService" data-entity-2="Database" data-source-line="61" data-uid="lnk25" id="link_UserService_Database"><path codeLine="61" d="M225.4679,731.5788 C252.0779,754.4988 274.6006,774.7662 289.7306,791.0262" fill="none" id="UserService-to-Database-1" style="stroke:#181818;stroke-width:1;"/><polygon fill="#181818" points="293.8179,795.4188,290.6153,786.1051,290.4118,791.7583,284.7586,791.5548,293.8179,795.4188" style="stroke:#181818;stroke-width:1;"/></g><!--link UserService to NotifService--><g class="link" data-entity-1="UserService" data-entity-2="NotifService" data-source-line="23" data-uid="lnk13" id="link_UserService_NotifService"><path codeLine="23" d="M146.0879,731.5788 C146.0879,752.5387 146.0879,768.9588 146.0879,785.0688" fill="none" id="UserService-to-NotifService" style="stroke:#181818;stroke-width:1;"/><polygon fill="#181818" points="146.0879,791.0688,150.0879,782.0688,146.0879,786.0688,142.0879,782.0688,146.0879,791.0688" style="stroke:#181818;stroke-width:1;"/></g><!--link Gateway to AuthService--><g class="link" data-entity-1="Gateway" data-entity-2="AuthService" data-source-line="34" data-uid="lnk16" id="link_Gateway_AuthService"><path codeLine="34" d="M275.5979,553.4188 C285.2279,573.4488 293.1041,589.1282 303.3741,607.6982" fill="none" id="Gateway-to-AuthService" style="stroke:#181818;stroke-width:1;"/><polygon fill="#181818" points="306.2779,612.9488,305.4226,603.1371,303.8581,608.5733,298.4219,607.0088,306.2779,612.9488" style="stroke:#181818;stroke-width:1;"/></g><!--link Gateway to AuthService--><g class="link" data-entity-1="Gateway" data-entity-2="AuthService" data-source-line="47" data-uid="lnk20" id="link_Gateway_AuthService"><path codeLine="47" d="M301.5179,553.4188 C311.9379,573.4488 319.6443,588.8944 327.8843,607.4644" fill="none" id="Gateway-to-AuthService-1" style="stroke:#181818;stroke-width:1;"/><polygon fill="#181818" points="330.3179,612.9488,330.3238,603.0999,328.2899,608.3785,323.0114,606.3446,330.3179,612.9488" style="stroke:#181818;stroke-width:1;"/></g><!--link AuthService to Database--><g class="link" data-entity-1="AuthService" data-entity-2="Database" data-source-line="37" data-uid="lnk17" id="link_AuthService_Database"><path codeLine="37" d="M317.0579,731.5788 C309.5679,754.4988 304.0708,773.1944 302.2908,789.4544" fill="none" id="AuthService-to-Database" style="stroke:#181818;stroke-width:1;"/><polygon fill="#181818" points="301.6379,795.4188,306.5935,786.9075,302.182,790.4484,298.641,786.0369,301.6379,795.4188" style="stroke:#181818;stroke-width:1;"/></g><!--link AuthService to Database--><g class="link" data-entity-1="AuthService" data-entity-2="Database" data-source-line="49" data-uid="lnk21" id="link_AuthService_Database"><path codeLine="49" d="M342.9679,731.5788 C336.7879,754.4988 330.8085,773.7909 322.6885,790.0509" fill="none" id="AuthService-to-Database-1" style="stroke:#181818;stroke-width:1;"/><polygon fill="#181818" points="320.0079,795.4188,327.6074,789.154,322.2418,790.9455,320.4503,785.5798,320.0079,795.4188" style="stroke:#181818;stroke-width:1;"/></g><!--SRC=[ZPDDZzem48Rl_8hH7bgGIY3kbhPxg8G8gghk1ofBJxqOPqBS1Zkr7LRy-uv3GaqA5GU2FPuPpppls4bN8DpCT57mjJRSIQqWaNnZ-FOELXODJ2kNet9I70vVmSBeJ5BK0rTyWriw-w7wgrdy1bOpvZ_nf5womKslzneIpAH2qEkVA9o5ViaD9PCbLyuEUWTpVLExdfPbk_pC7RxmVUYrHBEJ0e_EL5t7zAYTp3gsX3k-vXPzGLGW3E4RRgHrT6lTv1t4KSSq77wgIw4V7RC85a_BPnYPridRlKzRO_DFlcyZ40Pfw_Fq1ySJxnss4AmfwfQYSXI_vbikYvMIlojKQ2t5Xtu-nx6PqmJl8h2eqkzePDQeTIRuX4wueGoJ2EZM2jDEvlSHi74CixgfDEZq0rsPwnUmbH1Kwu4k8xhtUYDLY_PZ5EvFkSRZ5cnHkroc6fD2_EyiOWTiE0Z1sWUITZiFPKyDf3wS5nvhnujKiquRN58Z1tIXmmdtJkIjnpE6fwzXjQG6FIBbW0TeuWcncULSRH0MNnwFiqVWkzOE9f9WiI9A5aLbfDkFol_38cMgCgKz9RoU52cLSvjFLRhqAAvdmCPd631IJ6YLIRDjYca6n4z8WWKwXAaGkbAk9S58gtCddST8MYNp-_dp74QySRlCWf4-ANBXvExViRdy7fb_JpfpXtAkVuPiSWu5wKS3hYlN-mC0]--></g></svg>