<svg xmlns="http://www.w3.org/2000/svg" xmlns:xlink="http://www.w3.org/1999/xlink" contentStyleType="text/css" data-diagram-type="CLASS" height="188px" preserveAspectRatio="none" style="width:3656px;height:188px;background:#FFFFFF;" version="1.1" viewBox="0 0 3656 188" width="3656px" zoomAndPan="magnify"><defs/><g><g class="entity" data-entity="User" data-source-line="3" data-uid="ent0002" id="entity_User"><rect fill="#FFFFFF" height="37.6094" rx="2.5" ry="2.5" style="stroke:#181818;stroke-width:0.5;" width="115.1514" x="7" y="80.3564"/><text fill="#000000" font-family="sans-serif" font-size="14" lengthAdjust="spacing" textLength="101.1514" x="14" y="96.8896">Registered User</text><line style="stroke:#181818;stroke-width:0.5;" x1="8" x2="121.1514" y1="101.9658" y2="101.9658"/></g><g class="entity" data-entity="App" data-source-line="4" data-uid="ent0003" id="entity_App"><rect fill="#FFFFFF" height="37.6094" rx="2.5" ry="2.5" style="stroke:#181818;stroke-width:0.5;" width="101.1582" x="365" y="80.3564"/><text fill="#000000" font-family="sans-serif" font-size="14" lengthAdjust="spacing" textLength="87.1582" x="372" y="96.8896">FalsoPay App</text><line style="stroke:#181818;stroke-width:0.5;" x1="366" x2="465.1582" y1="101.9658" y2="101.9658"/></g><g class="entity" data-entity="Gateway" data-source-line="5" data-uid="ent0004" id="entity_Gateway"><rect fill="#FFFFFF" height="37.6094" rx="2.5" ry="2.5" style="stroke:#181818;stroke-width:0.5;" width="95.7031" x="1104.5" y="80.3564"/><text fill="#000000" font-family="sans-serif" font-size="14" lengthAdjust="spacing" textLength="81.7031" x="1111.5" y="96.8896">API Gateway</text><line style="stroke:#181818;stroke-width:0.5;" x1="1105.5" x2="1199.2031" y1="101.9658" y2="101.9658"/></g><g class="entity" data-entity="BankService" data-source-line="6" data-uid="ent0005" id="entity_BankService"><rect fill="#FFFFFF" height="37.6094" rx="2.5" ry="2.5" style="stroke:#181818;stroke-width:0.5;" width="115.165" x="1373" y="80.3564"/><text fill="#000000" font-family="sans-serif" font-size="14" lengthAdjust="spacing" textLength="101.165" x="1380" y="96.8896">Banking Service</text><line style="stroke:#181818;stroke-width:0.5;" x1="1374" x2="1487.165" y1="101.9658" y2="101.9658"/></g><g class="entity" data-entity="ExtBank" data-source-line="7" data-uid="ent0006" id="entity_ExtBank"><rect fill="#FFFFFF" height="37.6094" rx="2.5" ry="2.5" style="stroke:#181818;stroke-width:0.5;" width="146.2959" x="3210.5" y="80.3564"/><text fill="#000000" font-family="sans-serif" font-size="14" lengthAdjust="spacing" textLength="132.2959" x="3217.5" y="96.8896">External Banking API</text><line style="stroke:#181818;stroke-width:0.5;" x1="3211.5" x2="3355.7959" y1="101.9658" y2="101.9658"/></g><g class="entity" data-entity="NotifService" data-source-line="8" data-uid="ent0007" id="entity_NotifService"><rect fill="#FFFFFF" height="37.6094" rx="2.5" ry="2.5" style="stroke:#181818;stroke-width:0.5;" width="133.8271" x="1922.5" y="80.3564"/><text fill="#000000" font-family="sans-serif" font-size="14" lengthAdjust="spacing" textLength="119.8271" x="1929.5" y="96.8896">Notification Service</text><line style="stroke:#181818;stroke-width:0.5;" x1="1923.5" x2="2055.3271" y1="101.9658" y2="101.9658"/></g><g class="entity" data-entity="DB" data-source-line="9" data-uid="ent0008" id="entity_DB"><rect fill="#FFFFFF" height="37.6094" rx="2.5" ry="2.5" style="stroke:#181818;stroke-width:0.5;" width="73.9307" x="3576.5" y="80.3564"/><text fill="#000000" font-family="sans-serif" font-size="14" lengthAdjust="spacing" textLength="59.9307" x="3583.5" y="96.8896">Database</text><line style="stroke:#181818;stroke-width:0.5;" x1="3577.5" x2="3649.4307" y1="101.9658" y2="101.9658"/></g><!--link User to App--><!--link User to App--><g class="link" data-entity-1="User" data-entity-2="App" data-source-line="20" data-uid="lnk15" id="link_User_App"><path codeLine="20" d="M78.38,80.2664 C91.85,63.5164 113.95,40.3164 139.5,30.3564 C150.27,26.1564 336.84,25.8964 347.5,30.3564 C371.55,40.4164 387.9151,58.7023 399.8451,75.4223" fill="none" id="User-to-App" style="stroke:#181818;stroke-width:1;"/><polygon fill="#181818" points="403.33,80.3064,401.3587,70.6569,400.4259,76.2363,394.8465,75.3035,403.33,80.3064" style="stroke:#181818;stroke-width:1;"/><text fill="#000000" font-family="sans-serif" font-size="13" lengthAdjust="spacing" textLength="50.5845" x="218.5" y="20.8516">1. Select</text><text fill="#000000" font-family="sans-serif" font-size="13" lengthAdjust="spacing" textLength="107.6753" x="416.0665" y="69.6311">Link Bank Account</text></g><!--link User to App--><g class="link" data-entity-1="User" data-entity-2="App" data-source-line="22" data-uid="lnk17" id="link_User_App"><path codeLine="22" d="M93.45,118.4664 C110.11,128.3164 131.88,139.2964 153,144.3564 C172.56,149.0464 314.53,149.3764 334,144.3564 C353.72,139.2764 368.727,131.5473 384.007,121.6973" fill="none" id="User-to-App-1" style="stroke:#181818;stroke-width:1;"/><polygon fill="#181818" points="389.05,118.4464,379.3183,119.9608,384.8475,121.1555,383.6528,126.6848,389.05,118.4464" style="stroke:#181818;stroke-width:1;"/><text fill="#000000" font-family="sans-serif" font-size="13" lengthAdjust="spacing" textLength="167.6606" x="160" y="140.8516">3. Enter bank account details</text></g><!--link App to User--><g class="link" data-entity-1="App" data-entity-2="User" data-source-line="32" data-uid="lnk26" id="link_App_User"><path codeLine="32" d="M393.92,80.3064 C381.32,70.4764 364.58,59.4964 347.5,54.3564 C325.37,47.6964 161.77,48.1864 139.5,54.3564 C121.06,59.4664 107.5093,66.997 93.5193,76.827" fill="none" id="App-to-User" style="stroke:#181818;stroke-width:1;"/><polygon fill="#181818" points="88.61,80.2764,98.2736,78.3751,92.7011,77.4019,93.6743,71.8294,88.61,80.2764" style="stroke:#181818;stroke-width:1;"/><text fill="#000000" font-family="sans-serif" font-size="13" lengthAdjust="spacing" textLength="158.958" x="164.5" y="44.8516">12a. Display error message</text></g><!--link App to User--><g class="link" data-entity-1="App" data-entity-2="User" data-source-line="44" data-uid="lnk37" id="link_App_User"><path codeLine="44" d="M364.75,99.3564 C300.35,99.3564 195.55,99.3564 128.07,99.3564" fill="none" id="App-to-User-1" style="stroke:#181818;stroke-width:1;"/><polygon fill="#181818" points="122.07,99.3564,131.07,103.3564,127.07,99.3564,131.07,95.3564,122.07,99.3564" style="stroke:#181818;stroke-width:1;"/><text fill="#000000" font-family="sans-serif" font-size="13" lengthAdjust="spacing" textLength="206.6479" x="140.5" y="92.8516">19b. Display verification instructions</text></g><!--link User to App--><g class="link" data-entity-1="User" data-entity-2="App" data-source-line="46" data-uid="lnk38" id="link_User_App"><path codeLine="46" d="M122.23,115.0864 C132.41,117.2764 142.96,119.1764 153,120.3564 C192.95,125.0264 294.1,125.4164 334,120.3564 C344,119.0864 348.6954,118.3756 358.7454,115.9656" fill="none" id="User-to-App-2" style="stroke:#181818;stroke-width:1;"/><polygon fill="#181818" points="364.58,114.5664,354.8954,112.7754,359.7178,115.7324,356.7609,120.5549,364.58,114.5664" style="stroke:#181818;stroke-width:1;"/><text fill="#000000" font-family="sans-serif" font-size="13" lengthAdjust="spacing" textLength="179.207" x="154" y="116.8516">20b. Enter verification amounts</text></g><!--link App to User--><g class="link" data-entity-1="App" data-entity-2="User" data-source-line="54" data-uid="lnk45" id="link_App_User"><path codeLine="54" d="M364.64,81.8564 C358.92,80.4264 353.12,79.2064 347.5,78.3564 C301.8,71.4564 185.29,72.0664 139.5,78.3564 C133.87,79.1264 133.9293,78.9246 128.1693,80.1946" fill="none" id="App-to-User-2" style="stroke:#181818;stroke-width:1;"/><polygon fill="#181818" points="122.31,81.4864,131.9602,83.4548,127.1927,80.4099,130.2376,75.6424,122.31,81.4864" style="stroke:#181818;stroke-width:1;"/><text fill="#000000" font-family="sans-serif" font-size="13" lengthAdjust="spacing" textLength="175.5762" x="156" y="68.8516">27b1. Display verification error</text></g><!--link App to User--><g class="link" data-entity-1="App" data-entity-2="User" data-source-line="63" data-uid="lnk53" id="link_App_User"><path codeLine="63" d="M400.05,118.4864 C385.17,135.2564 360.98,158.4664 334,168.3564 C315.12,175.2764 172.02,174.8964 153,168.3564 C124.44,158.5364 102.2112,139.6099 85.8112,122.8099" fill="none" id="App-to-User-3" style="stroke:#181818;stroke-width:1;"/><polygon fill="#181818" points="81.62,118.5164,85.0445,127.7508,85.1127,122.0943,90.7691,122.1625,81.62,118.5164" style="stroke:#181818;stroke-width:1;"/><text fill="#000000" font-family="sans-serif" font-size="13" lengthAdjust="spacing" textLength="153.188" x="167" y="164.8516">31b2. Display confirmation</text></g><!--link App to Gateway--><!--link App to Gateway--><g class="link" data-entity-1="App" data-entity-2="Gateway" data-source-line="24" data-uid="lnk19" id="link_App_Gateway"><path codeLine="24" d="M466.19,93.7964 C516.21,88.6064 594.89,81.2464 663.25,78.3564 C771.6,73.7664 798.9,73.7264 907.25,78.3564 C975.78,81.2864 1048.8128,88.1695 1098.2128,93.3595" fill="none" id="App-to-Gateway" style="stroke:#181818;stroke-width:1;"/><polygon fill="#181818" points="1104.18,93.9864,1095.6472,89.068,1099.2074,93.464,1094.8113,97.0242,1104.18,93.9864" style="stroke:#181818;stroke-width:1;"/><text fill="#000000" font-family="sans-serif" font-size="13" lengthAdjust="spacing" textLength="146.688" x="712.25" y="68.8516">5. POST /api/banking/link</text></g><!--link Gateway to App--><g class="link" data-entity-1="Gateway" data-entity-2="App" data-source-line="31" data-uid="lnk25" id="link_Gateway_App"><path codeLine="31" d="M1104.46,87.8664 C1055.27,76.7364 976.44,60.6464 907.25,54.3564 C853.25,49.4464 717.25,49.4864 663.25,54.3564 C594.46,60.5564 522.0662,74.9308 472.2362,86.0408" fill="none" id="Gateway-to-App" style="stroke:#181818;stroke-width:1;"/><polygon fill="#181818" points="466.38,87.3464,476.0348,89.2921,471.2602,86.2584,474.2939,81.4838,466.38,87.3464" style="stroke:#181818;stroke-width:1;"/><text fill="#000000" font-family="sans-serif" font-size="13" lengthAdjust="spacing" textLength="129.3779" x="720.75" y="44.8516">11a. 400 Bad Request</text></g><!--link Gateway to App--><g class="link" data-entity-1="Gateway" data-entity-2="App" data-source-line="43" data-uid="lnk36" id="link_Gateway_App"><path codeLine="43" d="M1104.39,99.3564 C971.76,99.3564 607.77,99.3564 472.16,99.3564" fill="none" id="Gateway-to-App-1" style="stroke:#181818;stroke-width:1;"/><polygon fill="#181818" points="466.16,99.3564,475.16,103.3564,471.16,99.3564,475.16,95.3564,466.16,99.3564" style="stroke:#181818;stroke-width:1;"/><text fill="#000000" font-family="sans-serif" font-size="13" lengthAdjust="spacing" textLength="242.0869" x="664.25" y="92.8516">18b. 202 Accepted with verification details</text></g><!--link App to Gateway--><g class="link" data-entity-1="App" data-entity-2="Gateway" data-source-line="47" data-uid="lnk39" id="link_App_Gateway"><path codeLine="47" d="M466.11,104.1964 C523.27,109.3964 619.09,117.3264 701.75,120.3564 C775.92,123.0764 794.58,123.0964 868.75,120.3564 C951.68,117.2864 1041.9953,109.7574 1098.3853,104.5574" fill="none" id="App-to-Gateway-1" style="stroke:#181818;stroke-width:1;"/><polygon fill="#181818" points="1104.36,104.0064,1095.0307,100.8498,1099.3811,104.4656,1095.7653,108.816,1104.36,104.0064" style="stroke:#181818;stroke-width:1;"/><text fill="#000000" font-family="sans-serif" font-size="13" lengthAdjust="spacing" textLength="165.4707" x="702.75" y="116.8516">21. POST /api/banking/verify</text></g><!--link Gateway to App--><g class="link" data-entity-1="Gateway" data-entity-2="App" data-source-line="53" data-uid="lnk44" id="link_Gateway_App"><path codeLine="53" d="M1104.33,109.3664 C1048.1,120.4964 952.16,137.7864 868.75,144.3564 C794.76,150.1864 775.75,150.1364 701.75,144.3564 C618.62,137.8564 529.0284,122.0685 472.0384,110.9185" fill="none" id="Gateway-to-App-2" style="stroke:#181818;stroke-width:1;"/><polygon fill="#181818" points="466.15,109.7664,474.2145,115.4201,471.057,110.7265,475.7506,107.5689,466.15,109.7664" style="stroke:#181818;stroke-width:1;"/><text fill="#000000" font-family="sans-serif" font-size="13" lengthAdjust="spacing" textLength="136.6079" x="717.25" y="140.8516">26b1. 400 Bad Request</text></g><!--link Gateway to App--><g class="link" data-entity-1="Gateway" data-entity-2="App" data-source-line="62" data-uid="lnk52" id="link_Gateway_App"><path codeLine="62" d="M1104.44,114.7664 C1048.52,131.8264 953.07,158.2464 868.75,168.3564 C831.9,172.7664 738.6,172.7364 701.75,168.3564 C617.74,158.3764 528.4652,134.1864 471.7752,117.1164" fill="none" id="Gateway-to-App-3" style="stroke:#181818;stroke-width:1;"/><polygon fill="#181818" points="466.03,115.3864,473.4945,121.8115,470.8177,116.8281,475.8011,114.1512,466.03,115.3864" style="stroke:#181818;stroke-width:1;"/><text fill="#000000" font-family="sans-serif" font-size="13" lengthAdjust="spacing" textLength="80.228" x="745.25" y="164.8516">30b2. 200 OK</text></g><!--link Gateway to BankService--><!--link Gateway to BankService--><g class="link" data-entity-1="Gateway" data-entity-2="BankService" data-source-line="25" data-uid="lnk20" id="link_Gateway_BankService"><path codeLine="25" d="M1200.55,82.0464 C1206.29,80.5364 1212.11,79.2364 1217.75,78.3564 C1248.05,73.5964 1325.37,74.1664 1355.75,78.3564 C1361.36,79.1264 1361.2817,78.9203 1367.0217,80.1903" fill="none" id="Gateway-to-BankService" style="stroke:#181818;stroke-width:1;"/><polygon fill="#181818" points="1372.88,81.4864,1364.9566,75.6366,1367.9981,80.4063,1363.2284,83.4477,1372.88,81.4864" style="stroke:#181818;stroke-width:1;"/><text fill="#000000" font-family="sans-serif" font-size="13" lengthAdjust="spacing" textLength="119.2471" x="1227.25" y="68.8516">6. Link bank account</text></g><!--link BankService to Gateway--><g class="link" data-entity-1="BankService" data-entity-2="Gateway" data-source-line="30" data-uid="lnk24" id="link_BankService_Gateway"><path codeLine="30" d="M1372.73,116.6664 C1365.88,118.1864 1358.94,119.4764 1352.25,120.3564 C1323.39,124.1564 1250.04,124.6564 1221.25,120.3564 C1214.46,119.3364 1213.2226,119.323 1206.3426,117.513" fill="none" id="BankService-to-Gateway" style="stroke:#181818;stroke-width:1;"/><polygon fill="#181818" points="1200.54,115.9864,1208.2261,122.1446,1205.3755,117.2586,1210.2615,114.4079,1200.54,115.9864" style="stroke:#181818;stroke-width:1;"/><text fill="#000000" font-family="sans-serif" font-size="13" lengthAdjust="spacing" textLength="129.3779" x="1222.25" y="116.8516">10a. 400 Bad Request</text></g><!--link BankService to Gateway--><g class="link" data-entity-1="BankService" data-entity-2="Gateway" data-source-line="42" data-uid="lnk35" id="link_BankService_Gateway"><path codeLine="42" d="M1406.48,80.2764 C1392.54,70.4464 1374.14,59.4664 1355.75,54.3564 C1340.98,50.2464 1232.39,49.7964 1217.75,54.3564 C1201.2,59.5064 1189.7811,66.7061 1177.7311,76.5261" fill="none" id="BankService-to-Gateway-1" style="stroke:#181818;stroke-width:1;"/><polygon fill="#181818" points="1173.08,80.3164,1182.5836,77.7316,1176.9559,77.1578,1177.5298,71.5301,1173.08,80.3164" style="stroke:#181818;stroke-width:1;"/><text fill="#000000" font-family="sans-serif" font-size="13" lengthAdjust="spacing" textLength="108.418" x="1232.75" y="44.8516">17b. 202 Accepted</text></g><!--link Gateway to BankService--><g class="link" data-entity-1="Gateway" data-entity-2="BankService" data-source-line="48" data-uid="lnk40" id="link_Gateway_BankService"><path codeLine="48" d="M1174.36,118.4064 C1187.1,128.2364 1204.03,139.2164 1221.25,144.3564 C1249.15,152.6764 1324.12,151.8664 1352.25,144.3564 C1371.33,139.2564 1385.6003,131.6235 1400.2403,121.7835" fill="none" id="Gateway-to-BankService-1" style="stroke:#181818;stroke-width:1;"/><polygon fill="#181818" points="1405.22,118.4364,1395.5191,120.1372,1401.0702,121.2256,1399.9818,126.7768,1405.22,118.4364" style="stroke:#181818;stroke-width:1;"/><text fill="#000000" font-family="sans-serif" font-size="13" lengthAdjust="spacing" textLength="108.3862" x="1232.75" y="140.8516">22. Verify amounts</text></g><!--link BankService to Gateway--><g class="link" data-entity-1="BankService" data-entity-2="Gateway" data-source-line="52" data-uid="lnk43" id="link_BankService_Gateway"><path codeLine="52" d="M1372.89,99.3564 C1321.94,99.3564 1254.47,99.3564 1206.61,99.3564" fill="none" id="BankService-to-Gateway-2" style="stroke:#181818;stroke-width:1;"/><polygon fill="#181818" points="1200.61,99.3564,1209.61,103.3564,1205.61,99.3564,1209.61,95.3564,1200.61,99.3564" style="stroke:#181818;stroke-width:1;"/><text fill="#000000" font-family="sans-serif" font-size="13" lengthAdjust="spacing" textLength="136.6079" x="1218.75" y="92.8516">25b1. 400 Bad Request</text></g><!--link BankService to Gateway--><g class="link" data-entity-1="BankService" data-entity-2="Gateway" data-source-line="61" data-uid="lnk51" id="link_BankService_Gateway"><path codeLine="61" d="M1415.83,118.4664 C1401.66,135.2264 1378.51,158.4264 1352.25,168.3564 C1338.63,173.4964 1234.69,173.9364 1221.25,168.3564 C1197.04,158.3064 1180.4657,139.9885 1168.3757,123.2685" fill="none" id="BankService-to-Gateway-3" style="stroke:#181818;stroke-width:1;"/><polygon fill="#181818" points="1164.86,118.4064,1166.8922,128.0434,1167.7898,122.4582,1173.3749,123.3558,1164.86,118.4064" style="stroke:#181818;stroke-width:1;"/><text fill="#000000" font-family="sans-serif" font-size="13" lengthAdjust="spacing" textLength="80.228" x="1246.75" y="164.8516">29b2. 200 OK</text></g><!--link BankService to ExtBank--><!--link BankService to ExtBank--><g class="link" data-entity-1="BankService" data-entity-2="ExtBank" data-source-line="27" data-uid="lnk22" id="link_BankService_ExtBank"><path codeLine="27" d="M1443.07,80.2764 C1453.32,66.5764 1469.15,49.2064 1488,41.3564 C1520.2,27.9364 1610.12,40.7364 1645,41.3564 C2250.12,52.0664 2974.3667,84.7138 3204.4467,95.5638" fill="none" id="BankService-to-ExtBank" style="stroke:#181818;stroke-width:1;"/><polygon fill="#181818" points="3210.44,95.8464,3201.6384,91.4269,3205.4456,95.6109,3201.2616,99.4181,3210.44,95.8464" style="stroke:#181818;stroke-width:1;"/><text fill="#000000" font-family="sans-serif" font-size="13" lengthAdjust="spacing" textLength="155.3589" x="1489" y="46.8516">8. Verify account existence</text></g><!--link ExtBank to BankService--><g class="link" data-entity-1="ExtBank" data-entity-2="BankService" data-source-line="29" data-uid="lnk23" id="link_ExtBank_BankService"><path codeLine="29" d="M3210.44,95.8464 C2980.36,84.9964 2250.12,52.0664 1645,41.3564 C1610.12,40.7364 1520.2,27.9364 1488,41.3564 C1469.15,49.2064 1456.9144,61.7722 1446.6644,75.4722" fill="none" id="ExtBank-to-BankService" style="stroke:#181818;stroke-width:1;"/><polygon fill="#181818" points="1443.07,80.2764,1451.6644,75.4664,1446.0653,76.2729,1445.2588,70.6739,1443.07,80.2764" style="stroke:#181818;stroke-width:1;"/><text fill="#000000" font-family="sans-serif" font-size="13" lengthAdjust="spacing" textLength="149.5952" x="1492" y="46.8516">9a. Invalid account details</text></g><!--link ExtBank to BankService--><g class="link" data-entity-1="ExtBank" data-entity-2="BankService" data-source-line="34" data-uid="lnk27" id="link_ExtBank_BankService"><path codeLine="34" d="M3210.44,95.8464 C2980.36,84.9964 2250.12,52.0664 1645,41.3564 C1610.12,40.7364 1520.2,27.9364 1488,41.3564 C1469.15,49.2064 1456.9144,61.7722 1446.6644,75.4722" fill="none" id="ExtBank-to-BankService-1" style="stroke:#181818;stroke-width:1;"/><polygon fill="#181818" points="1443.07,80.2764,1451.6644,75.4664,1446.0653,76.2729,1445.2588,70.6739,1443.07,80.2764" style="stroke:#181818;stroke-width:1;"/><text fill="#000000" font-family="sans-serif" font-size="13" lengthAdjust="spacing" textLength="105.498" x="1514" y="46.8516">9b. Account exists</text></g><!--link BankService to ExtBank--><g class="link" data-entity-1="BankService" data-entity-2="ExtBank" data-source-line="35" data-uid="lnk28" id="link_BankService_ExtBank"><path codeLine="35" d="M1443.07,80.2764 C1453.32,66.5764 1469.15,49.2064 1488,41.3564 C1520.2,27.9364 1610.12,40.7364 1645,41.3564 C2250.12,52.0664 2974.3667,84.7138 3204.4467,95.5638" fill="none" id="BankService-to-ExtBank-1" style="stroke:#181818;stroke-width:1;"/><polygon fill="#181818" points="3210.44,95.8464,3201.6384,91.4269,3205.4456,95.6109,3201.2616,99.4181,3210.44,95.8464" style="stroke:#181818;stroke-width:1;"/><text fill="#000000" font-family="sans-serif" font-size="13" lengthAdjust="spacing" textLength="192.2261" x="1470.5" y="46.8516">10b. Request account verification</text></g><!--link ExtBank to BankService--><g class="link" data-entity-1="ExtBank" data-entity-2="BankService" data-source-line="37" data-uid="lnk30" id="link_ExtBank_BankService"><path codeLine="37" d="M3210.44,95.8464 C2980.36,84.9964 2250.12,52.0664 1645,41.3564 C1610.12,40.7364 1520.2,27.9364 1488,41.3564 C1469.15,49.2064 1456.9144,61.7722 1446.6644,75.4722" fill="none" id="ExtBank-to-BankService-2" style="stroke:#181818;stroke-width:1;"/><polygon fill="#181818" points="1443.07,80.2764,1451.6644,75.4664,1446.0653,76.2729,1445.2588,70.6739,1443.07,80.2764" style="stroke:#181818;stroke-width:1;"/><text fill="#000000" font-family="sans-serif" font-size="13" lengthAdjust="spacing" textLength="141.6416" x="1496" y="46.8516">12b. Verification initiated</text></g><!--link BankService to ExtBank--><g class="link" data-entity-1="BankService" data-entity-2="ExtBank" data-source-line="49" data-uid="lnk41" id="link_BankService_ExtBank"><path codeLine="49" d="M1443.07,80.2764 C1453.32,66.5764 1469.15,49.2064 1488,41.3564 C1520.2,27.9364 1610.12,40.7364 1645,41.3564 C2250.12,52.0664 2974.3667,84.7138 3204.4467,95.5638" fill="none" id="BankService-to-ExtBank-2" style="stroke:#181818;stroke-width:1;"/><polygon fill="#181818" points="3210.44,95.8464,3201.6384,91.4269,3205.4456,95.6109,3201.2616,99.4181,3210.44,95.8464" style="stroke:#181818;stroke-width:1;"/><text fill="#000000" font-family="sans-serif" font-size="13" lengthAdjust="spacing" textLength="187.8843" x="1473" y="46.8516">23. Validate verification amounts</text></g><!--link ExtBank to BankService--><g class="link" data-entity-1="ExtBank" data-entity-2="BankService" data-source-line="51" data-uid="lnk42" id="link_ExtBank_BankService"><path codeLine="51" d="M3210.44,95.8464 C2980.36,84.9964 2250.12,52.0664 1645,41.3564 C1610.12,40.7364 1520.2,27.9364 1488,41.3564 C1469.15,49.2064 1456.9144,61.7722 1446.6644,75.4722" fill="none" id="ExtBank-to-BankService-3" style="stroke:#181818;stroke-width:1;"/><polygon fill="#181818" points="1443.07,80.2764,1451.6644,75.4664,1446.0653,76.2729,1445.2588,70.6739,1443.07,80.2764" style="stroke:#181818;stroke-width:1;"/><text fill="#000000" font-family="sans-serif" font-size="13" lengthAdjust="spacing" textLength="135.1416" x="1499" y="46.8516">24b1. Verification failed</text></g><!--link ExtBank to BankService--><g class="link" data-entity-1="ExtBank" data-entity-2="BankService" data-source-line="56" data-uid="lnk46" id="link_ExtBank_BankService"><path codeLine="56" d="M3210.44,95.8464 C2980.36,84.9964 2250.12,52.0664 1645,41.3564 C1610.12,40.7364 1520.2,27.9364 1488,41.3564 C1469.15,49.2064 1456.9144,61.7722 1446.6644,75.4722" fill="none" id="ExtBank-to-BankService-4" style="stroke:#181818;stroke-width:1;"/><polygon fill="#181818" points="1443.07,80.2764,1451.6644,75.4664,1446.0653,76.2729,1445.2588,70.6739,1443.07,80.2764" style="stroke:#181818;stroke-width:1;"/><text fill="#000000" font-family="sans-serif" font-size="13" lengthAdjust="spacing" textLength="164.7534" x="1484.5" y="46.8516">24b2. Verification successful</text></g><!--link BankService to NotifService--><!--link BankService to NotifService--><g class="link" data-entity-1="BankService" data-entity-2="NotifService" data-source-line="40" data-uid="lnk33" id="link_BankService_NotifService"><path codeLine="40" d="M1488.22,99.3564 C1592.41,99.3564 1805.35,99.3564 1916.17,99.3564" fill="none" id="BankService-to-NotifService" style="stroke:#181818;stroke-width:1;"/><polygon fill="#181818" points="1922.17,99.3564,1913.17,95.3564,1917.17,99.3564,1913.17,103.3564,1922.17,99.3564" style="stroke:#181818;stroke-width:1;"/><text fill="#000000" font-family="sans-serif" font-size="13" lengthAdjust="spacing" textLength="194.3843" x="1608.25" y="92.8516">15b. Send verification instructions</text></g><!--link NotifService to BankService--><g class="link" data-entity-1="NotifService" data-entity-2="BankService" data-source-line="41" data-uid="lnk34" id="link_NotifService_BankService"><path codeLine="41" d="M1922.07,117.6164 C1881.23,127.7264 1827.9,139.2464 1779.75,144.3564 C1713.9,151.3364 1696.57,151.6564 1630.75,144.3564 C1582.05,138.9464 1533.7009,127.8992 1494.0009,117.4092" fill="none" id="NotifService-to-BankService" style="stroke:#181818;stroke-width:1;"/><polygon fill="#181818" points="1488.2,115.8764,1495.8795,122.0429,1493.0341,117.1538,1497.9232,114.3083,1488.2,115.8764" style="stroke:#181818;stroke-width:1;"/><text fill="#000000" font-family="sans-serif" font-size="13" lengthAdjust="spacing" textLength="140.2134" x="1635.25" y="140.8516">16b. Notification queued</text></g><!--link BankService to NotifService--><g class="link" data-entity-1="BankService" data-entity-2="NotifService" data-source-line="59" data-uid="lnk49" id="link_BankService_NotifService"><path codeLine="59" d="M1488.06,90.7764 C1522.54,86.0664 1567.3,80.7164 1607.25,78.3564 C1694.21,73.2064 1716.28,73.4664 1803.25,78.3564 C1842.89,80.5864 1881.0878,84.7008 1916.4578,89.1908" fill="none" id="BankService-to-NotifService-1" style="stroke:#181818;stroke-width:1;"/><polygon fill="#181818" points="1922.41,89.9464,1913.9854,84.8449,1917.4498,89.3168,1912.9779,92.7812,1922.41,89.9464" style="stroke:#181818;stroke-width:1;"/><text fill="#000000" font-family="sans-serif" font-size="13" lengthAdjust="spacing" textLength="140.9243" x="1635.25" y="68.8516">27b2. Send confirmation</text></g><!--link NotifService to BankService--><g class="link" data-entity-1="NotifService" data-entity-2="BankService" data-source-line="60" data-uid="lnk50" id="link_NotifService_BankService"><path codeLine="60" d="M1922.09,107.8264 C1881.02,112.5664 1827.45,117.9764 1779.75,120.3564 C1713.61,123.6564 1696.88,123.8164 1630.75,120.3564 C1582.58,117.8364 1534.1052,112.6585 1494.1652,107.7485" fill="none" id="NotifService-to-BankService-1" style="stroke:#181818;stroke-width:1;"/><polygon fill="#181818" points="1488.21,107.0164,1496.6547,112.0847,1493.1726,107.6265,1497.6308,104.1445,1488.21,107.0164" style="stroke:#181818;stroke-width:1;"/><text fill="#000000" font-family="sans-serif" font-size="13" lengthAdjust="spacing" textLength="147.4434" x="1631.75" y="116.8516">28b2. Notification queued</text></g><!--link BankService to DB--><!--link BankService to DB--><g class="link" data-entity-1="BankService" data-entity-2="DB" data-source-line="38" data-uid="lnk31" id="link_BankService_DB"><path codeLine="38" d="M1488.26,96.8164 C1577.66,92.9464 1754.97,85.4664 1905.5,80.3564 C2524.94,59.3064 2679.76,50.0264 3299.5,41.3564 C3384.82,40.1664 3408.26,22.5764 3491.5,41.3564 C3524.67,48.8364 3554.2207,63.4446 3578.1007,77.3046" fill="none" id="BankService-to-DB" style="stroke:#181818;stroke-width:1;"/><polygon fill="#181818" points="3583.29,80.3164,3577.514,72.3391,3578.9656,77.8066,3573.4982,79.2582,3583.29,80.3164" style="stroke:#181818;stroke-width:1;"/><text fill="#000000" font-family="sans-serif" font-size="13" lengthAdjust="spacing" textLength="190.8105" x="3300.5" y="46.8516">13b. Store pending bank account</text></g><!--link DB to BankService--><g class="link" data-entity-1="DB" data-entity-2="BankService" data-source-line="39" data-uid="lnk32" id="link_DB_BankService"><path codeLine="39" d="M3583.29,80.3164 C3559.41,66.4564 3524.67,48.8364 3491.5,41.3564 C3408.26,22.5764 3384.82,40.1664 3299.5,41.3564 C2679.76,50.0264 2524.94,59.3064 1905.5,80.3564 C1754.97,85.4664 1583.6544,92.687 1494.2544,96.557" fill="none" id="DB-to-BankService" style="stroke:#181818;stroke-width:1;"/><polygon fill="#181818" points="1488.26,96.8164,1497.4246,100.4235,1493.2553,96.6002,1497.0786,92.431,1488.26,96.8164" style="stroke:#181818;stroke-width:1;"/><text fill="#000000" font-family="sans-serif" font-size="13" lengthAdjust="spacing" textLength="78.0444" x="3356.5" y="46.8516">14b. Success</text></g><!--link BankService to DB--><g class="link" data-entity-1="BankService" data-entity-2="DB" data-source-line="57" data-uid="lnk47" id="link_BankService_DB"><path codeLine="57" d="M1488.26,96.8164 C1577.66,92.9464 1754.97,85.4664 1905.5,80.3564 C2524.94,59.3064 2679.76,50.0264 3299.5,41.3564 C3384.82,40.1664 3408.26,22.5764 3491.5,41.3564 C3524.67,48.8364 3554.2207,63.4446 3578.1007,77.3046" fill="none" id="BankService-to-DB-1" style="stroke:#181818;stroke-width:1;"/><polygon fill="#181818" points="3583.29,80.3164,3577.514,72.3391,3578.9656,77.8066,3573.4982,79.2582,3583.29,80.3164" style="stroke:#181818;stroke-width:1;"/><text fill="#000000" font-family="sans-serif" font-size="13" lengthAdjust="spacing" textLength="257.2769" x="3267" y="46.8516">25b2. Update bank account status to verified</text></g><!--link DB to BankService--><g class="link" data-entity-1="DB" data-entity-2="BankService" data-source-line="58" data-uid="lnk48" id="link_DB_BankService"><path codeLine="58" d="M3583.29,80.3164 C3559.41,66.4564 3524.67,48.8364 3491.5,41.3564 C3408.26,22.5764 3384.82,40.1664 3299.5,41.3564 C2679.76,50.0264 2524.94,59.3064 1905.5,80.3564 C1754.97,85.4664 1583.6544,92.687 1494.2544,96.557" fill="none" id="DB-to-BankService-1" style="stroke:#181818;stroke-width:1;"/><polygon fill="#181818" points="1488.26,96.8164,1497.4246,100.4235,1493.2553,96.6002,1497.0786,92.431,1488.26,96.8164" style="stroke:#181818;stroke-width:1;"/><text fill="#000000" font-family="sans-serif" font-size="13" lengthAdjust="spacing" textLength="85.2744" x="3353" y="46.8516">26b2. Success</text></g><!--link App to App--><g class="link" data-entity-1="App" data-entity-2="App" data-source-line="21" data-uid="lnk16" id="link_App_App"><path codeLine="21" d="M466.41,95.7964 C485.38,95.6864 501,96.8664 501,99.3564 C501,101.8364 491.3799,103.0644 472.4099,102.9444" fill="none" id="App-to-App" style="stroke:#181818;stroke-width:1;"/><polygon fill="#181818" points="466.41,102.9064,475.3845,106.9633,471.4099,102.9381,475.4351,98.9635,466.41,102.9064" style="stroke:#181818;stroke-width:1;"/><text fill="#000000" font-family="sans-serif" font-size="13" lengthAdjust="spacing" textLength="167.6353" x="507" y="104.8516">2. Display bank account form</text></g><!--link App to App--><g class="link" data-entity-1="App" data-entity-2="App" data-source-line="23" data-uid="lnk18" id="link_App_App"><path codeLine="23" d="M466.11,94.3764 C545.46,90.3364 680,91.9964 680,99.3564 C680,106.7164 551.4523,108.6708 472.1023,104.6408" fill="none" id="App-to-App-1" style="stroke:#181818;stroke-width:1;"/><polygon fill="#181818" points="466.11,104.3364,474.8955,108.7878,471.1036,104.5901,475.3013,100.7981,466.11,104.3364" style="stroke:#181818;stroke-width:1;"/><text fill="#000000" font-family="sans-serif" font-size="13" lengthAdjust="spacing" textLength="133.688" x="686" y="104.8516">4. Validate input format</text></g><!--link BankService to BankService--><g class="link" data-entity-1="BankService" data-entity-2="BankService" data-source-line="26" data-uid="lnk21" id="link_BankService_BankService"><path codeLine="26" d="M1488.31,92.2264 C1507.58,92.2264 1523,94.6064 1523,99.3564 C1523,104.1064 1513.58,106.4764 1494.31,106.4764" fill="none" id="BankService-to-BankService" style="stroke:#181818;stroke-width:1;"/><polygon fill="#181818" points="1488.31,106.4764,1497.31,110.4764,1493.31,106.4764,1497.31,102.4764,1488.31,106.4764" style="stroke:#181818;stroke-width:1;"/><text fill="#000000" font-family="sans-serif" font-size="13" lengthAdjust="spacing" textLength="174.8779" x="1529" y="104.8516">7. Validate bank details format</text></g><!--link ExtBank to ExtBank--><g class="link" data-entity-1="ExtBank" data-entity-2="ExtBank" data-source-line="36" data-uid="lnk29" id="link_ExtBank_ExtBank"><path codeLine="36" d="M3356.69,92.2864 C3376.46,92.6564 3391.5,95.0164 3391.5,99.3564 C3391.5,103.6964 3382.4589,105.9442 3362.6889,106.3142" fill="none" id="ExtBank-to-ExtBank" style="stroke:#181818;stroke-width:1;"/><polygon fill="#181818" points="3356.69,106.4264,3365.7633,110.2573,3361.6891,106.3329,3365.6136,102.2587,3356.69,106.4264" style="stroke:#181818;stroke-width:1;"/><text fill="#000000" font-family="sans-serif" font-size="13" lengthAdjust="spacing" textLength="155.3525" x="3397.5" y="104.8516">11b. Initiate micro-deposits</text></g><!--SRC=[bLLDKzim4BtdL-pG0-qX9bR2LmxCm0GwJ3_8GEcbquDiAq75aLrB3gI_lhkodLYA4rekEDPRxTkt-zQ7C14pgGJal30obZbNHiEBD4-WJS6DcCiOyanB8pCbrHnC1Wkfv4B-4I2L4OKMCPtfNXRzmaSukCSOZGSYWKSjYWFWsZx0knlxjmRUy5HdKxw2opotAFo_1RgSti97vF72LnPJFs_XhhXw9duFebZAM5WilQj_R-6lNv6YuYaqWPZ81k41lTeA-9ePEPCnfsATBFPWLve9DppYka9EhjRdlKEOrgf2XTMEj76HQKsqKcoExbdz-Z-UP988zREGyoVJ9xbw99d_lfQerqZbdxTawRKbyd6r4jsO97jHVQVsVRZ95LNyHMZDvqB3-zBMjgX-WoeN4GuI2I1LGXeBo8f451_gmY_iQ8mX353vr0hxMMAFRACkupWhbJcej6YWB829r7cAzKU4uXKAPbcny6uT1d1Da-m24s6uJBLxwoY0xpoL2J6KAY-h-xXfK8taOpWEO7hty0sEU2wFech6Zh2PpvksN3W3EeQJ06nLRHgkg7x4QOkEZQf9Dwoyu6Qqnt26WQAGizMwNF5AfbNOnbu3ws_bE-S1tAebfTpIoSdbI14EC6mq6E1b2ToBtwNGPgF2fhbX1ypgYX3RCSGmlkchA8giQ8PeB-qeQAQagbFlLYOS8BZElgvnILhLtj_aSSB2YAH1GrCl5XBzsq-4NPnw3xEGHNKdciqYwpiIdo8k3yGF4VzWiW8Nja2he8cSQK5GHv8H1PLnZ4hvjphB2w771CMRdPAH57uCodhFEo4TsKxm2cTPefQbNuyx8ASOmWQCcYHoghrZEiuyJFMHScWwbcqD3VM_6PhTTNbRWT4WL7l1YU4BKbflEvw5NPQtiQlTfcTiOyNwvfspoOOjltUIsZDgR1I5tgpDKAszZM775FEsTTb95yvh0pibK6SVh9FV8CyyyheQw5cPTZe5gMF4OxxPZOsPjU6cj1-RYWCgq6aRB8hzgs-mDbOR9yxKJDBsfLtnXbVO6ONzdrdOESKmrFhkKqShXeFMiTU1OHYrFeiEqRy0]--></g></svg>