<svg xmlns="http://www.w3.org/2000/svg" xmlns:xlink="http://www.w3.org/1999/xlink" contentStyleType="text/css" data-diagram-type="CLASS" height="570px" preserveAspectRatio="none" style="width:742px;height:570px;background:#FFFFFF;" version="1.1" viewBox="0 0 742 570" width="742px" zoomAndPan="magnify"><title>Collaboration Diagram: Admin &amp; Reporting</title><defs/><g><text fill="#000000" font-family="sans-serif" font-size="14" font-weight="bold" lengthAdjust="spacing" textLength="286.2275" x="221.3303" y="24.5332">Collaboration Diagram: Admin &amp; Reporting</text><text fill="#000000" font-family="sans-serif" font-size="14" font-weight="bold" lengthAdjust="spacing" textLength="129.1445" x="299.8718" y="42.1426">(UC33, UC35-UC40)</text><g class="entity" data-entity="Admin" data-source-line="5" data-uid="ent0002" id="entity_Admin"><rect fill="#F1F1F1" height="37.6094" rx="2.5" ry="2.5" style="stroke:#181818;stroke-width:0.5;" width="53.6826" x="392.12" y="63.2188"/><text fill="#000000" font-family="sans-serif" font-size="14" lengthAdjust="spacing" textLength="39.6826" x="399.12" y="79.752">Admin</text><line style="stroke:#181818;stroke-width:0.5;" x1="393.12" x2="444.8026" y1="84.8281" y2="84.8281"/></g><g class="entity" data-entity="Portal" data-source-line="6" data-uid="ent0003" id="entity_Portal"><rect fill="#F1F1F1" height="37.6094" rx="2.5" ry="2.5" style="stroke:#181818;stroke-width:0.5;" width="94.1445" x="372.12" y="179.2188"/><text fill="#000000" font-family="sans-serif" font-size="14" lengthAdjust="spacing" textLength="80.1445" x="379.12" y="195.752">Admin Portal</text><line style="stroke:#181818;stroke-width:0.5;" x1="373.12" x2="465.2645" y1="200.8281" y2="200.8281"/></g><g class="entity" data-entity="Gateway" data-source-line="7" data-uid="ent0004" id="entity_Gateway"><rect fill="#F1F1F1" height="37.6094" rx="2.5" ry="2.5" style="stroke:#181818;stroke-width:0.5;" width="69.248" x="384.62" y="295.2188"/><text fill="#000000" font-family="sans-serif" font-size="14" lengthAdjust="spacing" textLength="55.248" x="391.62" y="311.752">Gateway</text><line style="stroke:#181818;stroke-width:0.5;" x1="385.62" x2="452.868" y1="316.8281" y2="316.8281"/></g><g class="entity" data-entity="UserService" data-source-line="8" data-uid="ent0005" id="entity_UserService"><rect fill="#F1F1F1" height="37.6094" rx="2.5" ry="2.5" style="stroke:#181818;stroke-width:0.5;" width="82.4482" x="188.12" y="411.2188"/><text fill="#000000" font-family="sans-serif" font-size="14" lengthAdjust="spacing" textLength="68.4482" x="195.12" y="427.752">User Mgmt</text><line style="stroke:#181818;stroke-width:0.5;" x1="189.12" x2="269.5682" y1="432.8281" y2="432.8281"/></g><g class="entity" data-entity="ReportService" data-source-line="9" data-uid="ent0006" id="entity_ReportService"><rect fill="#F1F1F1" height="37.6094" rx="2.5" ry="2.5" style="stroke:#181818;stroke-width:0.5;" width="125.2754" x="426.62" y="411.2188"/><text fill="#000000" font-family="sans-serif" font-size="14" lengthAdjust="spacing" textLength="111.2754" x="433.62" y="427.752">Reporting Service</text><line style="stroke:#181818;stroke-width:0.5;" x1="427.62" x2="550.8954" y1="432.8281" y2="432.8281"/></g><g class="entity" data-entity="Database" data-source-line="10" data-uid="ent0007" id="entity_Database"><rect fill="#F1F1F1" height="37.6094" rx="2.5" ry="2.5" style="stroke:#181818;stroke-width:0.5;" width="73.9307" x="340.12" y="527.2188"/><text fill="#000000" font-family="sans-serif" font-size="14" lengthAdjust="spacing" textLength="59.9307" x="347.12" y="543.752">Database</text><line style="stroke:#181818;stroke-width:0.5;" x1="341.12" x2="413.0507" y1="548.8281" y2="548.8281"/></g><!--link Admin to Portal--><g class="link" data-entity-1="Admin" data-entity-2="Portal" data-source-line="13" data-uid="lnk8" id="link_Admin_Portal"><path codeLine="13" d="M391.79,84.7588 C338.52,88.7987 228.88,102.8587 263.12,149.2188 C287.87,182.7288 329.6629,193.0551 365.8429,196.2251" fill="none" id="Admin-to-Portal" style="stroke:#181818;stroke-width:1;"/><polygon fill="#181818" points="371.82,196.7487,363.2035,191.9785,366.8391,196.3123,362.5052,199.9479,371.82,196.7487" style="stroke:#181818;stroke-width:1;"/><text fill="#000000" font-family="sans-serif" font-size="13" lengthAdjust="spacing" textLength="111.2871" x="264.12" y="145.7139">1. Generate Report</text></g><!--link Admin to Portal--><g class="link" data-entity-1="Admin" data-entity-2="Portal" data-source-line="21" data-uid="lnk14" id="link_Admin_Portal"><path codeLine="21" d="M417.72,101.4388 C417.09,110.3988 416.43,121.3687 416.12,131.2188 C415.62,147.3888 416.1419,159.7848 417.1119,173.0348" fill="none" id="Admin-to-Portal-1" style="stroke:#181818;stroke-width:1;"/><polygon fill="#181818" points="417.55,179.0188,420.8822,169.7507,417.1849,174.0321,412.9036,170.3348,417.55,179.0188" style="stroke:#181818;stroke-width:1;"/><text fill="#000000" font-family="sans-serif" font-size="13" lengthAdjust="spacing" textLength="106.9326" x="417.12" y="145.7139">7. Deactivate User</text></g><!--link Admin to Portal--><g class="link" data-entity-1="Admin" data-entity-2="Portal" data-source-line="29" data-uid="lnk20" id="link_Admin_Portal"><path codeLine="29" d="M446.38,88.0587 C485.4,96.2588 550.18,115.3988 528.12,149.2188 C514.34,170.3488 494.6995,180.5571 471.8895,187.2171" fill="none" id="Admin-to-Portal-2" style="stroke:#181818;stroke-width:1;"/><polygon fill="#181818" points="466.13,188.8988,475.8904,190.216,470.9296,187.4974,473.6482,182.5366,466.13,188.8988" style="stroke:#181818;stroke-width:1;"/><text fill="#000000" font-family="sans-serif" font-size="13" lengthAdjust="spacing" textLength="94.6436" x="534.12" y="145.7139">13. View Tickets</text></g><!--link Portal to Gateway--><g class="link" data-entity-1="Portal" data-entity-2="Gateway" data-source-line="14" data-uid="lnk9" id="link_Portal_Gateway"><path codeLine="14" d="M372.11,201.9388 C277.65,207.8788 72.01,223.4388 51.12,247.2188 C6,298.6188 278.5818,309.971 378.4718,312.431" fill="none" id="Portal-to-Gateway" style="stroke:#181818;stroke-width:1;"/><polygon fill="#181818" points="384.47,312.5788,375.5712,308.3584,379.4715,312.4557,375.3742,316.356,384.47,312.5788" style="stroke:#181818;stroke-width:1;"/><text fill="#000000" font-family="sans-serif" font-size="13" lengthAdjust="spacing" textLength="88.8608" x="52.12" y="261.7139">2. GET /reports</text></g><!--link Gateway to Portal--><g class="link" data-entity-1="Gateway" data-entity-2="Portal" data-source-line="18" data-uid="lnk13" id="link_Gateway_Portal"><path codeLine="18" d="M433.96,295.2088 C442.87,282.1988 451.67,264.0388 447.12,247.2188 C444.25,236.5988 441.6817,230.9352 436.0517,222.3552" fill="none" id="Gateway-to-Portal" style="stroke:#181818;stroke-width:1;"/><polygon fill="#181818" points="432.76,217.3388,434.3532,227.0579,435.5031,221.5191,441.0418,222.669,432.76,217.3388" style="stroke:#181818;stroke-width:1;"/><text fill="#000000" font-family="sans-serif" font-size="13" lengthAdjust="spacing" textLength="70.1099" x="450.12" y="261.7139">6. download</text></g><!--link Portal to Gateway--><g class="link" data-entity-1="Portal" data-entity-2="Gateway" data-source-line="22" data-uid="lnk15" id="link_Portal_Gateway"><path codeLine="22" d="M371.87,201.8588 C309.48,206.4588 204.75,218.3488 181.12,247.2188 C176.06,253.4088 176.06,259.0288 181.12,265.2188 C206.42,296.1288 318.6925,307.1918 378.4225,311.0518" fill="none" id="Portal-to-Gateway-1" style="stroke:#181818;stroke-width:1;"/><polygon fill="#181818" points="384.41,311.4388,375.6867,306.8667,379.4204,311.1163,375.1708,314.85,384.41,311.4388" style="stroke:#181818;stroke-width:1;"/><text fill="#000000" font-family="sans-serif" font-size="13" lengthAdjust="spacing" textLength="126.4517" x="182.12" y="261.7139">8. DELETE /users/{id}</text></g><!--link Gateway to Portal--><g class="link" data-entity-1="Gateway" data-entity-2="Portal" data-source-line="26" data-uid="lnk19" id="link_Gateway_Portal"><path codeLine="26" d="M453.66,306.9188 C493.24,298.0488 550.11,279.2688 529.12,247.2188 C515.14,225.8687 495.1278,215.6117 472.0278,208.9917" fill="none" id="Gateway-to-Portal-1" style="stroke:#181818;stroke-width:1;"/><polygon fill="#181818" points="466.26,207.3388,473.8098,213.6634,471.0665,208.7162,476.0137,205.9729,466.26,207.3388" style="stroke:#181818;stroke-width:1;"/><text fill="#000000" font-family="sans-serif" font-size="13" lengthAdjust="spacing" textLength="62.1436" x="535.12" y="261.7139">12. refresh</text></g><!--link Portal to Gateway--><g class="link" data-entity-1="Portal" data-entity-2="Gateway" data-source-line="30" data-uid="lnk21" id="link_Portal_Gateway"><path codeLine="30" d="M375.98,217.3588 C363.8,224.7387 352,234.5688 345.12,247.2188 C332.96,269.6088 354.1778,285.5997 378.8078,297.2697" fill="none" id="Portal-to-Gateway-2" style="stroke:#181818;stroke-width:1;"/><polygon fill="#181818" points="384.23,299.8388,377.8095,292.3703,379.7115,297.6978,374.384,299.5999,384.23,299.8388" style="stroke:#181818;stroke-width:1;"/><text fill="#000000" font-family="sans-serif" font-size="13" lengthAdjust="spacing" textLength="92.4727" x="346.12" y="261.7139">14. GET /tickets</text></g><!--link Gateway to Portal--><g class="link" data-entity-1="Gateway" data-entity-2="Portal" data-source-line="34" data-uid="lnk25" id="link_Gateway_Portal"><path codeLine="34" d="M453.92,312.7688 C518.56,310.6788 647.06,299.9888 606.12,247.2188 C589.12,225.2987 521.8928,212.4853 472.2828,205.5853" fill="none" id="Gateway-to-Portal-2" style="stroke:#181818;stroke-width:1;"/><polygon fill="#181818" points="466.34,204.7588,474.7032,209.9604,471.2923,205.4475,475.8052,202.0367,466.34,204.7588" style="stroke:#181818;stroke-width:1;"/><text fill="#000000" font-family="sans-serif" font-size="13" lengthAdjust="spacing" textLength="62.1499" x="614.12" y="261.7139">18. display</text></g><!--link Gateway to ReportService--><g class="link" data-entity-1="Gateway" data-entity-2="ReportService" data-source-line="15" data-uid="lnk10" id="link_Gateway_ReportService"><path codeLine="15" d="M384.33,333.1088 C364.48,345.7688 345.79,363.5688 358.12,381.2188 C373.73,403.5588 395.0999,414.0703 420.6799,420.4803" fill="none" id="Gateway-to-ReportService" style="stroke:#181818;stroke-width:1;"/><polygon fill="#181818" points="426.5,421.9388,418.7422,415.8711,421.65,420.7234,416.7976,423.6311,426.5,421.9388" style="stroke:#181818;stroke-width:1;"/><text fill="#000000" font-family="sans-serif" font-size="13" lengthAdjust="spacing" textLength="74.4326" x="359.12" y="377.7139">3. generate()</text></g><!--link ReportService to Gateway--><g class="link" data-entity-1="ReportService" data-entity-2="Gateway" data-source-line="17" data-uid="lnk12" id="link_ReportService_Gateway"><path codeLine="17" d="M537.39,411.1387 C561.59,399.2388 583.08,382.3388 569.12,363.2188 C542.85,327.2188 495.2081,317.9867 459.7181,315.7467" fill="none" id="ReportService-to-Gateway" style="stroke:#181818;stroke-width:1;"/><polygon fill="#181818" points="453.73,315.3688,462.4602,319.9277,458.7201,315.6837,462.9641,311.9436,453.73,315.3688" style="stroke:#181818;stroke-width:1;"/><text fill="#000000" font-family="sans-serif" font-size="13" lengthAdjust="spacing" textLength="78.7554" x="574.12" y="377.7139">5. return CSV</text></g><!--link Gateway to ReportService--><g class="link" data-entity-1="Gateway" data-entity-2="ReportService" data-source-line="31" data-uid="lnk22" id="link_Gateway_ReportService"><path codeLine="31" d="M430.22,333.2788 C443.25,354.4988 461.611,384.4053 474.711,405.7453" fill="none" id="Gateway-to-ReportService-1" style="stroke:#181818;stroke-width:1;"/><polygon fill="#181818" points="477.85,410.8588,476.5505,401.096,475.2342,406.5976,469.7326,405.2813,477.85,410.8588" style="stroke:#181818;stroke-width:1;"/><text fill="#000000" font-family="sans-serif" font-size="13" lengthAdjust="spacing" textLength="89.5845" x="460.12" y="377.7139">15. getTickets()</text></g><!--link ReportService to Gateway--><g class="link" data-entity-1="ReportService" data-entity-2="Gateway" data-source-line="33" data-uid="lnk24" id="link_ReportService_Gateway"><path codeLine="33" d="M551.85,425.5588 C613.73,419.5888 694.56,403.9388 661.12,363.2188 C635.3,331.7688 520.499,320.9226 459.929,317.2426" fill="none" id="ReportService-to-Gateway-1" style="stroke:#181818;stroke-width:1;"/><polygon fill="#181818" points="453.94,316.8787,462.6809,321.4172,458.9308,317.182,463.166,313.4319,453.94,316.8787" style="stroke:#181818;stroke-width:1;"/><text fill="#000000" font-family="sans-serif" font-size="13" lengthAdjust="spacing" textLength="65.7681" x="669.12" y="377.7139">17. 200 OK</text></g><!--link ReportService to Database--><g class="link" data-entity-1="ReportService" data-entity-2="Database" data-source-line="16" data-uid="lnk11" id="link_ReportService_Database"><path codeLine="16" d="M426.42,442.9088 C406.29,449.9488 386.12,461.2188 374.12,479.2188 C364.78,493.2488 365.6315,507.1241 369.3515,521.3441" fill="none" id="ReportService-to-Database" style="stroke:#181818;stroke-width:1;"/><polygon fill="#181818" points="370.87,527.1488,372.462,517.4294,369.6046,522.3115,364.7224,519.4541,370.87,527.1488" style="stroke:#181818;stroke-width:1;"/><text fill="#000000" font-family="sans-serif" font-size="13" lengthAdjust="spacing" textLength="83.0908" x="375.12" y="493.7139">4. queryData()</text></g><!--link ReportService to Database--><g class="link" data-entity-1="ReportService" data-entity-2="Database" data-source-line="32" data-uid="lnk23" id="link_ReportService_Database"><path codeLine="32" d="M485.55,449.2188 C481.94,463.5788 475.12,483.4988 463.12,497.2188 C450.07,512.1488 436.6242,520.8652 419.8742,528.7052" fill="none" id="ReportService-to-Database-1" style="stroke:#181818;stroke-width:1;"/><polygon fill="#181818" points="414.44,531.2488,424.287,531.0563,418.9685,529.1291,420.8956,523.8107,414.44,531.2488" style="stroke:#181818;stroke-width:1;"/><text fill="#000000" font-family="sans-serif" font-size="13" lengthAdjust="spacing" textLength="104.0317" x="476.12" y="493.7139">16. queryTickets()</text></g><!--link Gateway to UserService--><g class="link" data-entity-1="Gateway" data-entity-2="UserService" data-source-line="23" data-uid="lnk16" id="link_Gateway_UserService"><path codeLine="23" d="M384.43,315.5588 C314.35,317.0488 159.79,324.7388 127.12,363.2188 C105.21,389.0288 145.1119,406.7321 182.2219,417.6021" fill="none" id="Gateway-to-UserService" style="stroke:#181818;stroke-width:1;"/><polygon fill="#181818" points="187.98,419.2888,180.4673,412.9201,183.1816,417.8832,178.2185,420.5975,187.98,419.2888" style="stroke:#181818;stroke-width:1;"/><text fill="#000000" font-family="sans-serif" font-size="13" lengthAdjust="spacing" textLength="82.3735" x="128.12" y="377.7139">9. deactivate()</text></g><!--link UserService to Gateway--><g class="link" data-entity-1="UserService" data-entity-2="Gateway" data-source-line="25" data-uid="lnk18" id="link_UserService_Gateway"><path codeLine="25" d="M239.04,411.1588 C248,396.3688 262.48,375.8887 280.12,363.2188 C311.65,340.5888 348.8806,329.2001 378.6906,322.6301" fill="none" id="UserService-to-Gateway" style="stroke:#181818;stroke-width:1;"/><polygon fill="#181818" points="384.55,321.3388,374.9,319.3696,379.6672,322.4149,376.6219,327.1821,384.55,321.3388" style="stroke:#181818;stroke-width:1;"/><text fill="#000000" font-family="sans-serif" font-size="13" lengthAdjust="spacing" textLength="65.7681" x="281.12" y="377.7139">11. 200 OK</text></g><!--link UserService to Database--><g class="link" data-entity-1="UserService" data-entity-2="Database" data-source-line="24" data-uid="lnk17" id="link_UserService_Database"><path codeLine="24" d="M231.23,449.3688 C233.82,464.0088 239.54,484.2388 252.12,497.2188 C275.5,521.3388 306.458,532.2494 334.088,538.2794" fill="none" id="UserService-to-Database" style="stroke:#181818;stroke-width:1;"/><polygon fill="#181818" points="339.95,539.5587,332.0099,533.7317,335.065,538.4926,330.3041,541.5478,339.95,539.5587" style="stroke:#181818;stroke-width:1;"/><text fill="#000000" font-family="sans-serif" font-size="13" lengthAdjust="spacing" textLength="106.958" x="253.12" y="493.7139">10. updateStatus()</text></g><!--SRC=[XPDDJy9048Rl_HKJ3Yg95CgN7mSJ0uI36erydBmixLXNsrtStKA8yRyx2zj2jS5Bq-uydRxppbl3JO9G6yWaOGkfcE5Im92pMB7q6cwZb0iuWMTSIcMuY5_4sMpGwPm3NNkDsQ3RgjSyxnI6-Ce5WjveWoc4CbrAWS9eJoxUCJIxHlb3RTVsYLgof0PCkzkyFcO6rsnJu3ED2XxYr6nP-pH1jU8X5aIX3rnbI-vEVx53PjY2QRIgxIZGW34AfCdHlU3jv3KQDquNN4FW_w5SpM9EC75juaPJQAejexsyOgcI768xFiIkvrdTArSjdoibjEl3PuPgOuygsRs2dWyAJQO432RpqlUBOVe-H78j4iaYvqAVN1WY2mrVsGcjnLKkNFX_g4eNBeaRtO-c8sXc1Edc5u- -IreEbaZy5Gag-j9yXzLVJWGj7x9bHDp4C9Ff2dgl8w2rjLijUBohDY9eMxDU5UetPyGbXTsccloOSrp3b8SVI7kiYWJjhyHKMX5qNIACeuub8kZPI1ZNyBzG17sNYcFyWPABVyoWhKLSBnFwytu0]--></g></svg>