<svg xmlns="http://www.w3.org/2000/svg" xmlns:xlink="http://www.w3.org/1999/xlink" contentStyleType="text/css" data-diagram-type="CLASS" height="296px" preserveAspectRatio="none" style="width:3356px;height:296px;background:#FFFFFF;" version="1.1" viewBox="0 0 3356 296" width="3356px" zoomAndPan="magnify"><defs/><g><g class="entity" data-entity="User" data-source-line="3" data-uid="ent0002" id="entity_User"><rect fill="#FFFFFF" height="37.6094" rx="2.5" ry="2.5" style="stroke:#181818;stroke-width:0.5;" width="115.1514" x="1438.12" y="104.3564"/><text fill="#000000" font-family="sans-serif" font-size="14" lengthAdjust="spacing" textLength="101.1514" x="1445.12" y="120.8896">Registered User</text><line style="stroke:#181818;stroke-width:0.5;" x1="1439.12" x2="1552.2714" y1="125.9658" y2="125.9658"/></g><g class="entity" data-entity="App" data-source-line="4" data-uid="ent0003" id="entity_App"><rect fill="#FFFFFF" height="37.6094" rx="2.5" ry="2.5" style="stroke:#181818;stroke-width:0.5;" width="101.1582" x="1810.12" y="104.3564"/><text fill="#000000" font-family="sans-serif" font-size="14" lengthAdjust="spacing" textLength="87.1582" x="1817.12" y="120.8896">FalsoPay App</text><line style="stroke:#181818;stroke-width:0.5;" x1="1811.12" x2="1910.2782" y1="125.9658" y2="125.9658"/></g><g class="entity" data-entity="Gateway" data-source-line="5" data-uid="ent0004" id="entity_Gateway"><rect fill="#FFFFFF" height="37.6094" rx="2.5" ry="2.5" style="stroke:#181818;stroke-width:0.5;" width="95.7031" x="2538.62" y="104.3564"/><text fill="#000000" font-family="sans-serif" font-size="14" lengthAdjust="spacing" textLength="81.7031" x="2545.62" y="120.8896">API Gateway</text><line style="stroke:#181818;stroke-width:0.5;" x1="2539.62" x2="2633.3231" y1="125.9658" y2="125.9658"/></g><g class="entity" data-entity="TransService" data-source-line="6" data-uid="ent0005" id="entity_TransService"><rect fill="#FFFFFF" height="37.6094" rx="2.5" ry="2.5" style="stroke:#181818;stroke-width:0.5;" width="137.7168" x="593.62" y="220.3564"/><text fill="#000000" font-family="sans-serif" font-size="14" lengthAdjust="spacing" textLength="123.7168" x="600.62" y="236.8896">Transaction Service</text><line style="stroke:#181818;stroke-width:0.5;" x1="594.62" x2="730.3368" y1="241.9658" y2="241.9658"/></g><g class="entity" data-entity="SecService" data-source-line="7" data-uid="ent0006" id="entity_SecService"><rect fill="#FFFFFF" height="37.6094" rx="2.5" ry="2.5" style="stroke:#181818;stroke-width:0.5;" width="115.1445" x="2916.12" y="104.3564"/><text fill="#000000" font-family="sans-serif" font-size="14" lengthAdjust="spacing" textLength="101.1445" x="2923.12" y="120.8896">Security Service</text><line style="stroke:#181818;stroke-width:0.5;" x1="2917.12" x2="3030.2645" y1="125.9658" y2="125.9658"/></g><g class="entity" data-entity="AccountService" data-source-line="8" data-uid="ent0007" id="entity_AccountService"><rect fill="#FFFFFF" height="37.6094" rx="2.5" ry="2.5" style="stroke:#181818;stroke-width:0.5;" width="115.1582" x="1872.12" y="220.3564"/><text fill="#000000" font-family="sans-serif" font-size="14" lengthAdjust="spacing" textLength="101.1582" x="1879.12" y="236.8896">Account Service</text><line style="stroke:#181818;stroke-width:0.5;" x1="1873.12" x2="1986.2782" y1="241.9658" y2="241.9658"/></g><g class="entity" data-entity="NotifService" data-source-line="9" data-uid="ent0008" id="entity_NotifService"><rect fill="#FFFFFF" height="37.6094" rx="2.5" ry="2.5" style="stroke:#181818;stroke-width:0.5;" width="133.8271" x="1154.62" y="220.3564"/><text fill="#000000" font-family="sans-serif" font-size="14" lengthAdjust="spacing" textLength="119.8271" x="1161.62" y="236.8896">Notification Service</text><line style="stroke:#181818;stroke-width:0.5;" x1="1155.62" x2="1287.4471" y1="241.9658" y2="241.9658"/></g><g class="entity" data-entity="DB" data-source-line="10" data-uid="ent0009" id="entity_DB"><rect fill="#FFFFFF" height="37.6094" rx="2.5" ry="2.5" style="stroke:#181818;stroke-width:0.5;" width="73.9307" x="2546.62" y="220.3564"/><text fill="#000000" font-family="sans-serif" font-size="14" lengthAdjust="spacing" textLength="59.9307" x="2553.62" y="236.8896">Database</text><line style="stroke:#181818;stroke-width:0.5;" x1="2547.62" x2="2619.5507" y1="241.9658" y2="241.9658"/></g><!--link User to App--><!--link User to App--><g class="link" data-entity-1="User" data-entity-2="App" data-source-line="22" data-uid="lnk17" id="link_User_App"><path codeLine="22" d="M1522.79,142.4564 C1538.46,152.2964 1559,163.2764 1579.12,168.3564 C1601.21,173.9264 1762.14,174.3364 1784.12,168.3564 C1802.85,163.2564 1816.7383,155.6793 1831.0283,145.8393" fill="none" id="User-to-App" style="stroke:#181818;stroke-width:1;"/><polygon fill="#181818" points="1835.97,142.4364,1826.2888,144.2462,1831.8519,145.2721,1830.826,150.8352,1835.97,142.4364" style="stroke:#181818;stroke-width:1;"/><text fill="#000000" font-family="sans-serif" font-size="13" lengthAdjust="spacing" textLength="143.0698" x="1610.12" y="164.8516">1. Initiate money transfer</text></g><!--link App to User--><g class="link" data-entity-1="App" data-entity-2="User" data-source-line="32" data-uid="lnk26" id="link_App_User"><path codeLine="32" d="M1809.99,139.2964 C1801.43,141.3964 1792.58,143.2164 1784.12,144.3564 C1738.97,150.4364 1624.33,149.9564 1579.12,144.3564 C1570.67,143.3064 1567.7008,142.9715 1559.0808,141.0815" fill="none" id="App-to-User" style="stroke:#181818;stroke-width:1;"/><polygon fill="#181818" points="1553.22,139.7964,1561.1545,145.6312,1558.104,140.8673,1562.8678,137.8168,1553.22,139.7964" style="stroke:#181818;stroke-width:1;"/><text fill="#000000" font-family="sans-serif" font-size="13" lengthAdjust="spacing" textLength="203.0425" x="1580.12" y="140.8516">10a. Display insufficient funds error</text></g><!--link User to App--><g class="link" data-entity-1="User" data-entity-2="App" data-source-line="39" data-uid="lnk32" id="link_User_App"><path codeLine="39" d="M1553.43,105.4864 C1559.2,104.2164 1564.99,103.1264 1570.62,102.3564 C1619.5,95.6464 1743.84,94.9964 1792.62,102.3564 C1798.24,103.2064 1798.2191,102.9712 1803.9391,104.4012" fill="none" id="User-to-App-1" style="stroke:#181818;stroke-width:1;"/><polygon fill="#181818" points="1809.76,105.8564,1801.9989,99.7931,1804.9093,104.6438,1800.0586,107.5542,1809.76,105.8564" style="stroke:#181818;stroke-width:1;"/><text fill="#000000" font-family="sans-serif" font-size="13" lengthAdjust="spacing" textLength="159.7007" x="1602.12" y="92.8516">12b. Select transfer method</text></g><!--link User to App--><g class="link" data-entity-1="User" data-entity-2="App" data-source-line="49" data-uid="lnk40" id="link_User_App"><path codeLine="49" d="M1511.55,142.4964 C1526.87,159.2764 1551.69,182.4864 1579.12,192.3564 C1600.55,200.0664 1762.86,200.5264 1784.12,192.3564 C1810,182.4064 1828.7661,163.8483 1842.5661,147.0883" fill="none" id="User-to-App-2" style="stroke:#181818;stroke-width:1;"/><polygon fill="#181818" points="1846.38,142.4564,1837.5713,146.8617,1843.2018,146.3164,1843.7471,151.9469,1846.38,142.4564" style="stroke:#181818;stroke-width:1;"/><text fill="#000000" font-family="sans-serif" font-size="13" lengthAdjust="spacing" textLength="85.2681" x="1639.12" y="188.8516">20b. Enter PIN</text></g><!--link App to User--><g class="link" data-entity-1="App" data-entity-2="User" data-source-line="58" data-uid="lnk48" id="link_App_User"><path codeLine="58" d="M1839.04,104.3064 C1826.44,94.4764 1809.7,83.4964 1792.62,78.3564 C1769,71.2464 1594.39,71.7664 1570.62,78.3564 C1552.18,83.4664 1538.6393,90.997 1524.6493,100.827" fill="none" id="App-to-User-1" style="stroke:#181818;stroke-width:1;"/><polygon fill="#181818" points="1519.74,104.2764,1529.4036,102.3751,1523.8311,101.4019,1524.8043,95.8294,1519.74,104.2764" style="stroke:#181818;stroke-width:1;"/><text fill="#000000" font-family="sans-serif" font-size="13" lengthAdjust="spacing" textLength="135.1099" x="1614.12" y="68.8516">28b1. Display PIN error</text></g><!--link App to User--><g class="link" data-entity-1="App" data-entity-2="User" data-source-line="78" data-uid="lnk65" id="link_App_User"><path codeLine="78" d="M1810.11,123.3564 C1742.86,123.3564 1630.21,123.3564 1559.46,123.3564" fill="none" id="App-to-User-2" style="stroke:#181818;stroke-width:1;"/><polygon fill="#181818" points="1553.46,123.3564,1562.46,127.3564,1558.46,123.3564,1562.46,119.3564,1553.46,123.3564" style="stroke:#181818;stroke-width:1;"/><text fill="#000000" font-family="sans-serif" font-size="13" lengthAdjust="spacing" textLength="220.3906" x="1571.62" y="116.8516">42b2. Display transaction confirmation</text></g><!--link App to Gateway--><!--link App to Gateway--><g class="link" data-entity-1="App" data-entity-2="Gateway" data-source-line="23" data-uid="lnk18" id="link_App_Gateway"><path codeLine="23" d="M1911.4,111.6564 C1962.48,100.5364 2043.65,84.6064 2114.87,78.3564 C2163.57,74.0764 2286.17,74.0364 2334.87,78.3564 C2406.3,84.6864 2481.9312,99.6425 2532.3712,110.7825" fill="none" id="App-to-Gateway" style="stroke:#181818;stroke-width:1;"/><polygon fill="#181818" points="2538.23,112.0764,2530.3044,106.2296,2533.3477,110.9981,2528.5791,114.0414,2538.23,112.0764" style="stroke:#181818;stroke-width:1;"/><text fill="#000000" font-family="sans-serif" font-size="13" lengthAdjust="spacing" textLength="196.5425" x="2126.87" y="68.8516">2. POST /api/transactions/prepare</text></g><!--link Gateway to App--><g class="link" data-entity-1="Gateway" data-entity-2="App" data-source-line="31" data-uid="lnk25" id="link_Gateway_App"><path codeLine="31" d="M2547.91,142.4664 C2499.24,165.3364 2412.46,202.2964 2333.37,216.3564 C2309.63,220.5764 2140.12,220.5364 2116.37,216.3564 C2036.57,202.2964 1954.3503,167.8669 1905.1803,144.9969" fill="none" id="Gateway-to-App" style="stroke:#181818;stroke-width:1;"/><polygon fill="#181818" points="1899.74,142.4664,1906.2135,149.8889,1904.2736,144.5751,1909.5874,142.6352,1899.74,142.4664" style="stroke:#181818;stroke-width:1;"/><text fill="#000000" font-family="sans-serif" font-size="13" lengthAdjust="spacing" textLength="122.1479" x="2163.87" y="212.8516">9a. 400 Bad Request</text></g><!--link Gateway to App--><g class="link" data-entity-1="Gateway" data-entity-2="App" data-source-line="37" data-uid="lnk30" id="link_Gateway_App"><path codeLine="37" d="M2538.41,134.5364 C2487.71,145.6664 2405.43,162.0064 2333.37,168.3564 C2285.34,172.5864 2164.41,172.5464 2116.37,168.3564 C2044.51,162.0864 1968.4338,147.3477 1917.0938,136.2177" fill="none" id="Gateway-to-App-1" style="stroke:#181818;stroke-width:1;"/><polygon fill="#181818" points="1911.23,134.9464,1919.1782,140.7625,1916.1165,136.0058,1920.8732,132.9441,1911.23,134.9464" style="stroke:#181818;stroke-width:1;"/><text fill="#000000" font-family="sans-serif" font-size="13" lengthAdjust="spacing" textLength="208.1206" x="2120.87" y="164.8516">10b. 200 OK with transaction details</text></g><!--link App to Gateway--><g class="link" data-entity-1="App" data-entity-2="Gateway" data-source-line="41" data-uid="lnk33" id="link_App_Gateway"><path codeLine="41" d="M1911.2,117.9464 C1962.45,112.7464 2044.07,105.2764 2114.87,102.3564 C2212.57,98.3264 2237.18,98.2864 2334.87,102.3564 C2405.86,105.3064 2481.8514,112.3232 2532.4614,117.5232" fill="none" id="App-to-Gateway-1" style="stroke:#181818;stroke-width:1;"/><polygon fill="#181818" points="2538.43,118.1364,2529.886,113.2375,2533.4562,117.6254,2529.0683,121.1956,2538.43,118.1364" style="stroke:#181818;stroke-width:1;"/><text fill="#000000" font-family="sans-serif" font-size="13" lengthAdjust="spacing" textLength="209.5552" x="2120.37" y="92.8516">13b. POST /api/transactions/method</text></g><!--link Gateway to App--><g class="link" data-entity-1="Gateway" data-entity-2="App" data-source-line="46" data-uid="lnk38" id="link_Gateway_App"><path codeLine="46" d="M2548.15,104.2464 C2499.78,81.3764 2413.53,44.4164 2334.87,30.3564 C2310.81,26.0564 2138.94,26.0964 2114.87,30.3564 C2035.5,44.4164 1953.8046,78.8337 1904.9246,101.7037" fill="none" id="Gateway-to-App-2" style="stroke:#181818;stroke-width:1;"/><polygon fill="#181818" points="1899.49,104.2464,1909.337,104.0554,1904.0188,102.1275,1905.9467,96.8093,1899.49,104.2464" style="stroke:#181818;stroke-width:1;"/><text fill="#000000" font-family="sans-serif" font-size="13" lengthAdjust="spacing" textLength="72.998" x="2188.87" y="20.8516">18b. 200 OK</text></g><!--link App to Gateway--><g class="link" data-entity-1="App" data-entity-2="Gateway" data-source-line="50" data-uid="lnk41" id="link_App_Gateway"><path codeLine="50" d="M1911.25,141.2664 C1962.27,158.3064 2043.66,182.7164 2116.37,192.3564 C2164.18,198.6864 2285.57,198.7464 2333.37,192.3564 C2406.32,182.5964 2482.327,159.6109 2532.707,142.5509" fill="none" id="App-to-Gateway-2" style="stroke:#181818;stroke-width:1;"/><polygon fill="#181818" points="2538.39,140.6264,2528.5825,139.7244,2533.6542,142.2301,2531.1484,147.3017,2538.39,140.6264" style="stroke:#181818;stroke-width:1;"/><text fill="#000000" font-family="sans-serif" font-size="13" lengthAdjust="spacing" textLength="193.6289" x="2128.37" y="188.8516">21b. POST /api/security/verify-pin</text></g><!--link Gateway to App--><g class="link" data-entity-1="Gateway" data-entity-2="App" data-source-line="57" data-uid="lnk47" id="link_Gateway_App"><path codeLine="57" d="M2538.22,105.9264 C2488.11,88.8664 2407.18,64.0864 2334.87,54.3564 C2286.42,47.8364 2163.33,47.8964 2114.87,54.3564 C2042.79,63.9664 1967.8583,86.3476 1917.1083,103.3776" fill="none" id="Gateway-to-App-3" style="stroke:#181818;stroke-width:1;"/><polygon fill="#181818" points="1911.42,105.2864,1921.2249,106.2154,1916.1602,103.6958,1918.6799,98.6311,1911.42,105.2864" style="stroke:#181818;stroke-width:1;"/><text fill="#000000" font-family="sans-serif" font-size="13" lengthAdjust="spacing" textLength="138.7725" x="2155.87" y="44.8516">27b1. 401 Unauthorized</text></g><!--link App to Gateway--><g class="link" data-entity-1="App" data-entity-2="Gateway" data-source-line="61" data-uid="lnk50" id="link_App_Gateway"><path codeLine="61" d="M1911.38,123.3564 C2045.4,123.3564 2401.4,123.3564 2532.44,123.3564" fill="none" id="App-to-Gateway-3" style="stroke:#181818;stroke-width:1;"/><polygon fill="#181818" points="2538.44,123.3564,2529.44,119.3564,2533.44,123.3564,2529.44,127.3564,2538.44,123.3564" style="stroke:#181818;stroke-width:1;"/><text fill="#000000" font-family="sans-serif" font-size="13" lengthAdjust="spacing" textLength="218.9561" x="2115.87" y="116.8516">27b2. POST /api/transactions/execute</text></g><!--link Gateway to App--><g class="link" data-entity-1="Gateway" data-entity-2="App" data-source-line="77" data-uid="lnk64" id="link_Gateway_App"><path codeLine="77" d="M2538.62,128.5264 C2487.74,133.7264 2405,141.3864 2333.37,144.3564 C2237.01,148.3464 2212.73,148.3064 2116.37,144.3564 C2045.15,141.4364 1969.0197,134.5686 1917.4697,129.3686" fill="none" id="Gateway-to-App-4" style="stroke:#181818;stroke-width:1;"/><polygon fill="#181818" points="1911.5,128.7664,1920.0531,133.6495,1916.4748,129.2683,1920.856,125.6899,1911.5,128.7664" style="stroke:#181818;stroke-width:1;"/><text fill="#000000" font-family="sans-serif" font-size="13" lengthAdjust="spacing" textLength="215.3506" x="2117.37" y="140.8516">41b2. 200 OK with transaction details</text></g><!--link Gateway to TransService--><!--link Gateway to TransService--><g class="link" data-entity-1="Gateway" data-entity-2="TransService" data-source-line="24" data-uid="lnk19" id="link_Gateway_TransService"><path codeLine="24" d="M2538.5,128.1264 C2481.87,132.4064 2384.98,139.1764 2301.62,142.3564 C2269.84,143.5664 33.97,149.7164 11.62,172.3564 C6,178.0464 6.18,184.4964 11.62,190.3564 C50.6,232.3064 427.85,237.9173 587.44,238.4273" fill="none" id="Gateway-to-TransService" style="stroke:#181818;stroke-width:1;"/><polygon fill="#181818" points="593.44,238.4464,584.4528,234.4177,588.44,238.4305,584.4273,242.4177,593.44,238.4464" style="stroke:#181818;stroke-width:1;"/><text fill="#000000" font-family="sans-serif" font-size="13" lengthAdjust="spacing" textLength="127.9053" x="12.62" y="186.8516">3. Prepare transaction</text></g><!--link TransService to Gateway--><g class="link" data-entity-1="TransService" data-entity-2="Gateway" data-source-line="30" data-uid="lnk24" id="link_TransService_Gateway"><path codeLine="30" d="M625.93,220.0864 C603.87,206.7964 582.85,188.4064 598.62,172.3564 C631.78,138.6064 2254.35,144.2664 2301.62,142.3564 C2384.97,138.9864 2475.8765,132.7212 2532.5165,128.5112" fill="none" id="TransService-to-Gateway" style="stroke:#181818;stroke-width:1;"/><polygon fill="#181818" points="2538.5,128.0664,2529.2283,124.7446,2533.5138,128.4371,2529.8213,132.7226,2538.5,128.0664" style="stroke:#181818;stroke-width:1;"/><text fill="#000000" font-family="sans-serif" font-size="13" lengthAdjust="spacing" textLength="122.1479" x="599.62" y="186.8516">8a. 400 Bad Request</text></g><!--link TransService to Gateway--><g class="link" data-entity-1="TransService" data-entity-2="Gateway" data-source-line="36" data-uid="lnk29" id="link_TransService_Gateway"><path codeLine="36" d="M731.69,235.3664 C823.96,231.4664 992.57,224.6264 1136.62,220.3564 C1214.99,218.0364 2479.94,229.9364 2547.62,190.3564 C2565.31,180.0064 2573.8229,163.8808 2579.4029,148.1608" fill="none" id="TransService-to-Gateway-1" style="stroke:#181818;stroke-width:1;"/><polygon fill="#181818" points="2581.41,142.5064,2574.6298,149.6499,2579.7374,147.2184,2582.1689,152.326,2581.41,142.5064" style="stroke:#181818;stroke-width:1;"/><text fill="#000000" font-family="sans-serif" font-size="13" lengthAdjust="spacing" textLength="145.2534" x="2566.62" y="186.8516">9b. Transaction prepared</text></g><!--link Gateway to TransService--><g class="link" data-entity-1="Gateway" data-entity-2="TransService" data-source-line="42" data-uid="lnk34" id="link_Gateway_TransService"><path codeLine="42" d="M2538.5,128.1164 C2481.87,132.3764 2384.97,139.1364 2301.62,142.3564 C2272.18,143.4964 201.31,151.3764 180.62,172.3564 C121.54,232.2764 440.42,238.9069 587.35,238.8969" fill="none" id="Gateway-to-TransService-1" style="stroke:#181818;stroke-width:1;"/><polygon fill="#181818" points="593.35,238.8964,584.35,234.8964,588.35,238.8964,584.35,242.8964,593.35,238.8964" style="stroke:#181818;stroke-width:1;"/><text fill="#000000" font-family="sans-serif" font-size="13" lengthAdjust="spacing" textLength="143.0825" x="181.62" y="186.8516">14b. Set transfer method</text></g><!--link TransService to Gateway--><g class="link" data-entity-1="TransService" data-entity-2="Gateway" data-source-line="45" data-uid="lnk37" id="link_TransService_Gateway"><path codeLine="45" d="M731.69,235.3164 C823.96,231.3564 992.57,224.4564 1136.62,220.3564 C1180.61,219.1064 2689.8,221.7664 2720.62,190.3564 C2750.95,159.4464 2690.5891,141.8723 2640.8491,132.6323" fill="none" id="TransService-to-Gateway-2" style="stroke:#181818;stroke-width:1;"/><polygon fill="#181818" points="2634.95,131.5364,2643.0681,137.1129,2639.8659,132.4497,2644.5292,129.2475,2634.95,131.5364" style="stroke:#181818;stroke-width:1;"/><text fill="#000000" font-family="sans-serif" font-size="13" lengthAdjust="spacing" textLength="72.998" x="2728.62" y="186.8516">17b. 200 OK</text></g><!--link Gateway to TransService--><g class="link" data-entity-1="Gateway" data-entity-2="TransService" data-source-line="62" data-uid="lnk51" id="link_Gateway_TransService"><path codeLine="62" d="M2538.5,128.0964 C2481.87,132.3364 2384.97,139.0764 2301.62,142.3564 C2247.88,144.4664 403.36,134.0264 365.62,172.3564 C360.01,178.0564 360.44,184.2664 365.62,190.3564 C394.27,224.0064 508.8644,233.9171 587.2944,236.9171" fill="none" id="Gateway-to-TransService-2" style="stroke:#181818;stroke-width:1;"/><polygon fill="#181818" points="593.29,237.1464,584.4495,232.8054,588.2937,236.9553,584.1437,240.7995,593.29,237.1464" style="stroke:#181818;stroke-width:1;"/><text fill="#000000" font-family="sans-serif" font-size="13" lengthAdjust="spacing" textLength="150.3188" x="366.62" y="186.8516">28b2. Execute transaction</text></g><!--link TransService to Gateway--><g class="link" data-entity-1="TransService" data-entity-2="Gateway" data-source-line="76" data-uid="lnk63" id="link_TransService_Gateway"><path codeLine="76" d="M731.69,235.2964 C823.96,231.3164 992.56,224.3864 1136.62,220.3564 C1183.08,219.0564 2777.05,223.5164 2809.62,190.3564 C2863.24,135.7664 2721.279,125.9468 2640.799,124.4668" fill="none" id="TransService-to-Gateway-3" style="stroke:#181818;stroke-width:1;"/><polygon fill="#181818" points="2634.8,124.3564,2643.7249,128.5212,2639.7992,124.4484,2643.872,120.5226,2634.8,124.3564" style="stroke:#181818;stroke-width:1;"/><text fill="#000000" font-family="sans-serif" font-size="13" lengthAdjust="spacing" textLength="168.3652" x="2820.62" y="186.8516">40b2. Transaction successful</text></g><!--link TransService to AccountService--><!--link TransService to AccountService--><g class="link" data-entity-1="TransService" data-entity-2="AccountService" data-source-line="25" data-uid="lnk20" id="link_TransService_AccountService"><path codeLine="25" d="M678.38,220.1964 C691.01,206.4664 710.05,189.0764 731.12,181.3564 C761.38,170.2664 843.91,180.4664 876.12,181.3564 C1256.53,191.8164 1707.3359,223.0601 1866.0159,234.6301" fill="none" id="TransService-to-AccountService" style="stroke:#181818;stroke-width:1;"/><polygon fill="#181818" points="1872,235.0664,1863.3147,230.4225,1867.0132,234.7028,1862.7329,238.4014,1872,235.0664" style="stroke:#181818;stroke-width:1;"/><text fill="#000000" font-family="sans-serif" font-size="13" lengthAdjust="spacing" textLength="143.8125" x="732.12" y="186.8516">4. Check sender balance</text></g><!--link AccountService to TransService--><g class="link" data-entity-1="AccountService" data-entity-2="TransService" data-source-line="29" data-uid="lnk23" id="link_AccountService_TransService"><path codeLine="29" d="M1872,235.0664 C1713.32,223.4964 1256.53,191.8164 876.12,181.3564 C843.91,180.4664 761.38,170.2664 731.12,181.3564 C710.05,189.0764 695.0721,202.0506 682.4421,215.7806" fill="none" id="AccountService-to-TransService" style="stroke:#181818;stroke-width:1;"/><polygon fill="#181818" points="678.38,220.1964,687.417,216.2807,681.7651,216.5166,681.5292,210.8646,678.38,220.1964" style="stroke:#181818;stroke-width:1;"/><text fill="#000000" font-family="sans-serif" font-size="13" lengthAdjust="spacing" textLength="132.9771" x="737.62" y="186.8516">7a. Insufficient balance</text></g><!--link AccountService to TransService--><g class="link" data-entity-1="AccountService" data-entity-2="TransService" data-source-line="34" data-uid="lnk27" id="link_AccountService_TransService"><path codeLine="34" d="M1872,235.0664 C1713.32,223.4964 1256.53,191.8164 876.12,181.3564 C843.91,180.4664 761.38,170.2664 731.12,181.3564 C710.05,189.0764 695.0721,202.0506 682.4421,215.7806" fill="none" id="AccountService-to-TransService-1" style="stroke:#181818;stroke-width:1;"/><polygon fill="#181818" points="678.38,220.1964,687.417,216.2807,681.7651,216.5166,681.5292,210.8646,678.38,220.1964" style="stroke:#181818;stroke-width:1;"/><text fill="#000000" font-family="sans-serif" font-size="13" lengthAdjust="spacing" textLength="123.5762" x="742.12" y="186.8516">7b. Balance sufficient</text></g><!--link TransService to AccountService--><g class="link" data-entity-1="TransService" data-entity-2="AccountService" data-source-line="74" data-uid="lnk61" id="link_TransService_AccountService"><path codeLine="74" d="M678.38,220.1964 C691.01,206.4664 710.05,189.0764 731.12,181.3564 C761.38,170.2664 843.91,180.4664 876.12,181.3564 C1256.53,191.8164 1707.3359,223.0601 1866.0159,234.6301" fill="none" id="TransService-to-AccountService-1" style="stroke:#181818;stroke-width:1;"/><polygon fill="#181818" points="1872,235.0664,1863.3147,230.4225,1867.0132,234.7028,1862.7329,238.4014,1872,235.0664" style="stroke:#181818;stroke-width:1;"/><text fill="#000000" font-family="sans-serif" font-size="13" lengthAdjust="spacing" textLength="133.7134" x="737.12" y="186.8516">38b2. Update balances</text></g><!--link AccountService to TransService--><g class="link" data-entity-1="AccountService" data-entity-2="TransService" data-source-line="75" data-uid="lnk62" id="link_AccountService_TransService"><path codeLine="75" d="M1872,235.0664 C1713.32,223.4964 1256.53,191.8164 876.12,181.3564 C843.91,180.4664 761.38,170.2664 731.12,181.3564 C710.05,189.0764 695.0721,202.0506 682.4421,215.7806" fill="none" id="AccountService-to-TransService-2" style="stroke:#181818;stroke-width:1;"/><polygon fill="#181818" points="678.38,220.1964,687.417,216.2807,681.7651,216.5166,681.5292,210.8646,678.38,220.1964" style="stroke:#181818;stroke-width:1;"/><text fill="#000000" font-family="sans-serif" font-size="13" lengthAdjust="spacing" textLength="140.2261" x="733.62" y="186.8516">39b2. Balances updated</text></g><!--link TransService to SecService--><!--link TransService to NotifService--><!--link TransService to NotifService--><g class="link" data-entity-1="TransService" data-entity-2="NotifService" data-source-line="69" data-uid="lnk57" id="link_TransService_NotifService"><path codeLine="69" d="M731.88,249.3164 C765.4,253.6464 806.27,258.2164 843.12,260.3564 C931.86,265.4964 954.38,265.5564 1043.12,260.3564 C1080.03,258.1964 1115.071,254.3071 1148.451,249.9271" fill="none" id="TransService-to-NotifService" style="stroke:#181818;stroke-width:1;"/><polygon fill="#181818" points="1154.4,249.1464,1144.9561,246.3514,1149.4425,249.797,1145.9969,254.2834,1154.4,249.1464" style="stroke:#181818;stroke-width:1;"/><text fill="#000000" font-family="sans-serif" font-size="13" lengthAdjust="spacing" textLength="198.7388" x="844.12" y="256.8516">34b2. Send confirmation to sender</text></g><!--link NotifService to TransService--><g class="link" data-entity-1="NotifService" data-entity-2="TransService" data-source-line="70" data-uid="lnk58" id="link_NotifService_TransService"><path codeLine="70" d="M1161.6,258.4264 C1127.3,268.3264 1083.24,279.3764 1043.12,284.3564 C999.02,289.8264 887.23,289.7764 843.12,284.3564 C802.57,279.3764 763.7896,269.973 729.0996,260.073" fill="none" id="NotifService-to-TransService" style="stroke:#181818;stroke-width:1;"/><polygon fill="#181818" points="723.33,258.4264,730.8868,264.7427,728.138,259.7986,733.0822,257.0499,723.33,258.4264" style="stroke:#181818;stroke-width:1;"/><text fill="#000000" font-family="sans-serif" font-size="13" lengthAdjust="spacing" textLength="147.4434" x="869.62" y="280.8516">35b2. Notification queued</text></g><!--link TransService to NotifService--><g class="link" data-entity-1="TransService" data-entity-2="NotifService" data-source-line="71" data-uid="lnk59" id="link_TransService_NotifService"><path codeLine="71" d="M731.73,239.3564 C839.81,239.3564 1041.52,239.3564 1148.42,239.3564" fill="none" id="TransService-to-NotifService-1" style="stroke:#181818;stroke-width:1;"/><polygon fill="#181818" points="1154.42,239.3564,1145.42,235.3564,1149.42,239.3564,1145.42,243.3564,1154.42,239.3564" style="stroke:#181818;stroke-width:1;"/><text fill="#000000" font-family="sans-serif" font-size="13" lengthAdjust="spacing" textLength="199.4688" x="843.62" y="232.8516">36b2. Send notification to recipient</text></g><!--link NotifService to TransService--><g class="link" data-entity-1="NotifService" data-entity-2="TransService" data-source-line="72" data-uid="lnk60" id="link_NotifService_TransService"><path codeLine="72" d="M1154.59,229.5564 C1121.3,225.1764 1080.43,220.5164 1043.62,218.3564 C954.44,213.1164 931.8,213.1664 842.62,218.3564 C805.87,220.4964 771.0703,224.2957 737.6403,228.6257" fill="none" id="NotifService-to-TransService-1" style="stroke:#181818;stroke-width:1;"/><polygon fill="#181818" points="731.69,229.3964,741.1292,232.2072,736.6486,228.7542,740.1016,224.2735,731.69,229.3964" style="stroke:#181818;stroke-width:1;"/><text fill="#000000" font-family="sans-serif" font-size="13" lengthAdjust="spacing" textLength="147.4434" x="869.62" y="208.8516">37b2. Notification queued</text></g><!--link NotifService to DB--><!--link AccountService to DB--><g class="link" data-entity-1="AccountService" data-entity-2="DB" data-source-line="26" data-uid="lnk21" id="link_AccountService_DB"><path codeLine="26" d="M1987.37,239.3564 C2118.79,239.3564 2431.22,239.3564 2540.27,239.3564" fill="none" id="AccountService-to-DB" style="stroke:#181818;stroke-width:1;"/><polygon fill="#181818" points="2546.27,239.3564,2537.27,235.3564,2541.27,239.3564,2537.27,243.3564,2546.27,239.3564" style="stroke:#181818;stroke-width:1;"/><text fill="#000000" font-family="sans-serif" font-size="13" lengthAdjust="spacing" textLength="133.7007" x="2200.37" y="232.8516">5. Get account balance</text></g><!--link DB to AccountService--><g class="link" data-entity-1="DB" data-entity-2="AccountService" data-source-line="27" data-uid="lnk22" id="link_DB_AccountService"><path codeLine="27" d="M2546.45,243.1564 C2494.32,248.2764 2396.49,257.1164 2312.87,260.3564 C2197.34,264.8264 2068.3385,254.2101 1993.3485,246.5001" fill="none" id="DB-to-AccountService" style="stroke:#181818;stroke-width:1;"/><polygon fill="#181818" points="1987.38,245.8864,1995.9237,250.7859,1992.3538,246.3978,1996.7419,242.8279,1987.38,245.8864" style="stroke:#181818;stroke-width:1;"/><text fill="#000000" font-family="sans-serif" font-size="13" lengthAdjust="spacing" textLength="90.3462" x="2221.87" y="256.8516">6. Balance data</text></g><!--link TransService to TransService--><g class="link" data-entity-1="TransService" data-entity-2="TransService" data-source-line="35" data-uid="lnk28" id="link_TransService_TransService"><path codeLine="35" d="M731.63,228.5264 C751.39,228.9464 766.62,232.5564 766.62,239.3564 C766.62,246.1564 757.3886,249.6389 737.6286,250.0589" fill="none" id="TransService-to-TransService" style="stroke:#181818;stroke-width:1;"/><polygon fill="#181818" points="731.63,250.1864,740.713,253.9943,736.6289,250.0802,740.543,245.9961,731.63,250.1864" style="stroke:#181818;stroke-width:1;"/><text fill="#000000" font-family="sans-serif" font-size="13" lengthAdjust="spacing" textLength="157.5298" x="772.62" y="244.8516">8b. Create transaction draft</text></g><!--link App to App--><g class="link" data-entity-1="App" data-entity-2="App" data-source-line="38" data-uid="lnk31" id="link_App_App"><path codeLine="38" d="M1911.53,117.9264 C1930.5,117.7564 1946.12,119.5564 1946.12,123.3564 C1946.12,127.1464 1936.4997,129.0134 1917.5297,128.8334" fill="none" id="App-to-App" style="stroke:#181818;stroke-width:1;"/><polygon fill="#181818" points="1911.53,128.7764,1920.4916,132.8617,1916.5298,128.8239,1920.5675,124.862,1911.53,128.7764" style="stroke:#181818;stroke-width:1;"/><text fill="#000000" font-family="sans-serif" font-size="13" lengthAdjust="spacing" textLength="211.7261" x="1952.12" y="128.8516">11b. Display transfer method options</text></g><!--link App to App--><g class="link" data-entity-1="App" data-entity-2="App" data-source-line="48" data-uid="lnk39" id="link_App_App"><path codeLine="48" d="M1911.17,116.1664 C2001.22,109.4864 2169.12,111.8864 2169.12,123.3564 C2169.12,134.8264 2007.2036,137.6703 1917.1536,130.9903" fill="none" id="App-to-App-1" style="stroke:#181818;stroke-width:1;"/><polygon fill="#181818" points="1911.17,130.5464,1919.8494,135.2013,1916.1563,130.9163,1920.4413,127.2232,1911.17,130.5464" style="stroke:#181818;stroke-width:1;"/><text fill="#000000" font-family="sans-serif" font-size="13" lengthAdjust="spacing" textLength="102.6162" x="2175.12" y="128.8516">19b. Request PIN</text></g><!--link TransService to DB--><g class="link" data-entity-1="TransService" data-entity-2="DB" data-source-line="43" data-uid="lnk35" id="link_TransService_DB"><path codeLine="43" d="M731.69,236.4064 C823.97,232.5064 992.59,225.5264 1136.62,220.3564 C1683.21,200.7364 1819.75,190.0264 2366.62,181.3564 C2406.62,180.7264 2511.55,162.1264 2546.62,181.3564 C2561.6,189.5664 2569.0522,201.1806 2574.7722,214.7006" fill="none" id="TransService-to-DB" style="stroke:#181818;stroke-width:1;"/><polygon fill="#181818" points="2577.11,220.2264,2577.2871,210.3792,2575.1618,215.6216,2569.9194,213.4963,2577.11,220.2264" style="stroke:#181818;stroke-width:1;"/><text fill="#000000" font-family="sans-serif" font-size="13" lengthAdjust="spacing" textLength="178.4961" x="2367.62" y="186.8516">15b. Update transaction record</text></g><!--link DB to TransService--><g class="link" data-entity-1="DB" data-entity-2="TransService" data-source-line="44" data-uid="lnk36" id="link_DB_TransService"><path codeLine="44" d="M2577.11,220.2264 C2571.39,206.7064 2561.6,189.5664 2546.62,181.3564 C2511.55,162.1264 2406.62,180.7264 2366.62,181.3564 C1819.75,190.0264 1683.21,200.7364 1136.62,220.3564 C992.59,225.5264 829.9646,232.2531 737.6846,236.1531" fill="none" id="DB-to-TransService" style="stroke:#181818;stroke-width:1;"/><polygon fill="#181818" points="731.69,236.4064,740.8509,240.0229,736.6855,236.1953,740.5131,232.03,731.69,236.4064" style="stroke:#181818;stroke-width:1;"/><text fill="#000000" font-family="sans-serif" font-size="13" lengthAdjust="spacing" textLength="78.0444" x="2417.62" y="186.8516">16b. Success</text></g><!--link TransService to DB--><g class="link" data-entity-1="TransService" data-entity-2="DB" data-source-line="63" data-uid="lnk52" id="link_TransService_DB"><path codeLine="63" d="M731.69,236.4064 C823.97,232.5064 992.59,225.5264 1136.62,220.3564 C1683.21,200.7364 1819.75,190.0264 2366.62,181.3564 C2406.62,180.7264 2511.55,162.1264 2546.62,181.3564 C2561.6,189.5664 2569.0522,201.1806 2574.7722,214.7006" fill="none" id="TransService-to-DB-1" style="stroke:#181818;stroke-width:1;"/><polygon fill="#181818" points="2577.11,220.2264,2577.2871,210.3792,2575.1618,215.6216,2569.9194,213.4963,2577.11,220.2264" style="stroke:#181818;stroke-width:1;"/><text fill="#000000" font-family="sans-serif" font-size="13" lengthAdjust="spacing" textLength="136.5952" x="2388.62" y="186.8516">29b2. Begin transaction</text></g><!--link TransService to DB--><g class="link" data-entity-1="TransService" data-entity-2="DB" data-source-line="64" data-uid="lnk53" id="link_TransService_DB"><path codeLine="64" d="M731.69,236.4064 C823.97,232.5064 992.59,225.5264 1136.62,220.3564 C1683.21,200.7364 1819.75,190.0264 2366.62,181.3564 C2406.62,180.7264 2511.55,162.1264 2546.62,181.3564 C2561.6,189.5664 2569.0522,201.1806 2574.7722,214.7006" fill="none" id="TransService-to-DB-2" style="stroke:#181818;stroke-width:1;"/><polygon fill="#181818" points="2577.11,220.2264,2577.2871,210.3792,2575.1618,215.6216,2569.9194,213.4963,2577.11,220.2264" style="stroke:#181818;stroke-width:1;"/><text fill="#000000" font-family="sans-serif" font-size="13" lengthAdjust="spacing" textLength="158.9961" x="2377.62" y="186.8516">30b2. Debit sender account</text></g><!--link TransService to DB--><g class="link" data-entity-1="TransService" data-entity-2="DB" data-source-line="65" data-uid="lnk54" id="link_TransService_DB"><path codeLine="65" d="M731.69,236.4064 C823.97,232.5064 992.59,225.5264 1136.62,220.3564 C1683.21,200.7364 1819.75,190.0264 2366.62,181.3564 C2406.62,180.7264 2511.55,162.1264 2546.62,181.3564 C2561.6,189.5664 2569.0522,201.1806 2574.7722,214.7006" fill="none" id="TransService-to-DB-3" style="stroke:#181818;stroke-width:1;"/><polygon fill="#181818" points="2577.11,220.2264,2577.2871,210.3792,2575.1618,215.6216,2569.9194,213.4963,2577.11,220.2264" style="stroke:#181818;stroke-width:1;"/><text fill="#000000" font-family="sans-serif" font-size="13" lengthAdjust="spacing" textLength="172.7134" x="2370.62" y="186.8516">31b2. Credit recipient account</text></g><!--link TransService to DB--><g class="link" data-entity-1="TransService" data-entity-2="DB" data-source-line="66" data-uid="lnk55" id="link_TransService_DB"><path codeLine="66" d="M731.69,236.4064 C823.97,232.5064 992.59,225.5264 1136.62,220.3564 C1683.21,200.7364 1819.75,190.0264 2366.62,181.3564 C2406.62,180.7264 2511.55,162.1264 2546.62,181.3564 C2561.6,189.5664 2569.0522,201.1806 2574.7722,214.7006" fill="none" id="TransService-to-DB-4" style="stroke:#181818;stroke-width:1;"/><polygon fill="#181818" points="2577.11,220.2264,2577.2871,210.3792,2575.1618,215.6216,2569.9194,213.4963,2577.11,220.2264" style="stroke:#181818;stroke-width:1;"/><text fill="#000000" font-family="sans-serif" font-size="13" lengthAdjust="spacing" textLength="182.8252" x="2365.62" y="186.8516">32b2. Create transaction record</text></g><!--link DB to TransService--><g class="link" data-entity-1="DB" data-entity-2="TransService" data-source-line="67" data-uid="lnk56" id="link_DB_TransService"><path codeLine="67" d="M2577.11,220.2264 C2571.39,206.7064 2561.6,189.5664 2546.62,181.3564 C2511.55,162.1264 2406.62,180.7264 2366.62,181.3564 C1819.75,190.0264 1683.21,200.7364 1136.62,220.3564 C992.59,225.5264 829.9646,232.2531 737.6846,236.1531" fill="none" id="DB-to-TransService-1" style="stroke:#181818;stroke-width:1;"/><polygon fill="#181818" points="731.69,236.4064,740.8509,240.0229,736.6855,236.1953,740.5131,232.03,731.69,236.4064" style="stroke:#181818;stroke-width:1;"/><text fill="#000000" font-family="sans-serif" font-size="13" lengthAdjust="spacing" textLength="160.4243" x="2376.62" y="186.8516">33b2. Transaction complete</text></g><!--link Gateway to SecService--><g class="link" data-entity-1="Gateway" data-entity-2="SecService" data-source-line="51" data-uid="lnk42" id="link_Gateway_SecService"><path codeLine="51" d="M2634.84,132.1564 C2662.78,136.8064 2698.69,142.0264 2730.87,144.3564 C2770.32,147.2164 2780.41,147.0364 2819.87,144.3564 C2851.72,142.1864 2881.0985,138.4304 2909.8385,134.0504" fill="none" id="Gateway-to-SecService" style="stroke:#181818;stroke-width:1;"/><polygon fill="#181818" points="2915.77,133.1464,2906.2701,130.5481,2910.8271,133.8998,2907.4754,138.4567,2915.77,133.1464" style="stroke:#181818;stroke-width:1;"/><text fill="#000000" font-family="sans-serif" font-size="13" lengthAdjust="spacing" textLength="87.4263" x="2731.87" y="140.8516">22b. Verify PIN</text></g><!--link SecService to Gateway--><g class="link" data-entity-1="SecService" data-entity-2="Gateway" data-source-line="56" data-uid="lnk46" id="link_SecService_Gateway"><path codeLine="56" d="M2915.94,123.3564 C2839.55,123.3564 2712.18,123.3564 2640.85,123.3564" fill="none" id="SecService-to-Gateway" style="stroke:#181818;stroke-width:1;"/><polygon fill="#181818" points="2634.85,123.3564,2643.85,127.3564,2639.85,123.3564,2643.85,119.3564,2634.85,123.3564" style="stroke:#181818;stroke-width:1;"/><text fill="#000000" font-family="sans-serif" font-size="13" lengthAdjust="spacing" textLength="138.7725" x="2706.37" y="116.8516">26b1. 401 Unauthorized</text></g><!--link SecService to Gateway--><g class="link" data-entity-1="SecService" data-entity-2="Gateway" data-source-line="60" data-uid="lnk49" id="link_SecService_Gateway"><path codeLine="60" d="M2916.09,111.8964 C2894.06,108.0464 2868.65,104.2464 2845.37,102.3564 C2783.35,97.3164 2767.36,96.9164 2705.37,102.3564 C2682.01,104.4064 2662.2498,107.532 2640.7898,111.702" fill="none" id="SecService-to-Gateway-1" style="stroke:#181818;stroke-width:1;"/><polygon fill="#181818" points="2634.9,112.8464,2644.4977,115.0563,2639.8082,111.8927,2642.9718,107.2032,2634.9,112.8464" style="stroke:#181818;stroke-width:1;"/><text fill="#000000" font-family="sans-serif" font-size="13" lengthAdjust="spacing" textLength="80.228" x="2735.37" y="92.8516">26b2. 200 OK</text></g><!--link SecService to DB--><g class="link" data-entity-1="SecService" data-entity-2="DB" data-source-line="52" data-uid="lnk43" id="link_SecService_DB"><path codeLine="52" d="M3031.19,134.3464 C3075.42,144.4264 3124.99,162.5164 3099.62,190.3564 C3067.46,225.6464 2739.9288,235.2944 2626.8588,237.5944" fill="none" id="SecService-to-DB" style="stroke:#181818;stroke-width:1;"/><polygon fill="#181818" points="2620.86,237.7164,2629.9395,241.5326,2625.859,237.6148,2629.7768,233.5342,2620.86,237.7164" style="stroke:#181818;stroke-width:1;"/><text fill="#000000" font-family="sans-serif" font-size="13" lengthAdjust="spacing" textLength="146.6943" x="3106.62" y="186.8516">23b. Get stored PIN hash</text></g><!--link DB to SecService--><g class="link" data-entity-1="DB" data-entity-2="SecService" data-source-line="53" data-uid="lnk44" id="link_DB_SecService"><path codeLine="53" d="M2620.64,238.6064 C2755.89,239.1364 3217.73,237.4664 3261.62,190.3564 C3267.07,184.5064 3266.79,178.4564 3261.62,172.3564 C3232.71,138.2264 3112.7558,128.5622 3037.3258,125.7222" fill="none" id="DB-to-SecService" style="stroke:#181818;stroke-width:1;"/><polygon fill="#181818" points="3031.33,125.4964,3040.1731,129.8322,3036.3265,125.6846,3040.4741,121.8379,3031.33,125.4964" style="stroke:#181818;stroke-width:1;"/><text fill="#000000" font-family="sans-serif" font-size="13" lengthAdjust="spacing" textLength="82.3862" x="3265.62" y="186.8516">24b. PIN hash</text></g><!--link SecService to SecService--><g class="link" data-entity-1="SecService" data-entity-2="SecService" data-source-line="54" data-uid="lnk45" id="link_SecService_SecService"><path codeLine="54" d="M3031.43,112.4764 C3050.7,112.4764 3066.12,116.1064 3066.12,123.3564 C3066.12,130.6064 3056.7,134.2264 3037.43,134.2264" fill="none" id="SecService-to-SecService" style="stroke:#181818;stroke-width:1;"/><polygon fill="#181818" points="3031.43,134.2264,3040.43,138.2264,3036.43,134.2264,3040.43,130.2264,3031.43,134.2264" style="stroke:#181818;stroke-width:1;"/><text fill="#000000" font-family="sans-serif" font-size="13" lengthAdjust="spacing" textLength="101.1753" x="3072.12" y="128.8516">25b. Validate PIN</text></g><!--SRC=[bLPDSzis4BtpL-oaXxG7oI8bMxOEdh6Z9EFfDD54SIwT7a1oQQ6LG1O0uwg_lWiG_095AVN55F4U5dZxTfTlOOqP5mW5avedl612AtZbUWTAIwRnXITGv8fhdWikNa3dSE227_Y_25neb0eJiwQ2FFwJ7k7D5-8eMi0KdXNADy2KVO2VFjY_1lY1xLM-OKTuA0gBely3qCFc2JxIELxPqMBSym3tLJAXc3qAR55-vmbQl7tlNWn8MqnAoVMnnw2NO_Y79CbBeNjmzswCyYdNFEC96npCBeonraopcAaAkNvireEti779W0ghUXb9PAwKITEUSge2A_laznrFKnH_IFwoqnEZSc2KzjyxPODQON-zgsJGaxL1flchc7YAd8MsMe_0NEokM45FEH-vVZGY_OPAiHTKy7DfvJXKlq6KXvWiQpJZ8ZLfGSXbYl8NfzMzDU4AmYay2TBP00wvm2DeSxuCPQNTVMF45KHJs7pUVeKhLl0htVfGNHKIgQwmbVI-xySLp8bRWQ33zCIuzqssWiKKtkqm-GiK2Ze-n6pF16dZ0ObAxbd1zHG-eWRc_5kZQMroQlURAJnM44Z9YS5Ws-55bimefigCpCwn4wD_bPvmjyHPp6OKAuKl-7U9IhTIDQcuEu6oEI24JHfbQqQODLV5dfYyUugi5Aa2b3ANFtIBkBrvkyiW7HxhbbZl91glT988gMIPFdV_E-9r-vQpItf2X716s8XK-FnhrPrxWL0plbUrCnqZZ5jDQlDI8UXTda9UL3tRCtr4b2tkJGlo6C7Gzk4y7ZM-8utxFbpOKCCuljJMlk4reP-Br5TOOaBLMzlO3t5ZGfH9GhL_BWlXif7sbF2txQedi4cVCoHidZvvOaOcO-_DXBIBmwuHzkHJRXHTVKV9i-EauA8hNsSe4TNawPl5sRqxYxLYaKcEANcbSpE92GOxfdQrLltzJ38QH7-tFj3auHlRSvi94xg7xj_l9WvDuORmB5X9kPKqe4vPErgU17eb7jqQLErdSrXNrESE43Mf6yg_ZCVxDlv3sT3d-ZOTX-ZlAzpPrbsbuyx07-dBI5m6psS6lCQOwxgzkyOzWWyDdXfGIWGg2LxOrdUU4pdE_ogf-TomkYqhoG_57acgGPZUb2Rgmb2tT1tYY8pBG_L9H9EukgCtray4lpOxzBwdgFPAJ2-6lcb2YowRGZTgNOw-78j-ULZFhLbS_t9pKVt0D9fNhd44AEq6wRbUjfZv2L9L0ypA_OdIMuHjYLmOAsqbBgnrUfEbCKERsE0_]--></g></svg>