<svg xmlns="http://www.w3.org/2000/svg" xmlns:xlink="http://www.w3.org/1999/xlink" contentStyleType="text/css" data-diagram-type="SEQUENCE" height="1285px" preserveAspectRatio="none" style="width:1073px;height:1285px;background:#FFFFFF;" version="1.1" viewBox="0 0 1073 1285" width="1073px" zoomAndPan="magnify"><title>UC-1: Register</title><defs/><g><text fill="#000000" font-family="sans-serif" font-size="14" font-weight="bold" lengthAdjust="spacing" textLength="97.2412" x="489.0657" y="29.5332">UC-1: Register</text><g><title>FalsoPay App</title><rect fill="#FFFFFF" height="1040.4063" style="stroke:#181818;stroke-width:1;" width="10" x="285.9297" y="153.5703"/></g><g><title>FalsoPay App</title><rect fill="#FFFFFF" height="403.0547" style="stroke:#181818;stroke-width:1;" width="10" x="290.9297" y="782.9219"/></g><g><title>API Gateway</title><rect fill="#FFFFFF" height="494.9453" style="stroke:#181818;stroke-width:1;" width="10" x="491.9067" y="227.2734"/></g><g><title>API Gateway</title><rect fill="#FFFFFF" height="327.3516" style="stroke:#181818;stroke-width:1;" width="10" x="491.9067" y="813.2734"/></g><g><title>User Service</title><rect fill="#FFFFFF" height="434.2422" style="stroke:#181818;stroke-width:1;" width="10" x="674.0166" y="257.625"/></g><g><title>User Service</title><rect fill="#FFFFFF" height="266.6484" style="stroke:#181818;stroke-width:1;" width="10" x="674.0166" y="843.625"/></g><g><title>Database</title><rect fill="#FFFFFF" height="30.3516" style="stroke:#181818;stroke-width:1;" width="10" x="870.5801" y="331.3281"/></g><g><title>Database</title><rect fill="#FFFFFF" height="30.3516" style="stroke:#181818;stroke-width:1;" width="10" x="870.5801" y="1049.5703"/></g><g><title>Notification Service</title><rect fill="#FFFFFF" height="30.3516" style="stroke:#181818;stroke-width:1;" width="10" x="984.459" y="631.1641"/></g><rect fill="none" height="809.2969" style="stroke:#000000;stroke-width:1.5;" width="1056.3726" x="10" y="376.6797"/><rect fill="none" height="277" style="stroke:#000000;stroke-width:1.5;" width="902.5454" x="20" y="901.9766"/><g><title>Potential User</title><rect fill="#000000" fill-opacity="0.00000" height="1081.7578" width="8" x="72.9653" y="121.2188"/><line style="stroke:#181818;stroke-width:0.5;stroke-dasharray:5.0,5.0;" x1="76" x2="76" y1="121.2188" y2="1202.9766"/></g><g><title>FalsoPay App</title><rect fill="#000000" fill-opacity="0.00000" height="1081.7578" width="8" x="286.9297" y="121.2188"/><line style="stroke:#181818;stroke-width:0.5;stroke-dasharray:5.0,5.0;" x1="290.3506" x2="290.3506" y1="121.2188" y2="1202.9766"/></g><g><title>API Gateway</title><rect fill="#000000" fill-opacity="0.00000" height="1081.7578" width="8" x="492.9067" y="121.2188"/><line style="stroke:#181818;stroke-width:0.5;stroke-dasharray:5.0,5.0;" x1="496.0552" x2="496.0552" y1="121.2188" y2="1202.9766"/></g><g><title>User Service</title><rect fill="#000000" fill-opacity="0.00000" height="1081.7578" width="8" x="675.0166" y="121.2188"/><line style="stroke:#181818;stroke-width:0.5;stroke-dasharray:5.0,5.0;" x1="678.9512" x2="678.9512" y1="121.2188" y2="1202.9766"/></g><g><title>Database</title><rect fill="#000000" fill-opacity="0.00000" height="1081.7578" width="8" x="871.5801" y="121.2188"/><line style="stroke:#181818;stroke-width:0.5;stroke-dasharray:5.0,5.0;" x1="874.6147" x2="874.6147" y1="121.2188" y2="1202.9766"/></g><g><title>Notification Service</title><rect fill="#000000" fill-opacity="0.00000" height="1081.7578" width="8" x="985.459" y="121.2188"/><line style="stroke:#181818;stroke-width:0.5;stroke-dasharray:5.0,5.0;" x1="988.5454" x2="988.5454" y1="121.2188" y2="1202.9766"/></g><g class="participant participant-head" data-participant="User"><text fill="#000000" font-family="sans-serif" font-size="14" lengthAdjust="spacing" textLength="87.9307" x="30" y="118.1426">Potential User</text><ellipse cx="76.9653" cy="52.1094" fill="#E2E2F0" rx="8" ry="8" style="stroke:#181818;stroke-width:0.5;"/><path d="M76.9653,60.1094 L76.9653,87.1094 M63.9653,68.1094 L89.9653,68.1094 M76.9653,87.1094 L63.9653,102.1094 M76.9653,87.1094 L89.9653,102.1094" fill="none" style="stroke:#181818;stroke-width:0.5;"/></g><g class="participant participant-tail" data-participant="User"><text fill="#000000" font-family="sans-serif" font-size="14" lengthAdjust="spacing" textLength="87.9307" x="30" y="1216.5098">Potential User</text><ellipse cx="76.9653" cy="1228.0859" fill="#E2E2F0" rx="8" ry="8" style="stroke:#181818;stroke-width:0.5;"/><path d="M76.9653,1236.0859 L76.9653,1263.0859 M63.9653,1244.0859 L89.9653,1244.0859 M76.9653,1263.0859 L63.9653,1278.0859 M76.9653,1263.0859 L89.9653,1278.0859" fill="none" style="stroke:#181818;stroke-width:0.5;"/></g><g class="participant participant-head" data-participant="App"><rect fill="#E2E2F0" height="31.6094" rx="2.5" ry="2.5" style="stroke:#181818;stroke-width:0.5;" width="101.1582" x="240.3506" y="88.6094"/><text fill="#000000" font-family="sans-serif" font-size="14" lengthAdjust="spacing" textLength="87.1582" x="247.3506" y="110.1426">FalsoPay App</text></g><g class="participant participant-tail" data-participant="App"><rect fill="#E2E2F0" height="31.6094" rx="2.5" ry="2.5" style="stroke:#181818;stroke-width:0.5;" width="101.1582" x="240.3506" y="1201.9766"/><text fill="#000000" font-family="sans-serif" font-size="14" lengthAdjust="spacing" textLength="87.1582" x="247.3506" y="1223.5098">FalsoPay App</text></g><g class="participant participant-head" data-participant="Gateway"><rect fill="#E2E2F0" height="31.6094" rx="2.5" ry="2.5" style="stroke:#181818;stroke-width:0.5;" width="95.7031" x="449.0552" y="88.6094"/><text fill="#000000" font-family="sans-serif" font-size="14" lengthAdjust="spacing" textLength="81.7031" x="456.0552" y="110.1426">API Gateway</text></g><g class="participant participant-tail" data-participant="Gateway"><rect fill="#E2E2F0" height="31.6094" rx="2.5" ry="2.5" style="stroke:#181818;stroke-width:0.5;" width="95.7031" x="449.0552" y="1201.9766"/><text fill="#000000" font-family="sans-serif" font-size="14" lengthAdjust="spacing" textLength="81.7031" x="456.0552" y="1223.5098">API Gateway</text></g><g class="participant participant-head" data-participant="UserService"><rect fill="#E2E2F0" height="31.6094" rx="2.5" ry="2.5" style="stroke:#181818;stroke-width:0.5;" width="94.1309" x="631.9512" y="88.6094"/><text fill="#000000" font-family="sans-serif" font-size="14" lengthAdjust="spacing" textLength="80.1309" x="638.9512" y="110.1426">User Service</text></g><g class="participant participant-tail" data-participant="UserService"><rect fill="#E2E2F0" height="31.6094" rx="2.5" ry="2.5" style="stroke:#181818;stroke-width:0.5;" width="94.1309" x="631.9512" y="1201.9766"/><text fill="#000000" font-family="sans-serif" font-size="14" lengthAdjust="spacing" textLength="80.1309" x="638.9512" y="1223.5098">User Service</text></g><g class="participant participant-head" data-participant="DB"><rect fill="#E2E2F0" height="31.6094" rx="2.5" ry="2.5" style="stroke:#181818;stroke-width:0.5;" width="73.9307" x="838.6147" y="88.6094"/><text fill="#000000" font-family="sans-serif" font-size="14" lengthAdjust="spacing" textLength="59.9307" x="845.6147" y="110.1426">Database</text></g><g class="participant participant-tail" data-participant="DB"><rect fill="#E2E2F0" height="31.6094" rx="2.5" ry="2.5" style="stroke:#181818;stroke-width:0.5;" width="73.9307" x="838.6147" y="1201.9766"/><text fill="#000000" font-family="sans-serif" font-size="14" lengthAdjust="spacing" textLength="59.9307" x="845.6147" y="1223.5098">Database</text></g><g class="participant participant-head" data-participant="NotifService"><rect fill="#E2E2F0" height="31.6094" rx="2.5" ry="2.5" style="stroke:#181818;stroke-width:0.5;" width="133.8271" x="922.5454" y="88.6094"/><text fill="#000000" font-family="sans-serif" font-size="14" lengthAdjust="spacing" textLength="119.8271" x="929.5454" y="110.1426">Notification Service</text></g><g class="participant participant-tail" data-participant="NotifService"><rect fill="#E2E2F0" height="31.6094" rx="2.5" ry="2.5" style="stroke:#181818;stroke-width:0.5;" width="133.8271" x="922.5454" y="1201.9766"/><text fill="#000000" font-family="sans-serif" font-size="14" lengthAdjust="spacing" textLength="119.8271" x="929.5454" y="1223.5098">Notification Service</text></g><g><title>FalsoPay App</title><rect fill="#FFFFFF" height="1040.4063" style="stroke:#181818;stroke-width:1;" width="10" x="285.9297" y="153.5703"/></g><g><title>FalsoPay App</title><rect fill="#FFFFFF" height="403.0547" style="stroke:#181818;stroke-width:1;" width="10" x="290.9297" y="782.9219"/></g><g><title>API Gateway</title><rect fill="#FFFFFF" height="494.9453" style="stroke:#181818;stroke-width:1;" width="10" x="491.9067" y="227.2734"/></g><g><title>API Gateway</title><rect fill="#FFFFFF" height="327.3516" style="stroke:#181818;stroke-width:1;" width="10" x="491.9067" y="813.2734"/></g><g><title>User Service</title><rect fill="#FFFFFF" height="434.2422" style="stroke:#181818;stroke-width:1;" width="10" x="674.0166" y="257.625"/></g><g><title>User Service</title><rect fill="#FFFFFF" height="266.6484" style="stroke:#181818;stroke-width:1;" width="10" x="674.0166" y="843.625"/></g><g><title>Database</title><rect fill="#FFFFFF" height="30.3516" style="stroke:#181818;stroke-width:1;" width="10" x="870.5801" y="331.3281"/></g><g><title>Database</title><rect fill="#FFFFFF" height="30.3516" style="stroke:#181818;stroke-width:1;" width="10" x="870.5801" y="1049.5703"/></g><g><title>Notification Service</title><rect fill="#FFFFFF" height="30.3516" style="stroke:#181818;stroke-width:1;" width="10" x="984.459" y="631.1641"/></g><g class="message" data-participant-1="User" data-participant-2="App"><polygon fill="#181818" points="273.9297,149.5703,283.9297,153.5703,273.9297,157.5703,277.9297,153.5703" style="stroke:#181818;stroke-width:1;"/><line style="stroke:#181818;stroke-width:1;" x1="76.9653" x2="279.9297" y1="153.5703" y2="153.5703"/><text fill="#000000" font-family="sans-serif" font-size="13" lengthAdjust="spacing" textLength="166.9116" x="83.9653" y="148.7139">Enter registration information</text></g><g class="message" data-participant-1="App" data-participant-2="App"><line style="stroke:#181818;stroke-width:1;" x1="295.9297" x2="337.9297" y1="183.9219" y2="183.9219"/><line style="stroke:#181818;stroke-width:1;" x1="337.9297" x2="337.9297" y1="183.9219" y2="196.9219"/><line style="stroke:#181818;stroke-width:1;" x1="296.9297" x2="337.9297" y1="196.9219" y2="196.9219"/><polygon fill="#181818" points="306.9297,192.9219,296.9297,196.9219,306.9297,200.9219,302.9297,196.9219" style="stroke:#181818;stroke-width:1;"/><text fill="#000000" font-family="sans-serif" font-size="13" lengthAdjust="spacing" textLength="119.2344" x="302.9297" y="179.0654">Validate input format</text></g><g class="message" data-participant-1="App" data-participant-2="Gateway"><polygon fill="#181818" points="479.9067,223.2734,489.9067,227.2734,479.9067,231.2734,483.9067,227.2734" style="stroke:#181818;stroke-width:1;"/><line style="stroke:#181818;stroke-width:1;" x1="295.9297" x2="485.9067" y1="227.2734" y2="227.2734"/><text fill="#000000" font-family="sans-serif" font-size="13" lengthAdjust="spacing" textLength="155.3462" x="302.9297" y="222.417">POST /api/register/validate</text></g><g class="message" data-participant-1="Gateway" data-participant-2="UserService"><polygon fill="#181818" points="662.0166,253.625,672.0166,257.625,662.0166,261.625,666.0166,257.625" style="stroke:#181818;stroke-width:1;"/><line style="stroke:#181818;stroke-width:1;" x1="501.9067" x2="668.0166" y1="257.625" y2="257.625"/><text fill="#000000" font-family="sans-serif" font-size="13" lengthAdjust="spacing" textLength="143.8125" x="508.9067" y="252.7686">Validate registration data</text></g><g class="message" data-participant-1="UserService" data-participant-2="UserService"><line style="stroke:#181818;stroke-width:1;" x1="684.0166" x2="726.0166" y1="287.9766" y2="287.9766"/><line style="stroke:#181818;stroke-width:1;" x1="726.0166" x2="726.0166" y1="287.9766" y2="300.9766"/><line style="stroke:#181818;stroke-width:1;" x1="685.0166" x2="726.0166" y1="300.9766" y2="300.9766"/><polygon fill="#181818" points="695.0166,296.9766,685.0166,300.9766,695.0166,304.9766,691.0166,300.9766" style="stroke:#181818;stroke-width:1;"/><text fill="#000000" font-family="sans-serif" font-size="13" lengthAdjust="spacing" textLength="104.7935" x="691.0166" y="283.1201">Validate user data</text></g><g class="message" data-participant-1="UserService" data-participant-2="DB"><polygon fill="#181818" points="858.5801,327.3281,868.5801,331.3281,858.5801,335.3281,862.5801,331.3281" style="stroke:#181818;stroke-width:1;"/><line style="stroke:#181818;stroke-width:1;" x1="684.0166" x2="864.5801" y1="331.3281" y2="331.3281"/><text fill="#000000" font-family="sans-serif" font-size="13" lengthAdjust="spacing" textLength="158.2407" x="691.0166" y="326.4717">Check if email/phone exists</text></g><g class="message" data-participant-1="DB" data-participant-2="UserService"><polygon fill="#181818" points="695.0166,357.6797,685.0166,361.6797,695.0166,365.6797,691.0166,361.6797" style="stroke:#181818;stroke-width:1;"/><line style="stroke:#181818;stroke-width:1;stroke-dasharray:2.0,2.0;" x1="689.0166" x2="874.5801" y1="361.6797" y2="361.6797"/><text fill="#000000" font-family="sans-serif" font-size="13" lengthAdjust="spacing" textLength="162.5635" x="701.0166" y="356.8232">Response (exists/not exists)</text></g><path d="M10,376.6797 L70.1709,376.6797 L70.1709,385.0313 L60.1709,395.0313 L10,395.0313 L10,376.6797" fill="#EEEEEE" style="stroke:#000000;stroke-width:1.5;"/><rect fill="none" height="809.2969" style="stroke:#000000;stroke-width:1.5;" width="1056.3726" x="10" y="376.6797"/><text fill="#000000" font-family="sans-serif" font-size="13" font-weight="bold" lengthAdjust="spacing" textLength="15.1709" x="25" y="391.1748">alt</text><text fill="#000000" font-family="sans-serif" font-size="11" font-weight="bold" lengthAdjust="spacing" textLength="171.1714" x="85.1709" y="390.0986">[Email/Phone already registered]</text><g class="message" data-participant-1="UserService" data-participant-2="Gateway"><polygon fill="#181818" points="512.9067,413.3828,502.9067,417.3828,512.9067,421.3828,508.9067,417.3828" style="stroke:#181818;stroke-width:1;"/><line style="stroke:#181818;stroke-width:1;stroke-dasharray:2.0,2.0;" x1="506.9067" x2="673.0166" y1="417.3828" y2="417.3828"/><text fill="#000000" font-family="sans-serif" font-size="13" lengthAdjust="spacing" textLength="119.9263" x="518.9067" y="412.5264">Error: Account exists</text></g><g class="message" data-participant-1="Gateway" data-participant-2="App"><polygon fill="#181818" points="306.9297,443.7344,296.9297,447.7344,306.9297,451.7344,302.9297,447.7344" style="stroke:#181818;stroke-width:1;"/><line style="stroke:#181818;stroke-width:1;stroke-dasharray:2.0,2.0;" x1="300.9297" x2="490.9067" y1="447.7344" y2="447.7344"/><text fill="#000000" font-family="sans-serif" font-size="13" lengthAdjust="spacing" textLength="68.6499" x="312.9297" y="442.8779">409 Conflict</text></g><g class="message" data-participant-1="App" data-participant-2="User"><polygon fill="#181818" points="87.9653,474.0859,77.9653,478.0859,87.9653,482.0859,83.9653,478.0859" style="stroke:#181818;stroke-width:1;"/><line style="stroke:#181818;stroke-width:1;stroke-dasharray:2.0,2.0;" x1="81.9653" x2="284.9297" y1="478.0859" y2="478.0859"/><text fill="#000000" font-family="sans-serif" font-size="13" lengthAdjust="spacing" textLength="130.0444" x="93.9653" y="473.2295">Display error message</text></g><line style="stroke:#000000;stroke-width:1;stroke-dasharray:2.0,2.0;" x1="10" x2="1066.3726" y1="487.0859" y2="487.0859"/><text fill="#000000" font-family="sans-serif" font-size="11" font-weight="bold" lengthAdjust="spacing" textLength="84.9546" x="15" y="498.5049">[Validation fails]</text><g class="message" data-participant-1="UserService" data-participant-2="Gateway"><polygon fill="#181818" points="512.9067,520.2734,502.9067,524.2734,512.9067,528.2734,508.9067,524.2734" style="stroke:#181818;stroke-width:1;"/><line style="stroke:#181818;stroke-width:1;stroke-dasharray:2.0,2.0;" x1="506.9067" x2="673.0166" y1="524.2734" y2="524.2734"/><text fill="#000000" font-family="sans-serif" font-size="13" lengthAdjust="spacing" textLength="102.6035" x="518.9067" y="519.417">Error: Invalid data</text></g><g class="message" data-participant-1="Gateway" data-participant-2="App"><polygon fill="#181818" points="306.9297,550.625,296.9297,554.625,306.9297,558.625,302.9297,554.625" style="stroke:#181818;stroke-width:1;"/><line style="stroke:#181818;stroke-width:1;stroke-dasharray:2.0,2.0;" x1="300.9297" x2="490.9067" y1="554.625" y2="554.625"/><text fill="#000000" font-family="sans-serif" font-size="13" lengthAdjust="spacing" textLength="100.4644" x="312.9297" y="549.7686">400 Bad Request</text></g><g class="message" data-participant-1="App" data-participant-2="User"><polygon fill="#181818" points="87.9653,580.9766,77.9653,584.9766,87.9653,588.9766,83.9653,584.9766" style="stroke:#181818;stroke-width:1;"/><line style="stroke:#181818;stroke-width:1;stroke-dasharray:2.0,2.0;" x1="81.9653" x2="284.9297" y1="584.9766" y2="584.9766"/><text fill="#000000" font-family="sans-serif" font-size="13" lengthAdjust="spacing" textLength="138.7217" x="93.9653" y="580.1201">Display validation errors</text></g><line style="stroke:#000000;stroke-width:1;stroke-dasharray:2.0,2.0;" x1="10" x2="1066.3726" y1="593.9766" y2="593.9766"/><text fill="#000000" font-family="sans-serif" font-size="11" font-weight="bold" lengthAdjust="spacing" textLength="180.3345" x="15" y="605.3955">[Success - Proceed to verification]</text><g class="message" data-participant-1="UserService" data-participant-2="NotifService"><polygon fill="#181818" points="972.459,627.1641,982.459,631.1641,972.459,635.1641,976.459,631.1641" style="stroke:#181818;stroke-width:1;"/><line style="stroke:#181818;stroke-width:1;" x1="684.0166" x2="978.459" y1="631.1641" y2="631.1641"/><text fill="#000000" font-family="sans-serif" font-size="13" lengthAdjust="spacing" textLength="162.5698" x="691.0166" y="626.3076">Send verification email/SMS</text></g><g class="message" data-participant-1="NotifService" data-participant-2="UserService"><polygon fill="#181818" points="695.0166,657.5156,685.0166,661.5156,695.0166,665.5156,691.0166,661.5156" style="stroke:#181818;stroke-width:1;"/><line style="stroke:#181818;stroke-width:1;stroke-dasharray:2.0,2.0;" x1="689.0166" x2="988.459" y1="661.5156" y2="661.5156"/><text fill="#000000" font-family="sans-serif" font-size="13" lengthAdjust="spacing" textLength="92.4917" x="701.0166" y="656.6592">Notification sent</text></g><g class="message" data-participant-1="UserService" data-participant-2="Gateway"><polygon fill="#181818" points="512.9067,687.8672,502.9067,691.8672,512.9067,695.8672,508.9067,691.8672" style="stroke:#181818;stroke-width:1;"/><line style="stroke:#181818;stroke-width:1;stroke-dasharray:2.0,2.0;" x1="506.9067" x2="678.0166" y1="691.8672" y2="691.8672"/><text fill="#000000" font-family="sans-serif" font-size="13" lengthAdjust="spacing" textLength="121.3989" x="518.9067" y="687.0107">Validation successful</text></g><g class="message" data-participant-1="Gateway" data-participant-2="App"><polygon fill="#181818" points="306.9297,718.2188,296.9297,722.2188,306.9297,726.2188,302.9297,722.2188" style="stroke:#181818;stroke-width:1;"/><line style="stroke:#181818;stroke-width:1;stroke-dasharray:2.0,2.0;" x1="300.9297" x2="495.9067" y1="722.2188" y2="722.2188"/><text fill="#000000" font-family="sans-serif" font-size="13" lengthAdjust="spacing" textLength="171.9771" x="312.9297" y="717.3623">200 OK with verification token</text></g><g class="message" data-participant-1="App" data-participant-2="User"><polygon fill="#181818" points="87.9653,748.5703,77.9653,752.5703,87.9653,756.5703,83.9653,752.5703" style="stroke:#181818;stroke-width:1;"/><line style="stroke:#181818;stroke-width:1;stroke-dasharray:2.0,2.0;" x1="81.9653" x2="284.9297" y1="752.5703" y2="752.5703"/><text fill="#000000" font-family="sans-serif" font-size="13" lengthAdjust="spacing" textLength="171.9771" x="93.9653" y="747.7139">Display verification code input</text></g><g class="message" data-participant-1="User" data-participant-2="App"><polygon fill="#181818" points="278.9297,778.9219,288.9297,782.9219,278.9297,786.9219,282.9297,782.9219" style="stroke:#181818;stroke-width:1;"/><line style="stroke:#181818;stroke-width:1;stroke-dasharray:2.0,2.0;" x1="76.9653" x2="284.9297" y1="782.9219" y2="782.9219"/><text fill="#000000" font-family="sans-serif" font-size="13" lengthAdjust="spacing" textLength="138.0107" x="83.9653" y="778.0654">Submit verification code</text></g><g class="message" data-participant-1="App" data-participant-2="Gateway"><polygon fill="#181818" points="479.9067,809.2734,489.9067,813.2734,479.9067,817.2734,483.9067,813.2734" style="stroke:#181818;stroke-width:1;"/><line style="stroke:#181818;stroke-width:1;" x1="300.9297" x2="485.9067" y1="813.2734" y2="813.2734"/><text fill="#000000" font-family="sans-serif" font-size="13" lengthAdjust="spacing" textLength="141.5972" x="307.9297" y="808.417">POST /api/register/verify</text></g><g class="message" data-participant-1="Gateway" data-participant-2="UserService"><polygon fill="#181818" points="662.0166,839.625,672.0166,843.625,662.0166,847.625,666.0166,843.625" style="stroke:#181818;stroke-width:1;"/><line style="stroke:#181818;stroke-width:1;" x1="501.9067" x2="668.0166" y1="843.625" y2="843.625"/><text fill="#000000" font-family="sans-serif" font-size="13" lengthAdjust="spacing" textLength="65.0317" x="508.9067" y="838.7686">Verify code</text></g><g class="message" data-participant-1="UserService" data-participant-2="UserService"><line style="stroke:#181818;stroke-width:1;" x1="684.0166" x2="726.0166" y1="873.9766" y2="873.9766"/><line style="stroke:#181818;stroke-width:1;" x1="726.0166" x2="726.0166" y1="873.9766" y2="886.9766"/><line style="stroke:#181818;stroke-width:1;" x1="685.0166" x2="726.0166" y1="886.9766" y2="886.9766"/><polygon fill="#181818" points="695.0166,882.9766,685.0166,886.9766,695.0166,890.9766,691.0166,886.9766" style="stroke:#181818;stroke-width:1;"/><text fill="#000000" font-family="sans-serif" font-size="13" lengthAdjust="spacing" textLength="144.5298" x="691.0166" y="869.1201">Validate verification code</text></g><path d="M20,901.9766 L80.1709,901.9766 L80.1709,910.3281 L70.1709,920.3281 L20,920.3281 L20,901.9766" fill="#EEEEEE" style="stroke:#000000;stroke-width:1.5;"/><rect fill="none" height="277" style="stroke:#000000;stroke-width:1.5;" width="902.5454" x="20" y="901.9766"/><text fill="#000000" font-family="sans-serif" font-size="13" font-weight="bold" lengthAdjust="spacing" textLength="15.1709" x="35" y="916.4717">alt</text><text fill="#000000" font-family="sans-serif" font-size="11" font-weight="bold" lengthAdjust="spacing" textLength="133.8584" x="95.1709" y="915.3955">[Verification code invalid]</text><g class="message" data-participant-1="UserService" data-participant-2="Gateway"><polygon fill="#181818" points="512.9067,938.6797,502.9067,942.6797,512.9067,946.6797,508.9067,942.6797" style="stroke:#181818;stroke-width:1;"/><line style="stroke:#181818;stroke-width:1;stroke-dasharray:2.0,2.0;" x1="506.9067" x2="673.0166" y1="942.6797" y2="942.6797"/><text fill="#000000" font-family="sans-serif" font-size="13" lengthAdjust="spacing" textLength="105.4917" x="518.9067" y="937.8232">Error: Invalid code</text></g><g class="message" data-participant-1="Gateway" data-participant-2="App"><polygon fill="#181818" points="311.9297,969.0313,301.9297,973.0313,311.9297,977.0313,307.9297,973.0313" style="stroke:#181818;stroke-width:1;"/><line style="stroke:#181818;stroke-width:1;stroke-dasharray:2.0,2.0;" x1="305.9297" x2="490.9067" y1="973.0313" y2="973.0313"/><text fill="#000000" font-family="sans-serif" font-size="13" lengthAdjust="spacing" textLength="100.4644" x="317.9297" y="968.1748">400 Bad Request</text></g><g class="message" data-participant-1="App" data-participant-2="User"><polygon fill="#181818" points="87.9653,999.3828,77.9653,1003.3828,87.9653,1007.3828,83.9653,1003.3828" style="stroke:#181818;stroke-width:1;"/><line style="stroke:#181818;stroke-width:1;stroke-dasharray:2.0,2.0;" x1="81.9653" x2="289.9297" y1="1003.3828" y2="1003.3828"/><text fill="#000000" font-family="sans-serif" font-size="13" lengthAdjust="spacing" textLength="130.0444" x="93.9653" y="998.5264">Display error message</text></g><line style="stroke:#000000;stroke-width:1;stroke-dasharray:2.0,2.0;" x1="20" x2="922.5454" y1="1012.3828" y2="1012.3828"/><text fill="#000000" font-family="sans-serif" font-size="11" font-weight="bold" lengthAdjust="spacing" textLength="216.396" x="25" y="1023.8018">[Verification successful - Create account]</text><g class="message" data-participant-1="UserService" data-participant-2="DB"><polygon fill="#181818" points="858.5801,1045.5703,868.5801,1049.5703,858.5801,1053.5703,862.5801,1049.5703" style="stroke:#181818;stroke-width:1;"/><line style="stroke:#181818;stroke-width:1;" x1="684.0166" x2="864.5801" y1="1049.5703" y2="1049.5703"/><text fill="#000000" font-family="sans-serif" font-size="13" lengthAdjust="spacing" textLength="108.3799" x="691.0166" y="1044.7139">Create user record</text></g><g class="message" data-participant-1="DB" data-participant-2="UserService"><polygon fill="#181818" points="695.0166,1075.9219,685.0166,1079.9219,695.0166,1083.9219,691.0166,1079.9219" style="stroke:#181818;stroke-width:1;"/><line style="stroke:#181818;stroke-width:1;stroke-dasharray:2.0,2.0;" x1="689.0166" x2="874.5801" y1="1079.9219" y2="1079.9219"/><text fill="#000000" font-family="sans-serif" font-size="13" lengthAdjust="spacing" textLength="49.1309" x="701.0166" y="1075.0654">Success</text></g><g class="message" data-participant-1="UserService" data-participant-2="Gateway"><polygon fill="#181818" points="512.9067,1106.2734,502.9067,1110.2734,512.9067,1114.2734,508.9067,1110.2734" style="stroke:#181818;stroke-width:1;"/><line style="stroke:#181818;stroke-width:1;stroke-dasharray:2.0,2.0;" x1="506.9067" x2="678.0166" y1="1110.2734" y2="1110.2734"/><text fill="#000000" font-family="sans-serif" font-size="13" lengthAdjust="spacing" textLength="148.1099" x="518.9067" y="1105.417">User created successfully</text></g><g class="message" data-participant-1="Gateway" data-participant-2="App"><polygon fill="#181818" points="311.9297,1136.625,301.9297,1140.625,311.9297,1144.625,307.9297,1140.625" style="stroke:#181818;stroke-width:1;"/><line style="stroke:#181818;stroke-width:1;stroke-dasharray:2.0,2.0;" x1="305.9297" x2="495.9067" y1="1140.625" y2="1140.625"/><text fill="#000000" font-family="sans-serif" font-size="13" lengthAdjust="spacing" textLength="156.0952" x="317.9297" y="1135.7686">201 Created with user data</text></g><g class="message" data-participant-1="App" data-participant-2="User"><polygon fill="#181818" points="87.9653,1166.9766,77.9653,1170.9766,87.9653,1174.9766,83.9653,1170.9766" style="stroke:#181818;stroke-width:1;"/><line style="stroke:#181818;stroke-width:1;stroke-dasharray:2.0,2.0;" x1="81.9653" x2="289.9297" y1="1170.9766" y2="1170.9766"/><text fill="#000000" font-family="sans-serif" font-size="13" lengthAdjust="spacing" textLength="184.9644" x="93.9653" y="1166.1201">Display registration confirmation</text></g><!--SRC=[bLLDRzim3BtxLn0vROSWxR3BV2YGhmt5i3LerjvLcMc4Ef8doUdoxoVHiYqbJflcuCWI-VZuADACMwLXj58MfHMiX0U3UWJCq2AhcBQ2Yuf92wFlh3HgnGumhIeoSV-fnNHr2p-OnLTs88EmJeqyCAnHxmN7Bb9uJoqNpB8dPXghnImz_Asis0ZEh50oWQE35Y-pmfO83_FnTGxt-2oCTMbbn65yupF8OIdT7cWwr0sUa1kbTxJE6BTYxnAXT3Ftw1mVMIaAVo9aLLjeN5gBa7iEgxlr7vYmIanqY3_P1ySUkrKg2mkF4EaInKfukXtMWyH2Pj7BUR3Qwq0WH-QBMGxpBV8N41l07HFbfDegYO3_N7JJntHbMSnWV1pX7asbf47ur3XCfBB1ztDMOEoUiTB2aaAiA0GhDRBY0ArSM6JWVWd3ME2brahdCELSrRADGYwTc6t5lbvzWxcIcr9mInPKh40-XuKmLUdiqIF23erXpvXXwV88addHDuwgkOZIhQHADmgV8NG5CrOulVxMQDxYjEy943tJy5hNd3kUC8QLLXon0AjWZxhhZLEYDqcBvAvvP96uX8AlVwt9kIjMqbd-9DuulGD9XnetNyWdAlu9tjkYHYKmJTQRkZp6Z7kWWpoH_OkJ_Uudl0gxJJEtwWNbCMRRd1tUcGh5G5mLOIwacVKSrlNJJjXJhrHpFtJIkE-C5WztI35E-9yTCkGym69GrOicp71w3Rhh-yS1pUYcayL7Ugp3lhZFBkr_RzVCW9XiVmLTxytTn7B9icO43NCFGxMnfC6haIlTPneFnNPlQBQ6bkziqd7Qxhul85r7JdoAA9toC8HyV0EI40FzTHqoBPecwpyq0zZn_KnmXwkJV06vc-QY_LHJfMHntB- -X_psVm00]--></g></svg>