<svg xmlns="http://www.w3.org/2000/svg" xmlns:xlink="http://www.w3.org/1999/xlink" contentStyleType="text/css" data-diagram-type="SEQUENCE" height="904px" preserveAspectRatio="none" style="width:902px;height:904px;background:#FFFFFF;" version="1.1" viewBox="0 0 902 904" width="902px" zoomAndPan="magnify"><title>UC-15: Change Display Name</title><defs/><g><text fill="#000000" font-family="sans-serif" font-size="14" font-weight="bold" lengthAdjust="spacing" textLength="196.0547" x="354.2109" y="29.5332">UC-15: Change Display Name</text><g><title>FalsoPay App</title><rect fill="#FFFFFF" height="659.8672" style="stroke:#181818;stroke-width:1;" width="10" x="322.2954" y="153.5703"/></g><g><title>FalsoPay App</title><rect fill="#FFFFFF" height="370.7031" style="stroke:#181818;stroke-width:1;" width="10" x="327.2954" y="426.7344"/></g><g><title>API Gateway</title><rect fill="#FFFFFF" height="151.7578" style="stroke:#181818;stroke-width:1;" width="10" x="541.2534" y="183.9219"/></g><g><title>API Gateway</title><rect fill="#FFFFFF" height="195.1094" style="stroke:#181818;stroke-width:1;" width="10" x="541.2534" y="571.9766"/></g><g><title>User Service</title><rect fill="#FFFFFF" height="91.0547" style="stroke:#181818;stroke-width:1;" width="10" x="692.3823" y="214.2734"/></g><g><title>User Service</title><rect fill="#FFFFFF" height="134.4063" style="stroke:#181818;stroke-width:1;" width="10" x="692.3823" y="602.3281"/></g><g><title>Database</title><rect fill="#FFFFFF" height="30.3516" style="stroke:#181818;stroke-width:1;" width="10" x="843.5112" y="244.625"/></g><g><title>Database</title><rect fill="#FFFFFF" height="30.3516" style="stroke:#181818;stroke-width:1;" width="10" x="843.5112" y="676.0313"/></g><rect fill="none" height="320.3516" style="stroke:#000000;stroke-width:1.5;" width="885.4766" x="10" y="485.0859"/><g><title>Registered User</title><rect fill="#000000" fill-opacity="0.00000" height="701.2188" width="8" x="69.5757" y="121.2188"/><line style="stroke:#181818;stroke-width:0.5;stroke-dasharray:5.0,5.0;" x1="73" x2="73" y1="121.2188" y2="822.4375"/></g><g><title>FalsoPay App</title><rect fill="#000000" fill-opacity="0.00000" height="701.2188" width="8" x="323.2954" y="121.2188"/><line style="stroke:#181818;stroke-width:0.5;stroke-dasharray:5.0,5.0;" x1="326.7163" x2="326.7163" y1="121.2188" y2="822.4375"/></g><g><title>API Gateway</title><rect fill="#000000" fill-opacity="0.00000" height="701.2188" width="8" x="542.2534" y="121.2188"/><line style="stroke:#181818;stroke-width:0.5;stroke-dasharray:5.0,5.0;" x1="545.4019" x2="545.4019" y1="121.2188" y2="822.4375"/></g><g><title>User Service</title><rect fill="#000000" fill-opacity="0.00000" height="701.2188" width="8" x="693.3823" y="121.2188"/><line style="stroke:#181818;stroke-width:0.5;stroke-dasharray:5.0,5.0;" x1="697.3169" x2="697.3169" y1="121.2188" y2="822.4375"/></g><g><title>Database</title><rect fill="#000000" fill-opacity="0.00000" height="701.2188" width="8" x="844.5112" y="121.2188"/><line style="stroke:#181818;stroke-width:0.5;stroke-dasharray:5.0,5.0;" x1="847.5459" x2="847.5459" y1="121.2188" y2="822.4375"/></g><g class="participant participant-head" data-participant="User"><text fill="#000000" font-family="sans-serif" font-size="14" lengthAdjust="spacing" textLength="101.1514" x="20" y="118.1426">Registered User</text><ellipse cx="73.5757" cy="52.1094" fill="#E2E2F0" rx="8" ry="8" style="stroke:#181818;stroke-width:0.5;"/><path d="M73.5757,60.1094 L73.5757,87.1094 M60.5757,68.1094 L86.5757,68.1094 M73.5757,87.1094 L60.5757,102.1094 M73.5757,87.1094 L86.5757,102.1094" fill="none" style="stroke:#181818;stroke-width:0.5;"/></g><g class="participant participant-tail" data-participant="User"><text fill="#000000" font-family="sans-serif" font-size="14" lengthAdjust="spacing" textLength="101.1514" x="20" y="835.9707">Registered User</text><ellipse cx="73.5757" cy="847.5469" fill="#E2E2F0" rx="8" ry="8" style="stroke:#181818;stroke-width:0.5;"/><path d="M73.5757,855.5469 L73.5757,882.5469 M60.5757,863.5469 L86.5757,863.5469 M73.5757,882.5469 L60.5757,897.5469 M73.5757,882.5469 L86.5757,897.5469" fill="none" style="stroke:#181818;stroke-width:0.5;"/></g><g class="participant participant-head" data-participant="App"><rect fill="#E2E2F0" height="31.6094" rx="2.5" ry="2.5" style="stroke:#181818;stroke-width:0.5;" width="101.1582" x="276.7163" y="88.6094"/><text fill="#000000" font-family="sans-serif" font-size="14" lengthAdjust="spacing" textLength="87.1582" x="283.7163" y="110.1426">FalsoPay App</text></g><g class="participant participant-tail" data-participant="App"><rect fill="#E2E2F0" height="31.6094" rx="2.5" ry="2.5" style="stroke:#181818;stroke-width:0.5;" width="101.1582" x="276.7163" y="821.4375"/><text fill="#000000" font-family="sans-serif" font-size="14" lengthAdjust="spacing" textLength="87.1582" x="283.7163" y="842.9707">FalsoPay App</text></g><g class="participant participant-head" data-participant="Gateway"><rect fill="#E2E2F0" height="31.6094" rx="2.5" ry="2.5" style="stroke:#181818;stroke-width:0.5;" width="95.7031" x="498.4019" y="88.6094"/><text fill="#000000" font-family="sans-serif" font-size="14" lengthAdjust="spacing" textLength="81.7031" x="505.4019" y="110.1426">API Gateway</text></g><g class="participant participant-tail" data-participant="Gateway"><rect fill="#E2E2F0" height="31.6094" rx="2.5" ry="2.5" style="stroke:#181818;stroke-width:0.5;" width="95.7031" x="498.4019" y="821.4375"/><text fill="#000000" font-family="sans-serif" font-size="14" lengthAdjust="spacing" textLength="81.7031" x="505.4019" y="842.9707">API Gateway</text></g><g class="participant participant-head" data-participant="UserService"><rect fill="#E2E2F0" height="31.6094" rx="2.5" ry="2.5" style="stroke:#181818;stroke-width:0.5;" width="94.1309" x="650.3169" y="88.6094"/><text fill="#000000" font-family="sans-serif" font-size="14" lengthAdjust="spacing" textLength="80.1309" x="657.3169" y="110.1426">User Service</text></g><g class="participant participant-tail" data-participant="UserService"><rect fill="#E2E2F0" height="31.6094" rx="2.5" ry="2.5" style="stroke:#181818;stroke-width:0.5;" width="94.1309" x="650.3169" y="821.4375"/><text fill="#000000" font-family="sans-serif" font-size="14" lengthAdjust="spacing" textLength="80.1309" x="657.3169" y="842.9707">User Service</text></g><g class="participant participant-head" data-participant="DB"><rect fill="#E2E2F0" height="31.6094" rx="2.5" ry="2.5" style="stroke:#181818;stroke-width:0.5;" width="73.9307" x="811.5459" y="88.6094"/><text fill="#000000" font-family="sans-serif" font-size="14" lengthAdjust="spacing" textLength="59.9307" x="818.5459" y="110.1426">Database</text></g><g class="participant participant-tail" data-participant="DB"><rect fill="#E2E2F0" height="31.6094" rx="2.5" ry="2.5" style="stroke:#181818;stroke-width:0.5;" width="73.9307" x="811.5459" y="821.4375"/><text fill="#000000" font-family="sans-serif" font-size="14" lengthAdjust="spacing" textLength="59.9307" x="818.5459" y="842.9707">Database</text></g><g><title>FalsoPay App</title><rect fill="#FFFFFF" height="659.8672" style="stroke:#181818;stroke-width:1;" width="10" x="322.2954" y="153.5703"/></g><g><title>FalsoPay App</title><rect fill="#FFFFFF" height="370.7031" style="stroke:#181818;stroke-width:1;" width="10" x="327.2954" y="426.7344"/></g><g><title>API Gateway</title><rect fill="#FFFFFF" height="151.7578" style="stroke:#181818;stroke-width:1;" width="10" x="541.2534" y="183.9219"/></g><g><title>API Gateway</title><rect fill="#FFFFFF" height="195.1094" style="stroke:#181818;stroke-width:1;" width="10" x="541.2534" y="571.9766"/></g><g><title>User Service</title><rect fill="#FFFFFF" height="91.0547" style="stroke:#181818;stroke-width:1;" width="10" x="692.3823" y="214.2734"/></g><g><title>User Service</title><rect fill="#FFFFFF" height="134.4063" style="stroke:#181818;stroke-width:1;" width="10" x="692.3823" y="602.3281"/></g><g><title>Database</title><rect fill="#FFFFFF" height="30.3516" style="stroke:#181818;stroke-width:1;" width="10" x="843.5112" y="244.625"/></g><g><title>Database</title><rect fill="#FFFFFF" height="30.3516" style="stroke:#181818;stroke-width:1;" width="10" x="843.5112" y="676.0313"/></g><g class="message" data-participant-1="User" data-participant-2="App"><polygon fill="#181818" points="310.2954,149.5703,320.2954,153.5703,310.2954,157.5703,314.2954,153.5703" style="stroke:#181818;stroke-width:1;"/><line style="stroke:#181818;stroke-width:1;" x1="73.5757" x2="316.2954" y1="153.5703" y2="153.5703"/><text fill="#000000" font-family="sans-serif" font-size="13" lengthAdjust="spacing" textLength="129.3335" x="80.5757" y="148.7139">Access profile settings</text></g><g class="message" data-participant-1="App" data-participant-2="Gateway"><polygon fill="#181818" points="529.2534,179.9219,539.2534,183.9219,529.2534,187.9219,533.2534,183.9219" style="stroke:#181818;stroke-width:1;"/><line style="stroke:#181818;stroke-width:1;" x1="332.2954" x2="535.2534" y1="183.9219" y2="183.9219"/><text fill="#000000" font-family="sans-serif" font-size="13" lengthAdjust="spacing" textLength="125.7153" x="339.2954" y="179.0654">GET /api/users/profile</text></g><g class="message" data-participant-1="Gateway" data-participant-2="UserService"><polygon fill="#181818" points="680.3823,210.2734,690.3823,214.2734,680.3823,218.2734,684.3823,214.2734" style="stroke:#181818;stroke-width:1;"/><line style="stroke:#181818;stroke-width:1;" x1="551.2534" x2="686.3823" y1="214.2734" y2="214.2734"/><text fill="#000000" font-family="sans-serif" font-size="13" lengthAdjust="spacing" textLength="88.8735" x="558.2534" y="209.417">Get user profile</text></g><g class="message" data-participant-1="UserService" data-participant-2="DB"><polygon fill="#181818" points="831.5112,240.625,841.5112,244.625,831.5112,248.625,835.5112,244.625" style="stroke:#181818;stroke-width:1;"/><line style="stroke:#181818;stroke-width:1;" x1="702.3823" x2="837.5112" y1="244.625" y2="244.625"/><text fill="#000000" font-family="sans-serif" font-size="13" lengthAdjust="spacing" textLength="106.2217" x="709.3823" y="239.7686">Retrieve user data</text></g><g class="message" data-participant-1="DB" data-participant-2="UserService"><polygon fill="#181818" points="713.3823,270.9766,703.3823,274.9766,713.3823,278.9766,709.3823,274.9766" style="stroke:#181818;stroke-width:1;"/><line style="stroke:#181818;stroke-width:1;stroke-dasharray:2.0,2.0;" x1="707.3823" x2="847.5112" y1="274.9766" y2="274.9766"/><text fill="#000000" font-family="sans-serif" font-size="13" lengthAdjust="spacing" textLength="95.3799" x="719.3823" y="270.1201">User profile data</text></g><g class="message" data-participant-1="UserService" data-participant-2="Gateway"><polygon fill="#181818" points="562.2534,301.3281,552.2534,305.3281,562.2534,309.3281,558.2534,305.3281" style="stroke:#181818;stroke-width:1;"/><line style="stroke:#181818;stroke-width:1;stroke-dasharray:2.0,2.0;" x1="556.2534" x2="696.3823" y1="305.3281" y2="305.3281"/><text fill="#000000" font-family="sans-serif" font-size="13" lengthAdjust="spacing" textLength="66.4663" x="568.2534" y="300.4717">User profile</text></g><g class="message" data-participant-1="Gateway" data-participant-2="App"><polygon fill="#181818" points="343.2954,331.6797,333.2954,335.6797,343.2954,339.6797,339.2954,335.6797" style="stroke:#181818;stroke-width:1;"/><line style="stroke:#181818;stroke-width:1;stroke-dasharray:2.0,2.0;" x1="337.2954" x2="545.2534" y1="335.6797" y2="335.6797"/><text fill="#000000" font-family="sans-serif" font-size="13" lengthAdjust="spacing" textLength="138.7471" x="349.2954" y="330.8232">200 OK with profile data</text></g><g class="message" data-participant-1="App" data-participant-2="User"><polygon fill="#181818" points="84.5757,362.0313,74.5757,366.0313,84.5757,370.0313,80.5757,366.0313" style="stroke:#181818;stroke-width:1;"/><line style="stroke:#181818;stroke-width:1;stroke-dasharray:2.0,2.0;" x1="78.5757" x2="321.2954" y1="366.0313" y2="366.0313"/><text fill="#000000" font-family="sans-serif" font-size="13" lengthAdjust="spacing" textLength="130.0571" x="90.5757" y="361.1748">Display profile settings</text></g><g class="message" data-participant-1="User" data-participant-2="App"><polygon fill="#181818" points="310.2954,392.3828,320.2954,396.3828,310.2954,400.3828,314.2954,396.3828" style="stroke:#181818;stroke-width:1;"/><line style="stroke:#181818;stroke-width:1;" x1="73.5757" x2="316.2954" y1="396.3828" y2="396.3828"/><text fill="#000000" font-family="sans-serif" font-size="13" lengthAdjust="spacing" textLength="138.7407" x="80.5757" y="391.5264">Enter new display name</text></g><g class="message" data-participant-1="User" data-participant-2="App"><polygon fill="#181818" points="315.2954,422.7344,325.2954,426.7344,315.2954,430.7344,319.2954,426.7344" style="stroke:#181818;stroke-width:1;"/><line style="stroke:#181818;stroke-width:1;" x1="73.5757" x2="321.2954" y1="426.7344" y2="426.7344"/><text fill="#000000" font-family="sans-serif" font-size="13" lengthAdjust="spacing" textLength="93.2217" x="80.5757" y="421.8779">Submit changes</text></g><g class="message" data-participant-1="App" data-participant-2="App"><line style="stroke:#181818;stroke-width:1;" x1="337.2954" x2="379.2954" y1="457.0859" y2="457.0859"/><line style="stroke:#181818;stroke-width:1;" x1="379.2954" x2="379.2954" y1="457.0859" y2="470.0859"/><line style="stroke:#181818;stroke-width:1;" x1="338.2954" x2="379.2954" y1="470.0859" y2="470.0859"/><polygon fill="#181818" points="348.2954,466.0859,338.2954,470.0859,348.2954,474.0859,344.2954,470.0859" style="stroke:#181818;stroke-width:1;"/><text fill="#000000" font-family="sans-serif" font-size="13" lengthAdjust="spacing" textLength="167.6416" x="344.2954" y="452.2295">Validate display name format</text></g><path d="M10,485.0859 L70.1709,485.0859 L70.1709,493.4375 L60.1709,503.4375 L10,503.4375 L10,485.0859" fill="#EEEEEE" style="stroke:#000000;stroke-width:1.5;"/><rect fill="none" height="320.3516" style="stroke:#000000;stroke-width:1.5;" width="885.4766" x="10" y="485.0859"/><text fill="#000000" font-family="sans-serif" font-size="13" font-weight="bold" lengthAdjust="spacing" textLength="15.1709" x="25" y="499.5811">alt</text><text fill="#000000" font-family="sans-serif" font-size="11" font-weight="bold" lengthAdjust="spacing" textLength="73.96" x="85.1709" y="498.5049">[Invalid name]</text><g class="message" data-participant-1="App" data-participant-2="User"><polygon fill="#181818" points="84.5757,521.7891,74.5757,525.7891,84.5757,529.7891,80.5757,525.7891" style="stroke:#181818;stroke-width:1;"/><line style="stroke:#181818;stroke-width:1;stroke-dasharray:2.0,2.0;" x1="78.5757" x2="326.2954" y1="525.7891" y2="525.7891"/><text fill="#000000" font-family="sans-serif" font-size="13" lengthAdjust="spacing" textLength="224.7197" x="90.5757" y="520.9326">Show requirements and error message</text></g><line style="stroke:#000000;stroke-width:1;stroke-dasharray:2.0,2.0;" x1="10" x2="895.4766" y1="534.7891" y2="534.7891"/><text fill="#000000" font-family="sans-serif" font-size="11" font-weight="bold" lengthAdjust="spacing" textLength="65.4038" x="15" y="546.208">[Valid name]</text><g class="message" data-participant-1="App" data-participant-2="Gateway"><polygon fill="#181818" points="529.2534,567.9766,539.2534,571.9766,529.2534,575.9766,533.2534,571.9766" style="stroke:#181818;stroke-width:1;"/><line style="stroke:#181818;stroke-width:1;" x1="337.2954" x2="535.2534" y1="571.9766" y2="571.9766"/><text fill="#000000" font-family="sans-serif" font-size="13" lengthAdjust="spacing" textLength="184.958" x="344.2954" y="567.1201">PATCH /api/users/display-name</text></g><g class="message" data-participant-1="Gateway" data-participant-2="UserService"><polygon fill="#181818" points="680.3823,598.3281,690.3823,602.3281,680.3823,606.3281,684.3823,602.3281" style="stroke:#181818;stroke-width:1;"/><line style="stroke:#181818;stroke-width:1;" x1="551.2534" x2="686.3823" y1="602.3281" y2="602.3281"/><text fill="#000000" font-family="sans-serif" font-size="13" lengthAdjust="spacing" textLength="122.1289" x="558.2534" y="597.4717">Update display name</text></g><g class="message" data-participant-1="UserService" data-participant-2="UserService"><line style="stroke:#181818;stroke-width:1;" x1="702.3823" x2="744.3823" y1="632.6797" y2="632.6797"/><line style="stroke:#181818;stroke-width:1;" x1="744.3823" x2="744.3823" y1="632.6797" y2="645.6797"/><line style="stroke:#181818;stroke-width:1;" x1="703.3823" x2="744.3823" y1="645.6797" y2="645.6797"/><polygon fill="#181818" points="713.3823,641.6797,703.3823,645.6797,713.3823,649.6797,709.3823,645.6797" style="stroke:#181818;stroke-width:1;"/><text fill="#000000" font-family="sans-serif" font-size="13" lengthAdjust="spacing" textLength="83.1099" x="709.3823" y="627.8232">Validate name</text></g><g class="message" data-participant-1="UserService" data-participant-2="DB"><polygon fill="#181818" points="831.5112,672.0313,841.5112,676.0313,831.5112,680.0313,835.5112,676.0313" style="stroke:#181818;stroke-width:1;"/><line style="stroke:#181818;stroke-width:1;" x1="702.3823" x2="837.5112" y1="676.0313" y2="676.0313"/><text fill="#000000" font-family="sans-serif" font-size="13" lengthAdjust="spacing" textLength="122.1289" x="709.3823" y="671.1748">Update display name</text></g><g class="message" data-participant-1="DB" data-participant-2="UserService"><polygon fill="#181818" points="713.3823,702.3828,703.3823,706.3828,713.3823,710.3828,709.3823,706.3828" style="stroke:#181818;stroke-width:1;"/><line style="stroke:#181818;stroke-width:1;stroke-dasharray:2.0,2.0;" x1="707.3823" x2="847.5112" y1="706.3828" y2="706.3828"/><text fill="#000000" font-family="sans-serif" font-size="13" lengthAdjust="spacing" textLength="49.1309" x="719.3823" y="701.5264">Success</text></g><g class="message" data-participant-1="UserService" data-participant-2="Gateway"><polygon fill="#181818" points="562.2534,732.7344,552.2534,736.7344,562.2534,740.7344,558.2534,736.7344" style="stroke:#181818;stroke-width:1;"/><line style="stroke:#181818;stroke-width:1;stroke-dasharray:2.0,2.0;" x1="556.2534" x2="696.3823" y1="736.7344" y2="736.7344"/><text fill="#000000" font-family="sans-serif" font-size="13" lengthAdjust="spacing" textLength="44.0845" x="568.2534" y="731.8779">200 OK</text></g><g class="message" data-participant-1="Gateway" data-participant-2="App"><polygon fill="#181818" points="348.2954,763.0859,338.2954,767.0859,348.2954,771.0859,344.2954,767.0859" style="stroke:#181818;stroke-width:1;"/><line style="stroke:#181818;stroke-width:1;stroke-dasharray:2.0,2.0;" x1="342.2954" x2="545.2534" y1="767.0859" y2="767.0859"/><text fill="#000000" font-family="sans-serif" font-size="13" lengthAdjust="spacing" textLength="44.0845" x="354.2954" y="762.2295">200 OK</text></g><g class="message" data-participant-1="App" data-participant-2="User"><polygon fill="#181818" points="84.5757,793.4375,74.5757,797.4375,84.5757,801.4375,80.5757,797.4375" style="stroke:#181818;stroke-width:1;"/><line style="stroke:#181818;stroke-width:1;stroke-dasharray:2.0,2.0;" x1="78.5757" x2="321.2954" y1="797.4375" y2="797.4375"/><text fill="#000000" font-family="sans-serif" font-size="13" lengthAdjust="spacing" textLength="117.0444" x="90.5757" y="792.5811">Display confirmation</text></g><!--SRC=[XLDDJyCm3BtdLrYxJmCaBZqWRUlu419CZ74thRT5QjEIU9luzoHfAKdRYHxIfFLxzhDVCEDAm-IDzj8mQSfXQqXF08tVY1eroqpMg1WczrYOQetVCAzh7sBVSSHy_GGFo7J6Rn_GxkCWHmmRqYUPKPUfFSUHAJ9-eccYqeKGBBaWs2wdrxS9B0-ezWIfD7LXYth1aeJmvDCxLre2yomZOw3MrKvQd25cgVP6OCRoP4lp0eHT7AAjDO67rJlCi9Qpe-KoinRz1_eL9TgD0mSIB04nE2mCeA5I4HmSHRf8u8rOIpfH0y-j_3-irPykODfFjWqIDOYSGaoS9jGP8aDGL6IdyRUdDrTNyFeCPyc7Yscx3ldMjXKdtQG6yuYdjbBMYQ3e37aBK6wqKSpc-5bAXinRuC90VU075Z9tVq8ks5MwH1O22uOdTN8nJHAmJrpqvb2TGTFNKMegIR41L3cGrlRUbDPTk2T1XQ4cKuybwFPw_hvy37tL5ZJj48FskOz-kMIqRJsG5ZE5e-pOUhwB6BjsTLmZBlqthRMTEu_PTNFqTzB_ZuqwNb_OmiPwVUYenWksxMC7dHutR5QfdNIEaPNgKpZ7aSh53m00]--></g></svg>