<svg xmlns="http://www.w3.org/2000/svg" xmlns:xlink="http://www.w3.org/1999/xlink" contentStyleType="text/css" data-diagram-type="SEQUENCE" height="1273px" preserveAspectRatio="none" style="width:1197px;height:1273px;background:#FFFFFF;" version="1.1" viewBox="0 0 1197 1273" width="1197px" zoomAndPan="magnify"><title>UC-18: Delete Linked Bank Account</title><defs/><g><text fill="#000000" font-family="sans-serif" font-size="14" font-weight="bold" lengthAdjust="spacing" textLength="238.0479" x="480.8354" y="29.5332">UC-18: Delete Linked Bank Account</text><g><title>FalsoPay App</title><rect fill="#FFFFFF" height="1028.4375" style="stroke:#181818;stroke-width:1;" width="10" x="289.1436" y="153.5703"/></g><g><title>FalsoPay App</title><rect fill="#FFFFFF" height="739.2734" style="stroke:#181818;stroke-width:1;" width="10" x="294.1436" y="426.7344"/></g><g><title>API Gateway</title><rect fill="#FFFFFF" height="151.7578" style="stroke:#181818;stroke-width:1;" width="10" x="596.6177" y="183.9219"/></g><g><title>API Gateway</title><rect fill="#FFFFFF" height="480.625" style="stroke:#181818;stroke-width:1;" width="10" x="596.6177" y="457.0859"/></g><g><title>Banking Service</title><rect fill="#FFFFFF" height="91.0547" style="stroke:#181818;stroke-width:1;" width="10" x="783.8247" y="214.2734"/></g><g><title>Banking Service</title><rect fill="#FFFFFF" height="419.9219" style="stroke:#181818;stroke-width:1;" width="10" x="783.8247" y="487.4375"/></g><g><title>Account Service</title><rect fill="#FFFFFF" height="496.4609" style="stroke:#181818;stroke-width:1;" width="10" x="964.5654" y="517.7891"/></g><g><title>Database</title><rect fill="#FFFFFF" height="30.3516" style="stroke:#181818;stroke-width:1;" width="10" x="1138.7534" y="244.625"/></g><g><title>Database</title><rect fill="#FFFFFF" height="30.3516" style="stroke:#181818;stroke-width:1;" width="10" x="1138.7534" y="548.1406"/></g><g><title>Database</title><rect fill="#FFFFFF" height="30.3516" style="stroke:#181818;stroke-width:1;" width="10" x="1138.7534" y="846.6563"/></g><g><title>Database</title><rect fill="#FFFFFF" height="30.3516" style="stroke:#181818;stroke-width:1;" width="10" x="1138.7534" y="1044.6016"/></g><rect fill="none" height="580.5156" style="stroke:#000000;stroke-width:1.5;" width="1180.7188" x="10" y="593.4922"/><g><title>Registered User</title><rect fill="#000000" fill-opacity="0.00000" height="1069.7891" width="8" x="69.5757" y="121.2188"/><line style="stroke:#181818;stroke-width:0.5;stroke-dasharray:5.0,5.0;" x1="73" x2="73" y1="121.2188" y2="1191.0078"/></g><g><title>FalsoPay App</title><rect fill="#000000" fill-opacity="0.00000" height="1069.7891" width="8" x="290.1436" y="121.2188"/><line style="stroke:#181818;stroke-width:0.5;stroke-dasharray:5.0,5.0;" x1="293.5645" x2="293.5645" y1="121.2188" y2="1191.0078"/></g><g><title>API Gateway</title><rect fill="#000000" fill-opacity="0.00000" height="1069.7891" width="8" x="597.6177" y="121.2188"/><line style="stroke:#181818;stroke-width:0.5;stroke-dasharray:5.0,5.0;" x1="600.7661" x2="600.7661" y1="121.2188" y2="1191.0078"/></g><g><title>Banking Service</title><rect fill="#000000" fill-opacity="0.00000" height="1069.7891" width="8" x="784.8247" y="121.2188"/><line style="stroke:#181818;stroke-width:0.5;stroke-dasharray:5.0,5.0;" x1="788.2422" x2="788.2422" y1="121.2188" y2="1191.0078"/></g><g><title>Account Service</title><rect fill="#000000" fill-opacity="0.00000" height="1069.7891" width="8" x="965.5654" y="121.2188"/><line style="stroke:#181818;stroke-width:0.5;stroke-dasharray:5.0,5.0;" x1="968.9863" x2="968.9863" y1="121.2188" y2="1191.0078"/></g><g><title>Database</title><rect fill="#000000" fill-opacity="0.00000" height="1069.7891" width="8" x="1139.7534" y="121.2188"/><line style="stroke:#181818;stroke-width:0.5;stroke-dasharray:5.0,5.0;" x1="1142.7881" x2="1142.7881" y1="121.2188" y2="1191.0078"/></g><g class="participant participant-head" data-participant="User"><text fill="#000000" font-family="sans-serif" font-size="14" lengthAdjust="spacing" textLength="101.1514" x="20" y="118.1426">Registered User</text><ellipse cx="73.5757" cy="52.1094" fill="#E2E2F0" rx="8" ry="8" style="stroke:#181818;stroke-width:0.5;"/><path d="M73.5757,60.1094 L73.5757,87.1094 M60.5757,68.1094 L86.5757,68.1094 M73.5757,87.1094 L60.5757,102.1094 M73.5757,87.1094 L86.5757,102.1094" fill="none" style="stroke:#181818;stroke-width:0.5;"/></g><g class="participant participant-tail" data-participant="User"><text fill="#000000" font-family="sans-serif" font-size="14" lengthAdjust="spacing" textLength="101.1514" x="20" y="1204.541">Registered User</text><ellipse cx="73.5757" cy="1216.1172" fill="#E2E2F0" rx="8" ry="8" style="stroke:#181818;stroke-width:0.5;"/><path d="M73.5757,1224.1172 L73.5757,1251.1172 M60.5757,1232.1172 L86.5757,1232.1172 M73.5757,1251.1172 L60.5757,1266.1172 M73.5757,1251.1172 L86.5757,1266.1172" fill="none" style="stroke:#181818;stroke-width:0.5;"/></g><g class="participant participant-head" data-participant="App"><rect fill="#E2E2F0" height="31.6094" rx="2.5" ry="2.5" style="stroke:#181818;stroke-width:0.5;" width="101.1582" x="243.5645" y="88.6094"/><text fill="#000000" font-family="sans-serif" font-size="14" lengthAdjust="spacing" textLength="87.1582" x="250.5645" y="110.1426">FalsoPay App</text></g><g class="participant participant-tail" data-participant="App"><rect fill="#E2E2F0" height="31.6094" rx="2.5" ry="2.5" style="stroke:#181818;stroke-width:0.5;" width="101.1582" x="243.5645" y="1190.0078"/><text fill="#000000" font-family="sans-serif" font-size="14" lengthAdjust="spacing" textLength="87.1582" x="250.5645" y="1211.541">FalsoPay App</text></g><g class="participant participant-head" data-participant="Gateway"><rect fill="#E2E2F0" height="31.6094" rx="2.5" ry="2.5" style="stroke:#181818;stroke-width:0.5;" width="95.7031" x="553.7661" y="88.6094"/><text fill="#000000" font-family="sans-serif" font-size="14" lengthAdjust="spacing" textLength="81.7031" x="560.7661" y="110.1426">API Gateway</text></g><g class="participant participant-tail" data-participant="Gateway"><rect fill="#E2E2F0" height="31.6094" rx="2.5" ry="2.5" style="stroke:#181818;stroke-width:0.5;" width="95.7031" x="553.7661" y="1190.0078"/><text fill="#000000" font-family="sans-serif" font-size="14" lengthAdjust="spacing" textLength="81.7031" x="560.7661" y="1211.541">API Gateway</text></g><g class="participant participant-head" data-participant="BankService"><rect fill="#E2E2F0" height="31.6094" rx="2.5" ry="2.5" style="stroke:#181818;stroke-width:0.5;" width="115.165" x="731.2422" y="88.6094"/><text fill="#000000" font-family="sans-serif" font-size="14" lengthAdjust="spacing" textLength="101.165" x="738.2422" y="110.1426">Banking Service</text></g><g class="participant participant-tail" data-participant="BankService"><rect fill="#E2E2F0" height="31.6094" rx="2.5" ry="2.5" style="stroke:#181818;stroke-width:0.5;" width="115.165" x="731.2422" y="1190.0078"/><text fill="#000000" font-family="sans-serif" font-size="14" lengthAdjust="spacing" textLength="101.165" x="738.2422" y="1211.541">Banking Service</text></g><g class="participant participant-head" data-participant="AccountService"><rect fill="#E2E2F0" height="31.6094" rx="2.5" ry="2.5" style="stroke:#181818;stroke-width:0.5;" width="115.1582" x="911.9863" y="88.6094"/><text fill="#000000" font-family="sans-serif" font-size="14" lengthAdjust="spacing" textLength="101.1582" x="918.9863" y="110.1426">Account Service</text></g><g class="participant participant-tail" data-participant="AccountService"><rect fill="#E2E2F0" height="31.6094" rx="2.5" ry="2.5" style="stroke:#181818;stroke-width:0.5;" width="115.1582" x="911.9863" y="1190.0078"/><text fill="#000000" font-family="sans-serif" font-size="14" lengthAdjust="spacing" textLength="101.1582" x="918.9863" y="1211.541">Account Service</text></g><g class="participant participant-head" data-participant="DB"><rect fill="#E2E2F0" height="31.6094" rx="2.5" ry="2.5" style="stroke:#181818;stroke-width:0.5;" width="73.9307" x="1106.7881" y="88.6094"/><text fill="#000000" font-family="sans-serif" font-size="14" lengthAdjust="spacing" textLength="59.9307" x="1113.7881" y="110.1426">Database</text></g><g class="participant participant-tail" data-participant="DB"><rect fill="#E2E2F0" height="31.6094" rx="2.5" ry="2.5" style="stroke:#181818;stroke-width:0.5;" width="73.9307" x="1106.7881" y="1190.0078"/><text fill="#000000" font-family="sans-serif" font-size="14" lengthAdjust="spacing" textLength="59.9307" x="1113.7881" y="1211.541">Database</text></g><g><title>FalsoPay App</title><rect fill="#FFFFFF" height="1028.4375" style="stroke:#181818;stroke-width:1;" width="10" x="289.1436" y="153.5703"/></g><g><title>FalsoPay App</title><rect fill="#FFFFFF" height="739.2734" style="stroke:#181818;stroke-width:1;" width="10" x="294.1436" y="426.7344"/></g><g><title>API Gateway</title><rect fill="#FFFFFF" height="151.7578" style="stroke:#181818;stroke-width:1;" width="10" x="596.6177" y="183.9219"/></g><g><title>API Gateway</title><rect fill="#FFFFFF" height="480.625" style="stroke:#181818;stroke-width:1;" width="10" x="596.6177" y="457.0859"/></g><g><title>Banking Service</title><rect fill="#FFFFFF" height="91.0547" style="stroke:#181818;stroke-width:1;" width="10" x="783.8247" y="214.2734"/></g><g><title>Banking Service</title><rect fill="#FFFFFF" height="419.9219" style="stroke:#181818;stroke-width:1;" width="10" x="783.8247" y="487.4375"/></g><g><title>Account Service</title><rect fill="#FFFFFF" height="496.4609" style="stroke:#181818;stroke-width:1;" width="10" x="964.5654" y="517.7891"/></g><g><title>Database</title><rect fill="#FFFFFF" height="30.3516" style="stroke:#181818;stroke-width:1;" width="10" x="1138.7534" y="244.625"/></g><g><title>Database</title><rect fill="#FFFFFF" height="30.3516" style="stroke:#181818;stroke-width:1;" width="10" x="1138.7534" y="548.1406"/></g><g><title>Database</title><rect fill="#FFFFFF" height="30.3516" style="stroke:#181818;stroke-width:1;" width="10" x="1138.7534" y="846.6563"/></g><g><title>Database</title><rect fill="#FFFFFF" height="30.3516" style="stroke:#181818;stroke-width:1;" width="10" x="1138.7534" y="1044.6016"/></g><g class="message" data-participant-1="User" data-participant-2="App"><polygon fill="#181818" points="277.1436,149.5703,287.1436,153.5703,277.1436,157.5703,281.1436,153.5703" style="stroke:#181818;stroke-width:1;"/><line style="stroke:#181818;stroke-width:1;" x1="73.5757" x2="283.1436" y1="153.5703" y2="153.5703"/><text fill="#000000" font-family="sans-serif" font-size="13" lengthAdjust="spacing" textLength="196.5679" x="80.5757" y="148.7139">Select bank account management</text></g><g class="message" data-participant-1="App" data-participant-2="Gateway"><polygon fill="#181818" points="584.6177,179.9219,594.6177,183.9219,584.6177,187.9219,588.6177,183.9219" style="stroke:#181818;stroke-width:1;"/><line style="stroke:#181818;stroke-width:1;" x1="299.1436" x2="590.6177" y1="183.9219" y2="183.9219"/><text fill="#000000" font-family="sans-serif" font-size="13" lengthAdjust="spacing" textLength="156.0889" x="306.1436" y="179.0654">GET /api/banking/accounts</text></g><g class="message" data-participant-1="Gateway" data-participant-2="BankService"><polygon fill="#181818" points="771.8247,210.2734,781.8247,214.2734,771.8247,218.2734,775.8247,214.2734" style="stroke:#181818;stroke-width:1;"/><line style="stroke:#181818;stroke-width:1;" x1="606.6177" x2="777.8247" y1="214.2734" y2="214.2734"/><text fill="#000000" font-family="sans-serif" font-size="13" lengthAdjust="spacing" textLength="114.1753" x="613.6177" y="209.417">Get linked accounts</text></g><g class="message" data-participant-1="BankService" data-participant-2="DB"><polygon fill="#181818" points="1126.7534,240.625,1136.7534,244.625,1126.7534,248.625,1130.7534,244.625" style="stroke:#181818;stroke-width:1;"/><line style="stroke:#181818;stroke-width:1;" x1="793.8247" x2="1132.7534" y1="244.625" y2="244.625"/><text fill="#000000" font-family="sans-serif" font-size="13" lengthAdjust="spacing" textLength="135.8525" x="800.8247" y="239.7686">Retrieve bank accounts</text></g><g class="message" data-participant-1="DB" data-participant-2="BankService"><polygon fill="#181818" points="804.8247,270.9766,794.8247,274.9766,804.8247,278.9766,800.8247,274.9766" style="stroke:#181818;stroke-width:1;"/><line style="stroke:#181818;stroke-width:1;stroke-dasharray:2.0,2.0;" x1="798.8247" x2="1142.7534" y1="274.9766" y2="274.9766"/><text fill="#000000" font-family="sans-serif" font-size="13" lengthAdjust="spacing" textLength="85.2744" x="810.8247" y="270.1201">Bank accounts</text></g><g class="message" data-participant-1="BankService" data-participant-2="Gateway"><polygon fill="#181818" points="617.6177,301.3281,607.6177,305.3281,617.6177,309.3281,613.6177,305.3281" style="stroke:#181818;stroke-width:1;"/><line style="stroke:#181818;stroke-width:1;stroke-dasharray:2.0,2.0;" x1="611.6177" x2="787.8247" y1="305.3281" y2="305.3281"/><text fill="#000000" font-family="sans-serif" font-size="13" lengthAdjust="spacing" textLength="125.7534" x="623.6177" y="300.4717">Linked bank accounts</text></g><g class="message" data-participant-1="Gateway" data-participant-2="App"><polygon fill="#181818" points="310.1436,331.6797,300.1436,335.6797,310.1436,339.6797,306.1436,335.6797" style="stroke:#181818;stroke-width:1;"/><line style="stroke:#181818;stroke-width:1;stroke-dasharray:2.0,2.0;" x1="304.1436" x2="600.6177" y1="335.6797" y2="335.6797"/><text fill="#000000" font-family="sans-serif" font-size="13" lengthAdjust="spacing" textLength="126.458" x="316.1436" y="330.8232">200 OK with accounts</text></g><g class="message" data-participant-1="App" data-participant-2="User"><polygon fill="#181818" points="84.5757,362.0313,74.5757,366.0313,84.5757,370.0313,80.5757,366.0313" style="stroke:#181818;stroke-width:1;"/><line style="stroke:#181818;stroke-width:1;stroke-dasharray:2.0,2.0;" x1="78.5757" x2="288.1436" y1="366.0313" y2="366.0313"/><text fill="#000000" font-family="sans-serif" font-size="13" lengthAdjust="spacing" textLength="135.8462" x="90.5757" y="361.1748">Display linked accounts</text></g><g class="message" data-participant-1="User" data-participant-2="App"><polygon fill="#181818" points="277.1436,392.3828,287.1436,396.3828,277.1436,400.3828,281.1436,396.3828" style="stroke:#181818;stroke-width:1;"/><line style="stroke:#181818;stroke-width:1;" x1="73.5757" x2="283.1436" y1="396.3828" y2="396.3828"/><text fill="#000000" font-family="sans-serif" font-size="13" lengthAdjust="spacing" textLength="137.3062" x="80.5757" y="391.5264">Select account to unlink</text></g><g class="message" data-participant-1="User" data-participant-2="App"><polygon fill="#181818" points="282.1436,422.7344,292.1436,426.7344,282.1436,430.7344,286.1436,426.7344" style="stroke:#181818;stroke-width:1;"/><line style="stroke:#181818;stroke-width:1;" x1="73.5757" x2="288.1436" y1="426.7344" y2="426.7344"/><text fill="#000000" font-family="sans-serif" font-size="13" lengthAdjust="spacing" textLength="94.6563" x="80.5757" y="421.8779">Confirm deletion</text></g><g class="message" data-participant-1="App" data-participant-2="Gateway"><polygon fill="#181818" points="584.6177,453.0859,594.6177,457.0859,584.6177,461.0859,588.6177,457.0859" style="stroke:#181818;stroke-width:1;"/><line style="stroke:#181818;stroke-width:1;" x1="304.1436" x2="590.6177" y1="457.0859" y2="457.0859"/><text fill="#000000" font-family="sans-serif" font-size="13" lengthAdjust="spacing" textLength="202.3506" x="311.1436" y="452.2295">DELETE /api/banking/accounts/{id}</text></g><g class="message" data-participant-1="Gateway" data-participant-2="BankService"><polygon fill="#181818" points="771.8247,483.4375,781.8247,487.4375,771.8247,491.4375,775.8247,487.4375" style="stroke:#181818;stroke-width:1;"/><line style="stroke:#181818;stroke-width:1;" x1="606.6177" x2="777.8247" y1="487.4375" y2="487.4375"/><text fill="#000000" font-family="sans-serif" font-size="13" lengthAdjust="spacing" textLength="141.6416" x="613.6177" y="482.5811">Delete bank account link</text></g><g class="message" data-participant-1="BankService" data-participant-2="AccountService"><polygon fill="#181818" points="952.5654,513.7891,962.5654,517.7891,952.5654,521.7891,956.5654,517.7891" style="stroke:#181818;stroke-width:1;"/><line style="stroke:#181818;stroke-width:1;" x1="793.8247" x2="958.5654" y1="517.7891" y2="517.7891"/><text fill="#000000" font-family="sans-serif" font-size="13" lengthAdjust="spacing" textLength="143.7935" x="800.8247" y="512.9326">Check payment methods</text></g><g class="message" data-participant-1="AccountService" data-participant-2="DB"><polygon fill="#181818" points="1126.7534,544.1406,1136.7534,548.1406,1126.7534,552.1406,1130.7534,548.1406" style="stroke:#181818;stroke-width:1;"/><line style="stroke:#181818;stroke-width:1;" x1="974.5654" x2="1132.7534" y1="548.1406" y2="548.1406"/><text fill="#000000" font-family="sans-serif" font-size="13" lengthAdjust="spacing" textLength="141.6353" x="981.5654" y="543.2842">Count payment methods</text></g><g class="message" data-participant-1="DB" data-participant-2="AccountService"><polygon fill="#181818" points="985.5654,574.4922,975.5654,578.4922,985.5654,582.4922,981.5654,578.4922" style="stroke:#181818;stroke-width:1;"/><line style="stroke:#181818;stroke-width:1;stroke-dasharray:2.0,2.0;" x1="979.5654" x2="1142.7534" y1="578.4922" y2="578.4922"/><text fill="#000000" font-family="sans-serif" font-size="13" lengthAdjust="spacing" textLength="140.188" x="991.5654" y="573.6357">Payment methods count</text></g><path d="M10,593.4922 L70.1709,593.4922 L70.1709,601.8438 L60.1709,611.8438 L10,611.8438 L10,593.4922" fill="#EEEEEE" style="stroke:#000000;stroke-width:1.5;"/><rect fill="none" height="580.5156" style="stroke:#000000;stroke-width:1.5;" width="1180.7188" x="10" y="593.4922"/><text fill="#000000" font-family="sans-serif" font-size="13" font-weight="bold" lengthAdjust="spacing" textLength="15.1709" x="25" y="607.9873">alt</text><text fill="#000000" font-family="sans-serif" font-size="11" font-weight="bold" lengthAdjust="spacing" textLength="179.0669" x="85.1709" y="606.9111">[Would leave no payment method]</text><g class="message" data-participant-1="AccountService" data-participant-2="BankService"><polygon fill="#181818" points="804.8247,630.1953,794.8247,634.1953,804.8247,638.1953,800.8247,634.1953" style="stroke:#181818;stroke-width:1;"/><line style="stroke:#181818;stroke-width:1;stroke-dasharray:2.0,2.0;" x1="798.8247" x2="963.5654" y1="634.1953" y2="634.1953"/><text fill="#000000" font-family="sans-serif" font-size="13" lengthAdjust="spacing" textLength="127.1753" x="810.8247" y="629.3389">Only payment method</text></g><g class="message" data-participant-1="BankService" data-participant-2="Gateway"><polygon fill="#181818" points="617.6177,660.5469,607.6177,664.5469,617.6177,668.5469,613.6177,664.5469" style="stroke:#181818;stroke-width:1;"/><line style="stroke:#181818;stroke-width:1;stroke-dasharray:2.0,2.0;" x1="611.6177" x2="782.8247" y1="664.5469" y2="664.5469"/><text fill="#000000" font-family="sans-serif" font-size="13" lengthAdjust="spacing" textLength="68.6499" x="623.6177" y="659.6904">409 Conflict</text></g><g class="message" data-participant-1="Gateway" data-participant-2="App"><polygon fill="#181818" points="315.1436,690.8984,305.1436,694.8984,315.1436,698.8984,311.1436,694.8984" style="stroke:#181818;stroke-width:1;"/><line style="stroke:#181818;stroke-width:1;stroke-dasharray:2.0,2.0;" x1="309.1436" x2="595.6177" y1="694.8984" y2="694.8984"/><text fill="#000000" font-family="sans-serif" font-size="13" lengthAdjust="spacing" textLength="68.6499" x="321.1436" y="690.042">409 Conflict</text></g><g class="message" data-participant-1="App" data-participant-2="User"><polygon fill="#181818" points="84.5757,721.25,74.5757,725.25,84.5757,729.25,80.5757,725.25" style="stroke:#181818;stroke-width:1;"/><line style="stroke:#181818;stroke-width:1;stroke-dasharray:2.0,2.0;" x1="78.5757" x2="293.1436" y1="725.25" y2="725.25"/><text fill="#000000" font-family="sans-serif" font-size="13" lengthAdjust="spacing" textLength="173.4053" x="90.5757" y="720.3936">Warn and ask for confirmation</text></g><g class="message" data-participant-1="User" data-participant-2="App"><polygon fill="#181818" points="282.1436,751.6016,292.1436,755.6016,282.1436,759.6016,286.1436,755.6016" style="stroke:#181818;stroke-width:1;"/><line style="stroke:#181818;stroke-width:1;" x1="73.5757" x2="288.1436" y1="755.6016" y2="755.6016"/><text fill="#000000" font-family="sans-serif" font-size="13" lengthAdjust="spacing" textLength="93.1963" x="80.5757" y="750.7451">Confirm anyway</text></g><g class="message" data-participant-1="App" data-participant-2="Gateway"><polygon fill="#181818" points="584.6177,781.9531,594.6177,785.9531,584.6177,789.9531,588.6177,785.9531" style="stroke:#181818;stroke-width:1;"/><line style="stroke:#181818;stroke-width:1;" x1="304.1436" x2="590.6177" y1="785.9531" y2="785.9531"/><text fill="#000000" font-family="sans-serif" font-size="13" lengthAdjust="spacing" textLength="268.4741" x="311.1436" y="781.0967">DELETE /api/banking/accounts/{id}?force=true</text></g><g class="message" data-participant-1="Gateway" data-participant-2="BankService"><polygon fill="#181818" points="771.8247,812.3047,781.8247,816.3047,771.8247,820.3047,775.8247,816.3047" style="stroke:#181818;stroke-width:1;"/><line style="stroke:#181818;stroke-width:1;" x1="606.6177" x2="777.8247" y1="816.3047" y2="816.3047"/><text fill="#000000" font-family="sans-serif" font-size="13" lengthAdjust="spacing" textLength="153.207" x="613.6177" y="811.4482">Force delete bank account</text></g><g class="message" data-participant-1="BankService" data-participant-2="DB"><polygon fill="#181818" points="1126.7534,842.6563,1136.7534,846.6563,1126.7534,850.6563,1130.7534,846.6563" style="stroke:#181818;stroke-width:1;"/><line style="stroke:#181818;stroke-width:1;" x1="793.8247" x2="1132.7534" y1="846.6563" y2="846.6563"/><text fill="#000000" font-family="sans-serif" font-size="13" lengthAdjust="spacing" textLength="152.4707" x="800.8247" y="841.7998">Remove bank account link</text></g><g class="message" data-participant-1="DB" data-participant-2="BankService"><polygon fill="#181818" points="804.8247,873.0078,794.8247,877.0078,804.8247,881.0078,800.8247,877.0078" style="stroke:#181818;stroke-width:1;"/><line style="stroke:#181818;stroke-width:1;stroke-dasharray:2.0,2.0;" x1="798.8247" x2="1142.7534" y1="877.0078" y2="877.0078"/><text fill="#000000" font-family="sans-serif" font-size="13" lengthAdjust="spacing" textLength="49.1309" x="810.8247" y="872.1514">Success</text></g><g class="message" data-participant-1="BankService" data-participant-2="Gateway"><polygon fill="#181818" points="617.6177,903.3594,607.6177,907.3594,617.6177,911.3594,613.6177,907.3594" style="stroke:#181818;stroke-width:1;"/><line style="stroke:#181818;stroke-width:1;stroke-dasharray:2.0,2.0;" x1="611.6177" x2="787.8247" y1="907.3594" y2="907.3594"/><text fill="#000000" font-family="sans-serif" font-size="13" lengthAdjust="spacing" textLength="44.0845" x="623.6177" y="902.5029">200 OK</text></g><g class="message" data-participant-1="Gateway" data-participant-2="App"><polygon fill="#181818" points="315.1436,933.7109,305.1436,937.7109,315.1436,941.7109,311.1436,937.7109" style="stroke:#181818;stroke-width:1;"/><line style="stroke:#181818;stroke-width:1;stroke-dasharray:2.0,2.0;" x1="309.1436" x2="600.6177" y1="937.7109" y2="937.7109"/><text fill="#000000" font-family="sans-serif" font-size="13" lengthAdjust="spacing" textLength="44.0845" x="321.1436" y="932.8545">200 OK</text></g><g class="message" data-participant-1="App" data-participant-2="User"><polygon fill="#181818" points="84.5757,964.0625,74.5757,968.0625,84.5757,972.0625,80.5757,968.0625" style="stroke:#181818;stroke-width:1;"/><line style="stroke:#181818;stroke-width:1;stroke-dasharray:2.0,2.0;" x1="78.5757" x2="293.1436" y1="968.0625" y2="968.0625"/><text fill="#000000" font-family="sans-serif" font-size="13" lengthAdjust="spacing" textLength="117.0444" x="90.5757" y="963.2061">Display confirmation</text></g><line style="stroke:#000000;stroke-width:1;stroke-dasharray:2.0,2.0;" x1="10" x2="1190.7188" y1="977.0625" y2="977.0625"/><text fill="#000000" font-family="sans-serif" font-size="11" font-weight="bold" lengthAdjust="spacing" textLength="146.0615" x="15" y="988.4814">[Multiple payment methods]</text><g class="message" data-participant-1="AccountService" data-participant-2="BankService"><polygon fill="#181818" points="799.8247,1010.25,789.8247,1014.25,799.8247,1018.25,795.8247,1014.25" style="stroke:#181818;stroke-width:1;"/><line style="stroke:#181818;stroke-width:1;stroke-dasharray:2.0,2.0;" x1="793.8247" x2="968.5654" y1="1014.25" y2="1014.25"/><text fill="#000000" font-family="sans-serif" font-size="13" lengthAdjust="spacing" textLength="151.7407" x="805.8247" y="1009.3936">Multiple payment methods</text></g><g class="message" data-participant-1="BankService" data-participant-2="DB"><polygon fill="#181818" points="1126.7534,1040.6016,1136.7534,1044.6016,1126.7534,1048.6016,1130.7534,1044.6016" style="stroke:#181818;stroke-width:1;"/><line style="stroke:#181818;stroke-width:1;" x1="788.8247" x2="1132.7534" y1="1044.6016" y2="1044.6016"/><text fill="#000000" font-family="sans-serif" font-size="13" lengthAdjust="spacing" textLength="152.4707" x="795.8247" y="1039.7451">Remove bank account link</text></g><g class="message" data-participant-1="DB" data-participant-2="BankService"><polygon fill="#181818" points="799.8247,1070.9531,789.8247,1074.9531,799.8247,1078.9531,795.8247,1074.9531" style="stroke:#181818;stroke-width:1;"/><line style="stroke:#181818;stroke-width:1;stroke-dasharray:2.0,2.0;" x1="793.8247" x2="1142.7534" y1="1074.9531" y2="1074.9531"/><text fill="#000000" font-family="sans-serif" font-size="13" lengthAdjust="spacing" textLength="49.1309" x="805.8247" y="1070.0967">Success</text></g><g class="message" data-participant-1="BankService" data-participant-2="Gateway"><polygon fill="#181818" points="612.6177,1101.3047,602.6177,1105.3047,612.6177,1109.3047,608.6177,1105.3047" style="stroke:#181818;stroke-width:1;"/><line style="stroke:#181818;stroke-width:1;stroke-dasharray:2.0,2.0;" x1="606.6177" x2="787.8247" y1="1105.3047" y2="1105.3047"/><text fill="#000000" font-family="sans-serif" font-size="13" lengthAdjust="spacing" textLength="44.0845" x="618.6177" y="1100.4482">200 OK</text></g><g class="message" data-participant-1="Gateway" data-participant-2="App"><polygon fill="#181818" points="315.1436,1131.6563,305.1436,1135.6563,315.1436,1139.6563,311.1436,1135.6563" style="stroke:#181818;stroke-width:1;"/><line style="stroke:#181818;stroke-width:1;stroke-dasharray:2.0,2.0;" x1="309.1436" x2="600.6177" y1="1135.6563" y2="1135.6563"/><text fill="#000000" font-family="sans-serif" font-size="13" lengthAdjust="spacing" textLength="44.0845" x="321.1436" y="1130.7998">200 OK</text></g><g class="message" data-participant-1="App" data-participant-2="User"><polygon fill="#181818" points="84.5757,1162.0078,74.5757,1166.0078,84.5757,1170.0078,80.5757,1166.0078" style="stroke:#181818;stroke-width:1;"/><line style="stroke:#181818;stroke-width:1;stroke-dasharray:2.0,2.0;" x1="78.5757" x2="288.1436" y1="1166.0078" y2="1166.0078"/><text fill="#000000" font-family="sans-serif" font-size="13" lengthAdjust="spacing" textLength="117.0444" x="90.5757" y="1161.1514">Display confirmation</text></g><!--SRC=[xLLTRzem57tFhxZY7S6cFNH8srG8hQfrAkg7-dnnRi72E57iKA5f_tssau1jJDU-ZuTWXtFkrpaso7HPm-2ULbnfggc09qNr052vHLPXhJdZ5KeDWoiKgbpW7Ywhoa7CTuYuNDp0DMfwnRq3TEiGD4MvuN853rJlE2C7jE-wVHIHiR8n2n_SlKlYSzIuHDK2yscMQQu5mTDi-EbY0Za9qWItN6vCgpPf7opBRBym_6wRcfXqWfY6fKLWLy8M9QveImQCJFETwSrD83CFI-oQdS3r_156MF7Hikrqr4LGHru_cAnRMBut0nE3D8Ysp5EsFwtCszWe-NG2zwHhJZiAwlVuPYxv58Pnpcc0BiZ7XsdyRhjXBi-HWs8FxVQ3_ZmUmzrFUELwdMGV1kM6R5XM9YCaLvKmSU8H9LNi1TGbDD8oGjIib2-yta9XpS5B-Gzry_dj_76U5dZqcnT_Fg1ovyV0Pgx0TqaTdWFJo9hO1YhSMu_2blIwB3pLesEJXVlUEpDNnDaWH-l4sHSX1TfZ5Ra8XORdiX45249ZK5b6gJ8mdxYoU6ntKknJlBCU_JB-wcGMd6c7FF7X2IBqspFM4b0QfwaDl9WhaxMcGMSOYtUFfAzGxgq93a4_ugKV9XUZRxfkAAmxciYLXRKE3krqh2rvJspBNSf-5k_hPlUf6-EXOOoKSh-7IgVJ-hst9p-c-du_n3XpQyJS_hWTUEax8v2EX2BurGZDA_Ct4Tl-FMPya-nL5ns__xgygKiyF7CJaooolm00]--></g></svg>