<svg xmlns="http://www.w3.org/2000/svg" xmlns:xlink="http://www.w3.org/1999/xlink" contentStyleType="text/css" data-diagram-type="SEQUENCE" height="965px" preserveAspectRatio="none" style="width:892px;height:965px;background:#FFFFFF;" version="1.1" viewBox="0 0 892 965" width="892px" zoomAndPan="magnify"><title>UC-21: View Your IPA Addresses</title><defs/><g><text fill="#000000" font-family="sans-serif" font-size="14" font-weight="bold" lengthAdjust="spacing" textLength="219.3994" x="337.7029" y="29.5332">UC-21: View Your IPA Addresses</text><g><title>FalsoPay App</title><rect fill="#FFFFFF" height="720.5703" style="stroke:#181818;stroke-width:1;" width="10" x="295.4004" y="153.5703"/></g><g><title>FalsoPay App</title><rect fill="#FFFFFF" height="255.8125" style="stroke:#181818;stroke-width:1;" width="10" x="300.4004" y="609.3281"/></g><g><title>API Gateway</title><rect fill="#FFFFFF" height="357.7031" style="stroke:#181818;stroke-width:1;" width="10" x="484.7065" y="183.9219"/></g><g><title>API Gateway</title><rect fill="#FFFFFF" height="195.1094" style="stroke:#181818;stroke-width:1;" width="10" x="484.7065" y="639.6797"/></g><g><title>Account Service</title><rect fill="#FFFFFF" height="297" style="stroke:#181818;stroke-width:1;" width="10" x="668.2764" y="214.2734"/></g><g><title>Account Service</title><rect fill="#FFFFFF" height="134.4063" style="stroke:#181818;stroke-width:1;" width="10" x="668.2764" y="670.0313"/></g><g><title>Database</title><rect fill="#FFFFFF" height="192.9453" style="stroke:#181818;stroke-width:1;" width="10" x="833.8398" y="244.625"/></g><g><title>Database</title><rect fill="#FFFFFF" height="30.3516" style="stroke:#181818;stroke-width:1;" width="10" x="833.8398" y="743.7344"/></g><rect fill="none" height="320.3516" style="stroke:#000000;stroke-width:1.5;" width="875.8052" x="10" y="259.625"/><g><title>Registered User</title><rect fill="#000000" fill-opacity="0.00000" height="761.9219" width="8" x="69.5757" y="121.2188"/><line style="stroke:#181818;stroke-width:0.5;stroke-dasharray:5.0,5.0;" x1="73" x2="73" y1="121.2188" y2="883.1406"/></g><g><title>FalsoPay App</title><rect fill="#000000" fill-opacity="0.00000" height="761.9219" width="8" x="296.4004" y="121.2188"/><line style="stroke:#181818;stroke-width:0.5;stroke-dasharray:5.0,5.0;" x1="299.8213" x2="299.8213" y1="121.2188" y2="883.1406"/></g><g><title>API Gateway</title><rect fill="#000000" fill-opacity="0.00000" height="761.9219" width="8" x="485.7065" y="121.2188"/><line style="stroke:#181818;stroke-width:0.5;stroke-dasharray:5.0,5.0;" x1="488.855" x2="488.855" y1="121.2188" y2="883.1406"/></g><g><title>Account Service</title><rect fill="#000000" fill-opacity="0.00000" height="761.9219" width="8" x="669.2764" y="121.2188"/><line style="stroke:#181818;stroke-width:0.5;stroke-dasharray:5.0,5.0;" x1="672.6973" x2="672.6973" y1="121.2188" y2="883.1406"/></g><g><title>Database</title><rect fill="#000000" fill-opacity="0.00000" height="761.9219" width="8" x="834.8398" y="121.2188"/><line style="stroke:#181818;stroke-width:0.5;stroke-dasharray:5.0,5.0;" x1="837.8745" x2="837.8745" y1="121.2188" y2="883.1406"/></g><g class="participant participant-head" data-participant="User"><text fill="#000000" font-family="sans-serif" font-size="14" lengthAdjust="spacing" textLength="101.1514" x="20" y="118.1426">Registered User</text><ellipse cx="73.5757" cy="52.1094" fill="#E2E2F0" rx="8" ry="8" style="stroke:#181818;stroke-width:0.5;"/><path d="M73.5757,60.1094 L73.5757,87.1094 M60.5757,68.1094 L86.5757,68.1094 M73.5757,87.1094 L60.5757,102.1094 M73.5757,87.1094 L86.5757,102.1094" fill="none" style="stroke:#181818;stroke-width:0.5;"/></g><g class="participant participant-tail" data-participant="User"><text fill="#000000" font-family="sans-serif" font-size="14" lengthAdjust="spacing" textLength="101.1514" x="20" y="896.6738">Registered User</text><ellipse cx="73.5757" cy="908.25" fill="#E2E2F0" rx="8" ry="8" style="stroke:#181818;stroke-width:0.5;"/><path d="M73.5757,916.25 L73.5757,943.25 M60.5757,924.25 L86.5757,924.25 M73.5757,943.25 L60.5757,958.25 M73.5757,943.25 L86.5757,958.25" fill="none" style="stroke:#181818;stroke-width:0.5;"/></g><g class="participant participant-head" data-participant="App"><rect fill="#E2E2F0" height="31.6094" rx="2.5" ry="2.5" style="stroke:#181818;stroke-width:0.5;" width="101.1582" x="249.8213" y="88.6094"/><text fill="#000000" font-family="sans-serif" font-size="14" lengthAdjust="spacing" textLength="87.1582" x="256.8213" y="110.1426">FalsoPay App</text></g><g class="participant participant-tail" data-participant="App"><rect fill="#E2E2F0" height="31.6094" rx="2.5" ry="2.5" style="stroke:#181818;stroke-width:0.5;" width="101.1582" x="249.8213" y="882.1406"/><text fill="#000000" font-family="sans-serif" font-size="14" lengthAdjust="spacing" textLength="87.1582" x="256.8213" y="903.6738">FalsoPay App</text></g><g class="participant participant-head" data-participant="Gateway"><rect fill="#E2E2F0" height="31.6094" rx="2.5" ry="2.5" style="stroke:#181818;stroke-width:0.5;" width="95.7031" x="441.855" y="88.6094"/><text fill="#000000" font-family="sans-serif" font-size="14" lengthAdjust="spacing" textLength="81.7031" x="448.855" y="110.1426">API Gateway</text></g><g class="participant participant-tail" data-participant="Gateway"><rect fill="#E2E2F0" height="31.6094" rx="2.5" ry="2.5" style="stroke:#181818;stroke-width:0.5;" width="95.7031" x="441.855" y="882.1406"/><text fill="#000000" font-family="sans-serif" font-size="14" lengthAdjust="spacing" textLength="81.7031" x="448.855" y="903.6738">API Gateway</text></g><g class="participant participant-head" data-participant="AccountService"><rect fill="#E2E2F0" height="31.6094" rx="2.5" ry="2.5" style="stroke:#181818;stroke-width:0.5;" width="115.1582" x="615.6973" y="88.6094"/><text fill="#000000" font-family="sans-serif" font-size="14" lengthAdjust="spacing" textLength="101.1582" x="622.6973" y="110.1426">Account Service</text></g><g class="participant participant-tail" data-participant="AccountService"><rect fill="#E2E2F0" height="31.6094" rx="2.5" ry="2.5" style="stroke:#181818;stroke-width:0.5;" width="115.1582" x="615.6973" y="882.1406"/><text fill="#000000" font-family="sans-serif" font-size="14" lengthAdjust="spacing" textLength="101.1582" x="622.6973" y="903.6738">Account Service</text></g><g class="participant participant-head" data-participant="DB"><rect fill="#E2E2F0" height="31.6094" rx="2.5" ry="2.5" style="stroke:#181818;stroke-width:0.5;" width="73.9307" x="801.8745" y="88.6094"/><text fill="#000000" font-family="sans-serif" font-size="14" lengthAdjust="spacing" textLength="59.9307" x="808.8745" y="110.1426">Database</text></g><g class="participant participant-tail" data-participant="DB"><rect fill="#E2E2F0" height="31.6094" rx="2.5" ry="2.5" style="stroke:#181818;stroke-width:0.5;" width="73.9307" x="801.8745" y="882.1406"/><text fill="#000000" font-family="sans-serif" font-size="14" lengthAdjust="spacing" textLength="59.9307" x="808.8745" y="903.6738">Database</text></g><g><title>FalsoPay App</title><rect fill="#FFFFFF" height="720.5703" style="stroke:#181818;stroke-width:1;" width="10" x="295.4004" y="153.5703"/></g><g><title>FalsoPay App</title><rect fill="#FFFFFF" height="255.8125" style="stroke:#181818;stroke-width:1;" width="10" x="300.4004" y="609.3281"/></g><g><title>API Gateway</title><rect fill="#FFFFFF" height="357.7031" style="stroke:#181818;stroke-width:1;" width="10" x="484.7065" y="183.9219"/></g><g><title>API Gateway</title><rect fill="#FFFFFF" height="195.1094" style="stroke:#181818;stroke-width:1;" width="10" x="484.7065" y="639.6797"/></g><g><title>Account Service</title><rect fill="#FFFFFF" height="297" style="stroke:#181818;stroke-width:1;" width="10" x="668.2764" y="214.2734"/></g><g><title>Account Service</title><rect fill="#FFFFFF" height="134.4063" style="stroke:#181818;stroke-width:1;" width="10" x="668.2764" y="670.0313"/></g><g><title>Database</title><rect fill="#FFFFFF" height="192.9453" style="stroke:#181818;stroke-width:1;" width="10" x="833.8398" y="244.625"/></g><g><title>Database</title><rect fill="#FFFFFF" height="30.3516" style="stroke:#181818;stroke-width:1;" width="10" x="833.8398" y="743.7344"/></g><g class="message" data-participant-1="User" data-participant-2="App"><polygon fill="#181818" points="283.4004,149.5703,293.4004,153.5703,283.4004,157.5703,287.4004,153.5703" style="stroke:#181818;stroke-width:1;"/><line style="stroke:#181818;stroke-width:1;" x1="73.5757" x2="289.4004" y1="153.5703" y2="153.5703"/><text fill="#000000" font-family="sans-serif" font-size="13" lengthAdjust="spacing" textLength="114.8799" x="80.5757" y="148.7139">Access IPA settings</text></g><g class="message" data-participant-1="App" data-participant-2="Gateway"><polygon fill="#181818" points="472.7065,179.9219,482.7065,183.9219,472.7065,187.9219,476.7065,183.9219" style="stroke:#181818;stroke-width:1;"/><line style="stroke:#181818;stroke-width:1;" x1="305.4004" x2="478.7065" y1="183.9219" y2="183.9219"/><text fill="#000000" font-family="sans-serif" font-size="13" lengthAdjust="spacing" textLength="127.8989" x="312.4004" y="179.0654">GET /api/accounts/ipa</text></g><g class="message" data-participant-1="Gateway" data-participant-2="AccountService"><polygon fill="#181818" points="656.2764,210.2734,666.2764,214.2734,656.2764,218.2734,660.2764,214.2734" style="stroke:#181818;stroke-width:1;"/><line style="stroke:#181818;stroke-width:1;" x1="494.7065" x2="662.2764" y1="214.2734" y2="214.2734"/><text fill="#000000" font-family="sans-serif" font-size="13" lengthAdjust="spacing" textLength="109.1099" x="501.7065" y="209.417">Get IPA addresses</text></g><g class="message" data-participant-1="AccountService" data-participant-2="DB"><polygon fill="#181818" points="821.8398,240.625,831.8398,244.625,821.8398,248.625,825.8398,244.625" style="stroke:#181818;stroke-width:1;"/><line style="stroke:#181818;stroke-width:1;" x1="678.2764" x2="827.8398" y1="244.625" y2="244.625"/><text fill="#000000" font-family="sans-serif" font-size="13" lengthAdjust="spacing" textLength="136.5635" x="685.2764" y="239.7686">Retrieve IPA addresses</text></g><path d="M10,259.625 L70.1709,259.625 L70.1709,267.9766 L60.1709,277.9766 L10,277.9766 L10,259.625" fill="#EEEEEE" style="stroke:#000000;stroke-width:1.5;"/><rect fill="none" height="320.3516" style="stroke:#000000;stroke-width:1.5;" width="875.8052" x="10" y="259.625"/><text fill="#000000" font-family="sans-serif" font-size="13" font-weight="bold" lengthAdjust="spacing" textLength="15.1709" x="25" y="274.1201">alt</text><text fill="#000000" font-family="sans-serif" font-size="11" font-weight="bold" lengthAdjust="spacing" textLength="83.0962" x="85.1709" y="273.0439">[No IPAs found]</text><g class="message" data-participant-1="DB" data-participant-2="AccountService"><polygon fill="#181818" points="689.2764,296.3281,679.2764,300.3281,689.2764,304.3281,685.2764,300.3281" style="stroke:#181818;stroke-width:1;"/><line style="stroke:#181818;stroke-width:1;stroke-dasharray:2.0,2.0;" x1="683.2764" x2="832.8398" y1="300.3281" y2="300.3281"/><text fill="#000000" font-family="sans-serif" font-size="13" lengthAdjust="spacing" textLength="72.2427" x="695.2764" y="295.4717">Empty result</text></g><g class="message" data-participant-1="AccountService" data-participant-2="Gateway"><polygon fill="#181818" points="505.7065,326.6797,495.7065,330.6797,505.7065,334.6797,501.7065,330.6797" style="stroke:#181818;stroke-width:1;"/><line style="stroke:#181818;stroke-width:1;stroke-dasharray:2.0,2.0;" x1="499.7065" x2="667.2764" y1="330.6797" y2="330.6797"/><text fill="#000000" font-family="sans-serif" font-size="13" lengthAdjust="spacing" textLength="80.9072" x="511.7065" y="325.8232">Empty IPA list</text></g><g class="message" data-participant-1="Gateway" data-participant-2="App"><polygon fill="#181818" points="316.4004,357.0313,306.4004,361.0313,316.4004,365.0313,312.4004,361.0313" style="stroke:#181818;stroke-width:1;"/><line style="stroke:#181818;stroke-width:1;stroke-dasharray:2.0,2.0;" x1="310.4004" x2="483.7065" y1="361.0313" y2="361.0313"/><text fill="#000000" font-family="sans-serif" font-size="13" lengthAdjust="spacing" textLength="129.3271" x="322.4004" y="356.1748">200 OK with empty list</text></g><g class="message" data-participant-1="App" data-participant-2="User"><polygon fill="#181818" points="84.5757,387.3828,74.5757,391.3828,84.5757,395.3828,80.5757,391.3828" style="stroke:#181818;stroke-width:1;"/><line style="stroke:#181818;stroke-width:1;stroke-dasharray:2.0,2.0;" x1="78.5757" x2="294.4004" y1="391.3828" y2="391.3828"/><text fill="#000000" font-family="sans-serif" font-size="13" lengthAdjust="spacing" textLength="140.2007" x="90.5757" y="386.5264">Suggest creating an IPA</text></g><line style="stroke:#000000;stroke-width:1;stroke-dasharray:2.0,2.0;" x1="10" x2="885.8052" y1="400.3828" y2="400.3828"/><text fill="#000000" font-family="sans-serif" font-size="11" font-weight="bold" lengthAdjust="spacing" textLength="59.9092" x="15" y="411.8018">[IPAs exist]</text><g class="message" data-participant-1="DB" data-participant-2="AccountService"><polygon fill="#181818" points="689.2764,433.5703,679.2764,437.5703,689.2764,441.5703,685.2764,437.5703" style="stroke:#181818;stroke-width:1;"/><line style="stroke:#181818;stroke-width:1;stroke-dasharray:2.0,2.0;" x1="683.2764" x2="837.8398" y1="437.5703" y2="437.5703"/><text fill="#000000" font-family="sans-serif" font-size="13" lengthAdjust="spacing" textLength="67.9136" x="695.2764" y="432.7139">IPA records</text></g><g class="message" data-participant-1="AccountService" data-participant-2="AccountService"><line style="stroke:#181818;stroke-width:1;" x1="678.2764" x2="720.2764" y1="467.9219" y2="467.9219"/><line style="stroke:#181818;stroke-width:1;" x1="720.2764" x2="720.2764" y1="467.9219" y2="480.9219"/><line style="stroke:#181818;stroke-width:1;" x1="679.2764" x2="720.2764" y1="480.9219" y2="480.9219"/><polygon fill="#181818" points="689.2764,476.9219,679.2764,480.9219,689.2764,484.9219,685.2764,480.9219" style="stroke:#181818;stroke-width:1;"/><text fill="#000000" font-family="sans-serif" font-size="13" lengthAdjust="spacing" textLength="120.6753" x="685.2764" y="463.0654">Add status indicators</text></g><g class="message" data-participant-1="AccountService" data-participant-2="Gateway"><polygon fill="#181818" points="505.7065,507.2734,495.7065,511.2734,505.7065,515.2734,501.7065,511.2734" style="stroke:#181818;stroke-width:1;"/><line style="stroke:#181818;stroke-width:1;stroke-dasharray:2.0,2.0;" x1="499.7065" x2="672.2764" y1="511.2734" y2="511.2734"/><text fill="#000000" font-family="sans-serif" font-size="13" lengthAdjust="spacing" textLength="149.5698" x="511.7065" y="506.417">IPA addresses with status</text></g><g class="message" data-participant-1="Gateway" data-participant-2="App"><polygon fill="#181818" points="316.4004,537.625,306.4004,541.625,316.4004,545.625,312.4004,541.625" style="stroke:#181818;stroke-width:1;"/><line style="stroke:#181818;stroke-width:1;stroke-dasharray:2.0,2.0;" x1="310.4004" x2="488.7065" y1="541.625" y2="541.625"/><text fill="#000000" font-family="sans-serif" font-size="13" lengthAdjust="spacing" textLength="114.8799" x="322.4004" y="536.7686">200 OK with IPA list</text></g><g class="message" data-participant-1="App" data-participant-2="User"><polygon fill="#181818" points="84.5757,567.9766,74.5757,571.9766,84.5757,575.9766,80.5757,571.9766" style="stroke:#181818;stroke-width:1;"/><line style="stroke:#181818;stroke-width:1;stroke-dasharray:2.0,2.0;" x1="78.5757" x2="294.4004" y1="571.9766" y2="571.9766"/><text fill="#000000" font-family="sans-serif" font-size="13" lengthAdjust="spacing" textLength="195.8062" x="90.5757" y="567.1201">Display IPA addresses with status</text></g><g class="message" data-participant-1="User" data-participant-2="App"><polygon fill="#181818" points="288.4004,605.3281,298.4004,609.3281,288.4004,613.3281,292.4004,609.3281" style="stroke:#181818;stroke-width:1;"/><line style="stroke:#181818;stroke-width:1;" x1="73.5757" x2="294.4004" y1="609.3281" y2="609.3281"/><text fill="#000000" font-family="sans-serif" font-size="13" lengthAdjust="spacing" textLength="197.8247" x="80.5757" y="604.4717">Select "Create new IPA" (optional)</text></g><g class="message" data-participant-1="App" data-participant-2="Gateway"><polygon fill="#181818" points="472.7065,635.6797,482.7065,639.6797,472.7065,643.6797,476.7065,639.6797" style="stroke:#181818;stroke-width:1;"/><line style="stroke:#181818;stroke-width:1;" x1="310.4004" x2="478.7065" y1="639.6797" y2="639.6797"/><text fill="#000000" font-family="sans-serif" font-size="13" lengthAdjust="spacing" textLength="136.5698" x="317.4004" y="634.8232">POST /api/accounts/ipa</text></g><g class="message" data-participant-1="Gateway" data-participant-2="AccountService"><polygon fill="#181818" points="656.2764,666.0313,666.2764,670.0313,656.2764,674.0313,660.2764,670.0313" style="stroke:#181818;stroke-width:1;"/><line style="stroke:#181818;stroke-width:1;" x1="494.7065" x2="662.2764" y1="670.0313" y2="670.0313"/><text fill="#000000" font-family="sans-serif" font-size="13" lengthAdjust="spacing" textLength="91.0444" x="501.7065" y="665.1748">Create new IPA</text></g><g class="message" data-participant-1="AccountService" data-participant-2="AccountService"><line style="stroke:#181818;stroke-width:1;" x1="678.2764" x2="720.2764" y1="700.3828" y2="700.3828"/><line style="stroke:#181818;stroke-width:1;" x1="720.2764" x2="720.2764" y1="700.3828" y2="713.3828"/><line style="stroke:#181818;stroke-width:1;" x1="679.2764" x2="720.2764" y1="713.3828" y2="713.3828"/><polygon fill="#181818" points="689.2764,709.3828,679.2764,713.3828,689.2764,717.3828,685.2764,713.3828" style="stroke:#181818;stroke-width:1;"/><text fill="#000000" font-family="sans-serif" font-size="13" lengthAdjust="spacing" textLength="78.7681" x="685.2764" y="695.5264">Generate IPA</text></g><g class="message" data-participant-1="AccountService" data-participant-2="DB"><polygon fill="#181818" points="821.8398,739.7344,831.8398,743.7344,821.8398,747.7344,825.8398,743.7344" style="stroke:#181818;stroke-width:1;"/><line style="stroke:#181818;stroke-width:1;" x1="678.2764" x2="827.8398" y1="743.7344" y2="743.7344"/><text fill="#000000" font-family="sans-serif" font-size="13" lengthAdjust="spacing" textLength="83.0972" x="685.2764" y="738.8779">Store new IPA</text></g><g class="message" data-participant-1="DB" data-participant-2="AccountService"><polygon fill="#181818" points="689.2764,770.0859,679.2764,774.0859,689.2764,778.0859,685.2764,774.0859" style="stroke:#181818;stroke-width:1;"/><line style="stroke:#181818;stroke-width:1;stroke-dasharray:2.0,2.0;" x1="683.2764" x2="837.8398" y1="774.0859" y2="774.0859"/><text fill="#000000" font-family="sans-serif" font-size="13" lengthAdjust="spacing" textLength="49.1309" x="695.2764" y="769.2295">Success</text></g><g class="message" data-participant-1="AccountService" data-participant-2="Gateway"><polygon fill="#181818" points="505.7065,800.4375,495.7065,804.4375,505.7065,808.4375,501.7065,804.4375" style="stroke:#181818;stroke-width:1;"/><line style="stroke:#181818;stroke-width:1;stroke-dasharray:2.0,2.0;" x1="499.7065" x2="672.2764" y1="804.4375" y2="804.4375"/><text fill="#000000" font-family="sans-serif" font-size="13" lengthAdjust="spacing" textLength="97.5444" x="511.7065" y="799.5811">New IPA created</text></g><g class="message" data-participant-1="Gateway" data-participant-2="App"><polygon fill="#181818" points="321.4004,830.7891,311.4004,834.7891,321.4004,838.7891,317.4004,834.7891" style="stroke:#181818;stroke-width:1;"/><line style="stroke:#181818;stroke-width:1;stroke-dasharray:2.0,2.0;" x1="315.4004" x2="488.7065" y1="834.7891" y2="834.7891"/><text fill="#000000" font-family="sans-serif" font-size="13" lengthAdjust="spacing" textLength="150.3062" x="327.4004" y="829.9326">201 Created with new IPA</text></g><g class="message" data-participant-1="App" data-participant-2="User"><polygon fill="#181818" points="84.5757,861.1406,74.5757,865.1406,84.5757,869.1406,80.5757,865.1406" style="stroke:#181818;stroke-width:1;"/><line style="stroke:#181818;stroke-width:1;stroke-dasharray:2.0,2.0;" x1="78.5757" x2="294.4004" y1="865.1406" y2="865.1406"/><text fill="#000000" font-family="sans-serif" font-size="13" lengthAdjust="spacing" textLength="137.2935" x="90.5757" y="860.2842">Display updated IPA list</text></g><!--SRC=[fLJ1Rjim3BthAuYSjaEGjaSV1YHrMnG3sg1U1-p8MLmgmBCDYKwMlnybsKwKEYc6vT2emjFZu-DZiEJ6mko5DiOnMTBmwiZE05qug1OjczAqM3FCxh5opHhti6pR097l5B5SFy83Ckrm7m3z-GHKbaqdXuBirfGKcU9TVvNYSsJyYIu2yvLIRBWYUBsTtrndyDtG3duqdON7zHAMMbjoZfnINZ_CltYHcUUNwm1nn6pgZLDOijcAmD26aZyUtIlEuE7k6oomDGkCqjn2v1pU39sf_X0g9Kq81N6eYAEeGycqNvN-xydoLGOlnDRGbiwnU3EmOdXgFCB1B-7G2kIJhs0-eUZkTyjx49gkue0xhNliG0JxqfM48y37PWTVRwwkuFahx0o_0GNyY0s62ixF8OEYssp8CPIMqDiFM7jgHPMZA9x-32_FYFTAB9MDrIx0D1qRuMycMtfF9241nyYT0rDhKwBiWFlGZcG6iUD8SYhcPBQZi8lc9JOVaGqvExINs9eRrrQulo2E917fBXHKKIbxTUj7GL3B_iZp6NngMZPDZTNd3rPZ_LpyzswanVzbCTvlMKtMF_KyqtjKo80dQabgpaIjwCBlXKeZfYx5uoconu2JLkS3eIQ2SDqRekFi1gaJGL3J0UXQ7PwFEJgkBqFy2m00]--></g></svg>