<svg xmlns="http://www.w3.org/2000/svg" xmlns:xlink="http://www.w3.org/1999/xlink" contentStyleType="text/css" data-diagram-type="SEQUENCE" height="2241px" preserveAspectRatio="none" style="width:1083px;height:2241px;background:#FFFFFF;" version="1.1" viewBox="0 0 1083 2241" width="1083px" zoomAndPan="magnify"><title>UC-26: Send Money via QR Code</title><defs/><g><rect fill="#FFFFCC" height="28.0566" rx="2.5" ry="2.5" style="stroke:#FFDD88;stroke-width:3;" width="1072.9653" x="5" y="5"/><text fill="#000000" font-family="monospace" font-size="10" lengthAdjust="spacing" textLength="354.0576" x="10" y="20">Please&#160;use&#160;'!option&#160;handwritten&#160;true'&#160;to&#160;enable&#160;handwritten</text><text fill="#000000" font-family="sans-serif" font-size="14" font-weight="bold" lengthAdjust="spacing" textLength="218.5928" x="421.1863" y="67.5898">UC-26: Send Money via QR Code</text><g><title>User</title><rect fill="#000000" fill-opacity="0.00000" height="2000.0391" width="8" x="18.7793" y="159.2754"/><line style="stroke:#181818;stroke-width:0.5;stroke-dasharray:5.0,5.0;" x1="22" x2="22" y1="159.2754" y2="2159.3145"/></g><g><title>FalsoPay App</title><rect fill="#000000" fill-opacity="0.00000" height="2000.0391" width="8" x="241.5117" y="159.2754"/><line style="stroke:#181818;stroke-width:0.5;stroke-dasharray:5.0,5.0;" x1="244.9326" x2="244.9326" y1="159.2754" y2="2159.3145"/></g><g><title>API Gateway</title><rect fill="#000000" fill-opacity="0.00000" height="2000.0391" width="8" x="436.0479" y="159.2754"/><line style="stroke:#181818;stroke-width:0.5;stroke-dasharray:5.0,5.0;" x1="439.1963" x2="439.1963" y1="159.2754" y2="2159.3145"/></g><g><title>Payment</title><rect fill="#000000" fill-opacity="0.00000" height="2000.0391" width="8" x="572.7505" y="159.2754"/><line style="stroke:#181818;stroke-width:0.5;stroke-dasharray:5.0,5.0;" x1="576.1265" x2="576.1265" y1="159.2754" y2="2159.3145"/></g><g><title>QR Code</title><rect fill="#000000" fill-opacity="0.00000" height="2000.0391" width="8" x="712.4912" y="159.2754"/><line style="stroke:#181818;stroke-width:0.5;stroke-dasharray:5.0,5.0;" x1="716.312" x2="716.312" y1="159.2754" y2="2159.3145"/></g><g><title>Transaction</title><rect fill="#000000" fill-opacity="0.00000" height="2000.0391" width="8" x="888.3374" y="159.2754"/><line style="stroke:#181818;stroke-width:0.5;stroke-dasharray:5.0,5.0;" x1="891.7651" x2="891.7651" y1="159.2754" y2="2159.3145"/></g><g><title>Database</title><rect fill="#000000" fill-opacity="0.00000" height="2000.0391" width="8" x="1020" y="159.2754"/><line style="stroke:#181818;stroke-width:0.5;stroke-dasharray:5.0,5.0;" x1="1023.0347" x2="1023.0347" y1="159.2754" y2="2159.3145"/></g><g class="participant participant-head" data-participant="user"><text fill="#000000" font-family="sans-serif" font-size="14" lengthAdjust="spacing" textLength="29.5586" x="5" y="156.1992">User</text><ellipse cx="22.7793" cy="90.166" fill="#E2E2F0" rx="8" ry="8" style="stroke:#181818;stroke-width:0.5;"/><path d="M22.7793,98.166 L22.7793,125.166 M9.7793,106.166 L35.7793,106.166 M22.7793,125.166 L9.7793,140.166 M22.7793,125.166 L35.7793,140.166" fill="none" style="stroke:#181818;stroke-width:0.5;"/></g><g class="participant participant-tail" data-participant="user"><text fill="#000000" font-family="sans-serif" font-size="14" lengthAdjust="spacing" textLength="29.5586" x="5" y="2172.8477">User</text><ellipse cx="22.7793" cy="2184.4238" fill="#E2E2F0" rx="8" ry="8" style="stroke:#181818;stroke-width:0.5;"/><path d="M22.7793,2192.4238 L22.7793,2219.4238 M9.7793,2200.4238 L35.7793,2200.4238 M22.7793,2219.4238 L9.7793,2234.4238 M22.7793,2219.4238 L35.7793,2234.4238" fill="none" style="stroke:#181818;stroke-width:0.5;"/></g><g class="participant participant-head" data-participant="app"><rect fill="#E2E2F0" height="31.6094" rx="2.5" ry="2.5" style="stroke:#181818;stroke-width:0.5;" width="101.1582" x="194.9326" y="126.666"/><text fill="#000000" font-family="sans-serif" font-size="14" lengthAdjust="spacing" textLength="87.1582" x="201.9326" y="148.1992">FalsoPay App</text></g><g class="participant participant-tail" data-participant="app"><rect fill="#E2E2F0" height="31.6094" rx="2.5" ry="2.5" style="stroke:#181818;stroke-width:0.5;" width="101.1582" x="194.9326" y="2158.3145"/><text fill="#000000" font-family="sans-serif" font-size="14" lengthAdjust="spacing" textLength="87.1582" x="201.9326" y="2179.8477">FalsoPay App</text></g><g class="participant participant-head" data-participant="gateway"><rect fill="#E2E2F0" height="31.6094" rx="2.5" ry="2.5" style="stroke:#181818;stroke-width:0.5;" width="95.7031" x="392.1963" y="126.666"/><text fill="#000000" font-family="sans-serif" font-size="14" lengthAdjust="spacing" textLength="81.7031" x="399.1963" y="148.1992">API Gateway</text></g><g class="participant participant-tail" data-participant="gateway"><rect fill="#E2E2F0" height="31.6094" rx="2.5" ry="2.5" style="stroke:#181818;stroke-width:0.5;" width="95.7031" x="392.1963" y="2158.3145"/><text fill="#000000" font-family="sans-serif" font-size="14" lengthAdjust="spacing" textLength="81.7031" x="399.1963" y="2179.8477">API Gateway</text></g><g class="participant participant-head" data-participant="paymentService"><rect fill="#E2E2F0" height="49.2188" rx="2.5" ry="2.5" style="stroke:#181818;stroke-width:0.5;" width="69.248" x="542.1265" y="109.0566"/><text fill="#000000" font-family="sans-serif" font-size="14" lengthAdjust="spacing" textLength="55.248" x="549.1265" y="130.5898">Payment</text><text fill="#000000" font-family="sans-serif" font-size="14" lengthAdjust="spacing" textLength="46.6826" x="553.4092" y="148.1992">Service</text></g><g class="participant participant-tail" data-participant="paymentService"><rect fill="#E2E2F0" height="49.2188" rx="2.5" ry="2.5" style="stroke:#181818;stroke-width:0.5;" width="69.248" x="542.1265" y="2158.3145"/><text fill="#000000" font-family="sans-serif" font-size="14" lengthAdjust="spacing" textLength="55.248" x="549.1265" y="2179.8477">Payment</text><text fill="#000000" font-family="sans-serif" font-size="14" lengthAdjust="spacing" textLength="46.6826" x="553.4092" y="2197.457">Service</text></g><g class="participant participant-head" data-participant="qrService"><rect fill="#E2E2F0" height="49.2188" rx="2.5" ry="2.5" style="stroke:#181818;stroke-width:0.5;" width="72.3584" x="680.312" y="109.0566"/><text fill="#000000" font-family="sans-serif" font-size="14" lengthAdjust="spacing" textLength="58.3584" x="687.312" y="130.5898">QR Code</text><text fill="#000000" font-family="sans-serif" font-size="14" lengthAdjust="spacing" textLength="46.6826" x="693.1499" y="148.1992">Service</text></g><g class="participant participant-tail" data-participant="qrService"><rect fill="#E2E2F0" height="49.2188" rx="2.5" ry="2.5" style="stroke:#181818;stroke-width:0.5;" width="72.3584" x="680.312" y="2158.3145"/><text fill="#000000" font-family="sans-serif" font-size="14" lengthAdjust="spacing" textLength="58.3584" x="687.312" y="2179.8477">QR Code</text><text fill="#000000" font-family="sans-serif" font-size="14" lengthAdjust="spacing" textLength="46.6826" x="693.1499" y="2197.457">Service</text></g><g class="participant participant-head" data-participant="txnService"><rect fill="#E2E2F0" height="49.2188" rx="2.5" ry="2.5" style="stroke:#181818;stroke-width:0.5;" width="87.1445" x="848.7651" y="109.0566"/><text fill="#000000" font-family="sans-serif" font-size="14" lengthAdjust="spacing" textLength="73.1445" x="855.7651" y="130.5898">Transaction</text><text fill="#000000" font-family="sans-serif" font-size="14" lengthAdjust="spacing" textLength="46.6826" x="868.9961" y="148.1992">Service</text></g><g class="participant participant-tail" data-participant="txnService"><rect fill="#E2E2F0" height="49.2188" rx="2.5" ry="2.5" style="stroke:#181818;stroke-width:0.5;" width="87.1445" x="848.7651" y="2158.3145"/><text fill="#000000" font-family="sans-serif" font-size="14" lengthAdjust="spacing" textLength="73.1445" x="855.7651" y="2179.8477">Transaction</text><text fill="#000000" font-family="sans-serif" font-size="14" lengthAdjust="spacing" textLength="46.6826" x="868.9961" y="2197.457">Service</text></g><g class="participant participant-head" data-participant="db"><text fill="#000000" font-family="sans-serif" font-size="14" lengthAdjust="spacing" textLength="59.9307" x="991.0347" y="156.1992">Database</text><path d="M1006,105.666 C1006,95.666 1024,95.666 1024,95.666 C1024,95.666 1042,95.666 1042,105.666 L1042,131.666 C1042,141.666 1024,141.666 1024,141.666 C1024,141.666 1006,141.666 1006,131.666 L1006,105.666" fill="#E2E2F0" style="stroke:#181818;stroke-width:1.5;"/><path d="M1006,105.666 C1006,115.666 1024,115.666 1024,115.666 C1024,115.666 1042,115.666 1042,105.666" fill="none" style="stroke:#181818;stroke-width:1.5;"/></g><g class="participant participant-tail" data-participant="db"><text fill="#000000" font-family="sans-serif" font-size="14" lengthAdjust="spacing" textLength="59.9307" x="991.0347" y="2172.8477">Database</text><path d="M1006,2185.9238 C1006,2175.9238 1024,2175.9238 1024,2175.9238 C1024,2175.9238 1042,2175.9238 1042,2185.9238 L1042,2211.9238 C1042,2221.9238 1024,2221.9238 1024,2221.9238 C1024,2221.9238 1006,2221.9238 1006,2211.9238 L1006,2185.9238" fill="#E2E2F0" style="stroke:#181818;stroke-width:1.5;"/><path d="M1006,2185.9238 C1006,2195.9238 1024,2195.9238 1024,2195.9238 C1024,2195.9238 1042,2195.9238 1042,2185.9238" fill="none" style="stroke:#181818;stroke-width:1.5;"/></g><rect fill="#EEEEEE" height="3" style="stroke:#EEEEEE;stroke-width:1;" width="1061.9653" x="0" y="190.4512"/><line style="stroke:#000000;stroke-width:1;" x1="0" x2="1061.9653" y1="190.4512" y2="190.4512"/><line style="stroke:#000000;stroke-width:1;" x1="0" x2="1061.9653" y1="193.4512" y2="193.4512"/><rect fill="#EEEEEE" height="24.3516" style="stroke:#000000;stroke-width:2;" width="162.1226" x="449.9214" y="179.2754"/><text fill="#000000" font-family="sans-serif" font-size="13" font-weight="bold" lengthAdjust="spacing" textLength="144.5107" x="455.9214" y="196.7705">Main Success Scenario</text><g class="message" data-participant-1="user" data-participant-2="app"><polygon fill="#181818" points="233.5117,231.9785,243.5117,235.9785,233.5117,239.9785,237.5117,235.9785" style="stroke:#181818;stroke-width:1;"/><line style="stroke:#181818;stroke-width:1;" x1="22.7793" x2="239.5117" y1="235.9785" y2="235.9785"/><text fill="#000000" font-family="sans-serif" font-size="13" lengthAdjust="spacing" textLength="150.3062" x="58.9924" y="231.1221">Select send via QR option</text></g><g class="message" data-participant-1="app" data-participant-2="app"><line style="stroke:#181818;stroke-width:1;" x1="245.5117" x2="287.5117" y1="266.3301" y2="266.3301"/><line style="stroke:#181818;stroke-width:1;" x1="287.5117" x2="287.5117" y1="266.3301" y2="279.3301"/><line style="stroke:#181818;stroke-width:1;" x1="246.5117" x2="287.5117" y1="279.3301" y2="279.3301"/><polygon fill="#181818" points="256.5117,275.3301,246.5117,279.3301,256.5117,283.3301,252.5117,279.3301" style="stroke:#181818;stroke-width:1;"/><text fill="#000000" font-family="sans-serif" font-size="13" lengthAdjust="spacing" textLength="134.3926" x="252.5117" y="261.4736">Activate device camera</text></g><g class="message" data-participant-1="user" data-participant-2="app"><polygon fill="#181818" points="233.5117,305.6816,243.5117,309.6816,233.5117,313.6816,237.5117,309.6816" style="stroke:#181818;stroke-width:1;"/><line style="stroke:#181818;stroke-width:1;" x1="22.7793" x2="239.5117" y1="309.6816" y2="309.6816"/><text fill="#000000" font-family="sans-serif" font-size="13" lengthAdjust="spacing" textLength="84.5444" x="91.8733" y="304.8252">Scan QR code</text></g><g class="message" data-participant-1="app" data-participant-2="app"><line style="stroke:#181818;stroke-width:1;" x1="245.5117" x2="287.5117" y1="340.0332" y2="340.0332"/><line style="stroke:#181818;stroke-width:1;" x1="287.5117" x2="287.5117" y1="340.0332" y2="353.0332"/><line style="stroke:#181818;stroke-width:1;" x1="246.5117" x2="287.5117" y1="353.0332" y2="353.0332"/><polygon fill="#181818" points="256.5117,349.0332,246.5117,353.0332,256.5117,357.0332,252.5117,353.0332" style="stroke:#181818;stroke-width:1;"/><text fill="#000000" font-family="sans-serif" font-size="13" lengthAdjust="spacing" textLength="108.3799" x="252.5117" y="335.1768">Capture QR image</text></g><g class="message" data-participant-1="app" data-participant-2="gateway"><polygon fill="#181818" points="428.0479,379.3848,438.0479,383.3848,428.0479,387.3848,432.0479,383.3848" style="stroke:#181818;stroke-width:1;"/><line style="stroke:#181818;stroke-width:1;" x1="245.5117" x2="434.0479" y1="383.3848" y2="383.3848"/><text fill="#000000" font-family="sans-serif" font-size="13" lengthAdjust="spacing" textLength="170.5361" x="257.5117" y="378.5283">Send QR code for processing</text></g><g class="message" data-participant-1="gateway" data-participant-2="qrService"><polygon fill="#181818" points="704.4912,409.7363,714.4912,413.7363,704.4912,417.7363,708.4912,413.7363" style="stroke:#181818;stroke-width:1;"/><line style="stroke:#181818;stroke-width:1;" x1="440.0479" x2="710.4912" y1="413.7363" y2="413.7363"/><text fill="#000000" font-family="sans-serif" font-size="13" lengthAdjust="spacing" textLength="101.8735" x="527.3328" y="408.8799">Process QR code</text></g><g class="message" data-participant-1="qrService" data-participant-2="qrService"><line style="stroke:#181818;stroke-width:1;" x1="716.4912" x2="758.4912" y1="444.0879" y2="444.0879"/><line style="stroke:#181818;stroke-width:1;" x1="758.4912" x2="758.4912" y1="444.0879" y2="457.0879"/><line style="stroke:#181818;stroke-width:1;" x1="717.4912" x2="758.4912" y1="457.0879" y2="457.0879"/><polygon fill="#181818" points="727.4912,453.0879,717.4912,457.0879,727.4912,461.0879,723.4912,457.0879" style="stroke:#181818;stroke-width:1;"/><text fill="#000000" font-family="sans-serif" font-size="13" lengthAdjust="spacing" textLength="96.8335" x="723.4912" y="439.2314">Decode QR data</text></g><g class="message" data-participant-1="qrService" data-participant-2="qrService"><line style="stroke:#181818;stroke-width:1;" x1="716.4912" x2="758.4912" y1="487.4395" y2="487.4395"/><line style="stroke:#181818;stroke-width:1;" x1="758.4912" x2="758.4912" y1="487.4395" y2="500.4395"/><line style="stroke:#181818;stroke-width:1;" x1="717.4912" x2="758.4912" y1="500.4395" y2="500.4395"/><polygon fill="#181818" points="727.4912,496.4395,717.4912,500.4395,727.4912,504.4395,723.4912,500.4395" style="stroke:#181818;stroke-width:1;"/><text fill="#000000" font-family="sans-serif" font-size="13" lengthAdjust="spacing" textLength="110.5444" x="723.4912" y="482.583">Validate QR format</text></g><g class="message" data-participant-1="qrService" data-participant-2="qrService"><line style="stroke:#181818;stroke-width:1;" x1="716.4912" x2="758.4912" y1="530.791" y2="530.791"/><line style="stroke:#181818;stroke-width:1;" x1="758.4912" x2="758.4912" y1="530.791" y2="543.791"/><line style="stroke:#181818;stroke-width:1;" x1="717.4912" x2="758.4912" y1="543.791" y2="543.791"/><polygon fill="#181818" points="727.4912,539.791,717.4912,543.791,727.4912,547.791,723.4912,543.791" style="stroke:#181818;stroke-width:1;"/><text fill="#000000" font-family="sans-serif" font-size="13" lengthAdjust="spacing" textLength="161.8462" x="723.4912" y="525.9346">Extract payment information</text></g><g class="message" data-participant-1="qrService" data-participant-2="gateway"><polygon fill="#181818" points="451.0479,570.1426,441.0479,574.1426,451.0479,578.1426,447.0479,574.1426" style="stroke:#181818;stroke-width:1;"/><line style="stroke:#181818;stroke-width:1;" x1="445.0479" x2="715.4912" y1="574.1426" y2="574.1426"/><text fill="#000000" font-family="sans-serif" font-size="13" lengthAdjust="spacing" textLength="159.688" x="498.4255" y="569.2861">Return recipient information</text></g><g class="message" data-participant-1="gateway" data-participant-2="app"><polygon fill="#181818" points="256.5117,600.4941,246.5117,604.4941,256.5117,608.4941,252.5117,604.4941" style="stroke:#181818;stroke-width:1;"/><line style="stroke:#181818;stroke-width:1;" x1="250.5117" x2="439.0479" y1="604.4941" y2="604.4941"/><text fill="#000000" font-family="sans-serif" font-size="13" lengthAdjust="spacing" textLength="132.958" x="276.3008" y="599.6377">Return recipient details</text></g><g class="message" data-participant-1="app" data-participant-2="user"><polygon fill="#181818" points="33.7793,630.8457,23.7793,634.8457,33.7793,638.8457,29.7793,634.8457" style="stroke:#181818;stroke-width:1;"/><line style="stroke:#181818;stroke-width:1;" x1="27.7793" x2="244.5117" y1="634.8457" y2="634.8457"/><text fill="#000000" font-family="sans-serif" font-size="13" lengthAdjust="spacing" textLength="198.7324" x="34.7793" y="629.9893">Show recipient and amount details</text></g><g class="message" data-participant-1="user" data-participant-2="app"><polygon fill="#181818" points="233.5117,661.1973,243.5117,665.1973,233.5117,669.1973,237.5117,665.1973" style="stroke:#181818;stroke-width:1;"/><line style="stroke:#181818;stroke-width:1;" x1="22.7793" x2="239.5117" y1="665.1973" y2="665.1973"/><text fill="#000000" font-family="sans-serif" font-size="13" lengthAdjust="spacing" textLength="112.709" x="77.791" y="660.3408">Confirm transaction</text></g><g class="message" data-participant-1="app" data-participant-2="app"><line style="stroke:#181818;stroke-width:1;" x1="245.5117" x2="287.5117" y1="695.5488" y2="695.5488"/><line style="stroke:#181818;stroke-width:1;" x1="287.5117" x2="287.5117" y1="695.5488" y2="708.5488"/><line style="stroke:#181818;stroke-width:1;" x1="246.5117" x2="287.5117" y1="708.5488" y2="708.5488"/><polygon fill="#181818" points="256.5117,704.5488,246.5117,708.5488,256.5117,712.5488,252.5117,708.5488" style="stroke:#181818;stroke-width:1;"/><text fill="#000000" font-family="sans-serif" font-size="13" lengthAdjust="spacing" textLength="73.7026" x="252.5117" y="690.6924">Request PIN</text></g><g class="message" data-participant-1="user" data-participant-2="app"><polygon fill="#181818" points="233.5117,734.9004,243.5117,738.9004,233.5117,742.9004,237.5117,738.9004" style="stroke:#181818;stroke-width:1;"/><line style="stroke:#181818;stroke-width:1;" x1="22.7793" x2="239.5117" y1="738.9004" y2="738.9004"/><text fill="#000000" font-family="sans-serif" font-size="13" lengthAdjust="spacing" textLength="56.3545" x="105.9683" y="734.0439">Enter PIN</text></g><g class="message" data-participant-1="app" data-participant-2="gateway"><polygon fill="#181818" points="428.0479,765.252,438.0479,769.252,428.0479,773.252,432.0479,769.252" style="stroke:#181818;stroke-width:1;"/><line style="stroke:#181818;stroke-width:1;" x1="245.5117" x2="434.0479" y1="769.252" y2="769.252"/><text fill="#000000" font-family="sans-serif" font-size="13" lengthAdjust="spacing" textLength="72.2617" x="306.6489" y="764.3955">Validate PIN</text></g><g class="message" data-participant-1="gateway" data-participant-2="paymentService"><polygon fill="#181818" points="564.7505,795.6035,574.7505,799.6035,564.7505,803.6035,568.7505,799.6035" style="stroke:#181818;stroke-width:1;"/><line style="stroke:#181818;stroke-width:1;" x1="440.0479" x2="570.7505" y1="799.6035" y2="799.6035"/><text fill="#000000" font-family="sans-serif" font-size="13" lengthAdjust="spacing" textLength="58.5127" x="479.1428" y="794.7471">Verify PIN</text></g><g class="message" data-participant-1="paymentService" data-participant-2="db"><polygon fill="#181818" points="1012,825.9551,1022,829.9551,1012,833.9551,1016,829.9551" style="stroke:#181818;stroke-width:1;"/><line style="stroke:#181818;stroke-width:1;" x1="576.7505" x2="1018" y1="829.9551" y2="829.9551"/><text fill="#000000" font-family="sans-serif" font-size="13" lengthAdjust="spacing" textLength="62.1309" x="769.3098" y="825.0986">Check PIN</text></g><g class="message" data-participant-1="db" data-participant-2="paymentService"><polygon fill="#181818" points="587.7505,856.3066,577.7505,860.3066,587.7505,864.3066,583.7505,860.3066" style="stroke:#181818;stroke-width:1;"/><line style="stroke:#181818;stroke-width:1;stroke-dasharray:2.0,2.0;" x1="581.7505" x2="1023" y1="860.3066" y2="860.3066"/><text fill="#000000" font-family="sans-serif" font-size="13" lengthAdjust="spacing" textLength="52.019" x="774.3657" y="855.4502">PIN valid</text></g><g class="message" data-participant-1="paymentService" data-participant-2="gateway"><polygon fill="#181818" points="451.0479,886.6582,441.0479,890.6582,451.0479,894.6582,447.0479,890.6582" style="stroke:#181818;stroke-width:1;"/><line style="stroke:#181818;stroke-width:1;stroke-dasharray:2.0,2.0;" x1="445.0479" x2="575.7505" y1="890.6582" y2="890.6582"/><text fill="#000000" font-family="sans-serif" font-size="13" lengthAdjust="spacing" textLength="52.019" x="482.3896" y="885.8018">PIN valid</text></g><g class="message" data-participant-1="gateway" data-participant-2="app"><polygon fill="#181818" points="256.5117,917.0098,246.5117,921.0098,256.5117,925.0098,252.5117,921.0098" style="stroke:#181818;stroke-width:1;"/><line style="stroke:#181818;stroke-width:1;stroke-dasharray:2.0,2.0;" x1="250.5117" x2="439.0479" y1="921.0098" y2="921.0098"/><text fill="#000000" font-family="sans-serif" font-size="13" lengthAdjust="spacing" textLength="52.019" x="316.7703" y="916.1533">PIN valid</text></g><g class="message" data-participant-1="app" data-participant-2="gateway"><polygon fill="#181818" points="428.0479,947.3613,438.0479,951.3613,428.0479,955.3613,432.0479,951.3613" style="stroke:#181818;stroke-width:1;"/><line style="stroke:#181818;stroke-width:1;" x1="245.5117" x2="434.0479" y1="951.3613" y2="951.3613"/><text fill="#000000" font-family="sans-serif" font-size="13" lengthAdjust="spacing" textLength="128.6162" x="278.4717" y="946.5049">Initiate money transfer</text></g><g class="message" data-participant-1="gateway" data-participant-2="paymentService"><polygon fill="#181818" points="564.7505,977.7129,574.7505,981.7129,564.7505,985.7129,568.7505,981.7129" style="stroke:#181818;stroke-width:1;"/><line style="stroke:#181818;stroke-width:1;" x1="440.0479" x2="570.7505" y1="981.7129" y2="981.7129"/><text fill="#000000" font-family="sans-serif" font-size="13" lengthAdjust="spacing" textLength="100.4326" x="458.1829" y="976.8564">Process payment</text></g><g class="message" data-participant-1="paymentService" data-participant-2="paymentService"><line style="stroke:#181818;stroke-width:1;" x1="576.7505" x2="618.7505" y1="1012.0645" y2="1012.0645"/><line style="stroke:#181818;stroke-width:1;" x1="618.7505" x2="618.7505" y1="1012.0645" y2="1025.0645"/><line style="stroke:#181818;stroke-width:1;" x1="577.7505" x2="618.7505" y1="1025.0645" y2="1025.0645"/><polygon fill="#181818" points="587.7505,1021.0645,577.7505,1025.0645,587.7505,1029.0645,583.7505,1025.0645" style="stroke:#181818;stroke-width:1;"/><text fill="#000000" font-family="sans-serif" font-size="13" lengthAdjust="spacing" textLength="125.7407" x="583.7505" y="1007.208">Verify sender balance</text></g><g class="message" data-participant-1="paymentService" data-participant-2="txnService"><polygon fill="#181818" points="880.3374,1051.416,890.3374,1055.416,880.3374,1059.416,884.3374,1055.416" style="stroke:#181818;stroke-width:1;"/><line style="stroke:#181818;stroke-width:1;" x1="576.7505" x2="886.3374" y1="1055.416" y2="1055.416"/><text fill="#000000" font-family="sans-serif" font-size="13" lengthAdjust="spacing" textLength="109.1099" x="679.989" y="1050.5596">Record transaction</text></g><g class="message" data-participant-1="txnService" data-participant-2="db"><polygon fill="#181818" points="1012,1081.7676,1022,1085.7676,1012,1089.7676,1016,1085.7676" style="stroke:#181818;stroke-width:1;"/><line style="stroke:#181818;stroke-width:1;" x1="892.3374" x2="1018" y1="1085.7676" y2="1085.7676"/><text fill="#000000" font-family="sans-serif" font-size="13" lengthAdjust="spacing" textLength="98.2744" x="909.0315" y="1080.9111">Store transaction</text></g><g class="message" data-participant-1="db" data-participant-2="txnService"><polygon fill="#181818" points="903.3374,1112.1191,893.3374,1116.1191,903.3374,1120.1191,899.3374,1116.1191" style="stroke:#181818;stroke-width:1;"/><line style="stroke:#181818;stroke-width:1;stroke-dasharray:2.0,2.0;" x1="897.3374" x2="1023" y1="1116.1191" y2="1116.1191"/><text fill="#000000" font-family="sans-serif" font-size="13" lengthAdjust="spacing" textLength="107.6626" x="904.3374" y="1111.2627">Transaction stored</text></g><g class="message" data-participant-1="txnService" data-participant-2="paymentService"><polygon fill="#181818" points="587.7505,1142.4707,577.7505,1146.4707,587.7505,1150.4707,583.7505,1146.4707" style="stroke:#181818;stroke-width:1;"/><line style="stroke:#181818;stroke-width:1;stroke-dasharray:2.0,2.0;" x1="581.7505" x2="891.3374" y1="1146.4707" y2="1146.4707"/><text fill="#000000" font-family="sans-serif" font-size="13" lengthAdjust="spacing" textLength="122.8398" x="673.124" y="1141.6143">Transaction recorded</text></g><g class="message" data-participant-1="paymentService" data-participant-2="gateway"><polygon fill="#181818" points="451.0479,1172.8223,441.0479,1176.8223,451.0479,1180.8223,447.0479,1176.8223" style="stroke:#181818;stroke-width:1;"/><line style="stroke:#181818;stroke-width:1;stroke-dasharray:2.0,2.0;" x1="445.0479" x2="575.7505" y1="1176.8223" y2="1176.8223"/><text fill="#000000" font-family="sans-serif" font-size="13" lengthAdjust="spacing" textLength="112.7026" x="452.0479" y="1171.9658">Transfer successful</text></g><g class="message" data-participant-1="gateway" data-participant-2="app"><polygon fill="#181818" points="256.5117,1203.1738,246.5117,1207.1738,256.5117,1211.1738,252.5117,1207.1738" style="stroke:#181818;stroke-width:1;"/><line style="stroke:#181818;stroke-width:1;stroke-dasharray:2.0,2.0;" x1="250.5117" x2="439.0479" y1="1207.1738" y2="1207.1738"/><text fill="#000000" font-family="sans-serif" font-size="13" lengthAdjust="spacing" textLength="112.7026" x="286.4285" y="1202.3174">Transfer successful</text></g><g class="message" data-participant-1="app" data-participant-2="user"><polygon fill="#181818" points="33.7793,1233.5254,23.7793,1237.5254,33.7793,1241.5254,29.7793,1237.5254" style="stroke:#181818;stroke-width:1;"/><line style="stroke:#181818;stroke-width:1;" x1="27.7793" x2="244.5117" y1="1237.5254" y2="1237.5254"/><text fill="#000000" font-family="sans-serif" font-size="13" lengthAdjust="spacing" textLength="167.6162" x="50.3374" y="1232.6689">Display success confirmation</text></g><rect fill="#EEEEEE" height="3" style="stroke:#EEEEEE;stroke-width:1;" width="1061.9653" x="0" y="1266.7012"/><line style="stroke:#000000;stroke-width:1;" x1="0" x2="1061.9653" y1="1266.7012" y2="1266.7012"/><line style="stroke:#000000;stroke-width:1;" x1="0" x2="1061.9653" y1="1269.7012" y2="1269.7012"/><rect fill="#EEEEEE" height="24.3516" style="stroke:#000000;stroke-width:2;" width="251.6689" x="405.1482" y="1255.5254"/><text fill="#000000" font-family="sans-serif" font-size="13" font-weight="bold" lengthAdjust="spacing" textLength="234.0571" x="411.1482" y="1273.0205">Alternative Scenario: Invalid QR Code</text><g class="message" data-participant-1="user" data-participant-2="app"><polygon fill="#181818" points="233.5117,1308.2285,243.5117,1312.2285,233.5117,1316.2285,237.5117,1312.2285" style="stroke:#181818;stroke-width:1;"/><line style="stroke:#181818;stroke-width:1;" x1="22.7793" x2="239.5117" y1="1312.2285" y2="1312.2285"/><text fill="#000000" font-family="sans-serif" font-size="13" lengthAdjust="spacing" textLength="150.3062" x="58.9924" y="1307.3721">Select send via QR option</text></g><g class="message" data-participant-1="app" data-participant-2="app"><line style="stroke:#181818;stroke-width:1;" x1="245.5117" x2="287.5117" y1="1342.5801" y2="1342.5801"/><line style="stroke:#181818;stroke-width:1;" x1="287.5117" x2="287.5117" y1="1342.5801" y2="1355.5801"/><line style="stroke:#181818;stroke-width:1;" x1="246.5117" x2="287.5117" y1="1355.5801" y2="1355.5801"/><polygon fill="#181818" points="256.5117,1351.5801,246.5117,1355.5801,256.5117,1359.5801,252.5117,1355.5801" style="stroke:#181818;stroke-width:1;"/><text fill="#000000" font-family="sans-serif" font-size="13" lengthAdjust="spacing" textLength="134.3926" x="252.5117" y="1337.7236">Activate device camera</text></g><g class="message" data-participant-1="user" data-participant-2="app"><polygon fill="#181818" points="233.5117,1381.9316,243.5117,1385.9316,233.5117,1389.9316,237.5117,1385.9316" style="stroke:#181818;stroke-width:1;"/><line style="stroke:#181818;stroke-width:1;" x1="22.7793" x2="239.5117" y1="1385.9316" y2="1385.9316"/><text fill="#000000" font-family="sans-serif" font-size="13" lengthAdjust="spacing" textLength="84.5444" x="91.8733" y="1381.0752">Scan QR code</text></g><g class="message" data-participant-1="app" data-participant-2="app"><line style="stroke:#181818;stroke-width:1;" x1="245.5117" x2="287.5117" y1="1416.2832" y2="1416.2832"/><line style="stroke:#181818;stroke-width:1;" x1="287.5117" x2="287.5117" y1="1416.2832" y2="1429.2832"/><line style="stroke:#181818;stroke-width:1;" x1="246.5117" x2="287.5117" y1="1429.2832" y2="1429.2832"/><polygon fill="#181818" points="256.5117,1425.2832,246.5117,1429.2832,256.5117,1433.2832,252.5117,1429.2832" style="stroke:#181818;stroke-width:1;"/><text fill="#000000" font-family="sans-serif" font-size="13" lengthAdjust="spacing" textLength="108.3799" x="252.5117" y="1411.4268">Capture QR image</text></g><g class="message" data-participant-1="app" data-participant-2="gateway"><polygon fill="#181818" points="428.0479,1455.6348,438.0479,1459.6348,428.0479,1463.6348,432.0479,1459.6348" style="stroke:#181818;stroke-width:1;"/><line style="stroke:#181818;stroke-width:1;" x1="245.5117" x2="434.0479" y1="1459.6348" y2="1459.6348"/><text fill="#000000" font-family="sans-serif" font-size="13" lengthAdjust="spacing" textLength="170.5361" x="257.5117" y="1454.7783">Send QR code for processing</text></g><g class="message" data-participant-1="gateway" data-participant-2="qrService"><polygon fill="#181818" points="704.4912,1485.9863,714.4912,1489.9863,704.4912,1493.9863,708.4912,1489.9863" style="stroke:#181818;stroke-width:1;"/><line style="stroke:#181818;stroke-width:1;" x1="440.0479" x2="710.4912" y1="1489.9863" y2="1489.9863"/><text fill="#000000" font-family="sans-serif" font-size="13" lengthAdjust="spacing" textLength="101.8735" x="527.3328" y="1485.1299">Process QR code</text></g><g class="message" data-participant-1="qrService" data-participant-2="qrService"><line style="stroke:#181818;stroke-width:1;" x1="716.4912" x2="758.4912" y1="1520.3379" y2="1520.3379"/><line style="stroke:#181818;stroke-width:1;" x1="758.4912" x2="758.4912" y1="1520.3379" y2="1533.3379"/><line style="stroke:#181818;stroke-width:1;" x1="717.4912" x2="758.4912" y1="1533.3379" y2="1533.3379"/><polygon fill="#181818" points="727.4912,1529.3379,717.4912,1533.3379,727.4912,1537.3379,723.4912,1533.3379" style="stroke:#181818;stroke-width:1;"/><text fill="#000000" font-family="sans-serif" font-size="13" lengthAdjust="spacing" textLength="96.8335" x="723.4912" y="1515.4814">Decode QR data</text></g><g class="message" data-participant-1="qrService" data-participant-2="qrService"><line style="stroke:#181818;stroke-width:1;" x1="716.4912" x2="758.4912" y1="1563.6895" y2="1563.6895"/><line style="stroke:#181818;stroke-width:1;" x1="758.4912" x2="758.4912" y1="1563.6895" y2="1576.6895"/><line style="stroke:#181818;stroke-width:1;" x1="717.4912" x2="758.4912" y1="1576.6895" y2="1576.6895"/><polygon fill="#181818" points="727.4912,1572.6895,717.4912,1576.6895,727.4912,1580.6895,723.4912,1576.6895" style="stroke:#181818;stroke-width:1;"/><text fill="#000000" font-family="sans-serif" font-size="13" lengthAdjust="spacing" textLength="160.437" x="723.4912" y="1558.833">QR code invalid/unreadable</text></g><g class="message" data-participant-1="qrService" data-participant-2="gateway"><polygon fill="#181818" points="451.0479,1603.041,441.0479,1607.041,451.0479,1611.041,447.0479,1607.041" style="stroke:#181818;stroke-width:1;"/><line style="stroke:#181818;stroke-width:1;" x1="445.0479" x2="715.4912" y1="1607.041" y2="1607.041"/><text fill="#000000" font-family="sans-serif" font-size="13" lengthAdjust="spacing" textLength="70.0781" x="543.2305" y="1602.1846">Return error</text></g><g class="message" data-participant-1="gateway" data-participant-2="app"><polygon fill="#181818" points="256.5117,1633.3926,246.5117,1637.3926,256.5117,1641.3926,252.5117,1637.3926" style="stroke:#181818;stroke-width:1;"/><line style="stroke:#181818;stroke-width:1;" x1="250.5117" x2="439.0479" y1="1637.3926" y2="1637.3926"/><text fill="#000000" font-family="sans-serif" font-size="13" lengthAdjust="spacing" textLength="70.0781" x="307.7407" y="1632.5361">Return error</text></g><g class="message" data-participant-1="app" data-participant-2="user"><polygon fill="#181818" points="33.7793,1663.7441,23.7793,1667.7441,33.7793,1671.7441,29.7793,1667.7441" style="stroke:#181818;stroke-width:1;"/><line style="stroke:#181818;stroke-width:1;" x1="27.7793" x2="244.5117" y1="1667.7441" y2="1667.7441"/><text fill="#000000" font-family="sans-serif" font-size="13" lengthAdjust="spacing" textLength="130.0444" x="69.1233" y="1662.8877">Display error message</text></g><rect fill="#EEEEEE" height="3" style="stroke:#EEEEEE;stroke-width:1;" width="1061.9653" x="0" y="1696.9199"/><line style="stroke:#000000;stroke-width:1;" x1="0" x2="1061.9653" y1="1696.9199" y2="1696.9199"/><line style="stroke:#000000;stroke-width:1;" x1="0" x2="1061.9653" y1="1699.9199" y2="1699.9199"/><rect fill="#EEEEEE" height="24.3516" style="stroke:#000000;stroke-width:2;" width="258.1753" x="401.895" y="1685.7441"/><text fill="#000000" font-family="sans-serif" font-size="13" font-weight="bold" lengthAdjust="spacing" textLength="240.5635" x="407.895" y="1703.2393">Alternative Scenario: QR Code Expired</text><g class="message" data-participant-1="user" data-participant-2="app"><polygon fill="#181818" points="233.5117,1738.4473,243.5117,1742.4473,233.5117,1746.4473,237.5117,1742.4473" style="stroke:#181818;stroke-width:1;"/><line style="stroke:#181818;stroke-width:1;" x1="22.7793" x2="239.5117" y1="1742.4473" y2="1742.4473"/><text fill="#000000" font-family="sans-serif" font-size="13" lengthAdjust="spacing" textLength="150.3062" x="58.9924" y="1737.5908">Select send via QR option</text></g><g class="message" data-participant-1="app" data-participant-2="app"><line style="stroke:#181818;stroke-width:1;" x1="245.5117" x2="287.5117" y1="1772.7988" y2="1772.7988"/><line style="stroke:#181818;stroke-width:1;" x1="287.5117" x2="287.5117" y1="1772.7988" y2="1785.7988"/><line style="stroke:#181818;stroke-width:1;" x1="246.5117" x2="287.5117" y1="1785.7988" y2="1785.7988"/><polygon fill="#181818" points="256.5117,1781.7988,246.5117,1785.7988,256.5117,1789.7988,252.5117,1785.7988" style="stroke:#181818;stroke-width:1;"/><text fill="#000000" font-family="sans-serif" font-size="13" lengthAdjust="spacing" textLength="134.3926" x="252.5117" y="1767.9424">Activate device camera</text></g><g class="message" data-participant-1="user" data-participant-2="app"><polygon fill="#181818" points="233.5117,1812.1504,243.5117,1816.1504,233.5117,1820.1504,237.5117,1816.1504" style="stroke:#181818;stroke-width:1;"/><line style="stroke:#181818;stroke-width:1;" x1="22.7793" x2="239.5117" y1="1816.1504" y2="1816.1504"/><text fill="#000000" font-family="sans-serif" font-size="13" lengthAdjust="spacing" textLength="84.5444" x="91.8733" y="1811.2939">Scan QR code</text></g><g class="message" data-participant-1="app" data-participant-2="app"><line style="stroke:#181818;stroke-width:1;" x1="245.5117" x2="287.5117" y1="1846.502" y2="1846.502"/><line style="stroke:#181818;stroke-width:1;" x1="287.5117" x2="287.5117" y1="1846.502" y2="1859.502"/><line style="stroke:#181818;stroke-width:1;" x1="246.5117" x2="287.5117" y1="1859.502" y2="1859.502"/><polygon fill="#181818" points="256.5117,1855.502,246.5117,1859.502,256.5117,1863.502,252.5117,1859.502" style="stroke:#181818;stroke-width:1;"/><text fill="#000000" font-family="sans-serif" font-size="13" lengthAdjust="spacing" textLength="108.3799" x="252.5117" y="1841.6455">Capture QR image</text></g><g class="message" data-participant-1="app" data-participant-2="gateway"><polygon fill="#181818" points="428.0479,1885.8535,438.0479,1889.8535,428.0479,1893.8535,432.0479,1889.8535" style="stroke:#181818;stroke-width:1;"/><line style="stroke:#181818;stroke-width:1;" x1="245.5117" x2="434.0479" y1="1889.8535" y2="1889.8535"/><text fill="#000000" font-family="sans-serif" font-size="13" lengthAdjust="spacing" textLength="170.5361" x="257.5117" y="1884.9971">Send QR code for processing</text></g><g class="message" data-participant-1="gateway" data-participant-2="qrService"><polygon fill="#181818" points="704.4912,1916.2051,714.4912,1920.2051,704.4912,1924.2051,708.4912,1920.2051" style="stroke:#181818;stroke-width:1;"/><line style="stroke:#181818;stroke-width:1;" x1="440.0479" x2="710.4912" y1="1920.2051" y2="1920.2051"/><text fill="#000000" font-family="sans-serif" font-size="13" lengthAdjust="spacing" textLength="101.8735" x="527.3328" y="1915.3486">Process QR code</text></g><g class="message" data-participant-1="qrService" data-participant-2="qrService"><line style="stroke:#181818;stroke-width:1;" x1="716.4912" x2="758.4912" y1="1950.5566" y2="1950.5566"/><line style="stroke:#181818;stroke-width:1;" x1="758.4912" x2="758.4912" y1="1950.5566" y2="1963.5566"/><line style="stroke:#181818;stroke-width:1;" x1="717.4912" x2="758.4912" y1="1963.5566" y2="1963.5566"/><polygon fill="#181818" points="727.4912,1959.5566,717.4912,1963.5566,727.4912,1967.5566,723.4912,1963.5566" style="stroke:#181818;stroke-width:1;"/><text fill="#000000" font-family="sans-serif" font-size="13" lengthAdjust="spacing" textLength="96.8335" x="723.4912" y="1945.7002">Decode QR data</text></g><g class="message" data-participant-1="qrService" data-participant-2="qrService"><line style="stroke:#181818;stroke-width:1;" x1="716.4912" x2="758.4912" y1="1993.9082" y2="1993.9082"/><line style="stroke:#181818;stroke-width:1;" x1="758.4912" x2="758.4912" y1="1993.9082" y2="2006.9082"/><line style="stroke:#181818;stroke-width:1;" x1="717.4912" x2="758.4912" y1="2006.9082" y2="2006.9082"/><polygon fill="#181818" points="727.4912,2002.9082,717.4912,2006.9082,727.4912,2010.9082,723.4912,2006.9082" style="stroke:#181818;stroke-width:1;"/><text fill="#000000" font-family="sans-serif" font-size="13" lengthAdjust="spacing" textLength="110.5444" x="723.4912" y="1989.0518">Validate QR format</text></g><g class="message" data-participant-1="qrService" data-participant-2="qrService"><line style="stroke:#181818;stroke-width:1;" x1="716.4912" x2="758.4912" y1="2037.2598" y2="2037.2598"/><line style="stroke:#181818;stroke-width:1;" x1="758.4912" x2="758.4912" y1="2037.2598" y2="2050.2598"/><line style="stroke:#181818;stroke-width:1;" x1="717.4912" x2="758.4912" y1="2050.2598" y2="2050.2598"/><polygon fill="#181818" points="727.4912,2046.2598,717.4912,2050.2598,727.4912,2054.2598,723.4912,2050.2598" style="stroke:#181818;stroke-width:1;"/><text fill="#000000" font-family="sans-serif" font-size="13" lengthAdjust="spacing" textLength="96.8271" x="723.4912" y="2032.4033">Check expiration</text></g><g class="message" data-participant-1="qrService" data-participant-2="gateway"><polygon fill="#181818" points="451.0479,2076.6113,441.0479,2080.6113,451.0479,2084.6113,447.0479,2080.6113" style="stroke:#181818;stroke-width:1;"/><line style="stroke:#181818;stroke-width:1;" x1="445.0479" x2="715.4912" y1="2080.6113" y2="2080.6113"/><text fill="#000000" font-family="sans-serif" font-size="13" lengthAdjust="spacing" textLength="97.5508" x="529.4941" y="2075.7549">QR code expired</text></g><g class="message" data-participant-1="gateway" data-participant-2="app"><polygon fill="#181818" points="256.5117,2106.9629,246.5117,2110.9629,256.5117,2114.9629,252.5117,2110.9629" style="stroke:#181818;stroke-width:1;"/><line style="stroke:#181818;stroke-width:1;" x1="250.5117" x2="439.0479" y1="2110.9629" y2="2110.9629"/><text fill="#000000" font-family="sans-serif" font-size="13" lengthAdjust="spacing" textLength="97.5508" x="294.0044" y="2106.1064">QR code expired</text></g><g class="message" data-participant-1="app" data-participant-2="user"><polygon fill="#181818" points="33.7793,2137.3145,23.7793,2141.3145,33.7793,2145.3145,29.7793,2141.3145" style="stroke:#181818;stroke-width:1;"/><line style="stroke:#181818;stroke-width:1;" x1="27.7793" x2="244.5117" y1="2141.3145" y2="2141.3145"/><text fill="#000000" font-family="sans-serif" font-size="13" lengthAdjust="spacing" textLength="134.3926" x="66.9492" y="2136.458">Notify QR code expired</text></g><!--SRC=[xLOzRzim4DtvAmxUWm8TEWHm0SD9Wmm9t3ZfrELCdcqY4gcGb1t_-nwf3ulonz8rcwnxTxpt7kza_wvDXGvByFHHav7qHDxZXcQ5tXYGP08vuNlK2kNxnjdQgBajh8FzLWSQnBTerDxf4CZ06WjFGWGT2eB9s_pc-uzRM99Hy6GD7M2d4Nw_mDmgcWY1Cd2zoPidDm7qKFE3uA91IrsX2J3vnVNi0Wymgwe4mQhA4RF58pnWe3qU4c3JFESWhb0ohRzcIMwd9ILarRniN-K9ROzvmeSxYtrrQ3nJqTRa-F3P_HGA0wxGioPtxLD2g9KGqoayeJQmhALa7s391g3J5gPJ8Q8YSFCpqeuw5YG3kyPojaBQAXuhEDoZPjp9ZaK0HV5ea5YImt4fYIRcIoQPPS-n2hMZ6DCbtuaksChQcjbcmfhjgvoDVMkp4IqeudkjRc7H0FhZH1yR0Uye5MLSbEiYx0yMMaM23EG6IWmNeVUVmR4pdTMWJPCGDSjoUdelnFGDE69tzJXbm2-9TG9M550NNdIgHSrPigtT3q0yBe0bpzCHdtapjsQjNGdXUAyoYrxYrFe0YyVdaQltSNBJ-x5hlMOnEA2Hpm3ZoEdr8Q7oK0Ih5JUt9VcUuce5DsSgS0XsyRIJ0iD-ZgY-cOx4CNJ2uj7ee2EBCYsJ9D2QLyOLGjtbQz-VONL1WZXbBEOA2pHfuiTvn-cEbaZhLEROCTn9j-HbHnccbN1OQR1CmCS4bLKwq-ymmwK-wBhshwriu9kDiwwBKnVEWV9RVQTzLN1A2-3PJjUscPIurMO5tqR3ltVKBxNeOJAt-mfyRRaBiEvmtUZrhJQEKE6geEkRYvopxjAcQe9dRKmXA9j_0bVywtox_wmqtyul__x_AzNiL8g2NliqTNIeKVx4ut4yi_dPXhZLnfX_]--></g></svg>