<svg xmlns="http://www.w3.org/2000/svg" xmlns:xlink="http://www.w3.org/1999/xlink" contentStyleType="text/css" data-diagram-type="SEQUENCE" height="1753px" preserveAspectRatio="none" style="width:842px;height:1753px;background:#FFFFFF;" version="1.1" viewBox="0 0 842 1753" width="842px" zoomAndPan="magnify"><title>UC-27: Scan QR Code</title><defs/><g><rect fill="#FFFFCC" height="28.0566" rx="2.5" ry="2.5" style="stroke:#FFDD88;stroke-width:3;" width="831.584" x="5" y="5"/><text fill="#000000" font-family="monospace" font-size="10" lengthAdjust="spacing" textLength="354.0576" x="10" y="20">Please&#160;use&#160;'!option&#160;handwritten&#160;true'&#160;to&#160;enable&#160;handwritten</text><text fill="#000000" font-family="sans-serif" font-size="14" font-weight="bold" lengthAdjust="spacing" textLength="146.248" x="336.668" y="67.5898">UC-27: Scan QR Code</text><g><title>User</title><rect fill="#000000" fill-opacity="0.00000" height="1512.4688" width="8" x="18.7793" y="159.2754"/><line style="stroke:#181818;stroke-width:0.5;stroke-dasharray:5.0,5.0;" x1="22" x2="22" y1="159.2754" y2="1671.7441"/></g><g><title>FalsoPay App</title><rect fill="#000000" fill-opacity="0.00000" height="1512.4688" width="8" x="335.4634" y="159.2754"/><line style="stroke:#181818;stroke-width:0.5;stroke-dasharray:5.0,5.0;" x1="338.8843" x2="338.8843" y1="159.2754" y2="1671.7441"/></g><g><title>Device Camera</title><rect fill="#000000" fill-opacity="0.00000" height="1512.4688" width="8" x="521.4277" y="159.2754"/><line style="stroke:#181818;stroke-width:0.5;stroke-dasharray:5.0,5.0;" x1="525.1899" x2="525.1899" y1="159.2754" y2="1671.7441"/></g><g><title>QR Processing</title><rect fill="#000000" fill-opacity="0.00000" height="1512.4688" width="8" x="640.7378" y="159.2754"/><line style="stroke:#181818;stroke-width:0.5;stroke-dasharray:5.0,5.0;" x1="644.6655" x2="644.6655" y1="159.2754" y2="1671.7441"/></g><g class="participant participant-head" data-participant="user"><text fill="#000000" font-family="sans-serif" font-size="14" lengthAdjust="spacing" textLength="29.5586" x="5" y="156.1992">User</text><ellipse cx="22.7793" cy="90.166" fill="#E2E2F0" rx="8" ry="8" style="stroke:#181818;stroke-width:0.5;"/><path d="M22.7793,98.166 L22.7793,125.166 M9.7793,106.166 L35.7793,106.166 M22.7793,125.166 L9.7793,140.166 M22.7793,125.166 L35.7793,140.166" fill="none" style="stroke:#181818;stroke-width:0.5;"/></g><g class="participant participant-tail" data-participant="user"><text fill="#000000" font-family="sans-serif" font-size="14" lengthAdjust="spacing" textLength="29.5586" x="5" y="1685.2773">User</text><ellipse cx="22.7793" cy="1696.8535" fill="#E2E2F0" rx="8" ry="8" style="stroke:#181818;stroke-width:0.5;"/><path d="M22.7793,1704.8535 L22.7793,1731.8535 M9.7793,1712.8535 L35.7793,1712.8535 M22.7793,1731.8535 L9.7793,1746.8535 M22.7793,1731.8535 L35.7793,1746.8535" fill="none" style="stroke:#181818;stroke-width:0.5;"/></g><g class="participant participant-head" data-participant="app"><rect fill="#E2E2F0" height="31.6094" rx="2.5" ry="2.5" style="stroke:#181818;stroke-width:0.5;" width="101.1582" x="288.8843" y="126.666"/><text fill="#000000" font-family="sans-serif" font-size="14" lengthAdjust="spacing" textLength="87.1582" x="295.8843" y="148.1992">FalsoPay App</text></g><g class="participant participant-tail" data-participant="app"><rect fill="#E2E2F0" height="31.6094" rx="2.5" ry="2.5" style="stroke:#181818;stroke-width:0.5;" width="101.1582" x="288.8843" y="1670.7441"/><text fill="#000000" font-family="sans-serif" font-size="14" lengthAdjust="spacing" textLength="87.1582" x="295.8843" y="1692.2773">FalsoPay App</text></g><g class="participant participant-head" data-participant="camera"><rect fill="#E2E2F0" height="31.6094" rx="2.5" ry="2.5" style="stroke:#181818;stroke-width:0.5;" width="110.4756" x="470.1899" y="126.666"/><text fill="#000000" font-family="sans-serif" font-size="14" lengthAdjust="spacing" textLength="96.4756" x="477.1899" y="148.1992">Device Camera</text></g><g class="participant participant-tail" data-participant="camera"><rect fill="#E2E2F0" height="31.6094" rx="2.5" ry="2.5" style="stroke:#181818;stroke-width:0.5;" width="110.4756" x="470.1899" y="1670.7441"/><text fill="#000000" font-family="sans-serif" font-size="14" lengthAdjust="spacing" textLength="96.4756" x="477.1899" y="1692.2773">Device Camera</text></g><g class="participant participant-head" data-participant="qrModule"><rect fill="#E2E2F0" height="49.2188" rx="2.5" ry="2.5" style="stroke:#181818;stroke-width:0.5;" width="108.1445" x="590.6655" y="109.0566"/><text fill="#000000" font-family="sans-serif" font-size="14" lengthAdjust="spacing" textLength="94.1445" x="597.6655" y="130.5898">QR Processing</text><text fill="#000000" font-family="sans-serif" font-size="14" lengthAdjust="spacing" textLength="45.917" x="621.7793" y="148.1992">Module</text></g><g class="participant participant-tail" data-participant="qrModule"><rect fill="#E2E2F0" height="49.2188" rx="2.5" ry="2.5" style="stroke:#181818;stroke-width:0.5;" width="108.1445" x="590.6655" y="1670.7441"/><text fill="#000000" font-family="sans-serif" font-size="14" lengthAdjust="spacing" textLength="94.1445" x="597.6655" y="1692.2773">QR Processing</text><text fill="#000000" font-family="sans-serif" font-size="14" lengthAdjust="spacing" textLength="45.917" x="621.7793" y="1709.8867">Module</text></g><rect fill="#EEEEEE" height="3" style="stroke:#EEEEEE;stroke-width:1;" width="820.584" x="0" y="190.4512"/><line style="stroke:#000000;stroke-width:1;" x1="0" x2="820.584" y1="190.4512" y2="190.4512"/><line style="stroke:#000000;stroke-width:1;" x1="0" x2="820.584" y1="193.4512" y2="193.4512"/><rect fill="#EEEEEE" height="24.3516" style="stroke:#000000;stroke-width:2;" width="162.1226" x="329.2307" y="179.2754"/><text fill="#000000" font-family="sans-serif" font-size="13" font-weight="bold" lengthAdjust="spacing" textLength="144.5107" x="335.2307" y="196.7705">Main Success Scenario</text><g class="message" data-participant-1="user" data-participant-2="app"><polygon fill="#181818" points="327.4634,231.9785,337.4634,235.9785,327.4634,239.9785,331.4634,235.9785" style="stroke:#181818;stroke-width:1;"/><line style="stroke:#181818;stroke-width:1;" x1="22.7793" x2="333.4634" y1="235.9785" y2="235.9785"/><text fill="#000000" font-family="sans-serif" font-size="13" lengthAdjust="spacing" textLength="164.7471" x="98.7478" y="231.1221">Initiate QR scan functionality</text></g><g class="message" data-participant-1="app" data-participant-2="app"><line style="stroke:#181818;stroke-width:1;" x1="339.4634" x2="381.4634" y1="266.3301" y2="266.3301"/><line style="stroke:#181818;stroke-width:1;" x1="381.4634" x2="381.4634" y1="266.3301" y2="279.3301"/><line style="stroke:#181818;stroke-width:1;" x1="340.4634" x2="381.4634" y1="279.3301" y2="279.3301"/><polygon fill="#181818" points="350.4634,275.3301,340.4634,279.3301,350.4634,283.3301,346.4634,279.3301" style="stroke:#181818;stroke-width:1;"/><text fill="#000000" font-family="sans-serif" font-size="13" lengthAdjust="spacing" textLength="156.7744" x="346.4634" y="261.4736">Check camera permissions</text></g><g class="message" data-participant-1="app" data-participant-2="camera"><polygon fill="#181818" points="513.4277,305.6816,523.4277,309.6816,513.4277,313.6816,517.4277,309.6816" style="stroke:#181818;stroke-width:1;"/><line style="stroke:#181818;stroke-width:1;" x1="339.4634" x2="519.4277" y1="309.6816" y2="309.6816"/><text fill="#000000" font-family="sans-serif" font-size="13" lengthAdjust="spacing" textLength="139.4517" x="362.7197" y="304.8252">Request camera access</text></g><g class="message" data-participant-1="camera" data-participant-2="app"><polygon fill="#181818" points="350.4634,336.0332,340.4634,340.0332,350.4634,344.0332,346.4634,340.0332" style="stroke:#181818;stroke-width:1;"/><line style="stroke:#181818;stroke-width:1;stroke-dasharray:2.0,2.0;" x1="344.4634" x2="524.4277" y1="340.0332" y2="340.0332"/><text fill="#000000" font-family="sans-serif" font-size="13" lengthAdjust="spacing" textLength="89.6035" x="387.6438" y="335.1768">Access granted</text></g><g class="message" data-participant-1="app" data-participant-2="camera"><polygon fill="#181818" points="513.4277,366.3848,523.4277,370.3848,513.4277,374.3848,517.4277,370.3848" style="stroke:#181818;stroke-width:1;"/><line style="stroke:#181818;stroke-width:1;" x1="339.4634" x2="519.4277" y1="370.3848" y2="370.3848"/><text fill="#000000" font-family="sans-serif" font-size="13" lengthAdjust="spacing" textLength="93.2026" x="385.8442" y="365.5283">Activate camera</text></g><g class="message" data-participant-1="camera" data-participant-2="app"><polygon fill="#181818" points="350.4634,396.7363,340.4634,400.7363,350.4634,404.7363,346.4634,400.7363" style="stroke:#181818;stroke-width:1;"/><line style="stroke:#181818;stroke-width:1;stroke-dasharray:2.0,2.0;" x1="344.4634" x2="524.4277" y1="400.7363" y2="400.7363"/><text fill="#000000" font-family="sans-serif" font-size="13" lengthAdjust="spacing" textLength="83.8081" x="390.5415" y="395.8799">Camera active</text></g><g class="message" data-participant-1="app" data-participant-2="user"><polygon fill="#181818" points="33.7793,427.0879,23.7793,431.0879,33.7793,435.0879,29.7793,431.0879" style="stroke:#181818;stroke-width:1;"/><line style="stroke:#181818;stroke-width:1;" x1="27.7793" x2="338.4634" y1="431.0879" y2="431.0879"/><text fill="#000000" font-family="sans-serif" font-size="13" lengthAdjust="spacing" textLength="127.1689" x="117.5369" y="426.2314">Display scan interface</text></g><path d="M232,444.0879 L232,470.0879 L445,470.0879 L445,454.0879 L435,444.0879 L232,444.0879" fill="#FEFFDD" style="stroke:#181818;stroke-width:0.5;"/><path d="M435,444.0879 L435,454.0879 L445,454.0879 L435,444.0879" fill="#FEFFDD" style="stroke:#181818;stroke-width:0.5;"/><text fill="#000000" font-family="sans-serif" font-size="13" lengthAdjust="spacing" textLength="192.1943" x="238" y="462.583">Display viewfinder with scan area</text><g class="message" data-participant-1="user" data-participant-2="camera"><polygon fill="#181818" points="513.4277,493.791,523.4277,497.791,513.4277,501.791,517.4277,497.791" style="stroke:#181818;stroke-width:1;"/><line style="stroke:#181818;stroke-width:1;" x1="22.7793" x2="519.4277" y1="497.791" y2="497.791"/><text fill="#000000" font-family="sans-serif" font-size="13" lengthAdjust="spacing" textLength="175.5952" x="186.3059" y="492.9346">Position QR code in scan area</text></g><g class="message" data-participant-1="camera" data-participant-2="app"><polygon fill="#181818" points="350.4634,524.1426,340.4634,528.1426,350.4634,532.1426,346.4634,528.1426" style="stroke:#181818;stroke-width:1;"/><line style="stroke:#181818;stroke-width:1;" x1="344.4634" x2="524.4277" y1="528.1426" y2="528.1426"/><text fill="#000000" font-family="sans-serif" font-size="13" lengthAdjust="spacing" textLength="108.3799" x="378.2556" y="523.2861">Capture QR image</text></g><g class="message" data-participant-1="app" data-participant-2="qrModule"><polygon fill="#181818" points="632.7378,554.4941,642.7378,558.4941,632.7378,562.4941,636.7378,558.4941" style="stroke:#181818;stroke-width:1;"/><line style="stroke:#181818;stroke-width:1;" x1="339.4634" x2="638.7378" y1="558.4941" y2="558.4941"/><text fill="#000000" font-family="sans-serif" font-size="13" lengthAdjust="spacing" textLength="109.0908" x="437.5552" y="553.6377">Process QR image</text></g><g class="message" data-participant-1="qrModule" data-participant-2="qrModule"><line style="stroke:#181818;stroke-width:1;" x1="644.7378" x2="686.7378" y1="588.8457" y2="588.8457"/><line style="stroke:#181818;stroke-width:1;" x1="686.7378" x2="686.7378" y1="588.8457" y2="601.8457"/><line style="stroke:#181818;stroke-width:1;" x1="645.7378" x2="686.7378" y1="601.8457" y2="601.8457"/><polygon fill="#181818" points="655.7378,597.8457,645.7378,601.8457,655.7378,605.8457,651.7378,601.8457" style="stroke:#181818;stroke-width:1;"/><text fill="#000000" font-family="sans-serif" font-size="13" lengthAdjust="spacing" textLength="96.8335" x="651.7378" y="583.9893">Decode QR data</text></g><g class="message" data-participant-1="qrModule" data-participant-2="qrModule"><line style="stroke:#181818;stroke-width:1;" x1="644.7378" x2="686.7378" y1="632.1973" y2="632.1973"/><line style="stroke:#181818;stroke-width:1;" x1="686.7378" x2="686.7378" y1="632.1973" y2="645.1973"/><line style="stroke:#181818;stroke-width:1;" x1="645.7378" x2="686.7378" y1="645.1973" y2="645.1973"/><polygon fill="#181818" points="655.7378,641.1973,645.7378,645.1973,655.7378,649.1973,651.7378,645.1973" style="stroke:#181818;stroke-width:1;"/><text fill="#000000" font-family="sans-serif" font-size="13" lengthAdjust="spacing" textLength="110.5444" x="651.7378" y="627.3408">Validate QR format</text></g><g class="message" data-participant-1="qrModule" data-participant-2="qrModule"><line style="stroke:#181818;stroke-width:1;" x1="644.7378" x2="686.7378" y1="675.5488" y2="675.5488"/><line style="stroke:#181818;stroke-width:1;" x1="686.7378" x2="686.7378" y1="675.5488" y2="688.5488"/><line style="stroke:#181818;stroke-width:1;" x1="645.7378" x2="686.7378" y1="688.5488" y2="688.5488"/><polygon fill="#181818" points="655.7378,684.5488,645.7378,688.5488,655.7378,692.5488,651.7378,688.5488" style="stroke:#181818;stroke-width:1;"/><text fill="#000000" font-family="sans-serif" font-size="13" lengthAdjust="spacing" textLength="161.8462" x="651.7378" y="670.6924">Extract payment information</text></g><g class="message" data-participant-1="qrModule" data-participant-2="app"><polygon fill="#181818" points="350.4634,714.9004,340.4634,718.9004,350.4634,722.9004,346.4634,718.9004" style="stroke:#181818;stroke-width:1;"/><line style="stroke:#181818;stroke-width:1;stroke-dasharray:2.0,2.0;" x1="344.4634" x2="643.7378" y1="718.9004" y2="718.9004"/><text fill="#000000" font-family="sans-serif" font-size="13" lengthAdjust="spacing" textLength="121.4243" x="431.3884" y="714.0439">Return decoded data</text></g><g class="message" data-participant-1="app" data-participant-2="camera"><polygon fill="#181818" points="513.4277,745.252,523.4277,749.252,513.4277,753.252,517.4277,749.252" style="stroke:#181818;stroke-width:1;"/><line style="stroke:#181818;stroke-width:1;" x1="339.4634" x2="519.4277" y1="749.252" y2="749.252"/><text fill="#000000" font-family="sans-serif" font-size="13" lengthAdjust="spacing" textLength="108.3799" x="378.2556" y="744.3955">Deactivate camera</text></g><g class="message" data-participant-1="camera" data-participant-2="app"><polygon fill="#181818" points="350.4634,775.6035,340.4634,779.6035,350.4634,783.6035,346.4634,779.6035" style="stroke:#181818;stroke-width:1;"/><line style="stroke:#181818;stroke-width:1;stroke-dasharray:2.0,2.0;" x1="344.4634" x2="524.4277" y1="779.6035" y2="779.6035"/><text fill="#000000" font-family="sans-serif" font-size="13" lengthAdjust="spacing" textLength="116.3398" x="374.2756" y="774.7471">Camera deactivated</text></g><g class="message" data-participant-1="app" data-participant-2="app"><line style="stroke:#181818;stroke-width:1;" x1="339.4634" x2="381.4634" y1="809.9551" y2="809.9551"/><line style="stroke:#181818;stroke-width:1;" x1="381.4634" x2="381.4634" y1="809.9551" y2="822.9551"/><line style="stroke:#181818;stroke-width:1;" x1="340.4634" x2="381.4634" y1="822.9551" y2="822.9551"/><polygon fill="#181818" points="350.4634,818.9551,340.4634,822.9551,350.4634,826.9551,346.4634,822.9551" style="stroke:#181818;stroke-width:1;"/><text fill="#000000" font-family="sans-serif" font-size="13" lengthAdjust="spacing" textLength="171.9644" x="346.4634" y="805.0986">Process extracted information</text></g><path d="M242,835.9551 L242,877.9551 L435,877.9551 L435,845.9551 L425,835.9551 L242,835.9551" fill="#FEFFDD" style="stroke:#181818;stroke-width:0.5;"/><path d="M425,835.9551 L425,845.9551 L435,845.9551 L425,835.9551" fill="#FEFFDD" style="stroke:#181818;stroke-width:0.5;"/><text fill="#000000" font-family="sans-serif" font-size="13" lengthAdjust="spacing" textLength="172.7007" x="248" y="854.4502">Continue with transaction flow</text><text fill="#000000" font-family="sans-serif" font-size="13" lengthAdjust="spacing" textLength="156.0825" x="248" y="870.8018">using extracted information</text><rect fill="#EEEEEE" height="3" style="stroke:#EEEEEE;stroke-width:1;" width="820.584" x="0" y="904.834"/><line style="stroke:#000000;stroke-width:1;" x1="0" x2="820.584" y1="904.834" y2="904.834"/><line style="stroke:#000000;stroke-width:1;" x1="0" x2="820.584" y1="907.834" y2="907.834"/><rect fill="#EEEEEE" height="24.3516" style="stroke:#000000;stroke-width:2;" width="319.6143" x="250.4849" y="893.6582"/><text fill="#000000" font-family="sans-serif" font-size="13" font-weight="bold" lengthAdjust="spacing" textLength="302.0024" x="256.4849" y="911.1533">Alternative Scenario: Camera Permission Denied</text><g class="message" data-participant-1="user" data-participant-2="app"><polygon fill="#181818" points="327.4634,946.3613,337.4634,950.3613,327.4634,954.3613,331.4634,950.3613" style="stroke:#181818;stroke-width:1;"/><line style="stroke:#181818;stroke-width:1;" x1="22.7793" x2="333.4634" y1="950.3613" y2="950.3613"/><text fill="#000000" font-family="sans-serif" font-size="13" lengthAdjust="spacing" textLength="164.7471" x="98.7478" y="945.5049">Initiate QR scan functionality</text></g><g class="message" data-participant-1="app" data-participant-2="app"><line style="stroke:#181818;stroke-width:1;" x1="339.4634" x2="381.4634" y1="980.7129" y2="980.7129"/><line style="stroke:#181818;stroke-width:1;" x1="381.4634" x2="381.4634" y1="980.7129" y2="993.7129"/><line style="stroke:#181818;stroke-width:1;" x1="340.4634" x2="381.4634" y1="993.7129" y2="993.7129"/><polygon fill="#181818" points="350.4634,989.7129,340.4634,993.7129,350.4634,997.7129,346.4634,993.7129" style="stroke:#181818;stroke-width:1;"/><text fill="#000000" font-family="sans-serif" font-size="13" lengthAdjust="spacing" textLength="156.7744" x="346.4634" y="975.8564">Check camera permissions</text></g><g class="message" data-participant-1="app" data-participant-2="camera"><polygon fill="#181818" points="513.4277,1020.0645,523.4277,1024.0645,513.4277,1028.0645,517.4277,1024.0645" style="stroke:#181818;stroke-width:1;"/><line style="stroke:#181818;stroke-width:1;" x1="339.4634" x2="519.4277" y1="1024.0645" y2="1024.0645"/><text fill="#000000" font-family="sans-serif" font-size="13" lengthAdjust="spacing" textLength="139.4517" x="362.7197" y="1019.208">Request camera access</text></g><g class="message" data-participant-1="camera" data-participant-2="app"><polygon fill="#181818" points="350.4634,1050.416,340.4634,1054.416,350.4634,1058.416,346.4634,1054.416" style="stroke:#181818;stroke-width:1;"/><line style="stroke:#181818;stroke-width:1;stroke-dasharray:2.0,2.0;" x1="344.4634" x2="524.4277" y1="1054.416" y2="1054.416"/><text fill="#000000" font-family="sans-serif" font-size="13" lengthAdjust="spacing" textLength="84.5508" x="390.1702" y="1049.5596">Access denied</text></g><g class="message" data-participant-1="app" data-participant-2="user"><polygon fill="#181818" points="33.7793,1080.7676,23.7793,1084.7676,33.7793,1088.7676,29.7793,1084.7676" style="stroke:#181818;stroke-width:1;"/><line style="stroke:#181818;stroke-width:1;" x1="27.7793" x2="338.4634" y1="1084.7676" y2="1084.7676"/><text fill="#000000" font-family="sans-serif" font-size="13" lengthAdjust="spacing" textLength="140.1499" x="111.0464" y="1079.9111">Display permission error</text></g><g class="message" data-participant-1="app" data-participant-2="user"><polygon fill="#181818" points="33.7793,1111.1191,23.7793,1115.1191,33.7793,1119.1191,29.7793,1115.1191" style="stroke:#181818;stroke-width:1;"/><line style="stroke:#181818;stroke-width:1;" x1="27.7793" x2="338.4634" y1="1115.1191" y2="1115.1191"/><text fill="#000000" font-family="sans-serif" font-size="13" lengthAdjust="spacing" textLength="217.5024" x="72.3701" y="1110.2627">Provide instructions to enable camera</text></g><rect fill="#EEEEEE" height="3" style="stroke:#EEEEEE;stroke-width:1;" width="820.584" x="0" y="1144.2949"/><line style="stroke:#000000;stroke-width:1;" x1="0" x2="820.584" y1="1144.2949" y2="1144.2949"/><line style="stroke:#000000;stroke-width:1;" x1="0" x2="820.584" y1="1147.2949" y2="1147.2949"/><rect fill="#EEEEEE" height="24.3516" style="stroke:#000000;stroke-width:2;" width="281.2935" x="269.6453" y="1133.1191"/><text fill="#000000" font-family="sans-serif" font-size="13" font-weight="bold" lengthAdjust="spacing" textLength="263.6816" x="275.6453" y="1150.6143">Alternative Scenario: Unreadable QR Code</text><g class="message" data-participant-1="user" data-participant-2="app"><polygon fill="#181818" points="327.4634,1185.8223,337.4634,1189.8223,327.4634,1193.8223,331.4634,1189.8223" style="stroke:#181818;stroke-width:1;"/><line style="stroke:#181818;stroke-width:1;" x1="22.7793" x2="333.4634" y1="1189.8223" y2="1189.8223"/><text fill="#000000" font-family="sans-serif" font-size="13" lengthAdjust="spacing" textLength="164.7471" x="98.7478" y="1184.9658">Initiate QR scan functionality</text></g><g class="message" data-participant-1="app" data-participant-2="app"><line style="stroke:#181818;stroke-width:1;" x1="339.4634" x2="381.4634" y1="1220.1738" y2="1220.1738"/><line style="stroke:#181818;stroke-width:1;" x1="381.4634" x2="381.4634" y1="1220.1738" y2="1233.1738"/><line style="stroke:#181818;stroke-width:1;" x1="340.4634" x2="381.4634" y1="1233.1738" y2="1233.1738"/><polygon fill="#181818" points="350.4634,1229.1738,340.4634,1233.1738,350.4634,1237.1738,346.4634,1233.1738" style="stroke:#181818;stroke-width:1;"/><text fill="#000000" font-family="sans-serif" font-size="13" lengthAdjust="spacing" textLength="156.7744" x="346.4634" y="1215.3174">Check camera permissions</text></g><g class="message" data-participant-1="app" data-participant-2="camera"><polygon fill="#181818" points="513.4277,1259.5254,523.4277,1263.5254,513.4277,1267.5254,517.4277,1263.5254" style="stroke:#181818;stroke-width:1;"/><line style="stroke:#181818;stroke-width:1;" x1="339.4634" x2="519.4277" y1="1263.5254" y2="1263.5254"/><text fill="#000000" font-family="sans-serif" font-size="13" lengthAdjust="spacing" textLength="139.4517" x="362.7197" y="1258.6689">Request camera access</text></g><g class="message" data-participant-1="camera" data-participant-2="app"><polygon fill="#181818" points="350.4634,1289.877,340.4634,1293.877,350.4634,1297.877,346.4634,1293.877" style="stroke:#181818;stroke-width:1;"/><line style="stroke:#181818;stroke-width:1;stroke-dasharray:2.0,2.0;" x1="344.4634" x2="524.4277" y1="1293.877" y2="1293.877"/><text fill="#000000" font-family="sans-serif" font-size="13" lengthAdjust="spacing" textLength="89.6035" x="387.6438" y="1289.0205">Access granted</text></g><g class="message" data-participant-1="app" data-participant-2="camera"><polygon fill="#181818" points="513.4277,1320.2285,523.4277,1324.2285,513.4277,1328.2285,517.4277,1324.2285" style="stroke:#181818;stroke-width:1;"/><line style="stroke:#181818;stroke-width:1;" x1="339.4634" x2="519.4277" y1="1324.2285" y2="1324.2285"/><text fill="#000000" font-family="sans-serif" font-size="13" lengthAdjust="spacing" textLength="93.2026" x="385.8442" y="1319.3721">Activate camera</text></g><g class="message" data-participant-1="camera" data-participant-2="app"><polygon fill="#181818" points="350.4634,1350.5801,340.4634,1354.5801,350.4634,1358.5801,346.4634,1354.5801" style="stroke:#181818;stroke-width:1;"/><line style="stroke:#181818;stroke-width:1;stroke-dasharray:2.0,2.0;" x1="344.4634" x2="524.4277" y1="1354.5801" y2="1354.5801"/><text fill="#000000" font-family="sans-serif" font-size="13" lengthAdjust="spacing" textLength="83.8081" x="390.5415" y="1349.7236">Camera active</text></g><g class="message" data-participant-1="app" data-participant-2="user"><polygon fill="#181818" points="33.7793,1380.9316,23.7793,1384.9316,33.7793,1388.9316,29.7793,1384.9316" style="stroke:#181818;stroke-width:1;"/><line style="stroke:#181818;stroke-width:1;" x1="27.7793" x2="338.4634" y1="1384.9316" y2="1384.9316"/><text fill="#000000" font-family="sans-serif" font-size="13" lengthAdjust="spacing" textLength="127.1689" x="117.5369" y="1380.0752">Display scan interface</text></g><g class="message" data-participant-1="user" data-participant-2="camera"><polygon fill="#181818" points="513.4277,1411.2832,523.4277,1415.2832,513.4277,1419.2832,517.4277,1415.2832" style="stroke:#181818;stroke-width:1;"/><line style="stroke:#181818;stroke-width:1;" x1="22.7793" x2="519.4277" y1="1415.2832" y2="1415.2832"/><text fill="#000000" font-family="sans-serif" font-size="13" lengthAdjust="spacing" textLength="175.5952" x="186.3059" y="1410.4268">Position QR code in scan area</text></g><g class="message" data-participant-1="camera" data-participant-2="app"><polygon fill="#181818" points="350.4634,1441.6348,340.4634,1445.6348,350.4634,1449.6348,346.4634,1445.6348" style="stroke:#181818;stroke-width:1;"/><line style="stroke:#181818;stroke-width:1;" x1="344.4634" x2="524.4277" y1="1445.6348" y2="1445.6348"/><text fill="#000000" font-family="sans-serif" font-size="13" lengthAdjust="spacing" textLength="108.3799" x="378.2556" y="1440.7783">Capture QR image</text></g><g class="message" data-participant-1="app" data-participant-2="qrModule"><polygon fill="#181818" points="632.7378,1471.9863,642.7378,1475.9863,632.7378,1479.9863,636.7378,1475.9863" style="stroke:#181818;stroke-width:1;"/><line style="stroke:#181818;stroke-width:1;" x1="339.4634" x2="638.7378" y1="1475.9863" y2="1475.9863"/><text fill="#000000" font-family="sans-serif" font-size="13" lengthAdjust="spacing" textLength="109.0908" x="437.5552" y="1471.1299">Process QR image</text></g><g class="message" data-participant-1="qrModule" data-participant-2="qrModule"><line style="stroke:#181818;stroke-width:1;" x1="644.7378" x2="686.7378" y1="1506.3379" y2="1506.3379"/><line style="stroke:#181818;stroke-width:1;" x1="686.7378" x2="686.7378" y1="1506.3379" y2="1519.3379"/><line style="stroke:#181818;stroke-width:1;" x1="645.7378" x2="686.7378" y1="1519.3379" y2="1519.3379"/><polygon fill="#181818" points="655.7378,1515.3379,645.7378,1519.3379,655.7378,1523.3379,651.7378,1519.3379" style="stroke:#181818;stroke-width:1;"/><text fill="#000000" font-family="sans-serif" font-size="13" lengthAdjust="spacing" textLength="157.5361" x="651.7378" y="1501.4814">Attempt to decode QR data</text></g><g class="message" data-participant-1="qrModule" data-participant-2="qrModule"><line style="stroke:#181818;stroke-width:1;" x1="644.7378" x2="686.7378" y1="1549.6895" y2="1549.6895"/><line style="stroke:#181818;stroke-width:1;" x1="686.7378" x2="686.7378" y1="1549.6895" y2="1562.6895"/><line style="stroke:#181818;stroke-width:1;" x1="645.7378" x2="686.7378" y1="1562.6895" y2="1562.6895"/><polygon fill="#181818" points="655.7378,1558.6895,645.7378,1562.6895,655.7378,1566.6895,651.7378,1562.6895" style="stroke:#181818;stroke-width:1;"/><text fill="#000000" font-family="sans-serif" font-size="13" lengthAdjust="spacing" textLength="119.9707" x="651.7378" y="1544.833">QR code unreadable</text></g><g class="message" data-participant-1="qrModule" data-participant-2="app"><polygon fill="#181818" points="350.4634,1589.041,340.4634,1593.041,350.4634,1597.041,346.4634,1593.041" style="stroke:#181818;stroke-width:1;"/><line style="stroke:#181818;stroke-width:1;stroke-dasharray:2.0,2.0;" x1="344.4634" x2="643.7378" y1="1593.041" y2="1593.041"/><text fill="#000000" font-family="sans-serif" font-size="13" lengthAdjust="spacing" textLength="70.0781" x="457.0615" y="1588.1846">Return error</text></g><g class="message" data-participant-1="app" data-participant-2="user"><polygon fill="#181818" points="33.7793,1619.3926,23.7793,1623.3926,33.7793,1627.3926,29.7793,1623.3926" style="stroke:#181818;stroke-width:1;"/><line style="stroke:#181818;stroke-width:1;" x1="27.7793" x2="338.4634" y1="1623.3926" y2="1623.3926"/><text fill="#000000" font-family="sans-serif" font-size="13" lengthAdjust="spacing" textLength="185.5547" x="88.344" y="1618.5361">Show "Could not read QR code"</text></g><g class="message" data-participant-1="app" data-participant-2="user"><polygon fill="#181818" points="33.7793,1649.7441,23.7793,1653.7441,33.7793,1657.7441,29.7793,1653.7441" style="stroke:#181818;stroke-width:1;"/><line style="stroke:#181818;stroke-width:1;" x1="27.7793" x2="338.4634" y1="1653.7441" y2="1653.7441"/><text fill="#000000" font-family="sans-serif" font-size="13" lengthAdjust="spacing" textLength="292.6841" x="34.7793" y="1648.8877">Suggest trying again with better lighting/positioning</text></g><!--SRC=[vLLDQnin4BthLmnx3uLU2WONpBg57W9kGdhAPIADroAxeuq-xFhVTwIrDhQfeST0R_lnzFJclHafl5eUqUC0WTuIiQPx2W4xMlMsOz34aRmAC-e5zMldNMBJkjvvEEnifBF_EsHpy3P6OjXY7qYfQ6DFq3orTv-_BE1H8yFF1sYTeKOfr55OcgT0lW4CaEH12LMqsex84Phlmk8sU8JLE1O8ZkCbOarxgmbQ7CXZWUZoU8cIFJVUQQdESlVCzywadWhwpKylIYsNS8-MuJ7f31InnEYjW-LIgImDxhxc_HVmWssq62cN4d99syGwMiVOstXKWfcXxOxqwqaIZEG7An8S1rLHqwy5FEG4GgnGB1hKwUskqgqcQPsNgiXSSwn4n3xhEbbmlRgjt0AZMK4kRG5h6yPUZ2xrs1py5ZKfTaBdzb9yOQYelQN3rhAHxmSRTzCgz8JlJbLH6nTizYQRfILt8J-3LucpmZ4cNuorWpHYrLXJMjGOtn6g_hl4hQbi9Z234M-0VabWvXJarla1umtWjz_HYsqmud6GgP0Q9hZKTRQYLl50KWI3AHBC9E0wgpNXlwLbPg2vwAng14tIP9zpKTV1jOwZvKHJNBA20vQMXMtl3i-Syc3SufB9MFNI4OovSUR1c2LkvhwMijZAyeytCgO8-tlFlsy2vBtpboWnUczBtuReKn4T83eG4rxwERtR9ZsnDBefsDFHzr-VA1_aV5Z9BJMCCGTf_kMegEhIdERjmP-QwDADnvqxGDEwr1kGsOJCKacRAsZgkXnSzCSybDZbMwdCxGk9QWzoE-zachjFuyaxULP_0000]--></g></svg>