<svg xmlns="http://www.w3.org/2000/svg" xmlns:xlink="http://www.w3.org/1999/xlink" contentStyleType="text/css" data-diagram-type="SEQUENCE" height="1412px" preserveAspectRatio="none" style="width:1085px;height:1412px;background:#FFFFFF;" version="1.1" viewBox="0 0 1085 1412" width="1085px" zoomAndPan="magnify"><title>UC-29: Block App Transactions</title><defs/><g><rect fill="#FFFFCC" height="28.0566" rx="2.5" ry="2.5" style="stroke:#FFDD88;stroke-width:3;" width="1074.8052" x="5" y="5"/><text fill="#000000" font-family="monospace" font-size="10" lengthAdjust="spacing" textLength="354.0576" x="10" y="20">Please&#160;use&#160;'!option&#160;handwritten&#160;true'&#160;to&#160;enable&#160;handwritten</text><text fill="#000000" font-family="sans-serif" font-size="14" font-weight="bold" lengthAdjust="spacing" textLength="209.2617" x="426.7717" y="67.5898">UC-29: Block App Transactions</text><g><title>User</title><rect fill="#000000" fill-opacity="0.00000" height="1171.0078" width="8" x="18.7793" y="159.2754"/><line style="stroke:#181818;stroke-width:0.5;stroke-dasharray:5.0,5.0;" x1="22" x2="22" y1="159.2754" y2="1330.2832"/></g><g><title>FalsoPay App</title><rect fill="#000000" fill-opacity="0.00000" height="1171.0078" width="8" x="294.2671" y="159.2754"/><line style="stroke:#181818;stroke-width:0.5;stroke-dasharray:5.0,5.0;" x1="297.688" x2="297.688" y1="159.2754" y2="1330.2832"/></g><g><title>API Gateway</title><rect fill="#000000" fill-opacity="0.00000" height="1171.0078" width="8" x="488.8159" y="159.2754"/><line style="stroke:#181818;stroke-width:0.5;stroke-dasharray:5.0,5.0;" x1="491.9644" x2="491.9644" y1="159.2754" y2="1330.2832"/></g><g><title>Security</title><rect fill="#000000" fill-opacity="0.00000" height="1171.0078" width="8" x="654.4258" y="159.2754"/><line style="stroke:#181818;stroke-width:0.5;stroke-dasharray:5.0,5.0;" x1="658.1396" x2="658.1396" y1="159.2754" y2="1330.2832"/></g><g><title>Transaction</title><rect fill="#000000" fill-opacity="0.00000" height="1171.0078" width="8" x="838.8564" y="159.2754"/><line style="stroke:#181818;stroke-width:0.5;stroke-dasharray:5.0,5.0;" x1="842.2842" x2="842.2842" y1="159.2754" y2="1330.2832"/></g><g><title>Database</title><rect fill="#000000" fill-opacity="0.00000" height="1171.0078" width="8" x="1021.8398" y="159.2754"/><line style="stroke:#181818;stroke-width:0.5;stroke-dasharray:5.0,5.0;" x1="1024.8745" x2="1024.8745" y1="159.2754" y2="1330.2832"/></g><g class="participant participant-head" data-participant="user"><text fill="#000000" font-family="sans-serif" font-size="14" lengthAdjust="spacing" textLength="29.5586" x="5" y="156.1992">User</text><ellipse cx="22.7793" cy="90.166" fill="#E2E2F0" rx="8" ry="8" style="stroke:#181818;stroke-width:0.5;"/><path d="M22.7793,98.166 L22.7793,125.166 M9.7793,106.166 L35.7793,106.166 M22.7793,125.166 L9.7793,140.166 M22.7793,125.166 L35.7793,140.166" fill="none" style="stroke:#181818;stroke-width:0.5;"/></g><g class="participant participant-tail" data-participant="user"><text fill="#000000" font-family="sans-serif" font-size="14" lengthAdjust="spacing" textLength="29.5586" x="5" y="1343.8164">User</text><ellipse cx="22.7793" cy="1355.3926" fill="#E2E2F0" rx="8" ry="8" style="stroke:#181818;stroke-width:0.5;"/><path d="M22.7793,1363.3926 L22.7793,1390.3926 M9.7793,1371.3926 L35.7793,1371.3926 M22.7793,1390.3926 L9.7793,1405.3926 M22.7793,1390.3926 L35.7793,1405.3926" fill="none" style="stroke:#181818;stroke-width:0.5;"/></g><g class="participant participant-head" data-participant="app"><rect fill="#E2E2F0" height="31.6094" rx="2.5" ry="2.5" style="stroke:#181818;stroke-width:0.5;" width="101.1582" x="247.688" y="126.666"/><text fill="#000000" font-family="sans-serif" font-size="14" lengthAdjust="spacing" textLength="87.1582" x="254.688" y="148.1992">FalsoPay App</text></g><g class="participant participant-tail" data-participant="app"><rect fill="#E2E2F0" height="31.6094" rx="2.5" ry="2.5" style="stroke:#181818;stroke-width:0.5;" width="101.1582" x="247.688" y="1329.2832"/><text fill="#000000" font-family="sans-serif" font-size="14" lengthAdjust="spacing" textLength="87.1582" x="254.688" y="1350.8164">FalsoPay App</text></g><g class="participant participant-head" data-participant="gateway"><rect fill="#E2E2F0" height="31.6094" rx="2.5" ry="2.5" style="stroke:#181818;stroke-width:0.5;" width="95.7031" x="444.9644" y="126.666"/><text fill="#000000" font-family="sans-serif" font-size="14" lengthAdjust="spacing" textLength="81.7031" x="451.9644" y="148.1992">API Gateway</text></g><g class="participant participant-tail" data-participant="gateway"><rect fill="#E2E2F0" height="31.6094" rx="2.5" ry="2.5" style="stroke:#181818;stroke-width:0.5;" width="95.7031" x="444.9644" y="1329.2832"/><text fill="#000000" font-family="sans-serif" font-size="14" lengthAdjust="spacing" textLength="81.7031" x="451.9644" y="1350.8164">API Gateway</text></g><g class="participant participant-head" data-participant="securityService"><rect fill="#E2E2F0" height="49.2188" rx="2.5" ry="2.5" style="stroke:#181818;stroke-width:0.5;" width="64.5723" x="626.1396" y="109.0566"/><text fill="#000000" font-family="sans-serif" font-size="14" lengthAdjust="spacing" textLength="50.5723" x="633.1396" y="130.5898">Security</text><text fill="#000000" font-family="sans-serif" font-size="14" lengthAdjust="spacing" textLength="46.6826" x="635.0845" y="148.1992">Service</text></g><g class="participant participant-tail" data-participant="securityService"><rect fill="#E2E2F0" height="49.2188" rx="2.5" ry="2.5" style="stroke:#181818;stroke-width:0.5;" width="64.5723" x="626.1396" y="1329.2832"/><text fill="#000000" font-family="sans-serif" font-size="14" lengthAdjust="spacing" textLength="50.5723" x="633.1396" y="1350.8164">Security</text><text fill="#000000" font-family="sans-serif" font-size="14" lengthAdjust="spacing" textLength="46.6826" x="635.0845" y="1368.4258">Service</text></g><g class="participant participant-head" data-participant="txnService"><rect fill="#E2E2F0" height="49.2188" rx="2.5" ry="2.5" style="stroke:#181818;stroke-width:0.5;" width="87.1445" x="799.2842" y="109.0566"/><text fill="#000000" font-family="sans-serif" font-size="14" lengthAdjust="spacing" textLength="73.1445" x="806.2842" y="130.5898">Transaction</text><text fill="#000000" font-family="sans-serif" font-size="14" lengthAdjust="spacing" textLength="46.6826" x="819.5151" y="148.1992">Service</text></g><g class="participant participant-tail" data-participant="txnService"><rect fill="#E2E2F0" height="49.2188" rx="2.5" ry="2.5" style="stroke:#181818;stroke-width:0.5;" width="87.1445" x="799.2842" y="1329.2832"/><text fill="#000000" font-family="sans-serif" font-size="14" lengthAdjust="spacing" textLength="73.1445" x="806.2842" y="1350.8164">Transaction</text><text fill="#000000" font-family="sans-serif" font-size="14" lengthAdjust="spacing" textLength="46.6826" x="819.5151" y="1368.4258">Service</text></g><g class="participant participant-head" data-participant="db"><text fill="#000000" font-family="sans-serif" font-size="14" lengthAdjust="spacing" textLength="59.9307" x="992.8745" y="156.1992">Database</text><path d="M1007.8398,105.666 C1007.8398,95.666 1025.8398,95.666 1025.8398,95.666 C1025.8398,95.666 1043.8398,95.666 1043.8398,105.666 L1043.8398,131.666 C1043.8398,141.666 1025.8398,141.666 1025.8398,141.666 C1025.8398,141.666 1007.8398,141.666 1007.8398,131.666 L1007.8398,105.666" fill="#E2E2F0" style="stroke:#181818;stroke-width:1.5;"/><path d="M1007.8398,105.666 C1007.8398,115.666 1025.8398,115.666 1025.8398,115.666 C1025.8398,115.666 1043.8398,115.666 1043.8398,105.666" fill="none" style="stroke:#181818;stroke-width:1.5;"/></g><g class="participant participant-tail" data-participant="db"><text fill="#000000" font-family="sans-serif" font-size="14" lengthAdjust="spacing" textLength="59.9307" x="992.8745" y="1343.8164">Database</text><path d="M1007.8398,1356.8926 C1007.8398,1346.8926 1025.8398,1346.8926 1025.8398,1346.8926 C1025.8398,1346.8926 1043.8398,1346.8926 1043.8398,1356.8926 L1043.8398,1382.8926 C1043.8398,1392.8926 1025.8398,1392.8926 1025.8398,1392.8926 C1025.8398,1392.8926 1007.8398,1392.8926 1007.8398,1382.8926 L1007.8398,1356.8926" fill="#E2E2F0" style="stroke:#181818;stroke-width:1.5;"/><path d="M1007.8398,1356.8926 C1007.8398,1366.8926 1025.8398,1366.8926 1025.8398,1366.8926 C1025.8398,1366.8926 1043.8398,1366.8926 1043.8398,1356.8926" fill="none" style="stroke:#181818;stroke-width:1.5;"/></g><rect fill="#EEEEEE" height="3" style="stroke:#EEEEEE;stroke-width:1;" width="1063.8052" x="0" y="190.4512"/><line style="stroke:#000000;stroke-width:1;" x1="0" x2="1063.8052" y1="190.4512" y2="190.4512"/><line style="stroke:#000000;stroke-width:1;" x1="0" x2="1063.8052" y1="193.4512" y2="193.4512"/><rect fill="#EEEEEE" height="24.3516" style="stroke:#000000;stroke-width:2;" width="162.1226" x="450.8413" y="179.2754"/><text fill="#000000" font-family="sans-serif" font-size="13" font-weight="bold" lengthAdjust="spacing" textLength="144.5107" x="456.8413" y="196.7705">Main Success Scenario</text><g class="message" data-participant-1="user" data-participant-2="app"><polygon fill="#181818" points="286.2671,231.9785,296.2671,235.9785,286.2671,239.9785,290.2671,235.9785" style="stroke:#181818;stroke-width:1;"/><line style="stroke:#181818;stroke-width:1;" x1="22.7793" x2="292.2671" y1="235.9785" y2="235.9785"/><text fill="#000000" font-family="sans-serif" font-size="13" lengthAdjust="spacing" textLength="138.7153" x="91.1655" y="231.1221">Access security settings</text></g><g class="message" data-participant-1="app" data-participant-2="user"><polygon fill="#181818" points="33.7793,262.3301,23.7793,266.3301,33.7793,270.3301,29.7793,266.3301" style="stroke:#181818;stroke-width:1;"/><line style="stroke:#181818;stroke-width:1;" x1="27.7793" x2="297.2671" y1="266.3301" y2="266.3301"/><text fill="#000000" font-family="sans-serif" font-size="13" lengthAdjust="spacing" textLength="136.5571" x="92.2446" y="261.4736">Display security options</text></g><g class="message" data-participant-1="user" data-participant-2="app"><polygon fill="#181818" points="286.2671,292.6816,296.2671,296.6816,286.2671,300.6816,290.2671,296.6816" style="stroke:#181818;stroke-width:1;"/><line style="stroke:#181818;stroke-width:1;" x1="22.7793" x2="292.2671" y1="296.6816" y2="296.6816"/><text fill="#000000" font-family="sans-serif" font-size="13" lengthAdjust="spacing" textLength="176.3252" x="72.3606" y="291.8252">Select transaction block option</text></g><g class="message" data-participant-1="app" data-participant-2="gateway"><polygon fill="#181818" points="480.8159,323.0332,490.8159,327.0332,480.8159,331.0332,484.8159,327.0332" style="stroke:#181818;stroke-width:1;"/><line style="stroke:#181818;stroke-width:1;" x1="298.2671" x2="486.8159" y1="327.0332" y2="327.0332"/><text fill="#000000" font-family="sans-serif" font-size="13" lengthAdjust="spacing" textLength="149.5825" x="320.7502" y="322.1768">Request transaction block</text></g><g class="message" data-participant-1="gateway" data-participant-2="securityService"><polygon fill="#181818" points="646.4258,353.3848,656.4258,357.3848,646.4258,361.3848,650.4258,357.3848" style="stroke:#181818;stroke-width:1;"/><line style="stroke:#181818;stroke-width:1;" x1="492.8159" x2="652.4258" y1="357.3848" y2="357.3848"/><text fill="#000000" font-family="sans-serif" font-size="13" lengthAdjust="spacing" textLength="128.6099" x="511.3159" y="352.5283">Forward block request</text></g><g class="message" data-participant-1="securityService" data-participant-2="txnService"><polygon fill="#181818" points="830.8564,383.7363,840.8564,387.7363,830.8564,391.7363,834.8564,387.7363" style="stroke:#181818;stroke-width:1;"/><line style="stroke:#181818;stroke-width:1;" x1="658.4258" x2="836.8564" y1="387.7363" y2="387.7363"/><text fill="#000000" font-family="sans-serif" font-size="13" lengthAdjust="spacing" textLength="160.4307" x="670.4258" y="382.8799">Check pending transactions</text></g><g class="message" data-participant-1="txnService" data-participant-2="db"><polygon fill="#181818" points="1013.8398,414.0879,1023.8398,418.0879,1013.8398,422.0879,1017.8398,418.0879" style="stroke:#181818;stroke-width:1;"/><line style="stroke:#181818;stroke-width:1;" x1="842.8564" x2="1019.8398" y1="418.0879" y2="418.0879"/><text fill="#000000" font-family="sans-serif" font-size="13" lengthAdjust="spacing" textLength="158.9834" x="854.8564" y="413.2314">Query pending transactions</text></g><g class="message" data-participant-1="db" data-participant-2="txnService"><polygon fill="#181818" points="853.8564,444.4395,843.8564,448.4395,853.8564,452.4395,849.8564,448.4395" style="stroke:#181818;stroke-width:1;"/><line style="stroke:#181818;stroke-width:1;stroke-dasharray:2.0,2.0;" x1="847.8564" x2="1024.8398" y1="448.4395" y2="448.4395"/><text fill="#000000" font-family="sans-serif" font-size="13" lengthAdjust="spacing" textLength="140.2007" x="864.2478" y="443.583">No pending transactions</text></g><g class="message" data-participant-1="txnService" data-participant-2="securityService"><polygon fill="#181818" points="669.4258,474.791,659.4258,478.791,669.4258,482.791,665.4258,478.791" style="stroke:#181818;stroke-width:1;"/><line style="stroke:#181818;stroke-width:1;stroke-dasharray:2.0,2.0;" x1="663.4258" x2="841.8564" y1="478.791" y2="478.791"/><text fill="#000000" font-family="sans-serif" font-size="13" lengthAdjust="spacing" textLength="140.2007" x="680.5408" y="473.9346">No pending transactions</text></g><g class="message" data-participant-1="securityService" data-participant-2="db"><polygon fill="#181818" points="1013.8398,505.1426,1023.8398,509.1426,1013.8398,513.1426,1017.8398,509.1426" style="stroke:#181818;stroke-width:1;"/><line style="stroke:#181818;stroke-width:1;" x1="658.4258" x2="1019.8398" y1="509.1426" y2="509.1426"/><text fill="#000000" font-family="sans-serif" font-size="13" lengthAdjust="spacing" textLength="237.0278" x="723.6189" y="504.2861">Set account transaction status to blocked</text></g><g class="message" data-participant-1="db" data-participant-2="securityService"><polygon fill="#181818" points="669.4258,535.4941,659.4258,539.4941,669.4258,543.4941,665.4258,539.4941" style="stroke:#181818;stroke-width:1;"/><line style="stroke:#181818;stroke-width:1;stroke-dasharray:2.0,2.0;" x1="663.4258" x2="1024.8398" y1="539.4941" y2="539.4941"/><text fill="#000000" font-family="sans-serif" font-size="13" lengthAdjust="spacing" textLength="87.458" x="798.4038" y="534.6377">Status updated</text></g><g class="message" data-participant-1="securityService" data-participant-2="gateway"><polygon fill="#181818" points="503.8159,565.8457,493.8159,569.8457,503.8159,573.8457,499.8159,569.8457" style="stroke:#181818;stroke-width:1;"/><line style="stroke:#181818;stroke-width:1;" x1="497.8159" x2="657.4258" y1="569.8457" y2="569.8457"/><text fill="#000000" font-family="sans-serif" font-size="13" lengthAdjust="spacing" textLength="96.0908" x="527.5754" y="564.9893">Block successful</text></g><g class="message" data-participant-1="gateway" data-participant-2="app"><polygon fill="#181818" points="309.2671,596.1973,299.2671,600.1973,309.2671,604.1973,305.2671,600.1973" style="stroke:#181818;stroke-width:1;"/><line style="stroke:#181818;stroke-width:1;" x1="303.2671" x2="491.8159" y1="600.1973" y2="600.1973"/><text fill="#000000" font-family="sans-serif" font-size="13" lengthAdjust="spacing" textLength="92.479" x="349.302" y="595.3408">Block confirmed</text></g><g class="message" data-participant-1="app" data-participant-2="user"><polygon fill="#181818" points="33.7793,626.5488,23.7793,630.5488,33.7793,634.5488,29.7793,630.5488" style="stroke:#181818;stroke-width:1;"/><line style="stroke:#181818;stroke-width:1;" x1="27.7793" x2="297.2671" y1="630.5488" y2="630.5488"/><text fill="#000000" font-family="sans-serif" font-size="13" lengthAdjust="spacing" textLength="151.0044" x="85.021" y="625.6924">Display block confirmation</text></g><rect fill="#EEEEEE" height="3" style="stroke:#EEEEEE;stroke-width:1;" width="1063.8052" x="0" y="659.7246"/><line style="stroke:#000000;stroke-width:1;" x1="0" x2="1063.8052" y1="659.7246" y2="659.7246"/><line style="stroke:#000000;stroke-width:1;" x1="0" x2="1063.8052" y1="662.7246" y2="662.7246"/><rect fill="#EEEEEE" height="24.3516" style="stroke:#000000;stroke-width:2;" width="321.7534" x="371.0259" y="648.5488"/><text fill="#000000" font-family="sans-serif" font-size="13" font-weight="bold" lengthAdjust="spacing" textLength="304.1416" x="377.0259" y="666.0439">Alternative Scenario: Pending Transactions Exist</text><g class="message" data-participant-1="user" data-participant-2="app"><polygon fill="#181818" points="286.2671,701.252,296.2671,705.252,286.2671,709.252,290.2671,705.252" style="stroke:#181818;stroke-width:1;"/><line style="stroke:#181818;stroke-width:1;" x1="22.7793" x2="292.2671" y1="705.252" y2="705.252"/><text fill="#000000" font-family="sans-serif" font-size="13" lengthAdjust="spacing" textLength="138.7153" x="91.1655" y="700.3955">Access security settings</text></g><g class="message" data-participant-1="app" data-participant-2="user"><polygon fill="#181818" points="33.7793,731.6035,23.7793,735.6035,33.7793,739.6035,29.7793,735.6035" style="stroke:#181818;stroke-width:1;"/><line style="stroke:#181818;stroke-width:1;" x1="27.7793" x2="297.2671" y1="735.6035" y2="735.6035"/><text fill="#000000" font-family="sans-serif" font-size="13" lengthAdjust="spacing" textLength="136.5571" x="92.2446" y="730.7471">Display security options</text></g><g class="message" data-participant-1="user" data-participant-2="app"><polygon fill="#181818" points="286.2671,761.9551,296.2671,765.9551,286.2671,769.9551,290.2671,765.9551" style="stroke:#181818;stroke-width:1;"/><line style="stroke:#181818;stroke-width:1;" x1="22.7793" x2="292.2671" y1="765.9551" y2="765.9551"/><text fill="#000000" font-family="sans-serif" font-size="13" lengthAdjust="spacing" textLength="176.3252" x="72.3606" y="761.0986">Select transaction block option</text></g><g class="message" data-participant-1="app" data-participant-2="gateway"><polygon fill="#181818" points="480.8159,792.3066,490.8159,796.3066,480.8159,800.3066,484.8159,796.3066" style="stroke:#181818;stroke-width:1;"/><line style="stroke:#181818;stroke-width:1;" x1="298.2671" x2="486.8159" y1="796.3066" y2="796.3066"/><text fill="#000000" font-family="sans-serif" font-size="13" lengthAdjust="spacing" textLength="149.5825" x="320.7502" y="791.4502">Request transaction block</text></g><g class="message" data-participant-1="gateway" data-participant-2="securityService"><polygon fill="#181818" points="646.4258,822.6582,656.4258,826.6582,646.4258,830.6582,650.4258,826.6582" style="stroke:#181818;stroke-width:1;"/><line style="stroke:#181818;stroke-width:1;" x1="492.8159" x2="652.4258" y1="826.6582" y2="826.6582"/><text fill="#000000" font-family="sans-serif" font-size="13" lengthAdjust="spacing" textLength="128.6099" x="511.3159" y="821.8018">Forward block request</text></g><g class="message" data-participant-1="securityService" data-participant-2="txnService"><polygon fill="#181818" points="830.8564,853.0098,840.8564,857.0098,830.8564,861.0098,834.8564,857.0098" style="stroke:#181818;stroke-width:1;"/><line style="stroke:#181818;stroke-width:1;" x1="658.4258" x2="836.8564" y1="857.0098" y2="857.0098"/><text fill="#000000" font-family="sans-serif" font-size="13" lengthAdjust="spacing" textLength="160.4307" x="670.4258" y="852.1533">Check pending transactions</text></g><g class="message" data-participant-1="txnService" data-participant-2="db"><polygon fill="#181818" points="1013.8398,883.3613,1023.8398,887.3613,1013.8398,891.3613,1017.8398,887.3613" style="stroke:#181818;stroke-width:1;"/><line style="stroke:#181818;stroke-width:1;" x1="842.8564" x2="1019.8398" y1="887.3613" y2="887.3613"/><text fill="#000000" font-family="sans-serif" font-size="13" lengthAdjust="spacing" textLength="158.9834" x="854.8564" y="882.5049">Query pending transactions</text></g><g class="message" data-participant-1="db" data-participant-2="txnService"><polygon fill="#181818" points="853.8564,913.7129,843.8564,917.7129,853.8564,921.7129,849.8564,917.7129" style="stroke:#181818;stroke-width:1;"/><line style="stroke:#181818;stroke-width:1;stroke-dasharray:2.0,2.0;" x1="847.8564" x2="1024.8398" y1="917.7129" y2="917.7129"/><text fill="#000000" font-family="sans-serif" font-size="13" lengthAdjust="spacing" textLength="151.7534" x="858.4714" y="912.8564">Pending transactions exist</text></g><g class="message" data-participant-1="txnService" data-participant-2="securityService"><polygon fill="#181818" points="669.4258,944.0645,659.4258,948.0645,669.4258,952.0645,665.4258,948.0645" style="stroke:#181818;stroke-width:1;"/><line style="stroke:#181818;stroke-width:1;stroke-dasharray:2.0,2.0;" x1="663.4258" x2="841.8564" y1="948.0645" y2="948.0645"/><text fill="#000000" font-family="sans-serif" font-size="13" lengthAdjust="spacing" textLength="157.5552" x="671.8635" y="943.208">Pending transactions found</text></g><g class="message" data-participant-1="securityService" data-participant-2="gateway"><polygon fill="#181818" points="503.8159,974.416,493.8159,978.416,503.8159,982.416,499.8159,978.416" style="stroke:#181818;stroke-width:1;"/><line style="stroke:#181818;stroke-width:1;" x1="497.8159" x2="657.4258" y1="978.416" y2="978.416"/><text fill="#000000" font-family="sans-serif" font-size="13" lengthAdjust="spacing" textLength="95.3989" x="527.9214" y="973.5596">Warning needed</text></g><g class="message" data-participant-1="gateway" data-participant-2="app"><polygon fill="#181818" points="309.2671,1004.7676,299.2671,1008.7676,309.2671,1012.7676,305.2671,1008.7676" style="stroke:#181818;stroke-width:1;"/><line style="stroke:#181818;stroke-width:1;" x1="303.2671" x2="491.8159" y1="1008.7676" y2="1008.7676"/><text fill="#000000" font-family="sans-serif" font-size="13" lengthAdjust="spacing" textLength="170.5488" x="310.2671" y="1003.9111">Pending transactions warning</text></g><g class="message" data-participant-1="app" data-participant-2="user"><polygon fill="#181818" points="33.7793,1035.1191,23.7793,1039.1191,33.7793,1043.1191,29.7793,1039.1191" style="stroke:#181818;stroke-width:1;"/><line style="stroke:#181818;stroke-width:1;" x1="27.7793" x2="297.2671" y1="1039.1191" y2="1039.1191"/><text fill="#000000" font-family="sans-serif" font-size="13" lengthAdjust="spacing" textLength="251.4878" x="34.7793" y="1034.2627">Display warning about pending transactions</text></g><g class="message" data-participant-1="app" data-participant-2="user"><polygon fill="#181818" points="33.7793,1065.4707,23.7793,1069.4707,33.7793,1073.4707,29.7793,1069.4707" style="stroke:#181818;stroke-width:1;"/><line style="stroke:#181818;stroke-width:1;" x1="27.7793" x2="297.2671" y1="1069.4707" y2="1069.4707"/><text fill="#000000" font-family="sans-serif" font-size="13" lengthAdjust="spacing" textLength="210.9771" x="55.0347" y="1064.6143">Ask for confirmation to block anyway</text></g><g class="message" data-participant-1="user" data-participant-2="app"><polygon fill="#181818" points="286.2671,1095.8223,296.2671,1099.8223,286.2671,1103.8223,290.2671,1099.8223" style="stroke:#181818;stroke-width:1;"/><line style="stroke:#181818;stroke-width:1;" x1="22.7793" x2="292.2671" y1="1099.8223" y2="1099.8223"/><text fill="#000000" font-family="sans-serif" font-size="13" lengthAdjust="spacing" textLength="248.5806" x="36.2329" y="1094.9658">Confirm block despite pending transactions</text></g><g class="message" data-participant-1="app" data-participant-2="gateway"><polygon fill="#181818" points="480.8159,1126.1738,490.8159,1130.1738,480.8159,1134.1738,484.8159,1130.1738" style="stroke:#181818;stroke-width:1;"/><line style="stroke:#181818;stroke-width:1;" x1="298.2671" x2="486.8159" y1="1130.1738" y2="1130.1738"/><text fill="#000000" font-family="sans-serif" font-size="13" lengthAdjust="spacing" textLength="126.439" x="332.322" y="1125.3174">Confirm block request</text></g><g class="message" data-participant-1="gateway" data-participant-2="securityService"><polygon fill="#181818" points="646.4258,1156.5254,656.4258,1160.5254,646.4258,1164.5254,650.4258,1160.5254" style="stroke:#181818;stroke-width:1;"/><line style="stroke:#181818;stroke-width:1;" x1="492.8159" x2="652.4258" y1="1160.5254" y2="1160.5254"/><text fill="#000000" font-family="sans-serif" font-size="13" lengthAdjust="spacing" textLength="141.6099" x="504.8159" y="1155.6689">Process confirmed block</text></g><g class="message" data-participant-1="securityService" data-participant-2="db"><polygon fill="#181818" points="1013.8398,1186.877,1023.8398,1190.877,1013.8398,1194.877,1017.8398,1190.877" style="stroke:#181818;stroke-width:1;"/><line style="stroke:#181818;stroke-width:1;" x1="658.4258" x2="1019.8398" y1="1190.877" y2="1190.877"/><text fill="#000000" font-family="sans-serif" font-size="13" lengthAdjust="spacing" textLength="237.0278" x="723.6189" y="1186.0205">Set account transaction status to blocked</text></g><g class="message" data-participant-1="db" data-participant-2="securityService"><polygon fill="#181818" points="669.4258,1217.2285,659.4258,1221.2285,669.4258,1225.2285,665.4258,1221.2285" style="stroke:#181818;stroke-width:1;"/><line style="stroke:#181818;stroke-width:1;stroke-dasharray:2.0,2.0;" x1="663.4258" x2="1024.8398" y1="1221.2285" y2="1221.2285"/><text fill="#000000" font-family="sans-serif" font-size="13" lengthAdjust="spacing" textLength="87.458" x="798.4038" y="1216.3721">Status updated</text></g><g class="message" data-participant-1="securityService" data-participant-2="gateway"><polygon fill="#181818" points="503.8159,1247.5801,493.8159,1251.5801,503.8159,1255.5801,499.8159,1251.5801" style="stroke:#181818;stroke-width:1;"/><line style="stroke:#181818;stroke-width:1;" x1="497.8159" x2="657.4258" y1="1251.5801" y2="1251.5801"/><text fill="#000000" font-family="sans-serif" font-size="13" lengthAdjust="spacing" textLength="96.0908" x="527.5754" y="1246.7236">Block successful</text></g><g class="message" data-participant-1="gateway" data-participant-2="app"><polygon fill="#181818" points="309.2671,1277.9316,299.2671,1281.9316,309.2671,1285.9316,305.2671,1281.9316" style="stroke:#181818;stroke-width:1;"/><line style="stroke:#181818;stroke-width:1;" x1="303.2671" x2="491.8159" y1="1281.9316" y2="1281.9316"/><text fill="#000000" font-family="sans-serif" font-size="13" lengthAdjust="spacing" textLength="92.479" x="349.302" y="1277.0752">Block confirmed</text></g><g class="message" data-participant-1="app" data-participant-2="user"><polygon fill="#181818" points="33.7793,1308.2832,23.7793,1312.2832,33.7793,1316.2832,29.7793,1312.2832" style="stroke:#181818;stroke-width:1;"/><line style="stroke:#181818;stroke-width:1;" x1="27.7793" x2="297.2671" y1="1312.2832" y2="1312.2832"/><text fill="#000000" font-family="sans-serif" font-size="13" lengthAdjust="spacing" textLength="151.0044" x="85.021" y="1307.4268">Display block confirmation</text></g><!--SRC=[xPMnajCm48PxFSLE-ZHqU2RCc1p7K1mJC3SqD6jvasZYauGadyzlpyfs73k8N4N3qCdMzwzsL__Q_gIqHOTFuEbdGrhI0tcF1yfhTT0WIGTomazKYV9qSARHrTRKna5xL85c-qVKLUjK2AHXZxKd8O8ADS7gSRj-ypQ3zxMH9yYjXMyEjKSPbD5-9GIlEDxgqPDR0NfeU24uQ51IMTG1LlSSp-omY-eUGMkNHBxx11ynK8jT3no6zH8gI3QSOVT35-IUbQGUzUFRyTrICajrgGelvqTHOS0IFLTwDwvweYg5s6pW0PM6ef6Ikmi5jnMTCh3P217hXFMxM4m6-G2Sa-5524eVlE3T24KuWplbROtT1JEsx-9Li89gaW729Nae- -uF-3dcsAGClaO7-8H0Z4Yah_gKmRrnBRfg3Es6649SSL5wQLO6soCnRKbNNDxyH2ykM1HLPGPV6d9T6gvAM5-5_cnUZvigv4-wL2angu82e9Gy2ykM-O2XOMkOeILKdPFyxSHY81lBtc4iTT1qESFS-C51-wQUtqb_smCWZTuhzyJHaeufvn3sBeZkp6kUSitFppIPCuFTs8tveCA75yKM-M_Sls3SNO83Ylr-rRj9wJv-fc-xwZiw7NMQg6BFN7ig6ROTDEcR7JS1IzE4TEKBNUvFdATRM78Q7K3TnS_tqXtR0HsHYhpbNz3DewPobzBpbTyooSwPtjZJN8t6-iS_2hy0]--></g></svg>