<svg xmlns="http://www.w3.org/2000/svg" xmlns:xlink="http://www.w3.org/1999/xlink" contentStyleType="text/css" data-diagram-type="SEQUENCE" height="2089px" preserveAspectRatio="none" style="width:996px;height:2089px;background:#FFFFFF;" version="1.1" viewBox="0 0 996 2089" width="996px" zoomAndPan="magnify"><title>UC-30: Unblock App Transactions</title><defs/><g><rect fill="#FFFFCC" height="28.0566" rx="2.5" ry="2.5" style="stroke:#FFDD88;stroke-width:3;" width="985.8135" x="5" y="5"/><text fill="#000000" font-family="monospace" font-size="10" lengthAdjust="spacing" textLength="354.0576" x="10" y="20">Please&#160;use&#160;'!option&#160;handwritten&#160;true'&#160;to&#160;enable&#160;handwritten</text><text fill="#000000" font-family="sans-serif" font-size="14" font-weight="bold" lengthAdjust="spacing" textLength="226.3652" x="373.7241" y="67.5898">UC-30: Unblock App Transactions</text><rect fill="none" height="441.7578" style="stroke:#000000;stroke-width:1.5;" width="954.8135" x="10" y="597.8457"/><g><title>User</title><rect fill="#000000" fill-opacity="0.00000" height="1847.875" width="8" x="33.7793" y="159.2754"/><line style="stroke:#181818;stroke-width:0.5;stroke-dasharray:5.0,5.0;" x1="37" x2="37" y1="159.2754" y2="2007.1504"/></g><g><title>FalsoPay App</title><rect fill="#000000" fill-opacity="0.00000" height="1847.875" width="8" x="255.0645" y="159.2754"/><line style="stroke:#181818;stroke-width:0.5;stroke-dasharray:5.0,5.0;" x1="258.4854" x2="258.4854" y1="159.2754" y2="2007.1504"/></g><g><title>API Gateway</title><rect fill="#000000" fill-opacity="0.00000" height="1847.875" width="8" x="443.1069" y="159.2754"/><line style="stroke:#181818;stroke-width:0.5;stroke-dasharray:5.0,5.0;" x1="446.2554" x2="446.2554" y1="159.2754" y2="2007.1504"/></g><g><title>Security</title><rect fill="#000000" fill-opacity="0.00000" height="1847.875" width="8" x="610.1768" y="159.2754"/><line style="stroke:#181818;stroke-width:0.5;stroke-dasharray:5.0,5.0;" x1="613.8906" x2="613.8906" y1="159.2754" y2="2007.1504"/></g><g><title>Authentication</title><rect fill="#000000" fill-opacity="0.00000" height="1847.875" width="8" x="797.6138" y="159.2754"/><line style="stroke:#181818;stroke-width:0.5;stroke-dasharray:5.0,5.0;" x1="801.2485" x2="801.2485" y1="159.2754" y2="2007.1504"/></g><g><title>Database</title><rect fill="#000000" fill-opacity="0.00000" height="1847.875" width="8" x="917.8481" y="159.2754"/><line style="stroke:#181818;stroke-width:0.5;stroke-dasharray:5.0,5.0;" x1="920.8828" x2="920.8828" y1="159.2754" y2="2007.1504"/></g><g class="participant participant-head" data-participant="user"><text fill="#000000" font-family="sans-serif" font-size="14" lengthAdjust="spacing" textLength="29.5586" x="20" y="156.1992">User</text><ellipse cx="37.7793" cy="90.166" fill="#E2E2F0" rx="8" ry="8" style="stroke:#181818;stroke-width:0.5;"/><path d="M37.7793,98.166 L37.7793,125.166 M24.7793,106.166 L50.7793,106.166 M37.7793,125.166 L24.7793,140.166 M37.7793,125.166 L50.7793,140.166" fill="none" style="stroke:#181818;stroke-width:0.5;"/></g><g class="participant participant-tail" data-participant="user"><text fill="#000000" font-family="sans-serif" font-size="14" lengthAdjust="spacing" textLength="29.5586" x="20" y="2020.6836">User</text><ellipse cx="37.7793" cy="2032.2598" fill="#E2E2F0" rx="8" ry="8" style="stroke:#181818;stroke-width:0.5;"/><path d="M37.7793,2040.2598 L37.7793,2067.2598 M24.7793,2048.2598 L50.7793,2048.2598 M37.7793,2067.2598 L24.7793,2082.2598 M37.7793,2067.2598 L50.7793,2082.2598" fill="none" style="stroke:#181818;stroke-width:0.5;"/></g><g class="participant participant-head" data-participant="app"><rect fill="#E2E2F0" height="31.6094" rx="2.5" ry="2.5" style="stroke:#181818;stroke-width:0.5;" width="101.1582" x="208.4854" y="126.666"/><text fill="#000000" font-family="sans-serif" font-size="14" lengthAdjust="spacing" textLength="87.1582" x="215.4854" y="148.1992">FalsoPay App</text></g><g class="participant participant-tail" data-participant="app"><rect fill="#E2E2F0" height="31.6094" rx="2.5" ry="2.5" style="stroke:#181818;stroke-width:0.5;" width="101.1582" x="208.4854" y="2006.1504"/><text fill="#000000" font-family="sans-serif" font-size="14" lengthAdjust="spacing" textLength="87.1582" x="215.4854" y="2027.6836">FalsoPay App</text></g><g class="participant participant-head" data-participant="gateway"><rect fill="#E2E2F0" height="31.6094" rx="2.5" ry="2.5" style="stroke:#181818;stroke-width:0.5;" width="95.7031" x="399.2554" y="126.666"/><text fill="#000000" font-family="sans-serif" font-size="14" lengthAdjust="spacing" textLength="81.7031" x="406.2554" y="148.1992">API Gateway</text></g><g class="participant participant-tail" data-participant="gateway"><rect fill="#E2E2F0" height="31.6094" rx="2.5" ry="2.5" style="stroke:#181818;stroke-width:0.5;" width="95.7031" x="399.2554" y="2006.1504"/><text fill="#000000" font-family="sans-serif" font-size="14" lengthAdjust="spacing" textLength="81.7031" x="406.2554" y="2027.6836">API Gateway</text></g><g class="participant participant-head" data-participant="securityService"><rect fill="#E2E2F0" height="49.2188" rx="2.5" ry="2.5" style="stroke:#181818;stroke-width:0.5;" width="64.5723" x="581.8906" y="109.0566"/><text fill="#000000" font-family="sans-serif" font-size="14" lengthAdjust="spacing" textLength="50.5723" x="588.8906" y="130.5898">Security</text><text fill="#000000" font-family="sans-serif" font-size="14" lengthAdjust="spacing" textLength="46.6826" x="590.8354" y="148.1992">Service</text></g><g class="participant participant-tail" data-participant="securityService"><rect fill="#E2E2F0" height="49.2188" rx="2.5" ry="2.5" style="stroke:#181818;stroke-width:0.5;" width="64.5723" x="581.8906" y="2006.1504"/><text fill="#000000" font-family="sans-serif" font-size="14" lengthAdjust="spacing" textLength="50.5723" x="588.8906" y="2027.6836">Security</text><text fill="#000000" font-family="sans-serif" font-size="14" lengthAdjust="spacing" textLength="46.6826" x="590.8354" y="2045.293">Service</text></g><g class="participant participant-head" data-participant="authService"><rect fill="#E2E2F0" height="49.2188" rx="2.5" ry="2.5" style="stroke:#181818;stroke-width:0.5;" width="102.7305" x="750.2485" y="109.0566"/><text fill="#000000" font-family="sans-serif" font-size="14" lengthAdjust="spacing" textLength="88.7305" x="757.2485" y="130.5898">Authentication</text><text fill="#000000" font-family="sans-serif" font-size="14" lengthAdjust="spacing" textLength="46.6826" x="778.2725" y="148.1992">Service</text></g><g class="participant participant-tail" data-participant="authService"><rect fill="#E2E2F0" height="49.2188" rx="2.5" ry="2.5" style="stroke:#181818;stroke-width:0.5;" width="102.7305" x="750.2485" y="2006.1504"/><text fill="#000000" font-family="sans-serif" font-size="14" lengthAdjust="spacing" textLength="88.7305" x="757.2485" y="2027.6836">Authentication</text><text fill="#000000" font-family="sans-serif" font-size="14" lengthAdjust="spacing" textLength="46.6826" x="778.2725" y="2045.293">Service</text></g><g class="participant participant-head" data-participant="db"><text fill="#000000" font-family="sans-serif" font-size="14" lengthAdjust="spacing" textLength="59.9307" x="888.8828" y="156.1992">Database</text><path d="M903.8481,105.666 C903.8481,95.666 921.8481,95.666 921.8481,95.666 C921.8481,95.666 939.8481,95.666 939.8481,105.666 L939.8481,131.666 C939.8481,141.666 921.8481,141.666 921.8481,141.666 C921.8481,141.666 903.8481,141.666 903.8481,131.666 L903.8481,105.666" fill="#E2E2F0" style="stroke:#181818;stroke-width:1.5;"/><path d="M903.8481,105.666 C903.8481,115.666 921.8481,115.666 921.8481,115.666 C921.8481,115.666 939.8481,115.666 939.8481,105.666" fill="none" style="stroke:#181818;stroke-width:1.5;"/></g><g class="participant participant-tail" data-participant="db"><text fill="#000000" font-family="sans-serif" font-size="14" lengthAdjust="spacing" textLength="59.9307" x="888.8828" y="2020.6836">Database</text><path d="M903.8481,2033.7598 C903.8481,2023.7598 921.8481,2023.7598 921.8481,2023.7598 C921.8481,2023.7598 939.8481,2023.7598 939.8481,2033.7598 L939.8481,2059.7598 C939.8481,2069.7598 921.8481,2069.7598 921.8481,2069.7598 C921.8481,2069.7598 903.8481,2069.7598 903.8481,2059.7598 L903.8481,2033.7598" fill="#E2E2F0" style="stroke:#181818;stroke-width:1.5;"/><path d="M903.8481,2033.7598 C903.8481,2043.7598 921.8481,2043.7598 921.8481,2043.7598 C921.8481,2043.7598 939.8481,2043.7598 939.8481,2033.7598" fill="none" style="stroke:#181818;stroke-width:1.5;"/></g><rect fill="#EEEEEE" height="3" style="stroke:#EEEEEE;stroke-width:1;" width="974.8135" x="0" y="190.4512"/><line style="stroke:#000000;stroke-width:1;" x1="0" x2="974.8135" y1="190.4512" y2="190.4512"/><line style="stroke:#000000;stroke-width:1;" x1="0" x2="974.8135" y1="193.4512" y2="193.4512"/><rect fill="#EEEEEE" height="24.3516" style="stroke:#000000;stroke-width:2;" width="162.1226" x="406.3455" y="179.2754"/><text fill="#000000" font-family="sans-serif" font-size="13" font-weight="bold" lengthAdjust="spacing" textLength="144.5107" x="412.3455" y="196.7705">Main Success Scenario</text><g class="message" data-participant-1="user" data-participant-2="app"><polygon fill="#181818" points="247.0645,231.9785,257.0645,235.9785,247.0645,239.9785,251.0645,235.9785" style="stroke:#181818;stroke-width:1;"/><line style="stroke:#181818;stroke-width:1;" x1="37.7793" x2="253.0645" y1="235.9785" y2="235.9785"/><text fill="#000000" font-family="sans-serif" font-size="13" lengthAdjust="spacing" textLength="138.7153" x="79.0642" y="231.1221">Access security settings</text></g><g class="message" data-participant-1="app" data-participant-2="user"><polygon fill="#181818" points="48.7793,262.3301,38.7793,266.3301,48.7793,270.3301,44.7793,266.3301" style="stroke:#181818;stroke-width:1;"/><line style="stroke:#181818;stroke-width:1;" x1="42.7793" x2="258.0645" y1="266.3301" y2="266.3301"/><text fill="#000000" font-family="sans-serif" font-size="13" lengthAdjust="spacing" textLength="136.5571" x="80.1433" y="261.4736">Display security options</text></g><g class="message" data-participant-1="user" data-participant-2="app"><polygon fill="#181818" points="247.0645,292.6816,257.0645,296.6816,247.0645,300.6816,251.0645,296.6816" style="stroke:#181818;stroke-width:1;"/><line style="stroke:#181818;stroke-width:1;" x1="37.7793" x2="253.0645" y1="296.6816" y2="296.6816"/><text fill="#000000" font-family="sans-serif" font-size="13" lengthAdjust="spacing" textLength="197.2852" x="49.7793" y="291.8252">Select unblock transactions option</text></g><g class="message" data-participant-1="app" data-participant-2="gateway"><polygon fill="#181818" points="435.1069,323.0332,445.1069,327.0332,435.1069,331.0332,439.1069,327.0332" style="stroke:#181818;stroke-width:1;"/><line style="stroke:#181818;stroke-width:1;" x1="259.0645" x2="441.1069" y1="327.0332" y2="327.0332"/><text fill="#000000" font-family="sans-serif" font-size="13" lengthAdjust="spacing" textLength="164.0425" x="271.0645" y="322.1768">Request transaction unblock</text></g><g class="message" data-participant-1="gateway" data-participant-2="securityService"><polygon fill="#181818" points="602.1768,353.3848,612.1768,357.3848,602.1768,361.3848,606.1768,357.3848" style="stroke:#181818;stroke-width:1;"/><line style="stroke:#181818;stroke-width:1;" x1="447.1069" x2="608.1768" y1="357.3848" y2="357.3848"/><text fill="#000000" font-family="sans-serif" font-size="13" lengthAdjust="spacing" textLength="143.0698" x="459.1069" y="352.5283">Forward unblock request</text></g><g class="message" data-participant-1="securityService" data-participant-2="securityService"><line style="stroke:#181818;stroke-width:1;" x1="614.1768" x2="656.1768" y1="387.7363" y2="387.7363"/><line style="stroke:#181818;stroke-width:1;" x1="656.1768" x2="656.1768" y1="387.7363" y2="400.7363"/><line style="stroke:#181818;stroke-width:1;" x1="615.1768" x2="656.1768" y1="400.7363" y2="400.7363"/><polygon fill="#181818" points="625.1768,396.7363,615.1768,400.7363,625.1768,404.7363,621.1768,400.7363" style="stroke:#181818;stroke-width:1;"/><text fill="#000000" font-family="sans-serif" font-size="13" lengthAdjust="spacing" textLength="173.437" x="621.1768" y="382.8799">Request additional verification</text></g><g class="message" data-participant-1="securityService" data-participant-2="authService"><polygon fill="#181818" points="789.6138,427.0879,799.6138,431.0879,789.6138,435.0879,793.6138,431.0879" style="stroke:#181818;stroke-width:1;"/><line style="stroke:#181818;stroke-width:1;" x1="614.1768" x2="795.6138" y1="431.0879" y2="431.0879"/><text fill="#000000" font-family="sans-serif" font-size="13" lengthAdjust="spacing" textLength="158.9707" x="628.4099" y="426.2314">Request identity verification</text></g><g class="message" data-participant-1="authService" data-participant-2="app"><polygon fill="#181818" points="270.0645,457.4395,260.0645,461.4395,270.0645,465.4395,266.0645,461.4395" style="stroke:#181818;stroke-width:1;"/><line style="stroke:#181818;stroke-width:1;" x1="264.0645" x2="800.6138" y1="461.4395" y2="461.4395"/><text fill="#000000" font-family="sans-serif" font-size="13" lengthAdjust="spacing" textLength="161.1416" x="449.7683" y="456.583">Request verification method</text></g><g class="message" data-participant-1="app" data-participant-2="user"><polygon fill="#181818" points="48.7793,487.791,38.7793,491.791,48.7793,495.791,44.7793,491.791" style="stroke:#181818;stroke-width:1;"/><line style="stroke:#181818;stroke-width:1;" x1="42.7793" x2="258.0645" y1="491.791" y2="491.791"/><text fill="#000000" font-family="sans-serif" font-size="13" lengthAdjust="spacing" textLength="153.9053" x="71.4692" y="486.9346">Display verification options</text></g><g class="message" data-participant-1="user" data-participant-2="app"><polygon fill="#181818" points="247.0645,518.1426,257.0645,522.1426,247.0645,526.1426,251.0645,522.1426" style="stroke:#181818;stroke-width:1;"/><line style="stroke:#181818;stroke-width:1;" x1="37.7793" x2="253.0645" y1="522.1426" y2="522.1426"/><text fill="#000000" font-family="sans-serif" font-size="13" lengthAdjust="spacing" textLength="148.8525" x="73.9956" y="517.2861">Select verification method</text></g><g class="message" data-participant-1="app" data-participant-2="gateway"><polygon fill="#181818" points="435.1069,548.4941,445.1069,552.4941,435.1069,556.4941,439.1069,552.4941" style="stroke:#181818;stroke-width:1;"/><line style="stroke:#181818;stroke-width:1;" x1="259.0645" x2="441.1069" y1="552.4941" y2="552.4941"/><text fill="#000000" font-family="sans-serif" font-size="13" lengthAdjust="spacing" textLength="143.0825" x="281.5444" y="547.6377">Send verification method</text></g><g class="message" data-participant-1="gateway" data-participant-2="authService"><polygon fill="#181818" points="789.6138,578.8457,799.6138,582.8457,789.6138,586.8457,793.6138,582.8457" style="stroke:#181818;stroke-width:1;"/><line style="stroke:#181818;stroke-width:1;" x1="447.1069" x2="795.6138" y1="582.8457" y2="582.8457"/><text fill="#000000" font-family="sans-serif" font-size="13" lengthAdjust="spacing" textLength="160.3989" x="544.1609" y="577.9893">Forward verification method</text></g><path d="M10,597.8457 L70.1709,597.8457 L70.1709,606.1973 L60.1709,616.1973 L10,616.1973 L10,597.8457" fill="#EEEEEE" style="stroke:#000000;stroke-width:1.5;"/><rect fill="none" height="441.7578" style="stroke:#000000;stroke-width:1.5;" width="954.8135" x="10" y="597.8457"/><text fill="#000000" font-family="sans-serif" font-size="13" font-weight="bold" lengthAdjust="spacing" textLength="15.1709" x="25" y="612.3408">alt</text><text fill="#000000" font-family="sans-serif" font-size="11" font-weight="bold" lengthAdjust="spacing" textLength="88.623" x="85.1709" y="611.2646">[PIN Verification]</text><g class="message" data-participant-1="authService" data-participant-2="app"><polygon fill="#181818" points="270.0645,634.5488,260.0645,638.5488,270.0645,642.5488,266.0645,638.5488" style="stroke:#181818;stroke-width:1;"/><line style="stroke:#181818;stroke-width:1;" x1="264.0645" x2="800.6138" y1="638.5488" y2="638.5488"/><text fill="#000000" font-family="sans-serif" font-size="13" lengthAdjust="spacing" textLength="73.7026" x="493.4878" y="633.6924">Request PIN</text></g><g class="message" data-participant-1="app" data-participant-2="user"><polygon fill="#181818" points="48.7793,664.9004,38.7793,668.9004,48.7793,672.9004,44.7793,668.9004" style="stroke:#181818;stroke-width:1;"/><line style="stroke:#181818;stroke-width:1;" x1="42.7793" x2="258.0645" y1="668.9004" y2="668.9004"/><text fill="#000000" font-family="sans-serif" font-size="13" lengthAdjust="spacing" textLength="85.9663" x="105.4387" y="664.0439">Prompt for PIN</text></g><g class="message" data-participant-1="user" data-participant-2="app"><polygon fill="#181818" points="247.0645,695.252,257.0645,699.252,247.0645,703.252,251.0645,699.252" style="stroke:#181818;stroke-width:1;"/><line style="stroke:#181818;stroke-width:1;" x1="37.7793" x2="253.0645" y1="699.252" y2="699.252"/><text fill="#000000" font-family="sans-serif" font-size="13" lengthAdjust="spacing" textLength="56.3545" x="120.2446" y="694.3955">Enter PIN</text></g><g class="message" data-participant-1="app" data-participant-2="gateway"><polygon fill="#181818" points="435.1069,725.6035,445.1069,729.6035,435.1069,733.6035,439.1069,729.6035" style="stroke:#181818;stroke-width:1;"/><line style="stroke:#181818;stroke-width:1;" x1="259.0645" x2="441.1069" y1="729.6035" y2="729.6035"/><text fill="#000000" font-family="sans-serif" font-size="13" lengthAdjust="spacing" textLength="55.6436" x="325.2639" y="724.7471">Send PIN</text></g><g class="message" data-participant-1="gateway" data-participant-2="authService"><polygon fill="#181818" points="789.6138,755.9551,799.6138,759.9551,789.6138,763.9551,793.6138,759.9551" style="stroke:#181818;stroke-width:1;"/><line style="stroke:#181818;stroke-width:1;" x1="447.1069" x2="795.6138" y1="759.9551" y2="759.9551"/><text fill="#000000" font-family="sans-serif" font-size="13" lengthAdjust="spacing" textLength="58.5127" x="595.104" y="755.0986">Verify PIN</text></g><g class="message" data-participant-1="authService" data-participant-2="db"><polygon fill="#181818" points="909.8481,786.3066,919.8481,790.3066,909.8481,794.3066,913.8481,790.3066" style="stroke:#181818;stroke-width:1;"/><line style="stroke:#181818;stroke-width:1;" x1="801.6138" x2="915.8481" y1="790.3066" y2="790.3066"/><text fill="#000000" font-family="sans-serif" font-size="13" lengthAdjust="spacing" textLength="62.1309" x="830.6655" y="785.4502">Check PIN</text></g><g class="message" data-participant-1="db" data-participant-2="authService"><polygon fill="#181818" points="812.6138,816.6582,802.6138,820.6582,812.6138,824.6582,808.6138,820.6582" style="stroke:#181818;stroke-width:1;"/><line style="stroke:#181818;stroke-width:1;stroke-dasharray:2.0,2.0;" x1="806.6138" x2="920.8481" y1="820.6582" y2="820.6582"/><text fill="#000000" font-family="sans-serif" font-size="13" lengthAdjust="spacing" textLength="52.019" x="835.7214" y="815.8018">PIN valid</text></g><line style="stroke:#000000;stroke-width:1;stroke-dasharray:2.0,2.0;" x1="10" x2="964.8135" y1="829.6582" y2="829.6582"/><text fill="#000000" font-family="sans-serif" font-size="11" font-weight="bold" lengthAdjust="spacing" textLength="91.0669" x="15" y="841.0771">[2FA Verification]</text><g class="message" data-participant-1="authService" data-participant-2="app"><polygon fill="#181818" points="270.0645,862.8457,260.0645,866.8457,270.0645,870.8457,266.0645,866.8457" style="stroke:#181818;stroke-width:1;"/><line style="stroke:#181818;stroke-width:1;" x1="264.0645" x2="800.6138" y1="866.8457" y2="866.8457"/><text fill="#000000" font-family="sans-serif" font-size="13" lengthAdjust="spacing" textLength="241.3569" x="409.6606" y="861.9893">Send 2FA code to registered device/email</text></g><g class="message" data-participant-1="app" data-participant-2="user"><polygon fill="#181818" points="48.7793,893.1973,38.7793,897.1973,48.7793,901.1973,44.7793,897.1973" style="stroke:#181818;stroke-width:1;"/><line style="stroke:#181818;stroke-width:1;" x1="42.7793" x2="258.0645" y1="897.1973" y2="897.1973"/><text fill="#000000" font-family="sans-serif" font-size="13" lengthAdjust="spacing" textLength="119.939" x="88.4524" y="892.3408">Prompt for 2FA code</text></g><g class="message" data-participant-1="user" data-participant-2="app"><polygon fill="#181818" points="247.0645,923.5488,257.0645,927.5488,247.0645,931.5488,251.0645,927.5488" style="stroke:#181818;stroke-width:1;"/><line style="stroke:#181818;stroke-width:1;" x1="37.7793" x2="253.0645" y1="927.5488" y2="927.5488"/><text fill="#000000" font-family="sans-serif" font-size="13" lengthAdjust="spacing" textLength="90.3271" x="103.2583" y="922.6924">Enter 2FA code</text></g><g class="message" data-participant-1="app" data-participant-2="gateway"><polygon fill="#181818" points="435.1069,953.9004,445.1069,957.9004,435.1069,961.9004,439.1069,957.9004" style="stroke:#181818;stroke-width:1;"/><line style="stroke:#181818;stroke-width:1;" x1="259.0645" x2="441.1069" y1="957.9004" y2="957.9004"/><text fill="#000000" font-family="sans-serif" font-size="13" lengthAdjust="spacing" textLength="89.6162" x="308.2776" y="953.0439">Send 2FA code</text></g><g class="message" data-participant-1="gateway" data-participant-2="authService"><polygon fill="#181818" points="789.6138,984.252,799.6138,988.252,789.6138,992.252,793.6138,988.252" style="stroke:#181818;stroke-width:1;"/><line style="stroke:#181818;stroke-width:1;" x1="447.1069" x2="795.6138" y1="988.252" y2="988.252"/><text fill="#000000" font-family="sans-serif" font-size="13" lengthAdjust="spacing" textLength="92.4854" x="578.1177" y="983.3955">Verify 2FA code</text></g><g class="message" data-participant-1="authService" data-participant-2="authService"><line style="stroke:#181818;stroke-width:1;" x1="801.6138" x2="843.6138" y1="1018.6035" y2="1018.6035"/><line style="stroke:#181818;stroke-width:1;" x1="843.6138" x2="843.6138" y1="1018.6035" y2="1031.6035"/><line style="stroke:#181818;stroke-width:1;" x1="802.6138" x2="843.6138" y1="1031.6035" y2="1031.6035"/><polygon fill="#181818" points="812.6138,1027.6035,802.6138,1031.6035,812.6138,1035.6035,808.6138,1031.6035" style="stroke:#181818;stroke-width:1;"/><text fill="#000000" font-family="sans-serif" font-size="13" lengthAdjust="spacing" textLength="106.2344" x="808.6138" y="1013.7471">Validate 2FA code</text></g><g class="message" data-participant-1="authService" data-participant-2="securityService"><polygon fill="#181818" points="625.1768,1064.9551,615.1768,1068.9551,625.1768,1072.9551,621.1768,1068.9551" style="stroke:#181818;stroke-width:1;"/><line style="stroke:#181818;stroke-width:1;" x1="619.1768" x2="800.6138" y1="1068.9551" y2="1068.9551"/><text fill="#000000" font-family="sans-serif" font-size="13" lengthAdjust="spacing" textLength="87.4326" x="664.179" y="1064.0986">Identity verified</text></g><g class="message" data-participant-1="securityService" data-participant-2="db"><polygon fill="#181818" points="909.8481,1095.3066,919.8481,1099.3066,909.8481,1103.3066,913.8481,1099.3066" style="stroke:#181818;stroke-width:1;"/><line style="stroke:#181818;stroke-width:1;" x1="614.1768" x2="915.8481" y1="1099.3066" y2="1099.3066"/><text fill="#000000" font-family="sans-serif" font-size="13" lengthAdjust="spacing" textLength="226.1797" x="654.9226" y="1094.4502">Set account transaction status to active</text></g><g class="message" data-participant-1="db" data-participant-2="securityService"><polygon fill="#181818" points="625.1768,1125.6582,615.1768,1129.6582,625.1768,1133.6582,621.1768,1129.6582" style="stroke:#181818;stroke-width:1;"/><line style="stroke:#181818;stroke-width:1;stroke-dasharray:2.0,2.0;" x1="619.1768" x2="920.8481" y1="1129.6582" y2="1129.6582"/><text fill="#000000" font-family="sans-serif" font-size="13" lengthAdjust="spacing" textLength="87.458" x="724.2834" y="1124.8018">Status updated</text></g><g class="message" data-participant-1="securityService" data-participant-2="gateway"><polygon fill="#181818" points="458.1069,1156.0098,448.1069,1160.0098,458.1069,1164.0098,454.1069,1160.0098" style="stroke:#181818;stroke-width:1;"/><line style="stroke:#181818;stroke-width:1;" x1="452.1069" x2="613.1768" y1="1160.0098" y2="1160.0098"/><text fill="#000000" font-family="sans-serif" font-size="13" lengthAdjust="spacing" textLength="111.2681" x="475.0078" y="1155.1533">Unblock successful</text></g><g class="message" data-participant-1="gateway" data-participant-2="app"><polygon fill="#181818" points="270.0645,1186.3613,260.0645,1190.3613,270.0645,1194.3613,266.0645,1190.3613" style="stroke:#181818;stroke-width:1;"/><line style="stroke:#181818;stroke-width:1;" x1="264.0645" x2="446.1069" y1="1190.3613" y2="1190.3613"/><text fill="#000000" font-family="sans-serif" font-size="13" lengthAdjust="spacing" textLength="107.6563" x="299.2576" y="1185.5049">Unblock confirmed</text></g><g class="message" data-participant-1="app" data-participant-2="user"><polygon fill="#181818" points="48.7793,1216.7129,38.7793,1220.7129,48.7793,1224.7129,44.7793,1220.7129" style="stroke:#181818;stroke-width:1;"/><line style="stroke:#181818;stroke-width:1;" x1="42.7793" x2="258.0645" y1="1220.7129" y2="1220.7129"/><text fill="#000000" font-family="sans-serif" font-size="13" lengthAdjust="spacing" textLength="165.4644" x="65.6897" y="1215.8564">Display unblock confirmation</text></g><rect fill="#EEEEEE" height="3" style="stroke:#EEEEEE;stroke-width:1;" width="974.8135" x="0" y="1249.8887"/><line style="stroke:#000000;stroke-width:1;" x1="0" x2="974.8135" y1="1249.8887" y2="1249.8887"/><line style="stroke:#000000;stroke-width:1;" x1="0" x2="974.8135" y1="1252.8887" y2="1252.8887"/><rect fill="#EEEEEE" height="24.3516" style="stroke:#000000;stroke-width:2;" width="305.1353" x="334.8391" y="1238.7129"/><text fill="#000000" font-family="sans-serif" font-size="13" font-weight="bold" lengthAdjust="spacing" textLength="287.5234" x="340.8391" y="1256.208">Alternative Scenario: Identity Verification Fails</text><g class="message" data-participant-1="user" data-participant-2="app"><polygon fill="#181818" points="247.0645,1291.416,257.0645,1295.416,247.0645,1299.416,251.0645,1295.416" style="stroke:#181818;stroke-width:1;"/><line style="stroke:#181818;stroke-width:1;" x1="37.7793" x2="253.0645" y1="1295.416" y2="1295.416"/><text fill="#000000" font-family="sans-serif" font-size="13" lengthAdjust="spacing" textLength="138.7153" x="79.0642" y="1290.5596">Access security settings</text></g><g class="message" data-participant-1="app" data-participant-2="user"><polygon fill="#181818" points="48.7793,1321.7676,38.7793,1325.7676,48.7793,1329.7676,44.7793,1325.7676" style="stroke:#181818;stroke-width:1;"/><line style="stroke:#181818;stroke-width:1;" x1="42.7793" x2="258.0645" y1="1325.7676" y2="1325.7676"/><text fill="#000000" font-family="sans-serif" font-size="13" lengthAdjust="spacing" textLength="136.5571" x="80.1433" y="1320.9111">Display security options</text></g><g class="message" data-participant-1="user" data-participant-2="app"><polygon fill="#181818" points="247.0645,1352.1191,257.0645,1356.1191,247.0645,1360.1191,251.0645,1356.1191" style="stroke:#181818;stroke-width:1;"/><line style="stroke:#181818;stroke-width:1;" x1="37.7793" x2="253.0645" y1="1356.1191" y2="1356.1191"/><text fill="#000000" font-family="sans-serif" font-size="13" lengthAdjust="spacing" textLength="197.2852" x="49.7793" y="1351.2627">Select unblock transactions option</text></g><g class="message" data-participant-1="app" data-participant-2="gateway"><polygon fill="#181818" points="435.1069,1382.4707,445.1069,1386.4707,435.1069,1390.4707,439.1069,1386.4707" style="stroke:#181818;stroke-width:1;"/><line style="stroke:#181818;stroke-width:1;" x1="259.0645" x2="441.1069" y1="1386.4707" y2="1386.4707"/><text fill="#000000" font-family="sans-serif" font-size="13" lengthAdjust="spacing" textLength="164.0425" x="271.0645" y="1381.6143">Request transaction unblock</text></g><g class="message" data-participant-1="gateway" data-participant-2="securityService"><polygon fill="#181818" points="602.1768,1412.8223,612.1768,1416.8223,602.1768,1420.8223,606.1768,1416.8223" style="stroke:#181818;stroke-width:1;"/><line style="stroke:#181818;stroke-width:1;" x1="447.1069" x2="608.1768" y1="1416.8223" y2="1416.8223"/><text fill="#000000" font-family="sans-serif" font-size="13" lengthAdjust="spacing" textLength="143.0698" x="459.1069" y="1411.9658">Forward unblock request</text></g><g class="message" data-participant-1="securityService" data-participant-2="securityService"><line style="stroke:#181818;stroke-width:1;" x1="614.1768" x2="656.1768" y1="1447.1738" y2="1447.1738"/><line style="stroke:#181818;stroke-width:1;" x1="656.1768" x2="656.1768" y1="1447.1738" y2="1460.1738"/><line style="stroke:#181818;stroke-width:1;" x1="615.1768" x2="656.1768" y1="1460.1738" y2="1460.1738"/><polygon fill="#181818" points="625.1768,1456.1738,615.1768,1460.1738,625.1768,1464.1738,621.1768,1460.1738" style="stroke:#181818;stroke-width:1;"/><text fill="#000000" font-family="sans-serif" font-size="13" lengthAdjust="spacing" textLength="173.437" x="621.1768" y="1442.3174">Request additional verification</text></g><g class="message" data-participant-1="securityService" data-participant-2="authService"><polygon fill="#181818" points="789.6138,1486.5254,799.6138,1490.5254,789.6138,1494.5254,793.6138,1490.5254" style="stroke:#181818;stroke-width:1;"/><line style="stroke:#181818;stroke-width:1;" x1="614.1768" x2="795.6138" y1="1490.5254" y2="1490.5254"/><text fill="#000000" font-family="sans-serif" font-size="13" lengthAdjust="spacing" textLength="158.9707" x="628.4099" y="1485.6689">Request identity verification</text></g><g class="message" data-participant-1="authService" data-participant-2="app"><polygon fill="#181818" points="270.0645,1516.877,260.0645,1520.877,270.0645,1524.877,266.0645,1520.877" style="stroke:#181818;stroke-width:1;"/><line style="stroke:#181818;stroke-width:1;" x1="264.0645" x2="800.6138" y1="1520.877" y2="1520.877"/><text fill="#000000" font-family="sans-serif" font-size="13" lengthAdjust="spacing" textLength="161.1416" x="449.7683" y="1516.0205">Request verification method</text></g><g class="message" data-participant-1="app" data-participant-2="user"><polygon fill="#181818" points="48.7793,1547.2285,38.7793,1551.2285,48.7793,1555.2285,44.7793,1551.2285" style="stroke:#181818;stroke-width:1;"/><line style="stroke:#181818;stroke-width:1;" x1="42.7793" x2="258.0645" y1="1551.2285" y2="1551.2285"/><text fill="#000000" font-family="sans-serif" font-size="13" lengthAdjust="spacing" textLength="153.9053" x="71.4692" y="1546.3721">Display verification options</text></g><g class="message" data-participant-1="user" data-participant-2="app"><polygon fill="#181818" points="247.0645,1577.5801,257.0645,1581.5801,247.0645,1585.5801,251.0645,1581.5801" style="stroke:#181818;stroke-width:1;"/><line style="stroke:#181818;stroke-width:1;" x1="37.7793" x2="253.0645" y1="1581.5801" y2="1581.5801"/><text fill="#000000" font-family="sans-serif" font-size="13" lengthAdjust="spacing" textLength="148.8525" x="73.9956" y="1576.7236">Select verification method</text></g><g class="message" data-participant-1="app" data-participant-2="gateway"><polygon fill="#181818" points="435.1069,1607.9316,445.1069,1611.9316,435.1069,1615.9316,439.1069,1611.9316" style="stroke:#181818;stroke-width:1;"/><line style="stroke:#181818;stroke-width:1;" x1="259.0645" x2="441.1069" y1="1611.9316" y2="1611.9316"/><text fill="#000000" font-family="sans-serif" font-size="13" lengthAdjust="spacing" textLength="143.0825" x="281.5444" y="1607.0752">Send verification method</text></g><g class="message" data-participant-1="gateway" data-participant-2="authService"><polygon fill="#181818" points="789.6138,1638.2832,799.6138,1642.2832,789.6138,1646.2832,793.6138,1642.2832" style="stroke:#181818;stroke-width:1;"/><line style="stroke:#181818;stroke-width:1;" x1="447.1069" x2="795.6138" y1="1642.2832" y2="1642.2832"/><text fill="#000000" font-family="sans-serif" font-size="13" lengthAdjust="spacing" textLength="160.3989" x="544.1609" y="1637.4268">Forward verification method</text></g><g class="message" data-participant-1="authService" data-participant-2="app"><polygon fill="#181818" points="270.0645,1668.6348,260.0645,1672.6348,270.0645,1676.6348,266.0645,1672.6348" style="stroke:#181818;stroke-width:1;"/><line style="stroke:#181818;stroke-width:1;" x1="264.0645" x2="800.6138" y1="1672.6348" y2="1672.6348"/><text fill="#000000" font-family="sans-serif" font-size="13" lengthAdjust="spacing" textLength="145.9707" x="457.3538" y="1667.7783">Request verification input</text></g><g class="message" data-participant-1="app" data-participant-2="user"><polygon fill="#181818" points="48.7793,1698.9863,38.7793,1702.9863,48.7793,1706.9863,44.7793,1702.9863" style="stroke:#181818;stroke-width:1;"/><line style="stroke:#181818;stroke-width:1;" x1="42.7793" x2="258.0645" y1="1702.9863" y2="1702.9863"/><text fill="#000000" font-family="sans-serif" font-size="13" lengthAdjust="spacing" textLength="126.4326" x="85.2056" y="1698.1299">Prompt for verification</text></g><g class="message" data-participant-1="user" data-participant-2="app"><polygon fill="#181818" points="247.0645,1729.3379,257.0645,1733.3379,247.0645,1737.3379,251.0645,1733.3379" style="stroke:#181818;stroke-width:1;"/><line style="stroke:#181818;stroke-width:1;" x1="37.7793" x2="253.0645" y1="1733.3379" y2="1733.3379"/><text fill="#000000" font-family="sans-serif" font-size="13" lengthAdjust="spacing" textLength="150.2808" x="73.2815" y="1728.4814">Enter incorrect verification</text></g><g class="message" data-participant-1="app" data-participant-2="gateway"><polygon fill="#181818" points="435.1069,1759.6895,445.1069,1763.6895,435.1069,1767.6895,439.1069,1763.6895" style="stroke:#181818;stroke-width:1;"/><line style="stroke:#181818;stroke-width:1;" x1="259.0645" x2="441.1069" y1="1763.6895" y2="1763.6895"/><text fill="#000000" font-family="sans-serif" font-size="13" lengthAdjust="spacing" textLength="96.1099" x="305.0308" y="1758.833">Send verification</text></g><g class="message" data-participant-1="gateway" data-participant-2="authService"><polygon fill="#181818" points="789.6138,1790.041,799.6138,1794.041,789.6138,1798.041,793.6138,1794.041" style="stroke:#181818;stroke-width:1;"/><line style="stroke:#181818;stroke-width:1;" x1="447.1069" x2="795.6138" y1="1794.041" y2="1794.041"/><text fill="#000000" font-family="sans-serif" font-size="13" lengthAdjust="spacing" textLength="65.0317" x="591.8445" y="1789.1846">Verify input</text></g><g class="message" data-participant-1="authService" data-participant-2="authService"><line style="stroke:#181818;stroke-width:1;" x1="801.6138" x2="843.6138" y1="1824.3926" y2="1824.3926"/><line style="stroke:#181818;stroke-width:1;" x1="843.6138" x2="843.6138" y1="1824.3926" y2="1837.3926"/><line style="stroke:#181818;stroke-width:1;" x1="802.6138" x2="843.6138" y1="1837.3926" y2="1837.3926"/><polygon fill="#181818" points="812.6138,1833.3926,802.6138,1837.3926,812.6138,1841.3926,808.6138,1837.3926" style="stroke:#181818;stroke-width:1;"/><text fill="#000000" font-family="sans-serif" font-size="13" lengthAdjust="spacing" textLength="91.0381" x="808.6138" y="1819.5361">Verification fails</text></g><g class="message" data-participant-1="authService" data-participant-2="securityService"><polygon fill="#181818" points="625.1768,1863.7441,615.1768,1867.7441,625.1768,1871.7441,621.1768,1867.7441" style="stroke:#181818;stroke-width:1;"/><line style="stroke:#181818;stroke-width:1;" x1="619.1768" x2="800.6138" y1="1867.7441" y2="1867.7441"/><text fill="#000000" font-family="sans-serif" font-size="13" lengthAdjust="spacing" textLength="142.3525" x="636.719" y="1862.8877">Identity verification failed</text></g><g class="message" data-participant-1="securityService" data-participant-2="gateway"><polygon fill="#181818" points="458.1069,1894.0957,448.1069,1898.0957,458.1069,1902.0957,454.1069,1898.0957" style="stroke:#181818;stroke-width:1;"/><line style="stroke:#181818;stroke-width:1;" x1="452.1069" x2="613.1768" y1="1898.0957" y2="1898.0957"/><text fill="#000000" font-family="sans-serif" font-size="13" lengthAdjust="spacing" textLength="89.6162" x="485.8337" y="1893.2393">Unblock denied</text></g><g class="message" data-participant-1="gateway" data-participant-2="app"><polygon fill="#181818" points="270.0645,1924.4473,260.0645,1928.4473,270.0645,1932.4473,266.0645,1928.4473" style="stroke:#181818;stroke-width:1;"/><line style="stroke:#181818;stroke-width:1;" x1="264.0645" x2="446.1069" y1="1928.4473" y2="1928.4473"/><text fill="#000000" font-family="sans-serif" font-size="13" lengthAdjust="spacing" textLength="98.998" x="303.5867" y="1923.5908">Verification failed</text></g><g class="message" data-participant-1="app" data-participant-2="user"><polygon fill="#181818" points="48.7793,1954.7988,38.7793,1958.7988,48.7793,1962.7988,44.7793,1958.7988" style="stroke:#181818;stroke-width:1;"/><line style="stroke:#181818;stroke-width:1;" x1="42.7793" x2="258.0645" y1="1958.7988" y2="1958.7988"/><text fill="#000000" font-family="sans-serif" font-size="13" lengthAdjust="spacing" textLength="147.3926" x="74.7256" y="1953.9424">Display verification failure</text></g><g class="message" data-participant-1="app" data-participant-2="user"><polygon fill="#181818" points="48.7793,1985.1504,38.7793,1989.1504,48.7793,1993.1504,44.7793,1989.1504" style="stroke:#181818;stroke-width:1;"/><line style="stroke:#181818;stroke-width:1;" x1="42.7793" x2="258.0645" y1="1989.1504" y2="1989.1504"/><text fill="#000000" font-family="sans-serif" font-size="13" lengthAdjust="spacing" textLength="157.5488" x="69.6475" y="1984.2939">Suggest contacting support</text></g><!--SRC=[xLQnRjim4Dtv5GVlGOjsC-02HbeN6L8OLPEfovayoqHaKYKf6_xx7YNH5XKbJe6EoKI8xntlFVAUuv-qgT7X7ZpzQSX8kYVliQHbfKi3aamW9_mPjK7vL3hR67LhA-lWkDE11lixDEheT0XaO8kL9o623XN1xE7svlF7EJoOJMNb4oph6duvD1vbqDRucH2yuegp1qzk1kYXuONWia5BNQC9C5jnHRl6KsIt4Aph7B5Sty5t37J4KmiektKEAaWstEFfjod87RIa5khxh_stKTqcxDWBBJ5scnEHzn99OS0DUjRxjL-r4BKHOh60UzG6YaPAzXWADXUTjh1O216rmisNA6WEomwG6k952DgKNl1k14Nm7BvgNrTuki1itJevAbPGHJ90q_iU1fxtZ5IszseEF-DJy668JNpHWo9-PDWSLjOTqQdpMQwh8yG8EKbEXw9IEfw85Hp8wMrl-LIDWV4NlbRndjYEZ3s0dfr9Z24GzXHsLebfgpDaidlAxQcIOvSBCceIEB0uKvZidUwt2h2- -m6FGzN0VwyfPqA76OfTExkl0snv5jD-9l5RZ8GnDLULDbzIqZPvkjJ8MrIRETpkY1zG0gWDt8nhHB47hBGIn343drRBjsbl6uneQHL1iFnAI-rP4YbG5A4VQ8-wUjMOn7_9dMn_qg8CSSMdlDf8KuQFVd2j2uEF4kF7_spqxlAH8JKrRF5M2kBvb9BZFmy77p0qFfePFnmu1hiBUtPIqG6REdQf9eFXR5FwfV1TNcwRAfkCQ7Q2I6ksskr9JOzjayEwzn7pU5dnPHcCBP_ZU637y3t1Yj-4Vy_gzwp-3rdzLe7yNrKJn4iXb9as4KBQIElSME9rRU9A7FLTlPP3Gn7RE3Z_7483ydGUFSi9viVe6cV4uqIvwmyc0Xj7ER9eoZBU4UT8YADcIWwdkhOkYBy0]--></g></svg>