<svg xmlns="http://www.w3.org/2000/svg" xmlns:xlink="http://www.w3.org/1999/xlink" contentStyleType="text/css" data-diagram-type="SEQUENCE" height="1485px" preserveAspectRatio="none" style="width:1341px;height:1485px;background:#FFFFFF;" version="1.1" viewBox="0 0 1341 1485" width="1341px" zoomAndPan="magnify"><title>UC-36: Deactivate User Account</title><defs/><g><text fill="#000000" font-family="sans-serif" font-size="14" font-weight="bold" lengthAdjust="spacing" textLength="213.958" x="562.9219" y="29.5332">UC-36: Deactivate User Account</text><g><title>Admin Dashboard</title><rect fill="#FFFFFF" height="1231.8984" style="stroke:#181818;stroke-width:1;" width="10" x="318.3291" y="153.5703"/></g><g><title>API Gateway</title><rect fill="#FFFFFF" height="151.7578" style="stroke:#181818;stroke-width:1;" width="10" x="664.1387" y="183.9219"/></g><g><title>API Gateway</title><rect fill="#FFFFFF" height="151.7578" style="stroke:#181818;stroke-width:1;" width="10" x="664.1387" y="426.7344"/></g><g><title>API Gateway</title><rect fill="#FFFFFF" height="655.2188" style="stroke:#181818;stroke-width:1;" width="10" x="664.1387" y="699.8984"/></g><g><title>User Management Service</title><rect fill="#FFFFFF" height="91.0547" style="stroke:#181818;stroke-width:1;" width="10" x="823.1431" y="214.2734"/></g><g><title>User Management Service</title><rect fill="#FFFFFF" height="91.0547" style="stroke:#181818;stroke-width:1;" width="10" x="823.1431" y="457.0859"/></g><g><title>User Management Service</title><rect fill="#FFFFFF" height="594.5156" style="stroke:#181818;stroke-width:1;" width="10" x="823.1431" y="730.25"/></g><g><title>Transaction Service</title><rect fill="#FFFFFF" height="344.7031" style="stroke:#181818;stroke-width:1;" width="10" x="1034.1855" y="760.6016"/></g><g><title>Notification Service</title><rect fill="#FFFFFF" height="30.3516" style="stroke:#181818;stroke-width:1;" width="10" x="1179.9575" y="1264.0625"/></g><g><title>Database</title><rect fill="#FFFFFF" height="30.3516" style="stroke:#181818;stroke-width:1;" width="10" x="1293.8364" y="244.625"/></g><g><title>Database</title><rect fill="#FFFFFF" height="30.3516" style="stroke:#181818;stroke-width:1;" width="10" x="1293.8364" y="487.4375"/></g><g><title>Database</title><rect fill="#FFFFFF" height="30.3516" style="stroke:#181818;stroke-width:1;" width="10" x="1293.8364" y="790.9531"/></g><g><title>Database</title><rect fill="#FFFFFF" height="30.3516" style="stroke:#181818;stroke-width:1;" width="10" x="1293.8364" y="1142.6563"/></g><g><title>Database</title><rect fill="#FFFFFF" height="30.3516" style="stroke:#181818;stroke-width:1;" width="10" x="1293.8364" y="1203.3594"/></g><rect fill="none" height="277" style="stroke:#000000;stroke-width:1.5;" width="1108.0439" x="10" y="836.3047"/><g><title>Admin</title><rect fill="#000000" fill-opacity="0.00000" height="1282.25" width="8" x="38.8413" y="121.2188"/><line style="stroke:#181818;stroke-width:0.5;stroke-dasharray:5.0,5.0;" x1="42" x2="42" y1="121.2188" y2="1403.4688"/></g><g><title>Admin Dashboard</title><rect fill="#000000" fill-opacity="0.00000" height="1282.25" width="8" x="319.3291" y="121.2188"/><line style="stroke:#181818;stroke-width:0.5;stroke-dasharray:5.0,5.0;" x1="323.2983" x2="323.2983" y1="121.2188" y2="1403.4688"/></g><g><title>API Gateway</title><rect fill="#000000" fill-opacity="0.00000" height="1282.25" width="8" x="665.1387" y="121.2188"/><line style="stroke:#181818;stroke-width:0.5;stroke-dasharray:5.0,5.0;" x1="668.2871" x2="668.2871" y1="121.2188" y2="1403.4688"/></g><g><title>User Management Service</title><rect fill="#000000" fill-opacity="0.00000" height="1282.25" width="8" x="824.1431" y="121.2188"/><line style="stroke:#181818;stroke-width:0.5;stroke-dasharray:5.0,5.0;" x1="827.2744" x2="827.2744" y1="121.2188" y2="1403.4688"/></g><g><title>Transaction Service</title><rect fill="#000000" fill-opacity="0.00000" height="1282.25" width="8" x="1035.1855" y="121.2188"/><line style="stroke:#181818;stroke-width:0.5;stroke-dasharray:5.0,5.0;" x1="1038.3271" x2="1038.3271" y1="121.2188" y2="1403.4688"/></g><g><title>Notification Service</title><rect fill="#000000" fill-opacity="0.00000" height="1282.25" width="8" x="1180.9575" y="121.2188"/><line style="stroke:#181818;stroke-width:0.5;stroke-dasharray:5.0,5.0;" x1="1184.0439" x2="1184.0439" y1="121.2188" y2="1403.4688"/></g><g><title>Database</title><rect fill="#000000" fill-opacity="0.00000" height="1282.25" width="8" x="1294.8364" y="121.2188"/><line style="stroke:#181818;stroke-width:0.5;stroke-dasharray:5.0,5.0;" x1="1297.8711" x2="1297.8711" y1="121.2188" y2="1403.4688"/></g><g class="participant participant-head" data-participant="Admin"><text fill="#000000" font-family="sans-serif" font-size="14" lengthAdjust="spacing" textLength="39.6826" x="20" y="118.1426">Admin</text><ellipse cx="42.8413" cy="52.1094" fill="#E2E2F0" rx="8" ry="8" style="stroke:#181818;stroke-width:0.5;"/><path d="M42.8413,60.1094 L42.8413,87.1094 M29.8413,68.1094 L55.8413,68.1094 M42.8413,87.1094 L29.8413,102.1094 M42.8413,87.1094 L55.8413,102.1094" fill="none" style="stroke:#181818;stroke-width:0.5;"/></g><g class="participant participant-tail" data-participant="Admin"><text fill="#000000" font-family="sans-serif" font-size="14" lengthAdjust="spacing" textLength="39.6826" x="20" y="1417.002">Admin</text><ellipse cx="42.8413" cy="1428.5781" fill="#E2E2F0" rx="8" ry="8" style="stroke:#181818;stroke-width:0.5;"/><path d="M42.8413,1436.5781 L42.8413,1463.5781 M29.8413,1444.5781 L55.8413,1444.5781 M42.8413,1463.5781 L29.8413,1478.5781 M42.8413,1463.5781 L55.8413,1478.5781" fill="none" style="stroke:#181818;stroke-width:0.5;"/></g><g class="participant participant-head" data-participant="Dashboard"><rect fill="#E2E2F0" height="31.6094" rx="2.5" ry="2.5" style="stroke:#181818;stroke-width:0.5;" width="126.0615" x="260.2983" y="88.6094"/><text fill="#000000" font-family="sans-serif" font-size="14" lengthAdjust="spacing" textLength="112.0615" x="267.2983" y="110.1426">Admin Dashboard</text></g><g class="participant participant-tail" data-participant="Dashboard"><rect fill="#E2E2F0" height="31.6094" rx="2.5" ry="2.5" style="stroke:#181818;stroke-width:0.5;" width="126.0615" x="260.2983" y="1402.4688"/><text fill="#000000" font-family="sans-serif" font-size="14" lengthAdjust="spacing" textLength="112.0615" x="267.2983" y="1424.002">Admin Dashboard</text></g><g class="participant participant-head" data-participant="Gateway"><rect fill="#E2E2F0" height="31.6094" rx="2.5" ry="2.5" style="stroke:#181818;stroke-width:0.5;" width="95.7031" x="621.2871" y="88.6094"/><text fill="#000000" font-family="sans-serif" font-size="14" lengthAdjust="spacing" textLength="81.7031" x="628.2871" y="110.1426">API Gateway</text></g><g class="participant participant-tail" data-participant="Gateway"><rect fill="#E2E2F0" height="31.6094" rx="2.5" ry="2.5" style="stroke:#181818;stroke-width:0.5;" width="95.7031" x="621.2871" y="1402.4688"/><text fill="#000000" font-family="sans-serif" font-size="14" lengthAdjust="spacing" textLength="81.7031" x="628.2871" y="1424.002">API Gateway</text></g><g class="participant participant-head" data-participant="UserService"><rect fill="#E2E2F0" height="31.6094" rx="2.5" ry="2.5" style="stroke:#181818;stroke-width:0.5;" width="179.7373" x="738.2744" y="88.6094"/><text fill="#000000" font-family="sans-serif" font-size="14" lengthAdjust="spacing" textLength="165.7373" x="745.2744" y="110.1426">User Management Service</text></g><g class="participant participant-tail" data-participant="UserService"><rect fill="#E2E2F0" height="31.6094" rx="2.5" ry="2.5" style="stroke:#181818;stroke-width:0.5;" width="179.7373" x="738.2744" y="1402.4688"/><text fill="#000000" font-family="sans-serif" font-size="14" lengthAdjust="spacing" textLength="165.7373" x="745.2744" y="1424.002">User Management Service</text></g><g class="participant participant-head" data-participant="TransService"><rect fill="#E2E2F0" height="31.6094" rx="2.5" ry="2.5" style="stroke:#181818;stroke-width:0.5;" width="137.7168" x="970.3271" y="88.6094"/><text fill="#000000" font-family="sans-serif" font-size="14" lengthAdjust="spacing" textLength="123.7168" x="977.3271" y="110.1426">Transaction Service</text></g><g class="participant participant-tail" data-participant="TransService"><rect fill="#E2E2F0" height="31.6094" rx="2.5" ry="2.5" style="stroke:#181818;stroke-width:0.5;" width="137.7168" x="970.3271" y="1402.4688"/><text fill="#000000" font-family="sans-serif" font-size="14" lengthAdjust="spacing" textLength="123.7168" x="977.3271" y="1424.002">Transaction Service</text></g><g class="participant participant-head" data-participant="NotifService"><rect fill="#E2E2F0" height="31.6094" rx="2.5" ry="2.5" style="stroke:#181818;stroke-width:0.5;" width="133.8271" x="1118.0439" y="88.6094"/><text fill="#000000" font-family="sans-serif" font-size="14" lengthAdjust="spacing" textLength="119.8271" x="1125.0439" y="110.1426">Notification Service</text></g><g class="participant participant-tail" data-participant="NotifService"><rect fill="#E2E2F0" height="31.6094" rx="2.5" ry="2.5" style="stroke:#181818;stroke-width:0.5;" width="133.8271" x="1118.0439" y="1402.4688"/><text fill="#000000" font-family="sans-serif" font-size="14" lengthAdjust="spacing" textLength="119.8271" x="1125.0439" y="1424.002">Notification Service</text></g><g class="participant participant-head" data-participant="DB"><rect fill="#E2E2F0" height="31.6094" rx="2.5" ry="2.5" style="stroke:#181818;stroke-width:0.5;" width="73.9307" x="1261.8711" y="88.6094"/><text fill="#000000" font-family="sans-serif" font-size="14" lengthAdjust="spacing" textLength="59.9307" x="1268.8711" y="110.1426">Database</text></g><g class="participant participant-tail" data-participant="DB"><rect fill="#E2E2F0" height="31.6094" rx="2.5" ry="2.5" style="stroke:#181818;stroke-width:0.5;" width="73.9307" x="1261.8711" y="1402.4688"/><text fill="#000000" font-family="sans-serif" font-size="14" lengthAdjust="spacing" textLength="59.9307" x="1268.8711" y="1424.002">Database</text></g><g><title>Admin Dashboard</title><rect fill="#FFFFFF" height="1231.8984" style="stroke:#181818;stroke-width:1;" width="10" x="318.3291" y="153.5703"/></g><g><title>API Gateway</title><rect fill="#FFFFFF" height="151.7578" style="stroke:#181818;stroke-width:1;" width="10" x="664.1387" y="183.9219"/></g><g><title>API Gateway</title><rect fill="#FFFFFF" height="151.7578" style="stroke:#181818;stroke-width:1;" width="10" x="664.1387" y="426.7344"/></g><g><title>API Gateway</title><rect fill="#FFFFFF" height="655.2188" style="stroke:#181818;stroke-width:1;" width="10" x="664.1387" y="699.8984"/></g><g><title>User Management Service</title><rect fill="#FFFFFF" height="91.0547" style="stroke:#181818;stroke-width:1;" width="10" x="823.1431" y="214.2734"/></g><g><title>User Management Service</title><rect fill="#FFFFFF" height="91.0547" style="stroke:#181818;stroke-width:1;" width="10" x="823.1431" y="457.0859"/></g><g><title>User Management Service</title><rect fill="#FFFFFF" height="594.5156" style="stroke:#181818;stroke-width:1;" width="10" x="823.1431" y="730.25"/></g><g><title>Transaction Service</title><rect fill="#FFFFFF" height="344.7031" style="stroke:#181818;stroke-width:1;" width="10" x="1034.1855" y="760.6016"/></g><g><title>Notification Service</title><rect fill="#FFFFFF" height="30.3516" style="stroke:#181818;stroke-width:1;" width="10" x="1179.9575" y="1264.0625"/></g><g><title>Database</title><rect fill="#FFFFFF" height="30.3516" style="stroke:#181818;stroke-width:1;" width="10" x="1293.8364" y="244.625"/></g><g><title>Database</title><rect fill="#FFFFFF" height="30.3516" style="stroke:#181818;stroke-width:1;" width="10" x="1293.8364" y="487.4375"/></g><g><title>Database</title><rect fill="#FFFFFF" height="30.3516" style="stroke:#181818;stroke-width:1;" width="10" x="1293.8364" y="790.9531"/></g><g><title>Database</title><rect fill="#FFFFFF" height="30.3516" style="stroke:#181818;stroke-width:1;" width="10" x="1293.8364" y="1142.6563"/></g><g><title>Database</title><rect fill="#FFFFFF" height="30.3516" style="stroke:#181818;stroke-width:1;" width="10" x="1293.8364" y="1203.3594"/></g><g class="message" data-participant-1="Admin" data-participant-2="Dashboard"><polygon fill="#181818" points="306.3291,149.5703,316.3291,153.5703,306.3291,157.5703,310.3291,153.5703" style="stroke:#181818;stroke-width:1;"/><line style="stroke:#181818;stroke-width:1;" x1="42.8413" x2="312.3291" y1="153.5703" y2="153.5703"/><text fill="#000000" font-family="sans-serif" font-size="13" lengthAdjust="spacing" textLength="138.0171" x="49.8413" y="148.7139">Search for user account</text></g><g class="message" data-participant-1="Dashboard" data-participant-2="Gateway"><polygon fill="#181818" points="652.1387,179.9219,662.1387,183.9219,652.1387,187.9219,656.1387,183.9219" style="stroke:#181818;stroke-width:1;"/><line style="stroke:#181818;stroke-width:1;" x1="328.3291" x2="658.1387" y1="183.9219" y2="183.9219"/><text fill="#000000" font-family="sans-serif" font-size="13" lengthAdjust="spacing" textLength="231.6006" x="335.3291" y="179.0654">GET /api/admin/users/search?q={query}</text></g><g class="message" data-participant-1="Gateway" data-participant-2="UserService"><polygon fill="#181818" points="811.1431,210.2734,821.1431,214.2734,811.1431,218.2734,815.1431,214.2734" style="stroke:#181818;stroke-width:1;"/><line style="stroke:#181818;stroke-width:1;" x1="674.1387" x2="817.1431" y1="214.2734" y2="214.2734"/><text fill="#000000" font-family="sans-serif" font-size="13" lengthAdjust="spacing" textLength="76.5908" x="681.1387" y="209.417">Search users</text></g><g class="message" data-participant-1="UserService" data-participant-2="DB"><polygon fill="#181818" points="1281.8364,240.625,1291.8364,244.625,1281.8364,248.625,1285.8364,244.625" style="stroke:#181818;stroke-width:1;"/><line style="stroke:#181818;stroke-width:1;" x1="833.1431" x2="1287.8364" y1="244.625" y2="244.625"/><text fill="#000000" font-family="sans-serif" font-size="13" lengthAdjust="spacing" textLength="111.2617" x="840.1431" y="239.7686">Query user records</text></g><g class="message" data-participant-1="DB" data-participant-2="UserService"><polygon fill="#181818" points="844.1431,270.9766,834.1431,274.9766,844.1431,278.9766,840.1431,274.9766" style="stroke:#181818;stroke-width:1;"/><line style="stroke:#181818;stroke-width:1;stroke-dasharray:2.0,2.0;" x1="838.1431" x2="1297.8364" y1="274.9766" y2="274.9766"/><text fill="#000000" font-family="sans-serif" font-size="13" lengthAdjust="spacing" textLength="74.4072" x="850.1431" y="270.1201">User records</text></g><g class="message" data-participant-1="UserService" data-participant-2="Gateway"><polygon fill="#181818" points="685.1387,301.3281,675.1387,305.3281,685.1387,309.3281,681.1387,305.3281" style="stroke:#181818;stroke-width:1;"/><line style="stroke:#181818;stroke-width:1;stroke-dasharray:2.0,2.0;" x1="679.1387" x2="827.1431" y1="305.3281" y2="305.3281"/><text fill="#000000" font-family="sans-serif" font-size="13" lengthAdjust="spacing" textLength="111.979" x="691.1387" y="300.4717">User search results</text></g><g class="message" data-participant-1="Gateway" data-participant-2="Dashboard"><polygon fill="#181818" points="339.3291,331.6797,329.3291,335.6797,339.3291,339.6797,335.3291,335.6797" style="stroke:#181818;stroke-width:1;"/><line style="stroke:#181818;stroke-width:1;stroke-dasharray:2.0,2.0;" x1="333.3291" x2="668.1387" y1="335.6797" y2="335.6797"/><text fill="#000000" font-family="sans-serif" font-size="13" lengthAdjust="spacing" textLength="155.3462" x="345.3291" y="330.8232">200 OK with search results</text></g><g class="message" data-participant-1="Dashboard" data-participant-2="Admin"><polygon fill="#181818" points="53.8413,362.0313,43.8413,366.0313,53.8413,370.0313,49.8413,366.0313" style="stroke:#181818;stroke-width:1;"/><line style="stroke:#181818;stroke-width:1;stroke-dasharray:2.0,2.0;" x1="47.8413" x2="317.3291" y1="366.0313" y2="366.0313"/><text fill="#000000" font-family="sans-serif" font-size="13" lengthAdjust="spacing" textLength="127.1563" x="59.8413" y="361.1748">Display search results</text></g><g class="message" data-participant-1="Admin" data-participant-2="Dashboard"><polygon fill="#181818" points="306.3291,392.3828,316.3291,396.3828,306.3291,400.3828,310.3291,396.3828" style="stroke:#181818;stroke-width:1;"/><line style="stroke:#181818;stroke-width:1;" x1="42.8413" x2="312.3291" y1="396.3828" y2="396.3828"/><text fill="#000000" font-family="sans-serif" font-size="13" lengthAdjust="spacing" textLength="114.1753" x="49.8413" y="391.5264">Select user account</text></g><g class="message" data-participant-1="Dashboard" data-participant-2="Gateway"><polygon fill="#181818" points="652.1387,422.7344,662.1387,426.7344,652.1387,430.7344,656.1387,426.7344" style="stroke:#181818;stroke-width:1;"/><line style="stroke:#181818;stroke-width:1;" x1="328.3291" x2="658.1387" y1="426.7344" y2="426.7344"/><text fill="#000000" font-family="sans-serif" font-size="13" lengthAdjust="spacing" textLength="174.1416" x="335.3291" y="421.8779">GET /api/admin/users/{userId}</text></g><g class="message" data-participant-1="Gateway" data-participant-2="UserService"><polygon fill="#181818" points="811.1431,453.0859,821.1431,457.0859,811.1431,461.0859,815.1431,457.0859" style="stroke:#181818;stroke-width:1;"/><line style="stroke:#181818;stroke-width:1;" x1="674.1387" x2="817.1431" y1="457.0859" y2="457.0859"/><text fill="#000000" font-family="sans-serif" font-size="13" lengthAdjust="spacing" textLength="91.0444" x="681.1387" y="452.2295">Get user details</text></g><g class="message" data-participant-1="UserService" data-participant-2="DB"><polygon fill="#181818" points="1281.8364,483.4375,1291.8364,487.4375,1281.8364,491.4375,1285.8364,487.4375" style="stroke:#181818;stroke-width:1;"/><line style="stroke:#181818;stroke-width:1;" x1="833.1431" x2="1287.8364" y1="487.4375" y2="487.4375"/><text fill="#000000" font-family="sans-serif" font-size="13" lengthAdjust="spacing" textLength="106.2217" x="840.1431" y="482.5811">Retrieve user data</text></g><g class="message" data-participant-1="DB" data-participant-2="UserService"><polygon fill="#181818" points="844.1431,513.7891,834.1431,517.7891,844.1431,521.7891,840.1431,517.7891" style="stroke:#181818;stroke-width:1;"/><line style="stroke:#181818;stroke-width:1;stroke-dasharray:2.0,2.0;" x1="838.1431" x2="1297.8364" y1="517.7891" y2="517.7891"/><text fill="#000000" font-family="sans-serif" font-size="13" lengthAdjust="spacing" textLength="56.3608" x="850.1431" y="512.9326">User data</text></g><g class="message" data-participant-1="UserService" data-participant-2="Gateway"><polygon fill="#181818" points="685.1387,544.1406,675.1387,548.1406,685.1387,552.1406,681.1387,548.1406" style="stroke:#181818;stroke-width:1;"/><line style="stroke:#181818;stroke-width:1;stroke-dasharray:2.0,2.0;" x1="679.1387" x2="827.1431" y1="548.1406" y2="548.1406"/><text fill="#000000" font-family="sans-serif" font-size="13" lengthAdjust="spacing" textLength="68.6372" x="691.1387" y="543.2842">User details</text></g><g class="message" data-participant-1="Gateway" data-participant-2="Dashboard"><polygon fill="#181818" points="339.3291,574.4922,329.3291,578.4922,339.3291,582.4922,335.3291,578.4922" style="stroke:#181818;stroke-width:1;"/><line style="stroke:#181818;stroke-width:1;stroke-dasharray:2.0,2.0;" x1="333.3291" x2="668.1387" y1="578.4922" y2="578.4922"/><text fill="#000000" font-family="sans-serif" font-size="13" lengthAdjust="spacing" textLength="140.9053" x="345.3291" y="573.6357">200 OK with user details</text></g><g class="message" data-participant-1="Dashboard" data-participant-2="Admin"><polygon fill="#181818" points="53.8413,604.8438,43.8413,608.8438,53.8413,612.8438,49.8413,608.8438" style="stroke:#181818;stroke-width:1;"/><line style="stroke:#181818;stroke-width:1;stroke-dasharray:2.0,2.0;" x1="47.8413" x2="317.3291" y1="608.8438" y2="608.8438"/><text fill="#000000" font-family="sans-serif" font-size="13" lengthAdjust="spacing" textLength="112.7153" x="59.8413" y="603.9873">Display user details</text></g><g class="message" data-participant-1="Admin" data-participant-2="Dashboard"><polygon fill="#181818" points="306.3291,635.1953,316.3291,639.1953,306.3291,643.1953,310.3291,639.1953" style="stroke:#181818;stroke-width:1;"/><line style="stroke:#181818;stroke-width:1;" x1="42.8413" x2="312.3291" y1="639.1953" y2="639.1953"/><text fill="#000000" font-family="sans-serif" font-size="13" lengthAdjust="spacing" textLength="138.0361" x="49.8413" y="634.3389">Select deactivate option</text></g><g class="message" data-participant-1="Admin" data-participant-2="Dashboard"><polygon fill="#181818" points="306.3291,665.5469,316.3291,669.5469,306.3291,673.5469,310.3291,669.5469" style="stroke:#181818;stroke-width:1;"/><line style="stroke:#181818;stroke-width:1;" x1="42.8413" x2="312.3291" y1="669.5469" y2="669.5469"/><text fill="#000000" font-family="sans-serif" font-size="13" lengthAdjust="spacing" textLength="147.4243" x="49.8413" y="664.6904">Enter deactivation reason</text></g><g class="message" data-participant-1="Dashboard" data-participant-2="Gateway"><polygon fill="#181818" points="652.1387,695.8984,662.1387,699.8984,652.1387,703.8984,656.1387,699.8984" style="stroke:#181818;stroke-width:1;"/><line style="stroke:#181818;stroke-width:1;" x1="328.3291" x2="658.1387" y1="699.8984" y2="699.8984"/><text fill="#000000" font-family="sans-serif" font-size="13" lengthAdjust="spacing" textLength="245.686" x="335.3291" y="695.042">POST /api/admin/users/{userId}/deactivate</text></g><g class="message" data-participant-1="Gateway" data-participant-2="UserService"><polygon fill="#181818" points="811.1431,726.25,821.1431,730.25,811.1431,734.25,815.1431,730.25" style="stroke:#181818;stroke-width:1;"/><line style="stroke:#181818;stroke-width:1;" x1="674.1387" x2="817.1431" y1="730.25" y2="730.25"/><text fill="#000000" font-family="sans-serif" font-size="13" lengthAdjust="spacing" textLength="90.3208" x="681.1387" y="725.3936">Deactivate user</text></g><g class="message" data-participant-1="UserService" data-participant-2="TransService"><polygon fill="#181818" points="1022.1855,756.6016,1032.1855,760.6016,1022.1855,764.6016,1026.1855,760.6016" style="stroke:#181818;stroke-width:1;"/><line style="stroke:#181818;stroke-width:1;" x1="833.1431" x2="1028.1855" y1="760.6016" y2="760.6016"/><text fill="#000000" font-family="sans-serif" font-size="13" lengthAdjust="spacing" textLength="160.4307" x="840.1431" y="755.7451">Check pending transactions</text></g><g class="message" data-participant-1="TransService" data-participant-2="DB"><polygon fill="#181818" points="1281.8364,786.9531,1291.8364,790.9531,1281.8364,794.9531,1285.8364,790.9531" style="stroke:#181818;stroke-width:1;"/><line style="stroke:#181818;stroke-width:1;" x1="1044.1855" x2="1287.8364" y1="790.9531" y2="790.9531"/><text fill="#000000" font-family="sans-serif" font-size="13" lengthAdjust="spacing" textLength="158.9834" x="1051.1855" y="786.0967">Query pending transactions</text></g><g class="message" data-participant-1="DB" data-participant-2="TransService"><polygon fill="#181818" points="1055.1855,817.3047,1045.1855,821.3047,1055.1855,825.3047,1051.1855,821.3047" style="stroke:#181818;stroke-width:1;"/><line style="stroke:#181818;stroke-width:1;stroke-dasharray:2.0,2.0;" x1="1049.1855" x2="1297.8364" y1="821.3047" y2="821.3047"/><text fill="#000000" font-family="sans-serif" font-size="13" lengthAdjust="spacing" textLength="121.4116" x="1061.1855" y="816.4482">Pending transactions</text></g><path d="M10,836.3047 L70.1709,836.3047 L70.1709,844.6563 L60.1709,854.6563 L10,854.6563 L10,836.3047" fill="#EEEEEE" style="stroke:#000000;stroke-width:1.5;"/><rect fill="none" height="277" style="stroke:#000000;stroke-width:1.5;" width="1108.0439" x="10" y="836.3047"/><text fill="#000000" font-family="sans-serif" font-size="13" font-weight="bold" lengthAdjust="spacing" textLength="15.1709" x="25" y="850.7998">alt</text><text fill="#000000" font-family="sans-serif" font-size="11" font-weight="bold" lengthAdjust="spacing" textLength="147.3076" x="85.1709" y="849.7236">[Pending transactions exist]</text><g class="message" data-participant-1="TransService" data-participant-2="UserService"><polygon fill="#181818" points="844.1431,873.0078,834.1431,877.0078,844.1431,881.0078,840.1431,877.0078" style="stroke:#181818;stroke-width:1;"/><line style="stroke:#181818;stroke-width:1;stroke-dasharray:2.0,2.0;" x1="838.1431" x2="1033.1855" y1="877.0078" y2="877.0078"/><text fill="#000000" font-family="sans-serif" font-size="13" lengthAdjust="spacing" textLength="177.0425" x="850.1431" y="872.1514">Warning: Pending transactions</text></g><g class="message" data-participant-1="UserService" data-participant-2="Gateway"><polygon fill="#181818" points="685.1387,903.3594,675.1387,907.3594,685.1387,911.3594,681.1387,907.3594" style="stroke:#181818;stroke-width:1;"/><line style="stroke:#181818;stroke-width:1;stroke-dasharray:2.0,2.0;" x1="679.1387" x2="822.1431" y1="907.3594" y2="907.3594"/><text fill="#000000" font-family="sans-serif" font-size="13" lengthAdjust="spacing" textLength="68.6499" x="691.1387" y="902.5029">409 Conflict</text></g><g class="message" data-participant-1="Gateway" data-participant-2="Dashboard"><polygon fill="#181818" points="339.3291,933.7109,329.3291,937.7109,339.3291,941.7109,335.3291,937.7109" style="stroke:#181818;stroke-width:1;"/><line style="stroke:#181818;stroke-width:1;stroke-dasharray:2.0,2.0;" x1="333.3291" x2="663.1387" y1="937.7109" y2="937.7109"/><text fill="#000000" font-family="sans-serif" font-size="13" lengthAdjust="spacing" textLength="68.6499" x="345.3291" y="932.8545">409 Conflict</text></g><g class="message" data-participant-1="Dashboard" data-participant-2="Admin"><polygon fill="#181818" points="53.8413,964.0625,43.8413,968.0625,53.8413,972.0625,49.8413,968.0625" style="stroke:#181818;stroke-width:1;"/><line style="stroke:#181818;stroke-width:1;stroke-dasharray:2.0,2.0;" x1="47.8413" x2="317.3291" y1="968.0625" y2="968.0625"/><text fill="#000000" font-family="sans-serif" font-size="13" lengthAdjust="spacing" textLength="251.4878" x="59.8413" y="963.2061">Display warning about pending transactions</text></g><g class="message" data-participant-1="Admin" data-participant-2="Dashboard"><polygon fill="#181818" points="306.3291,994.4141,316.3291,998.4141,306.3291,1002.4141,310.3291,998.4141" style="stroke:#181818;stroke-width:1;"/><line style="stroke:#181818;stroke-width:1;" x1="42.8413" x2="312.3291" y1="998.4141" y2="998.4141"/><text fill="#000000" font-family="sans-serif" font-size="13" lengthAdjust="spacing" textLength="166.188" x="49.8413" y="993.5576">Confirm deactivation anyway</text></g><g class="message" data-participant-1="Dashboard" data-participant-2="Gateway"><polygon fill="#181818" points="652.1387,1024.7656,662.1387,1028.7656,652.1387,1032.7656,656.1387,1028.7656" style="stroke:#181818;stroke-width:1;"/><line style="stroke:#181818;stroke-width:1;" x1="328.3291" x2="658.1387" y1="1028.7656" y2="1028.7656"/><text fill="#000000" font-family="sans-serif" font-size="13" lengthAdjust="spacing" textLength="311.8096" x="335.3291" y="1023.9092">POST /api/admin/users/{userId}/deactivate?force=true</text></g><g class="message" data-participant-1="Gateway" data-participant-2="UserService"><polygon fill="#181818" points="811.1431,1055.1172,821.1431,1059.1172,811.1431,1063.1172,815.1431,1059.1172" style="stroke:#181818;stroke-width:1;"/><line style="stroke:#181818;stroke-width:1;" x1="674.1387" x2="817.1431" y1="1059.1172" y2="1059.1172"/><text fill="#000000" font-family="sans-serif" font-size="13" lengthAdjust="spacing" textLength="125.0044" x="681.1387" y="1054.2607">Force deactivate user</text></g><line style="stroke:#000000;stroke-width:1;stroke-dasharray:2.0,2.0;" x1="10" x2="1118.0439" y1="1068.1172" y2="1068.1172"/><text fill="#000000" font-family="sans-serif" font-size="11" font-weight="bold" lengthAdjust="spacing" textLength="136.2808" x="15" y="1079.5361">[No pending transactions]</text><g class="message" data-participant-1="TransService" data-participant-2="UserService"><polygon fill="#181818" points="844.1431,1101.3047,834.1431,1105.3047,844.1431,1109.3047,840.1431,1105.3047" style="stroke:#181818;stroke-width:1;"/><line style="stroke:#181818;stroke-width:1;stroke-dasharray:2.0,2.0;" x1="838.1431" x2="1038.1855" y1="1105.3047" y2="1105.3047"/><text fill="#000000" font-family="sans-serif" font-size="13" lengthAdjust="spacing" textLength="140.2007" x="850.1431" y="1100.4482">No pending transactions</text></g><g class="message" data-participant-1="UserService" data-participant-2="DB"><polygon fill="#181818" points="1281.8364,1138.6563,1291.8364,1142.6563,1281.8364,1146.6563,1285.8364,1142.6563" style="stroke:#181818;stroke-width:1;"/><line style="stroke:#181818;stroke-width:1;" x1="833.1431" x2="1287.8364" y1="1142.6563" y2="1142.6563"/><text fill="#000000" font-family="sans-serif" font-size="13" lengthAdjust="spacing" textLength="193.6733" x="840.1431" y="1137.7998">Update user status to deactivated</text></g><g class="message" data-participant-1="DB" data-participant-2="UserService"><polygon fill="#181818" points="844.1431,1169.0078,834.1431,1173.0078,844.1431,1177.0078,840.1431,1173.0078" style="stroke:#181818;stroke-width:1;"/><line style="stroke:#181818;stroke-width:1;stroke-dasharray:2.0,2.0;" x1="838.1431" x2="1297.8364" y1="1173.0078" y2="1173.0078"/><text fill="#000000" font-family="sans-serif" font-size="13" lengthAdjust="spacing" textLength="49.1309" x="850.1431" y="1168.1514">Success</text></g><g class="message" data-participant-1="UserService" data-participant-2="DB"><polygon fill="#181818" points="1281.8364,1199.3594,1291.8364,1203.3594,1281.8364,1207.3594,1285.8364,1203.3594" style="stroke:#181818;stroke-width:1;"/><line style="stroke:#181818;stroke-width:1;" x1="833.1431" x2="1287.8364" y1="1203.3594" y2="1203.3594"/><text fill="#000000" font-family="sans-serif" font-size="13" lengthAdjust="spacing" textLength="164.7725" x="840.1431" y="1198.5029">Log deactivation with reason</text></g><g class="message" data-participant-1="DB" data-participant-2="UserService"><polygon fill="#181818" points="844.1431,1229.7109,834.1431,1233.7109,844.1431,1237.7109,840.1431,1233.7109" style="stroke:#181818;stroke-width:1;"/><line style="stroke:#181818;stroke-width:1;stroke-dasharray:2.0,2.0;" x1="838.1431" x2="1297.8364" y1="1233.7109" y2="1233.7109"/><text fill="#000000" font-family="sans-serif" font-size="13" lengthAdjust="spacing" textLength="49.1309" x="850.1431" y="1228.8545">Success</text></g><g class="message" data-participant-1="UserService" data-participant-2="NotifService"><polygon fill="#181818" points="1167.9575,1260.0625,1177.9575,1264.0625,1167.9575,1268.0625,1171.9575,1264.0625" style="stroke:#181818;stroke-width:1;"/><line style="stroke:#181818;stroke-width:1;" x1="833.1431" x2="1173.9575" y1="1264.0625" y2="1264.0625"/><text fill="#000000" font-family="sans-serif" font-size="13" lengthAdjust="spacing" textLength="139.4771" x="840.1431" y="1259.2061">Send notification to user</text></g><g class="message" data-participant-1="NotifService" data-participant-2="UserService"><polygon fill="#181818" points="844.1431,1290.4141,834.1431,1294.4141,844.1431,1298.4141,840.1431,1294.4141" style="stroke:#181818;stroke-width:1;"/><line style="stroke:#181818;stroke-width:1;stroke-dasharray:2.0,2.0;" x1="838.1431" x2="1183.9575" y1="1294.4141" y2="1294.4141"/><text fill="#000000" font-family="sans-serif" font-size="13" lengthAdjust="spacing" textLength="111.2998" x="850.1431" y="1289.5576">Notification queued</text></g><g class="message" data-participant-1="UserService" data-participant-2="Gateway"><polygon fill="#181818" points="685.1387,1320.7656,675.1387,1324.7656,685.1387,1328.7656,681.1387,1324.7656" style="stroke:#181818;stroke-width:1;"/><line style="stroke:#181818;stroke-width:1;stroke-dasharray:2.0,2.0;" x1="679.1387" x2="827.1431" y1="1324.7656" y2="1324.7656"/><text fill="#000000" font-family="sans-serif" font-size="13" lengthAdjust="spacing" textLength="97.5508" x="691.1387" y="1319.9092">User deactivated</text></g><g class="message" data-participant-1="Gateway" data-participant-2="Dashboard"><polygon fill="#181818" points="339.3291,1351.1172,329.3291,1355.1172,339.3291,1359.1172,335.3291,1355.1172" style="stroke:#181818;stroke-width:1;"/><line style="stroke:#181818;stroke-width:1;stroke-dasharray:2.0,2.0;" x1="333.3291" x2="668.1387" y1="1355.1172" y2="1355.1172"/><text fill="#000000" font-family="sans-serif" font-size="13" lengthAdjust="spacing" textLength="44.0845" x="345.3291" y="1350.2607">200 OK</text></g><g class="message" data-participant-1="Dashboard" data-participant-2="Admin"><polygon fill="#181818" points="53.8413,1381.4688,43.8413,1385.4688,53.8413,1389.4688,49.8413,1385.4688" style="stroke:#181818;stroke-width:1;"/><line style="stroke:#181818;stroke-width:1;stroke-dasharray:2.0,2.0;" x1="47.8413" x2="322.3291" y1="1385.4688" y2="1385.4688"/><text fill="#000000" font-family="sans-serif" font-size="13" lengthAdjust="spacing" textLength="117.0444" x="59.8413" y="1380.6123">Display confirmation</text></g><!--SRC=[hLRlRzem4FsUl-BKxmYqJPE6r5K5EbJjHzaeskV3kOAruAIs0qFL_lVPJaZiDAJGhHzeGjwzktllk1YPJYLSNCSRBYu05RYhA4EfEUCP2bq-X0cgzJ956JjOTTU0pcvXYffsk7UmyZe4BHH9-8e2LxGXyyMSv9OpSW7sMNaV1jrB50gPvga80jpthH7VKiqVECDd8Uv1QyW4DIvH5R39A8eqrmd1Ojnx-tu84xBvjwObLoPSCvRcGaTH8L3lOwtAq2H4oTRmODJDBHXBS4LHAnXLbvQZb6m8qvjxw6F6-sZf-vP5zPMZlNgyV7hCIUx_r7m7gQFomd9vQbOLEPuewEIWHUJTk7P6G_XkqnGjI6AfZBrOez1a1BrceeKFZic7XndyRbrGqPs9LNcYWzYWpAh3KF8tWm7SVOOTr-iEfaedJtN3upmq7dEL9OQw4N_4ueIO3kqzmyed- -ysFiV2APNfOjB8apDi_45QSjfI6Mxc_3GR7V8i3m-b_ODv-H6UqwmBehkCyvZJp6w9Ll2Dq8wlnDfb8WcLGRTxFRkRTvZThvEUuRktUIpFQRRxct48upMnNv2HYBbOWQwtgJT4mIwD_Bjm6tIprECKLZ1hYsgC5YQw5GVqcoiTWVaBosegzHEbCC57ijduezFxRl01ngbuI3WhCXsPr6UupcdS5GK1BjDSjojdETn7s_ZPJ5nkmW54iRVpqaZ-cY6yCYyeHfTQvXJstD3rauNvlnWtXvGeCg_JusrrczKLwQKAnjBWMnVS8eiFPO7Ig7C5ElLOuXVttJndZ5Jt6wl8zILTXNwuhLLkXV-JnZ-Zs8KbOX3-USRq5cw2u53ZtxJ9xX6POqHknF6g2PXUNFQrlgzQ-EUlTrRy85prWOZLUUel]--></g></svg>