<svg xmlns="http://www.w3.org/2000/svg" xmlns:xlink="http://www.w3.org/1999/xlink" contentStyleType="text/css" data-diagram-type="SEQUENCE" height="1830px" preserveAspectRatio="none" style="width:726px;height:1830px;background:#FFFFFF;" version="1.1" viewBox="0 0 726 1830" width="726px" zoomAndPan="magnify"><title>UC-40: Refresh Tickets</title><defs/><g><rect fill="#FFFFCC" height="28.0566" rx="2.5" ry="2.5" style="stroke:#FFDD88;stroke-width:3;" width="715.4678" x="5" y="5"/><text fill="#000000" font-family="monospace" font-size="10" lengthAdjust="spacing" textLength="354.0576" x="10" y="20">Please&#160;use&#160;'!option&#160;handwritten&#160;true'&#160;to&#160;enable&#160;handwritten</text><text fill="#000000" font-family="sans-serif" font-size="14" font-weight="bold" lengthAdjust="spacing" textLength="153.2754" x="275.0962" y="67.5898">UC-40: Refresh Tickets</text><g><title>Admin</title><rect fill="#000000" fill-opacity="0.00000" height="1588.875" width="8" x="23.8413" y="159.2754"/><line style="stroke:#181818;stroke-width:0.5;stroke-dasharray:5.0,5.0;" x1="27" x2="27" y1="159.2754" y2="1748.1504"/></g><g><title>Admin Portal</title><rect fill="#000000" fill-opacity="0.00000" height="1588.875" width="8" x="189.4702" y="159.2754"/><line style="stroke:#181818;stroke-width:0.5;stroke-dasharray:5.0,5.0;" x1="193.3979" x2="193.3979" y1="159.2754" y2="1748.1504"/></g><g><title>API Gateway</title><rect fill="#000000" fill-opacity="0.00000" height="1588.875" width="8" x="357.9937" y="159.2754"/><line style="stroke:#181818;stroke-width:0.5;stroke-dasharray:5.0,5.0;" x1="361.1421" x2="361.1421" y1="159.2754" y2="1748.1504"/></g><g><title>Support</title><rect fill="#000000" fill-opacity="0.00000" height="1588.875" width="8" x="505.5508" y="159.2754"/><line style="stroke:#181818;stroke-width:0.5;stroke-dasharray:5.0,5.0;" x1="509.0337" x2="509.0337" y1="159.2754" y2="1748.1504"/></g><g><title>Database</title><rect fill="#000000" fill-opacity="0.00000" height="1588.875" width="8" x="662.5024" y="159.2754"/><line style="stroke:#181818;stroke-width:0.5;stroke-dasharray:5.0,5.0;" x1="665.5371" x2="665.5371" y1="159.2754" y2="1748.1504"/></g><g class="participant participant-head" data-participant="admin"><text fill="#000000" font-family="sans-serif" font-size="14" lengthAdjust="spacing" textLength="39.6826" x="5" y="156.1992">Admin</text><ellipse cx="27.8413" cy="90.166" fill="#E2E2F0" rx="8" ry="8" style="stroke:#181818;stroke-width:0.5;"/><path d="M27.8413,98.166 L27.8413,125.166 M14.8413,106.166 L40.8413,106.166 M27.8413,125.166 L14.8413,140.166 M27.8413,125.166 L40.8413,140.166" fill="none" style="stroke:#181818;stroke-width:0.5;"/></g><g class="participant participant-tail" data-participant="admin"><text fill="#000000" font-family="sans-serif" font-size="14" lengthAdjust="spacing" textLength="39.6826" x="5" y="1761.6836">Admin</text><ellipse cx="27.8413" cy="1773.2598" fill="#E2E2F0" rx="8" ry="8" style="stroke:#181818;stroke-width:0.5;"/><path d="M27.8413,1781.2598 L27.8413,1808.2598 M14.8413,1789.2598 L40.8413,1789.2598 M27.8413,1808.2598 L14.8413,1823.2598 M27.8413,1808.2598 L40.8413,1823.2598" fill="none" style="stroke:#181818;stroke-width:0.5;"/></g><g class="participant participant-head" data-participant="portal"><rect fill="#E2E2F0" height="31.6094" rx="2.5" ry="2.5" style="stroke:#181818;stroke-width:0.5;" width="94.1445" x="146.3979" y="126.666"/><text fill="#000000" font-family="sans-serif" font-size="14" lengthAdjust="spacing" textLength="80.1445" x="153.3979" y="148.1992">Admin Portal</text></g><g class="participant participant-tail" data-participant="portal"><rect fill="#E2E2F0" height="31.6094" rx="2.5" ry="2.5" style="stroke:#181818;stroke-width:0.5;" width="94.1445" x="146.3979" y="1747.1504"/><text fill="#000000" font-family="sans-serif" font-size="14" lengthAdjust="spacing" textLength="80.1445" x="153.3979" y="1768.6836">Admin Portal</text></g><g class="participant participant-head" data-participant="gateway"><rect fill="#E2E2F0" height="31.6094" rx="2.5" ry="2.5" style="stroke:#181818;stroke-width:0.5;" width="95.7031" x="314.1421" y="126.666"/><text fill="#000000" font-family="sans-serif" font-size="14" lengthAdjust="spacing" textLength="81.7031" x="321.1421" y="148.1992">API Gateway</text></g><g class="participant participant-tail" data-participant="gateway"><rect fill="#E2E2F0" height="31.6094" rx="2.5" ry="2.5" style="stroke:#181818;stroke-width:0.5;" width="95.7031" x="314.1421" y="1747.1504"/><text fill="#000000" font-family="sans-serif" font-size="14" lengthAdjust="spacing" textLength="81.7031" x="321.1421" y="1768.6836">API Gateway</text></g><g class="participant participant-head" data-participant="supportService"><rect fill="#E2E2F0" height="49.2188" rx="2.5" ry="2.5" style="stroke:#181818;stroke-width:0.5;" width="63.0342" x="478.0337" y="109.0566"/><text fill="#000000" font-family="sans-serif" font-size="14" lengthAdjust="spacing" textLength="49.0342" x="485.0337" y="130.5898">Support</text><text fill="#000000" font-family="sans-serif" font-size="14" lengthAdjust="spacing" textLength="46.6826" x="486.2095" y="148.1992">Service</text></g><g class="participant participant-tail" data-participant="supportService"><rect fill="#E2E2F0" height="49.2188" rx="2.5" ry="2.5" style="stroke:#181818;stroke-width:0.5;" width="63.0342" x="478.0337" y="1747.1504"/><text fill="#000000" font-family="sans-serif" font-size="14" lengthAdjust="spacing" textLength="49.0342" x="485.0337" y="1768.6836">Support</text><text fill="#000000" font-family="sans-serif" font-size="14" lengthAdjust="spacing" textLength="46.6826" x="486.2095" y="1786.293">Service</text></g><g class="participant participant-head" data-participant="db"><text fill="#000000" font-family="sans-serif" font-size="14" lengthAdjust="spacing" textLength="59.9307" x="633.5371" y="156.1992">Database</text><path d="M648.5024,105.666 C648.5024,95.666 666.5024,95.666 666.5024,95.666 C666.5024,95.666 684.5024,95.666 684.5024,105.666 L684.5024,131.666 C684.5024,141.666 666.5024,141.666 666.5024,141.666 C666.5024,141.666 648.5024,141.666 648.5024,131.666 L648.5024,105.666" fill="#E2E2F0" style="stroke:#181818;stroke-width:1.5;"/><path d="M648.5024,105.666 C648.5024,115.666 666.5024,115.666 666.5024,115.666 C666.5024,115.666 684.5024,115.666 684.5024,105.666" fill="none" style="stroke:#181818;stroke-width:1.5;"/></g><g class="participant participant-tail" data-participant="db"><text fill="#000000" font-family="sans-serif" font-size="14" lengthAdjust="spacing" textLength="59.9307" x="633.5371" y="1761.6836">Database</text><path d="M648.5024,1774.7598 C648.5024,1764.7598 666.5024,1764.7598 666.5024,1764.7598 C666.5024,1764.7598 684.5024,1764.7598 684.5024,1774.7598 L684.5024,1800.7598 C684.5024,1810.7598 666.5024,1810.7598 666.5024,1810.7598 C666.5024,1810.7598 648.5024,1810.7598 648.5024,1800.7598 L648.5024,1774.7598" fill="#E2E2F0" style="stroke:#181818;stroke-width:1.5;"/><path d="M648.5024,1774.7598 C648.5024,1784.7598 666.5024,1784.7598 666.5024,1784.7598 C666.5024,1784.7598 684.5024,1784.7598 684.5024,1774.7598" fill="none" style="stroke:#181818;stroke-width:1.5;"/></g><rect fill="#EEEEEE" height="3" style="stroke:#EEEEEE;stroke-width:1;" width="704.4678" x="0" y="190.4512"/><line style="stroke:#000000;stroke-width:1;" x1="0" x2="704.4678" y1="190.4512" y2="190.4512"/><line style="stroke:#000000;stroke-width:1;" x1="0" x2="704.4678" y1="193.4512" y2="193.4512"/><rect fill="#EEEEEE" height="24.3516" style="stroke:#000000;stroke-width:2;" width="162.1226" x="271.1726" y="179.2754"/><text fill="#000000" font-family="sans-serif" font-size="13" font-weight="bold" lengthAdjust="spacing" textLength="144.5107" x="277.1726" y="196.7705">Main Success Scenario</text><g class="message" data-participant-1="admin" data-participant-2="portal"><polygon fill="#181818" points="181.4702,231.9785,191.4702,235.9785,181.4702,239.9785,185.4702,235.9785" style="stroke:#181818;stroke-width:1;"/><line style="stroke:#181818;stroke-width:1;" x1="27.8413" x2="187.4702" y1="235.9785" y2="235.9785"/><text fill="#000000" font-family="sans-serif" font-size="13" lengthAdjust="spacing" textLength="127.1816" x="47.0649" y="231.1221">View ticket dashboard</text></g><g class="message" data-participant-1="portal" data-participant-2="gateway"><polygon fill="#181818" points="349.9937,262.3301,359.9937,266.3301,349.9937,270.3301,353.9937,266.3301" style="stroke:#181818;stroke-width:1;"/><line style="stroke:#181818;stroke-width:1;" x1="193.4702" x2="355.9937" y1="266.3301" y2="266.3301"/><text fill="#000000" font-family="sans-serif" font-size="13" lengthAdjust="spacing" textLength="144.5234" x="205.4702" y="261.4736">Request initial ticket data</text></g><g class="message" data-participant-1="gateway" data-participant-2="supportService"><polygon fill="#181818" points="497.5508,292.6816,507.5508,296.6816,497.5508,300.6816,501.5508,296.6816" style="stroke:#181818;stroke-width:1;"/><line style="stroke:#181818;stroke-width:1;" x1="361.9937" x2="503.5508" y1="296.6816" y2="296.6816"/><text fill="#000000" font-family="sans-serif" font-size="13" lengthAdjust="spacing" textLength="83.8208" x="393.8618" y="291.8252">Get ticket data</text></g><g class="message" data-participant-1="supportService" data-participant-2="db"><polygon fill="#181818" points="654.5024,323.0332,664.5024,327.0332,654.5024,331.0332,658.5024,327.0332" style="stroke:#181818;stroke-width:1;"/><line style="stroke:#181818;stroke-width:1;" x1="509.5508" x2="660.5024" y1="327.0332" y2="327.0332"/><text fill="#000000" font-family="sans-serif" font-size="13" lengthAdjust="spacing" textLength="75.8545" x="550.0994" y="322.1768">Query tickets</text></g><g class="message" data-participant-1="db" data-participant-2="supportService"><polygon fill="#181818" points="520.5508,353.3848,510.5508,357.3848,520.5508,361.3848,516.5508,357.3848" style="stroke:#181818;stroke-width:1;"/><line style="stroke:#181818;stroke-width:1;stroke-dasharray:2.0,2.0;" x1="514.5508" x2="665.5024" y1="357.3848" y2="357.3848"/><text fill="#000000" font-family="sans-serif" font-size="13" lengthAdjust="spacing" textLength="79.4727" x="548.2903" y="352.5283">Return tickets</text></g><g class="message" data-participant-1="supportService" data-participant-2="gateway"><polygon fill="#181818" points="372.9937,383.7363,362.9937,387.7363,372.9937,391.7363,368.9937,387.7363" style="stroke:#181818;stroke-width:1;"/><line style="stroke:#181818;stroke-width:1;" x1="366.9937" x2="508.5508" y1="387.7363" y2="387.7363"/><text fill="#000000" font-family="sans-serif" font-size="13" lengthAdjust="spacing" textLength="101.8862" x="384.8291" y="382.8799">Return ticket data</text></g><g class="message" data-participant-1="gateway" data-participant-2="portal"><polygon fill="#181818" points="204.4702,414.0879,194.4702,418.0879,204.4702,422.0879,200.4702,418.0879" style="stroke:#181818;stroke-width:1;"/><line style="stroke:#181818;stroke-width:1;" x1="198.4702" x2="360.9937" y1="418.0879" y2="418.0879"/><text fill="#000000" font-family="sans-serif" font-size="13" lengthAdjust="spacing" textLength="110.5444" x="222.4597" y="413.2314">Forward ticket data</text></g><g class="message" data-participant-1="portal" data-participant-2="portal"><line style="stroke:#181818;stroke-width:1;" x1="193.4702" x2="235.4702" y1="448.4395" y2="448.4395"/><line style="stroke:#181818;stroke-width:1;" x1="235.4702" x2="235.4702" y1="448.4395" y2="461.4395"/><line style="stroke:#181818;stroke-width:1;" x1="194.4702" x2="235.4702" y1="461.4395" y2="461.4395"/><polygon fill="#181818" points="204.4702,457.4395,194.4702,461.4395,204.4702,465.4395,200.4702,461.4395" style="stroke:#181818;stroke-width:1;"/><text fill="#000000" font-family="sans-serif" font-size="13" lengthAdjust="spacing" textLength="141.6416" x="200.4702" y="443.583">Render ticket dashboard</text></g><g class="message" data-participant-1="portal" data-participant-2="admin"><polygon fill="#181818" points="38.8413,487.791,28.8413,491.791,38.8413,495.791,34.8413,491.791" style="stroke:#181818;stroke-width:1;"/><line style="stroke:#181818;stroke-width:1;" x1="32.8413" x2="192.4702" y1="491.791" y2="491.791"/><text fill="#000000" font-family="sans-serif" font-size="13" lengthAdjust="spacing" textLength="141.6289" x="39.8413" y="486.9346">Display ticket dashboard</text></g><g class="message" data-participant-1="admin" data-participant-2="portal"><polygon fill="#181818" points="181.4702,518.1426,191.4702,522.1426,181.4702,526.1426,185.4702,522.1426" style="stroke:#181818;stroke-width:1;"/><line style="stroke:#181818;stroke-width:1;" x1="27.8413" x2="187.4702" y1="522.1426" y2="522.1426"/><text fill="#000000" font-family="sans-serif" font-size="13" lengthAdjust="spacing" textLength="126.4453" x="47.4331" y="517.2861">Request ticket refresh</text></g><g class="message" data-participant-1="portal" data-participant-2="gateway"><polygon fill="#181818" points="349.9937,548.4941,359.9937,552.4941,349.9937,556.4941,353.9937,552.4941" style="stroke:#181818;stroke-width:1;"/><line style="stroke:#181818;stroke-width:1;" x1="193.4702" x2="355.9937" y1="552.4941" y2="552.4941"/><text fill="#000000" font-family="sans-serif" font-size="13" lengthAdjust="spacing" textLength="121.4053" x="217.0293" y="547.6377">Send refresh request</text></g><g class="message" data-participant-1="gateway" data-participant-2="supportService"><polygon fill="#181818" points="497.5508,578.8457,507.5508,582.8457,497.5508,586.8457,501.5508,582.8457" style="stroke:#181818;stroke-width:1;"/><line style="stroke:#181818;stroke-width:1;" x1="361.9937" x2="503.5508" y1="582.8457" y2="582.8457"/><text fill="#000000" font-family="sans-serif" font-size="13" lengthAdjust="spacing" textLength="123.5571" x="373.9937" y="577.9893">Request latest tickets</text></g><g class="message" data-participant-1="supportService" data-participant-2="db"><polygon fill="#181818" points="654.5024,609.1973,664.5024,613.1973,654.5024,617.1973,658.5024,613.1973" style="stroke:#181818;stroke-width:1;"/><line style="stroke:#181818;stroke-width:1;" x1="509.5508" x2="660.5024" y1="613.1973" y2="613.1973"/><text fill="#000000" font-family="sans-serif" font-size="13" lengthAdjust="spacing" textLength="132.9517" x="521.5508" y="608.3408">Query latest ticket data</text></g><g class="message" data-participant-1="db" data-participant-2="supportService"><polygon fill="#181818" points="520.5508,639.5488,510.5508,643.5488,520.5508,647.5488,516.5508,643.5488" style="stroke:#181818;stroke-width:1;"/><line style="stroke:#181818;stroke-width:1;stroke-dasharray:2.0,2.0;" x1="514.5508" x2="665.5024" y1="643.5488" y2="643.5488"/><text fill="#000000" font-family="sans-serif" font-size="13" lengthAdjust="spacing" textLength="130.0762" x="522.9885" y="638.6924">Return updated tickets</text></g><g class="message" data-participant-1="supportService" data-participant-2="gateway"><polygon fill="#181818" points="372.9937,669.9004,362.9937,673.9004,372.9937,677.9004,368.9937,673.9004" style="stroke:#181818;stroke-width:1;"/><line style="stroke:#181818;stroke-width:1;" x1="366.9937" x2="508.5508" y1="673.9004" y2="673.9004"/><text fill="#000000" font-family="sans-serif" font-size="13" lengthAdjust="spacing" textLength="102.6162" x="384.4641" y="669.0439">Return latest data</text></g><g class="message" data-participant-1="gateway" data-participant-2="portal"><polygon fill="#181818" points="204.4702,700.252,194.4702,704.252,204.4702,708.252,200.4702,704.252" style="stroke:#181818;stroke-width:1;"/><line style="stroke:#181818;stroke-width:1;" x1="198.4702" x2="360.9937" y1="704.252" y2="704.252"/><text fill="#000000" font-family="sans-serif" font-size="13" lengthAdjust="spacing" textLength="127.1943" x="214.1348" y="699.3955">Forward updated data</text></g><g class="message" data-participant-1="portal" data-participant-2="portal"><line style="stroke:#181818;stroke-width:1;" x1="193.4702" x2="235.4702" y1="734.6035" y2="734.6035"/><line style="stroke:#181818;stroke-width:1;" x1="235.4702" x2="235.4702" y1="734.6035" y2="747.6035"/><line style="stroke:#181818;stroke-width:1;" x1="194.4702" x2="235.4702" y1="747.6035" y2="747.6035"/><polygon fill="#181818" points="204.4702,743.6035,194.4702,747.6035,204.4702,751.6035,200.4702,747.6035" style="stroke:#181818;stroke-width:1;"/><text fill="#000000" font-family="sans-serif" font-size="13" lengthAdjust="spacing" textLength="119.9517" x="200.4702" y="729.7471">Update ticket display</text></g><g class="message" data-participant-1="portal" data-participant-2="portal"><line style="stroke:#181818;stroke-width:1;" x1="193.4702" x2="235.4702" y1="777.9551" y2="777.9551"/><line style="stroke:#181818;stroke-width:1;" x1="235.4702" x2="235.4702" y1="777.9551" y2="790.9551"/><line style="stroke:#181818;stroke-width:1;" x1="194.4702" x2="235.4702" y1="790.9551" y2="790.9551"/><polygon fill="#181818" points="204.4702,786.9551,194.4702,790.9551,204.4702,794.9551,200.4702,790.9551" style="stroke:#181818;stroke-width:1;"/><text fill="#000000" font-family="sans-serif" font-size="13" lengthAdjust="spacing" textLength="105.4917" x="200.4702" y="773.0986">Update timestamp</text></g><g class="message" data-participant-1="portal" data-participant-2="admin"><polygon fill="#181818" points="38.8413,817.3066,28.8413,821.3066,38.8413,825.3066,34.8413,821.3066" style="stroke:#181818;stroke-width:1;"/><line style="stroke:#181818;stroke-width:1;" x1="32.8413" x2="192.4702" y1="821.3066" y2="821.3066"/><text fill="#000000" font-family="sans-serif" font-size="13" lengthAdjust="spacing" textLength="141.6099" x="39.8508" y="816.4502">Display refreshed tickets</text></g><g class="message" data-participant-1="portal" data-participant-2="admin"><polygon fill="#181818" points="38.8413,847.6582,28.8413,851.6582,38.8413,855.6582,34.8413,851.6582" style="stroke:#181818;stroke-width:1;"/><line style="stroke:#181818;stroke-width:1;" x1="32.8413" x2="192.4702" y1="851.6582" y2="851.6582"/><text fill="#000000" font-family="sans-serif" font-size="13" lengthAdjust="spacing" textLength="140.1626" x="40.5745" y="846.8018">Show refresh timestamp</text></g><rect fill="#EEEEEE" height="3" style="stroke:#EEEEEE;stroke-width:1;" width="704.4678" x="0" y="880.834"/><line style="stroke:#000000;stroke-width:1;" x1="0" x2="704.4678" y1="880.834" y2="880.834"/><line style="stroke:#000000;stroke-width:1;" x1="0" x2="704.4678" y1="883.834" y2="883.834"/><rect fill="#EEEEEE" height="24.3516" style="stroke:#000000;stroke-width:2;" width="258.1626" x="223.1526" y="869.6582"/><text fill="#000000" font-family="sans-serif" font-size="13" font-weight="bold" lengthAdjust="spacing" textLength="240.5508" x="229.1526" y="887.1533">Alternative Scenario: Connection Error</text><g class="message" data-participant-1="admin" data-participant-2="portal"><polygon fill="#181818" points="181.4702,922.3613,191.4702,926.3613,181.4702,930.3613,185.4702,926.3613" style="stroke:#181818;stroke-width:1;"/><line style="stroke:#181818;stroke-width:1;" x1="27.8413" x2="187.4702" y1="926.3613" y2="926.3613"/><text fill="#000000" font-family="sans-serif" font-size="13" lengthAdjust="spacing" textLength="127.1816" x="47.0649" y="921.5049">View ticket dashboard</text></g><g class="message" data-participant-1="portal" data-participant-2="gateway"><polygon fill="#181818" points="349.9937,952.7129,359.9937,956.7129,349.9937,960.7129,353.9937,956.7129" style="stroke:#181818;stroke-width:1;"/><line style="stroke:#181818;stroke-width:1;" x1="193.4702" x2="355.9937" y1="956.7129" y2="956.7129"/><text fill="#000000" font-family="sans-serif" font-size="13" lengthAdjust="spacing" textLength="144.5234" x="205.4702" y="951.8564">Request initial ticket data</text></g><g class="message" data-participant-1="gateway" data-participant-2="supportService"><polygon fill="#181818" points="497.5508,983.0645,507.5508,987.0645,497.5508,991.0645,501.5508,987.0645" style="stroke:#181818;stroke-width:1;"/><line style="stroke:#181818;stroke-width:1;" x1="361.9937" x2="503.5508" y1="987.0645" y2="987.0645"/><text fill="#000000" font-family="sans-serif" font-size="13" lengthAdjust="spacing" textLength="83.8208" x="393.8618" y="982.208">Get ticket data</text></g><g class="message" data-participant-1="supportService" data-participant-2="db"><polygon fill="#181818" points="654.5024,1013.416,664.5024,1017.416,654.5024,1021.416,658.5024,1017.416" style="stroke:#181818;stroke-width:1;"/><line style="stroke:#181818;stroke-width:1;" x1="509.5508" x2="660.5024" y1="1017.416" y2="1017.416"/><text fill="#000000" font-family="sans-serif" font-size="13" lengthAdjust="spacing" textLength="75.8545" x="550.0994" y="1012.5596">Query tickets</text></g><g class="message" data-participant-1="db" data-participant-2="supportService"><polygon fill="#181818" points="520.5508,1043.7676,510.5508,1047.7676,520.5508,1051.7676,516.5508,1047.7676" style="stroke:#181818;stroke-width:1;"/><line style="stroke:#181818;stroke-width:1;stroke-dasharray:2.0,2.0;" x1="514.5508" x2="665.5024" y1="1047.7676" y2="1047.7676"/><text fill="#000000" font-family="sans-serif" font-size="13" lengthAdjust="spacing" textLength="79.4727" x="548.2903" y="1042.9111">Return tickets</text></g><g class="message" data-participant-1="supportService" data-participant-2="gateway"><polygon fill="#181818" points="372.9937,1074.1191,362.9937,1078.1191,372.9937,1082.1191,368.9937,1078.1191" style="stroke:#181818;stroke-width:1;"/><line style="stroke:#181818;stroke-width:1;" x1="366.9937" x2="508.5508" y1="1078.1191" y2="1078.1191"/><text fill="#000000" font-family="sans-serif" font-size="13" lengthAdjust="spacing" textLength="101.8862" x="384.8291" y="1073.2627">Return ticket data</text></g><g class="message" data-participant-1="gateway" data-participant-2="portal"><polygon fill="#181818" points="204.4702,1104.4707,194.4702,1108.4707,204.4702,1112.4707,200.4702,1108.4707" style="stroke:#181818;stroke-width:1;"/><line style="stroke:#181818;stroke-width:1;" x1="198.4702" x2="360.9937" y1="1108.4707" y2="1108.4707"/><text fill="#000000" font-family="sans-serif" font-size="13" lengthAdjust="spacing" textLength="110.5444" x="222.4597" y="1103.6143">Forward ticket data</text></g><g class="message" data-participant-1="portal" data-participant-2="portal"><line style="stroke:#181818;stroke-width:1;" x1="193.4702" x2="235.4702" y1="1138.8223" y2="1138.8223"/><line style="stroke:#181818;stroke-width:1;" x1="235.4702" x2="235.4702" y1="1138.8223" y2="1151.8223"/><line style="stroke:#181818;stroke-width:1;" x1="194.4702" x2="235.4702" y1="1151.8223" y2="1151.8223"/><polygon fill="#181818" points="204.4702,1147.8223,194.4702,1151.8223,204.4702,1155.8223,200.4702,1151.8223" style="stroke:#181818;stroke-width:1;"/><text fill="#000000" font-family="sans-serif" font-size="13" lengthAdjust="spacing" textLength="141.6416" x="200.4702" y="1133.9658">Render ticket dashboard</text></g><g class="message" data-participant-1="portal" data-participant-2="admin"><polygon fill="#181818" points="38.8413,1178.1738,28.8413,1182.1738,38.8413,1186.1738,34.8413,1182.1738" style="stroke:#181818;stroke-width:1;"/><line style="stroke:#181818;stroke-width:1;" x1="32.8413" x2="192.4702" y1="1182.1738" y2="1182.1738"/><text fill="#000000" font-family="sans-serif" font-size="13" lengthAdjust="spacing" textLength="141.6289" x="39.8413" y="1177.3174">Display ticket dashboard</text></g><g class="message" data-participant-1="admin" data-participant-2="portal"><polygon fill="#181818" points="181.4702,1208.5254,191.4702,1212.5254,181.4702,1216.5254,185.4702,1212.5254" style="stroke:#181818;stroke-width:1;"/><line style="stroke:#181818;stroke-width:1;" x1="27.8413" x2="187.4702" y1="1212.5254" y2="1212.5254"/><text fill="#000000" font-family="sans-serif" font-size="13" lengthAdjust="spacing" textLength="126.4453" x="47.4331" y="1207.6689">Request ticket refresh</text></g><g class="message" data-participant-1="portal" data-participant-2="gateway"><polygon fill="#181818" points="349.9937,1238.877,359.9937,1242.877,349.9937,1246.877,353.9937,1242.877" style="stroke:#181818;stroke-width:1;"/><line style="stroke:#181818;stroke-width:1;" x1="193.4702" x2="355.9937" y1="1242.877" y2="1242.877"/><text fill="#000000" font-family="sans-serif" font-size="13" lengthAdjust="spacing" textLength="121.4053" x="217.0293" y="1238.0205">Send refresh request</text></g><path d="M324,1255.877 L324,1281.877 L545,1281.877 L545,1265.877 L535,1255.877 L324,1255.877" fill="#FEFFDD" style="stroke:#181818;stroke-width:0.5;"/><path d="M535,1255.877 L535,1265.877 L545,1265.877 L535,1255.877" fill="#FEFFDD" style="stroke:#181818;stroke-width:0.5;"/><text fill="#000000" font-family="sans-serif" font-size="13" lengthAdjust="spacing" textLength="138.728" x="361.0989" y="1274.3721">Connection error occurs</text><g class="message" data-participant-1="gateway" data-participant-2="portal"><polygon fill="#181818" points="204.4702,1305.5801,194.4702,1309.5801,204.4702,1313.5801,200.4702,1309.5801" style="stroke:#181818;stroke-width:1;"/><line style="stroke:#181818;stroke-width:1;" x1="198.4702" x2="360.9937" y1="1309.5801" y2="1309.5801"/><text fill="#000000" font-family="sans-serif" font-size="13" lengthAdjust="spacing" textLength="136.5698" x="209.447" y="1304.7236">Return connection error</text></g><g class="message" data-participant-1="portal" data-participant-2="admin"><polygon fill="#181818" points="38.8413,1335.9316,28.8413,1339.9316,38.8413,1343.9316,34.8413,1339.9316" style="stroke:#181818;stroke-width:1;"/><line style="stroke:#181818;stroke-width:1;" x1="32.8413" x2="192.4702" y1="1339.9316" y2="1339.9316"/><text fill="#000000" font-family="sans-serif" font-size="13" lengthAdjust="spacing" textLength="130.0444" x="45.6335" y="1335.0752">Display error message</text></g><g class="message" data-participant-1="portal" data-participant-2="admin"><polygon fill="#181818" points="38.8413,1366.2832,28.8413,1370.2832,38.8413,1374.2832,34.8413,1370.2832" style="stroke:#181818;stroke-width:1;"/><line style="stroke:#181818;stroke-width:1;" x1="32.8413" x2="192.4702" y1="1370.2832" y2="1370.2832"/><text fill="#000000" font-family="sans-serif" font-size="13" lengthAdjust="spacing" textLength="101.8862" x="59.7126" y="1365.4268">Show retry button</text></g><g class="message" data-participant-1="admin" data-participant-2="portal"><polygon fill="#181818" points="181.4702,1396.6348,191.4702,1400.6348,181.4702,1404.6348,185.4702,1400.6348" style="stroke:#181818;stroke-width:1;"/><line style="stroke:#181818;stroke-width:1;" x1="27.8413" x2="187.4702" y1="1400.6348" y2="1400.6348"/><text fill="#000000" font-family="sans-serif" font-size="13" lengthAdjust="spacing" textLength="57.7764" x="81.7676" y="1395.7783">Click retry</text></g><g class="message" data-participant-1="portal" data-participant-2="gateway"><polygon fill="#181818" points="349.9937,1426.9863,359.9937,1430.9863,349.9937,1434.9863,353.9937,1430.9863" style="stroke:#181818;stroke-width:1;"/><line style="stroke:#181818;stroke-width:1;" x1="193.4702" x2="355.9937" y1="1430.9863" y2="1430.9863"/><text fill="#000000" font-family="sans-serif" font-size="13" lengthAdjust="spacing" textLength="122.1035" x="216.6802" y="1426.1299">Retry refresh request</text></g><g class="message" data-participant-1="gateway" data-participant-2="supportService"><polygon fill="#181818" points="497.5508,1457.3379,507.5508,1461.3379,497.5508,1465.3379,501.5508,1461.3379" style="stroke:#181818;stroke-width:1;"/><line style="stroke:#181818;stroke-width:1;" x1="361.9937" x2="503.5508" y1="1461.3379" y2="1461.3379"/><text fill="#000000" font-family="sans-serif" font-size="13" lengthAdjust="spacing" textLength="123.5571" x="373.9937" y="1456.4814">Request latest tickets</text></g><g class="message" data-participant-1="supportService" data-participant-2="db"><polygon fill="#181818" points="654.5024,1487.6895,664.5024,1491.6895,654.5024,1495.6895,658.5024,1491.6895" style="stroke:#181818;stroke-width:1;"/><line style="stroke:#181818;stroke-width:1;" x1="509.5508" x2="660.5024" y1="1491.6895" y2="1491.6895"/><text fill="#000000" font-family="sans-serif" font-size="13" lengthAdjust="spacing" textLength="132.9517" x="521.5508" y="1486.833">Query latest ticket data</text></g><g class="message" data-participant-1="db" data-participant-2="supportService"><polygon fill="#181818" points="520.5508,1518.041,510.5508,1522.041,520.5508,1526.041,516.5508,1522.041" style="stroke:#181818;stroke-width:1;"/><line style="stroke:#181818;stroke-width:1;stroke-dasharray:2.0,2.0;" x1="514.5508" x2="665.5024" y1="1522.041" y2="1522.041"/><text fill="#000000" font-family="sans-serif" font-size="13" lengthAdjust="spacing" textLength="130.0762" x="522.9885" y="1517.1846">Return updated tickets</text></g><g class="message" data-participant-1="supportService" data-participant-2="gateway"><polygon fill="#181818" points="372.9937,1548.3926,362.9937,1552.3926,372.9937,1556.3926,368.9937,1552.3926" style="stroke:#181818;stroke-width:1;"/><line style="stroke:#181818;stroke-width:1;" x1="366.9937" x2="508.5508" y1="1552.3926" y2="1552.3926"/><text fill="#000000" font-family="sans-serif" font-size="13" lengthAdjust="spacing" textLength="102.6162" x="384.4641" y="1547.5361">Return latest data</text></g><g class="message" data-participant-1="gateway" data-participant-2="portal"><polygon fill="#181818" points="204.4702,1578.7441,194.4702,1582.7441,204.4702,1586.7441,200.4702,1582.7441" style="stroke:#181818;stroke-width:1;"/><line style="stroke:#181818;stroke-width:1;" x1="198.4702" x2="360.9937" y1="1582.7441" y2="1582.7441"/><text fill="#000000" font-family="sans-serif" font-size="13" lengthAdjust="spacing" textLength="127.1943" x="214.1348" y="1577.8877">Forward updated data</text></g><g class="message" data-participant-1="portal" data-participant-2="portal"><line style="stroke:#181818;stroke-width:1;" x1="193.4702" x2="235.4702" y1="1613.0957" y2="1613.0957"/><line style="stroke:#181818;stroke-width:1;" x1="235.4702" x2="235.4702" y1="1613.0957" y2="1626.0957"/><line style="stroke:#181818;stroke-width:1;" x1="194.4702" x2="235.4702" y1="1626.0957" y2="1626.0957"/><polygon fill="#181818" points="204.4702,1622.0957,194.4702,1626.0957,204.4702,1630.0957,200.4702,1626.0957" style="stroke:#181818;stroke-width:1;"/><text fill="#000000" font-family="sans-serif" font-size="13" lengthAdjust="spacing" textLength="119.9517" x="200.4702" y="1608.2393">Update ticket display</text></g><g class="message" data-participant-1="portal" data-participant-2="portal"><line style="stroke:#181818;stroke-width:1;" x1="193.4702" x2="235.4702" y1="1656.4473" y2="1656.4473"/><line style="stroke:#181818;stroke-width:1;" x1="235.4702" x2="235.4702" y1="1656.4473" y2="1669.4473"/><line style="stroke:#181818;stroke-width:1;" x1="194.4702" x2="235.4702" y1="1669.4473" y2="1669.4473"/><polygon fill="#181818" points="204.4702,1665.4473,194.4702,1669.4473,204.4702,1673.4473,200.4702,1669.4473" style="stroke:#181818;stroke-width:1;"/><text fill="#000000" font-family="sans-serif" font-size="13" lengthAdjust="spacing" textLength="105.4917" x="200.4702" y="1651.5908">Update timestamp</text></g><g class="message" data-participant-1="portal" data-participant-2="admin"><polygon fill="#181818" points="38.8413,1695.7988,28.8413,1699.7988,38.8413,1703.7988,34.8413,1699.7988" style="stroke:#181818;stroke-width:1;"/><line style="stroke:#181818;stroke-width:1;" x1="32.8413" x2="192.4702" y1="1699.7988" y2="1699.7988"/><text fill="#000000" font-family="sans-serif" font-size="13" lengthAdjust="spacing" textLength="141.6099" x="39.8508" y="1694.9424">Display refreshed tickets</text></g><g class="message" data-participant-1="portal" data-participant-2="admin"><polygon fill="#181818" points="38.8413,1726.1504,28.8413,1730.1504,38.8413,1734.1504,34.8413,1730.1504" style="stroke:#181818;stroke-width:1;"/><line style="stroke:#181818;stroke-width:1;" x1="32.8413" x2="192.4702" y1="1730.1504" y2="1730.1504"/><text fill="#000000" font-family="sans-serif" font-size="13" lengthAdjust="spacing" textLength="140.1626" x="40.5745" y="1725.2939">Show refresh timestamp</text></g><!--SRC=[xPN1Rjim38RlUWeYvmNOOIS36H2aMx53WIvUTzg5bjb4Y2Dv4XqZRp_QbZsdJbmCssdeAOBvaI9_Yamu65kYnoC4-bcHrVH08U2EreNPMT1acRmA0vMXFkoygso-SONpKEyDqyY-HvlNtZ2JXMSi0Yd5XWk2nTDc-U5z0bjwzXJsyCte0t5OA8MQ9T1YdH-DNG06mEQa91uRRKgq78tmw3nZqJ9bUtm1FNw1UsIgyTmok-vy2QLLsVZ-i2dvaz7Kag7x63-f71ap39BqNJorL9ufjLh10qegQQMr20MfA8JUE5Yjf98so-N7c5q2tmtLm6sba6FOPmvzhZfhmyKC6rL4_C1Wh64Zji67KKMeuI_pJE1Uc35wQMyyyYo1hnNvS-I2oZDONWcr9Qwy7QXff56k8tAIOb_wP-ThAVO26rNUOrkoEVavZLfH4xWpeIpmF2MdglTYHjHtB-wQxAdStjlbjtMRqxkFN0WoN13KhEuNRAV3V0kgKY3A_w0LyOhNMj47ljMBfzO-PDe9FiSTvLOybhUR5QKT5JD1qxshXnRy3jaCshgGtMEHpOc6EKjWuwmbpSPP-EIzR8wtoVjV9azP9-_AdIIj2BwRg3LgFxNjTrfNNcRmYX9HB_t2vNQ9NSHZzmzuywsoz3Ihc9sz8i6caDexwFfpQxp_VkMyRPn_lN5-0G00]--></g></svg>