<svg xmlns="http://www.w3.org/2000/svg" xmlns:xlink="http://www.w3.org/1999/xlink" contentStyleType="text/css" data-diagram-type="SEQUENCE" height="1040px" preserveAspectRatio="none" style="width:1023px;height:1040px;background:#FFFFFF;" version="1.1" viewBox="0 0 1023 1040" width="1023px" zoomAndPan="magnify"><title>UC-7: Verify Bank Account Details</title><defs/><g><rect fill="#FFFFCC" height="28.0566" rx="2.5" ry="2.5" style="stroke:#FFDD88;stroke-width:3;" width="1012.731" x="5" y="5"/><text fill="#000000" font-family="monospace" font-size="10" lengthAdjust="spacing" textLength="354.0576" x="10" y="20">Please&#160;use&#160;'!option&#160;handwritten&#160;true'&#160;to&#160;enable&#160;handwritten</text><text fill="#000000" font-family="sans-serif" font-size="14" font-weight="bold" lengthAdjust="spacing" textLength="227.9443" x="391.3933" y="67.5898">UC-7: Verify Bank Account Details</text><g><title>User</title><rect fill="#FFFFFF" height="385.2188" style="stroke:#181818;stroke-width:1;" width="10" x="32.7793" y="191.627"/></g><g><title>FalsoPay App</title><rect fill="#FFFFFF" height="354.8672" style="stroke:#181818;stroke-width:1;" width="10" x="216.3364" y="221.9785"/></g><g><title>API Gateway</title><rect fill="#FFFFFF" height="324.5156" style="stroke:#181818;stroke-width:1;" width="10" x="401.4844" y="221.9785"/></g><g><title>Account</title><rect fill="#FFFFFF" height="263.8125" style="stroke:#181818;stroke-width:1;" width="10" x="590.8833" y="252.3301"/></g><g><title>Banking</title><rect fill="#FFFFFF" height="99.0547" style="stroke:#181818;stroke-width:1;" width="10" x="762.9658" y="326.0332"/></g><g><title>Database</title><rect fill="#FFFFFF" height="30.3516" style="stroke:#181818;stroke-width:1;" width="10" x="953.7656" y="455.4395"/></g><rect fill="none" height="600.3516" style="stroke:#000000;stroke-width:1.5;" width="991.731" x="10" y="341.0332"/><g><title>User</title><rect fill="#000000" fill-opacity="0.00000" height="799.1094" width="8" x="33.7793" y="159.2754"/><line style="stroke:#181818;stroke-width:0.5;stroke-dasharray:5.0,5.0;" x1="37" x2="37" y1="159.2754" y2="958.3848"/></g><g><title>FalsoPay App</title><rect fill="#000000" fill-opacity="0.00000" height="799.1094" width="8" x="217.3364" y="159.2754"/><line style="stroke:#181818;stroke-width:0.5;stroke-dasharray:5.0,5.0;" x1="220.7573" x2="220.7573" y1="159.2754" y2="958.3848"/></g><g><title>API Gateway</title><rect fill="#000000" fill-opacity="0.00000" height="799.1094" width="8" x="402.4844" y="159.2754"/><line style="stroke:#181818;stroke-width:0.5;stroke-dasharray:5.0,5.0;" x1="405.6328" x2="405.6328" y1="159.2754" y2="958.3848"/></g><g><title>Account</title><rect fill="#000000" fill-opacity="0.00000" height="799.1094" width="8" x="591.8833" y="159.2754"/><line style="stroke:#181818;stroke-width:0.5;stroke-dasharray:5.0,5.0;" x1="595.5903" x2="595.5903" y1="159.2754" y2="958.3848"/></g><g><title>Banking</title><rect fill="#000000" fill-opacity="0.00000" height="799.1094" width="8" x="763.9658" y="159.2754"/><line style="stroke:#181818;stroke-width:0.5;stroke-dasharray:5.0,5.0;" x1="767.7832" x2="767.7832" y1="159.2754" y2="958.3848"/></g><g><title>Database</title><rect fill="#000000" fill-opacity="0.00000" height="799.1094" width="8" x="954.7656" y="159.2754"/><line style="stroke:#181818;stroke-width:0.5;stroke-dasharray:5.0,5.0;" x1="957.8003" x2="957.8003" y1="159.2754" y2="958.3848"/></g><g class="participant participant-head" data-participant="user"><text fill="#000000" font-family="sans-serif" font-size="14" lengthAdjust="spacing" textLength="29.5586" x="20" y="156.1992">User</text><ellipse cx="37.7793" cy="90.166" fill="#E2E2F0" rx="8" ry="8" style="stroke:#181818;stroke-width:0.5;"/><path d="M37.7793,98.166 L37.7793,125.166 M24.7793,106.166 L50.7793,106.166 M37.7793,125.166 L24.7793,140.166 M37.7793,125.166 L50.7793,140.166" fill="none" style="stroke:#181818;stroke-width:0.5;"/></g><g class="participant participant-tail" data-participant="user"><text fill="#000000" font-family="sans-serif" font-size="14" lengthAdjust="spacing" textLength="29.5586" x="20" y="971.918">User</text><ellipse cx="37.7793" cy="983.4941" fill="#E2E2F0" rx="8" ry="8" style="stroke:#181818;stroke-width:0.5;"/><path d="M37.7793,991.4941 L37.7793,1018.4941 M24.7793,999.4941 L50.7793,999.4941 M37.7793,1018.4941 L24.7793,1033.4941 M37.7793,1018.4941 L50.7793,1033.4941" fill="none" style="stroke:#181818;stroke-width:0.5;"/></g><g class="participant participant-head" data-participant="app"><rect fill="#E2E2F0" height="31.6094" rx="2.5" ry="2.5" style="stroke:#181818;stroke-width:0.5;" width="101.1582" x="170.7573" y="126.666"/><text fill="#000000" font-family="sans-serif" font-size="14" lengthAdjust="spacing" textLength="87.1582" x="177.7573" y="148.1992">FalsoPay App</text></g><g class="participant participant-tail" data-participant="app"><rect fill="#E2E2F0" height="31.6094" rx="2.5" ry="2.5" style="stroke:#181818;stroke-width:0.5;" width="101.1582" x="170.7573" y="957.3848"/><text fill="#000000" font-family="sans-serif" font-size="14" lengthAdjust="spacing" textLength="87.1582" x="177.7573" y="978.918">FalsoPay App</text></g><g class="participant participant-head" data-participant="gateway"><rect fill="#E2E2F0" height="31.6094" rx="2.5" ry="2.5" style="stroke:#181818;stroke-width:0.5;" width="95.7031" x="358.6328" y="126.666"/><text fill="#000000" font-family="sans-serif" font-size="14" lengthAdjust="spacing" textLength="81.7031" x="365.6328" y="148.1992">API Gateway</text></g><g class="participant participant-tail" data-participant="gateway"><rect fill="#E2E2F0" height="31.6094" rx="2.5" ry="2.5" style="stroke:#181818;stroke-width:0.5;" width="95.7031" x="358.6328" y="957.3848"/><text fill="#000000" font-family="sans-serif" font-size="14" lengthAdjust="spacing" textLength="81.7031" x="365.6328" y="978.918">API Gateway</text></g><g class="participant participant-head" data-participant="accountService"><rect fill="#E2E2F0" height="49.2188" rx="2.5" ry="2.5" style="stroke:#181818;stroke-width:0.5;" width="64.5859" x="563.5903" y="109.0566"/><text fill="#000000" font-family="sans-serif" font-size="14" lengthAdjust="spacing" textLength="50.5859" x="570.5903" y="130.5898">Account</text><text fill="#000000" font-family="sans-serif" font-size="14" lengthAdjust="spacing" textLength="46.6826" x="572.542" y="148.1992">Service</text></g><g class="participant participant-tail" data-participant="accountService"><rect fill="#E2E2F0" height="49.2188" rx="2.5" ry="2.5" style="stroke:#181818;stroke-width:0.5;" width="64.5859" x="563.5903" y="957.3848"/><text fill="#000000" font-family="sans-serif" font-size="14" lengthAdjust="spacing" textLength="50.5859" x="570.5903" y="978.918">Account</text><text fill="#000000" font-family="sans-serif" font-size="14" lengthAdjust="spacing" textLength="46.6826" x="572.542" y="996.5273">Service</text></g><g class="participant participant-head" data-participant="bankingAPI"><rect fill="#E2E2F0" height="49.2188" rx="2.5" ry="2.5" style="stroke:#181818;stroke-width:0.5;" width="86.3652" x="724.7832" y="109.0566"/><text fill="#000000" font-family="sans-serif" font-size="14" lengthAdjust="spacing" textLength="50.5928" x="742.6694" y="130.5898">Banking</text><text fill="#000000" font-family="sans-serif" font-size="14" lengthAdjust="spacing" textLength="72.3652" x="731.7832" y="148.1992">Partner API</text></g><g class="participant participant-tail" data-participant="bankingAPI"><rect fill="#E2E2F0" height="49.2188" rx="2.5" ry="2.5" style="stroke:#181818;stroke-width:0.5;" width="86.3652" x="724.7832" y="957.3848"/><text fill="#000000" font-family="sans-serif" font-size="14" lengthAdjust="spacing" textLength="50.5928" x="742.6694" y="978.918">Banking</text><text fill="#000000" font-family="sans-serif" font-size="14" lengthAdjust="spacing" textLength="72.3652" x="731.7832" y="996.5273">Partner API</text></g><g class="participant participant-head" data-participant="db"><text fill="#000000" font-family="sans-serif" font-size="14" lengthAdjust="spacing" textLength="59.9307" x="925.8003" y="156.1992">Database</text><path d="M940.7656,105.666 C940.7656,95.666 958.7656,95.666 958.7656,95.666 C958.7656,95.666 976.7656,95.666 976.7656,105.666 L976.7656,131.666 C976.7656,141.666 958.7656,141.666 958.7656,141.666 C958.7656,141.666 940.7656,141.666 940.7656,131.666 L940.7656,105.666" fill="#E2E2F0" style="stroke:#181818;stroke-width:1.5;"/><path d="M940.7656,105.666 C940.7656,115.666 958.7656,115.666 958.7656,115.666 C958.7656,115.666 976.7656,115.666 976.7656,105.666" fill="none" style="stroke:#181818;stroke-width:1.5;"/></g><g class="participant participant-tail" data-participant="db"><text fill="#000000" font-family="sans-serif" font-size="14" lengthAdjust="spacing" textLength="59.9307" x="925.8003" y="971.918">Database</text><path d="M940.7656,984.9941 C940.7656,974.9941 958.7656,974.9941 958.7656,974.9941 C958.7656,974.9941 976.7656,974.9941 976.7656,984.9941 L976.7656,1010.9941 C976.7656,1020.9941 958.7656,1020.9941 958.7656,1020.9941 C958.7656,1020.9941 940.7656,1020.9941 940.7656,1010.9941 L940.7656,984.9941" fill="#E2E2F0" style="stroke:#181818;stroke-width:1.5;"/><path d="M940.7656,984.9941 C940.7656,994.9941 958.7656,994.9941 958.7656,994.9941 C958.7656,994.9941 976.7656,994.9941 976.7656,984.9941" fill="none" style="stroke:#181818;stroke-width:1.5;"/></g><g><title>User</title><rect fill="#FFFFFF" height="385.2188" style="stroke:#181818;stroke-width:1;" width="10" x="32.7793" y="191.627"/></g><g><title>FalsoPay App</title><rect fill="#FFFFFF" height="354.8672" style="stroke:#181818;stroke-width:1;" width="10" x="216.3364" y="221.9785"/></g><g><title>API Gateway</title><rect fill="#FFFFFF" height="324.5156" style="stroke:#181818;stroke-width:1;" width="10" x="401.4844" y="221.9785"/></g><g><title>Account</title><rect fill="#FFFFFF" height="263.8125" style="stroke:#181818;stroke-width:1;" width="10" x="590.8833" y="252.3301"/></g><g><title>Banking</title><rect fill="#FFFFFF" height="99.0547" style="stroke:#181818;stroke-width:1;" width="10" x="762.9658" y="326.0332"/></g><g><title>Database</title><rect fill="#FFFFFF" height="30.3516" style="stroke:#181818;stroke-width:1;" width="10" x="953.7656" y="455.4395"/></g><g class="message" data-participant-1="user" data-participant-2="app"><polygon fill="#181818" points="209.3364,187.627,219.3364,191.627,209.3364,195.627,213.3364,191.627" style="stroke:#181818;stroke-width:1;"/><line style="stroke:#181818;stroke-width:1;" x1="42.7793" x2="215.3364" y1="191.627" y2="191.627"/><text fill="#000000" font-family="sans-serif" font-size="13" lengthAdjust="spacing" textLength="113.4517" x="75.332" y="186.7705">Submit bank details</text></g><g class="message" data-participant-1="app" data-participant-2="gateway"><polygon fill="#181818" points="389.4844,217.9785,399.4844,221.9785,389.4844,225.9785,393.4844,221.9785" style="stroke:#181818;stroke-width:1;"/><line style="stroke:#181818;stroke-width:1;" x1="226.3364" x2="395.4844" y1="221.9785" y2="221.9785"/><text fill="#000000" font-family="sans-serif" font-size="13" lengthAdjust="spacing" textLength="161.1479" x="233.3364" y="217.1221">Verify bank account request</text></g><g class="message" data-participant-1="gateway" data-participant-2="accountService"><polygon fill="#181818" points="578.8833,248.3301,588.8833,252.3301,578.8833,256.3301,582.8833,252.3301" style="stroke:#181818;stroke-width:1;"/><line style="stroke:#181818;stroke-width:1;" x1="411.4844" x2="584.8833" y1="252.3301" y2="252.3301"/><text fill="#000000" font-family="sans-serif" font-size="13" lengthAdjust="spacing" textLength="160.3989" x="420.9844" y="247.4736">Forward verification request</text></g><g class="message" data-participant-1="accountService" data-participant-2="accountService"><line style="stroke:#181818;stroke-width:1;" x1="600.8833" x2="642.8833" y1="282.6816" y2="282.6816"/><line style="stroke:#181818;stroke-width:1;" x1="642.8833" x2="642.8833" y1="282.6816" y2="295.6816"/><line style="stroke:#181818;stroke-width:1;" x1="601.8833" x2="642.8833" y1="295.6816" y2="295.6816"/><polygon fill="#181818" points="611.8833,291.6816,601.8833,295.6816,611.8833,299.6816,607.8833,295.6816" style="stroke:#181818;stroke-width:1;"/><text fill="#000000" font-family="sans-serif" font-size="13" lengthAdjust="spacing" textLength="107.6943" x="607.8833" y="277.8252">Validate input data</text></g><g class="message" data-participant-1="accountService" data-participant-2="bankingAPI"><polygon fill="#181818" points="750.9658,322.0332,760.9658,326.0332,750.9658,330.0332,754.9658,326.0332" style="stroke:#181818;stroke-width:1;"/><line style="stroke:#181818;stroke-width:1;" x1="600.8833" x2="756.9658" y1="326.0332" y2="326.0332"/><text fill="#000000" font-family="sans-serif" font-size="13" lengthAdjust="spacing" textLength="143.0825" x="610.3833" y="321.1768">Send verification request</text></g><path d="M10,341.0332 L70.1709,341.0332 L70.1709,349.3848 L60.1709,359.3848 L10,359.3848 L10,341.0332" fill="#EEEEEE" style="stroke:#000000;stroke-width:1.5;"/><rect fill="none" height="600.3516" style="stroke:#000000;stroke-width:1.5;" width="991.731" x="10" y="341.0332"/><text fill="#000000" font-family="sans-serif" font-size="13" font-weight="bold" lengthAdjust="spacing" textLength="15.1709" x="25" y="355.5283">alt</text><text fill="#000000" font-family="sans-serif" font-size="11" font-weight="bold" lengthAdjust="spacing" textLength="127.1499" x="85.1709" y="354.4521">[Verification successful]</text><g class="message" data-participant-1="bankingAPI" data-participant-2="bankingAPI"><line style="stroke:#181818;stroke-width:1;" x1="772.9658" x2="814.9658" y1="381.7363" y2="381.7363"/><line style="stroke:#181818;stroke-width:1;" x1="814.9658" x2="814.9658" y1="381.7363" y2="394.7363"/><line style="stroke:#181818;stroke-width:1;" x1="773.9658" x2="814.9658" y1="394.7363" y2="394.7363"/><polygon fill="#181818" points="783.9658,390.7363,773.9658,394.7363,783.9658,398.7363,779.9658,394.7363" style="stroke:#181818;stroke-width:1;"/><text fill="#000000" font-family="sans-serif" font-size="13" lengthAdjust="spacing" textLength="156.7998" x="779.9658" y="376.8799">Validate &amp; verify ownership</text></g><g class="message" data-participant-1="bankingAPI" data-participant-2="accountService"><polygon fill="#181818" points="611.8833,421.0879,601.8833,425.0879,611.8833,429.0879,607.8833,425.0879" style="stroke:#181818;stroke-width:1;"/><line style="stroke:#181818;stroke-width:1;stroke-dasharray:2.0,2.0;" x1="605.8833" x2="766.9658" y1="425.0879" y2="425.0879"/><text fill="#000000" font-family="sans-serif" font-size="13" lengthAdjust="spacing" textLength="49.1309" x="659.8591" y="420.2314">Success</text></g><g class="message" data-participant-1="accountService" data-participant-2="db"><polygon fill="#181818" points="941.7656,451.4395,951.7656,455.4395,941.7656,459.4395,945.7656,455.4395" style="stroke:#181818;stroke-width:1;"/><line style="stroke:#181818;stroke-width:1;" x1="600.8833" x2="947.7656" y1="455.4395" y2="455.4395"/><text fill="#000000" font-family="sans-serif" font-size="13" lengthAdjust="spacing" textLength="140.8926" x="706.8782" y="450.583">Mark account as verified</text></g><g class="message" data-participant-1="db" data-participant-2="accountService"><polygon fill="#181818" points="611.8833,481.791,601.8833,485.791,611.8833,489.791,607.8833,485.791" style="stroke:#181818;stroke-width:1;"/><line style="stroke:#181818;stroke-width:1;stroke-dasharray:2.0,2.0;" x1="605.8833" x2="957.7656" y1="485.791" y2="485.791"/><text fill="#000000" font-family="sans-serif" font-size="13" lengthAdjust="spacing" textLength="49.1499" x="755.2495" y="480.9346">Updated</text></g><g class="message" data-participant-1="accountService" data-participant-2="gateway"><polygon fill="#181818" points="422.4844,512.1426,412.4844,516.1426,422.4844,520.1426,418.4844,516.1426" style="stroke:#181818;stroke-width:1;"/><line style="stroke:#181818;stroke-width:1;stroke-dasharray:2.0,2.0;" x1="416.4844" x2="594.8833" y1="516.1426" y2="516.1426"/><text fill="#000000" font-family="sans-serif" font-size="13" lengthAdjust="spacing" textLength="128.6099" x="439.3789" y="511.2861">Verification successful</text></g><g class="message" data-participant-1="gateway" data-participant-2="app"><polygon fill="#181818" points="237.3364,542.4941,227.3364,546.4941,237.3364,550.4941,233.3364,546.4941" style="stroke:#181818;stroke-width:1;"/><line style="stroke:#181818;stroke-width:1;stroke-dasharray:2.0,2.0;" x1="231.3364" x2="405.4844" y1="546.4941" y2="546.4941"/><text fill="#000000" font-family="sans-serif" font-size="13" lengthAdjust="spacing" textLength="49.1309" x="291.845" y="541.6377">Success</text></g><g class="message" data-participant-1="app" data-participant-2="user"><polygon fill="#181818" points="48.7793,572.8457,38.7793,576.8457,48.7793,580.8457,44.7793,576.8457" style="stroke:#181818;stroke-width:1;"/><line style="stroke:#181818;stroke-width:1;stroke-dasharray:2.0,2.0;" x1="42.7793" x2="220.3364" y1="576.8457" y2="576.8457"/><text fill="#000000" font-family="sans-serif" font-size="13" lengthAdjust="spacing" textLength="149.5571" x="54.7793" y="571.9893">Display success message</text></g><line style="stroke:#000000;stroke-width:1;stroke-dasharray:2.0,2.0;" x1="10" x2="1001.731" y1="585.8457" y2="585.8457"/><text fill="#000000" font-family="sans-serif" font-size="11" font-weight="bold" lengthAdjust="spacing" textLength="99.0161" x="15" y="597.2646">[Verification failed]</text><g class="message" data-participant-1="bankingAPI" data-participant-2="bankingAPI"><line style="stroke:#181818;stroke-width:1;" x1="767.9658" x2="809.9658" y1="623.0332" y2="623.0332"/><line style="stroke:#181818;stroke-width:1;" x1="809.9658" x2="809.9658" y1="623.0332" y2="636.0332"/><line style="stroke:#181818;stroke-width:1;" x1="768.9658" x2="809.9658" y1="636.0332" y2="636.0332"/><polygon fill="#181818" points="778.9658,632.0332,768.9658,636.0332,778.9658,640.0332,774.9658,636.0332" style="stroke:#181818;stroke-width:1;"/><text fill="#000000" font-family="sans-serif" font-size="13" lengthAdjust="spacing" textLength="145.2407" x="774.9658" y="618.1768">Validate &amp; fail verification</text></g><g class="message" data-participant-1="bankingAPI" data-participant-2="accountService"><polygon fill="#181818" points="606.8833,662.3848,596.8833,666.3848,606.8833,670.3848,602.8833,666.3848" style="stroke:#181818;stroke-width:1;"/><line style="stroke:#181818;stroke-width:1;stroke-dasharray:2.0,2.0;" x1="600.8833" x2="766.9658" y1="666.3848" y2="666.3848"/><text fill="#000000" font-family="sans-serif" font-size="13" lengthAdjust="spacing" textLength="138.7407" x="612.5542" y="661.5283">Failed (e.g. invalid data)</text></g><g class="message" data-participant-1="accountService" data-participant-2="gateway"><polygon fill="#181818" points="417.4844,692.7363,407.4844,696.7363,417.4844,700.7363,413.4844,696.7363" style="stroke:#181818;stroke-width:1;"/><line style="stroke:#181818;stroke-width:1;stroke-dasharray:2.0,2.0;" x1="411.4844" x2="594.8833" y1="696.7363" y2="696.7363"/><text fill="#000000" font-family="sans-serif" font-size="13" lengthAdjust="spacing" textLength="98.998" x="451.6848" y="691.8799">Verification failed</text></g><g class="message" data-participant-1="gateway" data-participant-2="app"><polygon fill="#181818" points="232.3364,723.0879,222.3364,727.0879,232.3364,731.0879,228.3364,727.0879" style="stroke:#181818;stroke-width:1;"/><line style="stroke:#181818;stroke-width:1;stroke-dasharray:2.0,2.0;" x1="226.3364" x2="405.4844" y1="727.0879" y2="727.0879"/><text fill="#000000" font-family="sans-serif" font-size="13" lengthAdjust="spacing" textLength="109.8271" x="258.9968" y="722.2314">Failure with reason</text></g><g class="message" data-participant-1="app" data-participant-2="user"><polygon fill="#181818" points="48.7793,769.791,38.7793,773.791,48.7793,777.791,44.7793,773.791" style="stroke:#181818;stroke-width:1;"/><line style="stroke:#181818;stroke-width:1;stroke-dasharray:2.0,2.0;" x1="42.7793" x2="220.3364" y1="773.791" y2="773.791"/><text fill="#000000" font-family="sans-serif" font-size="13" lengthAdjust="spacing" textLength="138.0044" x="60.5557" y="752.583">Display failure message</text><text fill="#000000" font-family="sans-serif" font-size="13" lengthAdjust="spacing" textLength="111.2935" x="73.9111" y="768.9346">Suggest alternative</text></g><line style="stroke:#000000;stroke-width:1;stroke-dasharray:2.0,2.0;" x1="10" x2="1001.731" y1="782.791" y2="782.791"/><text fill="#000000" font-family="sans-serif" font-size="11" font-weight="bold" lengthAdjust="spacing" textLength="110.0054" x="15" y="794.21">[Verification timeout]</text><path d="M560,802.627 L560,828.627 L802,828.627 L802,812.627 L792,802.627 L560,802.627" fill="#FEFFDD" style="stroke:#181818;stroke-width:0.5;"/><path d="M792,802.627 L792,812.627 L802,812.627 L792,802.627" fill="#FEFFDD" style="stroke:#181818;stroke-width:0.5;"/><text fill="#000000" font-family="sans-serif" font-size="13" lengthAdjust="spacing" textLength="88.8608" x="632.3486" y="821.1221">Timeout occurs</text><g class="message" data-participant-1="accountService" data-participant-2="gateway"><polygon fill="#181818" points="417.4844,852.3301,407.4844,856.3301,417.4844,860.3301,413.4844,856.3301" style="stroke:#181818;stroke-width:1;"/><line style="stroke:#181818;stroke-width:1;stroke-dasharray:2.0,2.0;" x1="411.4844" x2="594.8833" y1="856.3301" y2="856.3301"/><text fill="#000000" font-family="sans-serif" font-size="13" lengthAdjust="spacing" textLength="46.96" x="477.7039" y="851.4736">Timeout</text></g><g class="message" data-participant-1="gateway" data-participant-2="app"><polygon fill="#181818" points="232.3364,882.6816,222.3364,886.6816,232.3364,890.6816,228.3364,886.6816" style="stroke:#181818;stroke-width:1;"/><line style="stroke:#181818;stroke-width:1;stroke-dasharray:2.0,2.0;" x1="226.3364" x2="405.4844" y1="886.6816" y2="886.6816"/><text fill="#000000" font-family="sans-serif" font-size="13" lengthAdjust="spacing" textLength="46.96" x="290.4304" y="881.8252">Timeout</text></g><g class="message" data-participant-1="app" data-participant-2="user"><polygon fill="#181818" points="48.7793,929.3848,38.7793,933.3848,48.7793,937.3848,44.7793,933.3848" style="stroke:#181818;stroke-width:1;"/><line style="stroke:#181818;stroke-width:1;stroke-dasharray:2.0,2.0;" x1="42.7793" x2="220.3364" y1="933.3848" y2="933.3848"/><text fill="#000000" font-family="sans-serif" font-size="13" lengthAdjust="spacing" textLength="145.228" x="56.9438" y="912.1768">Display timeout message</text><text fill="#000000" font-family="sans-serif" font-size="13" lengthAdjust="spacing" textLength="58.5063" x="100.3047" y="928.5283">Offer retry</text></g><!--SRC=[fLJBRjim4BppAnO-52tGv5h0Xm9k31Sz13NWEATSA78b4vOfbQGi-E-xV4IoP1cn4PqeSlOniqFQlT8rD_m05lyrg0K-exMym4Mf2Wq2jKF3R8VAkDWNfcgqVAhAoa2xKmxFpdTSozOevr13pakBZ3dbIeJPzkdXnnnUqQZy1B-utiD224haO8cEgzBE6EF2KSxPrgAP0RVGq89HOgU4gZb1PolAMQtv2HPr7I2yheU8nVeF_EOEMtuAW2AkHw1O-arlq1oLm9WgRgQjOO1lMEdYJQzfLwC1AXE2idX0lqnonpDkYUiohG92Penv8l3mqtSxXqsJ7PGBaI0ZTyzS7QdJI9bW7frQxrGB4QbBC7vUrlMHNedkvvqrIujGVC1l3glAjDn8EFhiId2dAZsHTgWA6_vFvNtbfP8-b4pHEF2oJ4Jrmf4Yg3zguqndnaiN9Nb7sqO8ictUb0pewx7ZGbrhNsAv4rGjJTFkL7qHES5i4-i4gCJ9tlpH9LcPpU6Pctvwv8l85sKAIRd8BI5xDjd0jlRTot43tc9JXIyyT4MmirIZSVlJpaAzWITbw3mNMl4MfW3lvpaibQrBIf7gmY4-CXV5wtgy5Uu3Gtf9XWnokZP9Y9l6xV43YzqoxrKe0b_niNWaDnzzkk3dR_TQuEeapdZSEGNVN6CGMkLsT5-uJPpkcqYUigI9q8lO50NTFA1BXaPJayVFZCcf0rQD2t1T4R2Y6OpeVH_Cx2L6G2L4O-ndT7uvgtsdjbT2Rz0p4Uxr_9ldnDYWCwVRTTII_GS0]--></g></svg>