<svg xmlns="http://www.w3.org/2000/svg" xmlns:xlink="http://www.w3.org/1999/xlink" contentStyleType="text/css" data-diagram-type="DESCRIPTION" height="733px" preserveAspectRatio="none" style="width:4022px;height:733px;background:#FFFFFF;" version="1.1" viewBox="0 0 4022 733" width="4022px" zoomAndPan="magnify"><defs/><g><!--cluster Auth--><g class="cluster" data-entity="Auth" data-source-line="6" data-uid="ent0002" id="cluster_Auth"><rect fill="none" height="211.5" rx="2.5" ry="2.5" style="stroke:#181818;stroke-width:1;" width="459" x="1500" y="70.57"/><text fill="#000000" font-family="sans-serif" font-size="14" font-weight="bold" lengthAdjust="spacing" textLength="209.2891" x="1624.8555" y="87.1032">1. User Authentication Package</text></g><!--cluster Account--><g class="cluster" data-entity="Account" data-source-line="14" data-uid="ent0008" id="cluster_Account"><rect fill="none" height="400.5" rx="2.5" ry="2.5" style="stroke:#181818;stroke-width:1;" width="726" x="2684" y="322.07"/><text fill="#000000" font-family="sans-serif" font-size="14" font-weight="bold" lengthAdjust="spacing" textLength="221.7373" x="2936.1313" y="338.6032">2. Account Management Package</text></g><!--cluster Banking--><g class="cluster" data-entity="Banking" data-source-line="25" data-uid="ent0017" id="cluster_Banking"><rect fill="none" height="280" rx="2.5" ry="2.5" style="stroke:#181818;stroke-width:1;" width="481" x="2163" y="322.57"/><text fill="#000000" font-family="sans-serif" font-size="14" font-weight="bold" lengthAdjust="spacing" textLength="209.2959" x="2298.8521" y="339.1032">3. Banking Operations Package</text></g><!--cluster Transfer--><g class="cluster" data-entity="Transfer" data-source-line="32" data-uid="ent0022" id="cluster_Transfer"><rect fill="none" height="278" rx="2.5" ry="2.5" style="stroke:#181818;stroke-width:1;" width="670" x="682" y="323.57"/><text fill="#000000" font-family="sans-serif" font-size="14" font-weight="bold" lengthAdjust="spacing" textLength="180.5234" x="926.7383" y="340.1032">4. Money Transfer Package</text></g><!--cluster Transaction--><g class="cluster" data-entity="Transaction" data-source-line="41" data-uid="ent0029" id="cluster_Transaction"><rect fill="none" height="238" rx="2.5" ry="2.5" style="stroke:#181818;stroke-width:1;" width="731" x="1392" y="489.07"/><text fill="#000000" font-family="sans-serif" font-size="14" font-weight="bold" lengthAdjust="spacing" textLength="245.0889" x="1634.9556" y="505.6032">5. Transaction Management Package</text></g><!--cluster Contacts--><g class="cluster" data-entity="Contacts" data-source-line="50" data-uid="ent0036" id="cluster_Contacts"><rect fill="none" height="238.5" rx="2.5" ry="2.5" style="stroke:#181818;stroke-width:1;" width="566" x="3450" y="477.07"/><text fill="#000000" font-family="sans-serif" font-size="14" font-weight="bold" lengthAdjust="spacing" textLength="225.6338" x="3620.1831" y="493.6032">6. Contacts Management Package</text></g><!--cluster Support--><g class="cluster" data-entity="Support" data-source-line="56" data-uid="ent0040" id="cluster_Support"><rect fill="none" height="114" rx="2.5" ry="2.5" style="stroke:#181818;stroke-width:1;" width="271" x="1701" y="323.07"/><text fill="#000000" font-family="sans-serif" font-size="14" font-weight="bold" lengthAdjust="spacing" textLength="199.165" x="1736.9175" y="339.6032">7. Customer Support Package</text></g><!--cluster Admin--><g class="cluster" data-entity="Admin" data-source-line="60" data-uid="ent0042" id="cluster_Admin"><rect fill="none" height="426.5" rx="2.5" ry="2.5" style="stroke:#181818;stroke-width:1;" width="635" x="7" y="172.57"/><text fill="#000000" font-family="sans-serif" font-size="14" font-weight="bold" lengthAdjust="spacing" textLength="175.0547" x="236.9727" y="189.1032">8. Administration Package</text></g><g class="entity" data-entity="Register" data-source-line="7" data-uid="ent0003" id="entity_Register"><ellipse cx="1572.9566" cy="131.5517" fill="#F1F1F1" rx="48.4566" ry="15.4817" style="stroke:#181818;stroke-width:0.5;"/><text fill="#000000" font-family="sans-serif" font-size="14" lengthAdjust="spacing" textLength="52.1309" x="1544.6643" y="135.8917">Register</text></g><g class="entity" data-entity="Log In" data-source-line="8" data-uid="ent0004" id="entity_Log In"><ellipse cx="1696.0086" cy="131.5217" fill="#F1F1F1" rx="39.0086" ry="15.4517" style="stroke:#181818;stroke-width:0.5;"/><text fill="#000000" font-family="sans-serif" font-size="14" lengthAdjust="spacing" textLength="38.9238" x="1676.5467" y="135.2502">Log In</text></g><g class="entity" data-entity="Delete Account" data-source-line="9" data-uid="ent0005" id="entity_Delete Account"><ellipse cx="1843.1274" cy="131.4955" fill="#F1F1F1" rx="72.6274" ry="16.9255" style="stroke:#181818;stroke-width:0.5;"/><text fill="#000000" font-family="sans-serif" font-size="14" lengthAdjust="spacing" textLength="94.9443" x="1792.6552" y="136.0121">Delete Account</text></g><g class="entity" data-entity="Change PIN" data-source-line="10" data-uid="ent0006" id="entity_Change PIN"><ellipse cx="1590.1867" cy="238.7073" fill="#F1F1F1" rx="66.1867" ry="15.6373" style="stroke:#181818;stroke-width:0.5;"/><text fill="#000000" font-family="sans-serif" font-size="14" lengthAdjust="spacing" textLength="76.2686" x="1549.0524" y="243.2239">Change PIN</text></g><g class="entity" data-entity="PIN For Transaction" data-source-line="11" data-uid="ent0007" id="entity_PIN For Transaction"><ellipse cx="1776.0368" cy="238.3774" fill="#F1F1F1" rx="84.5368" ry="19.3074" style="stroke:#181818;stroke-width:0.5;"/><text fill="#000000" font-family="sans-serif" font-size="14" lengthAdjust="spacing" textLength="125.2617" x="1713.406" y="242.1059">PIN For Transaction</text></g><g class="entity" data-entity="Edit Personal Info" data-source-line="15" data-uid="ent0009" id="entity_Edit Personal Info"><ellipse cx="2805.9883" cy="390.1677" fill="#F1F1F1" rx="78.4883" ry="18.0977" style="stroke:#181818;stroke-width:0.5;"/><text fill="#000000" font-family="sans-serif" font-size="14" lengthAdjust="spacing" textLength="110.5098" x="2749.0555" y="394.3631">Edit Personal Info</text></g><g class="entity" data-entity="Change Display Name" data-source-line="16" data-uid="ent0010" id="entity_Change Display Name"><ellipse cx="3010.8593" cy="390.1419" fill="#F1F1F1" rx="90.8593" ry="20.5719" style="stroke:#181818;stroke-width:0.5;"/><text fill="#000000" font-family="sans-serif" font-size="14" lengthAdjust="spacing" textLength="140.0684" x="2940.8251" y="393.8704">Change Display Name</text></g><g class="entity" data-entity="Change Default IPA Address" data-source-line="17" data-uid="ent0011" id="entity_Change Default IPA Address"><ellipse cx="3245.155" cy="390.101" fill="#F1F1F1" rx="108.155" ry="24.031" style="stroke:#181818;stroke-width:0.5;"/><text fill="#000000" font-family="sans-serif" font-size="14" lengthAdjust="spacing" textLength="178.9922" x="3155.6589" y="393.8295">Change Default IPA Address</text></g><g class="entity" data-entity="View Your IPA Addresses" data-source-line="18" data-uid="ent0012" id="entity_View Your IPA Addresses"><ellipse cx="2816.2447" cy="554.9189" fill="#F1F1F1" rx="99.7447" ry="22.3489" style="stroke:#181818;stroke-width:0.5;"/><text fill="#000000" font-family="sans-serif" font-size="14" lengthAdjust="spacing" textLength="160.2959" x="2736.0967" y="558.6475">View Your IPA Addresses</text></g><g class="entity" data-entity="Enable/Disable Notifications" data-source-line="19" data-uid="ent0013" id="entity_Enable/Disable Notifications"><ellipse cx="3057.0365" cy="555.1773" fill="#F1F1F1" rx="106.0365" ry="23.6073" style="stroke:#181818;stroke-width:0.5;"/><text fill="#000000" font-family="sans-serif" font-size="14" lengthAdjust="spacing" textLength="174.3164" x="2969.8783" y="558.9058">Enable/Disable Notifications</text></g><g class="entity" data-entity="Block App Transactions" data-source-line="20" data-uid="ent0014" id="entity_Block App Transactions"><ellipse cx="3291.9052" cy="555.251" fill="#F1F1F1" rx="93.9052" ry="21.181" style="stroke:#181818;stroke-width:0.5;"/><text fill="#000000" font-family="sans-serif" font-size="14" lengthAdjust="spacing" textLength="147.0684" x="3218.371" y="558.9795">Block App Transactions</text></g><g class="entity" data-entity="Unblock App Transactions" data-source-line="21" data-uid="ent0015" id="entity_Unblock App Transactions"><ellipse cx="2817.1351" cy="676.197" fill="#F1F1F1" rx="101.1351" ry="22.627" style="stroke:#181818;stroke-width:0.5;"/><text fill="#000000" font-family="sans-serif" font-size="14" lengthAdjust="spacing" textLength="163.4131" x="2735.4286" y="679.9255">Unblock App Transactions</text></g><g class="entity" data-entity="Set Transfer Limit" data-source-line="22" data-uid="ent0016" id="entity_Set Transfer Limit"><ellipse cx="3031.9749" cy="676.165" fill="#F1F1F1" rx="78.4749" ry="18.095" style="stroke:#181818;stroke-width:0.5;"/><text fill="#000000" font-family="sans-serif" font-size="14" lengthAdjust="spacing" textLength="110.4756" x="2975.0528" y="680.3621">Set Transfer Limit</text></g><g class="entity" data-entity="Link Bank Account" data-source-line="26" data-uid="ent0018" id="entity_Link Bank Account"><ellipse cx="2293.1716" cy="390.1043" fill="#F1F1F1" rx="80.6716" ry="18.5343" style="stroke:#181818;stroke-width:0.5;"/><text fill="#000000" font-family="sans-serif" font-size="14" lengthAdjust="spacing" textLength="115.958" x="2234.498" y="394.0347">Link Bank Account</text></g><g class="entity" data-entity="Verify Bank Account Details" data-source-line="27" data-uid="ent0019" id="entity_Verify Bank Account Details"><ellipse cx="2513.8263" cy="390.0353" fill="#F1F1F1" rx="105.3263" ry="23.4653" style="stroke:#181818;stroke-width:0.5;"/><text fill="#000000" font-family="sans-serif" font-size="14" lengthAdjust="spacing" textLength="172.7441" x="2427.4542" y="393.7638">Verify Bank Account Details</text></g><g class="entity" data-entity="Delete Linked Bank Account" data-source-line="28" data-uid="ent0020" id="entity_Delete Linked Bank Account"><ellipse cx="2302.2478" cy="555.3196" fill="#F1F1F1" rx="106.7478" ry="23.7496" style="stroke:#181818;stroke-width:0.5;"/><text fill="#000000" font-family="sans-serif" font-size="14" lengthAdjust="spacing" textLength="175.8887" x="2214.3034" y="559.0481">Delete Linked Bank Account</text></g><g class="entity" data-entity="Receive Confirmation" data-source-line="29" data-uid="ent0021" id="entity_Receive Confirmation"><ellipse cx="2532.176" cy="555.1052" fill="#F1F1F1" rx="88.176" ry="20.0352" style="stroke:#181818;stroke-width:0.5;"/><text fill="#000000" font-family="sans-serif" font-size="14" lengthAdjust="spacing" textLength="133.834" x="2465.259" y="558.8337">Receive Confirmation</text></g><g class="entity" data-entity="Send Money" data-source-line="33" data-uid="ent0023" id="entity_Send Money"><ellipse cx="823.9539" cy="389.8608" fill="#F1F1F1" rx="66.9539" ry="15.7908" style="stroke:#181818;stroke-width:0.5;"/><text fill="#000000" font-family="sans-serif" font-size="14" lengthAdjust="spacing" textLength="78.6064" x="781.6506" y="394.3774">Send Money</text></g><g class="entity" data-entity="Request Money" data-source-line="34" data-uid="ent0024" id="entity_Request Money"><ellipse cx="999.7628" cy="390.2226" fill="#F1F1F1" rx="73.7628" ry="17.1526" style="stroke:#181818;stroke-width:0.5;"/><text fill="#000000" font-family="sans-serif" font-size="14" lengthAdjust="spacing" textLength="98.0547" x="947.7355" y="394.7392">Request Money</text></g><g class="entity" data-entity="Authorize Sending Money" data-source-line="35" data-uid="ent0025" id="entity_Authorize Sending Money"><ellipse cx="1208.7568" cy="389.9214" fill="#F1F1F1" rx="99.7568" ry="22.3514" style="stroke:#181818;stroke-width:0.5;"/><text fill="#000000" font-family="sans-serif" font-size="14" lengthAdjust="spacing" textLength="160.3232" x="1128.5952" y="393.6499">Authorize Sending Money</text></g><g class="entity" data-entity="Choose Transfer Method" data-source-line="36" data-uid="ent0026" id="entity_Choose Transfer Method"><ellipse cx="803.8301" cy="554.936" fill="#F1F1F1" rx="97.3301" ry="21.866" style="stroke:#181818;stroke-width:0.5;"/><text fill="#000000" font-family="sans-serif" font-size="14" lengthAdjust="spacing" textLength="154.8545" x="726.4029" y="558.6645">Choose Transfer Method</text></g><g class="entity" data-entity="Send Money via QR Code" data-source-line="37" data-uid="ent0027" id="entity_Send Money via QR Code"><ellipse cx="1037.7901" cy="555.128" fill="#F1F1F1" rx="100.7901" ry="22.558" style="stroke:#181818;stroke-width:0.5;"/><text fill="#000000" font-family="sans-serif" font-size="14" lengthAdjust="spacing" textLength="162.6406" x="956.4698" y="558.8565">Send Money via QR Code</text></g><g class="entity" data-entity="Scan QR Code" data-source-line="38" data-uid="ent0028" id="entity_Scan QR Code"><ellipse cx="1246.843" cy="554.9386" fill="#F1F1F1" rx="72.343" ry="16.8686" style="stroke:#181818;stroke-width:0.5;"/><text fill="#000000" font-family="sans-serif" font-size="14" lengthAdjust="spacing" textLength="94.1582" x="1196.7639" y="559.4552">Scan QR Code</text></g><g class="entity" data-entity="Check Balance" data-source-line="42" data-uid="ent0030" id="entity_Check Balance"><ellipse cx="1490.8454" cy="554.9391" fill="#F1F1F1" rx="72.3454" ry="16.8691" style="stroke:#181818;stroke-width:0.5;"/><text fill="#000000" font-family="sans-serif" font-size="14" lengthAdjust="spacing" textLength="94.165" x="1440.7629" y="559.4557">Check Balance</text></g><g class="entity" data-entity="View Transaction History" data-source-line="43" data-uid="ent0031" id="entity_View Transaction History"><ellipse cx="1743.818" cy="554.9336" fill="#F1F1F1" rx="97.318" ry="21.8636" style="stroke:#181818;stroke-width:0.5;"/><text fill="#000000" font-family="sans-serif" font-size="14" lengthAdjust="spacing" textLength="154.8271" x="1666.4044" y="558.6621">View Transaction History</text></g><g class="entity" data-entity="Filter Transaction" data-source-line="44" data-uid="ent0032" id="entity_Filter Transaction"><ellipse cx="1978.063" cy="554.9826" fill="#F1F1F1" rx="77.563" ry="17.9126" style="stroke:#181818;stroke-width:0.5;"/><text fill="#000000" font-family="sans-serif" font-size="14" lengthAdjust="spacing" textLength="108.1445" x="1921.868" y="559.2904">Filter Transaction</text></g><g class="entity" data-entity="Update Balance" data-source-line="45" data-uid="ent0033" id="entity_Update Balance"><ellipse cx="1490.8428" cy="675.8386" fill="#F1F1F1" rx="74.3428" ry="17.2686" style="stroke:#181818;stroke-width:0.5;"/><text fill="#000000" font-family="sans-serif" font-size="14" lengthAdjust="spacing" textLength="99.627" x="1438.0293" y="680.3552">Update Balance</text></g><g class="entity" data-entity="Handle Failed Transactions" data-source-line="46" data-uid="ent0034" id="entity_Handle Failed Transactions"><ellipse cx="1704.7784" cy="675.8257" fill="#F1F1F1" rx="104.2784" ry="23.2557" style="stroke:#181818;stroke-width:0.5;"/><text fill="#000000" font-family="sans-serif" font-size="14" lengthAdjust="spacing" textLength="170.4199" x="1619.5685" y="679.5542">Handle Failed Transactions</text></g><g class="entity" data-entity="Authorize Real-Time Transactions" data-source-line="47" data-uid="ent0035" id="entity_Authorize Real-Time Transactions"><ellipse cx="1968.171" cy="676.1042" fill="#F1F1F1" rx="123.171" ry="27.0342" style="stroke:#181818;stroke-width:0.5;"/><text fill="#000000" font-family="sans-serif" font-size="14" lengthAdjust="spacing" textLength="211.6338" x="1862.3542" y="679.8327">Authorize Real-Time Transactions</text></g><g class="entity" data-entity="Add Recipients to Favorites for Quick Transfer" data-source-line="51" data-uid="ent0037" id="entity_Add Recipients to Favorites for Quick Transfer"><ellipse cx="3651.8995" cy="555.2499" fill="#F1F1F1" rx="158.8995" ry="34.1799" style="stroke:#181818;stroke-width:0.5;"/><text fill="#000000" font-family="sans-serif" font-size="14" lengthAdjust="spacing" textLength="287.1094" x="3508.3449" y="558.9784">Add Recipients to Favorites for Quick Transfer</text></g><g class="entity" data-entity="Delete Favorite" data-source-line="52" data-uid="ent0038" id="entity_Delete Favorite"><ellipse cx="3919.1224" cy="554.9945" fill="#F1F1F1" rx="72.6224" ry="16.9245" style="stroke:#181818;stroke-width:0.5;"/><text fill="#000000" font-family="sans-serif" font-size="14" lengthAdjust="spacing" textLength="94.9307" x="3868.6571" y="559.5111">Delete Favorite</text></g><g class="entity" data-entity="Search" data-source-line="53" data-uid="ent0039" id="entity_Search"><ellipse cx="3651.8544" cy="676.0226" fill="#F1F1F1" rx="42.8544" ry="15.4526" style="stroke:#181818;stroke-width:0.5;"/><text fill="#000000" font-family="sans-serif" font-size="14" lengthAdjust="spacing" textLength="44.3584" x="3629.3313" y="679.8586">Search</text></g><g class="entity" data-entity="Contact Customer Support" data-source-line="57" data-uid="ent0041" id="entity_Contact Customer Support"><ellipse cx="1846.1782" cy="389.9056" fill="#F1F1F1" rx="102.1782" ry="22.8356" style="stroke:#181818;stroke-width:0.5;"/><text fill="#000000" font-family="sans-serif" font-size="14" lengthAdjust="spacing" textLength="165.7441" x="1763.3061" y="393.6341">Contact Customer Support</text></g><g class="entity" data-entity="View User Reports" data-source-line="61" data-uid="ent0043" id="entity_View User Reports"><ellipse cx="111.9755" cy="238.6651" fill="#F1F1F1" rx="80.9755" ry="18.5951" style="stroke:#181818;stroke-width:0.5;"/><text fill="#000000" font-family="sans-serif" font-size="14" lengthAdjust="spacing" textLength="116.7031" x="53.0596" y="242.5586">View User Reports</text></g><g class="entity" data-entity="Deactivate User Account" data-source-line="62" data-uid="ent0044" id="entity_Deactivate User Account"><ellipse cx="324.9826" cy="238.3665" fill="#F1F1F1" rx="96.9826" ry="21.7965" style="stroke:#181818;stroke-width:0.5;"/><text fill="#000000" font-family="sans-serif" font-size="14" lengthAdjust="spacing" textLength="154.0684" x="247.9485" y="242.095">Deactivate User Account</text></g><g class="entity" data-entity="Manage Roles" data-source-line="63" data-uid="ent0045" id="entity_Manage Roles"><ellipse cx="527.9542" cy="238.6608" fill="#F1F1F1" rx="70.9542" ry="16.5908" style="stroke:#181818;stroke-width:0.5;"/><text fill="#000000" font-family="sans-serif" font-size="14" lengthAdjust="spacing" textLength="90.2754" x="479.8165" y="243.1774">Manage Roles</text></g><g class="entity" data-entity="Set Ticket Status" data-source-line="64" data-uid="ent0046" id="entity_Set Ticket Status"><ellipse cx="115.1676" cy="390.3035" fill="#F1F1F1" rx="76.6676" ry="17.7335" style="stroke:#181818;stroke-width:0.5;"/><text fill="#000000" font-family="sans-serif" font-size="14" lengthAdjust="spacing" textLength="105.8203" x="59.6867" y="394.7201">Set Ticket Status</text></g><g class="entity" data-entity="Send Notification" data-source-line="65" data-uid="ent0047" id="entity_Send Notification"><ellipse cx="303.1754" cy="390.3051" fill="#F1F1F1" rx="76.6754" ry="17.7351" style="stroke:#181818;stroke-width:0.5;"/><text fill="#000000" font-family="sans-serif" font-size="14" lengthAdjust="spacing" textLength="105.8408" x="247.6882" y="394.7207">Send Notification</text></g><g class="entity" data-entity="Refresh Tickets" data-source-line="66" data-uid="ent0048" id="entity_Refresh Tickets"><ellipse cx="487.9668" cy="390.1634" fill="#F1F1F1" rx="73.4668" ry="17.0934" style="stroke:#181818;stroke-width:0.5;"/><text fill="#000000" font-family="sans-serif" font-size="14" lengthAdjust="spacing" textLength="97.248" x="436.3428" y="394.68">Refresh Tickets</text></g><g class="entity" data-entity="Check System Status" data-source-line="67" data-uid="ent0049" id="entity_Check System Status"><ellipse cx="119.1731" cy="555.1046" fill="#F1F1F1" rx="88.1731" ry="20.0346" style="stroke:#181818;stroke-width:0.5;"/><text fill="#000000" font-family="sans-serif" font-size="14" lengthAdjust="spacing" textLength="133.8271" x="52.2595" y="558.8331">Check System Status</text></g><!--reverse link Auth to Account--><g class="link" data-entity-1="Auth" data-entity-2="Account" data-source-line="71" data-uid="lnk50" id="link_Auth_Account"><path d="M1965.1154,133.0165 C1965.664,133.0355 1960.6474,132.8641 1961.2445,132.8856 C1962.4386,132.9287 1963.7286,132.9769 1965.1098,133.0307 C1967.8724,133.1383 1971.0001,133.2684 1974.4566,133.4245 C1988.2825,134.0491 2007.3688,135.0906 2029.385,136.7813 C2073.4175,140.1625 2129.17,146.14 2178,156.57 C2387.4,201.3 2465.07,177.1 2636,306.07 C2653.205,319.05 2666.8825,338.93 2676.4125,355.98 C2678.795,360.2425 2680.9183,364.3281 2682.7727,368.0848 C2683.0045,368.5544 2683.232,369.0189 2683.4554,369.4779 C2683.5671,369.7074 2683.6777,369.9356 2683.7873,370.1623 C2683.8421,370.2757 2683.8966,370.3887 2683.9509,370.5014" fill="none" id="Auth-backto-Account" style="stroke:#181818;stroke-width:1;"/><polygon fill="#181818" points="1959.1189,132.8108,1967.9765,137.1169,1964.116,132.9822,1968.2507,129.1216,1959.1189,132.8108" style="stroke:#181818;stroke-width:1;"/></g><!--reverse link Auth to Banking--><g class="link" data-entity-1="Auth" data-entity-2="Banking" data-source-line="72" data-uid="lnk51" id="link_Auth_Banking"><path d="M1965.1634,132.4534 C1965.4496,132.4521 1960.1668,132.4793 1960.4656,132.4782 C1961.0632,132.476 1961.6859,132.4744 1962.3326,132.4733 C1963.6261,132.4712 1965.0157,132.4716 1966.4939,132.4754 C1969.4503,132.483 1972.7608,132.5043 1976.3637,132.547 C1990.7756,132.7178 2009.8675,133.2306 2029.6975,134.5763 C2069.3575,137.2675 2111.97,143.29 2126,156.57 C2163.62,192.18 2175.11,249.06 2177.0775,297.645 C2177.3234,303.7181 2177.4206,309.6616 2177.4014,315.4178 C2177.3966,316.8568 2177.3845,318.2842 2177.3657,319.6989 C2177.3563,320.4063 2177.3451,321.1105 2177.3324,321.8114" fill="none" id="Auth-backto-Banking" style="stroke:#181818;stroke-width:1;"/><polygon fill="#181818" points="1959.1635,132.4838,1968.1837,136.4381,1964.1635,132.4585,1968.1431,128.4382,1959.1635,132.4838" style="stroke:#181818;stroke-width:1;"/></g><!--reverse link Auth to Transfer--><g class="link" data-entity-1="Auth" data-entity-2="Transfer" data-source-line="73" data-uid="lnk52" id="link_Auth_Transfer"><path d="M1959.9889,175.9109 C1960.1285,176.8425 1959.4681,172.5504 1959.6021,173.5044 C1960.6744,181.1361 1961.5531,189.4625 1962.005,198.1475 C1963.8125,232.8875 1958.79,273.365 1932,298.07 C1922.23,307.08 1706.17,304.3 1693,306.07 C1615.225,316.515 1529.465,336.785 1462.4212,354.6788 C1428.8994,363.6256 1400.0566,371.9784 1379.2305,378.212 C1368.8174,381.3288 1360.4086,383.9158 1354.4211,385.7824 C1353.6726,386.0157 1352.962,386.2377 1352.2901,386.4482" fill="none" id="Auth-backto-Transfer" style="stroke:#181818;stroke-width:1;"/><polygon fill="#181818" points="1959.0863,169.9792,1956.4857,179.4785,1959.8384,174.9223,1964.3946,178.275,1959.0863,169.9792" style="stroke:#181818;stroke-width:1;"/></g><!--reverse link Auth to Transaction--><g class="link" data-entity-1="Auth" data-entity-2="Transaction" data-source-line="74" data-uid="lnk53" id="link_Auth_Transaction"><path d="M1965.1314,133.2209 C1965.4421,133.2415 1960.2328,132.9145 1960.557,132.938 C1965.7453,133.3128 1972.6256,134.0644 1980.1263,135.5663 C1995.1275,138.57 2012.61,144.575 2024,156.57 C2085.92,221.765 2108.8,320.1025 2116.1363,402.6538 C2117.9703,423.2916 2118.8329,442.9427 2119.0911,460.8428 C2119.2202,469.7928 2119.1982,478.305 2119.0711,486.2839 C2119.0631,486.7825 2119.0548,487.2791 2119.046,487.7736" fill="none" id="Auth-backto-Transaction" style="stroke:#181818;stroke-width:1;"/><polygon fill="#181818" points="1959.1433,132.8422,1967.8729,137.4023,1964.1334,133.1578,1968.3779,129.4183,1959.1433,132.8422" style="stroke:#181818;stroke-width:1;"/></g><!--reverse link Auth to Contacts--><g class="link" data-entity-1="Auth" data-entity-2="Contacts" data-source-line="75" data-uid="lnk54" id="link_Auth_Contacts"><path d="M1965.2886,132.7655 C1965.7024,132.7716 1960.7409,132.6995 1961.182,132.7061 C1962.0643,132.7194 1963.0008,132.7338 1963.9906,132.7494 C1971.9085,132.8739 1983.2292,133.073 1997.3478,133.3767 C2025.585,133.9841 2065.0138,135.0094 2110.795,136.6913 C2202.3575,140.055 2319.33,146.045 2423,156.57 C2860.9,201.02 3079.98,6 3402,306.07 C3442.69,343.985 3456.8925,404.655 3460.8238,456.4963 C3461.3152,462.9764 3461.6461,469.3186 3461.8482,475.4612 C3461.8608,475.8451 3461.8729,476.2282 3461.8846,476.6106" fill="none" id="Auth-backto-Contacts" style="stroke:#181818;stroke-width:1;"/><polygon fill="#181818" points="1959.2893,132.6781,1968.23,136.8088,1964.2887,132.7509,1968.3466,128.8096,1959.2893,132.6781" style="stroke:#181818;stroke-width:1;"/></g><!--reverse link Auth to Support--><g class="link" data-entity-1="Auth" data-entity-2="Support" data-source-line="76" data-uid="lnk55" id="link_Auth_Support"><path d="M1964.453,138.2938 C1964.5492,138.3384 1959.3425,135.9349 1959.4397,135.9805 C1959.6343,136.0716 1959.8309,136.1645 1960.0294,136.2593 C1961.6177,137.0173 1963.3303,137.8931 1965.0938,138.8875 C1972.1475,142.865 1980.015,148.74 1984,156.57 C2012.54,212.61 2027.77,252.91 1984,298.07 C1964.19,318.5 1749.98,287.99 1728,306.07 C1724.4613,308.9813 1721.5009,312.4045 1719.0309,316.1731 C1717.7958,318.0575 1716.6833,320.0281 1715.6824,322.0642 C1715.5573,322.3187 1715.4339,322.5743 1715.3122,322.8308" fill="none" id="Auth-backto-Support" style="stroke:#181818;stroke-width:1;"/><polygon fill="#181818" points="1959.0056,135.7787,1965.5,143.1829,1963.5451,137.8746,1968.8535,135.9197,1959.0056,135.7787" style="stroke:#181818;stroke-width:1;"/></g><!--reverse link Auth to Admin--><g class="link" data-entity-1="Auth" data-entity-2="Admin" data-source-line="77" data-uid="lnk56" id="link_Auth_Admin"><path d="M1492.9352,157.4223 C1489.9048,157.5949 1492.8593,157.4285 1489.8184,157.6055 C1483.7364,157.9595 1477.6338,158.3221 1471.5127,158.6931 C1459.2704,159.4351 1446.9541,160.2103 1434.581,161.0159 C1409.8348,162.6272 1384.8615,164.36 1359.7993,166.1913 C1309.6748,169.8539 1259.1946,173.9102 1209.4642,178.1755 C1110.0034,186.7059 1013.5419,196.0719 928.9237,204.7938 C844.3056,213.5156 771.5309,221.5934 719.4439,227.5477 C693.4004,230.5248 672.5288,232.971 657.9346,234.7013 C654.2861,235.1339 651.0299,235.5218 648.1833,235.862 C646.76,236.0321 645.4391,236.1903 644.2228,236.3363 C643.6146,236.4092 643.0326,236.4791 642.477,236.5459 C642.3381,236.5626 642.2008,236.5791 642.0652,236.5954" fill="none" id="Auth-backto-Admin" style="stroke:#181818;stroke-width:1;"/><polygon fill="#181818" points="1498.9255,157.0811,1489.7126,153.5994,1493.9336,157.3654,1490.1675,161.5864,1498.9255,157.0811" style="stroke:#181818;stroke-width:1;"/></g><!--link Transfer to Transaction--><g class="link" data-entity-1="Transfer" data-entity-2="Transaction" data-source-line="79" data-uid="lnk57" id="link_Transfer_Transaction"><path d="M1352.0948,397.3211 C1352.182,397.3863 1352.2699,397.4519 1352.3584,397.518 C1352.7124,397.7822 1353.0766,398.053 1353.4507,398.3303 C1354.199,398.8848 1354.9871,399.465 1355.8134,400.0684 C1362.4238,404.8963 1371.4763,411.2188 1382.11,417.895 C1403.3775,431.2475 1430.97,446.015 1458,453.07 C1475.45,457.62 2093.79,448.8 2107,461.07 C2114.48,468.02 2118.7631,477.1819 2120.9698,487.0459 C2121.1078,487.6624 2120.0823,482.394 2120.2043,483.0156" fill="none" id="Transfer-to-Transaction" style="stroke:#181818;stroke-width:1;"/><polygon fill="#181818" points="2121.3595,488.9033,2123.5518,479.3015,2120.3968,483.9969,2115.7015,480.8419,2121.3595,488.9033" style="stroke:#181818;stroke-width:1;"/></g><!--link Banking to Transaction--><g class="link" data-entity-1="Banking" data-entity-2="Transaction" data-source-line="80" data-uid="lnk58" id="link_Banking_Transaction"><path d="M2162.9357,414.5444 C2162.8586,414.7688 2162.7811,414.9944 2162.7032,415.2212 C2162.3915,416.1285 2162.0731,417.055 2161.7486,417.9995 C2156.5559,433.1128 2149.7719,452.8581 2142.9887,472.6013 C2136.2056,492.3444 2129.4234,512.0853 2124.2345,527.1898 C2123.9102,528.1339 2123.5921,529.0598 2123.2807,529.9665 C2123.2028,530.1931 2125.0747,524.7441 2124.9977,524.9684" fill="none" id="Banking-to-Transaction" style="stroke:#181818;stroke-width:1;"/><polygon fill="#181818" points="2123.0483,530.6429,2129.7553,523.4307,2124.6728,525.9141,2122.1893,520.8315,2123.0483,530.6429" style="stroke:#181818;stroke-width:1;"/></g><!--link Admin to Account--><g class="link" data-entity-1="Admin" data-entity-2="Account" data-source-line="81" data-uid="lnk59" id="link_Admin_Account"><path d="M642.485,240.334 C643.0411,240.3837 643.6237,240.4356 644.2324,240.4898 C645.4498,240.5982 646.7718,240.7156 648.1964,240.8419 C651.0454,241.0945 654.3044,241.3823 657.956,241.7032 C672.5622,242.9867 693.4501,244.799 719.5114,246.9992 C771.6341,251.3997 844.4506,257.3519 929.0962,263.7288 C1098.3875,276.4825 1314.995,290.935 1508,298.07 C1523.66,298.65 2622.19,298.67 2636,306.07 C2655.305,316.42 2669.1725,336.6875 2678.2788,354.6038 C2679.417,356.8433 2680.4809,359.0461 2681.4717,361.1882 C2681.9671,362.2592 2682.4443,363.3151 2682.9033,364.3528 C2683.1328,364.8716 2683.3578,365.3859 2683.5783,365.8953 C2683.6885,366.15 2681.4358,360.8879 2681.5438,361.1401" fill="none" id="Admin-to-Account" style="stroke:#181818;stroke-width:1;"/><polygon fill="#181818" points="2683.9057,366.6557,2684.0399,356.8077,2681.9374,362.0594,2676.6858,359.9569,2683.9057,366.6557" style="stroke:#181818;stroke-width:1;"/></g><!--link Admin to Banking--><g class="link" data-entity-1="Admin" data-entity-2="Banking" data-source-line="82" data-uid="lnk60" id="link_Admin_Banking"><path d="M642.4861,240.3007 C643.0423,240.3482 643.6249,240.3978 644.2337,240.4497 C645.4513,240.5534 646.7735,240.6658 648.1983,240.7867 C651.0477,241.0285 654.3072,241.3042 657.9592,241.6117 C672.5675,242.8419 693.4582,244.5819 719.5227,246.7025 C771.6516,250.9438 844.4756,256.7075 929.1262,262.96 C1098.4275,275.465 1315.035,289.925 1508,298.07 C1558.63,300.21 1914.33,296.03 1964,306.07 C2011.82,315.735 2062.7125,335.9925 2102.0688,354.0738 C2121.7469,363.1144 2138.5409,371.6109 2150.6248,377.9673 C2153.6458,379.5564 2156.3724,381.0118 2158.7761,382.3084 C2159.9779,382.9568 2161.099,383.5654 2162.1358,384.1313 C2162.395,384.2727 2157.3857,381.5309 2157.6343,381.667" fill="none" id="Admin-to-Banking" style="stroke:#181818;stroke-width:1;"/><polygon fill="#181818" points="2162.8976,384.5476,2156.9231,376.7178,2158.5115,382.1471,2153.0823,383.7355,2162.8976,384.5476" style="stroke:#181818;stroke-width:1;"/></g><!--link Admin to Transfer--><g class="link" data-entity-1="Admin" data-entity-2="Transfer" data-source-line="83" data-uid="lnk61" id="link_Admin_Transfer"><path d="M642.0834,239.7237 C642.3931,239.73 642.7112,239.7364 643.0378,239.7431 C648.2627,239.8499 655.6416,240.0084 664.8794,240.2265 C683.3548,240.6627 709.2656,241.3373 740.2506,242.3134 C802.2206,244.2656 884.4875,247.4238 968.1625,252.2925 C1135.5125,262.03 1308.495,278.61 1336,306.07 C1339.1763,309.2413 1341.7006,312.8616 1343.6844,316.7757 C1344.6763,318.7327 1345.5331,320.7633 1346.2686,322.8478 C1346.3145,322.9781 1344.4058,317.4358 1344.4508,317.5665" fill="none" id="Admin-to-Transfer" style="stroke:#181818;stroke-width:1;"/><polygon fill="#181818" points="1346.4051,323.2393,1347.2556,313.4272,1344.7765,318.5119,1339.6918,316.0329,1346.4051,323.2393" style="stroke:#181818;stroke-width:1;"/></g><!--link Admin to Transaction--><g class="link" data-entity-1="Admin" data-entity-2="Transaction" data-source-line="84" data-uid="lnk62" id="link_Admin_Transaction"><path d="M642.8791,239.984 C643.1836,239.9986 643.4956,240.0135 643.815,240.0289 C644.4537,240.0595 645.1221,240.0916 645.8197,240.1253 C647.2148,240.1926 648.7266,240.2659 650.3514,240.3451 C653.6009,240.5035 657.3025,240.6857 661.4269,240.8914 C677.9245,241.714 701.1865,242.9118 729.3405,244.4636 C785.6484,247.5672 861.5244,252.0869 941.9888,257.8538 C1102.9175,269.3875 1282.2,285.91 1360,306.07 C1516.61,346.65 1535.03,418.16 1693,453.07 C1704.23,455.55 2098.6,453.21 2107,461.07 C2114.455,468.045 2118.725,477.2194 2120.9263,487.0881 C2121.0638,487.7049 2120.0411,482.4361 2120.1627,483.058" fill="none" id="Admin-to-Transaction" style="stroke:#181818;stroke-width:1;"/><polygon fill="#181818" points="2121.315,488.9463,2123.5122,479.3456,2120.3548,484.0394,2115.6611,480.882,2121.315,488.9463" style="stroke:#181818;stroke-width:1;"/></g><!--link Admin to Support--><g class="link" data-entity-1="Admin" data-entity-2="Support" data-source-line="85" data-uid="lnk63" id="link_Admin_Support"><path d="M642.6175,239.8414 C642.9483,239.8522 643.2883,239.8633 643.6373,239.8747 C649.2215,240.0576 657.1268,240.3219 667.0712,240.6687 C686.9601,241.3622 715.0055,242.3853 748.9516,243.745 C816.8438,246.4644 908.3388,250.53 1005.39,255.9975 C1199.4925,266.9325 1415.82,283.475 1510,306.07 C1555.865,317.075 1604.79,337.3525 1642.6513,355.11 C1661.5819,363.9888 1677.7466,372.2375 1689.3798,378.3822 C1692.2882,379.9184 1694.9133,381.323 1697.2276,382.5732 C1698.3847,383.1982 1699.4642,383.7847 1700.4625,384.3296 C1700.5873,384.3977 1695.4458,381.5876 1695.5681,381.6545" fill="none" id="Admin-to-Support" style="stroke:#181818;stroke-width:1;"/><polygon fill="#181818" points="1700.8331,384.532,1694.8539,376.7057,1696.4456,382.134,1691.0173,383.7257,1700.8331,384.532" style="stroke:#181818;stroke-width:1;"/></g><!--SRC=[XLLDRzim3BtxLn2vx9GC-zvX692cBLgWxRgaBR0ZQzEn45do93b5Lko_ZufZMueTx6JuaQ8U7pzaDq9LQB242jCDhcdbTfB0KEfGhIKbjdDuPeUrqRNA5bfg0o-5SA7T5fZf5w7MaAEqb2I7Y31vDuD7ImRcjIj8EP6Y4rh1VMEV0Dgz2LuJWDfIYfOFBMajh2Cp2S4RlOPh5K7d9CaHpDEKgRd8j2Wu1uBxwxi8vd-uv0GU32gBgUSoIVu6VD_Fsd1mYugXabd7T0_cYF559jYBZDKA9TFCzHYRSs4hYJkumv96xPHZBHrStyzXdcM6h8tSdWIzm2zTcz23OfyBXS-Itl9L_Wjtsedye7hiU2Prke5vLOLYn2wFwld_JYjoZJ7dCj-8KhXOqGypE4EryStneoBJC8aKRSsHeZT2RVQMqV8-aH7vBhApUWw5j6CTueDHTZhSab8IMuA5Lham9GxxukCCRhMYNPzgc447liRAgAmvTNJPxvgi6x7uIT16_27mHxqaGvz5eJL_knjlYSzaa_5xOIiGVYuvhonkk5MAgZU4YNwQXQK-DGIXosjCZr9VDuagfM7pXkUkUCQrYREx59BdFXxFi26h3BcSO-6lK6NSxvVS0bpfaztQIxmabDC7KTAHSoZ6vvbl2SSsUqg9pXx9mBF95wIY4knlmMacjkLx7Ld8UV_yh0NBr1Pnh6LR_wFAeacBcECNvbYpaYNhjgghIfkOO8l5PMfO3qx6eR_oCinAeRXGPcHlUrCSTb_Z_RvVaWztF8nUvAslOFCcZ4nYep8ijQIHDSEYyMVbqDLssFBXhZkQk9mtPN4uRoV3Xbtj-BqfkyWimfisLtuGPREq2b7PPFzQVPjEM_OzS5XZFT2MzmXfEgq7smxgaKCnWhkyr4dI3Vrq-ZsArMxGOxmfaKSxjXtIqUsGdcyC3OAr_Fu1]--></g></svg>